<svg id="Layer_1" data-name="Layer 1" xmlns="http://www.w3.org/2000/svg" viewBox="0 0 2838.4 3362.99"><defs><style>.cls-1{fill:#776f6e;}.cls-2{fill:#5d8749;}.cls-3{fill:#a07f75;}.cls-4{fill:#96766f;}.cls-5{fill:#4c2d20;}.cls-6{fill:#72554a;}.cls-7{fill:#dbdad9;}.cls-8{fill:#960c23;}.cls-9{fill:#ce2136;}.cls-10{fill:#b71833;}.cls-11,.cls-13{fill:none;stroke-miterlimit:10;}.cls-11{stroke:#070707;}.cls-12{fill:#070707;}.cls-13{stroke:#000;}.cls-14{fill:#4f4948;}</style></defs><title>Artboard 1</title><rect class="cls-1" x="0.13" y="-1.13" width="567.63" height="672.33"/><path class="cls-2" d="M199.24,333.21c-106.51,0-192.86,2.9-192.86,6.47,0,1.56,16.41,3,43.75,4.11h0c-4.66,17.57-27.44,19.45-27.44,19.45-.1.72-1.66,1.9,0,1.81,43.12-2.3,50-20.48,50-20.48h0c33.87,1,78.14,1.59,126.57,1.59,106.52,0,192.87-2.9,192.87-6.48S305.76,333.21,199.24,333.21Z"/><path class="cls-3" d="M125.89,84.28s3.26,9.32-31,17.75l12.45,91.3s24.12,8.43,58.34,0c0,0,3.23-74.89,14.45-93.85,0,0-26.79,2.71-31.28-19.42H125.33Z"/><path class="cls-3" d="M98.84,102.59C86.56,100,57.68,131.94,73.43,163.26,80.88,178.07,120.34,107.12,98.84,102.59Z"/><path class="cls-4" d="M117.2,46.59v12.9s-8.42,4.77,0,10.1v9l19.35,12.62L158.43,78V69.87s9.81-2.25,1.4-9V39.58L129.26,28.92Z"/><path class="cls-3" d="M232.7,118.75c-1.46-14.34-68.13-31.77-76.28-5.18C153.07,124.51,235.2,143.19,232.7,118.75Z"/><path class="cls-3" d="M218.31,117.5c3.19,10.08,63.65,19.06,67.21-.19C287,109.39,212.88,100.31,218.31,117.5Z"/><path class="cls-4" d="M137.86,170.39c-5.15,9.66-68.1,7.3-68.06-13C69.82,149.07,146.62,153.93,137.86,170.39Z"/><path class="cls-5" d="M117.2,55.56s-10.94-3.92,0-23.28c0,0,1.12-10.65,25.8-8.13,0,0,14.3-4.77,15.43-9.82,0,0,.84,8.42-8.7,12.63,0,0,11-1.69,13.51-10.1,0,0,5.28,2.24-6.78,14.3,0,0,9.86-3.92,13.91-7.85s-7.13,13.74-7.13,13.74l-2,17.11-5.89-11.22s-21.88,11.78-28.61-6.45Z"/><path d="M116.85,57.89c-.34-4.83,6.38-8.22,19.7-.64l3.86.06s16-8.34,19.42-1.47c.91,1.82.54,11.57-19.56,3.16l-3.72.14S117.55,68.08,116.85,57.89Z"/><path class="cls-6" d="M142.44,67.25c0,.57-1.51,1-3.37,1s-3.36-.46-3.36-1,1.5-.47,3.36-.47S142.44,66.68,142.44,67.25Z"/><polygon class="cls-7" points="128.51 70.9 126.64 80.25 142.44 77.07 128.51 70.9"/><path class="cls-8" d="M125.14,257.48c-.43-4.11-10.69-8.21-21.63-7.06s-20.68,6.32-20.25,10.43,10,2.83,20.94,1.68S125.57,261.59,125.14,257.48Z"/><path class="cls-8" d="M186.53,249.11c-.7-4.07-11.21-7.49-22.05-5.62s-20.22,7.68-19.52,11.75,10.17,2.16,21,.29S187.23,253.18,186.53,249.11Z"/><ellipse class="cls-6" cx="110.56" cy="132.76" rx="2.9" ry="1.26"/><ellipse class="cls-6" cx="160.34" cy="131.5" rx="2.9" ry="1.26"/><ellipse class="cls-3" cx="187.57" cy="289.42" rx="12.04" ry="38.3" transform="matrix(0.96, -0.29, 0.29, 0.96, -74.72, 65.48)"/><ellipse class="cls-3" cx="103.54" cy="290.33" rx="13.76" ry="38.72" transform="translate(-78.46 41.56) rotate(-16.56)"/><ellipse class="cls-3" cx="164.03" cy="235.51" rx="16.72" ry="33.62" transform="translate(-75.81 77.88) rotate(-21.83)"/><ellipse class="cls-3" cx="108.11" cy="241.95" rx="33.16" ry="15.83" transform="translate(-155.48 214.6) rotate(-60)"/><path class="cls-9" d="M107.38,190s14.77,8.79,58.34,0l20.73,58.15s-26.9-12.34-41.49,7.11l-6.5-25.43-13.32,27.67s-20.19-15-41.88,3.37C83.26,260.85,106.07,205.88,107.38,190Z"/><path class="cls-10" d="M105.27,199.72s38.85,7.12,63.67-1.24l-3.22-9s-30.71,8.33-58.34,0Z"/><line class="cls-11" x1="111.15" y1="193.67" x2="109.96" y2="198.32"/><line class="cls-11" x1="122.11" y1="195.08" x2="121.39" y2="199.83"/><line class="cls-11" x1="126.72" y1="195.38" x2="126.72" y2="200.18"/><line class="cls-11" x1="153.94" y1="195.07" x2="154.44" y2="199.85"/><line class="cls-11" x1="149.55" y1="195.74" x2="150.05" y2="200.51"/><line class="cls-11" x1="158.49" y1="193.61" x2="158.99" y2="198.38"/><line class="cls-11" x1="163.51" y1="192.68" x2="164.01" y2="197.46"/><line class="cls-11" x1="116.78" y1="194.66" x2="116.06" y2="199.41"/><ellipse class="cls-12" cx="134.48" cy="198.55" rx="1.16" ry="1.52"/><ellipse class="cls-12" cx="142.75" cy="198.12" rx="1.16" ry="1.52"/><path class="cls-12" d="M133.6,216.63s-6.45-9.17,0-18.08l.88.48s-6.35,7.92-.46,16.83S133.6,216.63,133.6,216.63Z"/><path class="cls-12" d="M143.06,213.76s5.84-8.1,0-16l-.79.42s5.74,7,.41,14.88S143.06,213.76,143.06,213.76Z"/><path class="cls-3" d="M112.6,321.48c-7.22,0-13.07,4.46-13.07,9.95h26.15C125.68,325.94,119.83,321.48,112.6,321.48Z"/><rect class="cls-12" x="99.53" y="329.74" width="26.16" height="3.37"/><path class="cls-13" d="M119.56,322.6s-10.42,3.59-11.19,7-.75-5.74-5-5"/><path class="cls-3" d="M199.9,321.29c7.22,0,13.07,4.45,13.07,9.94H186.82C186.82,325.74,192.67,321.29,199.9,321.29Z"/><rect class="cls-12" x="186.82" y="329.55" width="26.16" height="3.37"/><path class="cls-13" d="M207.48,322.59s-10.42,3.59-11.19,7-.75-5.74-5-5"/><polygon class="cls-4" points="134.42 169.25 147.13 157.94 164.85 157.88 174.3 164.65 166.47 171.35 154.21 167.55 139.58 173.47 134.42 169.25"/><polygon class="cls-3" points="279.24 117.36 290.76 108.69 307.38 109.26 316.47 115.04 309.36 120.17 297.74 116.68 284.23 120.94 279.24 117.36"/><rect class="cls-14" x="567.81" y="2689.95" width="567.63" height="673.08"/><path class="cls-2" d="M764.68,3027.17c-106.51,0-192.86,2.9-192.86,6.47,0,1.56,16.41,3,43.75,4.11h0c-4.66,17.56-27.44,19.45-27.44,19.45-.1.72-1.66,1.9,0,1.81,43.12-2.3,50-20.49,50-20.49h0c33.87,1,78.14,1.59,126.57,1.59,106.52,0,192.87-2.9,192.87-6.47S871.2,3027.17,764.68,3027.17Z"/><path class="cls-3" d="M711.66,3017.11c-14.48-11.8-31.19-25.56-26.33-31.15s29.45-.88,43.93,10.92,22.27,25.91,17.41,31.5S726.14,3028.92,711.66,3017.11Z"/><path class="cls-3" d="M814.9,2832.13s-3.12,12.51-35.82-.61l-42.85,78.38s14.67,20.92,47.38,34c0,0,46.32-58.93,66.5-67.79,0,0-23.34-13.43-14.08-34l-19.13-13.75Z"/><path class="cls-4" d="M831,2794.77l-7.52,10.48s-9.62-1-5.89,8.2l-5.24,7.29,8.35,21.54,25.46,2.06,4.74-6.61s9.29,3.91,6.38-6.47L869.75,2814l-18.61-26.49Z"/><path class="cls-5" d="M825.8,2802.06s-6.59-9.57,13.58-18.91c0,0,7.13-8,25.7,8.45,0,0,14.4,4.48,18.26,1,0,0-4.23,7.33-14.43,5.18,0,0,9.94,5.06,16.86-.32,0,0,3,4.91-13.85,7.66,0,0,10.3,2.57,15.88,1.74s-13.81,7-13.81,7l-11.61,12.72,1.76-12.55s-24.64-3.19-19.47-21.93Z"/><path d="M831.38,2808.93c2.6-4.07,8.91-3.71,13.08,8.61l2.46,1.84s15.17.64,13.38,7.81c-.47,1.9-6.4,9.65-14.46-6.5l-2.48-1.61S825.89,2817.53,831.38,2808.93Z"/><path class="cls-6" d="M844.67,2830.43c-.33.46-1.82,0-3.33-1.13s-2.47-2.34-2.14-2.8,1.5.5,3,1.59S845,2830,844.67,2830.43Z"/><path class="cls-8" d="M765.51,3004.54c2.16-4.2-4.08-13.51-14.12-18.08s-21.55-4.63-23.7-.43,6.8,7.94,16.84,12.52S763.36,3008.75,765.51,3004.54Z"/><ellipse class="cls-6" cx="772.34" cy="2865.08" rx="1.26" ry="2.9" transform="translate(-2005.09 1820.54) rotate(-54.3)"/><ellipse class="cls-6" cx="813.5" cy="2893.1" rx="1.26" ry="2.9" transform="translate(-2010.7 1865.64) rotate(-54.3)"/><ellipse class="cls-3" cx="667.54" cy="2936.65" rx="28.39" ry="11.04" transform="translate(-2179.71 1955.48) rotate(-58.18)"/><ellipse class="cls-3" cx="751.91" cy="2987.59" rx="43.04" ry="16.98" transform="translate(-2323.55 2807.12) rotate(-72.51)"/><path class="cls-3" d="M712.58,2909.17c17.7,5.46,29.46,16.48,26.26,24.61s-19.49,12-37.19,6.55-30.09-18.23-26.89-26.35S694.89,2903.7,712.58,2909.17Z"/><path class="cls-9" d="M740.88,2903.33s6.1,16.79,47.33,34l-22.11,66.26s-13.56-27.18-38.41-17.56l11.75-27.48-20.78-8.81s1.52-36.33-13.93-43.1c0,0,7.32.39,20,2.34C729.16,2909.67,734.73,2906.43,740.88,2903.33Z"/><path class="cls-10" d="M732.17,2907s14.59,25.48,53,40.1l3.44-10.29s-30.49-10.14-47.33-34Z"/><line class="cls-11" x1="740.87" y1="2906.2" x2="736.53" y2="2909.52"/><line class="cls-11" x1="748.22" y1="2914.47" x2="744.17" y2="2918.19"/><line class="cls-11" x1="751.53" y1="2917.69" x2="747.99" y2="2921.91"/><line class="cls-11" x1="773.19" y1="2934.04" x2="770.06" y2="2938.57"/><line class="cls-11" x1="769.34" y1="2931.81" x2="766.2" y2="2936.33"/><line class="cls-11" x1="777.75" y1="2935.68" x2="774.62" y2="2940.2"/><line class="cls-11" x1="782.28" y1="2938.09" x2="779.14" y2="2942.61"/><line class="cls-11" x1="744.45" y1="2910.68" x2="740.4" y2="2914.39"/><ellipse class="cls-12" cx="755.13" cy="2925.46" rx="1.74" ry="1.16" transform="translate(-1971.79 1624.53) rotate(-50.02)"/><ellipse class="cls-12" cx="761.78" cy="2930.39" rx="1.74" ry="1.16" transform="translate(-1973.2 1631.38) rotate(-50.02)"/><path class="cls-12" d="M741.38,2941s1.82-12.2,13.33-15.9l.31,1s-10.7,2.89-12.75,14.5S741.38,2941,741.38,2941Z"/><path class="cls-12" d="M750.73,2944.53s10.44-3.38,11.78-14.06l-.92-.13a16.24,16.24,0,0,1-10.65,13.34C741.06,2947.19,750.73,2944.53,750.73,2944.53Z"/><path class="cls-3" d="M653.75,2957.36c-5.86-4.21-13.22-4-16.42.45l21.24,15.26C661.77,2968.61,659.62,2961.58,653.75,2957.36Z"/><rect class="cls-12" x="646.27" y="2952.36" width="3.37" height="26.16" transform="translate(-2138.41 1761.32) rotate(-54.3)"/><path class="cls-13" d="M658.75,2962.33s-10.56-3.16-13.15-.88,2.74-5.09-1.13-6.93"/><path class="cls-7" d="M827.18,2827.78c-2.64-1.89-5.78-2-7-.31l9.54,6.86C830.94,2832.61,829.81,2829.67,827.18,2827.78Z"/><path class="cls-3" d="M787.56,2841.59c-2.07,12.38-42.34,27.62-65.75,1.53C710.73,2830.78,791.19,2819.92,787.56,2841.59Z"/><path class="cls-3" d="M677.69,2811.31c-2.46,10.55,44.84,47.14,57.83,31.57C740.87,2836.48,681.89,2793.34,677.69,2811.31Z"/><path class="cls-3" d="M689.19,2993.69c1.7-7-1.25-13.76-6.59-15.05l-6.15,25.42C681.79,3005.35,687.49,3000.71,689.19,2993.69Z"/><rect class="cls-12" x="666.45" y="2989.67" width="26.16" height="3.37" transform="translate(-2387.74 2948.55) rotate(-76.4)"/><path class="cls-13" d="M686.47,3000.19s-1-11-4.13-12.52,5.75.62,6-3.66"/><path class="cls-4" d="M854.23,2882.6c-2,12.39-42.21,27.82-65.75,1.85C777.35,2872.16,857.76,2860.91,854.23,2882.6Z"/><path class="cls-4" d="M744.81,2854.19c-2.41,10.56,45.07,46.92,58,31.29C808.1,2879.05,748.92,2836.2,744.81,2854.19Z"/><polygon class="cls-4" points="755.27 2856.52 755.82 2846.06 744.33 2835.97 729.65 2830.73 732.36 2838.7 739.8 2846.01 748.23 2858.16 755.27 2856.52"/><polygon class="cls-3" points="683.54 2814.66 684.09 2804.21 672.61 2794.12 657.92 2788.88 660.63 2796.84 668.07 2804.15 676.5 2816.3 683.54 2814.66"/><rect class="cls-1" x="0.18" y="2689.95" width="567.63" height="673.08"/><path class="cls-2" d="M195.28,3026.67c-106.51,0-192.86,2.9-192.86,6.47,0,1.56,16.41,3,43.75,4.11h0c-4.66,17.56-27.44,19.45-27.44,19.45-.09.72-1.66,1.9,0,1.81,43.12-2.3,50-20.49,50-20.49h0c33.87,1,78.14,1.59,126.57,1.59,106.52,0,192.87-2.9,192.87-6.47S301.8,3026.67,195.28,3026.67Z"/><path class="cls-3" d="M194.51,2793.36s-.3,12.89-35.08,7.26l-24.61,85.87s18.9,17.19,53.69,22.82c0,0,32.27-67.66,50-80.72,0,0-25.72-8-21.2-30.11l-21.68-9.21Z"/><path class="cls-4" d="M167.72,2799.54c-11.27-3.31-40.54,24.41-28.1,54.78C145.5,2868.68,187.46,2805.32,167.72,2799.54Z"/><path class="cls-4" d="M202.06,2753.37,197,2765.25s-9.61,1.09-3.95,9.29l-3.51,8.26L202.43,2802l25.29-3.57,3.18-7.49s9.91,1.78,4.8-7.71l8.34-19.62-24-21.76Z"/><path class="cls-4" d="M147.53,2903.41c-9.89-2.22-21.42-57-3-61.59C152.1,2839.93,164.38,2907.21,147.53,2903.41Z"/><path class="cls-5" d="M198.55,2761.63s-8.53-7.89,9.1-21.42c0,0,5.2-9.37,26.93,2.6,0,0,15,1.21,18-3,0,0-2.52,8.08-12.94,8.22,0,0,10.8,2.76,16.38-4,0,0,4,4.13-11.83,10.51,0,0,10.61.25,15.87-1.79s-11.94,9.86-11.94,9.86l-8.54,15-1-12.62s-24.74,2.28-23.81-17.13Z"/><path d="M204,2766.47c1.64-4.56,8.1-5.49,15.35,5.82l2.93,1.31s15.51-2.46,15.46,5c0,2-4.11,10.83-16.23-3.46l-2.9-1.09S200.53,2776.08,204,2766.47Z"/><path class="cls-6" d="M220.32,2785.37c-.22.53-1.79.36-3.5-.37s-2.91-1.74-2.69-2.26,1.57.16,3.28.89S220.54,2784.85,220.32,2785.37Z"/><path class="cls-8" d="M124.86,2955.34c1.21-4-6.63-11.74-17.14-15s-21.51-2.27-22.72,1.68,8.1,6.51,18.61,9.74S123.65,2959.29,124.86,2955.34Z"/><path class="cls-8" d="M184.63,2971.64c1-4-7.39-11.27-18.09-13.79S144.93,2957,144,2961s8.51,6,19.22,8.48S183.69,2975.66,184.63,2971.64Z"/><ellipse class="cls-6" cx="206.53" cy="2853.15" rx="1.26" ry="2.9" transform="translate(-2500.12 1927.3) rotate(-66.98)"/><ellipse class="cls-6" cx="173.62" cy="2838.49" rx="1.26" ry="2.9" transform="translate(-2506.66 1888.08) rotate(-66.98)"/><ellipse class="cls-3" cx="154.05" cy="2995.05" rx="34.75" ry="12.04" transform="translate(-2172.47 1102.6) rotate(-47.93)"/><ellipse class="cls-3" cx="94.83" cy="2970.17" rx="32.97" ry="12.18" transform="translate(-2742.12 2085.51) rotate(-70.85)"/><ellipse class="cls-3" cx="169.24" cy="2950.32" rx="33.62" ry="16.72" transform="translate(-2783.97 3057.96) rotate(-88.8)"/><ellipse class="cls-3" cx="115.81" cy="2935.74" rx="33.16" ry="15.83" transform="translate(-2141.06 1054.65) rotate(-47.93)"/><path class="cls-9" d="M134.91,2886.27s10.16,13.87,53.69,22.82l-3.66,61.62S165,2948.83,144,2961l4-26-23.08,20.26s-12.73-21.67-39.86-13.28C85,2942.06,127.49,2900.39,134.91,2886.27Z"/><path class="cls-10" d="M129.17,2894.41s33,21.74,59.07,23.75l.57-9.57s-31.52-4.34-53.69-22.81Z"/><line class="cls-11" x1="136.94" y1="2891.14" x2="134.03" y2="2894.95"/><line class="cls-11" x1="146.47" y1="2896.72" x2="143.96" y2="2900.81"/><line class="cls-11" x1="150.6" y1="2898.8" x2="148.73" y2="2903.22"/><line class="cls-11" x1="175.77" y1="2909.16" x2="174.37" y2="2913.75"/><line class="cls-11" x1="171.47" y1="2908.06" x2="170.06" y2="2912.65"/><line class="cls-11" x1="180.53" y1="2909.59" x2="179.12" y2="2914.19"/><line class="cls-11" x1="185.52" y1="2910.71" x2="184.11" y2="2915.3"/><line class="cls-11" x1="141.74" y1="2894.25" x2="139.22" y2="2898.34"/><ellipse class="cls-12" cx="156.51" cy="2904.75" rx="1.52" ry="1.16" transform="translate(-2578.06 1912.68) rotate(-66.98)"/><ellipse class="cls-12" cx="164.29" cy="2907.6" rx="1.52" ry="1.16" transform="translate(-2575.95 1921.57) rotate(-66.98)"/><path class="cls-12" d="M148.63,2921.05s-2.36-11,7.07-16.64l.62.78s-8.94,4.81-7,15.31S148.63,2921.05,148.63,2921.05Z"/><path class="cls-12" d="M158.45,2922.11s8.54-5.17,6.25-14.71l-.89.08s2.54,8.69-5.44,13.85S158.45,2922.11,158.45,2922.11Z"/><path class="cls-3" d="M84.45,2999.83c6.65,2.83,10.3,9.21,8.15,14.27l-24.07-10.23C70.68,2998.81,77.81,2997,84.45,2999.83Z"/><rect class="cls-12" x="78.88" y="2995.91" width="3.37" height="26.16" transform="translate(-2720.23 1906.25) rotate(-66.98)"/><path class="cls-13" d="M77.61,2998.14s8.18,7.38,7.58,10.78,2.93-5,6.52-2.63"/><path class="cls-3" d="M135.63,3016c7.22.2,13,4.82,12.79,10.31l-26.14-.73C122.43,3020.13,128.41,3015.84,135.63,3016Z"/><rect class="cls-12" x="133.67" y="3012.9" width="3.37" height="26.16" transform="translate(-2893.23 3076.81) rotate(-88.4)"/><path class="cls-13" d="M143.17,3017.56s-10.51,3.3-11.38,6.64-.59-5.75-4.83-5.11"/><path class="cls-7" d="M205.53,2786.43c-3-1.27-6.08-.72-6.91,1.24l10.82,4.59C210.27,2790.31,208.52,2787.69,205.53,2786.43Z"/><path class="cls-3" d="M250.06,2884.71c11.88-6.67.49-65.37-25.85-61.48C213.38,2824.83,229.83,2896.06,250.06,2884.71Z"/><path class="cls-3" d="M243.26,2871.17c-9.59,4.46-10.69,65.57,8.86,66.62C260.15,2938.22,259.6,2863.56,243.26,2871.17Z"/><polygon class="cls-3" points="261.47 2966.34 267.13 2950.19 260.39 2933.46 250.47 2927.05 247.23 2936.91 255.47 2947.06 255.56 2963.04 261.47 2966.34"/><polygon class="cls-4" points="145.44 2895.43 155.83 2896.75 163.72 2909.84 166.26 2925.22 158.91 2921.14 153.03 2912.52 142.58 2902.07 145.44 2895.43"/><rect class="cls-1" x="1135.47" y="2689.95" width="567.63" height="673.08"/><path class="cls-2" d="M1331.48,3026.57c-106.52,0-192.87,2.9-192.87,6.47,0,1.56,16.42,3,43.76,4.11h0c-4.66,17.56-27.45,19.45-27.45,19.45-.09.72-1.66,1.9,0,1.81,43.12-2.3,50-20.48,50-20.48h0c33.88,1,78.14,1.59,126.58,1.59,106.51,0,192.86-2.9,192.86-6.48S1438,3026.57,1331.48,3026.57Z"/><path class="cls-3" d="M1471.63,2882.85s-8.87,1.6,4.76,34.1c0,0-12.58,12.39-20.7,17-12.2,6.87-60.6,28.8-60.6,28.8s-21.15-14.34-34.77-46.84c0,0,24.53-11.64,37.23-23.66,1.91-1.81,3.33-10.17,9.48-15.81a77.79,77.79,0,0,0,20-28.08s13.79,23.14,34.23,13.55l14,18.92Z"/><path class="cls-4" d="M1508.73,2866.14l-10.36,7.69s1.19,9.6-8.1,6l-7.21,5.34-21.67-8-2.45-25.43,27.42-24.82,29.37,19Z"/><path class="cls-5" d="M1500.23,2872.31s9.67,6.44,18.69-13.88c0,0,7.89-7.25-8.84-25.56,0,0-4.7-14.33-1.31-18.24,0,0-7.26,4.34-5,14.5,0,0-5.22-9.85.06-16.86,0,0-4.95-2.91-7.45,14,0,0-2.72-10.26-2-15.85s-6.78,13.92-6.78,13.92l-12.55,11.8,12.52-2s3.58,24.58,22.23,19.12Z"/><path d="M1493.56,2864.66c4-2.68,3.73-8.77-8.35-12.34l-1.79-2.3s-.5-14.66-7.56-12.65c-1.88.53-9.54,6.56,6.27,13.75l1.56,2.33S1485.06,2870.31,1493.56,2864.66Z"/><path class="cls-6" d="M1473.34,2855.89c-.45.33.07,1.82,1.18,3.31s2.38,2.43,2.83,2.09-.52-1.49-1.63-3S1473.8,2855.55,1473.34,2855.89Z"/><path class="cls-8" d="M1325.59,2961.88c3.56-2.11,13,3.69,18.57,13.15s7.77,15.6,4.21,17.7-8.75-1.56-14.35-11S1322,2964,1325.59,2961.88Z"/><path class="cls-8" d="M1299.85,2927c3.69-1.86,12.4,4.69,17.65,14.36,5.13,9.44,10.16,16.94,5.44,21.06-3.12,2.71-11-5.26-16-15.08S1296.17,2928.84,1299.85,2927Z"/><ellipse class="cls-6" cx="1428.48" cy="2912.49" rx="1.26" ry="2.9" transform="translate(-1454.38 1425.13) rotate(-36.58)"/><ellipse class="cls-6" cx="1408.63" cy="2882.41" rx="1.26" ry="2.9" transform="translate(-1440.37 1407.37) rotate(-36.58)"/><ellipse class="cls-3" cx="1285.05" cy="2969.47" rx="34.75" ry="12.04" transform="translate(-1891.42 2353.73) rotate(-55.63)"/><ellipse class="cls-3" cx="1301.46" cy="3003.79" rx="32.97" ry="12.18" transform="translate(-1961.38 2738.41) rotate(-61.92)"/><ellipse class="cls-3" cx="1324.97" cy="2944.21" rx="33.62" ry="16.72" transform="matrix(0.97, -0.25, 0.25, 0.97, -706.13, 434.52)"/><ellipse class="cls-3" cx="1341.4" cy="2974.14" rx="33.16" ry="15.83" transform="translate(-484.28 270.11) rotate(-9.75)"/><path class="cls-9" d="M1395.28,2962.57s-15.86-6.63-34-47l-61,11.17s29.64,12.35,22.72,35.65l3.53-1.26-1.18.94s24.87,2.32,23.08,30.65C1348.37,2992.73,1383.3,2973.09,1395.28,2962.57Z"/><path class="cls-10" d="M1387.6,2968.49s-28.31-26.16-36.38-51.07l10.16-2.42s11.18,30,34.33,47.25Z"/><line class="cls-11" x1="1390.07" y1="2961.73" x2="1387.05" y2="2965.46"/><line class="cls-11" x1="1382.41" y1="2953.78" x2="1379.02" y2="2957.19"/><line class="cls-11" x1="1379.43" y1="2950.25" x2="1375.57" y2="2953.11"/><line class="cls-11" x1="1363.45" y1="2928.21" x2="1359.31" y2="2930.66"/><line class="cls-11" x1="1375.36" y1="2945.66" x2="1371.23" y2="2948.1"/><line class="cls-11" x1="1361.91" y1="2923.69" x2="1357.78" y2="2926.13"/><line class="cls-11" x1="1359.66" y1="2919.1" x2="1355.53" y2="2921.55"/><line class="cls-11" x1="1385.92" y1="2957.8" x2="1382.54" y2="2961.21"/><ellipse class="cls-12" cx="1369.07" cy="2940.07" rx="1.52" ry="1.16" transform="translate(-1482.53 1395.16) rotate(-36.58)"/><ellipse class="cls-12" cx="1364.48" cy="2933.18" rx="1.52" ry="1.16" transform="translate(-1479.32 1391.06) rotate(-36.58)"/><path class="cls-12" d="M1355.08,2951.55s11.2-.28,14.51-10.77l-.9-.42s-2.58,9.82-13.24,10.4S1355.08,2951.55,1355.08,2951.55Z"/><path class="cls-12" d="M1351.74,2942.25s3-9.51,12.84-9.53l.13.89s-9-.43-12.19,8.54S1351.74,2942.25,1351.74,2942.25Z"/><path class="cls-3" d="M1288.5,3025.38c-4.31-5.8-11.37-7.85-15.78-4.57l15.59,21C1292.72,3038.54,1292.8,3031.18,1288.5,3025.38Z"/><rect class="cls-12" x="1278.83" y="3018.23" width="3.37" height="26.16" transform="translate(-1554.35 1360.35) rotate(-36.58)"/><path class="cls-13" d="M1291.75,3031.64s-9.09-6.23-12.26-4.85,4.16-4,1-6.95"/><path class="cls-3" d="M1268,2990.39c-4.25-5.83-11.3-7.94-15.74-4.71l15.41,21.14C1272.15,3003.58,1272.3,2996.23,1268,2990.39Z"/><rect class="cls-12" x="1258.33" y="2983.17" width="3.37" height="26.16" transform="translate(-1523.34 1317.52) rotate(-36.1)"/><path class="cls-13" d="M1271.84,2995.26s-9.59-5.43-12.63-3.78,3.81-4.36.44-7"/><path class="cls-7" d="M1475.79,2870.51c1.93,2.6,2.12,5.74.41,7l-7-9.44C1470.9,2866.81,1473.85,2867.9,1475.79,2870.51Z"/><path class="cls-3" d="M1393.32,2837.81c-3.58,9.72,34.81,43.88,48.6,29.6C1447.59,2861.53,1399.41,2821.24,1393.32,2837.81Z"/><path class="cls-3" d="M1400.09,2844c7-3.63,5.91-49.2-8.69-49.37C1385.39,2794.55,1388.15,2850.17,1400.09,2844Z"/><polygon class="cls-3" points="1380.83 2770.59 1391.94 2776.87 1396.39 2789.57 1393.98 2798.04 1387.32 2794.1 1386.95 2784.36 1379.14 2775.35 1380.83 2770.59"/><polygon class="cls-4" points="1395.78 2820.11 1406.89 2826.39 1411.34 2839.09 1408.93 2847.56 1402.26 2843.62 1401.89 2833.88 1394.09 2824.87 1395.78 2820.11"/><path class="cls-4" d="M1474.61,2919c-7.78,8.8-47.31,1-53-31.37C1419,2872.29,1488.23,2903.54,1474.61,2919Z"/><path class="cls-4" d="M1404.24,2840.78c-7.18,7.15,12.25,59.65,30.28,53.72C1441.94,2892.06,1416.48,2828.59,1404.24,2840.78Z"/><rect class="cls-14" x="1703.1" y="2689.95" width="567.63" height="673.08"/><path class="cls-2" d="M1899.11,3026.57c-106.52,0-192.86,2.9-192.86,6.47,0,1.56,16.41,3,43.75,4.11h0c-4.66,17.56-27.44,19.45-27.44,19.45-.1.72-1.66,1.9,0,1.81,43.11-2.3,50-20.48,50-20.48h0c33.88,1,78.14,1.59,126.58,1.59,106.52,0,192.86-2.9,192.86-6.48S2005.63,3026.57,1899.11,3026.57Z"/><path class="cls-3" d="M2080.79,2955.53s-8.87,1.6,4.76,34.1c0,0-12.58,12.38-20.7,16.95-12.2,6.87-60.6,28.81-60.6,28.81s-21.15-14.35-34.77-46.85c0,0,24.53-11.64,37.23-23.66,1.91-1.8,3.33-10.17,9.48-15.8a77.79,77.79,0,0,0,20-28.08s13.79,23.13,34.23,13.55l14.05,18.92Z"/><path class="cls-4" d="M2117.89,2938.81l-10.36,7.69s1.19,9.6-8.1,6l-7.21,5.35-21.67-8-2.45-25.42,27.42-24.82,29.38,19Z"/><path class="cls-5" d="M2109.39,2945s9.67,6.45,18.69-13.87c0,0,7.89-7.25-8.84-25.57,0,0-4.7-14.33-1.31-18.24,0,0-7.26,4.34-5,14.51,0,0-5.21-9.86.06-16.86,0,0-5-2.91-7.45,14,0,0-2.72-10.26-2-15.85s-6.78,13.92-6.78,13.92l-12.55,11.81,12.52-2s3.58,24.59,22.23,19.13Z"/><path d="M2102.72,2937.33c4-2.68,3.73-8.76-8.35-12.33l-1.79-2.3s-.5-14.67-7.56-12.66c-1.88.53-9.54,6.57,6.27,13.75l1.56,2.34S2094.22,2943,2102.72,2937.33Z"/><path class="cls-6" d="M2082.5,2928.56c-.45.34.07,1.82,1.18,3.32s2.38,2.42,2.83,2.08-.52-1.48-1.63-3S2083,2928.22,2082.5,2928.56Z"/><path class="cls-8" d="M1922.06,3026.55c3.56-2.1,13,3.69,18.56,13.16s6.9,20.14,3.34,22.24-7.88-6.11-13.47-15.58S1918.5,3028.65,1922.06,3026.55Z"/><path class="cls-8" d="M1906.85,2988.16c3.69-1.87,6.36,7.08,11.61,16.74,5.13,9.45,10.16,16.95,5.43,21.06-3.11,2.72-11-5.26-16-15.07S1903.16,2990,1906.85,2988.16Z"/><ellipse class="cls-6" cx="2037.65" cy="2985.16" rx="1.26" ry="2.9" transform="translate(-1377.69 1802.5) rotate(-36.58)"/><ellipse class="cls-6" cx="2017.79" cy="2955.09" rx="1.26" ry="2.9" transform="translate(-1363.68 1784.74) rotate(-36.58)"/><ellipse class="cls-3" cx="1870" cy="3019.56" rx="34.75" ry="12.04" transform="translate(-1431.21 1709.36) rotate(-36.58)"/><ellipse class="cls-3" cx="1900.25" cy="3060.32" rx="32.97" ry="12.18" transform="translate(-1694.28 3296.66) rotate(-61.92)"/><ellipse class="cls-3" cx="1923.21" cy="3006.93" rx="16.72" ry="33.62" transform="matrix(0.08, -1, 1, 0.08, -1234.49, 4671.04)"/><ellipse class="cls-3" cx="1939.33" cy="3041.73" rx="15.83" ry="33.16" transform="translate(-1327 4572.81) rotate(-82.59)"/><path class="cls-9" d="M2004.44,3035.24s-15.86-6.62-34-47c0,0-10.33,4.82-17.12,4.75-7.62-.08-46-5.33-46-5.33s21.72,15.15,14.8,38.45l12.43-2.69-12.43,2.69s23.67,7.5,21.88,35.83C1944,3062,1980.65,3062,2004.44,3035.24Z"/><path class="cls-10" d="M1996.76,3041.16s-28.31-26.16-36.38-51.07l10.16-2.42s11.18,30,34.33,47.25Z"/><line class="cls-11" x1="1999.23" y1="3034.41" x2="1996.21" y2="3038.14"/><line class="cls-11" x1="1991.57" y1="3026.45" x2="1988.18" y2="3029.86"/><line class="cls-11" x1="1988.59" y1="3022.93" x2="1984.73" y2="3025.79"/><line class="cls-11" x1="1972.61" y1="3000.89" x2="1968.48" y2="3003.33"/><line class="cls-11" x1="1984.52" y1="3018.34" x2="1980.39" y2="3020.78"/><line class="cls-11" x1="1971.07" y1="2996.36" x2="1966.94" y2="2998.81"/><line class="cls-11" x1="1968.82" y1="2991.78" x2="1964.69" y2="2994.22"/><line class="cls-11" x1="1995.09" y1="3030.48" x2="1991.7" y2="3033.89"/><ellipse class="cls-12" cx="1978.23" cy="3012.75" rx="1.52" ry="1.16" transform="translate(-1405.83 1772.53) rotate(-36.58)"/><ellipse class="cls-12" cx="1973.64" cy="3005.85" rx="1.52" ry="1.16" transform="translate(-1402.63 1768.43) rotate(-36.58)"/><path class="cls-12" d="M1964.24,3024.23s11.2-.29,14.52-10.78l-.91-.42s-2.58,9.82-13.24,10.4S1964.24,3024.23,1964.24,3024.23Z"/><path class="cls-12" d="M1960.9,3014.93s3-9.52,12.84-9.53l.13.89s-9-.44-12.19,8.54S1960.9,3014.93,1960.9,3014.93Z"/><path class="cls-3" d="M1880,3075.86c-6.41-3.33-13.66-2.08-16.19,2.79l23.21,12.07C1889.5,3085.84,1886.36,3079.19,1880,3075.86Z"/><rect class="cls-12" x="1873.68" y="3071.61" width="3.37" height="26.16" transform="translate(-1726.57 3326.19) rotate(-62.54)"/><path class="cls-13" d="M1885.61,3080.06s-10.9-1.62-13.14,1,2-5.43-2.12-6.7"/><path class="cls-3" d="M1841.28,3029.53c-4.1-5.94-11.1-8.22-15.61-5.1l14.88,21.52C1845.06,3042.82,1845.39,3035.47,1841.28,3029.53Z"/><rect class="cls-12" x="1831.42" y="3022.11" width="3.37" height="26.16" transform="translate(-1401.1 1581.72) rotate(-34.67)"/><path class="cls-13" d="M1845,3034.49s-9.45-5.66-12.53-4.09,3.91-4.26.61-7"/><path class="cls-7" d="M2085,2943.18c1.93,2.61,2.12,5.75.41,7l-7-9.44C2080.06,2939.49,2083,2940.58,2085,2943.18Z"/><path class="cls-3" d="M2002.48,2910.48c-3.58,9.73,34.81,43.89,48.6,29.6C2056.76,2934.2,2008.57,2893.91,2002.48,2910.48Z"/><path class="cls-3" d="M2009.25,2916.67c7-3.63,5.91-49.21-8.69-49.37C1994.55,2867.23,1997.31,2922.85,2009.25,2916.67Z"/><polygon class="cls-3" points="1989.99 2843.27 2001.11 2849.54 2005.55 2862.24 2003.14 2870.72 1996.47 2866.78 1996.11 2857.03 1988.3 2848.03 1989.99 2843.27"/><polygon class="cls-4" points="2034.02 2879.41 2043.99 2887.38 2046.35 2900.62 2042.62 2908.6 2036.67 2903.65 2037.86 2893.97 2031.59 2883.84 2034.02 2879.41"/><path class="cls-4" d="M2083.77,2991.62c-7.78,8.81-47.31,1-53-31.37C2028.12,2945,2097.39,2976.21,2083.77,2991.62Z"/><path class="cls-4" d="M2040.12,2903.29c-9.83,2.47-20,57.52-1.46,61.65C2046.28,2966.64,2056.87,2899.07,2040.12,2903.29Z"/><rect class="cls-1" x="2270.73" y="2689.95" width="567.63" height="673.08"/><path class="cls-2" d="M2466.74,3026.57c-106.51,0-192.86,2.9-192.86,6.47,0,1.56,16.41,3,43.75,4.11h0c-4.66,17.56-27.44,19.45-27.44,19.45-.1.72-1.66,1.9,0,1.81,43.12-2.3,50-20.48,50-20.48h0c33.87,1,78.13,1.59,126.57,1.59,106.52,0,192.87-2.9,192.87-6.48S2573.26,3026.57,2466.74,3026.57Z"/><path class="cls-3" d="M2730,3278.45s-8.91-1.28-6.25,33.86c0,0-15.85,7.78-25,9.55-13.75,2.66-66.6,8.19-66.6,8.19s-15.53-20.29-18.19-55.43c0,0,26.94-3.3,42.8-10.69,2.38-1.11,6.37-8.6,14-12a78.05,78.05,0,0,0,27.89-20.31s5.77,26.3,28.2,23.67l7.34,22.38Z"/><path class="cls-4" d="M2770.51,3274.32l-12.26,4s-1.9,9.48-9.59,3.15l-8.53,2.8-18-14.46,5.7-24.89,33.86-14.89,21.87,27.3Z"/><path class="cls-5" d="M2760.5,3277.48s7.14,9.17,22.11-7.26c0,0,9.78-4.39-.31-27,0,0,.07-15.08,4.51-17.72,0,0-8.25,1.83-9.28,12.2,0,0-1.84-11,5.38-16,0,0-3.78-4.32-11.47,10.9,0,0,.65-10.6,3.12-15.66s-10.83,11.06-10.83,11.06l-15.63,7.24,12.49,2.1s-4.37,24.45,15,25.17Z"/><path d="M2756.58,3268.12c4.67-1.27,6.31-7.14-4-14.34l-1-2.75s4.15-14.07-3.18-14.4c-1.95-.08-11.13,3.22,1.6,15l.75,2.71S2746.74,3270.79,2756.58,3268.12Z"/><path class="cls-6" d="M2740.17,3253.41c-.54.17-.51,1.75.07,3.52s1.49,3.05,2,2.87,0-1.57-.61-3.34S2740.71,3253.23,2740.17,3253.41Z"/><path class="cls-8" d="M2557,3295.7c4-.87,11.14,7.59,13.46,18.34s.18,21.3-3.86,22.17-5.55-8.29-7.87-19S2553,3296.57,2557,3295.7Z"/><path class="cls-8" d="M2554.69,3254.47c4.08-.61,3.79,8.73,5.72,19.55,1.89,10.58,4.29,19.29-1.5,21.7-3.81,1.59-8.8-8.47-10.4-19.35S2550.6,3255.07,2554.69,3254.47Z"/><ellipse class="cls-6" cx="2679.73" cy="3292.94" rx="1.26" ry="2.9" transform="translate(-893.19 999.77) rotate(-18.17)"/><ellipse class="cls-6" cx="2670.39" cy="3258.13" rx="1.26" ry="2.9" transform="translate(-882.8 995.12) rotate(-18.17)"/><ellipse class="cls-3" cx="2509.8" cy="3272.62" rx="34.75" ry="12.04" transform="translate(-895.33 945.77) rotate(-18.17)"/><ellipse class="cls-3" cx="2525.63" cy="3320.85" rx="32.97" ry="12.18" transform="translate(-1592.44 2651.25) rotate(-43.51)"/><ellipse class="cls-3" cx="2564.27" cy="3277.44" rx="16.72" ry="33.62" transform="translate(-1458.83 4341.31) rotate(-66.77)"/><ellipse class="cls-3" cx="2568.58" cy="3315.56" rx="15.83" ry="33.16" transform="translate(-1534.71 4183.63) rotate(-64.18)"/><path class="cls-9" d="M2632.41,3330s-13-11.29-17.43-55.33c0,0-11.33,1.31-17.74-.9-7.2-2.48-42-19.6-42-19.6s15.82,21.23,1.89,41.15l12.65,1.38-12.65-1.38s20.1,14.6,9.45,40.92C2566.59,3336.21,2601.39,3347.8,2632.41,3330Z"/><path class="cls-10" d="M2623.25,3333.16s-18.59-33.76-18.39-59.95l10.41.92s1.12,32,17.65,55.67Z"/><line class="cls-11" x1="2627.73" y1="3327.53" x2="2623.68" y2="3330.12"/><line class="cls-11" x1="2622.97" y1="3317.57" x2="2618.68" y2="3319.73"/><line class="cls-11" x1="2621.25" y1="3313.28" x2="2616.69" y2="3314.77"/><line class="cls-11" x1="2613.06" y1="3287.32" x2="2608.36" y2="3288.33"/><line class="cls-11" x1="2618.85" y1="3307.64" x2="2614.15" y2="3308.65"/><line class="cls-11" x1="2613.03" y1="3282.54" x2="2608.33" y2="3283.56"/><line class="cls-11" x1="2612.34" y1="3277.48" x2="2607.65" y2="3278.49"/><line class="cls-11" x1="2625.04" y1="3322.49" x2="2620.75" y2="3324.66"/><ellipse class="cls-12" cx="2614.65" cy="3300.35" rx="1.52" ry="1.16" transform="translate(-898.75 979.84) rotate(-18.17)"/><ellipse class="cls-12" cx="2612.47" cy="3292.35" rx="1.52" ry="1.16" transform="translate(-896.36 978.77) rotate(-18.17)"/><path class="cls-12" d="M2597.74,3306.82s10.72,3.27,17.18-5.64l-.73-.68s-5.55,8.5-15.85,5.68S2597.74,3306.82,2597.74,3306.82Z"/><path class="cls-12" d="M2597.51,3296.94s5.88-8.07,15.19-5l-.15.88s-8.45-3.27-14.27,4.25S2597.51,3296.94,2597.51,3296.94Z"/><path class="cls-3" d="M2502.41,3329.5c-5-5.18-12.3-6.29-16.24-2.46l18.21,18.77C2508.32,3342,2507.44,3334.69,2502.41,3329.5Z"/><rect class="cls-12" x="2493.59" y="3323.35" width="3.37" height="26.16" transform="translate(-1618.78 2678.65) rotate(-44.12)"/><path class="cls-13" d="M2506.45,3335.28s-9.83-5-12.78-3.2,3.59-4.53.1-7"/><path class="cls-3" d="M2479.41,3273c-2-6.93-7.94-11.3-13.21-9.77l7.32,25.11C2478.79,3286.82,2481.43,3280,2479.41,3273Z"/><rect class="cls-12" x="2468.18" y="3262.72" width="3.37" height="26.16" transform="translate(-818.27 822.39) rotate(-16.26)"/><path class="cls-13" d="M2481.32,3278.88s-7.17-8.36-10.59-7.84,5.06-2.81,2.79-6.45"/><path class="cls-3" d="M2670,3211c-6.46,8.1,19.18,52.63,36.77,43.43C2714,3250.63,2681,3197.18,2670,3211Z"/><path class="cls-3" d="M2674.43,3219c7.79-1.23,21.14-44.81,7.34-49.58C2676.1,3167.43,2661.15,3221.08,2674.43,3219Z"/><polygon class="cls-3" points="2679.34 3143.26 2687.9 3152.73 2688.11 3166.18 2683.14 3173.46 2678.06 3167.61 2680.79 3158.26 2676.23 3147.24 2679.34 3143.26"/><polygon class="cls-4" points="2709.7 3191.46 2716.64 3202.17 2714.7 3215.48 2708.64 3221.88 2704.55 3215.3 2708.74 3206.49 2705.99 3194.89 2709.7 3191.46"/><path class="cls-4" d="M2721.45,3313.64c-10.16,5.9-45.18-14-40.35-46.49C2683.39,3251.8,2739.25,3303.32,2721.45,3313.64Z"/><path class="cls-4" d="M2707.94,3216c-10.11-.76-37.13,48.27-20.86,58C2693.77,3278.09,2725.16,3217.33,2707.94,3216Z"/><rect class="cls-1" x="0.18" y="1343.79" width="567.63" height="673.08"/><path class="cls-2" d="M194.87,1683.63C88.36,1683.63,2,1686.53,2,1690.1c0,1.56,16.41,3,43.75,4.11h0c-4.66,17.56-27.44,19.45-27.44,19.45-.1.72-1.66,1.9,0,1.81,43.12-2.3,50-20.49,50-20.49h0c33.87,1,78.13,1.59,126.57,1.59,106.52,0,192.87-2.89,192.87-6.47S301.39,1683.63,194.87,1683.63Z"/><path class="cls-3" d="M125.66,1438.83s4.77,12-29.45,20.41l10.94,88.65s24.12,8.43,58.34,0c0,0,3.23-74.89,14.45-93.85,0,0-26.79,2.71-31.28-19.42H125.1Z"/><path class="cls-3" d="M100,1458.75c-12.28-2.59-41.16,29.35-25.41,60.67C82.06,1534.23,121.52,1463.27,100,1458.75Z"/><path class="cls-4" d="M117,1399.08V1412s-8.42,4.77,0,10.09v9l19.35,12.62,21.88-13.18v-8.14s9.81-2.24,1.4-9v-21.32L129,1381.41Z"/><path class="cls-3" d="M87.1,1571.06c-10.72-1.56-27.53-59-8.3-65.36C86.71,1503.06,105.36,1573.71,87.1,1571.06Z"/><path class="cls-5" d="M117,1408.05s-10.94-3.93,0-23.28c0,0,1.12-10.66,25.8-8.13,0,0,14.3-4.77,15.43-9.82,0,0,.84,8.42-8.7,12.62,0,0,11-1.68,13.51-10.09,0,0,5.28,2.24-6.78,14.3,0,0,9.86-3.93,13.91-7.85s-7.13,13.74-7.13,13.74l-2,17.11-5.89-11.22s-21.88,11.78-28.61-6.45Z"/><path d="M116.62,1410.38c-.34-4.83,6.38-8.22,19.7-.65l3.86.06s16-8.33,19.42-1.46c.91,1.82.54,11.57-19.56,3.16l-3.72.14S117.32,1420.57,116.62,1410.38Z"/><path class="cls-6" d="M142.21,1419.74c0,.57-1.51,1-3.37,1s-3.36-.46-3.36-1,1.5-.47,3.36-.47S142.21,1419.17,142.21,1419.74Z"/><path class="cls-8" d="M124.91,1615.15c-.43-4.11-10.69-8.22-21.63-7.07S82.6,1614.41,83,1618.51s10,2.83,20.94,1.69S125.34,1619.26,124.91,1615.15Z"/><path class="cls-8" d="M186.3,1606.77c-.7-4.07-11.21-7.48-22.05-5.61s-20.22,7.67-19.52,11.74,10.17,2.17,21,.3S187,1610.84,186.3,1606.77Z"/><ellipse class="cls-6" cx="110.33" cy="1490.42" rx="2.9" ry="1.26"/><ellipse class="cls-6" cx="160.11" cy="1489.16" rx="2.9" ry="1.26"/><ellipse class="cls-3" cx="167.3" cy="1640.28" rx="34.75" ry="12.04" transform="translate(-1437.78 1263.16) rotate(-70.95)"/><ellipse class="cls-3" cx="103.07" cy="1640.54" rx="12.18" ry="32.97" transform="translate(-110.67 10.72) rotate(-3.88)"/><ellipse class="cls-3" cx="163.8" cy="1593.17" rx="16.72" ry="33.62" transform="translate(-580.65 175.13) rotate(-21.83)"/><ellipse class="cls-3" cx="108.92" cy="1600.65" rx="33.16" ry="15.83" transform="translate(-1439.65 1181.28) rotate(-70.95)"/><path class="cls-9" d="M107.15,1547.65s14.77,8.79,58.34,0l20.73,58.15s-26.9-12.34-41.49,7.1l-6.5-25.43-13.32,27.68s-20.19-15-41.88,3.36C83,1618.51,105.84,1563.54,107.15,1547.65Z"/><path class="cls-10" d="M105,1557.38s38.85,7.12,63.67-1.24l-3.22-9s-30.71,8.33-58.34,0Z"/><line class="cls-11" x1="110.92" y1="1551.33" x2="109.73" y2="1555.99"/><line class="cls-11" x1="121.88" y1="1552.75" x2="121.16" y2="1557.5"/><line class="cls-11" x1="126.49" y1="1553.04" x2="126.49" y2="1557.84"/><line class="cls-11" x1="153.71" y1="1552.73" x2="154.21" y2="1557.51"/><line class="cls-11" x1="149.32" y1="1553.4" x2="149.82" y2="1558.18"/><line class="cls-11" x1="158.26" y1="1551.27" x2="158.76" y2="1556.05"/><line class="cls-11" x1="163.28" y1="1550.35" x2="163.78" y2="1555.12"/><line class="cls-11" x1="116.55" y1="1552.32" x2="115.83" y2="1557.07"/><ellipse class="cls-12" cx="134.25" cy="1556.21" rx="1.16" ry="1.52"/><ellipse class="cls-12" cx="142.52" cy="1555.79" rx="1.16" ry="1.52"/><path class="cls-12" d="M133.37,1574.29s-6.45-9.16,0-18.08l.88.48s-6.34,7.93-.46,16.83S133.37,1574.29,133.37,1574.29Z"/><path class="cls-12" d="M142.83,1571.43s5.84-8.1,0-16l-.79.43s5.74,7,.41,14.88S142.83,1571.43,142.83,1571.43Z"/><path class="cls-3" d="M105.13,1671.9c7.22,0,13.07,4.45,13.07,9.94H92.05C92.05,1676.35,97.9,1671.9,105.13,1671.9Z"/><rect class="cls-12" x="92.05" y="1680.16" width="26.16" height="3.37"/><path class="cls-13" d="M98.17,1673s10.41,3.59,11.19,7,.75-5.73,5-5"/><path class="cls-3" d="M156.17,1671.7c7.23,0,13.08,4.46,13.08,10H143.1C143.1,1676.16,149,1671.7,156.17,1671.7Z"/><rect class="cls-12" x="143.1" y="1679.97" width="26.16" height="3.37"/><path class="cls-13" d="M163.76,1673s-10.42,3.59-11.19,7-.75-5.74-5-5"/><polygon class="cls-3" points="81.19 1573.43 86.33 1565.88 97.04 1565.49 102.61 1569.9 97.17 1577.73 89.55 1581.37 83.71 1578.61 81.19 1573.43"/><path class="cls-7" d="M133.09,1428.14c-3.24,0-5.87,1.72-5.87,3.84H139C139,1429.86,136.34,1428.14,133.09,1428.14Z"/><path class="cls-3" d="M239.91,1471.57c-1.63-13.8-68.26-31.33-76.07-5.88C160.62,1476.15,242.68,1495.07,239.91,1471.57Z"/><path class="cls-3" d="M224.76,1479.35c8.72,6,61.95-24,52.94-41.4C274,1430.8,209.92,1469.12,224.76,1479.35Z"/><polygon class="cls-3" points="295.75 1418.61 295.18 1433.88 285.27 1443.45 276.05 1443.47 276.55 1434.26 285.63 1430.51 290.4 1418.23 295.75 1418.61"/><rect class="cls-14" x="567.81" y="1343.79" width="567.63" height="673.08"/><path class="cls-3" d="M732.29,1688c-11.1-.61-23.94-1.41-23.32-8.79s14.47-18.53,25.56-17.92,19.58,7.08,19,14.46S743.38,1688.56,732.29,1688Z"/><path class="cls-3" d="M694.39,1476.52s4.77,12-29.45,20.4l10.94,88.65s24.12,8.43,58.34,0c0,0,3.23-74.89,14.45-93.85,0,0-26.79,2.71-31.28-19.42H693.83Z"/><path class="cls-3" d="M668.75,1496.43c-12.28-2.59-41.16,29.35-25.41,60.67C650.79,1571.91,690.25,1501,668.75,1496.43Z"/><path class="cls-4" d="M685.69,1436.76v12.9s-8.41,4.77,0,10.1v9l19.36,12.62,21.87-13.18V1460s9.82-2.25,1.41-9v-21.31l-30.57-10.66Z"/><path class="cls-3" d="M655.83,1608.74c-10.72-1.56-27.53-59-8.3-65.36C655.44,1540.74,674.09,1611.39,655.83,1608.74Z"/><path class="cls-5" d="M685.69,1445.73s-10.93-3.92,0-23.28c0,0,1.13-10.65,25.81-8.13,0,0,14.3-4.77,15.42-9.82,0,0,.85,8.42-8.69,12.62,0,0,11-1.68,13.5-10.09,0,0,5.29,2.24-6.77,14.3,0,0,9.86-3.93,13.91-7.85s-7.14,13.74-7.14,13.74l-2,17.11-5.89-11.22s-21.88,11.78-28.61-6.45Z"/><path d="M685.34,1448.06c-.33-4.83,6.38-8.22,19.71-.65l3.85.07s16-8.34,19.43-1.47c.91,1.82.54,11.57-19.57,3.16l-3.71.14S686.05,1458.25,685.34,1448.06Z"/><path class="cls-6" d="M710.94,1457.42c0,.57-1.51,1-3.37,1s-3.36-.46-3.36-1,1.5-.47,3.36-.47S710.94,1456.85,710.94,1457.42Z"/><path class="cls-8" d="M754.89,1645.35c-.7-4.67-11.2-8.59-22-6.44s-20.2,8.8-19.5,13.47,10.16,2.49,21,.34S755.59,1650,754.89,1645.35Z"/><ellipse class="cls-6" cx="679.06" cy="1528.1" rx="2.9" ry="1.26"/><ellipse class="cls-6" cx="728.83" cy="1526.84" rx="2.9" ry="1.26"/><ellipse class="cls-3" cx="635.71" cy="1647.38" rx="11.04" ry="28.39" transform="matrix(1, -0.07, 0.07, 1, -109.92, 46.75)"/><ellipse class="cls-3" cx="733.95" cy="1639.52" rx="16.98" ry="43.04" transform="translate(-475.64 311.51) rotate(-18.21)"/><path class="cls-3" d="M656.25,1598.78c17.56-5.89,33.54-3.8,35.69,4.66s-8.82,21.14-26.39,27-35.07,2.75-37.21-5.71S638.69,1604.66,656.25,1598.78Z"/><path class="cls-9" d="M675.82,1577.52s14.76,10.08,58.28,0l20.71,66.71s-26.88-14.16-41.45,8.15l-6.49-29.17-22,5s-20-30.39-36.47-26.87c0,0,6.18-4,17.6-9.76C670,1589.51,672.64,1583.63,675.82,1577.52Z"/><path class="cls-10" d="M670.9,1585.61s26.72,12.18,66.41,1.65l-3.21-10.35s-30.68,9.55-58.28,0Z"/><line class="cls-11" x1="677.49" y1="1579.86" x2="675.91" y2="1585.09"/><line class="cls-11" x1="688.28" y1="1582.29" x2="687.16" y2="1587.67"/><line class="cls-11" x1="692.85" y1="1582.97" x2="692.44" y2="1588.47"/><line class="cls-11" x1="719.99" y1="1583.61" x2="720.08" y2="1589.12"/><line class="cls-11" x1="715.56" y1="1584.05" x2="715.65" y2="1589.55"/><line class="cls-11" x1="724.64" y1="1582.28" x2="724.73" y2="1587.78"/><line class="cls-11" x1="729.73" y1="1581.6" x2="729.82" y2="1587.1"/><line class="cls-11" x1="683.01" y1="1581.41" x2="681.89" y2="1586.79"/><ellipse class="cls-12" cx="700.31" cy="1587.18" rx="1.74" ry="1.16" transform="translate(-934.72 2167.05) rotate(-85.72)"/><ellipse class="cls-12" cx="708.59" cy="1587.31" rx="1.74" ry="1.16" transform="translate(-927.19 2175.43) rotate(-85.72)"/><path class="cls-12" d="M698.2,1607.81s-5.64-11,1.54-20.69l.84.62s-7,8.59-1.9,19.22S698.2,1607.81,698.2,1607.81Z"/><path class="cls-12" d="M707.86,1605.24s6.51-8.84,1.37-18.29l-.83.42s5.12,8.45-.86,17.06S707.86,1605.24,707.86,1605.24Z"/><path class="cls-3" d="M636.59,1672.25c-7.22,0-13.07,4.45-13.07,9.94h26.15C649.67,1676.7,643.82,1672.25,636.59,1672.25Z"/><rect class="cls-12" x="623.52" y="1680.51" width="26.16" height="3.37"/><path class="cls-13" d="M643.55,1673.37s-10.41,3.59-11.19,7-.75-5.73-5-5"/><polygon class="cls-4" points="646.21 1599.89 651.35 1592.34 662.06 1591.95 667.63 1596.36 662.19 1604.19 654.57 1607.83 648.73 1605.08 646.21 1599.89"/><path class="cls-7" d="M701.82,1465.82c-3.24,0-5.88,1.72-5.88,3.84H707.7C707.7,1467.54,705.07,1465.82,701.82,1465.82Z"/><path class="cls-2" d="M763.6,1682c-106.52,0-192.86,2.9-192.86,6.47,0,1.56,16.41,3,43.75,4.11h0c-4.66,17.56-27.44,19.45-27.44,19.45-.1.72-1.66,1.9,0,1.81,43.11-2.3,50-20.48,50-20.48h0c33.87,1,78.13,1.58,126.57,1.58,106.52,0,192.86-2.89,192.86-6.47S870.12,1682,763.6,1682Z"/><path class="cls-3" d="M744.5,1491.25c12.28-2.59,41.16,29.35,25.41,60.67C762.46,1566.73,723,1495.78,744.5,1491.25Z"/><path class="cls-3" d="M756.39,1604.6c10.72-1.56,27.53-58.95,8.29-65.36C756.77,1536.6,738.13,1607.24,756.39,1604.6Z"/><polygon class="cls-3" points="762.3 1606.97 757.16 1599.41 746.45 1599.03 740.87 1603.44 746.31 1611.27 753.94 1614.9 759.78 1612.15 762.3 1606.97"/><rect class="cls-1" x="1135.44" y="1343.79" width="567.63" height="673.08"/><ellipse class="cls-3" cx="1293.1" cy="1667.77" rx="13.96" ry="12.7" transform="translate(-593.25 721.61) rotate(-25.57)"/><ellipse class="cls-3" cx="1334.26" cy="1668.7" rx="12.7" ry="15.94" transform="translate(-589.62 739.47) rotate(-25.57)"/><path class="cls-3" d="M1304.09,1531.05s3,7.76-28.58,14.77l11.49,75.94s22.26,7,53.85,0c0,0,3-62.29,13.34-78.07,0,0-24.73,2.26-28.88-16.15h-21.74Z"/><path class="cls-3" d="M1281,1545.24c-12.1-3.29-40.58,37.28-25,77C1263.3,1641.1,1302.2,1551,1281,1545.24Z"/><path class="cls-4" d="M1296.06,1496.9v11.91s-7.77,4.4,0,9.32v8.28l17.86,11.65,20.2-12.17v-7.5s9.06-2.07,1.29-8.29v-19.67l-28.22-9.84Z"/><path class="cls-3" d="M1373.23,1614.9c13.78-7.26,2.63-75-27.59-71.39C1333.22,1545,1349.76,1627.26,1373.23,1614.9Z"/><path class="cls-5" d="M1296.06,1505.18s-10.1-3.62,0-21.48c0,0,1-9.84,23.82-7.51,0,0,13.2-4.4,14.24-9.06,0,0,.77,7.77-8,11.65,0,0,10.17-1.55,12.47-9.32,0,0,4.88,2.07-6.26,13.2,0,0,9.1-3.62,12.84-7.25s-6.58,12.69-6.58,12.69l-1.86,15.79-5.43-10.36s-20.19,10.88-26.41-6Z"/><path class="cls-8" d="M1304.25,1675.11c-.4-3.79-9.38-10.92-19.48-9.86s-18.82,5.59-18.43,9.38,6.48,1.48,16.57.42S1304.64,1678.9,1304.25,1675.11Z"/><path d="M1295.74,1507.33c-.31-4.46,5.89-7.58,18.18-.59l3.56,0s14.76-7.69,17.93-1.35c.84,1.68.5,10.68-18.06,2.92l-3.43.12S1296.38,1516.74,1295.74,1507.33Z"/><path class="cls-6" d="M1319.36,1516c0,.52-1.39,1-3.11,1s-3.1-.43-3.1-1,1.39-.43,3.1-.43S1319.36,1515.45,1319.36,1516Z"/><path class="cls-8" d="M1360.06,1666.74c-.65-3.75-10.35-6.91-20.35-5.18s-18.67,7.08-18,10.84,9.39,2,19.39.27S1360.71,1670.5,1360.06,1666.74Z"/><ellipse class="cls-6" cx="1295.73" cy="1579.77" rx="2.68" ry="1.16"/><ellipse class="cls-6" cx="1332.19" cy="1579.64" rx="2.68" ry="1.16"/><ellipse class="cls-3" cx="1336.18" cy="1657.3" rx="15.44" ry="31.03" transform="translate(-520.43 615.66) rotate(-21.83)"/><ellipse class="cls-3" cx="1289.83" cy="1658.4" rx="30.61" ry="15.87" transform="translate(-698.68 2336.44) rotate(-70.95)"/><path class="cls-9" d="M1287,1621.89s13.63,6.86,53.85,0l19.21,46.14s-19.19-4.8-38.37,4.78l-5.83-19.7-11.66,22.56s-18.72-13.7-38.83-2.22C1265.37,1673.45,1283.45,1634.28,1287,1621.89Z"/><path class="cls-10" d="M1284.36,1629.5s36.55,5.54,59.46-1l-3-7s-28.35,6.5-53.85,0Z"/><line class="cls-11" x1="1290.48" y1="1624.77" x2="1289.38" y2="1628.4"/><line class="cls-11" x1="1300.6" y1="1625.87" x2="1299.93" y2="1629.58"/><line class="cls-11" x1="1304.85" y1="1626.1" x2="1304.85" y2="1629.85"/><line class="cls-11" x1="1329.97" y1="1625.86" x2="1330.44" y2="1629.59"/><line class="cls-11" x1="1325.92" y1="1626.38" x2="1326.38" y2="1630.11"/><line class="cls-11" x1="1334.17" y1="1624.72" x2="1334.63" y2="1628.45"/><line class="cls-11" x1="1338.81" y1="1624" x2="1339.27" y2="1627.72"/><line class="cls-11" x1="1295.68" y1="1625.54" x2="1295.02" y2="1629.24"/><ellipse class="cls-12" cx="1312.01" cy="1628.57" rx="1.07" ry="1.18"/><ellipse class="cls-12" cx="1319.65" cy="1628.24" rx="1.07" ry="1.18"/><path class="cls-12" d="M1311.2,1642.68s-6-7.15,0-14.11l.81.38s-5.85,6.18-.42,13.13S1311.2,1642.68,1311.2,1642.68Z"/><path class="cls-12" d="M1319.93,1640.45s5.39-6.33,0-12.48l-.73.33s5.3,5.47.38,11.62S1319.93,1640.45,1319.93,1640.45Z"/><polygon class="cls-3" points="1323.19 1662.68 1334.91 1652.24 1351.28 1652.19 1360 1658.43 1352.77 1664.63 1341.46 1661.11 1327.95 1666.58 1323.19 1662.68"/><polygon class="cls-4" points="1241.1 1679.03 1252.86 1670.86 1270.05 1671.71 1279.56 1677.46 1272.3 1682.28 1260.22 1678.7 1246.32 1682.58 1241.1 1679.03"/><path class="cls-3" d="M1349.37,1661.31c11,2.1,37.74-43,19.53-54.86C1361.41,1601.57,1330.59,1657.73,1349.37,1661.31Z"/><path class="cls-3" d="M1262.92,1674.22c-11.86-2.14-25.71-63.61-3.62-69.49C1268.39,1602.31,1283.14,1677.88,1262.92,1674.22Z"/><path class="cls-7" d="M1312.45,1523.7c-3.25,0-5.88,1.72-5.88,3.84h11.75C1318.32,1525.42,1315.69,1523.7,1312.45,1523.7Z"/><path class="cls-2" d="M1329.52,1681.39c-106.52,0-192.87,2.9-192.87,6.48,0,1.56,16.42,3,43.75,4.1h0c-4.66,17.57-27.44,19.45-27.44,19.45-.09.73-1.66,1.91,0,1.82,43.12-2.31,50-20.49,50-20.49h0c33.87,1,78.14,1.59,126.58,1.59,106.51,0,192.86-2.9,192.86-6.47S1436,1681.39,1329.52,1681.39Z"/><rect class="cls-14" x="0.18" y="2016.87" width="567.63" height="673.08"/><path class="cls-2" d="M196.54,2350.64c-106.51,0-192.86,2.9-192.86,6.47,0,1.56,16.41,3,43.75,4.11h0C42.77,2378.79,20,2380.67,20,2380.67c-.1.72-1.66,1.9,0,1.81,43.11-2.3,50-20.48,50-20.48h0c33.87,1,78.13,1.59,126.57,1.59,106.52,0,192.87-2.9,192.87-6.48S303.06,2350.64,196.54,2350.64Z"/><path class="cls-3" d="M125.93,2108.78s3,9.19-28.65,17.5l11.52,90s22.32,8.3,54,0c0,0,3-73.79,13.37-92.48,0,0-24.79,2.67-28.95-19.13h-21.8Z"/><path class="cls-3" d="M102,2126.46c-13.72-3.14-46,35.65-28.38,73.68C81.92,2218.13,126,2132,102,2126.46Z"/><path class="cls-4" d="M117.88,2070.37v11.94s-7.78,4.41,0,9.34V2100l17.91,11.68,20.25-12.2v-7.53s9.08-2.07,1.29-8.3v-19.73L129,2054Z"/><path class="cls-3" d="M225.26,2150.53c1.7-14.4-56-41.48-69.22-16.38C150.62,2144.47,222.35,2175.07,225.26,2150.53Z"/><path class="cls-3" d="M216.6,2160c11.93-1.17,39.92-69.12,20.07-78.09C228.5,2078.2,196.28,2162,216.6,2160Z"/><path class="cls-3" d="M110.63,2241.77c-11.21,4.08-49.52-39.87-32.87-55.63C84.6,2179.66,129.73,2234.82,110.63,2241.77Z"/><path class="cls-5" d="M117.88,2078.67s-10.12-3.63,0-21.54c0,0,1-9.86,23.88-7.53,0,0,13.24-4.41,14.28-9.08,0,0,.78,7.79-8,11.68,0,0,10.2-1.56,12.5-9.34,0,0,4.89,2.07-6.27,13.23,0,0,9.12-3.63,12.87-7.26s-6.6,12.71-6.6,12.71l-1.86,15.84L153.18,2067s-20.24,10.91-26.47-6Z"/><path d="M117.56,2080.83c-.31-4.47,5.9-7.61,18.23-.6l3.57.06s14.8-7.71,18-1.36c.85,1.69.51,10.71-18.1,2.92l-3.44.13S118.21,2090.26,117.56,2080.83Z"/><path class="cls-6" d="M141.24,2089.49c0,.52-1.39,1-3.11,1s-3.12-.43-3.12-1,1.4-.43,3.12-.43S141.24,2089,141.24,2089.49Z"/><polygon class="cls-7" points="129.01 2096.7 131.52 2099.98 136.72 2100.11 129.01 2096.7"/><path class="cls-8" d="M125.24,2278.7c-.4-3.8-9.9-7.6-20-6.54s-19.14,5.85-18.74,9.66,9.26,2.62,19.38,1.55S125.64,2282.5,125.24,2278.7Z"/><path class="cls-8" d="M182.05,2271c-.65-3.76-10.38-6.93-20.41-5.2s-18.71,7.11-18.06,10.88,9.41,2,19.44.27S182.7,2274.72,182.05,2271Z"/><ellipse class="cls-6" cx="111.74" cy="2163.28" rx="2.68" ry="1.17"/><ellipse class="cls-6" cx="157.81" cy="2162.11" rx="2.68" ry="1.17"/><ellipse class="cls-6" cx="135.29" cy="2195.41" rx="0.93" ry="2.66"/><ellipse class="cls-3" cx="166.58" cy="2308.56" rx="11.14" ry="33.77" transform="translate(-240.23 30.03) rotate(-6)"/><ellipse class="cls-3" cx="111.55" cy="2312.9" rx="12.73" ry="34.35" transform="matrix(0.96, -0.27, 0.27, 0.96, -624.21, 117.31)"/><ellipse class="cls-3" cx="158.1" cy="2258.37" rx="15.48" ry="31.11" transform="translate(-725.08 173.85) rotate(-18.96)"/><ellipse class="cls-3" cx="110.44" cy="2265.28" rx="30.69" ry="14.65" transform="translate(-2066.88 1630.46) rotate(-70.95)"/><path class="cls-9" d="M108.8,2216.24s13.67,8.13,54,0L182,2270.05s-24.89-11.42-38.39,6.58l-6-23.54-12.32,25.61s-18.69-13.84-38.76,3.12C86.48,2281.82,107.59,2230.94,108.8,2216.24Z"/><path class="cls-10" d="M106.85,2225.25s36,6.58,58.91-1.15l-3-8.36s-28.43,7.71-54,0Z"/><line class="cls-11" x1="112.29" y1="2219.65" x2="111.19" y2="2223.95"/><line class="cls-11" x1="122.43" y1="2220.96" x2="121.77" y2="2225.35"/><line class="cls-11" x1="126.7" y1="2221.23" x2="126.7" y2="2225.67"/><line class="cls-11" x1="151.88" y1="2220.94" x2="152.35" y2="2225.36"/><line class="cls-11" x1="147.82" y1="2221.56" x2="148.28" y2="2225.98"/><line class="cls-11" x1="156.09" y1="2219.59" x2="156.56" y2="2224.01"/><line class="cls-11" x1="160.74" y1="2218.73" x2="161.21" y2="2223.15"/><line class="cls-11" x1="117.5" y1="2220.56" x2="116.84" y2="2224.96"/><ellipse class="cls-12" cx="133.88" cy="2224.16" rx="1.07" ry="1.4"/><ellipse class="cls-12" cx="141.53" cy="2223.77" rx="1.07" ry="1.4"/><path class="cls-12" d="M133.07,2240.89s-6-8.48,0-16.73l.81.45s-5.87,7.33-.42,15.57S133.07,2240.89,133.07,2240.89Z"/><path class="cls-12" d="M141.82,2238.24s5.4-7.5,0-14.79l-.74.39s5.32,6.49.39,13.77S141.82,2238.24,141.82,2238.24Z"/><path class="cls-3" d="M117.72,2340.44c-6.68,0-12.1,4.12-12.1,9.21h24.2C129.82,2344.56,124.4,2340.44,117.72,2340.44Z"/><rect class="cls-12" x="105.62" y="2348.09" width="24.2" height="3.11"/><path class="cls-13" d="M111.74,2341.65s9.64,3.32,10.36,6.44.69-5.31,4.6-4.6"/><path class="cls-3" d="M171.71,2339.41c6.68,0,12.1,4.12,12.1,9.2H159.6C159.6,2343.53,165,2339.41,171.71,2339.41Z"/><rect class="cls-12" x="159.6" y="2347.05" width="24.2" height="3.11"/><path class="cls-13" d="M177.69,2340.61s-9.64,3.33-10.36,6.44-.69-5.31-4.6-4.6"/><path class="cls-3" d="M230.19,2082.68l-4.14-8.47-.05-7.43,3.61.64,5.21,8.16.74-6.18c.15-1.36-1.29-5.44-2.26-6.47l-3-3.91-5.09,5.37-1.76-5.87,4.56-4.76,8.09,1.58,5.12,5.9L243,2070l.57,8.09v4.81l-2.57,2.82-6.78.59Z"/><rect class="cls-1" x="567.66" y="670.71" width="567.63" height="673.08"/><polygon class="cls-3" points="741.37 706.99 746.51 699.44 757.22 699.05 762.8 703.46 757.36 711.29 749.74 714.93 743.9 712.17 741.37 706.99"/><path class="cls-2" d="M762.6,1011.34c-106.52,0-192.87,2.89-192.87,6.47,0,1.56,16.42,3,43.75,4.1h0c-4.65,17.57-27.44,19.46-27.44,19.46-.09.72-1.66,1.9,0,1.81,43.12-2.31,50-20.49,50-20.49h0c33.87,1,78.14,1.59,126.58,1.59,106.51,0,192.86-2.9,192.86-6.47S869.11,1011.34,762.6,1011.34Z"/><path class="cls-3" d="M690.28,752s4.77,12-29.45,20.41l10.94,88.65s24.12,8.43,58.34,0c0,0,3.23-74.89,14.45-93.86,0,0-26.8,2.72-31.28-19.41H689.72Z"/><path class="cls-3" d="M664.64,772c-12.28-2.58-41.16,29.36-25.41,60.67C646.68,847.43,686.14,776.48,664.64,772Z"/><path class="cls-4" d="M681.58,712.28v12.91s-8.41,4.76,0,10.09v9l19.36,12.62,21.87-13.18v-8.14s9.82-2.24,1.41-9V705.27l-30.58-10.65Z"/><path class="cls-3" d="M792.92,753.31c-9.66-10.69-73.72,14.7-64.56,41C732.12,805.06,809.39,771.53,792.92,753.31Z"/><path class="cls-3" d="M750,709.48c-5.43,9.08,27.93,60.29,44.7,50.19C801.63,755.52,759.29,694,750,709.48Z"/><path class="cls-3" d="M651.72,884.27c-10.72-1.56-27.53-58.95-8.3-65.36C651.33,816.27,670,886.91,651.72,884.27Z"/><path class="cls-5" d="M681.58,721.26s-10.93-3.93,0-23.28c0,0,1.13-10.66,25.81-8.13,0,0,14.3-4.77,15.42-9.82,0,0,.84,8.42-8.69,12.62,0,0,11-1.68,13.5-10.09,0,0,5.29,2.24-6.77,14.3,0,0,9.86-3.93,13.91-7.85s-7.14,13.74-7.14,13.74l-2,17.11-5.89-11.22s-21.88,11.78-28.61-6.45Z"/><path d="M681.23,723.59c-.33-4.83,6.38-8.22,19.71-.65l3.85.06s16-8.33,19.43-1.47c.91,1.83.54,11.58-19.57,3.17l-3.71.14S681.94,733.78,681.23,723.59Z"/><path class="cls-6" d="M706.83,733c0,.56-1.51,1-3.37,1s-3.36-.46-3.36-1,1.5-.47,3.36-.47S706.83,732.38,706.83,733Z"/><path class="cls-8" d="M689.53,928.36c-.43-4.11-10.69-8.22-21.63-7.07s-20.68,6.32-20.25,10.43,10,2.83,20.94,1.69S690,932.46,689.53,928.36Z"/><path class="cls-8" d="M750.92,920c-.7-4.07-11.21-7.48-22-5.61s-20.22,7.67-19.52,11.74,10.17,2.17,21,.3S751.62,924.05,750.92,920Z"/><ellipse class="cls-6" cx="674.95" cy="803.63" rx="2.9" ry="1.26"/><ellipse class="cls-6" cx="724.72" cy="802.37" rx="2.9" ry="1.26"/><ellipse class="cls-3" cx="742.28" cy="964.43" rx="12.04" ry="38.3"/><ellipse class="cls-3" cx="670" cy="964.31" rx="13.76" ry="38.72" transform="translate(-63.66 47.5) rotate(-3.88)"/><ellipse class="cls-3" cx="728.41" cy="906.38" rx="16.72" ry="33.62" transform="translate(-284.79 335.83) rotate(-21.83)"/><ellipse class="cls-3" cx="673.54" cy="913.86" rx="33.16" ry="15.83" transform="translate(-410.09 1252.31) rotate(-70.95)"/><path class="cls-9" d="M671.77,860.86s14.77,8.79,58.34,0L750.84,919s-26.9-12.34-41.49,7.1l-6.5-25.43-13.32,27.68s-20.19-15-41.88,3.36C647.65,931.72,670.46,876.75,671.77,860.86Z"/><path class="cls-10" d="M669.66,870.59s38.85,7.12,63.66-1.24l-3.21-9s-30.72,8.33-58.34,0Z"/><line class="cls-11" x1="675.54" y1="864.54" x2="674.35" y2="869.2"/><line class="cls-11" x1="686.5" y1="865.96" x2="685.78" y2="870.71"/><line class="cls-11" x1="691.11" y1="866.25" x2="691.11" y2="871.05"/><line class="cls-11" x1="718.33" y1="865.94" x2="718.83" y2="870.72"/><line class="cls-11" x1="713.93" y1="866.61" x2="714.44" y2="871.39"/><line class="cls-11" x1="722.87" y1="864.48" x2="723.38" y2="869.26"/><line class="cls-11" x1="727.9" y1="863.56" x2="728.4" y2="868.33"/><line class="cls-11" x1="681.17" y1="865.53" x2="680.45" y2="870.28"/><ellipse class="cls-12" cx="698.87" cy="869.42" rx="1.16" ry="1.52"/><ellipse class="cls-12" cx="707.14" cy="869" rx="1.16" ry="1.52"/><path class="cls-12" d="M698,887.5s-6.45-9.16,0-18.08l.88.48s-6.35,7.93-.46,16.83S698,887.5,698,887.5Z"/><path class="cls-12" d="M707.45,884.64s5.84-8.11,0-16l-.8.43s5.75,7,.42,14.88S707.45,884.64,707.45,884.64Z"/><path class="cls-3" d="M672.85,999.61c7.22,0,13.08,4.45,13.08,9.94H659.77C659.77,1004.06,665.63,999.61,672.85,999.61Z"/><rect class="cls-12" x="659.77" y="1007.87" width="26.16" height="3.37"/><path class="cls-13" d="M665.89,1000.72s10.42,3.59,11.19,7,.75-5.73,5-5"/><path class="cls-3" d="M743.57,999.41c7.23,0,13.08,4.45,13.08,9.94H730.5C730.5,1003.86,736.35,999.41,743.57,999.41Z"/><rect class="cls-12" x="730.5" y="1007.67" width="26.16" height="3.37"/><path class="cls-13" d="M751.16,1000.72s-10.42,3.59-11.19,6.95-.75-5.73-5-5"/><polygon class="cls-3" points="645.81 886.64 650.95 879.08 661.66 878.7 667.23 883.11 661.79 890.94 654.17 894.58 648.33 891.82 645.81 886.64"/><path class="cls-7" d="M697.71,741.35c-3.24,0-5.88,1.72-5.88,3.84h11.76C703.59,743.07,701,741.35,697.71,741.35Z"/><rect class="cls-14" x="0.03" y="670.71" width="567.63" height="673.08"/><path class="cls-2" d="M196.14,1010.92c-106.51,0-192.86,2.89-192.86,6.47,0,1.56,16.41,3,43.75,4.1h0C42.37,1039.06,19.59,1041,19.59,1041c-.1.72-1.66,1.9,0,1.81,43.12-2.3,50-20.49,50-20.49h0c33.87,1,78.13,1.59,126.57,1.59,106.52,0,192.87-2.9,192.87-6.47S302.66,1010.92,196.14,1010.92Z"/><path class="cls-3" d="M123.83,756.8s3.25,9.33-31,17.76l12.44,91.3s24.12,8.43,58.34,0c0,0,3.24-74.89,14.46-93.86,0,0-26.8,2.72-31.29-19.41H123.26Z"/><path class="cls-3" d="M96.77,774.08c-12.28-2.59-41.16,29.35-25.41,60.67C78.81,849.56,118.28,778.61,96.77,774.08Z"/><path class="cls-4" d="M115.13,717V730s-8.41,4.76,0,10.09v9l19.35,12.62,21.88-13.18v-8.14s9.82-2.24,1.4-9V710l-30.57-10.66Z"/><path class="cls-3" d="M230.64,791.28c-1.47-14.34-68.13-31.77-76.29-5.18C151,797,233.13,815.71,230.64,791.28Z"/><path class="cls-3" d="M218,798.76c8.72,6,62-24,52.94-41.4C267.28,750.21,203.2,788.54,218,798.76Z"/><path class="cls-4" d="M123.72,871c-9.43,5.56-61.91-29.28-51.3-46.56C76.78,817.37,139.78,861.56,123.72,871Z"/><path class="cls-5" d="M115.13,726s-10.94-3.93,0-23.28c0,0,1.12-10.66,25.8-8.13,0,0,14.31-4.77,15.43-9.82,0,0,.84,8.41-8.7,12.62,0,0,11-1.68,13.51-10.1,0,0,5.29,2.25-6.77,14.31,0,0,9.86-3.93,13.9-7.85s-7.13,13.74-7.13,13.74l-2,17.11-5.89-11.22s-21.87,11.78-28.6-6.45Z"/><path d="M114.78,728.35c-.33-4.84,6.38-8.22,19.7-.65l3.86.06s16-8.33,19.42-1.47c.92,1.83.55,11.58-19.56,3.16l-3.72.15S115.48,738.54,114.78,728.35Z"/><path class="cls-6" d="M140.37,737.71c0,.56-1.5,1-3.36,1s-3.37-.46-3.37-1,1.51-.47,3.37-.47S140.37,737.14,140.37,737.71Z"/><polygon class="cls-7" points="126.44 741.35 124.57 750.7 140.37 747.52 126.44 741.35"/><path class="cls-8" d="M123.08,933.12c-.43-4.11-10.69-8.22-21.63-7.07s-20.69,6.32-20.26,10.43,10,2.83,21,1.68S123.51,937.22,123.08,933.12Z"/><path class="cls-8" d="M184.47,924.74c-.71-4.07-11.22-7.49-22.05-5.62s-20.23,7.68-19.52,11.75,10.17,2.17,21,.3S185.17,928.81,184.47,924.74Z"/><ellipse class="cls-6" cx="108.49" cy="808.39" rx="2.9" ry="1.26"/><ellipse class="cls-6" cx="158.27" cy="807.13" rx="2.9" ry="1.26"/><ellipse class="cls-3" cx="184.47" cy="967.12" rx="12.04" ry="38.3" transform="translate(-268.03 92.71) rotate(-16.56)"/><ellipse class="cls-3" cx="103.54" cy="968.04" rx="13.76" ry="38.72" transform="translate(-190.35 39.9) rotate(-11.46)"/><ellipse class="cls-3" cx="161.96" cy="911.14" rx="16.72" ry="33.62" transform="translate(-327.18 125.55) rotate(-21.83)"/><ellipse class="cls-3" cx="107.08" cy="918.62" rx="33.16" ry="15.83" transform="translate(-796.19 720.07) rotate(-70.95)"/><path class="cls-9" d="M105.31,865.62s14.78,8.78,58.34,0l20.73,58.15s-26.9-12.34-41.48,7.1l-6.5-25.43-13.32,27.68s-20.2-15-41.89,3.36C81.19,936.48,104,881.51,105.31,865.62Z"/><path class="cls-10" d="M103.21,875.35s38.85,7.12,63.66-1.24l-3.22-9s-30.71,8.33-58.34,0Z"/><line class="cls-11" x1="109.09" y1="869.3" x2="107.9" y2="873.96"/><line class="cls-11" x1="120.04" y1="870.72" x2="119.33" y2="875.47"/><line class="cls-11" x1="124.65" y1="871.01" x2="124.65" y2="875.81"/><line class="cls-11" x1="151.87" y1="870.7" x2="152.37" y2="875.48"/><line class="cls-11" x1="147.48" y1="871.37" x2="147.98" y2="876.15"/><line class="cls-11" x1="156.42" y1="869.24" x2="156.92" y2="874.02"/><line class="cls-11" x1="161.44" y1="868.31" x2="161.95" y2="873.09"/><line class="cls-11" x1="114.72" y1="870.29" x2="114" y2="875.04"/><ellipse class="cls-12" cx="132.41" cy="874.18" rx="1.16" ry="1.52"/><ellipse class="cls-12" cx="140.69" cy="873.76" rx="1.16" ry="1.52"/><path class="cls-12" d="M131.54,892.26s-6.45-9.16,0-18.08l.87.48s-6.34,7.92-.45,16.83S131.54,892.26,131.54,892.26Z"/><path class="cls-12" d="M141,889.4s5.84-8.11,0-16l-.79.42s5.74,7,.41,14.89S141,889.4,141,889.4Z"/><path class="cls-3" d="M109.5,999.19c-7.22,0-13.08,4.45-13.08,9.94h26.16C122.58,1003.64,116.72,999.19,109.5,999.19Z"/><rect class="cls-12" x="96.42" y="1007.45" width="26.16" height="3.37"/><path class="cls-13" d="M116.46,1000.31s-10.42,3.59-11.19,7-.75-5.73-5-5"/><path class="cls-3" d="M196.79,999c7.23,0,13.08,4.45,13.08,10H183.72C183.72,1003.44,189.57,999,196.79,999Z"/><rect class="cls-12" x="183.72" y="1007.25" width="26.16" height="3.37"/><path class="cls-13" d="M204.38,1000.3s-10.42,3.59-11.19,7-.75-5.73-5-5"/><polygon class="cls-3" points="286.19 738.21 285.62 753.49 275.71 763.06 266.49 763.08 267 753.87 276.08 750.12 280.85 737.84 286.19 738.21"/><polygon class="cls-4" points="146.64 880.33 139.59 866.77 126.53 862.37 118.19 866.29 122.59 874.4 130.73 880.44 141.97 882.96 146.64 880.33"/></svg>
