<svg id="Layer_1" data-name="Layer 1" xmlns="http://www.w3.org/2000/svg" viewBox="0 0 1700.52 1133.79"><defs><style>.cls-1{fill:#7a83c4;}.cls-2{fill:#565333;stroke:#474224;stroke-miterlimit:10;stroke-width:5px;}.cls-3{fill:#919191;}.cls-4{fill:#54593c;}.cls-5{fill:#424927;}.cls-6{fill:#6a724a;}.cls-7{fill:#010202;}.cls-8{fill:#4e894e;}.cls-9{fill:#c1443a;}.cls-10{fill:#c17017;}.cls-11{fill:#62c6dd;}.cls-12{fill:#a02da0;}</style></defs><title>Artboard 5</title><rect class="cls-1" x="1133.6" y="-0.15" width="566.93" height="566.93"/><path class="cls-2" d="M1308.91,341.69s44.91-28.29,84.11-29.42l-20.35-32.92-21.06-21.41S1290.75,299,1308.91,341.69Z"/><path class="cls-3" d="M1205.58,325.26c5.7,23.5,21.17,41.44,39.57,48.86a63,63,0,0,0-5.08,11.94c-4.85,15.71-3.92,33.38,2.63,49.74,10.79,26.91,34.37,43.74,57.84,43.74a47.54,47.54,0,0,0,18.75-3.82c16.69-7.13,27.74-23,31.3-41.83,11.47,11,25.78,17.24,40.08,17.24a47.54,47.54,0,0,0,18.75-3.82c28.54-12.19,40.59-49.94,26.88-84.12-6.11-15.26-16.5-27.77-29.41-35.54,9.78-15.21,13.44-35.83,8.42-56.59a76.23,76.23,0,0,0-15.41-31,75.19,75.19,0,0,0,13.15-43.15c0-37-25.13-67.12-56-67.12-23.67,0-43.92,17.69-52.12,42.62-8.18-24.91-28.45-42.62-52.12-42.62-30.86,0-56,30.11-56,67.12,0,25.18,11.63,47.14,28.79,58.64C1207.58,270.2,1198.86,297.6,1205.58,325.26Zm88.86-128.38c0,22.45-11.33,41.63-27.19,49a33.59,33.59,0,0,1-26.19,1.1c-17.23-6.39-29.84-26.45-29.84-50.13,0-28.83,18.66-52.28,41.62-52.28S1294.44,168.05,1294.44,196.88Zm12.78,154.57a69.78,69.78,0,0,0,9-29.47,67.51,67.51,0,0,0,17,18.72c1.19.88,2.37,1.71,3.6,2.47a63.27,63.27,0,0,0-8.41,21.89A64.14,64.14,0,0,0,1307.22,351.45Zm-19.57-95.86c-1.31-1-2.65-1.87-4-2.7,9.55-7.58,17-18.56,21.29-31.49a70.84,70.84,0,0,0,10.57,20.44,68.9,68.9,0,0,0-10.84,32.47A68,68,0,0,0,1287.65,255.59Zm111-58.71a60.9,60.9,0,0,1-9.36,33,47.23,47.23,0,0,1-9.84,11,34.49,34.49,0,0,1-44.25.45,47,47,0,0,1-9.93-10.77,60.51,60.51,0,0,1-9.83-33.69c0-28.83,18.65-52.28,41.61-52.28S1398.67,168.05,1398.67,196.88Zm-5.2,124.75a37.14,37.14,0,0,1-15.75,12.66,32.75,32.75,0,0,1-4.42,1.48,32.38,32.38,0,0,1-7.69,1.05,37.19,37.19,0,0,1-19.17-5.08,47.75,47.75,0,0,1-4.77-3.09c-10.22-7.6-17.68-19.38-21-33.15-3.82-15.74-1.5-31.3,5.22-42.93a49.42,49.42,0,0,0,31.2,11.42c12.32,0,23.74-4.81,33-12.93a61.37,61.37,0,0,1,11.29,23.58C1405.63,292.28,1402.18,309.72,1393.47,321.63Zm-47.34,80.07a63.36,63.36,0,0,1-4.44-19.5c-.8-12.36,2.26-24,8.47-32.81a49.28,49.28,0,0,0,14.67,2.31,47.8,47.8,0,0,0,12-1.52,48.64,48.64,0,0,0,20.43-11.1l.31.16c11.18,6,20.24,16.5,25.5,29.6,10.67,26.62,2.1,55.66-19.09,64.72-18.3,7.81-40.12-1.77-52.6-21.66A61.52,61.52,0,0,1,1346.13,401.7Zm-86-24c1.24.1,2.51.16,3.76.16a47.47,47.47,0,0,0,11.82-1.5,49.05,49.05,0,0,0,21.91-12.46c11.55,2.92,22.53,11.18,30.09,23.23a63.62,63.62,0,0,1,9.64,29.66c1.3,20.06-7.48,38.39-23.53,45.24-21.21,9.06-47.13-5.24-57.8-31.88-5.26-13.11-6-27.17-2.22-39.55A44.21,44.21,0,0,1,1260.11,377.66Zm-18.45-115a34,34,0,0,1,5.92-2.14,33.4,33.4,0,0,1,8.42-1.07,35.7,35.7,0,0,1,11.88,2.08,43.67,43.67,0,0,1,11.33,6.12c10.23,7.59,17.69,19.38,21,33.15,4.3,17.76.78,35.3-8.07,47.22a36.18,36.18,0,0,1-20,13.91,34.17,34.17,0,0,1-17.62-.2c-16-4.32-30-19.51-35-40.08C1213.37,296.28,1223.16,271.35,1241.66,262.64Z"/><path class="cls-4" d="M1422.59,281.69s-20.68,29.12-48.65,27.93c0,0-39.48-33-44.46-54.92C1329.48,254.7,1391.9,216.68,1422.59,281.69Z"/><path class="cls-2" d="M1476.28,406.6s62.71-17.8,54.45-51L1495,340.77l-29.6-5.07S1436.59,382.56,1476.28,406.6Z"/><path class="cls-5" d="M1342.66,106s127.92-50.19,240,42,64.24,176.9,53.21,216.88c0,0-28.95-53.48-64-57.26s-6.41,78.68-6.41,78.68-202.72-18.28-243.93-134.94S1342.66,106,1342.66,106Z"/><path class="cls-2" d="M1571.83,309.18c13.59,1.18,123.31,15.13,15.18,168.58,0,0-21.5-36.82-31.83-157.53C1555.2,320.24,1556.58,305.29,1571.83,309.18Z"/><path class="cls-6" d="M1314.39,219.63l29.13,10.84,28.65-11,54,23.76,11,32.65L1505,318.6l30.93,6.5,22.51-22.44-14.6-39.21-69.51-39.91-50,10-45.52-24.57-16.55-40.18,1.54-8.63,49.08-28.24-9.08-33.94s-72.58,5.57-87.68,40.25c-16.69,38.37-15.91,38.68-15.91,38.68Z"/><polygon class="cls-6" points="1464.36 207.66 1424.5 217.58 1384.42 196.86 1373.94 167.49 1416.75 141.74 1466.74 163.85 1464.36 207.66"/><path class="cls-6" d="M1413.83,97.84l7.18,33,53,22.89,54.9-14-12.46-24.21S1469.9,89.47,1413.83,97.84Z"/><path class="cls-6" d="M1581,155.78s-27.61-27.63-45-29.25a27.24,27.24,0,0,0,15.48,18.17C1564.37,150.27,1581,155.78,1581,155.78Z"/><polygon class="cls-6" points="1563.82 162.03 1581.63 219.66 1547.95 251.33 1476.28 209.77 1480.51 167.66 1534.32 151.77 1563.82 162.03"/><path class="cls-6" d="M1585.17,169.71s14.35-4.54,30.44,19.12,26.35,38,28.3,52l-49.12-25.22S1580.48,178.45,1585.17,169.71Z"/><path class="cls-6" d="M1645.85,254.89s4.13,8.45,2.4,39.11l-29.19,26.5-41-19.76-22.82-38.43,38.19-31Z"/><polygon class="cls-6" points="1647.02 304.65 1638.65 342.24 1624.68 324.67 1647.02 304.65"/><path class="cls-4" d="M1433,283.31s-35.19,34.2-45.28,34.29c-4.22,0,59.65,41.42,74.78,34.4,9.25-4.29,24.5-34.37,24.5-34.37l-54-34.32Z"/><path class="cls-4" d="M1544.51,334.6,1495.29,322l-23.9,35.72s67.54,23.91,75.62,13.4C1552.68,363.73,1544.51,334.6,1544.51,334.6Z"/><path class="cls-4" d="M1427.87,278.44s-22.18,31.22-52.17,30c0,0-42.36-35.35-47.69-58.92C1328,249.5,1395,208.72,1427.87,278.44Z"/><path class="cls-2" d="M1387,190.43c-16.78-5.75-51.44-99.65-88.75-116.6,0,0-142.21-70.58-153.06,82.46-.47,6.68,14.63,3.39,25,7.07,15.77,5.63,4.92,44.71,32.5,55.82,19.54,7.86,57.32,12.38,86,20.48,10.32,2.92,13.73,6.66,23.7,7.48,18.19,1.46,27.06-16.15,44.2-6.54,35,19.65-19.85,59.32-43.85,106.32-13,14-21.56,63.71,12,147,.08,1.91,73.66-92.43,71-162.22C1384.68,307.38,1440.72,233.92,1387,190.43Z"/><circle class="cls-7" cx="1252.19" cy="128.03" r="13.09"/><path class="cls-2" d="M1173.27,165s41.82-7.7,83.61,15.32"/><path class="cls-3" d="M1318.8,249.15c4.59-.75,5.18-1.63,10.2-2.47,4.75,2.36,11.82,7,17.21,7,9,0,17.35-3.62,24.21-9.78,10.94-9.81,18.13-26.05,18.13-44.42a66.88,66.88,0,0,0-.8-10.4c-2.72-17.84-12.63-28.08-25.4-35-3.18-5.22-7.3-13.56-10.67-18.84,26.88,4,48.93,30.46,48.93,64.25,0,.29,0,.59,0,.88-.2,18.19-6.45,34.64-16.4,46.48-9.82,11.67-23.22,18.9-38,18.9-18,0-25.67-6.23-35.17-16.09C1312.87,250.19,1316.38,249,1318.8,249.15Z"/><path class="cls-3" d="M1436.05,363.27c-6.12-15.26-16.5-27.77-29.41-35.54,9.78-15.21,14-36,9.28-56.8-5.42-23.74-17.5-31.92-22.9-39.6-1.49,2.3-8.75,3.64-10,6.32-1,2.43,2.76,7,1.14,9.22,2.57,4.73,14.93,11.41,16.9,27.85,2.09,17.38.84,35.07-7.87,47a37.2,37.2,0,0,1-15.75,12.66,33.2,33.2,0,0,1-12.12,2.53,37.15,37.15,0,0,1-19.16-5.08,46.15,46.15,0,0,1-4.77-3.1c-10.23-7.59-17.69-19.37-21-33.14-3.73-15.35-1.6-30.53,4.74-42-3.74-3.37-10.6-.44-13.76-4.38-5.93,9.1-6,13.34-6.95,25.24a70.63,70.63,0,0,0-9.23-11.84c-2.12,4.92-4.21,9.84-6.58,14.58A61.53,61.53,0,0,1,1300,300.86c4.31,17.76.78,35.3-8.06,47.22a36.23,36.23,0,0,1-20,13.91,34.17,34.17,0,0,1-17.62-.2,44.1,44.1,0,0,1-19.33-11.5c-1.51,2.14-3,4.29-4.48,6.49q-1.61,3.17-3.14,6.34a59.65,59.65,0,0,0,17.54,11.08,62.33,62.33,0,0,0-5.08,11.94c-4.85,15.71-3.92,33.38,2.63,49.74,10.78,26.91,34.37,43.74,57.84,43.74A47.54,47.54,0,0,0,1319,475.8c16.69-7.13,27.73-23,31.3-41.83,11.47,11,25.78,17.23,40.08,17.23a47.53,47.53,0,0,0,18.75-3.81C1437.7,435.2,1449.76,397.45,1436.05,363.27Zm-120.11-41.21a67.7,67.7,0,0,0,17,18.72c1.18.88,2.37,1.71,3.6,2.47a63.07,63.07,0,0,0-8.41,21.89A64.14,64.14,0,0,0,1307,351.53,69.63,69.63,0,0,0,1315.94,322.06Zm-2.39,140c-21.21,9.06-47.13-5.24-57.8-31.88-5.26-13.11-6-27.17-2.22-39.55a44.21,44.21,0,0,1,6.33-12.9c1.24.1,2.51.16,3.75.16a47.49,47.49,0,0,0,11.83-1.5,49.05,49.05,0,0,0,21.91-12.46c11.54,2.92,22.53,11.17,30.08,23.23a63.43,63.43,0,0,1,9.65,29.66C1338.38,436.89,1329.6,455.22,1313.55,462.07Zm90.15-28.43c-18.31,7.81-40.12-1.77-52.6-21.66a61.52,61.52,0,0,1-5.22-10.2,63.36,63.36,0,0,1-4.44-19.5c-.8-12.37,2.26-24,8.47-32.81a49.26,49.26,0,0,0,14.66,2.31,47.82,47.82,0,0,0,12-1.52,48.64,48.64,0,0,0,20.43-11.1l.31.16c11.18,6,20.24,16.49,25.5,29.6C1433.46,395.54,1424.89,424.58,1403.7,433.64Z"/><rect class="cls-8" x="566.67" y="-0.15" width="566.93" height="566.93"/><path class="cls-2" d="M776.42,358.85s19.91-49.2,51.06-73L791.73,271l-29.61-5.06S736.73,334.82,776.42,358.85Z"/><path class="cls-3" d="M638.65,325.26c5.7,23.5,21.17,41.44,39.57,48.86a63,63,0,0,0-5.08,11.94c-4.85,15.71-3.92,33.38,2.63,49.74,10.79,26.91,34.37,43.74,57.84,43.74a47.54,47.54,0,0,0,18.75-3.82c16.69-7.13,27.74-23,31.3-41.83,11.47,11,25.79,17.24,40.08,17.24a47.62,47.62,0,0,0,18.76-3.82c28.53-12.19,40.58-49.94,26.87-84.12-6.11-15.26-16.49-27.77-29.41-35.54,9.78-15.21,13.44-35.83,8.42-56.59a76.23,76.23,0,0,0-15.41-31,75.19,75.19,0,0,0,13.15-43.15c0-37-25.13-67.12-56-67.12-23.67,0-43.92,17.69-52.12,42.62-8.18-24.91-28.45-42.62-52.12-42.62-30.86,0-56,30.11-56,67.12,0,25.18,11.63,47.14,28.79,58.64C640.65,270.2,631.93,297.6,638.65,325.26Zm88.86-128.38c0,22.45-11.33,41.63-27.18,49a33.61,33.61,0,0,1-26.2,1.1c-17.23-6.39-29.83-26.45-29.83-50.13,0-28.83,18.65-52.28,41.61-52.28S727.51,168.05,727.51,196.88Zm12.78,154.57a69.78,69.78,0,0,0,9-29.47,67.51,67.51,0,0,0,17,18.72c1.19.88,2.37,1.71,3.6,2.47a63.27,63.27,0,0,0-8.41,21.89A64.14,64.14,0,0,0,740.29,351.45Zm-19.57-95.86c-1.31-1-2.65-1.87-4-2.7,9.55-7.58,17-18.56,21.29-31.49a70.62,70.62,0,0,0,10.58,20.44,68.8,68.8,0,0,0-10.85,32.47A68,68,0,0,0,720.72,255.59Zm111-58.71a60.9,60.9,0,0,1-9.36,33,47.23,47.23,0,0,1-9.84,11,34.49,34.49,0,0,1-44.25.45,47.5,47.5,0,0,1-9.93-10.77,60.51,60.51,0,0,1-9.83-33.69c0-28.83,18.65-52.28,41.62-52.28S831.74,168.05,831.74,196.88Zm-5.2,124.75a37.14,37.14,0,0,1-15.75,12.66,32.75,32.75,0,0,1-4.42,1.48,32.38,32.38,0,0,1-7.69,1.05,37.19,37.19,0,0,1-19.17-5.08,48.93,48.93,0,0,1-4.77-3.09c-10.22-7.6-17.68-19.38-21-33.15-3.82-15.74-1.5-31.3,5.22-42.93A49.42,49.42,0,0,0,790.13,264c12.32,0,23.74-4.81,33-12.93a61.37,61.37,0,0,1,11.29,23.58C838.7,292.28,835.25,309.72,826.54,321.63ZM779.2,401.7a63.36,63.36,0,0,1-4.44-19.5c-.8-12.36,2.26-24,8.47-32.81a49.28,49.28,0,0,0,14.67,2.31,47.8,47.8,0,0,0,12-1.52,48.58,48.58,0,0,0,20.43-11.1l.32.16c11.17,6,20.23,16.5,25.49,29.6,10.67,26.62,2.1,55.66-19.09,64.72-18.3,7.81-40.12-1.77-52.6-21.66A61.52,61.52,0,0,1,779.2,401.7Zm-86-24c1.24.1,2.51.16,3.76.16a47.47,47.47,0,0,0,11.82-1.5,49.05,49.05,0,0,0,21.91-12.46c11.55,2.92,22.53,11.18,30.09,23.23a63.62,63.62,0,0,1,9.64,29.66c1.3,20.06-7.48,38.39-23.53,45.24-21.21,9.06-47.13-5.24-57.8-31.88-5.26-13.11-6-27.17-2.22-39.55A44.21,44.21,0,0,1,693.18,377.66Zm-18.44-115a33.6,33.6,0,0,1,14.33-3.21A35.7,35.7,0,0,1,701,261.51a43.67,43.67,0,0,1,11.33,6.12c10.23,7.59,17.69,19.38,21,33.15,4.3,17.76.78,35.3-8.07,47.22a36.18,36.18,0,0,1-20,13.91,34.17,34.17,0,0,1-17.62-.2c-16-4.32-30-19.51-35-40.08C646.44,296.28,656.23,271.35,674.74,262.64Z"/><path class="cls-4" d="M855.66,281.69S835,310.81,807,309.62c0,0-39.48-33-44.46-54.92C762.55,254.7,825,216.68,855.66,281.69Z"/><path class="cls-2" d="M909.35,428.6s62.71-17.8,54.45-51l-35.75-14.83-29.6-5.07S869.66,404.56,909.35,428.6Z"/><path class="cls-5" d="M775.73,104.93s127.92-50.18,240,42,64.24,176.89,53.21,216.88c0,0-29-53.48-64-57.26s-6.41,78.68-6.41,78.68S795.79,367,754.58,250.34,775.73,104.93,775.73,104.93Z"/><path class="cls-2" d="M1004.9,309.18c13.59,1.18,123.32,15.13,15.18,168.58,0,0-21.5-36.82-31.83-157.53C988.27,320.24,989.65,305.29,1004.9,309.18Z"/><path class="cls-6" d="M747.46,219.63l29.14,10.84,28.64-11,54,23.76,39.29,48,39.5,27.31L969,325.1l22.51-22.44-14.6-39.21-69.51-39.91-50,10-45.51-24.57-16.56-40.18,1.54-8.63,49.08-28.24-9.08-33.94s-72.58,5.57-87.68,40.25c-16.69,38.37-15.91,38.68-15.91,38.68Z"/><polygon class="cls-6" points="897.43 207.66 857.57 217.58 817.49 196.86 807.01 167.49 849.82 141.74 899.81 163.85 897.43 207.66"/><path class="cls-6" d="M846.9,97.84l7.18,33,53,22.89,54.9-14-12.46-24.21S903,89.47,846.9,97.84Z"/><path class="cls-6" d="M1014,155.78s-27.61-27.63-45-29.25a27.24,27.24,0,0,0,15.48,18.17C997.44,150.27,1014,155.78,1014,155.78Z"/><polygon class="cls-6" points="996.89 162.03 1014.7 219.66 981.02 251.33 909.35 209.77 913.58 167.66 967.39 151.77 996.89 162.03"/><path class="cls-6" d="M1018.24,169.71s14.35-4.54,30.44,19.12,26.35,38,28.3,52l-49.12-25.22S1013.55,178.45,1018.24,169.71Z"/><path class="cls-6" d="M1078.92,254.89s4.13,8.45,2.4,39.11l-29.19,26.5-41-19.76-22.82-38.43,38.19-31Z"/><polygon class="cls-6" points="1080.09 304.65 1071.72 342.24 1057.76 324.67 1080.09 304.65"/><path class="cls-4" d="M866.08,283.31s-35.19,34.2-45.28,34.29c-4.22,0,59.65,41.42,74.78,34.4,9.25-4.29,24.5-34.37,24.5-34.37l-54-34.32Z"/><path class="cls-4" d="M977.58,334.6,928.36,322,904.47,357.7s67.53,23.91,75.61,13.4C985.75,363.73,977.58,334.6,977.58,334.6Z"/><path class="cls-4" d="M861,278.44s-22.19,31.22-52.18,30c0,0-42.36-35.35-47.69-58.92C761.08,249.5,828,208.72,861,278.44Z"/><path class="cls-2" d="M831.55,193.5c-16.79-5.74-58.18-105.08-95.49-122,0,0-142.21-70.58-153.06,82.46-.46,6.68,14.63,3.39,25,7.07,15.77,5.63,4.93,44.71,32.5,55.82,19.54,7.86,57.32,12.38,86,20.48,10.32,2.93,13.73,6.66,23.7,7.48,18.19,1.46,50.36-13.44,67.5-3.83,35.06,19.65-7.44,135.92,38.68,167.58,24,16.5,58.17,63,126.07,53.6,0,0-43.4-115.57-69.9-134.07C901.47,303.74,910,227.56,831.55,193.5Z"/><circle class="cls-7" cx="689.98" cy="125.67" r="13.09"/><path class="cls-2" d="M611.07,162.6s41.81-7.7,83.6,15.32"/><path class="cls-3" d="M757.32,248c4,.33,5.88-1.36,10.91-2.2,4.75,2.36,12.66,4.89,18,4.89,9,0,17.35-3.62,24.21-9.78,10.94-9.81,18.13-26.05,18.13-44.42a66.88,66.88,0,0,0-.8-10.4c-2.72-17.84-12.63-28.08-25.4-35-3.18-5.22-7.3-13.56-10.67-18.84,26.88,4,48.93,30.46,48.93,64.25,0,.29,0,.59,0,.88-.2,18.19-6.45,34.64-16.4,46.48-9.82,11.67-23.22,18.9-38,18.9-18,0-30-5.82-39.51-15.67C748.6,247.6,754.91,247.83,757.32,248Z"/><path class="cls-3" d="M869.54,362.59c-6.12-15.27-16.5-27.77-29.41-35.54,9.78-15.21,14-36,9.28-56.8-5.42-23.75-17.5-31.93-22.9-39.6-1.49,2.3-8.75,3.64-10,6.32-1,2.43,2.76,7,1.14,9.22,2.57,4.73,14.93,11.41,16.9,27.85,2.09,17.38.84,35.07-7.87,47A37.14,37.14,0,0,1,811,333.69a32.75,32.75,0,0,1-4.42,1.48,33.59,33.59,0,0,1-7.7,1.05,37.15,37.15,0,0,1-19.16-5.08,47.87,47.87,0,0,1-4.77-3.1c-10.23-7.59-17.68-19.37-21-33.14-3.73-15.35-1.6-30.53,4.74-42-3.74-3.37-10.6-.44-13.76-4.38-5.93,9.1-6,13.33-7,25.24a70.63,70.63,0,0,0-9.23-11.84c-2.11,4.92-4.21,9.83-6.58,14.58a61.56,61.56,0,0,1,11.38,23.72c4.31,17.77.78,35.31-8.06,47.23a36.23,36.23,0,0,1-20,13.91,34.17,34.17,0,0,1-17.62-.2,44,44,0,0,1-19.32-11.5q-2.28,3.19-4.49,6.49-1.61,3.16-3.14,6.34a59.65,59.65,0,0,0,17.54,11.08,62.33,62.33,0,0,0-5.08,11.94c-4.85,15.71-3.92,33.38,2.63,49.74,10.78,26.91,34.37,43.74,57.84,43.74a47.54,47.54,0,0,0,18.75-3.82c16.69-7.13,27.73-23,31.3-41.83,11.47,11,25.78,17.23,40.08,17.23a47.53,47.53,0,0,0,18.75-3.81C871.19,434.51,883.25,396.77,869.54,362.59Zm-120.1-41.21a67.65,67.65,0,0,0,17,18.72c1.18.88,2.37,1.71,3.6,2.47a63.27,63.27,0,0,0-8.41,21.89,64.14,64.14,0,0,0-21.21-13.61A69.78,69.78,0,0,0,749.44,321.38Zm-2.4,140c-21.21,9.06-47.13-5.24-57.8-31.88C684,416.4,683.2,402.34,687,390a44.21,44.21,0,0,1,6.33-12.9c1.24.1,2.51.16,3.76.16a47.47,47.47,0,0,0,11.82-1.5,49.07,49.07,0,0,0,21.91-12.47c11.55,2.93,22.53,11.18,30.09,23.24a64.45,64.45,0,0,1,5.2,10.18,63.37,63.37,0,0,1,4.44,19.48C771.87,436.21,763.09,454.54,747,461.39ZM837.19,433c-18.31,7.81-40.12-1.78-52.6-21.66a61.52,61.52,0,0,1-5.22-10.2,63.36,63.36,0,0,1-4.44-19.5c-.8-12.37,2.26-24,8.47-32.82a49.29,49.29,0,0,0,14.67,2.32,47.8,47.8,0,0,0,12-1.52,48.64,48.64,0,0,0,20.43-11.1l.31.16c11.18,6,20.24,16.49,25.5,29.6C867,394.86,858.38,423.9,837.19,433Z"/><rect class="cls-9" x="-0.26" y="-0.15" width="566.93" height="566.93"/><path class="cls-3" d="M79.22,318.76c5.7,23.5,21.17,41.44,39.57,48.86a63,63,0,0,0-5.08,11.94c-4.85,15.71-3.92,33.38,2.63,49.74C127.13,456.21,150.71,473,174.18,473a47.54,47.54,0,0,0,18.75-3.82c16.69-7.13,27.74-23,31.3-41.83,11.47,11,25.79,17.24,40.08,17.24a47.62,47.62,0,0,0,18.76-3.82c28.53-12.19,40.58-49.94,26.87-84.12-6.11-15.26-16.49-27.77-29.41-35.54,9.78-15.21,13.44-35.83,8.42-56.59a76.23,76.23,0,0,0-15.41-31,75.19,75.19,0,0,0,13.15-43.15c0-37-25.12-67.12-56-67.12-23.67,0-43.92,17.69-52.12,42.62-8.18-24.91-28.45-42.62-52.11-42.62-30.87,0-56,30.11-56,67.12,0,25.18,11.63,47.14,28.79,58.64C81.22,263.7,72.5,291.1,79.22,318.76Zm88.86-128.38c0,22.45-11.33,41.63-27.18,49a33.61,33.61,0,0,1-26.2,1.1c-17.23-6.39-29.83-26.45-29.83-50.13,0-28.83,18.65-52.28,41.61-52.28S168.08,161.55,168.08,190.38ZM180.86,345a69.64,69.64,0,0,0,9-29.47,67.51,67.51,0,0,0,17,18.72c1.19.88,2.37,1.71,3.6,2.47a63.27,63.27,0,0,0-8.41,21.89A64.14,64.14,0,0,0,180.86,345Zm-19.57-95.86c-1.31-1-2.65-1.87-4-2.7,9.55-7.58,17.05-18.56,21.29-31.49a70.62,70.62,0,0,0,10.58,20.44,68.8,68.8,0,0,0-10.85,32.47A68,68,0,0,0,161.29,249.09Zm111-58.71a60.9,60.9,0,0,1-9.37,33,47.23,47.23,0,0,1-9.84,11,34.47,34.47,0,0,1-44.24.45,47.31,47.31,0,0,1-9.94-10.77,60.51,60.51,0,0,1-9.83-33.69c0-28.83,18.66-52.28,41.62-52.28S272.32,161.55,272.32,190.38Zm-5.2,124.75a37.23,37.23,0,0,1-15.76,12.66,32.75,32.75,0,0,1-4.42,1.48,32.38,32.38,0,0,1-7.69,1.05,37.19,37.19,0,0,1-19.17-5.08,48.93,48.93,0,0,1-4.77-3.09c-10.22-7.6-17.68-19.38-21-33.15-3.82-15.74-1.5-31.3,5.22-42.93a49.42,49.42,0,0,0,31.2,11.42c12.32,0,23.74-4.81,33-12.93A61.37,61.37,0,0,1,275,268.14C279.27,285.78,275.82,303.22,267.12,315.13ZM219.77,395.2a63.36,63.36,0,0,1-4.44-19.5c-.8-12.36,2.26-24,8.47-32.81a49.28,49.28,0,0,0,14.67,2.31,47.8,47.8,0,0,0,12-1.52,48.58,48.58,0,0,0,20.43-11.1l.32.16c11.17,6,20.23,16.5,25.49,29.6,10.67,26.62,2.1,55.66-19.09,64.72-18.3,7.81-40.12-1.77-52.6-21.66A61.52,61.52,0,0,1,219.77,395.2Zm-86-24c1.25.1,2.51.16,3.76.16a47.41,47.41,0,0,0,11.82-1.5,49.05,49.05,0,0,0,21.91-12.46c11.55,2.92,22.53,11.18,30.09,23.23A63.62,63.62,0,0,1,211,410.25c1.3,20.06-7.48,38.39-23.53,45.24-21.21,9.06-47.13-5.24-57.8-31.88-5.26-13.11-6-27.17-2.22-39.55A44.21,44.21,0,0,1,133.75,371.16Zm-18.44-115a33.69,33.69,0,0,1,5.92-2.14,33.33,33.33,0,0,1,8.41-1.07A35.65,35.65,0,0,1,141.52,255a43.67,43.67,0,0,1,11.33,6.12c10.23,7.59,17.69,19.38,21,33.15,4.3,17.76.78,35.3-8.06,47.22a36.2,36.2,0,0,1-20,13.91,34.17,34.17,0,0,1-17.62-.2c-16-4.32-30-19.51-35-40.08C87,289.78,96.8,264.85,115.31,256.14Z"/><path class="cls-4" d="M296.23,275.19s-20.68,29.12-48.65,27.93c0,0-39.47-33-44.46-54.92C203.12,248.2,265.54,210.18,296.23,275.19Z"/><path class="cls-2" d="M387.49,430.23s23.37-13,15.12-46.19l-34-27.77L339,351.2S347.8,406.2,387.49,430.23Z"/><path class="cls-5" d="M216.3,98.43s127.92-50.18,240,42,67,168.81,56,208.79c0,0-31.74-45.39-66.8-49.17s-6.41,78.68-6.41,78.68S236.36,360.49,195.15,243.84,216.3,98.43,216.3,98.43Z"/><path class="cls-2" d="M445.47,298s122.4,20.21,54.84,180.47c0,0-83.12-47.65-71.49-169.43C428.84,309.08,430.22,294.12,445.47,298Z"/><path class="cls-6" d="M186.29,214l29.14,10.85,28.65-11,54,23.76,10.95,25.55,71.84,48,42.07-12-7.23-41.33-69.51-39.91-50,10L250.7,203.27l-16.56-40.18,1.54-8.63,49.08-28.24-9.07-33.94S203.1,97.85,188,132.53c-16.69,38.37-15.91,38.68-15.91,38.68Z"/><polygon class="cls-6" points="338.01 201.16 298.14 211.08 258.06 190.36 247.58 160.99 290.39 135.24 340.38 157.35 338.01 201.16"/><path class="cls-6" d="M287.47,91.34l7.18,33.05,53.05,22.89,54.91-14L390.14,109S343.54,83,287.47,91.34Z"/><path class="cls-6" d="M454.6,149.28S427,121.65,409.58,120a27.24,27.24,0,0,0,15.48,18.17C438,143.77,454.6,149.28,454.6,149.28Z"/><polygon class="cls-6" points="437.47 155.53 455.27 213.16 421.59 244.83 349.93 203.27 354.15 161.16 407.96 145.27 437.47 155.53"/><path class="cls-6" d="M458.81,163.21s14.35-4.54,30.44,19.12,26.35,38,28.3,52l-49.12-25.22S454.12,172,458.81,163.21Z"/><path class="cls-6" d="M519.5,248.39s4.12,8.45,2.39,39.11L492.7,314l-41-19.76-22.82-38.43,38.19-31Z"/><polygon class="cls-6" points="520.66 298.15 512.29 335.74 498.33 318.17 520.66 298.15"/><path class="cls-4" d="M302.21,283.31S271.46,311,261.37,311.1,310,342.28,319.23,338a187.67,187.67,0,0,0,17.65-9.51L306,286.17Z"/><polygon class="cls-4" points="341.49 335.74 327.98 345.56 357.48 351.18 341.49 335.74"/><path class="cls-4" d="M297.52,273.94s-22.19,31.22-52.18,30c0,0-42.36-35.35-47.69-58.92C197.65,245,264.6,204.22,297.52,273.94Z"/><path class="cls-2" d="M279.27,189.58c-16.79-5.75-58.17-105.09-95.49-122,0,0-142.21-70.58-153,82.45-.47,6.68,14.62,3.39,25,7.07,15.78,5.63,4.93,44.72,32.51,55.82,19.53,7.87,57.31,12.39,86,20.49,10.32,2.92,13.73,6.66,23.7,7.48,18.19,1.46,50.36-13.44,67.5-3.84,35.06,19.65,57.14,87.58,103.26,119.25,24,16.49,58.17,63,126.06,53.59,0,0-60-147.64-84.64-166C380.15,221.58,337.46,209.5,279.27,189.58Z"/><circle class="cls-7" cx="137.7" cy="121.74" r="13.09"/><path class="cls-2" d="M58.79,158.67S100.6,151,142.4,174"/><path class="cls-3" d="M198.89,243.52a57.18,57.18,0,0,0,13.67-1,34.2,34.2,0,0,0,15.29,3.66c9,0,17.36-3.62,24.21-9.78,10.95-9.81,18.13-26.05,18.13-44.42a66.88,66.88,0,0,0-.8-10.4c-2.72-17.84-8-32.43-20.74-39.36-3.17-5.22-6.11-10.71-9.48-16,26.87,4,43.08,32,43.08,65.75,0,.29,0,.59,0,.88-.2,18.19-6.45,34.64-16.4,46.48-9.82,11.67-23.21,18.9-38,18.9-18,0-25.72-6-35.23-15.82A33.11,33.11,0,0,0,198.89,243.52Z"/><path class="cls-3" d="M310.29,356.23c-6.12-15.27-16.5-27.78-29.41-35.55,9.77-15.21,14-36,9.27-56.8-5.41-23.74-17.49-31.92-22.9-39.6-1.48,2.3-8.74,3.64-10,6.32-1,2.43,2.75,7,1.13,9.23,2.58,4.72,14.93,11.4,16.91,27.84,2.09,17.38.83,35.08-7.87,47a37.28,37.28,0,0,1-15.76,12.65,33.43,33.43,0,0,1-12.11,2.54,37.24,37.24,0,0,1-19.16-5.09,45,45,0,0,1-4.77-3.09c-10.23-7.6-17.69-19.38-21-33.15-3.72-15.35-1.59-30.52,4.75-42-3.75-3.37-10.6-.44-13.77-4.38-5.92,9.1-6,13.34-6.95,25.24a70.1,70.1,0,0,0-9.22-11.83c-2.12,4.92-4.22,9.83-6.58,14.58a61.63,61.63,0,0,1,11.38,23.72c4.31,17.76.78,35.31-8.06,47.22a36.18,36.18,0,0,1-20,13.91,34.31,34.31,0,0,1-17.63-.19,44.19,44.19,0,0,1-19.32-11.51c-1.51,2.14-3,4.29-4.48,6.49q-1.62,3.16-3.15,6.34a59.69,59.69,0,0,0,17.55,11.08,63,63,0,0,0-5.09,11.94c-4.85,15.72-3.91,33.38,2.63,49.74,10.79,26.91,34.38,43.74,57.84,43.74a47.62,47.62,0,0,0,18.76-3.82c16.69-7.12,27.73-23,31.3-41.83,11.47,11,25.78,17.24,40.08,17.24a47.61,47.61,0,0,0,18.75-3.82C311.94,428.15,324,390.4,310.29,356.23ZM190.18,315a67.62,67.62,0,0,0,17,18.71c1.19.88,2.38,1.72,3.61,2.47a63.08,63.08,0,0,0-8.42,21.89,64,64,0,0,0-21.21-13.61A69.64,69.64,0,0,0,190.18,315Zm-2.39,140c-21.21,9.06-47.13-5.24-57.81-31.88-5.26-13.1-6-27.17-2.22-39.55a44.28,44.28,0,0,1,6.33-12.89c1.25.09,2.52.15,3.76.15a47.35,47.35,0,0,0,11.82-1.5,49,49,0,0,0,21.91-12.46c11.55,2.92,22.54,11.18,30.09,23.23a63.62,63.62,0,0,1,9.64,29.66C212.62,429.84,203.83,448.17,187.79,455Zm90.15-28.43c-18.31,7.81-40.12-1.77-52.61-21.66a62.25,62.25,0,0,1-5.21-10.2,63.09,63.09,0,0,1-4.45-19.5c-.79-12.36,2.26-24,8.48-32.81a49.21,49.21,0,0,0,14.66,2.31,48.33,48.33,0,0,0,12-1.51,48.83,48.83,0,0,0,20.43-11.11l.31.16c11.18,6,20.23,16.5,25.49,29.6C307.7,388.5,299.13,417.53,277.94,426.59Z"/><path class="cls-3" d="M737.56,915.84c1.47-2.2,3-4.36,4.48-6.49-.26-.26-.51-.53-.76-.79C740,911,738.78,913.43,737.56,915.84Z"/><rect class="cls-10" x="566.67" y="566.78" width="566.93" height="566.93"/><path class="cls-2" d="M776.42,925.78s19.91-49.2,51.06-73l-35.75-14.83-29.61-5.06S736.73,901.75,776.42,925.78Z"/><path class="cls-4" d="M855.66,848.62S835,877.74,807,876.55c0,0-39.48-33-44.46-54.92C762.55,821.63,825,783.61,855.66,848.62Z"/><path class="cls-2" d="M909.35,995.53s62.71-17.8,54.45-51L928.05,929.7l-29.6-5.07S869.66,971.49,909.35,995.53Z"/><path class="cls-5" d="M775.73,671.86s127.92-50.19,240,42S1080,890.8,1068.92,930.79c0,0-29-53.48-64-57.26s-6.41,78.68-6.41,78.68-202.72-18.29-243.93-135S775.73,671.86,775.73,671.86Z"/><path class="cls-2" d="M1004.9,876.11c13.59,1.18,123.32,15.13,15.18,168.58,0,0-21.5-36.82-31.83-157.54C988.27,887.17,989.65,872.22,1004.9,876.11Z"/><path class="cls-6" d="M747.46,786.56,776.6,797.4l28.64-11,54,23.76,39.29,48,39.5,27.31L969,892l22.51-22.44-14.6-39.22-69.51-39.9-50,9.95-45.51-24.58-16.56-40.17,1.54-8.63,49.08-28.24-9.08-33.95s-72.58,5.57-87.68,40.26c-16.69,38.37-15.91,38.68-15.91,38.68Z"/><polygon class="cls-6" points="897.43 774.59 857.57 784.51 817.49 763.78 807.01 734.42 849.82 708.67 899.81 730.77 897.43 774.59"/><path class="cls-6" d="M846.9,664.77l7.18,33.05,53,22.89L962,706.66l-12.46-24.2S903,656.4,846.9,664.77Z"/><path class="cls-6" d="M1014,722.71s-27.61-27.63-45-29.25a27.24,27.24,0,0,0,15.48,18.17C997.44,717.2,1014,722.71,1014,722.71Z"/><polygon class="cls-6" points="996.89 728.96 1014.7 786.59 981.02 818.26 909.35 776.7 913.58 734.59 967.39 718.7 996.89 728.96"/><path class="cls-6" d="M1018.24,736.64s14.35-4.54,30.44,19.12,26.35,38,28.3,52l-49.12-25.22S1013.55,745.38,1018.24,736.64Z"/><path class="cls-6" d="M1078.92,821.82s4.13,8.45,2.4,39.11l-29.19,26.5-41-19.76-22.82-38.43,38.19-31Z"/><polygon class="cls-6" points="1080.09 871.58 1071.72 909.17 1057.76 891.6 1080.09 871.58"/><path class="cls-4" d="M866.08,850.24s-35.19,34.19-45.28,34.29c-4.22,0,59.65,41.42,74.78,34.4,9.25-4.29,24.5-34.38,24.5-34.38l-54-34.31Z"/><path class="cls-4" d="M977.58,901.53l-49.22-12.62-23.89,35.72S972,948.54,980.08,938C985.75,930.66,977.58,901.53,977.58,901.53Z"/><path class="cls-4" d="M861,845.37s-22.19,31.22-52.18,30c0,0-42.36-35.35-47.69-58.92C761.08,816.43,828,775.65,861,845.37Z"/><path class="cls-2" d="M831.55,760.43c-16.79-5.74-58.18-105.09-95.49-122,0,0-142.21-70.58-153.06,82.46-.46,6.68,14.63,3.39,25,7.07,15.77,5.63,4.93,44.71,32.5,55.81,19.54,7.87,57.32,12.39,86,20.49,10.32,2.92,13.73,6.66,23.7,7.48,18.19,1.46,50.36-13.44,67.5-3.84,35.06,19.66-7.44,135.92,38.68,167.59,24,16.5,58.17,63,126.07,53.6,0,0-43.4-115.57-69.9-134.07C901.47,870.67,910,794.49,831.55,760.43Z"/><circle class="cls-7" cx="689.98" cy="692.6" r="13.09"/><path class="cls-2" d="M610.58,728.16s16.67-4,44,10.3,45.49,0,45.49,0"/><rect class="cls-11" x="1133.6" y="566.78" width="566.93" height="566.93"/><path class="cls-2" d="M1308.91,908.62s44.91-28.29,84.11-29.42l-20.35-32.92-21.06-21.41S1290.75,865.92,1308.91,908.62Z"/><path class="cls-4" d="M1422.59,848.62s-20.68,29.12-48.65,27.93c0,0-39.48-33-44.46-54.92C1329.48,821.63,1391.9,783.61,1422.59,848.62Z"/><path class="cls-2" d="M1476.28,975.53s62.71-17.8,54.45-51L1495,909.7l-29.6-5.07S1436.59,951.49,1476.28,975.53Z"/><path class="cls-5" d="M1342.66,673s127.92-50.19,240,42,64.24,176.9,53.21,216.88c0,0-28.95-53.48-64-57.26s-6.41,78.68-6.41,78.68S1362.72,935,1321.51,818.35,1342.66,673,1342.66,673Z"/><path class="cls-2" d="M1571.83,876.11c13.59,1.18,123.31,15.13,15.18,168.58,0,0-21.5-36.82-31.83-157.54C1555.2,887.17,1556.58,872.22,1571.83,876.11Z"/><path class="cls-6" d="M1314.39,786.56l29.13,10.84,28.65-11,54,23.76,11,32.65L1505,885.53l30.93,6.5,22.51-22.44-14.6-39.22-69.51-39.9-50,9.95-45.52-24.58-16.55-40.17,1.54-8.63,49.08-28.24-9.08-33.95s-72.58,5.57-87.68,40.26c-16.69,38.37-15.91,38.68-15.91,38.68Z"/><polygon class="cls-6" points="1464.36 774.59 1424.5 784.51 1384.42 763.78 1373.94 734.42 1416.75 708.67 1466.74 730.77 1464.36 774.59"/><path class="cls-6" d="M1413.83,664.77l7.18,33.05,53,22.89,54.9-14.05-12.46-24.2S1469.9,656.4,1413.83,664.77Z"/><path class="cls-6" d="M1581,722.71s-27.61-27.63-45-29.25a27.24,27.24,0,0,0,15.48,18.17C1564.37,717.2,1581,722.71,1581,722.71Z"/><polygon class="cls-6" points="1563.82 728.96 1581.63 786.59 1547.95 818.26 1476.28 776.7 1480.51 734.59 1534.32 718.7 1563.82 728.96"/><path class="cls-6" d="M1585.17,736.64s14.35-4.54,30.44,19.12,26.35,38,28.3,52l-49.12-25.22S1580.48,745.38,1585.17,736.64Z"/><path class="cls-6" d="M1645.85,821.82s4.13,8.45,2.4,39.11l-29.19,26.5-41-19.76-22.82-38.43,38.19-31Z"/><polygon class="cls-6" points="1647.02 871.58 1638.65 909.17 1624.68 891.6 1647.02 871.58"/><path class="cls-4" d="M1433,850.24s-35.19,34.19-45.28,34.29c-4.22,0,59.65,41.42,74.78,34.4,9.25-4.29,24.5-34.38,24.5-34.38l-54-34.31Z"/><path class="cls-4" d="M1544.51,901.53l-49.22-12.62-23.9,35.72s67.54,23.91,75.62,13.4C1552.68,930.66,1544.51,901.53,1544.51,901.53Z"/><path class="cls-4" d="M1427.87,845.37s-22.18,31.22-52.17,30c0,0-42.36-35.35-47.69-58.92C1328,816.43,1395,775.65,1427.87,845.37Z"/><path class="cls-2" d="M1387,757.36c-16.78-5.75-51.44-99.66-88.75-116.6,0,0-142.21-70.58-153.06,82.46-.47,6.68,14.63,3.39,25,7.07,15.77,5.63,4.92,44.71,32.5,55.81,19.54,7.87,57.32,12.39,86,20.49,10.32,2.92,13.73,6.66,23.7,7.48,18.19,1.46,27.06-16.15,44.2-6.55,35,19.66-19.85,59.33-43.85,106.33-13,14-21.56,63.7,12,147,.08,1.91,73.66-92.43,71-162.22C1384.68,874.31,1440.72,800.85,1387,757.36Z"/><circle class="cls-7" cx="1252.19" cy="694.96" r="13.09"/><path class="cls-2" d="M1170.24,731.39s16.67-4,44,10.3,45.48,0,45.48,0"/><rect class="cls-12" x="-0.26" y="566.78" width="566.93" height="566.93"/><path class="cls-4" d="M296.23,842.12s-20.68,29.12-48.65,27.93c0,0-39.47-33-44.46-54.92C203.12,815.13,265.54,777.11,296.23,842.12Z"/><path class="cls-2" d="M387.49,997.16s23.37-13,15.12-46.19l-34-27.77L339,918.13S347.8,973.13,387.49,997.16Z"/><path class="cls-5" d="M216.3,665.36s127.92-50.19,240,42,67,168.81,56,208.79c0,0-31.74-45.39-66.8-49.17s-6.41,78.68-6.41,78.68-202.72-18.29-243.93-135S216.3,665.36,216.3,665.36Z"/><path class="cls-2" d="M445.47,864.94s122.4,20.22,54.84,180.48c0,0-83.12-47.65-71.49-169.43C428.84,876,430.22,861.05,445.47,864.94Z"/><path class="cls-6" d="M186.29,780.91l29.14,10.85,28.65-11,54,23.76,10.95,25.55,71.84,48,42.07-12-7.23-41.32-69.51-39.91-50,10L250.7,770.2,234.14,730l1.54-8.63,49.08-28.24-9.07-33.94S203.1,664.78,188,699.46c-16.69,38.37-15.91,38.68-15.91,38.68Z"/><polygon class="cls-6" points="338.01 768.09 298.14 778.01 258.06 757.28 247.58 727.92 290.39 702.17 340.38 724.27 338.01 768.09"/><path class="cls-6" d="M287.47,658.27l7.18,33.05,53.05,22.89,54.91-14.05L390.14,676S343.54,649.9,287.47,658.27Z"/><path class="cls-6" d="M454.6,716.21S427,688.58,409.58,687a27.24,27.24,0,0,0,15.48,18.17C438,710.7,454.6,716.21,454.6,716.21Z"/><polygon class="cls-6" points="437.47 722.46 455.27 780.09 421.59 811.76 349.93 770.2 354.15 728.09 407.96 712.2 437.47 722.46"/><path class="cls-6" d="M458.81,730.14s14.35-4.54,30.44,19.12,26.35,38,28.3,52L468.43,776S454.12,738.88,458.81,730.14Z"/><path class="cls-6" d="M519.5,815.32s4.12,8.45,2.39,39.11l-29.19,26.5-41-19.76-22.82-38.43,38.19-31Z"/><polygon class="cls-6" points="520.66 865.08 512.29 902.67 498.33 885.1 520.66 865.08"/><path class="cls-4" d="M302.21,850.24S271.46,877.93,261.37,878s48.59,31.18,57.86,26.88a187.67,187.67,0,0,0,17.65-9.51L306,853.1Z"/><polygon class="cls-4" points="341.49 902.67 327.98 912.48 357.48 918.11 341.49 902.67"/><path class="cls-4" d="M297.52,840.87s-22.19,31.22-52.18,30c0,0-42.36-35.35-47.69-58.92C197.65,811.93,264.6,771.15,297.52,840.87Z"/><path class="cls-2" d="M279.27,756.51c-16.79-5.75-58.17-105.09-95.49-122,0,0-142.21-70.57-153,82.46-.47,6.68,14.62,3.39,25,7.07,15.78,5.63,4.93,44.72,32.51,55.82,19.53,7.87,57.31,12.38,86,20.49,10.32,2.92,13.73,6.66,23.7,7.47,18.19,1.47,50.36-13.43,67.5-3.83,35.06,19.65,57.14,87.58,103.26,119.25,24,16.49,58.17,63,126.06,53.59,0,0-60-147.64-84.64-166C380.15,788.5,337.46,776.43,279.27,756.51Z"/><circle class="cls-7" cx="137.7" cy="688.67" r="13.09"/><path class="cls-2" d="M56.85,724.79s16.67-4,44,10.3,45.48,0,45.48,0"/></svg>
