<svg xmlns="http://www.w3.org/2000/svg" viewBox="0 0 3251.14 3591.98"><defs><style>.cls-1,.cls-11,.cls-13{fill:none;}.cls-2{fill:#5d8749;}.cls-3{fill:#a07f75;}.cls-4{fill:#96766f;}.cls-5{fill:#4c2d20;}.cls-6{fill:#72554a;}.cls-7{fill:#dbdad9;}.cls-8{fill:#960c23;}.cls-9{fill:#ce2136;}.cls-10{fill:#b71833;}.cls-11{stroke:#070707;}.cls-11,.cls-13{stroke-miterlimit:10;}.cls-12{fill:#070707;}.cls-13{stroke:#000;}</style></defs><title>surf</title><g id="Layer_4" data-name="Layer 4"><rect class="cls-1" x="3.25" y="2875.86" width="648.64" height="718.1"/><path class="cls-2" d="M268.07,3237.31c-106.52,0-192.87,2.9-192.87,6.47,0,1.56,16.42,3,43.76,4.11h0c-4.66,17.56-27.45,19.45-27.45,19.45-.09.72-1.66,1.9,0,1.81,43.12-2.3,50-20.48,50-20.48h0c33.88,1,78.14,1.58,126.58,1.58,106.52,0,192.86-2.89,192.86-6.47S374.59,3237.31,268.07,3237.31Z"/><path class="cls-3" d="M197.46,2995.45s3,9.19-28.65,17.5l11.52,90s22.32,8.3,54,0c0,0,3-73.79,13.38-92.48,0,0-24.8,2.67-28.95-19.13h-21.8Z"/><path class="cls-3" d="M173.5,3013.13c-13.71-3.14-46,35.65-28.37,73.68C153.45,3104.8,197.51,3018.63,173.5,3013.13Z"/><path class="cls-4" d="M189.41,2957V2969s-7.79,4.41,0,9.34v8.31l17.91,11.68,20.24-12.2v-7.53s9.09-2.08,1.3-8.31v-19.72l-28.29-9.86Z"/><path class="cls-3" d="M296.79,3037.2c1.7-14.4-56-41.48-69.22-16.39C222.15,3031.14,293.88,3061.74,296.79,3037.2Z"/><path class="cls-3" d="M288.13,3046.66c11.93-1.17,39.92-69.12,20.06-78.1C300,2964.87,267.81,3048.65,288.13,3046.66Z"/><path class="cls-3" d="M182.16,3128.44c-11.21,4.08-49.52-39.87-32.88-55.63C156.13,3066.33,201.26,3121.49,182.16,3128.44Z"/><path class="cls-5" d="M189.41,2965.34s-10.12-3.63,0-21.54c0,0,1-9.86,23.88-7.53,0,0,13.24-4.41,14.27-9.08,0,0,.78,7.79-8,11.68,0,0,10.2-1.56,12.5-9.34,0,0,4.89,2.07-6.27,13.23,0,0,9.12-3.63,12.87-7.26s-6.6,12.71-6.6,12.71l-1.86,15.84-5.45-10.39s-20.25,10.9-26.47-6Z"/><path d="M189.09,2967.5c-.31-4.47,5.9-7.61,18.23-.6l3.57.06s14.79-7.72,18-1.36c.85,1.69.51,10.71-18.1,2.92l-3.44.13S189.73,2976.93,189.09,2967.5Z"/><path class="cls-6" d="M212.77,2976.16c0,.52-1.39,1-3.11,1s-3.12-.43-3.12-1,1.4-.43,3.12-.43S212.77,2975.63,212.77,2976.16Z"/><polygon class="cls-7" points="200.54 2983.36 203.05 2986.65 208.25 2986.78 200.54 2983.36"/><path class="cls-8" d="M196.76,3165.37c-.39-3.8-9.89-7.6-20-6.54s-19.14,5.85-18.75,9.66,9.26,2.62,19.38,1.55S197.16,3169.17,196.76,3165.37Z"/><path class="cls-8" d="M253.57,3157.62c-.65-3.77-10.37-6.93-20.4-5.2s-18.71,7.11-18.06,10.87,9.41,2,19.44.28S254.22,3161.39,253.57,3157.62Z"/><ellipse class="cls-6" cx="183.27" cy="3049.95" rx="2.68" ry="1.17"/><ellipse class="cls-6" cx="229.33" cy="3048.78" rx="2.68" ry="1.17"/><ellipse class="cls-6" cx="206.82" cy="3082.08" rx="0.93" ry="2.66"/><ellipse class="cls-3" cx="238.11" cy="3195.23" rx="11.14" ry="33.77" transform="translate(-332.45 42.35) rotate(-6)"/><ellipse class="cls-3" cx="183.08" cy="3199.57" rx="12.73" ry="34.35" transform="matrix(0.96, -0.27, 0.27, 0.96, -862.43, 170.1)"/><ellipse class="cls-3" cx="229.63" cy="3145.04" rx="15.48" ry="31.11" transform="translate(-1009.25 245.18) rotate(-18.96)"/><ellipse class="cls-3" cx="181.96" cy="3151.95" rx="30.69" ry="14.65" transform="translate(-2856.82 2295.4) rotate(-70.95)"/><path class="cls-9" d="M180.33,3102.91s13.67,8.13,54,0l19.19,53.81s-24.9-11.42-38.39,6.57l-6-23.53-12.33,25.61s-18.68-13.84-38.76,3.12C158,3168.49,179.11,3117.61,180.33,3102.91Z"/><path class="cls-10" d="M178.38,3111.91s36,6.59,58.91-1.15l-3-8.35s-28.42,7.71-54,0Z"/><line class="cls-11" x1="183.82" y1="3106.32" x2="182.72" y2="3110.62"/><line class="cls-11" x1="193.96" y1="3107.63" x2="193.29" y2="3112.02"/><line class="cls-11" x1="198.22" y1="3107.9" x2="198.22" y2="3112.34"/><line class="cls-11" x1="223.41" y1="3107.61" x2="223.88" y2="3112.03"/><line class="cls-11" x1="219.35" y1="3108.23" x2="219.81" y2="3112.65"/><line class="cls-11" x1="227.62" y1="3106.26" x2="228.08" y2="3110.68"/><line class="cls-11" x1="232.27" y1="3105.4" x2="232.73" y2="3109.82"/><line class="cls-11" x1="189.03" y1="3107.23" x2="188.36" y2="3111.63"/><ellipse class="cls-12" cx="205.41" cy="3110.83" rx="1.07" ry="1.4"/><ellipse class="cls-12" cx="213.06" cy="3110.44" rx="1.07" ry="1.4"/><path class="cls-12" d="M204.59,3127.56s-6-8.48,0-16.73l.82.45s-5.88,7.33-.43,15.57S204.59,3127.56,204.59,3127.56Z"/><path class="cls-12" d="M213.34,3124.91s5.41-7.5,0-14.79l-.73.39s5.32,6.48.38,13.77S213.34,3124.91,213.34,3124.91Z"/><path class="cls-3" d="M189.25,3227.11c-6.69,0-12.11,4.12-12.11,9.2h24.21C201.35,3231.23,195.93,3227.11,189.25,3227.11Z"/><rect class="cls-12" x="177.15" y="3234.76" width="24.2" height="3.11"/><path class="cls-13" d="M183.27,3228.32s9.64,3.32,10.35,6.44.7-5.31,4.6-4.6"/><path class="cls-3" d="M243.23,3226.07c6.69,0,12.11,4.12,12.11,9.21H231.13C231.13,3230.19,236.55,3226.07,243.23,3226.07Z"/><rect class="cls-12" x="231.13" y="3233.72" width="24.2" height="3.11"/><path class="cls-13" d="M249.21,3227.28s-9.64,3.32-10.35,6.44-.7-5.31-4.6-4.6"/><path class="cls-3" d="M301.72,2969.35l-4.14-8.47-.06-7.43,3.62.64,5.21,8.16.74-6.18c.15-1.36-1.29-5.44-2.27-6.48l-3-3.9-5.1,5.37-1.76-5.88,4.57-4.75,8.08,1.57,5.13,5.91,1.83,8.77.56,8.09v4.81l-2.56,2.82-6.78.59Z"/></g><g id="Layer_8" data-name="Layer 8"><rect class="cls-1" x="2597.7" y="2157.57" width="648.64" height="718.1"/><path class="cls-2" d="M2866.47,2520.77c-106.51,0-192.86,2.9-192.86,6.48,0,1.55,16.41,3,43.75,4.1h0c-4.66,17.57-27.44,19.45-27.44,19.45-.09.72-1.66,1.9,0,1.82,43.12-2.31,50-20.49,50-20.49h0c33.87,1,78.14,1.59,126.57,1.59,106.52,0,192.87-2.9,192.87-6.47S2973,2520.77,2866.47,2520.77Z"/><path class="cls-3" d="M3129.76,2772.65s-8.92-1.28-6.26,33.86c0,0-15.84,7.78-25,9.55-13.75,2.67-66.6,8.19-66.6,8.19s-15.53-20.29-18.19-55.43c0,0,27-3.29,42.8-10.69,2.38-1.11,6.37-8.59,14-12a77.72,77.72,0,0,0,27.89-20.31s5.78,26.3,28.2,23.67l7.35,22.38Z"/><path class="cls-4" d="M3170.24,2768.52l-12.25,4s-1.91,9.48-9.6,3.15l-8.53,2.8-18-14.45,5.7-24.9,33.86-14.89,21.87,27.3Z"/><path class="cls-5" d="M3160.23,2771.69s7.14,9.16,22.12-7.26c0,0,9.77-4.39-.32-27.06,0,0,.07-15.07,4.51-17.71,0,0-8.25,1.82-9.28,12.19,0,0-1.83-11,5.39-16,0,0-3.78-4.32-11.48,10.9,0,0,.65-10.59,3.12-15.66s-10.83,11.06-10.83,11.06l-15.63,7.24,12.5,2.1s-4.38,24.46,15,25.17Z"/><path d="M3156.32,2762.32c4.66-1.27,6.3-7.14-4-14.34l-1-2.75s4.15-14.07-3.18-14.39c-1.95-.09-11.12,3.21,1.61,15l.74,2.71S3146.47,2765,3156.32,2762.32Z"/><path class="cls-6" d="M3139.9,2747.61c-.54.18-.5,1.75.07,3.52s1.49,3,2,2.88,0-1.58-.6-3.35S3140.44,2747.43,3139.9,2747.61Z"/><path class="cls-8" d="M2956.72,2789.9c4-.87,11.14,7.6,13.46,18.35s.18,21.29-3.86,22.16-5.55-8.29-7.86-19S2952.68,2790.77,2956.72,2789.9Z"/><path class="cls-8" d="M2954.42,2748.67c4.08-.6,3.8,8.73,5.72,19.56,1.89,10.58,4.29,19.28-1.49,21.69-3.82,1.6-8.81-8.47-10.41-19.35S2950.33,2749.27,2954.42,2748.67Z"/><ellipse class="cls-6" cx="3079.46" cy="2787.15" rx="1.26" ry="2.9" transform="translate(-715.55 1099.2) rotate(-18.17)"/><ellipse class="cls-6" cx="3070.12" cy="2752.34" rx="1.26" ry="2.9" transform="translate(-705.16 1094.55) rotate(-18.17)"/><ellipse class="cls-3" cx="2909.54" cy="2766.82" rx="34.75" ry="12.04" transform="translate(-717.68 1045.2) rotate(-18.17)"/><ellipse class="cls-3" cx="2925.36" cy="2815.06" rx="32.97" ry="12.18" transform="translate(-1134.38 2787.5) rotate(-43.51)"/><ellipse class="cls-3" cx="2964.01" cy="2771.65" rx="16.72" ry="33.62" transform="translate(-751.94 4402.32) rotate(-66.77)"/><ellipse class="cls-3" cx="2968.31" cy="2809.76" rx="15.83" ry="33.16" transform="translate(-853.78 4257.96) rotate(-64.18)"/><path class="cls-9" d="M3032.14,2824.17s-13-11.29-17.43-55.33c0,0-11.32,1.31-17.74-.9-7.2-2.48-42-19.59-42-19.59s15.82,21.23,1.89,41.15l12.65,1.38-12.65-1.38s20.1,14.59,9.45,40.91C2966.32,2830.41,3001.13,2842,3032.14,2824.17Z"/><path class="cls-10" d="M3023,2827.36s-18.59-33.76-18.38-59.94l10.4.91s1.12,32,17.65,55.68Z"/><line class="cls-11" x1="3027.46" y1="2821.74" x2="3023.41" y2="2824.32"/><line class="cls-11" x1="3022.7" y1="2811.77" x2="3018.41" y2="2813.93"/><line class="cls-11" x1="3020.99" y1="2807.48" x2="3016.42" y2="2808.98"/><line class="cls-11" x1="3012.79" y1="2781.52" x2="3008.09" y2="2782.54"/><line class="cls-11" x1="3018.58" y1="2801.84" x2="3013.88" y2="2802.85"/><line class="cls-11" x1="3012.76" y1="2776.74" x2="3008.07" y2="2777.76"/><line class="cls-11" x1="3012.07" y1="2771.68" x2="3007.38" y2="2772.7"/><line class="cls-11" x1="3024.77" y1="2816.7" x2="3020.48" y2="2818.86"/><ellipse class="cls-12" cx="3014.38" cy="2794.55" rx="1.52" ry="1.16" transform="translate(-721.1 1079.27) rotate(-18.17)"/><ellipse class="cls-12" cx="3012.2" cy="2786.56" rx="1.52" ry="1.16" transform="translate(-718.72 1078.19) rotate(-18.17)"/><path class="cls-12" d="M2997.47,2801s10.72,3.27,17.18-5.64l-.73-.68s-5.55,8.5-15.84,5.68S2997.47,2801,2997.47,2801Z"/><path class="cls-12" d="M2997.25,2791.14s5.88-8.07,15.19-5l-.16.88s-8.45-3.27-14.27,4.25S2997.25,2791.14,2997.25,2791.14Z"/><path class="cls-3" d="M2902.14,2823.7c-5-5.18-12.3-6.28-16.24-2.46l18.21,18.77C2908.05,2836.19,2907.17,2828.89,2902.14,2823.7Z"/><rect class="cls-12" x="2893.32" y="2817.55" width="3.37" height="26.16" transform="matrix(0.72, -0.7, 0.7, 0.72, -1153.85, 2814.23)"/><path class="cls-13" d="M2906.18,2829.48s-9.83-5-12.78-3.19,3.59-4.53.11-7"/><path class="cls-3" d="M2879.14,2767.22c-2-6.94-7.94-11.31-13.21-9.77l7.32,25.11C2878.53,2781,2881.16,2774.15,2879.14,2767.22Z"/><rect class="cls-12" x="2867.91" y="2756.92" width="3.37" height="26.16" transform="translate(-660.7 914.06) rotate(-16.26)"/><path class="cls-13" d="M2881.06,2773.08s-7.18-8.36-10.59-7.84,5.05-2.81,2.78-6.45"/><path class="cls-3" d="M3069.69,2705.18c-6.47,8.1,19.17,52.64,36.76,43.44C3113.69,2744.83,3080.7,2691.38,3069.69,2705.18Z"/><path class="cls-3" d="M3074.16,2713.19c7.79-1.23,21.15-44.82,7.35-49.59C3075.83,2661.64,3060.88,2715.28,3074.16,2713.19Z"/><polygon class="cls-3" points="3079.07 2637.46 3087.63 2646.93 3087.84 2660.38 3082.88 2667.66 3077.8 2661.82 3080.52 2652.46 3075.96 2641.44 3079.07 2637.46"/><polygon class="cls-4" points="3109.43 2685.66 3116.37 2696.37 3114.43 2709.68 3108.37 2716.08 3104.29 2709.5 3108.47 2700.7 3105.73 2689.1 3109.43 2685.66"/><path class="cls-4" d="M3121.19,2807.85c-10.16,5.89-45.19-14-40.36-46.5C3083.12,2746,3139,2797.53,3121.19,2807.85Z"/><path class="cls-4" d="M3107.68,2710.24c-10.12-.75-37.14,48.27-20.87,58C3093.5,2772.3,3124.9,2711.53,3107.68,2710.24Z"/></g><g id="Layer_9" data-name="Layer 9"><rect class="cls-1" x="1949.57" y="2157.57" width="648.64" height="718.1"/><path class="cls-2" d="M2211.24,2521.56c-106.51,0-192.86,2.9-192.86,6.48,0,1.55,16.41,3,43.75,4.1h0c-4.66,17.57-27.44,19.45-27.44,19.45-.1.72-1.66,1.9,0,1.82,43.11-2.31,50-20.49,50-20.49h0c33.87,1,78.13,1.59,126.57,1.59,106.52,0,192.87-2.9,192.87-6.47S2317.76,2521.56,2211.24,2521.56Z"/><path class="cls-3" d="M2392.92,2450.52s-8.87,1.6,4.76,34.1c0,0-12.58,12.39-20.7,17-12.2,6.87-60.6,28.8-60.6,28.8s-21.15-14.35-34.77-46.85c0,0,24.53-11.63,37.23-23.65,1.91-1.81,3.33-10.17,9.48-15.81a77.79,77.79,0,0,0,20-28.08s13.79,23.13,34.24,13.55l14,18.92Z"/><path class="cls-4" d="M2430,2433.81l-10.36,7.68s1.18,9.6-8.11,6l-7.21,5.35-21.67-8-2.45-25.42,27.42-24.82,29.38,19Z"/><path class="cls-5" d="M2421.52,2440s9.67,6.45,18.7-13.87c0,0,7.88-7.25-8.85-25.57,0,0-4.7-14.32-1.31-18.23,0,0-7.26,4.34-5,14.5,0,0-5.21-9.85.06-16.86,0,0-4.95-2.91-7.45,14,0,0-2.72-10.26-2-15.84S2409,2392,2409,2392l-12.55,11.81,12.52-2s3.58,24.59,22.23,19.13Z"/><path d="M2414.85,2432.32c4-2.67,3.73-8.76-8.35-12.33l-1.78-2.3s-.51-14.66-7.57-12.66c-1.88.54-9.54,6.57,6.27,13.75l1.56,2.34S2406.35,2438,2414.85,2432.32Z"/><path class="cls-6" d="M2394.63,2423.55c-.45.34.08,1.83,1.18,3.32s2.38,2.43,2.83,2.09-.52-1.49-1.63-3S2395.09,2423.21,2394.63,2423.55Z"/><path class="cls-8" d="M2234.19,2521.54c3.56-2.1,13,3.69,18.56,13.16s6.9,20.15,3.35,22.25-7.89-6.12-13.48-15.59S2230.63,2523.64,2234.19,2521.54Z"/><path class="cls-8" d="M2219,2483.15c3.69-1.86,6.36,7.08,11.61,16.75,5.13,9.44,10.16,16.94,5.43,21.06-3.11,2.71-11-5.27-16-15.08S2215.29,2485,2219,2483.15Z"/><ellipse class="cls-6" cx="2349.78" cy="2480.16" rx="1.26" ry="2.9" transform="translate(-1015.22 1889.04) rotate(-36.58)"/><ellipse class="cls-6" cx="2329.92" cy="2450.08" rx="1.26" ry="2.9" transform="translate(-1001.21 1871.28) rotate(-36.58)"/><ellipse class="cls-3" cx="2182.13" cy="2514.55" rx="34.75" ry="12.04" transform="translate(-1068.75 1795.9) rotate(-36.58)"/><ellipse class="cls-3" cx="2212.38" cy="2555.31" rx="32.97" ry="12.18" transform="translate(-1083.47 3304.73) rotate(-61.92)"/><ellipse class="cls-3" cx="2235.34" cy="2501.92" rx="16.72" ry="33.62" transform="translate(-445.33 4519.44) rotate(-85.19)"/><ellipse class="cls-3" cx="2251.46" cy="2536.72" rx="15.83" ry="33.16" transform="translate(-554.31 4442.43) rotate(-82.59)"/><path class="cls-9" d="M2316.57,2530.23s-15.86-6.62-34-47c0,0-10.33,4.81-17.12,4.74-7.62-.07-46-5.33-46-5.33s21.72,15.15,14.8,38.45l12.43-2.69-12.43,2.69s23.67,7.5,21.89,35.84C2256.1,2557,2292.78,2557,2316.57,2530.23Z"/><path class="cls-10" d="M2308.89,2536.15s-28.3-26.16-36.38-51.07l10.16-2.42s11.18,30,34.33,47.26Z"/><line class="cls-11" x1="2311.36" y1="2529.4" x2="2308.34" y2="2533.13"/><line class="cls-11" x1="2303.7" y1="2521.45" x2="2300.31" y2="2524.85"/><line class="cls-11" x1="2300.72" y1="2517.92" x2="2296.86" y2="2520.78"/><line class="cls-11" x1="2284.74" y1="2495.88" x2="2280.61" y2="2498.32"/><line class="cls-11" x1="2296.65" y1="2513.33" x2="2292.52" y2="2515.77"/><line class="cls-11" x1="2283.2" y1="2491.36" x2="2279.07" y2="2493.8"/><line class="cls-11" x1="2280.95" y1="2486.77" x2="2276.82" y2="2489.21"/><line class="cls-11" x1="2307.22" y1="2525.47" x2="2303.83" y2="2528.88"/><ellipse class="cls-12" cx="2290.36" cy="2507.74" rx="1.52" ry="1.16" transform="translate(-1043.36 1859.06) rotate(-36.58)"/><ellipse class="cls-12" cx="2285.77" cy="2500.84" rx="1.52" ry="1.16" transform="translate(-1040.16 1854.97) rotate(-36.58)"/><path class="cls-12" d="M2276.37,2519.22s11.2-.28,14.52-10.78l-.91-.41s-2.58,9.81-13.24,10.39S2276.37,2519.22,2276.37,2519.22Z"/><path class="cls-12" d="M2273,2509.92s3-9.52,12.84-9.53l.13.89s-9.05-.43-12.19,8.54S2273,2509.92,2273,2509.92Z"/><path class="cls-3" d="M2192.08,2570.85c-6.41-3.33-13.65-2.08-16.19,2.8l23.21,12.06C2201.63,2580.84,2198.49,2574.18,2192.08,2570.85Z"/><rect class="cls-12" x="2185.81" y="2566.6" width="3.37" height="26.16" transform="translate(-1110.28 3331.03) rotate(-62.54)"/><path class="cls-13" d="M2197.74,2575.06s-10.9-1.62-13.14,1,2-5.44-2.11-6.71"/><path class="cls-3" d="M2153.42,2524.53c-4.11-5.94-11.11-8.23-15.62-5.1l14.88,21.51C2157.19,2537.81,2157.52,2530.47,2153.42,2524.53Z"/><rect class="cls-12" x="2143.55" y="2517.1" width="3.37" height="26.16" transform="translate(-1058.4 1669.61) rotate(-34.67)"/><path class="cls-13" d="M2157.09,2529.49s-9.45-5.67-12.53-4.1,3.91-4.26.61-7"/><path class="cls-7" d="M2397.08,2438.18c1.93,2.6,2.12,5.74.41,7l-7-9.44C2392.19,2434.48,2395.14,2435.57,2397.08,2438.18Z"/><path class="cls-3" d="M2314.61,2405.47c-3.58,9.73,34.82,43.89,48.61,29.6C2368.89,2429.2,2320.7,2388.9,2314.61,2405.47Z"/><path class="cls-3" d="M2321.38,2411.66c7-3.63,5.91-49.2-8.69-49.37C2306.68,2362.22,2309.44,2417.84,2321.38,2411.66Z"/><polygon class="cls-3" points="2302.12 2338.26 2313.24 2344.54 2317.68 2357.24 2315.27 2365.71 2308.61 2361.77 2308.24 2352.03 2300.43 2343.02 2302.12 2338.26"/><polygon class="cls-4" points="2346.15 2374.4 2356.12 2382.37 2358.49 2395.61 2354.75 2403.59 2348.8 2398.64 2349.99 2388.97 2343.72 2378.83 2346.15 2374.4"/><path class="cls-4" d="M2395.9,2486.62c-7.77,8.8-47.31.94-53-31.37C2340.25,2440,2409.52,2471.2,2395.9,2486.62Z"/><path class="cls-4" d="M2352.25,2398.28c-9.83,2.47-20,57.52-1.46,61.65C2358.41,2461.63,2369,2394.06,2352.25,2398.28Z"/></g><g id="Layer_10" data-name="Layer 10"><rect class="cls-1" x="1300.93" y="2157.57" width="648.64" height="718.1"/><path class="cls-2" d="M1564.27,2525.49c-106.51,0-192.86,2.9-192.86,6.47,0,1.56,16.41,3,43.75,4.11h0c-4.66,17.56-27.44,19.45-27.44,19.45-.1.72-1.66,1.9,0,1.81,43.11-2.3,50-20.48,50-20.48h0c33.87,1,78.13,1.58,126.57,1.58,106.52,0,192.87-2.89,192.87-6.47S1670.79,2525.49,1564.27,2525.49Z"/><path class="cls-3" d="M1704.42,2381.77s-8.86,1.6,4.76,34.1c0,0-12.57,12.39-20.69,17-12.21,6.87-60.61,28.8-60.61,28.8s-21.14-14.34-34.77-46.84c0,0,24.53-11.64,37.24-23.66,1.9-1.81,3.32-10.17,9.47-15.81a77.79,77.79,0,0,0,20-28.08s13.8,23.14,34.24,13.55l14,18.92Z"/><path class="cls-4" d="M1741.53,2365.06l-10.36,7.69s1.18,9.59-8.11,6l-7.21,5.35-21.66-8-2.46-25.43,27.43-24.82,29.37,19Z"/><path class="cls-5" d="M1733,2371.23s9.68,6.44,18.7-13.88c0,0,7.89-7.25-8.85-25.56,0,0-4.7-14.33-1.31-18.24,0,0-7.26,4.34-5,14.5,0,0-5.22-9.85.06-16.86,0,0-5-2.91-7.45,14,0,0-2.73-10.25-2-15.84s-6.79,13.92-6.79,13.92l-12.54,11.8,12.52-2s3.58,24.58,22.23,19.12Z"/><path d="M1726.35,2363.58c4-2.68,3.73-8.77-8.35-12.34l-1.78-2.3s-.51-14.66-7.57-12.65c-1.87.53-9.54,6.56,6.27,13.74l1.56,2.34S1717.86,2369.22,1726.35,2363.58Z"/><path class="cls-6" d="M1706.14,2354.8c-.46.34.07,1.83,1.18,3.32s2.37,2.43,2.83,2.09-.53-1.49-1.63-3S1706.59,2354.47,1706.14,2354.8Z"/><path class="cls-8" d="M1558.39,2460.8c3.55-2.11,13,3.69,18.56,13.15s7.77,15.6,4.22,17.7-8.76-1.56-14.36-11S1554.83,2462.9,1558.39,2460.8Z"/><path class="cls-8" d="M1532.65,2425.9c3.68-1.86,12.4,4.69,17.65,14.36,5.13,9.44,10.16,16.94,5.43,21.06-3.11,2.71-11-5.26-16-15.08S1529,2427.76,1532.65,2425.9Z"/><ellipse class="cls-6" cx="1661.28" cy="2411.41" rx="1.26" ry="2.9" transform="translate(-1109.88 1465.16) rotate(-36.58)"/><ellipse class="cls-6" cx="1641.42" cy="2381.33" rx="1.26" ry="2.9" transform="translate(-1095.87 1447.4) rotate(-36.58)"/><ellipse class="cls-3" cx="1517.85" cy="2468.39" rx="34.75" ry="12.04" transform="translate(-1376.46 2327.68) rotate(-55.63)"/><ellipse class="cls-3" cx="1534.26" cy="2502.71" rx="32.97" ry="12.18" transform="translate(-1396.03 2678.56) rotate(-61.92)"/><ellipse class="cls-3" cx="1557.76" cy="2443.13" rx="33.62" ry="16.72" transform="translate(-570.84 477.28) rotate(-14.75)"/><ellipse class="cls-3" cx="1574.19" cy="2473.06" rx="33.16" ry="15.83" transform="translate(-396.06 302.3) rotate(-9.75)"/><path class="cls-9" d="M1628.08,2461.49s-15.86-6.63-34-47l-61,11.17s29.63,12.35,22.71,35.65l3.54-1.26-1.18.94s24.86,2.32,23.08,30.65C1581.17,2491.65,1616.09,2472,1628.08,2461.49Z"/><path class="cls-10" d="M1620.39,2467.41s-28.3-26.16-36.38-51.07l10.17-2.42s11.17,30,34.33,47.25Z"/><line class="cls-11" x1="1622.87" y1="2460.65" x2="1619.84" y2="2464.38"/><line class="cls-11" x1="1615.2" y1="2452.7" x2="1611.82" y2="2456.11"/><line class="cls-11" x1="1612.22" y1="2449.17" x2="1608.36" y2="2452.03"/><line class="cls-11" x1="1596.24" y1="2427.13" x2="1592.11" y2="2429.58"/><line class="cls-11" x1="1608.15" y1="2444.58" x2="1604.02" y2="2447.02"/><line class="cls-11" x1="1594.71" y1="2422.61" x2="1590.57" y2="2425.05"/><line class="cls-11" x1="1592.46" y1="2418.02" x2="1588.32" y2="2420.47"/><line class="cls-11" x1="1618.72" y1="2456.72" x2="1615.33" y2="2460.13"/><ellipse class="cls-12" cx="1601.87" cy="2438.99" rx="1.52" ry="1.16" transform="translate(-1138.03 1435.18) rotate(-36.58)"/><ellipse class="cls-12" cx="1597.28" cy="2432.1" rx="1.52" ry="1.16" transform="translate(-1134.82 1431.09) rotate(-36.58)"/><path class="cls-12" d="M1587.87,2450.47s11.2-.28,14.52-10.77l-.91-.42s-2.58,9.82-13.24,10.39S1587.87,2450.47,1587.87,2450.47Z"/><path class="cls-12" d="M1584.53,2441.17s3-9.52,12.84-9.53l.13.89s-9-.43-12.19,8.54S1584.53,2441.17,1584.53,2441.17Z"/><path class="cls-3" d="M1521.29,2524.3c-4.3-5.8-11.37-7.85-15.78-4.58l15.59,21C1525.51,2537.45,1525.6,2530.1,1521.29,2524.3Z"/><rect class="cls-12" x="1511.62" y="2517.15" width="3.37" height="26.16" transform="translate(-1209.85 1400.38) rotate(-36.58)"/><path class="cls-13" d="M1524.54,2530.55s-9.09-6.22-12.25-4.84,4.15-4,1-6.95"/><path class="cls-3" d="M1500.84,2489.31c-4.26-5.84-11.3-7.94-15.74-4.71l15.41,21.14C1505,2502.5,1505.09,2495.15,1500.84,2489.31Z"/><rect class="cls-12" x="1491.12" y="2482.09" width="3.37" height="26.16" transform="translate(-1183.44 1358.48) rotate(-36.1)"/><path class="cls-13" d="M1504.63,2494.18s-9.59-5.43-12.62-3.78,3.8-4.36.43-7"/><path class="cls-7" d="M1708.58,2369.43c1.94,2.6,2.12,5.74.42,7l-7-9.44C1703.7,2365.73,1706.65,2366.82,1708.58,2369.43Z"/><path class="cls-3" d="M1626.11,2336.72c-3.58,9.73,34.82,43.89,48.61,29.6C1680.39,2360.45,1632.2,2320.16,1626.11,2336.72Z"/><path class="cls-3" d="M1632.88,2342.91c7-3.63,5.91-49.2-8.69-49.37C1618.19,2293.47,1621,2349.09,1632.88,2342.91Z"/><polygon class="cls-3" points="1613.62 2269.51 1624.74 2275.79 1629.18 2288.49 1626.77 2296.96 1620.11 2293.02 1619.74 2283.28 1611.93 2274.27 1613.62 2269.51"/><polygon class="cls-4" points="1628.57 2319.03 1639.69 2325.31 1644.13 2338.01 1641.72 2346.48 1635.06 2342.54 1634.69 2332.8 1626.88 2323.79 1628.57 2319.03"/><path class="cls-4" d="M1707.41,2417.87c-7.78,8.8-47.32,1-53-31.37C1651.75,2371.21,1721,2402.46,1707.41,2417.87Z"/><path class="cls-4" d="M1637,2339.7c-7.19,7.15,12.25,59.65,30.28,53.72C1674.73,2391,1649.27,2327.51,1637,2339.7Z"/></g><g id="Layer_12" data-name="Layer 12"><rect class="cls-1" x="652.09" y="2157.46" width="648.64" height="718.1"/><path class="cls-2" d="M915.93,2522.64c-106.51,0-192.86,2.9-192.86,6.47,0,1.56,16.41,3,43.75,4.11h0c-4.66,17.56-27.44,19.45-27.44,19.45-.09.72-1.66,1.9,0,1.81,43.12-2.3,50-20.48,50-20.48h0c33.87,1,78.14,1.58,126.57,1.58,106.52,0,192.87-2.89,192.87-6.47S1022.45,2522.64,915.93,2522.64Z"/><path class="cls-3" d="M862.91,2512.59c-14.48-11.81-31.19-25.57-26.33-31.16s29.45-.88,43.93,10.92,22.27,25.91,17.41,31.5S877.39,2524.39,862.91,2512.59Z"/><path class="cls-3" d="M966.15,2327.6s-3.12,12.51-35.82-.61l-42.85,78.38s14.67,20.92,47.38,34c0,0,46.32-58.93,66.5-67.79,0,0-23.34-13.43-14.08-34l-19.13-13.75Z"/><path class="cls-4" d="M982.29,2290.24l-7.53,10.48s-9.62-1-5.89,8.2l-5.24,7.29,8.35,21.54,25.46,2.06,4.74-6.61s9.29,3.91,6.38-6.47l12.44-17.31-18.61-26.49Z"/><path class="cls-5" d="M977.05,2297.53s-6.59-9.57,13.58-18.91c0,0,7.13-8,25.7,8.46,0,0,14.4,4.47,18.26,1,0,0-4.23,7.33-14.43,5.18,0,0,9.94,5.07,16.86-.32,0,0,3,4.91-13.85,7.67,0,0,10.3,2.56,15.88,1.73s-13.81,7-13.81,7l-11.61,12.72,1.76-12.54s-24.64-3.2-19.47-21.93Z"/><path d="M982.63,2304.41c2.6-4.08,8.91-3.72,13.09,8.6l2.45,1.84s15.17.64,13.38,7.81c-.47,1.91-6.4,9.65-14.46-6.5l-2.48-1.61S977.14,2313,982.63,2304.41Z"/><path class="cls-6" d="M995.92,2325.9c-.33.46-1.82,0-3.33-1.13s-2.47-2.33-2.14-2.8,1.5.5,3,1.59S996.25,2325.44,995.92,2325.9Z"/><path class="cls-8" d="M916.76,2500c2.16-4.2-4.08-13.51-14.12-18.09s-21.55-4.63-23.7-.43,6.8,7.94,16.84,12.52S914.61,2504.22,916.76,2500Z"/><ellipse class="cls-6" cx="923.59" cy="2360.55" rx="1.26" ry="2.9" transform="translate(-1532.36 1733.24) rotate(-54.3)"/><ellipse class="cls-6" cx="964.75" cy="2388.57" rx="1.26" ry="2.9" transform="translate(-1537.97 1778.34) rotate(-54.3)"/><ellipse class="cls-3" cx="818.79" cy="2432.12" rx="28.39" ry="11.04" transform="translate(-1679.51 1845.49) rotate(-58.18)"/><ellipse class="cls-3" cx="903.16" cy="2483.06" rx="43.04" ry="16.98" transform="translate(-1736.53 2598.44) rotate(-72.51)"/><path class="cls-3" d="M863.83,2404.64c17.7,5.47,29.46,16.48,26.26,24.61s-19.49,12-37.19,6.56-30.09-18.24-26.89-26.36S846.14,2399.17,863.83,2404.64Z"/><path class="cls-9" d="M892.13,2398.8s6.1,16.8,47.33,34l-22.11,66.26s-13.56-27.18-38.41-17.56L890.69,2454l-20.78-8.81s1.52-36.33-13.93-43.1c0,0,7.32.4,20,2.34C880.41,2405.14,886,2401.9,892.13,2398.8Z"/><path class="cls-10" d="M883.42,2402.49s14.59,25.49,53,40.1l3.44-10.29s-30.49-10.14-47.33-34Z"/><line class="cls-11" x1="892.12" y1="2401.67" x2="887.78" y2="2404.99"/><line class="cls-11" x1="899.47" y1="2409.94" x2="895.42" y2="2413.66"/><line class="cls-11" x1="902.78" y1="2413.16" x2="899.24" y2="2417.38"/><line class="cls-11" x1="924.44" y1="2429.52" x2="921.31" y2="2434.04"/><line class="cls-11" x1="920.59" y1="2427.28" x2="917.45" y2="2431.8"/><line class="cls-11" x1="929" y1="2431.15" x2="925.87" y2="2435.67"/><line class="cls-11" x1="933.53" y1="2433.56" x2="930.39" y2="2438.08"/><line class="cls-11" x1="895.7" y1="2406.15" x2="891.65" y2="2409.86"/><ellipse class="cls-12" cx="906.38" cy="2420.93" rx="1.74" ry="1.16" transform="translate(-1531.1 1560.05) rotate(-50.02)"/><ellipse class="cls-12" cx="913.03" cy="2425.87" rx="1.74" ry="1.16" transform="translate(-1532.51 1566.91) rotate(-50.02)"/><path class="cls-12" d="M892.63,2436.45s1.82-12.2,13.33-15.89l.31,1s-10.69,2.89-12.75,14.5S892.63,2436.45,892.63,2436.45Z"/><path class="cls-12" d="M902,2440s10.44-3.38,11.78-14.05l-.92-.14a16.26,16.26,0,0,1-10.65,13.35C892.31,2442.66,902,2440,902,2440Z"/><path class="cls-3" d="M805,2452.84c-5.86-4.22-13.22-4-16.42.44l21.24,15.26C813,2464.08,810.87,2457.05,805,2452.84Z"/><rect class="cls-12" x="797.52" y="2447.84" width="3.37" height="26.16" transform="translate(-1665.68 1674.02) rotate(-54.3)"/><path class="cls-13" d="M810,2457.81s-10.56-3.17-13.15-.89,2.74-5.09-1.13-6.93"/><path class="cls-7" d="M978.43,2323.25c-2.64-1.89-5.78-2-7-.3l9.54,6.86C982.19,2328.08,981.06,2325.15,978.43,2323.25Z"/><path class="cls-3" d="M938.81,2337.07c-2.07,12.37-42.34,27.61-65.75,1.52C862,2326.25,942.44,2315.4,938.81,2337.07Z"/><path class="cls-3" d="M828.94,2306.78c-2.46,10.55,44.84,47.14,57.83,31.57C892.12,2332,833.14,2288.81,828.94,2306.78Z"/><path class="cls-3" d="M840.44,2489.16c1.7-7-1.25-13.76-6.59-15l-6.15,25.42C833,2500.82,838.74,2496.18,840.44,2489.16Z"/><rect class="cls-12" x="817.7" y="2485.14" width="26.16" height="3.37" transform="translate(-1781.66 2709.65) rotate(-76.4)"/><path class="cls-13" d="M837.72,2495.66s-1-11-4.13-12.51,5.75.62,6-3.66"/><path class="cls-4" d="M1005.48,2378.07c-2,12.39-42.21,27.82-65.75,1.85C928.6,2367.63,1009,2356.38,1005.48,2378.07Z"/><path class="cls-4" d="M896.06,2349.66c-2.41,10.56,45.07,46.92,58,31.29C959.35,2374.52,900.17,2331.67,896.06,2349.66Z"/><polygon class="cls-4" points="906.52 2351.99 907.07 2341.54 895.59 2331.44 880.9 2326.2 883.61 2334.17 891.05 2341.48 899.48 2353.63 906.52 2351.99"/><polygon class="cls-3" points="834.79 2310.14 835.34 2299.68 823.86 2289.59 809.17 2284.35 811.88 2292.31 819.32 2299.63 827.75 2311.77 834.79 2310.14"/></g><g id="Layer_11" data-name="Layer 11"><rect class="cls-1" x="3.25" y="2157.77" width="648.64" height="718.1"/><path class="cls-2" d="M267.1,2522c-106.52,0-192.86,2.9-192.86,6.47,0,1.56,16.41,3,43.75,4.11h0c-4.66,17.56-27.45,19.45-27.45,19.45-.09.72-1.66,1.9,0,1.81,43.12-2.3,50-20.48,50-20.48h0c33.88,1,78.14,1.58,126.58,1.58,106.52,0,192.86-2.89,192.86-6.47S373.62,2522,267.1,2522Z"/><path class="cls-3" d="M266.32,2288.69s-.29,12.88-35.08,7.25l-24.61,85.88s18.91,17.19,53.69,22.81c0,0,32.27-67.65,50-80.72,0,0-25.73-8-21.2-30.11l-21.68-9.21Z"/><path class="cls-4" d="M239.54,2294.86c-11.28-3.3-40.54,24.41-28.11,54.78C217.31,2364,259.28,2300.64,239.54,2294.86Z"/><path class="cls-4" d="M273.87,2248.69l-5,11.88s-9.61,1.1-3.95,9.29l-3.51,8.26,12.87,19.19,25.29-3.58,3.18-7.49s9.91,1.78,4.8-7.71l8.34-19.61-24-21.77Z"/><path class="cls-4" d="M219.35,2398.74c-9.89-2.23-21.43-57-3-61.6C223.91,2335.25,236.2,2402.53,219.35,2398.74Z"/><path class="cls-5" d="M270.36,2257s-8.53-7.89,9.11-21.42c0,0,5.2-9.37,26.93,2.61,0,0,15,1.2,18-3,0,0-2.51,8.07-12.94,8.21,0,0,10.81,2.76,16.38-4,0,0,4,4.13-11.83,10.52,0,0,10.61.24,15.87-1.79s-11.94,9.85-11.94,9.85l-8.53,15-1-12.63s-24.74,2.28-23.8-17.13Z"/><path d="M275.8,2261.79c1.63-4.55,8.1-5.48,15.34,5.82l2.94,1.32s15.5-2.47,15.45,5c0,2-4.11,10.83-16.22-3.46l-2.91-1.08S272.35,2271.4,275.8,2261.79Z"/><path class="cls-6" d="M292.14,2280.7c-.22.52-1.79.35-3.5-.37s-2.92-1.74-2.7-2.27,1.57.16,3.28.89S292.36,2280.17,292.14,2280.7Z"/><path class="cls-8" d="M196.68,2450.66c1.21-3.95-6.63-11.74-17.15-15s-21.51-2.27-22.72,1.68,8.1,6.52,18.62,9.74S195.47,2454.61,196.68,2450.66Z"/><path class="cls-8" d="M256.45,2467c.95-4-7.39-11.28-18.1-13.8s-21.61-.84-22.56,3.18,8.52,6,19.22,8.48S255.5,2471,256.45,2467Z"/><ellipse class="cls-6" cx="278.34" cy="2348.48" rx="1.26" ry="2.9" transform="translate(-1991.92 1686.11) rotate(-66.98)"/><ellipse class="cls-6" cx="245.43" cy="2333.81" rx="1.26" ry="2.9" transform="translate(-1998.46 1646.89) rotate(-66.98)"/><ellipse class="cls-3" cx="225.86" cy="2490.37" rx="34.75" ry="12.04" transform="translate(-1774.14 989.39) rotate(-47.93)"/><ellipse class="cls-3" cx="166.64" cy="2465.49" rx="32.97" ry="12.18" transform="translate(-2217.11 1814.21) rotate(-70.85)"/><ellipse class="cls-3" cx="241.06" cy="2445.65" rx="33.62" ry="16.72" transform="translate(-2209.09 2635.61) rotate(-88.8)"/><ellipse class="cls-3" cx="187.63" cy="2431.06" rx="33.16" ry="15.83" transform="translate(-1742.73 941.44) rotate(-47.93)"/><path class="cls-9" d="M206.73,2381.59s10.16,13.87,53.69,22.82L256.76,2466s-19.94-21.88-41-9.69l4-25.95-23.08,20.26s-12.74-21.66-39.87-13.28C156.81,2437.38,199.31,2395.71,206.73,2381.59Z"/><path class="cls-10" d="M201,2389.73s33,21.74,59.08,23.75l.57-9.56s-31.52-4.35-53.69-22.82Z"/><line class="cls-11" x1="208.76" y1="2386.46" x2="205.84" y2="2390.28"/><line class="cls-11" x1="218.29" y1="2392.05" x2="215.77" y2="2396.14"/><line class="cls-11" x1="222.42" y1="2394.12" x2="220.54" y2="2398.54"/><line class="cls-11" x1="247.59" y1="2404.48" x2="246.18" y2="2409.08"/><line class="cls-11" x1="243.28" y1="2403.38" x2="241.88" y2="2407.97"/><line class="cls-11" x1="252.35" y1="2404.92" x2="250.94" y2="2409.51"/><line class="cls-11" x1="257.33" y1="2406.03" x2="255.93" y2="2410.62"/><line class="cls-11" x1="213.55" y1="2389.57" x2="211.03" y2="2393.66"/><ellipse class="cls-12" cx="228.32" cy="2400.07" rx="1.52" ry="1.16" transform="translate(-2069.86 1671.49) rotate(-66.98)"/><ellipse class="cls-12" cx="236.1" cy="2402.92" rx="1.52" ry="1.16" transform="translate(-2067.74 1680.38) rotate(-66.98)"/><path class="cls-12" d="M220.44,2416.37s-2.35-11,7.07-16.64l.62.79s-8.94,4.81-7,15.31S220.44,2416.37,220.44,2416.37Z"/><path class="cls-12" d="M230.26,2417.43s8.55-5.17,6.26-14.71l-.9.08s2.55,8.69-5.44,13.86S230.26,2417.43,230.26,2417.43Z"/><path class="cls-3" d="M156.27,2495.15c6.65,2.83,10.29,9.22,8.14,14.27l-24.07-10.23C142.49,2494.14,149.62,2492.33,156.27,2495.15Z"/><rect class="cls-12" x="150.7" y="2491.23" width="3.37" height="26.16" transform="translate(-2212.03 1665.06) rotate(-66.98)"/><path class="cls-13" d="M149.43,2493.46s8.18,7.38,7.58,10.78,2.93-5,6.51-2.63"/><path class="cls-3" d="M207.44,2511.36c7.22.21,12.95,4.82,12.8,10.31l-26.15-.73C194.25,2515.45,200.22,2511.16,207.44,2511.36Z"/><rect class="cls-12" x="205.48" y="2508.23" width="3.37" height="26.16" transform="translate(-2318.94 2658) rotate(-88.4)"/><path class="cls-13" d="M215,2512.88s-10.51,3.3-11.38,6.64-.59-5.75-4.83-5.11"/><path class="cls-7" d="M277.35,2281.75c-3-1.27-6.08-.72-6.92,1.24l10.82,4.6C282.08,2285.63,280.34,2283,277.35,2281.75Z"/><path class="cls-3" d="M321.87,2380c11.88-6.67.49-65.36-25.84-61.48C285.19,2320.15,301.65,2391.38,321.87,2380Z"/><path class="cls-3" d="M315.08,2366.49c-9.6,4.47-10.7,65.57,8.85,66.62C332,2433.54,331.42,2358.88,315.08,2366.49Z"/><polygon class="cls-3" points="333.28 2461.67 338.94 2445.51 332.2 2428.78 322.28 2422.37 319.04 2432.23 327.28 2442.38 327.37 2458.36 333.28 2461.67"/><polygon class="cls-4" points="217.25 2390.75 227.64 2392.07 235.53 2405.16 238.08 2420.55 230.72 2416.46 224.85 2407.84 214.39 2397.39 217.25 2390.75"/></g><g id="Layer_5" data-name="Layer 5"><rect class="cls-1" x="1300.73" y="1439.48" width="648.64" height="718.1"/><ellipse class="cls-3" cx="1528.11" cy="1791" rx="13.96" ry="12.7" transform="translate(-623.43 835.13) rotate(-25.57)"/><ellipse class="cls-3" cx="1569.27" cy="1791.93" rx="12.7" ry="15.94" transform="translate(-619.8 852.99) rotate(-25.57)"/><path class="cls-3" d="M1539.09,1654.28s3,7.76-28.57,14.77L1522,1745s22.26,7,53.84,0c0,0,3-62.29,13.35-78.07,0,0-24.74,2.26-28.88-16.15h-21.75Z"/><path class="cls-3" d="M1516,1668.47c-12.11-3.29-40.58,37.28-25,77.06C1498.3,1764.34,1537.21,1674.22,1516,1668.47Z"/><path class="cls-4" d="M1531.07,1620.13V1632s-7.77,4.4,0,9.32v8.28l17.86,11.65,20.19-12.16v-7.51s9.06-2.07,1.3-8.28v-19.68l-28.22-9.84Z"/><path class="cls-3" d="M1608.23,1738.13c13.78-7.26,2.63-75-27.58-71.39C1568.22,1668.22,1584.76,1750.49,1608.23,1738.13Z"/><path class="cls-5" d="M1531.07,1628.42s-10.1-3.63,0-21.49c0,0,1-9.84,23.81-7.51,0,0,13.21-4.4,14.24-9.06,0,0,.78,7.77-8,11.65,0,0,10.17-1.55,12.46-9.32,0,0,4.88,2.07-6.25,13.2,0,0,9.1-3.62,12.83-7.24s-6.58,12.68-6.58,12.68l-1.85,15.79-5.44-10.35s-20.19,10.87-26.4-6Z"/><path class="cls-8" d="M1539.25,1798.34c-.4-3.79-9.38-10.92-19.47-9.86s-18.83,5.59-18.43,9.38,6.47,1.48,16.57.42S1539.65,1802.13,1539.25,1798.34Z"/><path d="M1530.74,1630.56c-.3-4.45,5.89-7.58,18.19-.59l3.56.06s14.75-7.7,17.93-1.36c.84,1.69.5,10.68-18.06,2.92l-3.43.13S1531.39,1640,1530.74,1630.56Z"/><path class="cls-6" d="M1554.37,1639.2c0,.53-1.4,1-3.11,1s-3.11-.42-3.11-1,1.39-.43,3.11-.43S1554.37,1638.68,1554.37,1639.2Z"/><path class="cls-8" d="M1595.06,1790c-.64-3.76-10.34-6.92-20.35-5.19s-18.66,7.09-18,10.84,9.38,2,19.39.27S1595.71,1793.73,1595.06,1790Z"/><ellipse class="cls-6" cx="1530.73" cy="1703" rx="2.68" ry="1.16"/><ellipse class="cls-6" cx="1567.2" cy="1702.87" rx="2.68" ry="1.16"/><ellipse class="cls-3" cx="1571.18" cy="1780.53" rx="15.44" ry="31.03" transform="translate(-549.4 711.88) rotate(-21.83)"/><ellipse class="cls-3" cx="1524.84" cy="1781.63" rx="30.61" ry="15.87" transform="translate(-656.85 2641.6) rotate(-70.95)"/><path class="cls-9" d="M1522,1745.12s13.63,6.86,53.84,0l19.21,46.14s-19.18-4.79-38.36,4.78l-5.83-19.69-11.66,22.55s-18.72-13.69-38.83-2.22C1500.38,1796.68,1518.46,1757.51,1522,1745.12Z"/><path class="cls-10" d="M1519.37,1752.73s36.55,5.54,59.45-1l-3-7s-28.34,6.5-53.84,0Z"/><line class="cls-11" x1="1525.49" y1="1748" x2="1524.39" y2="1751.63"/><line class="cls-11" x1="1535.6" y1="1749.1" x2="1534.94" y2="1752.81"/><line class="cls-11" x1="1539.86" y1="1749.33" x2="1539.86" y2="1753.08"/><line class="cls-11" x1="1564.98" y1="1749.09" x2="1565.44" y2="1752.82"/><line class="cls-11" x1="1560.93" y1="1749.61" x2="1561.39" y2="1753.34"/><line class="cls-11" x1="1569.18" y1="1747.95" x2="1569.64" y2="1751.68"/><line class="cls-11" x1="1573.82" y1="1747.23" x2="1574.28" y2="1750.96"/><line class="cls-11" x1="1530.68" y1="1748.77" x2="1530.02" y2="1752.48"/><ellipse class="cls-12" cx="1547.02" cy="1751.81" rx="1.07" ry="1.18"/><ellipse class="cls-12" cx="1554.66" cy="1751.48" rx="1.07" ry="1.18"/><path class="cls-12" d="M1546.21,1765.91s-6-7.15,0-14.1l.81.37s-5.86,6.18-.42,13.13S1546.21,1765.91,1546.21,1765.91Z"/><path class="cls-12" d="M1554.94,1763.68s5.39-6.32,0-12.47l-.73.33s5.3,5.46.38,11.61S1554.94,1763.68,1554.94,1763.68Z"/><polygon class="cls-3" points="1558.19 1785.91 1569.92 1775.47 1586.28 1775.42 1595.01 1781.67 1587.77 1787.86 1576.46 1784.34 1562.96 1789.81 1558.19 1785.91"/><polygon class="cls-4" points="1476.11 1802.27 1487.87 1794.1 1505.06 1794.94 1514.57 1800.69 1507.3 1805.52 1495.22 1801.94 1481.33 1805.81 1476.11 1802.27"/><path class="cls-3" d="M1584.37,1784.54c11,2.1,37.74-43,19.54-54.85C1596.42,1724.81,1565.59,1781,1584.37,1784.54Z"/><path class="cls-3" d="M1497.93,1797.46c-11.87-2.15-25.71-63.61-3.62-69.5C1503.4,1725.54,1518.14,1801.11,1497.93,1797.46Z"/><path class="cls-7" d="M1547.45,1646.93c-3.24,0-5.88,1.72-5.88,3.84h11.76C1553.33,1648.65,1550.7,1646.93,1547.45,1646.93Z"/><path class="cls-2" d="M1564.52,1804.63c-106.51,0-192.86,2.9-192.86,6.47,0,1.56,16.41,3,43.75,4.1h0c-4.66,17.57-27.44,19.46-27.44,19.46-.1.72-1.66,1.9,0,1.81,43.11-2.3,50-20.49,50-20.49h0c33.87,1,78.13,1.59,126.57,1.59,106.52,0,192.87-2.9,192.87-6.47S1671,1804.63,1564.52,1804.63Z"/></g><g id="Layer_6" data-name="Layer 6"><rect class="cls-1" x="652.09" y="1439.48" width="648.64" height="718.1"/><path class="cls-3" d="M884.15,1809c-11.09-.61-23.94-1.42-23.32-8.8s14.47-18.53,25.56-17.92,19.59,7.09,19,14.46S895.24,1809.58,884.15,1809Z"/><path class="cls-3" d="M846.25,1597.53s4.77,12-29.45,20.4l10.94,88.66s24.12,8.43,58.34,0c0,0,3.24-74.89,14.46-93.86,0,0-26.8,2.71-31.29-19.41H845.69Z"/><path class="cls-3" d="M820.61,1617.44c-12.28-2.58-41.16,29.36-25.41,60.67C802.65,1692.92,842.12,1622,820.61,1617.44Z"/><path class="cls-4" d="M837.56,1557.77v12.91s-8.41,4.76,0,10.09v9l19.35,12.62,21.88-13.18v-8.14s9.81-2.24,1.4-9v-21.32l-30.57-10.66Z"/><path class="cls-3" d="M807.69,1729.76c-10.72-1.56-27.53-59-8.29-65.37C807.31,1661.76,826,1732.4,807.69,1729.76Z"/><path class="cls-5" d="M837.56,1566.75s-10.94-3.93,0-23.28c0,0,1.12-10.66,25.8-8.13,0,0,14.31-4.77,15.43-9.82,0,0,.84,8.41-8.7,12.62,0,0,11-1.68,13.51-10.1,0,0,5.29,2.25-6.77,14.31,0,0,9.86-3.93,13.9-7.86s-7.13,13.75-7.13,13.75l-2,17.11-5.89-11.22s-21.87,11.78-28.6-6.45Z"/><path d="M837.21,1569.08c-.33-4.84,6.38-8.22,19.7-.65l3.86.06s16-8.33,19.42-1.47c.91,1.83.55,11.58-19.56,3.16l-3.72.14S837.91,1579.27,837.21,1569.08Z"/><path class="cls-6" d="M862.8,1578.43c0,.57-1.51,1-3.36,1s-3.37-.46-3.37-1,1.51-.46,3.37-.46S862.8,1577.87,862.8,1578.43Z"/><path class="cls-8" d="M906.75,1766.37c-.7-4.67-11.2-8.59-22-6.45s-20.2,8.81-19.5,13.48,10.16,2.48,21,.34S907.45,1771,906.75,1766.37Z"/><ellipse class="cls-6" cx="830.92" cy="1649.12" rx="2.9" ry="1.26"/><ellipse class="cls-6" cx="880.7" cy="1647.86" rx="2.9" ry="1.26"/><ellipse class="cls-3" cx="787.57" cy="1768.4" rx="11.04" ry="28.39" transform="matrix(1, -0.07, 0.07, 1, -117.75, 57.29)"/><ellipse class="cls-3" cx="885.81" cy="1760.53" rx="16.98" ry="43.04" transform="translate(-505.85 365.04) rotate(-18.21)"/><path class="cls-3" d="M808.11,1719.79c17.57-5.88,33.54-3.79,35.69,4.67s-8.82,21.14-26.38,27-35.07,2.75-37.22-5.72S790.55,1725.68,808.11,1719.79Z"/><path class="cls-9" d="M827.69,1698.54s14.75,10.08,58.27,0l20.71,66.71s-26.87-14.16-41.44,8.15l-6.49-29.17-22,5s-20-30.39-36.46-26.87c0,0,6.18-4,17.59-9.76C821.87,1710.53,824.5,1704.65,827.69,1698.54Z"/><path class="cls-10" d="M822.77,1706.62s26.71,12.19,66.41,1.66L886,1697.92s-30.68,9.56-58.27,0Z"/><line class="cls-11" x1="829.36" y1="1700.88" x2="827.77" y2="1706.11"/><line class="cls-11" x1="840.15" y1="1703.31" x2="839.03" y2="1708.69"/><line class="cls-11" x1="844.71" y1="1703.99" x2="844.3" y2="1709.48"/><line class="cls-11" x1="871.85" y1="1704.63" x2="871.94" y2="1710.13"/><line class="cls-11" x1="867.42" y1="1705.07" x2="867.51" y2="1710.57"/><line class="cls-11" x1="876.51" y1="1703.3" x2="876.6" y2="1708.8"/><line class="cls-11" x1="881.59" y1="1702.61" x2="881.68" y2="1708.12"/><line class="cls-11" x1="834.88" y1="1702.43" x2="833.76" y2="1707.8"/><ellipse class="cls-12" cx="852.17" cy="1708.2" rx="1.74" ry="1.16" transform="translate(-914.87 2430.48) rotate(-85.72)"/><ellipse class="cls-12" cx="860.45" cy="1708.33" rx="1.74" ry="1.16" transform="translate(-907.34 2438.86) rotate(-85.72)"/><path class="cls-12" d="M850.06,1728.83s-5.64-11,1.55-20.69l.83.62s-7,8.59-1.89,19.21S850.06,1728.83,850.06,1728.83Z"/><path class="cls-12" d="M859.73,1726.25s6.5-8.83,1.36-18.29l-.82.43a16.25,16.25,0,0,1-.87,17.06C853.42,1734.06,859.73,1726.25,859.73,1726.25Z"/><path class="cls-3" d="M788.46,1793.26c-7.22,0-13.08,4.46-13.08,10h26.16C801.54,1797.72,795.68,1793.26,788.46,1793.26Z"/><rect class="cls-12" x="775.38" y="1801.53" width="26.16" height="3.37"/><path class="cls-13" d="M795.42,1794.38s-10.42,3.59-11.19,7-.75-5.73-5-5"/><polygon class="cls-4" points="798.07 1720.91 803.21 1713.36 813.92 1712.97 819.5 1717.38 814.06 1725.21 806.44 1728.85 800.6 1726.09 798.07 1720.91"/><path class="cls-7" d="M853.69,1586.83c-3.25,0-5.88,1.73-5.88,3.85h11.75C859.56,1588.56,856.93,1586.83,853.69,1586.83Z"/><path class="cls-2" d="M915.47,1803c-106.52,0-192.87,2.89-192.87,6.47,0,1.56,16.42,3,43.75,4.1h0c-4.66,17.57-27.44,19.46-27.44,19.46-.09.72-1.66,1.9,0,1.81,43.12-2.3,50-20.49,50-20.49h0c33.87,1,78.14,1.59,126.58,1.59,106.51,0,192.86-2.9,192.86-6.47S1022,1803,915.47,1803Z"/><path class="cls-3" d="M896.37,1612.27c12.28-2.59,41.16,29.35,25.41,60.67C914.33,1687.75,874.87,1616.79,896.37,1612.27Z"/><path class="cls-3" d="M908.25,1725.61c10.72-1.55,27.53-58.94,8.3-65.36C908.64,1657.61,890,1728.26,908.25,1725.61Z"/><polygon class="cls-3" points="914.16 1727.98 909.02 1720.43 898.32 1720.05 892.74 1724.45 898.18 1732.29 905.8 1735.92 911.64 1733.17 914.16 1727.98"/></g><g id="Layer_7" data-name="Layer 7"><rect class="cls-1" x="3.45" y="1439.48" width="648.64" height="718.1"/><path class="cls-2" d="M267.25,1803.53c-106.52,0-192.87,2.89-192.87,6.47,0,1.56,16.42,3,43.75,4.1h0c-4.65,17.57-27.44,19.46-27.44,19.46-.09.72-1.66,1.9,0,1.81,43.12-2.31,50-20.49,50-20.49h0c33.87,1,78.14,1.59,126.58,1.59,106.51,0,192.86-2.9,192.86-6.47S373.76,1803.53,267.25,1803.53Z"/><path class="cls-3" d="M198,1558.73s4.76,12-29.45,20.4l10.93,88.66s24.12,8.43,58.34,0c0,0,3.24-74.89,14.46-93.86,0,0-26.8,2.71-31.29-19.41H197.47Z"/><path class="cls-3" d="M172.4,1578.64c-12.28-2.58-41.17,29.36-25.42,60.67C154.43,1654.12,193.9,1583.17,172.4,1578.64Z"/><path class="cls-4" d="M189.34,1519v12.9s-8.41,4.77,0,10.1v9l19.35,12.62,21.88-13.18v-8.14s9.82-2.24,1.4-9V1512L201.4,1501.3Z"/><path class="cls-3" d="M159.48,1691c-10.72-1.55-27.54-58.94-8.3-65.36C159.09,1623,177.73,1693.6,159.48,1691Z"/><path class="cls-5" d="M189.34,1528s-10.94-3.93,0-23.28c0,0,1.12-10.66,25.8-8.13,0,0,14.31-4.77,15.43-9.82,0,0,.84,8.41-8.69,12.62,0,0,11-1.68,13.5-10.1,0,0,5.29,2.25-6.77,14.31,0,0,9.86-3.93,13.9-7.86s-7.13,13.75-7.13,13.75l-2,17.11-5.89-11.22s-21.87,11.78-28.6-6.45Z"/><path d="M189,1530.28c-.33-4.84,6.38-8.22,19.7-.65l3.86.06s16-8.33,19.42-1.47c.92,1.83.55,11.58-19.56,3.16l-3.72.14S189.69,1540.47,189,1530.28Z"/><path class="cls-6" d="M214.58,1539.63c0,.57-1.5,1-3.36,1s-3.37-.46-3.37-1,1.51-.46,3.37-.46S214.58,1539.07,214.58,1539.63Z"/><path class="cls-8" d="M197.29,1735.05c-.43-4.11-10.69-8.22-21.63-7.07s-20.69,6.32-20.26,10.43,10,2.83,20.95,1.68S197.72,1739.15,197.29,1735.05Z"/><path class="cls-8" d="M258.68,1726.67c-.71-4.07-11.22-7.49-22.05-5.62s-20.23,7.68-19.52,11.75,10.17,2.16,21,.29S259.38,1730.74,258.68,1726.67Z"/><ellipse class="cls-6" cx="182.7" cy="1610.32" rx="2.9" ry="1.26"/><ellipse class="cls-6" cx="232.48" cy="1609.06" rx="2.9" ry="1.26"/><ellipse class="cls-3" cx="239.68" cy="1760.17" rx="34.75" ry="12.04" transform="translate(-1502.35 1412.34) rotate(-70.95)"/><ellipse class="cls-3" cx="175.44" cy="1760.44" rx="12.18" ry="32.97" transform="translate(-118.61 15.89) rotate(-3.88)"/><ellipse class="cls-3" cx="236.17" cy="1713.07" rx="16.72" ry="33.62" transform="translate(-620.04 210.64) rotate(-21.83)"/><ellipse class="cls-3" cx="181.29" cy="1720.55" rx="33.16" ry="15.83" transform="translate(-1504.23 1330.46) rotate(-70.95)"/><path class="cls-9" d="M179.52,1667.55s14.78,8.78,58.34,0l20.73,58.15s-26.9-12.34-41.48,7.1l-6.5-25.43-13.32,27.68s-20.2-15-41.89,3.36C155.4,1738.41,178.22,1683.44,179.52,1667.55Z"/><path class="cls-10" d="M177.42,1677.28s38.85,7.12,63.66-1.24l-3.22-9s-30.71,8.33-58.34,0Z"/><line class="cls-11" x1="183.3" y1="1671.23" x2="182.11" y2="1675.88"/><line class="cls-11" x1="194.25" y1="1672.65" x2="193.54" y2="1677.4"/><line class="cls-11" x1="198.86" y1="1672.94" x2="198.86" y2="1677.74"/><line class="cls-11" x1="226.08" y1="1672.63" x2="226.58" y2="1677.41"/><line class="cls-11" x1="221.69" y1="1673.3" x2="222.19" y2="1678.08"/><line class="cls-11" x1="230.63" y1="1671.17" x2="231.13" y2="1675.95"/><line class="cls-11" x1="235.65" y1="1670.24" x2="236.16" y2="1675.02"/><line class="cls-11" x1="188.93" y1="1672.22" x2="188.21" y2="1676.97"/><ellipse class="cls-12" cx="206.62" cy="1676.11" rx="1.16" ry="1.52"/><ellipse class="cls-12" cx="214.9" cy="1675.69" rx="1.16" ry="1.52"/><path class="cls-12" d="M205.75,1694.19s-6.45-9.16,0-18.08l.87.48s-6.34,7.92-.45,16.83S205.75,1694.19,205.75,1694.19Z"/><path class="cls-12" d="M215.2,1691.33s5.84-8.11,0-16l-.79.42s5.74,7,.41,14.88S215.2,1691.33,215.2,1691.33Z"/><path class="cls-3" d="M177.5,1791.8c7.22,0,13.08,4.45,13.08,9.94H164.42C164.42,1796.25,170.28,1791.8,177.5,1791.8Z"/><rect class="cls-12" x="164.42" y="1800.06" width="26.16" height="3.37"/><path class="cls-13" d="M170.54,1792.92s10.42,3.59,11.19,6.95.75-5.73,5-5"/><path class="cls-3" d="M228.55,1791.6c7.22,0,13.08,4.45,13.08,10H215.47C215.47,1796.05,221.33,1791.6,228.55,1791.6Z"/><rect class="cls-12" x="215.47" y="1799.86" width="26.16" height="3.37"/><path class="cls-13" d="M236.13,1792.91s-10.42,3.59-11.19,6.95-.75-5.73-5-5"/><polygon class="cls-3" points="153.56 1693.33 158.7 1685.77 169.41 1685.39 174.99 1689.8 169.55 1697.63 161.93 1701.26 156.09 1698.51 153.56 1693.33"/><path class="cls-7" d="M205.47,1548c-3.25,0-5.88,1.73-5.88,3.85h11.76C211.35,1549.76,208.71,1548,205.47,1548Z"/><path class="cls-3" d="M312.28,1591.47c-1.63-13.8-68.26-31.33-76.07-5.88C233,1596.05,315.06,1615,312.28,1591.47Z"/><path class="cls-3" d="M297.14,1599.25c8.71,6,61.94-24,52.94-41.41C346.37,1550.7,282.3,1589,297.14,1599.25Z"/><polygon class="cls-3" points="368.12 1538.5 367.55 1553.78 357.64 1563.35 348.42 1563.37 348.93 1554.15 358.01 1550.41 362.78 1538.13 368.12 1538.5"/></g><g id="Layer_3" data-name="Layer 3"><rect class="cls-1" x="652.09" y="721.38" width="648.64" height="718.1"/><polygon class="cls-3" points="894.34 779.84 899.48 772.29 910.19 771.9 915.77 776.31 910.33 784.14 902.7 787.78 896.86 785.02 894.34 779.84"/><path class="cls-2" d="M915.56,1084.18c-106.51,0-192.86,2.9-192.86,6.48,0,1.55,16.41,3,43.75,4.1h0c-4.66,17.57-27.44,19.45-27.44,19.45-.1.72-1.66,1.9,0,1.82,43.12-2.31,50-20.49,50-20.49h0c33.87,1,78.13,1.59,126.57,1.59,106.52,0,192.87-2.9,192.87-6.47S1022.08,1084.18,915.56,1084.18Z"/><path class="cls-3" d="M843.25,824.89s4.76,12-29.45,20.4L824.73,934s24.12,8.43,58.34,0c0,0,3.24-74.89,14.46-93.86,0,0-26.8,2.71-31.29-19.41H842.68Z"/><path class="cls-3" d="M817.6,844.8c-12.27-2.58-41.16,29.36-25.41,60.67C799.64,920.28,839.11,849.33,817.6,844.8Z"/><path class="cls-4" d="M834.55,785.13V798s-8.41,4.76,0,10.09v9l19.35,12.62,21.88-13.18v-8.14s9.82-2.24,1.4-9V778.12l-30.57-10.66Z"/><path class="cls-3" d="M945.89,826.16c-9.67-10.7-73.72,14.7-64.57,41C885.09,877.91,962.35,844.38,945.89,826.16Z"/><path class="cls-3" d="M903,782.33c-5.44,9.08,27.92,60.28,44.69,50.19C954.59,828.37,912.26,766.87,903,782.33Z"/><path class="cls-3" d="M804.69,957.12c-10.72-1.56-27.54-59-8.3-65.37C804.3,889.12,822.94,959.76,804.69,957.12Z"/><path class="cls-5" d="M834.55,794.11s-10.94-3.93,0-23.28c0,0,1.12-10.66,25.8-8.13,0,0,14.31-4.77,15.43-9.82,0,0,.84,8.41-8.7,12.62,0,0,11-1.68,13.51-10.1,0,0,5.29,2.25-6.77,14.31,0,0,9.86-3.93,13.9-7.86s-7.13,13.75-7.13,13.75l-2,17.11-5.89-11.22s-21.87,11.78-28.6-6.45Z"/><path d="M834.2,796.44c-.33-4.84,6.38-8.22,19.7-.65l3.86.06s16-8.33,19.42-1.47c.92,1.83.55,11.58-19.56,3.16l-3.72.14S834.9,806.63,834.2,796.44Z"/><path class="cls-6" d="M859.79,805.79c0,.57-1.5,1-3.36,1s-3.37-.46-3.37-1,1.51-.46,3.37-.46S859.79,805.23,859.79,805.79Z"/><path class="cls-8" d="M842.5,1001.21c-.43-4.11-10.69-8.22-21.63-7.07s-20.69,6.32-20.26,10.43,10,2.83,20.95,1.68S842.93,1005.31,842.5,1001.21Z"/><path class="cls-8" d="M903.89,992.83c-.71-4.07-11.22-7.49-22-5.62s-20.23,7.68-19.52,11.75,10.17,2.16,21,.29S904.59,996.9,903.89,992.83Z"/><ellipse class="cls-6" cx="827.91" cy="876.48" rx="2.9" ry="1.26"/><ellipse class="cls-6" cx="877.69" cy="875.22" rx="2.9" ry="1.26"/><ellipse class="cls-3" cx="895.24" cy="1037.28" rx="12.04" ry="38.3"/><ellipse class="cls-3" cx="822.96" cy="1037.16" rx="13.76" ry="38.72" transform="translate(-68.23 58.01) rotate(-3.88)"/><ellipse class="cls-3" cx="881.38" cy="979.23" rx="16.72" ry="33.62" transform="translate(-300.91 397.93) rotate(-21.83)"/><ellipse class="cls-3" cx="826.5" cy="986.71" rx="33.16" ry="15.83" transform="translate(-375.9 1445.98) rotate(-70.95)"/><path class="cls-9" d="M824.73,933.71s14.78,8.78,58.34,0l20.73,58.15s-26.9-12.34-41.48,7.1l-6.5-25.43-13.32,27.68s-20.2-15-41.89,3.36C800.61,1004.57,823.43,949.6,824.73,933.71Z"/><path class="cls-10" d="M822.63,943.44s38.85,7.12,63.66-1.24l-3.22-9s-30.71,8.33-58.34,0Z"/><line class="cls-11" x1="828.51" y1="937.39" x2="827.32" y2="942.04"/><line class="cls-11" x1="839.46" y1="938.81" x2="838.75" y2="943.56"/><line class="cls-11" x1="844.07" y1="939.1" x2="844.07" y2="943.9"/><line class="cls-11" x1="871.29" y1="938.79" x2="871.79" y2="943.57"/><line class="cls-11" x1="866.9" y1="939.46" x2="867.4" y2="944.24"/><line class="cls-11" x1="875.84" y1="937.33" x2="876.34" y2="942.11"/><line class="cls-11" x1="880.86" y1="936.4" x2="881.37" y2="941.18"/><line class="cls-11" x1="834.14" y1="938.38" x2="833.42" y2="943.13"/><ellipse class="cls-12" cx="851.83" cy="942.27" rx="1.16" ry="1.52"/><ellipse class="cls-12" cx="860.11" cy="941.85" rx="1.16" ry="1.52"/><path class="cls-12" d="M851,960.35s-6.45-9.16,0-18.08l.87.48s-6.34,7.92-.45,16.83S851,960.35,851,960.35Z"/><path class="cls-12" d="M860.41,957.49s5.84-8.11,0-16l-.79.42s5.74,7,.41,14.88S860.41,957.49,860.41,957.49Z"/><path class="cls-3" d="M825.82,1072.45c7.22,0,13.07,4.46,13.07,10H812.74C812.74,1076.91,818.59,1072.45,825.82,1072.45Z"/><rect class="cls-12" x="812.74" y="1080.72" width="26.16" height="3.37"/><path class="cls-13" d="M818.86,1073.57s10.41,3.59,11.19,7,.75-5.74,5-5"/><path class="cls-3" d="M896.54,1072.26c7.22,0,13.08,4.45,13.08,9.94H883.46C883.46,1076.71,889.32,1072.26,896.54,1072.26Z"/><rect class="cls-12" x="883.46" y="1080.52" width="26.16" height="3.37"/><path class="cls-13" d="M904.12,1073.56s-10.41,3.59-11.19,7-.75-5.73-5-5"/><polygon class="cls-3" points="798.77 959.49 803.91 951.93 814.62 951.55 820.2 955.96 814.76 963.79 807.14 967.42 801.3 964.67 798.77 959.49"/><path class="cls-7" d="M850.68,814.19c-3.25,0-5.88,1.73-5.88,3.85h11.76C856.56,815.92,853.92,814.19,850.68,814.19Z"/></g><g id="Layer_2" data-name="Layer 2"><rect class="cls-1" x="3.45" y="721.19" width="648.64" height="718.1"/><path class="cls-2" d="M266.59,1086.1c-106.51,0-192.86,2.9-192.86,6.47,0,1.56,16.41,3,43.75,4.11h0c-4.66,17.56-27.44,19.45-27.44,19.45-.09.72-1.66,1.9,0,1.81,43.12-2.3,50-20.48,50-20.48h0c33.87,1,78.14,1.58,126.57,1.58,106.52,0,192.87-2.89,192.87-6.47S373.11,1086.1,266.59,1086.1Z"/><path class="cls-3" d="M194.28,832s3.26,9.32-31,17.75L175.77,941s24.12,8.43,58.33,0c0,0,3.24-74.89,14.46-93.85,0,0-26.8,2.71-31.28-19.42H193.72Z"/><path class="cls-3" d="M167.23,849.26c-12.28-2.58-41.16,29.36-25.41,60.67C149.27,924.74,188.73,853.79,167.23,849.26Z"/><path class="cls-4" d="M185.58,792.23v12.9s-8.41,4.77,0,10.1v9l19.35,12.62,21.88-13.18v-8.13s9.82-2.25,1.4-9V785.22l-30.57-10.66Z"/><path class="cls-3" d="M301.09,866.46c-1.47-14.34-68.13-31.77-76.28-5.18C221.45,872.22,303.58,890.9,301.09,866.46Z"/><path class="cls-3" d="M288.5,874c8.71,6,61.94-24,52.93-41.41C337.73,825.39,273.66,863.72,288.5,874Z"/><path class="cls-4" d="M194.17,946.22c-9.43,5.56-61.91-29.28-51.3-46.56C147.23,892.55,210.23,936.74,194.17,946.22Z"/><path class="cls-5" d="M185.58,801.2s-10.94-3.92,0-23.28c0,0,1.12-10.65,25.81-8.13,0,0,14.3-4.77,15.42-9.82,0,0,.84,8.42-8.69,12.62,0,0,11-1.68,13.5-10.09,0,0,5.29,2.24-6.77,14.3,0,0,9.86-3.92,13.9-7.85s-7.13,13.74-7.13,13.74l-2,17.11-5.89-11.22s-21.88,11.78-28.61-6.45Z"/><path d="M185.23,803.53c-.33-4.83,6.38-8.22,19.7-.64l3.86.06s16-8.34,19.42-1.47c.92,1.82.55,11.57-19.56,3.16l-3.72.14S185.93,813.72,185.23,803.53Z"/><path class="cls-6" d="M210.82,812.89c0,.57-1.5,1-3.36,1s-3.37-.46-3.37-1,1.51-.47,3.37-.47S210.82,812.32,210.82,812.89Z"/><polygon class="cls-7" points="196.9 816.53 195.03 825.88 210.82 822.71 196.9 816.53"/><path class="cls-8" d="M193.53,1008.3c-.43-4.11-10.69-8.21-21.63-7.06s-20.69,6.32-20.25,10.43,10,2.83,20.94,1.68S194,1012.41,193.53,1008.3Z"/><path class="cls-8" d="M254.92,999.93c-.7-4.07-11.21-7.49-22-5.62s-20.22,7.68-19.52,11.75,10.17,2.16,21,.29S255.62,1004,254.92,999.93Z"/><ellipse class="cls-6" cx="178.94" cy="883.57" rx="2.9" ry="1.26"/><ellipse class="cls-6" cx="228.72" cy="882.31" rx="2.9" ry="1.26"/><ellipse class="cls-3" cx="254.92" cy="1042.3" rx="12.04" ry="38.3" transform="translate(-286.54 115.91) rotate(-16.56)"/><ellipse class="cls-3" cx="173.99" cy="1043.22" rx="13.76" ry="38.72" transform="translate(-203.89 55.4) rotate(-11.46)"/><ellipse class="cls-3" cx="232.41" cy="986.33" rx="16.72" ry="33.62" transform="translate(-350.08 157.14) rotate(-21.83)"/><ellipse class="cls-3" cx="177.54" cy="993.8" rx="33.16" ry="15.83" transform="translate(-819.8 837.32) rotate(-70.95)"/><path class="cls-9" d="M175.77,940.8s14.77,8.79,58.33,0L254.84,999s-26.91-12.34-41.49,7.11l-6.5-25.43-13.32,27.67s-20.19-15-41.88,3.37C151.65,1011.67,174.46,956.69,175.77,940.8Z"/><path class="cls-10" d="M173.66,950.54s38.85,7.11,63.66-1.25l-3.22-9s-30.71,8.33-58.33,0Z"/><line class="cls-11" x1="179.54" y1="944.49" x2="178.35" y2="949.14"/><line class="cls-11" x1="190.5" y1="945.9" x2="189.78" y2="950.65"/><line class="cls-11" x1="195.11" y1="946.19" x2="195.11" y2="951"/><line class="cls-11" x1="222.32" y1="945.89" x2="222.83" y2="950.66"/><line class="cls-11" x1="217.93" y1="946.55" x2="218.43" y2="951.33"/><line class="cls-11" x1="226.87" y1="944.42" x2="227.37" y2="949.2"/><line class="cls-11" x1="231.9" y1="943.5" x2="232.4" y2="948.27"/><line class="cls-11" x1="185.17" y1="945.47" x2="184.45" y2="950.22"/><ellipse class="cls-12" cx="202.87" cy="949.36" rx="1.16" ry="1.52"/><ellipse class="cls-12" cx="211.14" cy="948.94" rx="1.16" ry="1.52"/><path class="cls-12" d="M202,967.44s-6.45-9.16,0-18.08l.88.49s-6.35,7.92-.46,16.82S202,967.44,202,967.44Z"/><path class="cls-12" d="M211.45,964.58s5.83-8.1,0-16l-.8.43s5.75,7,.42,14.88S211.45,964.58,211.45,964.58Z"/><path class="cls-3" d="M180,1074.37c-7.22,0-13.07,4.45-13.07,9.94H193C193,1078.82,187.18,1074.37,180,1074.37Z"/><rect class="cls-12" x="166.88" y="1082.63" width="26.16" height="3.37"/><path class="cls-13" d="M186.91,1075.49s-10.41,3.59-11.19,7-.75-5.74-5-5"/><path class="cls-3" d="M267.25,1074.18c7.22,0,13.07,4.45,13.07,9.94H254.17C254.17,1078.63,260,1074.18,267.25,1074.18Z"/><rect class="cls-12" x="254.17" y="1082.44" width="26.16" height="3.37"/><path class="cls-13" d="M274.83,1075.48s-10.42,3.59-11.19,7-.75-5.74-5-5"/><polygon class="cls-3" points="356.64 813.4 356.07 828.67 346.17 838.24 336.94 838.27 337.45 829.05 346.53 825.3 351.3 813.02 356.64 813.4"/><polygon class="cls-4" points="217.09 955.52 210.04 941.96 196.99 937.55 188.64 941.48 193.05 949.59 201.18 955.63 212.43 958.15 217.09 955.52"/></g><g id="Layer_13" data-name="Layer 13"><rect class="cls-1" x="3.45" y="3.09" width="648.64" height="718.1"/><path class="cls-2" d="M265.94,365.09c-106.51,0-192.86,2.89-192.86,6.47,0,1.56,16.41,3,43.75,4.1h0c-4.66,17.57-27.44,19.46-27.44,19.46-.1.72-1.66,1.9,0,1.81,43.12-2.31,50-20.49,50-20.49h0c33.87,1,78.14,1.59,126.57,1.59,106.52,0,192.87-2.9,192.87-6.47S372.46,365.09,265.94,365.09Z"/><path class="cls-3" d="M192.59,116.15s3.26,9.33-31,17.76l12.45,91.3s24.12,8.43,58.34,0c0,0,3.23-74.89,14.45-93.86,0,0-26.79,2.71-31.28-19.42H192Z"/><path class="cls-3" d="M165.54,134.46c-12.28-2.58-41.16,29.36-25.41,60.67C147.58,209.94,187,139,165.54,134.46Z"/><path class="cls-4" d="M183.9,78.46v12.9s-8.42,4.77,0,10.1v9l19.35,12.62,21.87-13.19v-8.13s9.82-2.24,1.41-9V71.45L196,60.79Z"/><path class="cls-3" d="M299.4,150.63c-1.46-14.35-68.13-31.77-76.28-5.19C219.77,156.38,301.9,175.06,299.4,150.63Z"/><path class="cls-3" d="M285,149.37c3.19,10.09,63.65,19.06,67.21-.19C353.68,141.27,279.57,132.19,285,149.37Z"/><path class="cls-4" d="M204.56,202.26c-5.15,9.67-68.1,7.3-68.06-13C136.52,181,213.32,185.8,204.56,202.26Z"/><path class="cls-5" d="M183.9,87.44s-10.94-3.93,0-23.28c0,0,1.12-10.66,25.8-8.14,0,0,14.3-4.76,15.42-9.81,0,0,.85,8.41-8.69,12.62,0,0,11-1.68,13.5-10.1,0,0,5.29,2.25-6.77,14.31,0,0,9.86-3.93,13.91-7.86s-7.14,13.75-7.14,13.75l-2,17.1L222,74.82s-21.88,11.78-28.61-6.45Z"/><path d="M183.54,89.76c-.33-4.83,6.39-8.21,19.71-.64l3.85.06s16-8.33,19.43-1.47c.91,1.83.54,11.58-19.57,3.16l-3.71.14S184.25,100,183.54,89.76Z"/><path class="cls-6" d="M209.14,99.12c0,.57-1.51,1-3.37,1s-3.36-.46-3.36-1,1.5-.46,3.36-.46S209.14,98.56,209.14,99.12Z"/><polygon class="cls-7" points="195.21 102.77 193.34 112.12 209.14 108.94 195.21 102.77"/><path class="cls-8" d="M191.84,289.36c-.43-4.11-10.69-8.22-21.63-7.07s-20.68,6.32-20.25,10.43,10,2.83,20.94,1.68S192.27,293.46,191.84,289.36Z"/><path class="cls-8" d="M253.23,281c-.7-4.07-11.21-7.49-22-5.62S211,283,211.66,287.11s10.17,2.17,21,.3S253.93,285.05,253.23,281Z"/><ellipse class="cls-6" cx="177.26" cy="164.63" rx="2.9" ry="1.26"/><ellipse class="cls-6" cx="227.04" cy="163.37" rx="2.9" ry="1.26"/><ellipse class="cls-3" cx="254.27" cy="321.29" rx="12.04" ry="38.3" transform="matrix(0.96, -0.29, 0.29, 0.96, -81.04, 85.81)"/><ellipse class="cls-3" cx="170.24" cy="322.2" rx="13.76" ry="38.72" transform="translate(-84.78 61.89) rotate(-16.56)"/><ellipse class="cls-3" cx="230.72" cy="267.38" rx="16.72" ry="33.62" transform="translate(-82.88 104.96) rotate(-21.83)"/><ellipse class="cls-3" cx="174.81" cy="273.82" rx="33.16" ry="15.83" transform="translate(-149.73 288.3) rotate(-60)"/><path class="cls-9" d="M174.08,221.86s14.77,8.78,58.34,0L253.15,280s-26.9-12.34-41.49,7.1l-6.5-25.43-13.32,27.68s-20.19-15-41.88,3.36C150,292.72,172.77,237.75,174.08,221.86Z"/><path class="cls-10" d="M172,231.59s38.85,7.12,63.67-1.24l-3.22-9s-30.71,8.33-58.34,0Z"/><line class="cls-11" x1="177.85" y1="225.54" x2="176.66" y2="230.2"/><line class="cls-11" x1="188.81" y1="226.96" x2="188.09" y2="231.71"/><line class="cls-11" x1="193.42" y1="227.25" x2="193.42" y2="232.05"/><line class="cls-11" x1="220.64" y1="226.94" x2="221.14" y2="231.72"/><line class="cls-11" x1="216.24" y1="227.61" x2="216.75" y2="232.39"/><line class="cls-11" x1="225.19" y1="225.48" x2="225.69" y2="230.26"/><line class="cls-11" x1="230.21" y1="224.55" x2="230.71" y2="229.33"/><line class="cls-11" x1="183.48" y1="226.53" x2="182.76" y2="231.28"/><ellipse class="cls-12" cx="201.18" cy="230.42" rx="1.16" ry="1.52"/><ellipse class="cls-12" cx="209.45" cy="230" rx="1.16" ry="1.52"/><path class="cls-12" d="M200.3,248.5s-6.45-9.16,0-18.08l.88.48s-6.35,7.93-.46,16.83S200.3,248.5,200.3,248.5Z"/><path class="cls-12" d="M209.76,245.64s5.84-8.11,0-16l-.79.42s5.74,7,.41,14.89S209.76,245.64,209.76,245.64Z"/><path class="cls-3" d="M179.3,353.36c-7.22,0-13.07,4.45-13.07,9.94h26.15C192.38,357.81,186.53,353.36,179.3,353.36Z"/><rect class="cls-12" x="166.23" y="361.62" width="26.16" height="3.37"/><path class="cls-13" d="M186.26,354.48s-10.42,3.59-11.19,6.95-.75-5.73-5-5"/><path class="cls-3" d="M266.59,353.16c7.23,0,13.08,4.45,13.08,9.95H253.52C253.52,357.61,259.37,353.16,266.59,353.16Z"/><rect class="cls-12" x="253.52" y="361.42" width="26.16" height="3.37"/><path class="cls-13" d="M274.18,354.47s-10.42,3.59-11.19,6.95-.75-5.73-5-5"/><polygon class="cls-4" points="201.12 201.12 213.82 189.81 231.55 189.75 241 196.52 233.17 203.23 220.91 199.42 206.28 205.34 201.12 201.12"/><polygon class="cls-3" points="345.94 149.24 357.46 140.56 374.08 141.14 383.17 146.91 376.06 152.04 364.44 148.55 350.93 152.82 345.94 149.24"/></g></svg>
