<svg xmlns="http://www.w3.org/2000/svg" viewBox="0 0 3251.14 2872.28"><defs><style>.cls-1,.cls-11,.cls-13{fill:none;}.cls-2{fill:#5d8749;}.cls-3{fill:#a07f75;}.cls-4{fill:#96766f;}.cls-5{fill:#4c2d20;}.cls-6{fill:#72554a;}.cls-7{fill:#dbdad9;}.cls-8{fill:#960c23;}.cls-9{fill:#ce2136;}.cls-10{fill:#b71833;}.cls-11{stroke:#070707;}.cls-11,.cls-13{stroke-miterlimit:10;}.cls-12{fill:#070707;}.cls-13{stroke:#000;}</style></defs><title>surf400500</title><g id="Layer_4" data-name="Layer 4"><rect class="cls-1" x="2.03" y="2157.42" width="648.64" height="718.1"/><path class="cls-2" d="M266.84,2518.87c-106.51,0-192.86,2.9-192.86,6.47,0,1.56,16.41,3,43.75,4.11h0c-4.66,17.56-27.44,19.45-27.44,19.45-.1.72-1.66,1.9,0,1.81,43.12-2.3,50-20.48,50-20.48h0c33.87,1,78.14,1.58,126.57,1.58,106.52,0,192.87-2.89,192.87-6.47S373.36,2518.87,266.84,2518.87Z"/><path class="cls-3" d="M196.23,2277s3,9.19-28.65,17.5l11.52,90s22.32,8.3,54,0c0,0,3-73.79,13.38-92.48,0,0-24.8,2.67-29-19.13h-21.8Z"/><path class="cls-3" d="M172.28,2294.69c-13.71-3.14-46,35.65-28.37,73.68C152.22,2386.36,196.29,2300.19,172.28,2294.69Z"/><path class="cls-4" d="M188.19,2238.6v11.94s-7.79,4.41,0,9.34v8.31l17.9,11.68,20.25-12.2v-7.53s9.08-2.08,1.3-8.31v-19.72l-28.29-9.86Z"/><path class="cls-3" d="M295.56,2318.76c1.71-14.4-56-41.48-69.22-16.39C220.92,2312.7,292.65,2343.3,295.56,2318.76Z"/><path class="cls-3" d="M286.9,2328.22c11.94-1.17,39.93-69.12,20.07-78.1C298.8,2246.43,266.58,2330.21,286.9,2328.22Z"/><path class="cls-3" d="M180.94,2410c-11.22,4.08-49.53-39.87-32.88-55.63C154.9,2347.89,200,2403.05,180.94,2410Z"/><path class="cls-5" d="M188.19,2246.9s-10.13-3.63,0-21.54c0,0,1-9.86,23.87-7.53,0,0,13.24-4.41,14.28-9.08,0,0,.78,7.79-8.05,11.68,0,0,10.2-1.56,12.5-9.34,0,0,4.89,2.07-6.27,13.23,0,0,9.13-3.63,12.87-7.27s-6.6,12.72-6.6,12.72l-1.85,15.84-5.46-10.39s-20.24,10.9-26.47-6Z"/><path d="M187.86,2249.06c-.31-4.47,5.91-7.61,18.23-.6l3.57.06s14.8-7.72,18-1.36c.84,1.69.5,10.71-18.11,2.92l-3.44.13S188.51,2258.49,187.86,2249.06Z"/><path class="cls-6" d="M211.55,2257.72c0,.52-1.4,1-3.12,1s-3.11-.43-3.11-1,1.39-.43,3.11-.43S211.55,2257.19,211.55,2257.72Z"/><polygon class="cls-7" points="199.31 2264.92 201.82 2268.21 207.02 2268.34 199.31 2264.92"/><path class="cls-8" d="M195.54,2446.93c-.4-3.8-9.89-7.6-20-6.54s-19.14,5.85-18.74,9.66,9.26,2.62,19.38,1.55S195.94,2450.73,195.54,2446.93Z"/><path class="cls-8" d="M252.35,2439.18c-.65-3.77-10.38-6.93-20.41-5.2s-18.71,7.11-18.06,10.87,9.41,2,19.44.28S253,2443,252.35,2439.18Z"/><ellipse class="cls-6" cx="182.04" cy="2331.51" rx="2.68" ry="1.17"/><ellipse class="cls-6" cx="228.11" cy="2330.34" rx="2.68" ry="1.17"/><ellipse class="cls-6" cx="205.6" cy="2363.64" rx="0.93" ry="2.66"/><ellipse class="cls-3" cx="236.89" cy="2476.79" rx="11.14" ry="33.77" transform="translate(-257.42 38.29) rotate(-6)"/><ellipse class="cls-3" cx="181.86" cy="2481.13" rx="12.73" ry="34.35" transform="matrix(0.96, -0.27, 0.27, 0.96, -667.28, 142.74)"/><ellipse class="cls-3" cx="228.41" cy="2426.6" rx="15.48" ry="31.11" transform="translate(-775.92 205.82) rotate(-18.96)"/><ellipse class="cls-3" cx="180.74" cy="2433.51" rx="30.69" ry="14.65" transform="translate(-2178.54 1810.24) rotate(-70.95)"/><path class="cls-9" d="M179.1,2384.47s13.67,8.13,54,0l19.18,53.81s-24.89-11.42-38.39,6.57l-6-23.53-12.33,25.61s-18.69-13.84-38.76,3.12C156.78,2450.05,177.89,2399.17,179.1,2384.47Z"/><path class="cls-10" d="M177.15,2393.47s35.95,6.59,58.92-1.15l-3-8.35s-28.42,7.71-54,0Z"/><line class="cls-11" x1="182.59" y1="2387.88" x2="181.49" y2="2392.18"/><line class="cls-11" x1="192.73" y1="2389.19" x2="192.07" y2="2393.58"/><line class="cls-11" x1="197" y1="2389.46" x2="197" y2="2393.9"/><line class="cls-11" x1="222.19" y1="2389.17" x2="222.65" y2="2393.59"/><line class="cls-11" x1="218.12" y1="2389.79" x2="218.59" y2="2394.21"/><line class="cls-11" x1="226.4" y1="2387.82" x2="226.86" y2="2392.24"/><line class="cls-11" x1="231.05" y1="2386.96" x2="231.51" y2="2391.38"/><line class="cls-11" x1="187.8" y1="2388.79" x2="187.14" y2="2393.19"/><ellipse class="cls-12" cx="204.18" cy="2392.39" rx="1.07" ry="1.4"/><ellipse class="cls-12" cx="211.84" cy="2392" rx="1.07" ry="1.4"/><path class="cls-12" d="M203.37,2409.12s-6-8.48,0-16.73l.81.45s-5.87,7.33-.42,15.57S203.37,2409.12,203.37,2409.12Z"/><path class="cls-12" d="M212.12,2406.47s5.4-7.5,0-14.79l-.73.39s5.31,6.48.38,13.77S212.12,2406.47,212.12,2406.47Z"/><path class="cls-3" d="M188,2508.67c-6.68,0-12.1,4.12-12.1,9.2h24.2C200.12,2512.79,194.71,2508.67,188,2508.67Z"/><rect class="cls-12" x="175.92" y="2516.32" width="24.2" height="3.11"/><path class="cls-13" d="M182,2509.88s9.64,3.32,10.36,6.44.69-5.31,4.6-4.6"/><path class="cls-3" d="M242,2507.63c6.68,0,12.1,4.12,12.1,9.21h-24.2C229.91,2511.75,235.33,2507.63,242,2507.63Z"/><rect class="cls-12" x="229.91" y="2515.28" width="24.2" height="3.11"/><path class="cls-13" d="M248,2508.84s-9.64,3.32-10.36,6.44-.69-5.31-4.6-4.6"/><path class="cls-3" d="M300.49,2250.91l-4.13-8.47-.06-7.43,3.61.64,5.21,8.16.75-6.18c.15-1.36-1.3-5.44-2.27-6.48l-3-3.9-5.09,5.37-1.76-5.88,4.57-4.75,8.08,1.57,5.12,5.91,1.84,8.77.56,8.09v4.81l-2.56,2.82-6.79.59Z"/></g><g id="Layer_8" data-name="Layer 8"><rect class="cls-1" x="2596.48" y="1439.13" width="648.64" height="718.1"/><path class="cls-2" d="M2865.25,1802.33c-106.52,0-192.86,2.9-192.86,6.48,0,1.55,16.41,3,43.75,4.1h0c-4.66,17.57-27.44,19.45-27.44,19.45-.1.72-1.67,1.9,0,1.82,43.11-2.31,50-20.49,50-20.49h0c33.88,1,78.14,1.59,126.58,1.59,106.52,0,192.86-2.9,192.86-6.47S2971.77,1802.33,2865.25,1802.33Z"/><path class="cls-3" d="M3128.53,2054.21s-8.91-1.28-6.25,33.86c0,0-15.85,7.78-25,9.55-13.76,2.67-66.6,8.19-66.6,8.19s-15.54-20.29-18.2-55.43c0,0,27-3.29,42.81-10.69,2.37-1.11,6.36-8.59,14-12a77.76,77.76,0,0,0,27.88-20.31s5.78,26.3,28.21,23.67l7.34,22.38Z"/><path class="cls-4" d="M3169,2050.08l-12.26,4s-1.91,9.48-9.59,3.15l-8.53,2.8-18-14.45,5.71-24.9,33.86-14.89,21.87,27.3Z"/><path class="cls-5" d="M3159,2053.25s7.14,9.16,22.12-7.26c0,0,9.78-4.39-.32-27.06,0,0,.07-15.07,4.52-17.71,0,0-8.26,1.82-9.28,12.19,0,0-1.84-11,5.38-16,0,0-3.78-4.32-11.48,10.9,0,0,.66-10.59,3.13-15.66s-10.84,11.06-10.84,11.06L3146.6,2011l12.5,2.1s-4.37,24.46,15.05,25.17Z"/><path d="M3155.09,2043.88c4.67-1.27,6.3-7.14-4-14.34l-1-2.75s4.15-14.07-3.18-14.4c-2-.08-11.13,3.22,1.6,15l.74,2.71S3145.24,2046.55,3155.09,2043.88Z"/><path class="cls-6" d="M3138.68,2029.17c-.54.18-.51,1.75.07,3.52s1.49,3,2,2.88,0-1.58-.61-3.35S3139.22,2029,3138.68,2029.17Z"/><path class="cls-8" d="M2955.5,2071.46c4-.87,11.13,7.6,13.45,18.35s.18,21.29-3.85,22.16-5.55-8.29-7.87-19S2951.46,2072.33,2955.5,2071.46Z"/><path class="cls-8" d="M2953.19,2030.23c4.09-.6,3.8,8.73,5.73,19.56,1.88,10.58,4.29,19.28-1.5,21.69-3.81,1.6-8.8-8.47-10.41-19.35S2949.11,2030.83,2953.19,2030.23Z"/><ellipse class="cls-6" cx="3078.24" cy="2068.71" rx="1.26" ry="2.9" transform="translate(-491.58 1062.99) rotate(-18.17)"/><ellipse class="cls-6" cx="3068.9" cy="2033.9" rx="1.26" ry="2.9" transform="translate(-481.2 1058.34) rotate(-18.17)"/><ellipse class="cls-3" cx="2908.31" cy="2048.38" rx="34.75" ry="12.04" transform="translate(-493.72 1008.99) rotate(-18.17)"/><ellipse class="cls-3" cx="2924.14" cy="2096.62" rx="32.97" ry="12.18" transform="translate(-640.08 2589.26) rotate(-43.51)"/><ellipse class="cls-3" cx="2962.78" cy="2053.21" rx="16.72" ry="33.62" transform="translate(-92.47 3966.1) rotate(-66.77)"/><ellipse class="cls-3" cx="2967.09" cy="2091.32" rx="15.83" ry="33.16" transform="translate(-207.75 3851.33) rotate(-64.18)"/><path class="cls-9" d="M3030.92,2105.73s-13-11.29-17.43-55.33c0,0-11.33,1.31-17.75-.9-7.2-2.48-42-19.59-42-19.59s15.82,21.23,1.89,41.15l12.65,1.38-12.65-1.38s20.09,14.59,9.45,40.91C2965.1,2112,2999.9,2123.56,3030.92,2105.73Z"/><path class="cls-10" d="M3021.76,2108.92s-18.6-33.76-18.39-59.94l10.41.91s1.12,32,17.64,55.68Z"/><line class="cls-11" x1="3026.24" y1="2103.3" x2="3022.19" y2="2105.88"/><line class="cls-11" x1="3021.48" y1="2093.33" x2="3017.19" y2="2095.49"/><line class="cls-11" x1="3019.76" y1="2089.04" x2="3015.2" y2="2090.54"/><line class="cls-11" x1="3011.57" y1="2063.08" x2="3006.87" y2="2064.09"/><line class="cls-11" x1="3017.35" y1="2083.4" x2="3012.66" y2="2084.41"/><line class="cls-11" x1="3011.54" y1="2058.3" x2="3006.84" y2="2059.32"/><line class="cls-11" x1="3010.85" y1="2053.24" x2="3006.15" y2="2054.26"/><line class="cls-11" x1="3023.54" y1="2098.26" x2="3019.25" y2="2100.42"/><ellipse class="cls-12" cx="3013.15" cy="2076.11" rx="1.52" ry="1.16" transform="translate(-497.14 1043.07) rotate(-18.17)"/><ellipse class="cls-12" cx="3010.98" cy="2068.12" rx="1.52" ry="1.16" transform="translate(-494.75 1041.99) rotate(-18.17)"/><path class="cls-12" d="M2996.25,2082.58s10.72,3.27,17.18-5.64l-.73-.68s-5.55,8.5-15.85,5.68S2996.25,2082.58,2996.25,2082.58Z"/><path class="cls-12" d="M2996,2072.7s5.88-8.07,15.19-5l-.15.88s-8.45-3.27-14.27,4.25S2996,2072.7,2996,2072.7Z"/><path class="cls-3" d="M2900.92,2105.26c-5-5.18-12.3-6.28-16.25-2.46l18.21,18.77C2906.83,2117.75,2906,2110.45,2900.92,2105.26Z"/><rect class="cls-12" x="2892.1" y="2099.11" width="3.37" height="26.16" transform="matrix(0.72, -0.7, 0.7, 0.72, -654.01, 2610.66)"/><path class="cls-13" d="M2905,2111s-9.83-5-12.79-3.19,3.6-4.53.11-7"/><path class="cls-3" d="M2877.92,2048.78c-2-6.94-7.94-11.31-13.21-9.77l7.32,25.11C2877.3,2062.58,2879.94,2055.71,2877.92,2048.78Z"/><rect class="cls-12" x="2866.69" y="2038.48" width="3.37" height="26.16" transform="translate(-459.63 885) rotate(-16.26)"/><path class="cls-13" d="M2879.83,2054.64s-7.18-8.36-10.59-7.84,5.06-2.81,2.79-6.45"/><path class="cls-3" d="M3068.46,1986.74c-6.47,8.1,19.17,52.64,36.77,43.44C3112.47,2026.39,3079.48,1972.94,3068.46,1986.74Z"/><path class="cls-3" d="M3072.93,1994.75c7.8-1.23,21.15-44.82,7.35-49.59C3074.61,1943.2,3059.65,1996.84,3072.93,1994.75Z"/><polygon class="cls-3" points="3077.84 1919.02 3086.41 1928.49 3086.61 1941.94 3081.65 1949.22 3076.57 1943.38 3079.3 1934.02 3074.74 1923 3077.84 1919.02"/><polygon class="cls-4" points="3108.2 1967.22 3115.15 1977.93 3113.21 1991.24 3107.14 1997.64 3103.06 1991.06 3107.25 1982.26 3104.5 1970.66 3108.2 1967.22"/><path class="cls-4" d="M3120,2089.41c-10.16,5.89-45.19-14-40.35-46.5C3081.89,2027.56,3137.75,2079.09,3120,2089.41Z"/><path class="cls-4" d="M3106.45,1991.8c-10.11-.75-37.13,48.27-20.86,58C3092.28,2053.86,3123.67,1993.09,3106.45,1991.8Z"/></g><g id="Layer_9" data-name="Layer 9"><rect class="cls-1" x="1948.34" y="1439.13" width="648.64" height="718.1"/><path class="cls-2" d="M2210,1803.12c-106.52,0-192.87,2.9-192.87,6.48,0,1.55,16.42,3,43.75,4.1h0c-4.65,17.57-27.44,19.45-27.44,19.45-.09.72-1.66,1.9,0,1.82,43.12-2.31,50-20.49,50-20.49h0c33.87,1,78.14,1.59,126.58,1.59,106.51,0,192.86-2.9,192.86-6.47S2316.53,1803.12,2210,1803.12Z"/><path class="cls-3" d="M2391.69,1732.08s-8.86,1.6,4.76,34.1c0,0-12.57,12.39-20.69,17-12.21,6.87-60.61,28.8-60.61,28.8s-21.14-14.35-34.76-46.85c0,0,24.52-11.63,37.23-23.65,1.91-1.81,3.33-10.17,9.47-15.81a77.67,77.67,0,0,0,20-28.08s13.8,23.13,34.24,13.55l14,18.92Z"/><path class="cls-4" d="M2428.8,1715.37l-10.36,7.68s1.19,9.6-8.11,6l-7.2,5.35-21.67-8L2379,1701l27.43-24.82,29.37,19Z"/><path class="cls-5" d="M2420.3,1721.53s9.67,6.45,18.69-13.87c0,0,7.89-7.25-8.85-25.57,0,0-4.69-14.32-1.31-18.23,0,0-7.26,4.34-4.95,14.5,0,0-5.22-9.85.06-16.86,0,0-5-2.91-7.45,14,0,0-2.72-10.26-2-15.84s-6.79,13.91-6.79,13.91l-12.54,11.81,12.52-2s3.58,24.59,22.23,19.13Z"/><path d="M2413.63,1713.88c4-2.67,3.72-8.76-8.35-12.33l-1.79-2.3s-.5-14.66-7.56-12.66c-1.88.54-9.54,6.57,6.26,13.75l1.57,2.34S2405.13,1719.53,2413.63,1713.88Z"/><path class="cls-6" d="M2393.41,1705.11c-.46.34.07,1.83,1.18,3.32s2.37,2.43,2.83,2.09-.52-1.49-1.63-3S2393.86,1704.77,2393.41,1705.11Z"/><path class="cls-8" d="M2233,1803.1c3.55-2.1,13,3.69,18.56,13.16s6.9,20.15,3.34,22.25-7.88-6.12-13.48-15.59S2229.41,1805.2,2233,1803.1Z"/><path class="cls-8" d="M2217.75,1764.71c3.69-1.86,6.37,7.08,11.62,16.75,5.13,9.44,10.15,16.94,5.43,21.06-3.12,2.71-11-5.27-16-15.08S2214.07,1766.57,2217.75,1764.71Z"/><ellipse class="cls-6" cx="2348.55" cy="1761.72" rx="1.26" ry="2.9" transform="translate(-587.28 1746.77) rotate(-36.58)"/><ellipse class="cls-6" cx="2328.69" cy="1731.64" rx="1.26" ry="2.9" transform="translate(-573.27 1729.01) rotate(-36.58)"/><ellipse class="cls-3" cx="2180.9" cy="1796.11" rx="34.75" ry="12.04" transform="translate(-640.81 1653.63) rotate(-36.58)"/><ellipse class="cls-3" cx="2211.16" cy="1836.87" rx="32.97" ry="12.18" transform="translate(-450.22 2923.34) rotate(-61.92)"/><ellipse class="cls-3" cx="2234.11" cy="1783.48" rx="16.72" ry="33.62" transform="translate(269.46 3860.06) rotate(-85.19)"/><ellipse class="cls-3" cx="2250.23" cy="1818.28" rx="15.83" ry="33.16" transform="translate(157.07 3815.38) rotate(-82.59)"/><path class="cls-9" d="M2315.35,1811.79s-15.86-6.62-34-47c0,0-10.33,4.81-17.12,4.74-7.61-.07-46-5.33-46-5.33s21.71,15.15,14.79,38.45l12.44-2.69-12.44,2.69s23.68,7.5,21.89,35.84C2254.87,1838.51,2291.55,1838.51,2315.35,1811.79Z"/><path class="cls-10" d="M2307.67,1817.71s-28.31-26.16-36.38-51.07l10.16-2.42s11.18,30,34.33,47.26Z"/><line class="cls-11" x1="2310.14" y1="1810.96" x2="2307.11" y2="1814.69"/><line class="cls-11" x1="2302.47" y1="1803.01" x2="2299.09" y2="1806.41"/><line class="cls-11" x1="2299.49" y1="1799.48" x2="2295.64" y2="1802.34"/><line class="cls-11" x1="2283.52" y1="1777.44" x2="2279.38" y2="1779.88"/><line class="cls-11" x1="2295.43" y1="1794.89" x2="2291.29" y2="1797.33"/><line class="cls-11" x1="2281.98" y1="1772.92" x2="2277.85" y2="1775.36"/><line class="cls-11" x1="2279.73" y1="1768.33" x2="2275.59" y2="1770.77"/><line class="cls-11" x1="2305.99" y1="1807.03" x2="2302.61" y2="1810.44"/><ellipse class="cls-12" cx="2289.14" cy="1789.3" rx="1.52" ry="1.16" transform="translate(-615.43 1716.8) rotate(-36.58)"/><ellipse class="cls-12" cx="2284.55" cy="1782.4" rx="1.52" ry="1.16" transform="translate(-612.22 1712.7) rotate(-36.58)"/><path class="cls-12" d="M2275.14,1800.78s11.21-.28,14.52-10.78l-.91-.41s-2.58,9.81-13.24,10.39S2275.14,1800.78,2275.14,1800.78Z"/><path class="cls-12" d="M2271.81,1791.48s3-9.52,12.84-9.53l.13.89s-9.05-.43-12.2,8.54S2271.81,1791.48,2271.81,1791.48Z"/><path class="cls-3" d="M2190.86,1852.41c-6.41-3.33-13.66-2.08-16.19,2.8l23.21,12.06C2200.41,1862.39,2197.27,1855.74,2190.86,1852.41Z"/><rect class="cls-12" x="2184.59" y="1848.16" width="3.37" height="26.16" transform="translate(-473.46 2942.82) rotate(-62.54)"/><path class="cls-13" d="M2196.52,1856.62s-10.9-1.62-13.14,1,2-5.44-2.12-6.71"/><path class="cls-3" d="M2152.19,1806.09c-4.11-5.94-11.1-8.23-15.62-5.1l14.88,21.51C2156,1819.37,2156.3,1812,2152.19,1806.09Z"/><rect class="cls-12" x="2142.33" y="1798.66" width="3.37" height="26.16" transform="translate(-649.92 1541.34) rotate(-34.67)"/><path class="cls-13" d="M2155.86,1811.05s-9.45-5.67-12.52-4.1,3.9-4.26.6-7"/><path class="cls-7" d="M2395.85,1719.73c1.94,2.61,2.12,5.75.42,7l-7-9.44C2391,1716,2393.92,1717.13,2395.85,1719.73Z"/><path class="cls-3" d="M2313.38,1687c-3.57,9.73,34.82,43.89,48.61,29.6C2367.66,1710.76,2319.48,1670.46,2313.38,1687Z"/><path class="cls-3" d="M2320.16,1693.22c7-3.63,5.9-49.2-8.7-49.37C2305.46,1643.78,2308.22,1699.4,2320.16,1693.22Z"/><polygon class="cls-3" points="2300.89 1619.82 2312.01 1626.1 2316.46 1638.8 2314.05 1647.27 2307.38 1643.33 2307.01 1633.59 2299.21 1624.58 2300.89 1619.82"/><polygon class="cls-4" points="2344.92 1655.96 2354.9 1663.93 2357.26 1677.17 2353.53 1685.15 2347.58 1680.2 2348.77 1670.53 2342.5 1660.39 2344.92 1655.96"/><path class="cls-4" d="M2394.68,1768.18c-7.78,8.8-47.31.94-53-31.37C2339,1721.52,2408.3,1752.76,2394.68,1768.18Z"/><path class="cls-4" d="M2351,1679.84c-9.83,2.47-20,57.52-1.46,61.65C2357.18,1743.19,2367.77,1675.62,2351,1679.84Z"/></g><g id="Layer_10" data-name="Layer 10"><rect class="cls-1" x="1299.71" y="1439.13" width="648.64" height="718.1"/><path class="cls-2" d="M1563.05,1807.05c-106.52,0-192.87,2.9-192.87,6.47,0,1.56,16.42,3,43.75,4.11h0c-4.65,17.56-27.44,19.45-27.44,19.45-.09.72-1.66,1.9,0,1.81,43.12-2.3,50-20.48,50-20.48h0c33.87,1,78.14,1.58,126.58,1.58,106.51,0,192.86-2.89,192.86-6.47S1669.56,1807.05,1563.05,1807.05Z"/><path class="cls-3" d="M1703.2,1663.33s-8.87,1.6,4.76,34.1c0,0-12.58,12.39-20.7,17-12.2,6.87-60.6,28.8-60.6,28.8s-21.15-14.34-34.77-46.84c0,0,24.53-11.64,37.23-23.66,1.91-1.81,3.33-10.17,9.48-15.81a77.92,77.92,0,0,0,20-28.08s13.79,23.14,34.23,13.55l14,18.92Z"/><path class="cls-4" d="M1740.3,1646.62l-10.36,7.69s1.19,9.59-8.1,6l-7.21,5.35-21.67-8-2.45-25.43,27.42-24.82,29.37,19Z"/><path class="cls-5" d="M1731.8,1652.79s9.67,6.44,18.69-13.88c0,0,7.89-7.25-8.84-25.56,0,0-4.7-14.33-1.32-18.24,0,0-7.25,4.34-4.95,14.5,0,0-5.22-9.85.06-16.86,0,0-5-2.91-7.45,14,0,0-2.72-10.25-2-15.84s-6.78,13.92-6.78,13.92l-12.55,11.8,12.52-1.95s3.58,24.58,22.23,19.12Z"/><path d="M1725.13,1645.14c4-2.68,3.73-8.77-8.35-12.34l-1.79-2.3s-.5-14.66-7.56-12.65c-1.88.53-9.54,6.56,6.27,13.74l1.56,2.34S1716.63,1650.78,1725.13,1645.14Z"/><path class="cls-6" d="M1704.91,1636.36c-.46.34.07,1.83,1.18,3.32s2.38,2.43,2.83,2.09-.52-1.49-1.63-3S1705.37,1636,1704.91,1636.36Z"/><path class="cls-8" d="M1557.16,1742.36c3.56-2.11,13,3.69,18.57,13.15s7.77,15.6,4.21,17.7-8.76-1.56-14.35-11S1553.61,1744.46,1557.16,1742.36Z"/><path class="cls-8" d="M1531.42,1707.46c3.69-1.86,12.4,4.69,17.65,14.36,5.13,9.44,10.16,16.94,5.44,21.06-3.12,2.71-11-5.26-16-15.08S1527.73,1709.32,1531.42,1707.46Z"/><ellipse class="cls-6" cx="1660.05" cy="1692.97" rx="1.26" ry="2.9" transform="translate(-681.95 1322.89) rotate(-36.58)"/><ellipse class="cls-6" cx="1640.19" cy="1662.89" rx="1.26" ry="2.9" transform="translate(-667.93 1305.13) rotate(-36.58)"/><ellipse class="cls-3" cx="1516.62" cy="1749.95" rx="34.75" ry="12.04" transform="translate(-783.99 2013.83) rotate(-55.63)"/><ellipse class="cls-3" cx="1533.03" cy="1784.27" rx="32.97" ry="12.18" transform="translate(-762.78 2297.16) rotate(-61.92)"/><ellipse class="cls-3" cx="1556.53" cy="1724.69" rx="33.62" ry="16.72" transform="translate(-387.91 453.28) rotate(-14.75)"/><ellipse class="cls-3" cx="1572.97" cy="1754.62" rx="33.16" ry="15.83" transform="translate(-274.42 291.71) rotate(-9.75)"/><path class="cls-9" d="M1626.85,1743.05s-15.86-6.63-34-47l-61,11.17s29.64,12.35,22.72,35.65l3.53-1.26-1.18.94s24.87,2.32,23.08,30.65C1579.94,1773.21,1614.87,1753.57,1626.85,1743.05Z"/><path class="cls-10" d="M1619.17,1749s-28.31-26.16-36.38-51.07l10.16-2.42s11.18,30,34.33,47.25Z"/><line class="cls-11" x1="1621.64" y1="1742.21" x2="1618.62" y2="1745.94"/><line class="cls-11" x1="1613.98" y1="1734.26" x2="1610.59" y2="1737.67"/><line class="cls-11" x1="1611" y1="1730.73" x2="1607.14" y2="1733.59"/><line class="cls-11" x1="1595.02" y1="1708.69" x2="1590.88" y2="1711.14"/><line class="cls-11" x1="1606.93" y1="1726.14" x2="1602.79" y2="1728.58"/><line class="cls-11" x1="1593.48" y1="1704.17" x2="1589.35" y2="1706.61"/><line class="cls-11" x1="1591.23" y1="1699.58" x2="1587.1" y2="1702.03"/><line class="cls-11" x1="1617.49" y1="1738.28" x2="1614.11" y2="1741.69"/><ellipse class="cls-12" cx="1600.64" cy="1720.55" rx="1.52" ry="1.16" transform="translate(-710.09 1292.92) rotate(-36.58)"/><ellipse class="cls-12" cx="1596.05" cy="1713.66" rx="1.52" ry="1.16" transform="translate(-706.88 1288.82) rotate(-36.58)"/><path class="cls-12" d="M1586.65,1732s11.2-.28,14.51-10.77l-.9-.42s-2.58,9.82-13.25,10.39S1586.65,1732,1586.65,1732Z"/><path class="cls-12" d="M1583.31,1722.73s3-9.52,12.84-9.53l.13.89s-9-.43-12.2,8.54S1583.31,1722.73,1583.31,1722.73Z"/><path class="cls-3" d="M1520.07,1805.86c-4.31-5.8-11.37-7.85-15.78-4.58l15.59,21C1524.29,1819,1524.37,1811.66,1520.07,1805.86Z"/><rect class="cls-12" x="1510.4" y="1798.71" width="3.37" height="26.16" transform="translate(-781.91 1258.11) rotate(-36.58)"/><path class="cls-13" d="M1523.32,1812.11s-9.1-6.22-12.26-4.84,4.16-4,1-7"/><path class="cls-3" d="M1499.61,1770.87c-4.25-5.84-11.3-7.94-15.74-4.71l15.41,21.14C1503.72,1784.06,1503.87,1776.71,1499.61,1770.87Z"/><rect class="cls-12" x="1489.9" y="1763.65" width="3.37" height="26.16" transform="translate(-760.41 1219.84) rotate(-36.1)"/><path class="cls-13" d="M1503.41,1775.74s-9.59-5.43-12.63-3.78,3.8-4.36.44-7"/><path class="cls-7" d="M1707.36,1651c1.93,2.6,2.12,5.74.41,7l-7-9.44C1702.47,1647.29,1705.42,1648.38,1707.36,1651Z"/><path class="cls-3" d="M1624.89,1618.28c-3.58,9.73,34.81,43.89,48.6,29.6C1679.16,1642,1631,1601.72,1624.89,1618.28Z"/><path class="cls-3" d="M1631.66,1624.47c7-3.63,5.91-49.2-8.69-49.37C1617,1575,1619.72,1630.65,1631.66,1624.47Z"/><polygon class="cls-3" points="1612.4 1551.07 1623.52 1557.35 1627.96 1570.05 1625.55 1578.52 1618.88 1574.58 1618.52 1564.84 1610.71 1555.83 1612.4 1551.07"/><polygon class="cls-4" points="1627.34 1600.59 1638.46 1606.87 1642.91 1619.57 1640.5 1628.04 1633.83 1624.1 1633.46 1614.36 1625.66 1605.35 1627.34 1600.59"/><path class="cls-4" d="M1706.18,1699.43c-7.78,8.8-47.31,1-53-31.37C1650.53,1652.77,1719.8,1684,1706.18,1699.43Z"/><path class="cls-4" d="M1635.81,1621.26c-7.18,7.15,12.25,59.65,30.28,53.72C1673.51,1672.54,1648.05,1609.07,1635.81,1621.26Z"/></g><g id="Layer_12" data-name="Layer 12"><rect class="cls-1" x="650.87" y="1439.02" width="648.64" height="718.1"/><path class="cls-2" d="M914.71,1804.2c-106.52,0-192.86,2.9-192.86,6.47,0,1.56,16.41,3,43.75,4.11h0c-4.66,17.56-27.45,19.45-27.45,19.45-.09.72-1.66,1.9,0,1.81,43.12-2.3,50-20.48,50-20.48h0c33.88,1,78.14,1.58,126.58,1.58,106.52,0,192.86-2.89,192.86-6.47S1021.23,1804.2,914.71,1804.2Z"/><path class="cls-3" d="M861.69,1794.15c-14.48-11.81-31.19-25.57-26.33-31.16s29.45-.88,43.92,10.92,22.28,25.91,17.42,31.5S876.16,1806,861.69,1794.15Z"/><path class="cls-3" d="M964.92,1609.16s-3.11,12.51-35.82-.61l-42.84,78.38s14.67,20.92,47.37,34c0,0,46.33-58.93,66.51-67.79,0,0-23.35-13.43-14.08-34l-19.13-13.75Z"/><path class="cls-4" d="M981.06,1571.8l-7.53,10.48s-9.61-1-5.89,8.2l-5.24,7.29,8.36,21.54,25.45,2.06,4.75-6.61s9.28,3.91,6.38-6.47l12.43-17.31-18.61-26.49Z"/><path class="cls-5" d="M975.82,1579.09s-6.59-9.57,13.59-18.91c0,0,7.13-8,25.7,8.46,0,0,14.4,4.47,18.25,1,0,0-4.22,7.33-14.42,5.18,0,0,9.93,5.07,16.86-.32,0,0,3,4.91-13.85,7.66,0,0,10.3,2.57,15.87,1.74s-13.81,7-13.81,7l-11.61,12.72,1.76-12.54s-24.63-3.2-19.46-21.93Z"/><path d="M981.4,1586c2.61-4.08,8.92-3.72,13.09,8.6l2.45,1.84s15.18.64,13.39,7.81c-.48,1.91-6.4,9.65-14.47-6.5l-2.47-1.61S975.91,1594.57,981.4,1586Z"/><path class="cls-6" d="M994.7,1607.46c-.34.46-1.83,0-3.34-1.13s-2.46-2.33-2.13-2.8,1.5.5,3,1.59S995,1607,994.7,1607.46Z"/><path class="cls-8" d="M915.54,1781.58c2.15-4.2-4.09-13.51-14.13-18.09s-21.54-4.63-23.7-.43,6.81,7.94,16.85,12.52S913.38,1785.78,915.54,1781.58Z"/><ellipse class="cls-6" cx="922.37" cy="1642.11" rx="1.26" ry="2.9" transform="translate(-949.41 1433.01) rotate(-54.3)"/><ellipse class="cls-6" cx="963.53" cy="1670.13" rx="1.26" ry="2.9" transform="translate(-955.03 1478.11) rotate(-54.3)"/><ellipse class="cls-3" cx="817.57" cy="1713.68" rx="28.39" ry="11.04" transform="translate(-1069.63 1504.82) rotate(-58.18)"/><ellipse class="cls-3" cx="901.94" cy="1764.62" rx="43.04" ry="16.98" transform="translate(-1052.14 2094.69) rotate(-72.51)"/><path class="cls-3" d="M862.61,1686.2c17.7,5.47,29.45,16.48,26.26,24.61s-19.5,12-37.2,6.56-30.08-18.24-26.89-26.36S844.91,1680.73,862.61,1686.2Z"/><path class="cls-9" d="M890.91,1680.36s6.1,16.8,47.32,34l-22.11,66.26s-13.56-27.18-38.41-17.56l11.75-27.48-20.78-8.81s1.53-36.33-13.93-43.1c0,0,7.33.4,20,2.34C879.19,1686.7,884.75,1683.46,890.91,1680.36Z"/><path class="cls-10" d="M882.19,1684.05s14.59,25.49,53,40.1l3.43-10.29s-30.49-10.14-47.32-34Z"/><line class="cls-11" x1="890.9" y1="1683.23" x2="886.56" y2="1686.55"/><line class="cls-11" x1="898.24" y1="1691.5" x2="894.19" y2="1695.22"/><line class="cls-11" x1="901.56" y1="1694.72" x2="898.02" y2="1698.94"/><line class="cls-11" x1="923.22" y1="1711.08" x2="920.08" y2="1715.6"/><line class="cls-11" x1="919.37" y1="1708.84" x2="916.23" y2="1713.36"/><line class="cls-11" x1="927.78" y1="1712.71" x2="924.64" y2="1717.23"/><line class="cls-11" x1="932.31" y1="1715.12" x2="929.17" y2="1719.64"/><line class="cls-11" x1="894.48" y1="1687.71" x2="890.43" y2="1691.42"/><ellipse class="cls-12" cx="905.16" cy="1702.49" rx="1.74" ry="1.16" transform="translate(-981 1302.27) rotate(-50.02)"/><ellipse class="cls-12" cx="911.8" cy="1707.43" rx="1.74" ry="1.16" transform="translate(-982.41 1309.13) rotate(-50.02)"/><path class="cls-12" d="M891.4,1718s1.82-12.2,13.33-15.89l.32,1s-10.7,2.89-12.75,14.5S891.4,1718,891.4,1718Z"/><path class="cls-12" d="M900.75,1721.56s10.44-3.38,11.79-14l-.92-.14A16.26,16.26,0,0,1,901,1720.72C891.08,1724.22,900.75,1721.56,900.75,1721.56Z"/><path class="cls-3" d="M803.78,1734.4c-5.87-4.22-13.22-4-16.43.44l21.25,15.26C811.8,1745.64,809.64,1738.61,803.78,1734.4Z"/><rect class="cls-12" x="796.29" y="1729.4" width="3.37" height="26.16" transform="translate(-1082.73 1373.79) rotate(-54.3)"/><path class="cls-13" d="M808.78,1739.37s-10.56-3.17-13.15-.89,2.73-5.09-1.14-6.93"/><path class="cls-7" d="M977.2,1604.81c-2.64-1.89-5.78-2-7-.3l9.55,6.86C981,1609.64,979.84,1606.71,977.2,1604.81Z"/><path class="cls-3" d="M937.59,1618.63c-2.07,12.37-42.35,27.61-65.76,1.52C860.76,1607.81,941.22,1597,937.59,1618.63Z"/><path class="cls-3" d="M827.72,1588.34c-2.46,10.55,44.84,47.14,57.83,31.57C890.89,1613.51,831.91,1570.37,827.72,1588.34Z"/><path class="cls-3" d="M839.22,1770.72c1.7-7-1.26-13.76-6.59-15l-6.15,25.42C831.82,1782.38,837.52,1777.74,839.22,1770.72Z"/><rect class="cls-12" x="816.47" y="1766.7" width="26.16" height="3.37" transform="translate(-1084.29 2158.92) rotate(-76.4)"/><path class="cls-13" d="M836.49,1777.22s-1-11-4.13-12.51,5.75.62,6-3.66"/><path class="cls-4" d="M1004.26,1659.63c-2,12.39-42.21,27.82-65.75,1.85C927.38,1649.19,1007.78,1637.94,1004.26,1659.63Z"/><path class="cls-4" d="M894.83,1631.22c-2.41,10.56,45.07,46.92,58,31.29C958.13,1656.08,898.94,1613.23,894.83,1631.22Z"/><polygon class="cls-4" points="905.29 1633.55 905.84 1623.1 894.36 1613 879.67 1607.77 882.39 1615.73 889.83 1623.04 898.25 1635.19 905.29 1633.55"/><polygon class="cls-3" points="833.57 1591.69 834.11 1581.24 822.63 1571.15 807.94 1565.91 810.66 1573.87 818.1 1581.18 826.52 1593.33 833.57 1591.69"/></g><g id="Layer_11" data-name="Layer 11"><rect class="cls-1" x="2.03" y="1439.33" width="648.64" height="718.1"/><path class="cls-2" d="M265.87,1803.55c-106.51,0-192.86,2.9-192.86,6.47,0,1.56,16.41,3,43.75,4.11h0c-4.66,17.56-27.44,19.45-27.44,19.45-.09.72-1.66,1.9,0,1.81,43.12-2.3,50-20.48,50-20.48h0c33.87,1,78.14,1.58,126.57,1.58,106.52,0,192.87-2.89,192.87-6.47S372.39,1803.55,265.87,1803.55Z"/><path class="cls-3" d="M265.1,1570.25s-.3,12.88-35.08,7.25l-24.61,85.88s18.9,17.19,53.69,22.81c0,0,32.27-67.65,50-80.72,0,0-25.72-8-21.2-30.11l-21.68-9.21Z"/><path class="cls-4" d="M238.31,1576.42c-11.27-3.3-40.54,24.41-28.1,54.78C216.09,1645.56,258.05,1582.2,238.31,1576.42Z"/><path class="cls-4" d="M272.65,1530.25l-5,11.88s-9.61,1.1-4,9.29l-3.51,8.26L273,1578.87l25.29-3.58,3.18-7.49s9.91,1.78,4.8-7.71l8.34-19.61-24-21.77Z"/><path class="cls-4" d="M218.12,1680.3c-9.89-2.23-21.42-57-3-61.6C222.69,1616.81,235,1684.09,218.12,1680.3Z"/><path class="cls-5" d="M269.14,1538.51s-8.53-7.89,9.1-21.42c0,0,5.2-9.37,26.93,2.61,0,0,15,1.2,18-3,0,0-2.52,8.07-12.94,8.21,0,0,10.8,2.76,16.38-4,0,0,4,4.13-11.83,10.51,0,0,10.61.25,15.87-1.78s-11.94,9.85-11.94,9.85l-8.54,15-1-12.63s-24.74,2.28-23.81-17.13Z"/><path d="M274.57,1543.35c1.64-4.55,8.1-5.48,15.35,5.82l2.93,1.32s15.51-2.47,15.46,5c0,2-4.11,10.83-16.23-3.46l-2.9-1.08S271.12,1553,274.57,1543.35Z"/><path class="cls-6" d="M290.91,1562.26c-.22.52-1.79.35-3.5-.37s-2.91-1.74-2.69-2.27,1.57.16,3.28.89S291.13,1561.73,290.91,1562.26Z"/><path class="cls-8" d="M195.45,1732.22c1.21-4-6.63-11.74-17.14-15s-21.51-2.27-22.72,1.68,8.1,6.52,18.61,9.74S194.24,1736.17,195.45,1732.22Z"/><path class="cls-8" d="M255.22,1748.53c1-4-7.39-11.28-18.09-13.8s-21.61-.84-22.56,3.18,8.51,6,19.22,8.48S254.28,1752.55,255.22,1748.53Z"/><ellipse class="cls-6" cx="277.12" cy="1630.04" rx="1.26" ry="2.9" transform="translate(-1331.46 1247.54) rotate(-66.98)"/><ellipse class="cls-6" cx="244.21" cy="1615.37" rx="1.26" ry="2.9" transform="translate(-1338 1208.32) rotate(-66.98)"/><ellipse class="cls-3" cx="224.64" cy="1771.93" rx="34.75" ry="12.04" transform="translate(-1241.23 751.42) rotate(-47.93)"/><ellipse class="cls-3" cx="165.42" cy="1747.05" rx="32.97" ry="12.18" transform="translate(-1539.24 1330.27) rotate(-70.85)"/><ellipse class="cls-3" cx="239.83" cy="1727.21" rx="33.62" ry="16.72" transform="translate(-1492 1930.94) rotate(-88.8)"/><ellipse class="cls-3" cx="186.4" cy="1712.62" rx="33.16" ry="15.83" transform="translate(-1209.82 703.47) rotate(-47.93)"/><path class="cls-9" d="M205.5,1663.15S215.66,1677,259.19,1686l-3.66,61.63s-19.93-21.88-41-9.69l4-26-23.08,20.26s-12.73-21.66-39.86-13.28C155.59,1718.94,198.08,1677.27,205.5,1663.15Z"/><path class="cls-10" d="M199.76,1671.29s33,21.74,59.07,23.75l.57-9.56s-31.52-4.35-53.69-22.82Z"/><line class="cls-11" x1="207.53" y1="1668.02" x2="204.62" y2="1671.84"/><line class="cls-11" x1="217.06" y1="1673.61" x2="214.55" y2="1677.7"/><line class="cls-11" x1="221.19" y1="1675.68" x2="219.32" y2="1680.1"/><line class="cls-11" x1="246.36" y1="1686.04" x2="244.96" y2="1690.64"/><line class="cls-11" x1="242.06" y1="1684.94" x2="240.65" y2="1689.53"/><line class="cls-11" x1="251.12" y1="1686.48" x2="249.71" y2="1691.07"/><line class="cls-11" x1="256.11" y1="1687.59" x2="254.7" y2="1692.18"/><line class="cls-11" x1="212.33" y1="1671.13" x2="209.81" y2="1675.22"/><ellipse class="cls-12" cx="227.1" cy="1681.63" rx="1.52" ry="1.16" transform="translate(-1409.4 1232.92) rotate(-66.98)"/><ellipse class="cls-12" cx="234.88" cy="1684.48" rx="1.52" ry="1.16" transform="translate(-1407.28 1241.81) rotate(-66.98)"/><path class="cls-12" d="M219.22,1697.93s-2.36-11,7.07-16.64l.62.79s-8.94,4.81-7,15.31S219.22,1697.93,219.22,1697.93Z"/><path class="cls-12" d="M229,1699s8.54-5.17,6.25-14.71l-.89.08s2.54,8.69-5.44,13.86S229,1699,229,1699Z"/><path class="cls-3" d="M155,1776.71c6.65,2.83,10.3,9.22,8.15,14.27l-24.07-10.23C141.27,1775.7,148.4,1773.89,155,1776.71Z"/><rect class="cls-12" x="149.47" y="1772.79" width="3.37" height="26.16" transform="translate(-1551.57 1226.49) rotate(-66.98)"/><path class="cls-13" d="M148.2,1775s8.18,7.38,7.58,10.78,2.93-5,6.52-2.63"/><path class="cls-3" d="M206.22,1792.92c7.22.21,12.95,4.82,12.79,10.31l-26.14-.73C193,1797,199,1792.72,206.22,1792.92Z"/><rect class="cls-12" x="204.26" y="1789.79" width="3.37" height="26.16" transform="translate(-1601.97 1958.4) rotate(-88.4)"/><path class="cls-13" d="M213.76,1794.44s-10.51,3.3-11.38,6.64-.59-5.75-4.83-5.11"/><path class="cls-7" d="M276.12,1563.31c-3-1.27-6.08-.72-6.91,1.24l10.82,4.6C280.86,1567.19,279.11,1564.58,276.12,1563.31Z"/><path class="cls-3" d="M320.65,1661.59c11.88-6.67.49-65.36-25.85-61.48C284,1601.71,300.42,1672.94,320.65,1661.59Z"/><path class="cls-3" d="M313.85,1648.05c-9.59,4.47-10.69,65.57,8.86,66.62C330.74,1715.1,330.19,1640.44,313.85,1648.05Z"/><polygon class="cls-3" points="332.06 1743.23 337.72 1727.08 330.98 1710.34 321.06 1703.93 317.82 1713.79 326.06 1723.94 326.15 1739.92 332.06 1743.23"/><polygon class="cls-4" points="216.03 1672.31 226.42 1673.63 234.31 1686.72 236.85 1702.11 229.5 1698.02 223.62 1689.4 213.17 1678.95 216.03 1672.31"/></g><g id="Layer_5" data-name="Layer 5"><rect class="cls-1" x="1299.5" y="721.04" width="648.64" height="718.1"/><ellipse class="cls-3" cx="1526.88" cy="1072.56" rx="13.96" ry="12.7" transform="translate(-313.41 764.21) rotate(-25.57)"/><ellipse class="cls-3" cx="1568.04" cy="1073.49" rx="12.7" ry="15.94" transform="translate(-309.78 782.07) rotate(-25.57)"/><path class="cls-3" d="M1537.87,935.84s3,7.76-28.58,14.77l11.49,75.94s22.26,7,53.85,0c0,0,3-62.29,13.34-78.07,0,0-24.73,2.26-28.87-16.15h-21.75Z"/><path class="cls-3" d="M1514.79,950c-12.11-3.29-40.59,37.28-25.06,77.06C1497.08,1045.9,1536,955.78,1514.79,950Z"/><path class="cls-4" d="M1529.84,901.69V913.6s-7.76,4.4,0,9.32v8.28l17.86,11.65,20.2-12.16v-7.51s9.06-2.07,1.29-8.28V895.22L1541,885.38Z"/><path class="cls-3" d="M1607,1019.69c13.78-7.26,2.63-75-27.59-71.39C1567,949.78,1583.54,1032.05,1607,1019.69Z"/><path class="cls-5" d="M1529.84,910s-10.09-3.63,0-21.49c0,0,1-9.84,23.82-7.51,0,0,13.2-4.4,14.24-9.06,0,0,.77,7.77-8,11.65,0,0,10.18-1.55,12.47-9.32,0,0,4.88,2.07-6.26,13.2,0,0,9.11-3.62,12.84-7.24s-6.58,12.68-6.58,12.68l-1.85,15.79-5.44-10.35s-20.19,10.87-26.41-6Z"/><path class="cls-8" d="M1538,1079.9c-.4-3.79-9.38-10.92-19.48-9.86s-18.82,5.59-18.42,9.38,6.47,1.48,16.56.42S1538.43,1083.69,1538,1079.9Z"/><path d="M1529.52,912.12c-.31-4.45,5.89-7.58,18.18-.59l3.56.06s14.76-7.7,17.93-1.36c.84,1.69.5,10.68-18.06,2.92l-3.43.13S1530.17,921.53,1529.52,912.12Z"/><path class="cls-6" d="M1553.14,920.76c0,.53-1.39,1-3.11,1s-3.1-.42-3.1-1,1.39-.43,3.1-.43S1553.14,920.24,1553.14,920.76Z"/><path class="cls-8" d="M1593.84,1071.54c-.65-3.76-10.35-6.92-20.35-5.19s-18.67,7.09-18,10.84,9.39,2,19.39.27S1594.49,1075.29,1593.84,1071.54Z"/><ellipse class="cls-6" cx="1529.51" cy="984.56" rx="2.68" ry="1.16"/><ellipse class="cls-6" cx="1565.97" cy="984.43" rx="2.68" ry="1.16"/><ellipse class="cls-3" cx="1569.96" cy="1062.09" rx="15.44" ry="31.03" transform="translate(-282.35 659.91) rotate(-21.83)"/><ellipse class="cls-3" cx="1523.61" cy="1063.19" rx="30.61" ry="15.87" transform="translate(21.43 2156.45) rotate(-70.95)"/><path class="cls-9" d="M1520.78,1026.68s13.64,6.86,53.85,0l19.21,46.14s-19.19-4.79-38.37,4.78l-5.83-19.69L1538,1080.46s-18.73-13.69-38.83-2.22C1499.16,1078.24,1517.24,1039.07,1520.78,1026.68Z"/><path class="cls-10" d="M1518.14,1034.29s36.55,5.54,59.46-1l-3-7s-28.35,6.49-53.85,0Z"/><line class="cls-11" x1="1524.26" y1="1029.56" x2="1523.16" y2="1033.19"/><line class="cls-11" x1="1534.38" y1="1030.66" x2="1533.71" y2="1034.37"/><line class="cls-11" x1="1538.63" y1="1030.89" x2="1538.63" y2="1034.64"/><line class="cls-11" x1="1563.75" y1="1030.65" x2="1564.22" y2="1034.38"/><line class="cls-11" x1="1559.7" y1="1031.17" x2="1560.16" y2="1034.9"/><line class="cls-11" x1="1567.95" y1="1029.51" x2="1568.42" y2="1033.24"/><line class="cls-11" x1="1572.59" y1="1028.79" x2="1573.05" y2="1032.52"/><line class="cls-11" x1="1529.46" y1="1030.33" x2="1528.8" y2="1034.04"/><ellipse class="cls-12" cx="1545.8" cy="1033.37" rx="1.07" ry="1.18"/><ellipse class="cls-12" cx="1553.43" cy="1033.04" rx="1.07" ry="1.18"/><path class="cls-12" d="M1545,1047.47s-6-7.15,0-14.1l.81.37s-5.86,6.18-.43,13.13S1545,1047.47,1545,1047.47Z"/><path class="cls-12" d="M1553.71,1045.24s5.39-6.32,0-12.48l-.73.34s5.3,5.46.38,11.61S1553.71,1045.24,1553.71,1045.24Z"/><polygon class="cls-3" points="1556.97 1067.47 1568.69 1057.03 1585.06 1056.98 1593.78 1063.23 1586.55 1069.42 1575.24 1065.9 1561.73 1071.37 1556.97 1067.47"/><polygon class="cls-4" points="1474.88 1083.83 1486.64 1075.65 1503.83 1076.51 1513.34 1082.25 1506.08 1087.08 1494 1083.5 1480.11 1087.37 1474.88 1083.83"/><path class="cls-3" d="M1583.15,1066.1c11,2.1,37.74-43,19.53-54.85C1595.19,1006.37,1564.37,1062.52,1583.15,1066.1Z"/><path class="cls-3" d="M1496.7,1079c-11.86-2.15-25.71-63.61-3.61-69.5C1502.17,1007.1,1516.92,1082.67,1496.7,1079Z"/><path class="cls-7" d="M1546.23,928.49c-3.25,0-5.88,1.72-5.88,3.84h11.76C1552.11,930.21,1549.47,928.49,1546.23,928.49Z"/><path class="cls-2" d="M1563.3,1086.19c-106.52,0-192.87,2.9-192.87,6.47,0,1.56,16.42,3,43.75,4.1h0c-4.65,17.57-27.44,19.46-27.44,19.46-.09.72-1.66,1.9,0,1.81,43.12-2.3,50-20.49,50-20.49h0c33.87,1,78.14,1.59,126.58,1.59,106.51,0,192.86-2.9,192.86-6.47S1669.81,1086.19,1563.3,1086.19Z"/></g><g id="Layer_6" data-name="Layer 6"><rect class="cls-1" x="650.87" y="721.04" width="648.64" height="718.1"/><path class="cls-3" d="M882.93,1090.53c-11.1-.61-23.94-1.42-23.32-8.8s14.47-18.53,25.56-17.92,19.58,7.09,19,14.46S894,1091.14,882.93,1090.53Z"/><path class="cls-3" d="M845,879.09s4.77,12-29.45,20.4l10.94,88.66s24.12,8.43,58.34,0c0,0,3.23-74.89,14.45-93.86,0,0-26.79,2.71-31.28-19.41H844.47Z"/><path class="cls-3" d="M819.39,899c-12.28-2.58-41.16,29.36-25.41,60.67C801.43,974.48,840.89,903.53,819.39,899Z"/><path class="cls-4" d="M836.33,839.33v12.91s-8.41,4.76,0,10.09v9l19.36,12.62,21.87-13.18v-8.14s9.82-2.24,1.41-9V832.32l-30.58-10.66Z"/><path class="cls-3" d="M806.47,1011.32c-10.72-1.56-27.53-59-8.3-65.37C806.08,943.32,824.73,1014,806.47,1011.32Z"/><path class="cls-5" d="M836.33,848.31s-10.93-3.93,0-23.28c0,0,1.13-10.66,25.81-8.13,0,0,14.3-4.77,15.42-9.82,0,0,.84,8.41-8.69,12.62,0,0,11-1.68,13.5-10.1,0,0,5.29,2.25-6.77,14.31,0,0,9.86-3.93,13.91-7.86s-7.14,13.75-7.14,13.75l-2,17.11-5.89-11.22s-21.88,11.78-28.61-6.45Z"/><path d="M836,850.64c-.33-4.84,6.38-8.22,19.71-.65l3.85.06s16-8.33,19.43-1.47c.91,1.83.54,11.58-19.57,3.16l-3.71.14S836.69,860.83,836,850.64Z"/><path class="cls-6" d="M861.58,860c0,.57-1.51,1-3.37,1s-3.36-.46-3.36-1,1.5-.46,3.36-.46S861.58,859.43,861.58,860Z"/><path class="cls-8" d="M905.53,1047.93c-.71-4.67-11.2-8.59-22-6.45s-20.2,8.81-19.5,13.48,10.16,2.48,21,.34S906.23,1052.6,905.53,1047.93Z"/><ellipse class="cls-6" cx="829.7" cy="930.68" rx="2.9" ry="1.26"/><ellipse class="cls-6" cx="879.47" cy="929.42" rx="2.9" ry="1.26"/><ellipse class="cls-3" cx="786.35" cy="1049.96" rx="11.04" ry="28.39" transform="matrix(1, -0.07, 0.07, 1, -69.18, 55.56)"/><ellipse class="cls-3" cx="884.59" cy="1042.09" rx="16.98" ry="43.04" transform="translate(-281.38 328.66) rotate(-18.21)"/><path class="cls-3" d="M806.89,1001.35c17.56-5.88,33.54-3.79,35.69,4.67s-8.82,21.14-26.39,27-35.07,2.75-37.21-5.72S789.33,1007.24,806.89,1001.35Z"/><path class="cls-9" d="M826.46,980.1s14.76,10.08,58.28,0l20.7,66.71S878.57,1032.65,864,1055l-6.49-29.17-22,5s-20-30.39-36.47-26.87c0,0,6.18-4,17.6-9.76C820.64,992.09,823.28,986.21,826.46,980.1Z"/><path class="cls-10" d="M821.54,988.18s26.72,12.19,66.41,1.66l-3.21-10.36s-30.68,9.56-58.28,0Z"/><line class="cls-11" x1="828.13" y1="982.43" x2="826.55" y2="987.67"/><line class="cls-11" x1="838.92" y1="984.87" x2="837.8" y2="990.25"/><line class="cls-11" x1="843.49" y1="985.55" x2="843.08" y2="991.04"/><line class="cls-11" x1="870.63" y1="986.19" x2="870.72" y2="991.69"/><line class="cls-11" x1="866.2" y1="986.63" x2="866.29" y2="992.13"/><line class="cls-11" x1="875.28" y1="984.86" x2="875.37" y2="990.36"/><line class="cls-11" x1="880.37" y1="984.17" x2="880.46" y2="989.68"/><line class="cls-11" x1="833.65" y1="983.99" x2="832.53" y2="989.36"/><ellipse class="cls-12" cx="850.95" cy="989.76" rx="1.74" ry="1.16" transform="translate(-199.57 1764.45) rotate(-85.72)"/><ellipse class="cls-12" cx="859.23" cy="989.89" rx="1.74" ry="1.16" transform="translate(-192.04 1772.82) rotate(-85.72)"/><path class="cls-12" d="M848.84,1010.39s-5.64-11,1.54-20.69l.84.62s-7,8.59-1.9,19.21S848.84,1010.39,848.84,1010.39Z"/><path class="cls-12" d="M858.5,1007.81s6.51-8.83,1.37-18.29L859,990a16.26,16.26,0,0,1-.86,17.06C852.2,1015.62,858.5,1007.81,858.5,1007.81Z"/><path class="cls-3" d="M787.23,1074.82c-7.22,0-13.07,4.46-13.07,10h26.15C800.31,1079.28,794.46,1074.82,787.23,1074.82Z"/><rect class="cls-12" x="774.16" y="1083.09" width="26.16" height="3.37"/><path class="cls-13" d="M794.19,1075.94s-10.41,3.59-11.19,7-.75-5.73-5-5"/><polygon class="cls-4" points="796.85 1002.47 801.99 994.92 812.7 994.53 818.27 998.94 812.83 1006.77 805.21 1010.41 799.37 1007.65 796.85 1002.47"/><path class="cls-7" d="M852.46,868.39c-3.24,0-5.88,1.73-5.88,3.85h11.76C858.34,870.12,855.71,868.39,852.46,868.39Z"/><path class="cls-2" d="M914.24,1084.54c-106.52,0-192.86,2.89-192.86,6.47,0,1.56,16.41,3,43.75,4.1h0c-4.66,17.57-27.44,19.46-27.44,19.46-.1.72-1.66,1.9,0,1.81,43.11-2.3,50-20.49,50-20.49h0c33.87,1,78.13,1.59,126.57,1.59,106.52,0,192.86-2.9,192.86-6.47S1020.76,1084.54,914.24,1084.54Z"/><path class="cls-3" d="M895.14,893.83c12.28-2.59,41.16,29.35,25.41,60.67C913.1,969.31,873.64,898.35,895.14,893.83Z"/><path class="cls-3" d="M907,1007.17c10.72-1.55,27.53-58.94,8.29-65.36C907.41,939.17,888.77,1009.82,907,1007.17Z"/><polygon class="cls-3" points="912.94 1009.54 907.8 1001.99 897.09 1001.61 891.51 1006.01 896.95 1013.85 904.58 1017.48 910.42 1014.73 912.94 1009.54"/></g><g id="Layer_7" data-name="Layer 7"><rect class="cls-1" x="2.23" y="721.04" width="648.64" height="718.1"/><path class="cls-2" d="M266,1085.09c-106.51,0-192.86,2.89-192.86,6.47,0,1.56,16.41,3,43.75,4.1h0c-4.66,17.57-27.44,19.46-27.44,19.46-.1.72-1.66,1.9,0,1.81,43.11-2.31,50-20.49,50-20.49h0c33.87,1,78.13,1.59,126.57,1.59,106.52,0,192.87-2.9,192.87-6.47S372.54,1085.09,266,1085.09Z"/><path class="cls-3" d="M196.81,840.29s4.77,12-29.45,20.4l10.94,88.66s24.12,8.43,58.34,0c0,0,3.23-74.89,14.45-93.86,0,0-26.79,2.71-31.28-19.41H196.25Z"/><path class="cls-3" d="M171.17,860.2c-12.28-2.58-41.16,29.36-25.41,60.67C153.21,935.68,192.67,864.73,171.17,860.2Z"/><path class="cls-4" d="M188.12,800.53v12.9s-8.42,4.77,0,10.1v9l19.35,12.62L229.34,832v-8.14s9.82-2.24,1.41-9V793.52l-30.57-10.66Z"/><path class="cls-3" d="M158.25,972.51c-10.72-1.55-27.53-58.94-8.3-65.36C157.86,904.52,176.51,975.16,158.25,972.51Z"/><path class="cls-5" d="M188.12,809.51s-10.94-3.93,0-23.28c0,0,1.12-10.66,25.8-8.13,0,0,14.3-4.77,15.42-9.82,0,0,.85,8.41-8.69,12.62,0,0,11-1.68,13.5-10.1,0,0,5.29,2.25-6.77,14.31,0,0,9.86-3.93,13.91-7.86S234.15,791,234.15,791l-2,17.11-5.89-11.22s-21.88,11.78-28.61-6.45Z"/><path d="M187.77,811.83c-.34-4.83,6.38-8.21,19.7-.64l3.85.06s16-8.33,19.43-1.47c.91,1.83.54,11.58-19.57,3.16l-3.71.14S188.47,822,187.77,811.83Z"/><path class="cls-6" d="M213.36,821.19c0,.57-1.51,1-3.37,1s-3.36-.46-3.36-1,1.5-.46,3.36-.46S213.36,820.63,213.36,821.19Z"/><path class="cls-8" d="M196.06,1016.6c-.43-4.1-10.69-8.21-21.63-7.06s-20.68,6.32-20.25,10.43,10,2.83,20.94,1.68S196.49,1020.71,196.06,1016.6Z"/><path class="cls-8" d="M257.45,1008.23c-.7-4.07-11.21-7.49-22-5.62s-20.22,7.68-19.52,11.75,10.17,2.16,21,.29S258.15,1012.3,257.45,1008.23Z"/><ellipse class="cls-6" cx="181.48" cy="891.88" rx="2.9" ry="1.26"/><ellipse class="cls-6" cx="231.26" cy="890.62" rx="2.9" ry="1.26"/><ellipse class="cls-3" cx="238.45" cy="1041.73" rx="34.75" ry="12.04" transform="translate(-824.07 927.19) rotate(-70.95)"/><ellipse class="cls-3" cx="174.22" cy="1042" rx="12.18" ry="32.97" transform="translate(-70.05 14.16) rotate(-3.88)"/><ellipse class="cls-3" cx="234.94" cy="994.63" rx="16.72" ry="33.62" transform="translate(-352.99 158.67) rotate(-21.83)"/><ellipse class="cls-3" cx="180.07" cy="1002.11" rx="33.16" ry="15.83" transform="translate(-825.94 845.31) rotate(-70.95)"/><path class="cls-9" d="M178.3,949.11s14.77,8.78,58.34,0l20.73,58.15s-26.9-12.34-41.49,7.1l-6.5-25.43-13.32,27.67s-20.19-15-41.88,3.37C154.18,1020,177,965,178.3,949.11Z"/><path class="cls-10" d="M176.19,958.84S215,966,239.86,957.6l-3.22-9s-30.71,8.33-58.34,0Z"/><line class="cls-11" x1="182.07" y1="952.79" x2="180.88" y2="957.44"/><line class="cls-11" x1="193.03" y1="954.21" x2="192.31" y2="958.96"/><line class="cls-11" x1="197.64" y1="954.5" x2="197.64" y2="959.3"/><line class="cls-11" x1="224.86" y1="954.19" x2="225.36" y2="958.97"/><line class="cls-11" x1="220.46" y1="954.86" x2="220.97" y2="959.64"/><line class="cls-11" x1="229.41" y1="952.73" x2="229.91" y2="957.51"/><line class="cls-11" x1="234.43" y1="951.8" x2="234.93" y2="956.58"/><line class="cls-11" x1="187.7" y1="953.78" x2="186.98" y2="958.53"/><ellipse class="cls-12" cx="205.4" cy="957.67" rx="1.16" ry="1.52"/><ellipse class="cls-12" cx="213.67" cy="957.25" rx="1.16" ry="1.52"/><path class="cls-12" d="M204.52,975.75s-6.45-9.16,0-18.08l.88.48s-6.35,7.92-.46,16.83S204.52,975.75,204.52,975.75Z"/><path class="cls-12" d="M214,972.89s5.84-8.11,0-16l-.79.42s5.74,7,.41,14.88S214,972.89,214,972.89Z"/><path class="cls-3" d="M176.27,1073.36c7.23,0,13.08,4.45,13.08,9.94H163.2C163.2,1077.81,169.05,1073.36,176.27,1073.36Z"/><rect class="cls-12" x="163.2" y="1081.62" width="26.16" height="3.37"/><path class="cls-13" d="M169.32,1074.48s10.41,3.59,11.19,7,.75-5.73,5-5"/><path class="cls-3" d="M227.32,1073.16c7.23,0,13.08,4.45,13.08,9.95H214.25C214.25,1077.61,220.1,1073.16,227.32,1073.16Z"/><rect class="cls-12" x="214.25" y="1081.42" width="26.16" height="3.37"/><path class="cls-13" d="M234.91,1074.47s-10.42,3.59-11.19,7-.75-5.73-5-5"/><polygon class="cls-3" points="152.34 974.89 157.48 967.33 168.19 966.95 173.76 971.36 168.32 979.19 160.7 982.82 154.86 980.07 152.34 974.89"/><path class="cls-7" d="M204.24,829.59c-3.24,0-5.88,1.73-5.88,3.85h11.76C210.12,831.32,207.49,829.59,204.24,829.59Z"/><path class="cls-3" d="M311.06,873c-1.63-13.8-68.26-31.33-76.07-5.88C231.77,877.61,313.83,896.53,311.06,873Z"/><path class="cls-3" d="M295.91,880.81c8.72,6,61.95-24,52.94-41.41C345.15,832.26,281.07,870.58,295.91,880.81Z"/><polygon class="cls-3" points="366.89 820.06 366.32 835.34 356.42 844.91 347.19 844.93 347.7 835.72 356.78 831.97 361.55 819.68 366.89 820.06"/></g><g id="Layer_3" data-name="Layer 3"><rect class="cls-1" x="1299.25" y="3.22" width="648.64" height="718.1"/><polygon class="cls-3" points="1544.18 61.59 1549.32 54.04 1560.03 53.66 1565.61 58.06 1560.17 65.9 1552.55 69.53 1546.7 66.78 1544.18 61.59"/><path class="cls-2" d="M1565.4,365.94c-106.51,0-192.86,2.89-192.86,6.47,0,1.56,16.41,3,43.75,4.1h0c-4.66,17.57-27.44,19.46-27.44,19.46-.09.72-1.66,1.9,0,1.81,43.12-2.31,50-20.49,50-20.49h0c33.87,1,78.14,1.59,126.57,1.59,106.52,0,192.87-2.9,192.87-6.47S1671.92,365.94,1565.4,365.94Z"/><path class="cls-3" d="M1493.09,106.64s4.76,12-29.45,20.41l10.94,88.65s24.12,8.43,58.33,0c0,0,3.24-74.89,14.46-93.85,0,0-26.8,2.71-31.28-19.42h-23.56Z"/><path class="cls-3" d="M1467.45,126.56c-12.28-2.59-41.16,29.35-25.41,60.67C1449.49,202,1489,131.08,1467.45,126.56Z"/><path class="cls-4" d="M1484.39,66.89v12.9s-8.41,4.77,0,10.09v9l19.35,12.62,21.88-13.18V90.17s9.82-2.25,1.4-9V59.87l-30.57-10.65Z"/><path class="cls-3" d="M1595.73,107.91c-9.67-10.69-73.72,14.7-64.56,41C1534.93,159.67,1612.2,126.14,1595.73,107.91Z"/><path class="cls-3" d="M1552.84,64.08c-5.44,9.08,27.92,60.29,44.7,50.19C1604.43,110.12,1562.1,48.62,1552.84,64.08Z"/><path class="cls-3" d="M1454.53,238.87c-10.72-1.56-27.54-59-8.3-65.36C1454.14,170.87,1472.79,241.52,1454.53,238.87Z"/><path class="cls-5" d="M1484.39,75.86s-10.94-3.93,0-23.28c0,0,1.12-10.66,25.81-8.13,0,0,14.3-4.77,15.42-9.82,0,0,.84,8.42-8.69,12.62,0,0,11-1.68,13.5-10.09,0,0,5.29,2.24-6.77,14.3,0,0,9.86-3.93,13.9-7.85s-7.13,13.74-7.13,13.74l-2,17.11-5.89-11.22s-21.88,11.78-28.61-6.45Z"/><path d="M1484,78.19c-.33-4.83,6.38-8.22,19.7-.65l3.86.06s16-8.33,19.42-1.46c.92,1.82.55,11.57-19.56,3.16l-3.72.14S1484.74,88.38,1484,78.19Z"/><path class="cls-6" d="M1509.63,87.55c0,.57-1.5,1-3.36,1s-3.37-.46-3.37-1,1.51-.47,3.37-.47S1509.63,87,1509.63,87.55Z"/><path class="cls-8" d="M1492.34,283c-.43-4.11-10.69-8.21-21.63-7.07s-20.69,6.33-20.25,10.43,10,2.84,20.94,1.69S1492.77,287.07,1492.34,283Z"/><path class="cls-8" d="M1553.73,274.58c-.7-4.07-11.21-7.48-22-5.61s-20.22,7.67-19.52,11.74,10.17,2.17,21,.3S1554.43,278.65,1553.73,274.58Z"/><ellipse class="cls-6" cx="1477.75" cy="158.23" rx="2.9" ry="1.26"/><ellipse class="cls-6" cx="1527.53" cy="156.97" rx="2.9" ry="1.26"/><ellipse class="cls-3" cx="1545.08" cy="319.03" rx="12.04" ry="38.3"/><ellipse class="cls-3" cx="1472.8" cy="318.91" rx="13.76" ry="38.72" transform="translate(-18.19 100.3) rotate(-3.88)"/><ellipse class="cls-3" cx="1531.22" cy="260.98" rx="16.72" ry="33.62" transform="translate(12.75 588.07) rotate(-21.83)"/><ellipse class="cls-3" cx="1476.35" cy="268.46" rx="33.16" ry="15.83" transform="translate(740.82 1576.38) rotate(-70.95)"/><path class="cls-9" d="M1474.58,215.46s14.77,8.79,58.33,0l20.74,58.15s-26.91-12.34-41.49,7.1l-6.5-25.42L1492.34,283s-20.19-15-41.88,3.36C1450.46,286.32,1473.27,231.35,1474.58,215.46Z"/><path class="cls-10" d="M1472.47,225.19s38.85,7.12,63.66-1.24l-3.22-9s-30.71,8.33-58.33,0Z"/><line class="cls-11" x1="1478.35" y1="219.14" x2="1477.16" y2="223.8"/><line class="cls-11" x1="1489.31" y1="220.56" x2="1488.59" y2="225.31"/><line class="cls-11" x1="1493.92" y1="220.85" x2="1493.92" y2="225.65"/><line class="cls-11" x1="1521.13" y1="220.55" x2="1521.64" y2="225.32"/><line class="cls-11" x1="1516.74" y1="221.21" x2="1517.24" y2="225.99"/><line class="cls-11" x1="1525.68" y1="219.08" x2="1526.18" y2="223.86"/><line class="cls-11" x1="1530.71" y1="218.16" x2="1531.21" y2="222.93"/><line class="cls-11" x1="1483.98" y1="220.13" x2="1483.26" y2="224.88"/><ellipse class="cls-12" cx="1501.68" cy="224.02" rx="1.16" ry="1.52"/><ellipse class="cls-12" cx="1509.95" cy="223.6" rx="1.16" ry="1.52"/><path class="cls-12" d="M1500.8,242.1s-6.45-9.16,0-18.08l.88.48s-6.35,7.93-.46,16.83S1500.8,242.1,1500.8,242.1Z"/><path class="cls-12" d="M1510.26,239.24s5.83-8.1,0-16l-.8.43s5.75,7,.42,14.88S1510.26,239.24,1510.26,239.24Z"/><path class="cls-3" d="M1475.66,354.21c7.22,0,13.08,4.45,13.08,9.94h-26.16C1462.58,358.66,1468.43,354.21,1475.66,354.21Z"/><rect class="cls-12" x="1462.58" y="362.47" width="26.16" height="3.37"/><path class="cls-13" d="M1468.7,355.33s10.42,3.59,11.19,6.95.75-5.73,5-5"/><path class="cls-3" d="M1546.38,354c7.22,0,13.08,4.45,13.08,9.95H1533.3C1533.3,358.46,1539.16,354,1546.38,354Z"/><rect class="cls-12" x="1533.3" y="362.27" width="26.16" height="3.37"/><path class="cls-13" d="M1554,355.32s-10.42,3.59-11.2,6.95-.75-5.73-5-5"/><polygon class="cls-3" points="1448.61 241.24 1453.75 233.69 1464.46 233.3 1470.04 237.71 1464.6 245.54 1456.98 249.18 1451.14 246.42 1448.61 241.24"/><path class="cls-7" d="M1500.52,96c-3.25,0-5.88,1.72-5.88,3.84h11.76C1506.4,97.67,1503.77,96,1500.52,96Z"/></g><g id="Layer_2" data-name="Layer 2"><rect class="cls-1" x="651.29" y="2.94" width="648.64" height="718.1"/><path class="cls-2" d="M915.44,367.85c-106.52,0-192.87,2.9-192.87,6.48,0,1.55,16.42,3,43.75,4.1h0c-4.65,17.57-27.44,19.45-27.44,19.45-.09.72-1.66,1.9,0,1.82,43.12-2.31,50-20.49,50-20.49h0c33.87,1,78.14,1.59,126.58,1.59,106.51,0,192.86-2.9,192.86-6.47S1022,367.85,915.44,367.85Z"/><path class="cls-3" d="M843.12,113.74s3.26,9.33-31,17.76l12.45,91.3s24.12,8.42,58.34,0c0,0,3.23-74.89,14.45-93.86,0,0-26.8,2.71-31.28-19.42H842.56Z"/><path class="cls-3" d="M816.07,131c-12.28-2.59-41.16,29.35-25.41,60.67C798.11,206.5,837.57,135.54,816.07,131Z"/><path class="cls-4" d="M834.42,74v12.9s-8.41,4.77,0,10.1v9l19.36,12.63,21.87-13.19V97.26s9.82-2.24,1.41-9V67L846.48,56.31Z"/><path class="cls-3" d="M949.93,148.22c-1.46-14.35-68.13-31.77-76.28-5.19C870.3,154,952.42,172.65,949.93,148.22Z"/><path class="cls-3" d="M937.34,155.7c8.71,6,61.94-24,52.94-41.41C986.57,107.15,922.5,145.47,937.34,155.7Z"/><path class="cls-4" d="M843,228c-9.43,5.57-61.91-29.28-51.3-46.56C796.07,174.3,859.07,218.49,843,228Z"/><path class="cls-5" d="M834.42,83s-10.93-3.93,0-23.28c0,0,1.13-10.66,25.81-8.14,0,0,14.3-4.76,15.42-9.81,0,0,.84,8.41-8.69,12.62,0,0,11-1.69,13.5-10.1,0,0,5.29,2.24-6.77,14.3,0,0,9.86-3.92,13.91-7.85s-7.14,13.74-7.14,13.74l-2,17.11-5.89-11.22S850.69,82.11,844,63.88Z"/><path d="M834.07,85.28c-.33-4.83,6.38-8.21,19.71-.64l3.85.06s16-8.34,19.43-1.47c.91,1.83.54,11.58-19.57,3.16l-3.71.14S834.78,95.47,834.07,85.28Z"/><path class="cls-6" d="M859.67,94.64c0,.57-1.51,1-3.37,1s-3.36-.46-3.36-1,1.5-.47,3.36-.47S859.67,94.07,859.67,94.64Z"/><polygon class="cls-7" points="845.74 98.29 843.87 107.64 859.67 104.46 845.74 98.29"/><path class="cls-8" d="M842.37,290.05c-.43-4.11-10.69-8.21-21.63-7.06s-20.68,6.32-20.25,10.43,10,2.83,20.94,1.68S842.8,294.16,842.37,290.05Z"/><path class="cls-8" d="M903.76,281.68c-.7-4.07-11.21-7.49-22-5.62s-20.22,7.68-19.52,11.75,10.17,2.16,21,.29S904.46,285.75,903.76,281.68Z"/><ellipse class="cls-6" cx="827.79" cy="165.33" rx="2.9" ry="1.26"/><ellipse class="cls-6" cx="877.56" cy="164.07" rx="2.9" ry="1.26"/><ellipse class="cls-3" cx="903.77" cy="324.06" rx="12.04" ry="38.3" transform="translate(-54.88 271.07) rotate(-16.56)"/><ellipse class="cls-3" cx="822.84" cy="324.97" rx="13.76" ry="38.72" transform="translate(-48.18 170.04) rotate(-11.46)"/><ellipse class="cls-3" cx="881.25" cy="268.08" rx="16.72" ry="33.62" transform="translate(-36.49 346.9) rotate(-21.83)"/><ellipse class="cls-3" cx="826.38" cy="275.55" rx="33.16" ry="15.83" transform="translate(296.24 966.77) rotate(-70.95)"/><path class="cls-9" d="M824.61,222.55s14.77,8.79,58.34,0l20.73,58.15s-26.9-12.34-41.49,7.11l-6.5-25.43-13.32,27.67s-20.19-15-41.88,3.37C800.49,293.42,823.3,238.45,824.61,222.55Z"/><path class="cls-10" d="M822.5,232.29s38.85,7.12,63.66-1.24L883,222s-30.72,8.33-58.34,0Z"/><line class="cls-11" x1="828.38" y1="226.24" x2="827.19" y2="230.89"/><line class="cls-11" x1="839.34" y1="227.65" x2="838.62" y2="232.4"/><line class="cls-11" x1="843.95" y1="227.94" x2="843.95" y2="232.75"/><line class="cls-11" x1="871.17" y1="227.64" x2="871.67" y2="232.42"/><line class="cls-11" x1="866.77" y1="228.31" x2="867.27" y2="233.08"/><line class="cls-11" x1="875.71" y1="226.18" x2="876.22" y2="230.95"/><line class="cls-11" x1="880.74" y1="225.25" x2="881.24" y2="230.03"/><line class="cls-11" x1="834.01" y1="227.23" x2="833.29" y2="231.98"/><ellipse class="cls-12" cx="851.71" cy="231.12" rx="1.16" ry="1.52"/><ellipse class="cls-12" cx="859.98" cy="230.69" rx="1.16" ry="1.52"/><path class="cls-12" d="M850.83,249.2s-6.45-9.17,0-18.08l.88.48s-6.35,7.92-.46,16.83S850.83,249.2,850.83,249.2Z"/><path class="cls-12" d="M860.29,246.33s5.84-8.1,0-16l-.8.42s5.75,7,.42,14.88S860.29,246.33,860.29,246.33Z"/><path class="cls-3" d="M828.8,356.12c-7.23,0-13.08,4.46-13.08,9.95h26.15C841.87,360.58,836,356.12,828.8,356.12Z"/><rect class="cls-12" x="815.72" y="364.38" width="26.16" height="3.37"/><path class="cls-13" d="M835.76,357.24s-10.42,3.59-11.2,7-.75-5.74-5-5"/><path class="cls-3" d="M916.09,355.93c7.22,0,13.08,4.45,13.08,9.94H903C903,360.38,908.87,355.93,916.09,355.93Z"/><rect class="cls-12" x="903.01" y="364.19" width="26.16" height="3.37"/><path class="cls-13" d="M923.67,357.23s-10.42,3.59-11.19,7-.75-5.74-5-5"/><polygon class="cls-3" points="1005.49 95.15 1004.92 110.42 995.01 119.99 985.79 120.02 986.29 110.8 995.37 107.06 1000.14 94.77 1005.49 95.15"/><polygon class="cls-4" points="865.93 237.27 858.88 223.71 845.83 219.3 837.48 223.23 841.89 231.34 850.02 237.38 861.27 239.9 865.93 237.27"/></g><g id="Layer_13" data-name="Layer 13"><rect class="cls-1" x="3.45" y="3.09" width="648.64" height="718.1"/><path class="cls-2" d="M265.94,365.09c-106.51,0-192.86,2.89-192.86,6.47,0,1.56,16.41,3,43.75,4.1h0c-4.66,17.57-27.44,19.46-27.44,19.46-.1.72-1.66,1.9,0,1.81,43.12-2.31,50-20.49,50-20.49h0c33.87,1,78.14,1.59,126.57,1.59,106.52,0,192.87-2.9,192.87-6.47S372.46,365.09,265.94,365.09Z"/><path class="cls-3" d="M192.59,116.15s3.26,9.33-31,17.76l12.45,91.3s24.12,8.43,58.34,0c0,0,3.23-74.89,14.45-93.86,0,0-26.79,2.71-31.28-19.42H192Z"/><path class="cls-3" d="M165.54,134.46c-12.28-2.58-41.16,29.36-25.41,60.67C147.58,209.94,187,139,165.54,134.46Z"/><path class="cls-4" d="M183.9,78.46v12.9s-8.42,4.77,0,10.1v9l19.35,12.62,21.87-13.19v-8.13s9.82-2.24,1.41-9V71.45L196,60.79Z"/><path class="cls-3" d="M299.4,150.63c-1.46-14.35-68.13-31.77-76.28-5.19C219.77,156.38,301.9,175.06,299.4,150.63Z"/><path class="cls-3" d="M285,149.37c3.19,10.09,63.65,19.06,67.21-.19C353.68,141.27,279.57,132.19,285,149.37Z"/><path class="cls-4" d="M204.56,202.26c-5.15,9.67-68.1,7.3-68.06-13C136.52,181,213.32,185.8,204.56,202.26Z"/><path class="cls-5" d="M183.9,87.44s-10.94-3.93,0-23.28c0,0,1.12-10.66,25.8-8.14,0,0,14.3-4.76,15.42-9.81,0,0,.85,8.41-8.69,12.62,0,0,11-1.68,13.5-10.1,0,0,5.29,2.25-6.77,14.31,0,0,9.86-3.93,13.91-7.86s-7.14,13.75-7.14,13.75l-2,17.1L222,74.82s-21.88,11.78-28.61-6.45Z"/><path d="M183.54,89.76c-.33-4.83,6.39-8.21,19.71-.64l3.85.06s16-8.33,19.43-1.47c.91,1.83.54,11.58-19.57,3.16l-3.71.14S184.25,100,183.54,89.76Z"/><path class="cls-6" d="M209.14,99.12c0,.57-1.51,1-3.37,1s-3.36-.46-3.36-1,1.5-.46,3.36-.46S209.14,98.56,209.14,99.12Z"/><polygon class="cls-7" points="195.21 102.77 193.34 112.12 209.14 108.94 195.21 102.77"/><path class="cls-8" d="M191.84,289.36c-.43-4.11-10.69-8.22-21.63-7.07s-20.68,6.32-20.25,10.43,10,2.83,20.94,1.68S192.27,293.46,191.84,289.36Z"/><path class="cls-8" d="M253.23,281c-.7-4.07-11.21-7.49-22-5.62S211,283,211.66,287.11s10.17,2.17,21,.3S253.93,285.05,253.23,281Z"/><ellipse class="cls-6" cx="177.26" cy="164.63" rx="2.9" ry="1.26"/><ellipse class="cls-6" cx="227.04" cy="163.37" rx="2.9" ry="1.26"/><ellipse class="cls-3" cx="254.27" cy="321.29" rx="12.04" ry="38.3" transform="matrix(0.96, -0.29, 0.29, 0.96, -81.04, 85.81)"/><ellipse class="cls-3" cx="170.24" cy="322.2" rx="13.76" ry="38.72" transform="translate(-84.78 61.89) rotate(-16.56)"/><ellipse class="cls-3" cx="230.72" cy="267.38" rx="16.72" ry="33.62" transform="translate(-82.88 104.96) rotate(-21.83)"/><ellipse class="cls-3" cx="174.81" cy="273.82" rx="33.16" ry="15.83" transform="translate(-149.73 288.3) rotate(-60)"/><path class="cls-9" d="M174.08,221.86s14.77,8.78,58.34,0L253.15,280s-26.9-12.34-41.49,7.1l-6.5-25.43-13.32,27.68s-20.19-15-41.88,3.36C150,292.72,172.77,237.75,174.08,221.86Z"/><path class="cls-10" d="M172,231.59s38.85,7.12,63.67-1.24l-3.22-9s-30.71,8.33-58.34,0Z"/><line class="cls-11" x1="177.85" y1="225.54" x2="176.66" y2="230.2"/><line class="cls-11" x1="188.81" y1="226.96" x2="188.09" y2="231.71"/><line class="cls-11" x1="193.42" y1="227.25" x2="193.42" y2="232.05"/><line class="cls-11" x1="220.64" y1="226.94" x2="221.14" y2="231.72"/><line class="cls-11" x1="216.24" y1="227.61" x2="216.75" y2="232.39"/><line class="cls-11" x1="225.19" y1="225.48" x2="225.69" y2="230.26"/><line class="cls-11" x1="230.21" y1="224.55" x2="230.71" y2="229.33"/><line class="cls-11" x1="183.48" y1="226.53" x2="182.76" y2="231.28"/><ellipse class="cls-12" cx="201.18" cy="230.42" rx="1.16" ry="1.52"/><ellipse class="cls-12" cx="209.45" cy="230" rx="1.16" ry="1.52"/><path class="cls-12" d="M200.3,248.5s-6.45-9.16,0-18.08l.88.48s-6.35,7.93-.46,16.83S200.3,248.5,200.3,248.5Z"/><path class="cls-12" d="M209.76,245.64s5.84-8.11,0-16l-.79.42s5.74,7,.41,14.89S209.76,245.64,209.76,245.64Z"/><path class="cls-3" d="M179.3,353.36c-7.22,0-13.07,4.45-13.07,9.94h26.15C192.38,357.81,186.53,353.36,179.3,353.36Z"/><rect class="cls-12" x="166.23" y="361.62" width="26.16" height="3.37"/><path class="cls-13" d="M186.26,354.48s-10.42,3.59-11.19,6.95-.75-5.73-5-5"/><path class="cls-3" d="M266.59,353.16c7.23,0,13.08,4.45,13.08,9.95H253.52C253.52,357.61,259.37,353.16,266.59,353.16Z"/><rect class="cls-12" x="253.52" y="361.42" width="26.16" height="3.37"/><path class="cls-13" d="M274.18,354.47s-10.42,3.59-11.19,6.95-.75-5.73-5-5"/><polygon class="cls-4" points="201.12 201.12 213.82 189.81 231.55 189.75 241 196.52 233.17 203.23 220.91 199.42 206.28 205.34 201.12 201.12"/><polygon class="cls-3" points="345.94 149.24 357.46 140.56 374.08 141.14 383.17 146.91 376.06 152.04 364.44 148.55 350.93 152.82 345.94 149.24"/></g></svg>
