<svg xmlns="http://www.w3.org/2000/svg" xmlns:xlink="http://www.w3.org/1999/xlink" viewBox="0 0 1024.76 374.6"><defs><style>.cls-1{fill:url(#linear-gradient);}.cls-2{opacity:0.48;}.cls-3{fill:#ebf5fa;}.cls-4{fill:#fafbfc;}.cls-5{fill:#ecf6fb;}.cls-6{fill:#f4fafc;}.cls-7{fill:#f2f6f8;}.cls-8{fill:#a1c0db;}.cls-9{fill:#c0d6e9;}.cls-10{fill:#e2eff9;}.cls-11{fill:#c0e4f9;}.cls-12{fill:#f3f9fd;}.cls-13{fill:#006aa3;}.cls-14{fill:#235b83;}.cls-15{fill:#134365;}.cls-16{fill:#245276;}.cls-17{fill:#1d4d71;}.cls-18{fill:#b3cde4;}.cls-19{fill:#d0e3f1;}.cls-20{fill:#7a8bae;}.cls-21{fill:#1b4a6d;}.cls-22{fill:#176292;}.cls-23{fill:#04669d;}.cls-24{fill:#e0e3eb;}.cls-25{fill:#6697c0;}.cls-26{fill:#8288aa;}.cls-27{fill:#a3d1ec;}.cls-28{fill:#2c6fa0;}.cls-29{fill:#f6fafd;}.cls-30{fill:#83abc4;}.cls-31{fill:#e9f4fa;}.cls-32{fill:#858dad;}.cls-33{fill:#007ab9;}.cls-34{fill:#9a9fbc;}.cls-35{fill:#d3d9e6;}.cls-36{fill:#727599;}.cls-37{fill:#ced5e3;}.cls-38{fill:#777ea2;}.cls-39{fill:#90b6d1;}.cls-40{fill:#026096;}.cls-41{fill:#bdd3e4;}.cls-42{fill:#a7c4d8;}.cls-43{fill:#010e24;}.cls-44{fill:#7ea8c2;}.cls-45{fill:#a8c4d9;}.cls-46{fill:#757b9f;}.cls-47{fill:#76a4bf;}.cls-48{fill:#ebf4f9;}.cls-49{fill:#5b6188;}.cls-50{fill:#195883;}.cls-51{fill:#c6d4e9;}.cls-52{fill:#0065a0;}.cls-53{fill:#a9c6df;}.cls-54{fill:#dae9f4;}.cls-55{fill:#ccdeed;}.cls-56{fill:#076ca4;}.cls-57{fill:#dae8f3;}.cls-58{fill:#0070ac;}.cls-59{fill:#fbfcfd;}.cls-60{fill:#0975b0;}.cls-61{fill:#006a9f;}.cls-62{fill:#3d76a2;}.cls-63{fill:#004e7d;}.cls-64{fill:#005282;}.cls-65{fill:#b1c5dd;}.cls-66{fill:#d6e5f5;}.cls-67{fill:#ebf2fa;}.cls-68{fill:#f9fbfd;}.cls-69{fill:#bad3ed;}.cls-70{fill:#adc9e2;}.cls-71{fill:#c2d8f0;}.cls-72{fill:#cfe0f3;}.cls-73{fill:#fdfefd;}.cls-74{fill:#b9d2ed;}.cls-75{fill:#fdfdfe;}.cls-76{fill:#f5f8fb;}.cls-77{fill:#e6f2fa;}.cls-78{fill:#f8fbfe;}.cls-79{fill:#b7d0e5;}.cls-80{fill:#b6cfe5;}.cls-81{fill:#c1d7e9;}.cls-82{fill:#a1c1dc;}.cls-83{fill:#5e648c;}.cls-84{fill:#565b83;}.cls-85{fill:#b9d1e6;}.cls-86{fill:#b2cce2;}.cls-87{fill:#70799e;}.cls-88{fill:#60678f;}.cls-89{fill:#afcbe2;}.cls-90{fill:#cfe0ef;}.cls-91{fill:#c7dbec;}.cls-92{fill:#d5e5f2;}.cls-93{fill:#f1f5f9;}.cls-94{fill:#fbfcfc;}.cls-95{fill:#a6c4dd;}.cls-96{fill:#8a9fbf;}.cls-97{fill:#646a90;}.cls-98{fill:#6f7599;}.cls-99{fill:#dcebf6;}.cls-100{fill:#e1eef7;}.cls-101{fill:#0a6393;}.cls-102{fill:#0081c5;}.cls-103{fill:#568cbf;}.cls-104{fill:#4a779e;}.cls-105{fill:#315f8a;}.cls-106{fill:#0a2945;}.cls-107{fill:#014e7b;}.cls-108{fill:#a2ccea;}.cls-109{fill:#c2e5f9;}.cls-110{fill:#0072b1;}.cls-111{fill:#1270a7;}.cls-112{fill:#90bcde;}.cls-113{fill:#3571a0;}.cls-114{fill:#0072ae;}.cls-115{fill:#b9ddf3;}.cls-116{fill:#307aa9;}.cls-117{fill:#41749c;}.cls-118{fill:#51789b;}.cls-119{fill:#a0c0db;}.cls-120{fill:#b1cde4;}.cls-121{fill:#bfd6ea;}.cls-122{fill:#265a80;}.cls-123{fill:#fcfcfb;}.cls-124{fill:#fdfdfc;}.cls-125{fill:#2d5d84;}.cls-126{fill:#76a8cf;}.cls-127{fill:#006faa;}.cls-128{fill:#0f3553;}.cls-129{fill:#0076b4;}.cls-130{fill:#e0edf6;}.cls-131{fill:#dbe7f6;}.cls-132{fill:#afcae2;}.cls-133{fill:#cde0ef;}.cls-134{fill:#a0c1dc;}.cls-135{fill:#c5d3e1;}.cls-136{fill:#cddef2;}.cls-137{fill:#b0cae2;}.cls-138{fill:#535680;}.cls-139{fill:#4f537d;}.cls-140{fill:#c7daeb;}.cls-141{fill:#cee0ef;}.cls-142{fill:#fdfdfd;}.cls-143{fill:#88aeca;}.cls-144{fill:#c4e5fa;}.cls-145{fill:#006ca7;}.cls-146{fill:#78a0c1;}.cls-147{fill:#014d7b;}.cls-148{fill:#bed5e7;}.cls-149{fill:#053e62;}.cls-150{fill:#b4cfed;}.cls-151{fill:#cad9ee;}.cls-152{fill:#e5f1f8;}.cls-153{fill:#e2ebf7;}.cls-154{fill:#edf3fa;}.cls-155{fill:#e6f2f9;}.cls-156{fill:#fcfdfd;}.cls-157{fill:#e4eef5;}.cls-158{fill:#e7f3f9;}.cls-159{fill:#d3dee9;}.cls-160{fill:#f6f9fc;}.cls-161{fill:#5f648b;}.cls-162{fill:#50557f;}.cls-163{fill:#5a6188;}.cls-164{fill:#8085a6;}.cls-165{fill:#f8fbfd;}.cls-166{fill:#dbe6f2;}.cls-167{fill:#72799e;}.cls-168{fill:#bfd5e8;}.cls-169{fill:#dae6f1;}.cls-170{fill:#9bbdd9;}.cls-171{fill:#646b92;}.cls-172{fill:#565a83;}.cls-173{fill:#c4d2e0;}.cls-174{fill:#d4e3f0;}.cls-175{fill:#e8f2f9;}.cls-176{fill:#eef3f8;}.cls-177{fill:#8f97b4;}.cls-178{fill:#d6e6f2;}.cls-179{fill:#eff4fa;}.cls-180{fill:#d9e8f3;}.cls-181{fill:#aecbe2;}.cls-182{fill:#acd1e9;}.cls-183{fill:#8fbfe8;}.cls-184{fill:#a5d0ee;}.cls-185{fill:#1c5177;}.cls-186{fill:#006fae;}.cls-187{fill:#1f81ba;}.cls-188{fill:#1970a3;}.cls-189{fill:#c6e6f8;}.cls-190{fill:#006ba7;}.cls-191{fill:#006ba6;}.cls-192{fill:#5592c4;}.cls-193{fill:#91bde3;}.cls-194{fill:#026293;}.cls-195{fill:#005b8d;}.cls-196{fill:#376d93;}.cls-197{fill:#005f92;}.cls-198{fill:#8fbddf;}.cls-199{fill:#0072b2;}.cls-200{fill:#31658b;}.cls-201{fill:#006297;}.cls-202{fill:#b6def7;}.cls-203{fill:#c0cee1;}.cls-204{fill:#c3e5f9;}.cls-205{fill:#0f618f;}.cls-206{fill:#024c76;}.cls-207{fill:#f2f6fb;}.cls-208{fill:#216b99;}.cls-209{fill:#015686;}.cls-210{fill:#006caa;}.cls-211{fill:#105b87;}.cls-212{fill:#a4c8e2;}.cls-213{fill:#94bad7;}.cls-214{fill:#5b81a1;}.cls-215{fill:#0f5078;}.cls-216{fill:#b8ddf4;}.cls-217{fill:#d5e6f2;}.cls-218{fill:#7097bb;}.cls-219{fill:#abcfe7;}.cls-220{fill:#006da9;}.cls-221{fill:#165881;}.cls-222{fill:#2f729d;}.cls-223{fill:#005b8b;}.cls-224{fill:#005a8c;}.cls-225{fill:#205175;}.cls-226{fill:#00669c;}.cls-227{opacity:0.63;}.cls-228{fill:#fff;}</style><linearGradient id="linear-gradient" x1="373.83" y1="48.22" x2="663.83" y2="854.22" gradientUnits="userSpaceOnUse"><stop offset="0.02" stop-color="#fff"/><stop offset="0.06" stop-color="#eaf1f3"/><stop offset="0.14" stop-color="#bcd2d8"/><stop offset="0.23" stop-color="#93b7c1"/><stop offset="0.32" stop-color="#71a1ad"/><stop offset="0.41" stop-color="#558e9d"/><stop offset="0.52" stop-color="#408091"/><stop offset="0.63" stop-color="#317688"/><stop offset="0.77" stop-color="#287083"/><stop offset="0.96" stop-color="#256e81"/></linearGradient></defs><title>boblerflaske</title><g id="mellemgrund"><path class="cls-1" d="M1024,583V286s-16.16-13.31-61-11c0,0-1.25-5.17-24-12s-21.3-3.43-27.63-2.12C908.69,261.44,894,257,894,257l-27-4-27.28-3.39h-31l-11.56-4.16H765.76l-5.09-4.16-8.32,2.31L738,241.29h-7.39l-16.3-.29-.2-2.48-11.24,1-2.5-.15-.12-2.17-10.73,1.45-2.6-.11,0-2.2-8.77,1.79-2.89-.17.18-2-8.62,1.61-1.73-.23.14-1.61-7.6.91-3.46-.74.12-3.58-16.18.17-23.11,1.85-5.55-4.62L593.8,226h-2.31l12.94-6.47,13.41-5.09V209.4l-618.6-1v368Z" transform="translate(0.76 -208.4)"/></g><g id="vandbrus_og_flaske" data-name="vandbrus og flaske"><g class="cls-2"><path class="cls-3" d="M778,294.55l3.43,4.09a.89.89,0,0,1,.15.54,1.67,1.67,0,0,1-.34.74c-.88,1.07-1.94,1-3.15.28a27.72,27.72,0,0,0-4.88-2.34c-1-.34-1.52-.27-1.77.78s-.42,2-1.75,2.18a1.33,1.33,0,0,1-.78-.21c-.77-.86-.42-1.65,0-2.44.28-.54.62-1.1-.28-1.52s-1.71-.17-2.55,0a1.24,1.24,0,0,1-1-.57,1.43,1.43,0,0,0-.08-.22l2.47-1.3a1.75,1.75,0,0,0,.32-.12,2,2,0,0,1,.33-.09l.17-.05a2.21,2.21,0,0,1,.35-.08l.37-.05a4.88,4.88,0,0,0,.55-.12,4.21,4.21,0,0,1,.6-.11h.44a6.34,6.34,0,0,0,1.74-.22c.47-.07.93-.17,1.39-.26a6.38,6.38,0,0,1,2,0C776.49,293.75,777.21,294.22,778,294.55Z" transform="translate(0.76 -208.4)"/><path class="cls-4" d="M770.39,314.06c.89-.12,1.22-.6.48-1.2a10.73,10.73,0,0,1-3.09-3.66c-.31-.65-1.17-.77-1.83-1-.49.13-.89-.19-1.33-.32a9,9,0,0,0-1.48-.77c-.63-.39-1.41-.59-1.78-1.29-.57-.49-1.54-.82-.93-1.79a.84.84,0,0,1,.14-1.37c-.28-.82.33-1.65-.19-2.48a2.1,2.1,0,0,1,.61-1.9c.14-.85,1-1,1.55-1.56a.61.61,0,0,1,.51.05,1.09,1.09,0,0,1,.26.92c-.4.6-1,1.09-1.11,1.85a2,2,0,0,0,.11,1.25c.22.94-.25,1.79-.24,2.71a1,1,0,0,0,.4.9c.18.13.36.26.54.41a5.31,5.31,0,0,1,.65.69c.51.74,1.41.82,2.16,1.14a7.73,7.73,0,0,1,1.23.59c2.88.9,3.31,3.74,5.1,5.5a1.41,1.41,0,0,1,.13,1.59,1.38,1.38,0,0,1-1.35.82,1.32,1.32,0,0,1-.55-.18C770,314.62,770,314.32,770.39,314.06Z" transform="translate(0.76 -208.4)"/><path class="cls-5" d="M751.54,323c.65-.32.78-1.45,1.93-1a48.83,48.83,0,0,1,5.69-.89,1.23,1.23,0,0,1,.67.73c-.33.87-1.48.42-2.1,1.09.57.6,1.61.27,2.11.93a1,1,0,0,1-.27,1.46c-.6.44-.63,1.1-.82,1.71a2.51,2.51,0,0,1-1,1.54.91.91,0,0,1-.79-.2c-.44-.93.14-1.67.38-2.47s.31-1.29-.78-1.39c-.51-.08-1-.2-1.51-.23-1.54-.34-2.2.28-2.17,1.68a.86.86,0,0,1-.93.1c-1.17-.25-.76-1.12-.91-1.77C751.12,323.81,751.46,323.45,751.54,323Z" transform="translate(0.76 -208.4)"/><path class="cls-6" d="M770.51,314.8l.34.12a1,1,0,0,1,.23,1.5,2.06,2.06,0,0,0,0,2.28c-.36.48-1.16.42-1.45,1a3.35,3.35,0,0,1-2.17.26,1.53,1.53,0,0,1-.73-.28c-.2-.19-.33-.39-.12-.63a1.69,1.69,0,0,0,.51-2.38c-.7-1.37-.09-2,1.21-2.3C769,314.82,769.79,314.61,770.51,314.8Z" transform="translate(0.76 -208.4)"/><path class="cls-7" d="M766.62,319l.27.48c-.08.46-.53.52-.86.71a11,11,0,0,1-4.27.89c-.88-.25-1.63.41-2.51.19a15.58,15.58,0,0,1-5.78.69c.13-.17.24-.47.41-.49,2.88-.31,5.33-1.91,8.27-2C763.68,319.5,765,318.42,766.62,319Z" transform="translate(0.76 -208.4)"/><path class="cls-8" d="M779,321.43l-.44.19a1,1,0,0,1-.44.16,11.48,11.48,0,0,0-2.56.39,2.47,2.47,0,0,1-1-.22,1.47,1.47,0,0,1-.6-.47c-.15-.37.08-.61.29-.85a4.16,4.16,0,0,1,1.7-.83c.31-.06.63-.1.93-.19,1.18-.45,1.84-1.68,3.28-1.73.48.41.13.84.12,1.27a3.4,3.4,0,0,0,0,.45c.13.49-.2.87-.28,1.31C779.74,321.19,779.15,321,779,321.43Z" transform="translate(0.76 -208.4)"/><path class="cls-9" d="M761.48,332l-1.33-.48c-.34.08-.39-.11-.41-.35a.54.54,0,0,1,.34-.25l.43-.09a2.06,2.06,0,0,0,.89-.55,3.32,3.32,0,0,1,.36-.26,7.23,7.23,0,0,0,1.25-.95,3.73,3.73,0,0,1,.38-.28c2.14-1.37,3.89-3.2,6.1-4.5a1.38,1.38,0,0,1,.75-.17.64.64,0,0,1,.39.33,1,1,0,0,1-.25.91c-2.71,2.39-6,4.22-8.48,6.81A.36.36,0,0,1,761.48,332Z" transform="translate(0.76 -208.4)"/><path class="cls-10" d="M758.28,330.12a2.18,2.18,0,0,1-1.5-1.25c.25-.23.61-.17.92-.23a35.39,35.39,0,0,1,5.31-4.42,1.11,1.11,0,0,1,1.23.22c-.24,1.14-1.3,1.66-2.08,2.39-.48.45-1.12.75-1.46,1.32-.31.87-1.54,1.16-1.51,2.23a.77.77,0,0,1-.28.36C758.46,330.75,758.4,330.41,758.28,330.12Z" transform="translate(0.76 -208.4)"/><path class="cls-11" d="M768.31,285.7a9.75,9.75,0,0,1,3.32-.53c.4.48.82,1,.31,1.56a4.46,4.46,0,0,1-3.37.37A1,1,0,0,1,768.31,285.7Z" transform="translate(0.76 -208.4)"/><path class="cls-12" d="M756.56,324.19c1.49-.22,1.88.33,1.38,1.58-.33.81-.61,1.65-.92,2.48-.63.3-1.17-.08-1.73-.31a2,2,0,0,1-.68-.58l-.65-.23a.33.33,0,0,1,.15-.41,2.34,2.34,0,0,1,1,0C756.6,326.36,756.94,325.74,756.56,324.19Z" transform="translate(0.76 -208.4)"/><path class="cls-13" d="M775.5,293.63a4.16,4.16,0,0,1-1.86.14.34.34,0,0,1-.23-.28,1.48,1.48,0,0,1,.09-.55,2.49,2.49,0,0,1,.16-.33,1.55,1.55,0,0,1,.24-.27,2.43,2.43,0,0,1,.47-.28c.16-.07.33-.13.51-.19a1.36,1.36,0,0,1,.35-.07l.19,0c.31.33.76.57.77,1.07C776.38,293.5,775.9,293.53,775.5,293.63Z" transform="translate(0.76 -208.4)"/><path class="cls-14" d="M766.14,288.43c-.65-.68-.43-1.2.24-1.64.6,0,1.14.38,1.75.4l.21.12a.6.6,0,0,1,.22.39c-.11.5-.13,1-.25,1.52a1,1,0,0,1-.9.26,1.42,1.42,0,0,1-.44-.23C766.7,289,766.6,288.54,766.14,288.43Z" transform="translate(0.76 -208.4)"/><path class="cls-15" d="M773.81,285.56c1.07.46.82,1.36.92,2.13-.22.61-.72.67-1.32.56a1.75,1.75,0,0,1-.5-.23.89.89,0,0,1-.37-.65,1.35,1.35,0,0,1,.55-1C773.36,286.14,773.42,285.72,773.81,285.56Z" transform="translate(0.76 -208.4)"/><path class="cls-16" d="M767,292.42l-.17-1.59c.6-.25,1.17-.65,1.88-.18.3.38.12.87.44,1.24a.58.58,0,0,1,0,.43,1.2,1.2,0,0,1-.8.37,1.81,1.81,0,0,1-.92-.06A3.17,3.17,0,0,1,767,292.42Z" transform="translate(0.76 -208.4)"/><path class="cls-17" d="M768.65,290.76c-.63-.2-1.17.38-1.81.07l.12-.63c-.25-.5-.24-.88.47-.92l.8-.08a.36.36,0,0,1,.36,0,1.23,1.23,0,0,1,.32.47c0,.12.08.24.11.36s.14.35.2.53a.38.38,0,0,1-.09.35A.32.32,0,0,1,768.65,290.76Z" transform="translate(0.76 -208.4)"/><path class="cls-18" d="M768.28,333.75c-.75.48-1.51-.2-2.26-.11l-.21-.14c-.34-.72.27-.7.72-.81.8,0,1.29-.86,2.19-.57a1.12,1.12,0,0,1,.37.84.5.5,0,0,1-.25.36,1.17,1.17,0,0,1-.17.28A2.62,2.62,0,0,0,768.28,333.75Z" transform="translate(0.76 -208.4)"/><path class="cls-19" d="M768.84,333.32l.08-.36a4.12,4.12,0,0,1,3-1.8.88.88,0,0,1,.15.49,2.39,2.39,0,0,1-.51,1.16,1,1,0,0,1-.77.22C770.1,333,769.57,333.6,768.84,333.32Z" transform="translate(0.76 -208.4)"/><path class="cls-20" d="M761.48,332l.35.13a1.54,1.54,0,0,1,.95-.08c1.15.34,2.37.55,3.13,1.6H766a11.88,11.88,0,0,1-4.11-.85A.58.58,0,0,1,761.48,332Z" transform="translate(0.76 -208.4)"/><path class="cls-21" d="M767.33,292.44l.91,0a3.51,3.51,0,0,1,.77.77.71.71,0,0,1,.09.4,1.18,1.18,0,0,1-.33.47l-.28.26a1.61,1.61,0,0,0-.24.28l0-.05a.9.9,0,0,1-.43,0,.67.67,0,0,1-.33-.27c-.52-.47-.07-1-.24-1.51A.28.28,0,0,1,767.33,292.44Z" transform="translate(0.76 -208.4)"/><path class="cls-22" d="M774.91,288.79c0,.37.4.74.09,1.12-.2,0-.32.09-.17.31a.9.9,0,0,1-.08.28.45.45,0,0,1-.17.61.69.69,0,0,1-.49,0,1.83,1.83,0,0,1-.94-.81.92.92,0,0,1,.17-.86,6.58,6.58,0,0,1,.94-.61A.63.63,0,0,1,774.91,288.79Z" transform="translate(0.76 -208.4)"/><path class="cls-23" d="M774.49,291.14c.09-.21.18-.43.26-.64.66.56,1.67-.14,2.29.62-.29.78-1.34.05-1.62.72l-.11,0a1,1,0,0,1-.38,0,1,1,0,0,1-.32-.21,1.14,1.14,0,0,1-.15-.34Z" transform="translate(0.76 -208.4)"/><path class="cls-24" d="M770.78,333l.43-.27a.61.61,0,0,1,.8.25c.08,1-.71,1.07-1.44,1.31C770.13,333.72,771.3,333.55,770.78,333Z" transform="translate(0.76 -208.4)"/><path class="cls-25" d="M768.11,287.37a1.22,1.22,0,0,1-1.73-.58c0-.45,0-.89.67-.91C767.8,286.15,768.23,286.59,768.11,287.37Z" transform="translate(0.76 -208.4)"/><path class="cls-26" d="M781.33,317l-.83,2.54a.3.3,0,0,1-.29,0c-.08-.06-.11-.1-.1-.12l0,0a7.61,7.61,0,0,0,.14-2.43,2.22,2.22,0,0,1,.84-1.71c.52-.09.57.2.51.55S781.25,316.52,781.33,317Z" transform="translate(0.76 -208.4)"/><path class="cls-27" d="M768.11,287.37l-1.06-1.49,1.26-.18.37,1.22a.45.45,0,0,1-.25.61A.74.74,0,0,1,768.11,287.37Z" transform="translate(0.76 -208.4)"/><path class="cls-28" d="M773.81,285.56c-.24.3.2.82-.34,1a1,1,0,0,1-.74-.14c-.34-.4-.7-.79-.24-1.27C773,285.06,773.59,284.7,773.81,285.56Z" transform="translate(0.76 -208.4)"/><path class="cls-29" d="M770.51,314.8c-.8.26-1.59.51-2.17-.45l2-.29A.66.66,0,0,0,770.51,314.8Z" transform="translate(0.76 -208.4)"/><path class="cls-30" d="M763.06,296.86l-.52-.17a2.5,2.5,0,0,1,2.43-.86v0c.27.51-.1.71-.46.91A2.65,2.65,0,0,1,763.06,296.86Z" transform="translate(0.76 -208.4)"/><path class="cls-31" d="M755.28,327.63l1.74.62.69.25c.11.16.07.26-.11.31a.83.83,0,0,1-.82.06l-.31-.12C755.91,328.52,755.26,328.38,755.28,327.63Z" transform="translate(0.76 -208.4)"/><path class="cls-27" d="M772.49,285.16l.31,1.14c0,.43-.33.51-.72.48l-.2-.18-.25-1.43Z" transform="translate(0.76 -208.4)"/><path class="cls-32" d="M775.5,293.63l.69-.72c.2.94,1.41.9,1.82,1.64C777,294.76,776.41,293.74,775.5,293.63Z" transform="translate(0.76 -208.4)"/><path class="cls-33" d="M774.91,288.79l-.42.21a1.44,1.44,0,0,1-1.31-.71.3.3,0,0,1,.17-.38,1.56,1.56,0,0,0,1.38-.22A.73.73,0,0,1,774.91,288.79Z" transform="translate(0.76 -208.4)"/><path class="cls-34" d="M758.28,330.12l.59.5a.85.85,0,0,1,1,.45l.29.45C759.06,331.6,758.39,331.21,758.28,330.12Z" transform="translate(0.76 -208.4)"/><path class="cls-35" d="M754,326.81a1.65,1.65,0,0,0-.07.32c-.83.47-1.13-.48-1.72-.64.2-.69.76-.23,1.17-.26A1.07,1.07,0,0,1,754,326.81Z" transform="translate(0.76 -208.4)"/><path class="cls-36" d="M781.33,317c-.41-.61.41-1.14,0-1.75a.4.4,0,0,1-.12-.38.36.36,0,0,1,.54-.14l.25.48C781.78,315.77,781.56,316.37,781.33,317Z" transform="translate(0.76 -208.4)"/><path class="cls-37" d="M755.28,327.63l1.19,1.12a1.75,1.75,0,0,1-1.86-1.39Z" transform="translate(0.76 -208.4)"/><path class="cls-38" d="M780.11,319.38l.39.12c.37.65.1,1.09-.49,1.41C779.73,320.36,780.17,319.9,780.11,319.38Z" transform="translate(0.76 -208.4)"/><path class="cls-39" d="M761.36,305.79l1.89,1.08c0,.32-.13.43-.45.19C762.19,306.78,761.37,306.69,761.36,305.79Z" transform="translate(0.76 -208.4)"/><path class="cls-40" d="M767.43,289.28a1,1,0,0,0-.47.92c-.6-.25-1-.6-.66-1.23.24-.23.46-.13.68.07Z" transform="translate(0.76 -208.4)"/><path class="cls-41" d="M762.8,307.06l.45-.19c.51.17,1.08.24,1.35.79-.24.2-.55-.08-.8,0A1.26,1.26,0,0,1,762.8,307.06Z" transform="translate(0.76 -208.4)"/><path class="cls-42" d="M751.54,323c.43.64-.14.91-.46,1.28C750.66,323.64,751,323.28,751.54,323Z" transform="translate(0.76 -208.4)"/><path class="cls-43" d="M767,289l-.68-.07c0-.18-.11-.36-.16-.54C767.08,287.83,767,288.52,767,289Z" transform="translate(0.76 -208.4)"/><path class="cls-44" d="M761,298.25c-.2.63-.4,1.27-.61,1.9C759.89,299.29,760.23,298.7,761,298.25Z" transform="translate(0.76 -208.4)"/><path class="cls-45" d="M763.8,307.7l.8,0,1.35.51C765.13,308.54,764.51,307.9,763.8,307.7Z" transform="translate(0.76 -208.4)"/><path class="cls-46" d="M772,333l-.79-.25c.21-.41.43-.81.64-1.21.59.12.19.54.33.8l0,.4A.87.87,0,0,0,772,333Z" transform="translate(0.76 -208.4)"/><path class="cls-47" d="M760.57,302.63c-.05.46-.09.92-.14,1.37C759.33,303.38,760,303,760.57,302.63Z" transform="translate(0.76 -208.4)"/><path class="cls-48" d="M753.37,326.54c-.38-.1-.76-.34-1.13-.05l-.25-.44a.79.79,0,0,1,.8-.06C753.26,325.93,753.53,326,753.37,326.54Z" transform="translate(0.76 -208.4)"/><path class="cls-49" d="M768.28,333.75l.39-.15Q768.58,333.89,768.28,333.75Z" transform="translate(0.76 -208.4)"/><path class="cls-50" d="M774.83,290.22c-.2-.24-.08-.31.17-.31Z" transform="translate(0.76 -208.4)"/><path class="cls-51" d="M767.33,292.44l0,.16-.09.14-.21-.32A.4.4,0,0,1,767.33,292.44Z" transform="translate(0.76 -208.4)"/><path class="cls-52" d="M767.46,294.25l.41.13c.07.12,0,.21-.1.26a.51.51,0,0,1-.33-.11A2.46,2.46,0,0,0,767.46,294.25Z" transform="translate(0.76 -208.4)"/><path class="cls-53" d="M768.78,300.33l.69.28a8,8,0,0,1,1.69.17c.26.08.53.16.8.22,2.21-2,4.07-.45,6,.86a3.9,3.9,0,0,0,1.24.7,6,6,0,0,1,1.77,4.57,1.57,1.57,0,0,1-.13.47.91.91,0,0,1-1.15.38,2.68,2.68,0,0,1-.65-.5,20.86,20.86,0,0,0-7.18-4.81l-1.55-.58c-.35-.13-.7-.26-1-.42a2,2,0,0,1-.67-.48.63.63,0,0,1-.12-.49l.11-.22Z" transform="translate(0.76 -208.4)"/><path class="cls-54" d="M771.18,301.23l-1.71-.62c1.43-.36,1.46-1.64,1.67-2.63.25-1.19.82-1,1.74-.72a20.16,20.16,0,0,1,5.21,2.42c1.26.86,2.12.81,3-.09.38,1.94.16,3.88.38,5.82a3.54,3.54,0,0,1-.06,1.62,1.08,1.08,0,0,1-.31.33.39.39,0,0,1-.3,0c-.09-.05-.14-.08-.13-.1a13.49,13.49,0,0,0-1.51-4.48,2.23,2.23,0,0,1-.46-.8c-.55-1-1.76-1.34-2.53-2.12a4.6,4.6,0,0,0-1.54-.75,7.23,7.23,0,0,0-1.62-.5c-1.17.41-.84,1.66-1.46,2.38A1.22,1.22,0,0,1,771.18,301.23Z" transform="translate(0.76 -208.4)"/><path class="cls-4" d="M768.66,296.43c.86-.06,1.49-.1,1.05,1.1-.34.91-1.24,1.66-.93,2.8v.07a1.46,1.46,0,0,1-1.33-.25c-1.31-1.19-.33-2.36-.18-3.53C767.63,296.11,768.12,296.14,768.66,296.43Z" transform="translate(0.76 -208.4)"/><path class="cls-55" d="M781.25,305.65a14.1,14.1,0,0,1-.12-6.06l.25-.67.57.6a1.17,1.17,0,0,1,.37.63,11.67,11.67,0,0,0-.32,3.73C781.94,304.55,782.06,305.29,781.25,305.65Z" transform="translate(0.76 -208.4)"/><path class="cls-56" d="M773.64,293.77c-.39.17-.75.47-1.25.18a.92.92,0,0,1-1.06-.6c-.09-.49.22-.75.59-1a1.07,1.07,0,0,1,.73,0,1.27,1.27,0,0,1,.42.25,1.53,1.53,0,0,1,.26.4,2.1,2.1,0,0,0,.24.63Z" transform="translate(0.76 -208.4)"/><path class="cls-57" d="M768.66,296.43l-1.26.25a1,1,0,0,1-1.59.24.31.31,0,0,1,.09-.42C766.78,296,767.64,295.37,768.66,296.43Z" transform="translate(0.76 -208.4)"/><path class="cls-58" d="M771.34,293.14l1,.81a2.23,2.23,0,0,1-2.13.25c0-.29.15-.53.09-.82a1,1,0,0,1,.19-.36A.54.54,0,0,1,771.34,293.14Z" transform="translate(0.76 -208.4)"/><path class="cls-59" d="M765.9,296.5l-.12.31a.65.65,0,0,1-.52.33,1.15,1.15,0,0,1-.83-.31l-.11-.2.65-.82Z" transform="translate(0.76 -208.4)"/><path class="cls-60" d="M770.46,293.54c.35.35-.08.46-.2.66l-.34-.13-.17-.12a.93.93,0,0,1-.14-.36.47.47,0,0,1,.17-.33.68.68,0,0,1,.4,0A.59.59,0,0,1,770.46,293.54Z" transform="translate(0.76 -208.4)"/><path class="cls-61" d="M769.92,294.07c0,.28-.2.35-.46.17l0-.15a.27.27,0,0,1,.24-.17.25.25,0,0,1,.26.17Z" transform="translate(0.76 -208.4)"/><path class="cls-62" d="M768.25,294.58l.1-.42h.19c0,.05.05.1.08.16C768.62,294.54,768.46,294.59,768.25,294.58Z" transform="translate(0.76 -208.4)"/><path class="cls-63" d="M767.77,294.64a2,2,0,0,1,.1-.26l.35.15C768.13,294.72,768,294.77,767.77,294.64Z" transform="translate(0.76 -208.4)"/><path class="cls-64" d="M769.46,294.24c0,.3-.21.26-.43.2l-.1-.21.17-.16a.35.35,0,0,1,.37.21Z" transform="translate(0.76 -208.4)"/><path class="cls-65" d="M769.13,294.16l-.06.13,0,.15-.41-.13,0,0a.25.25,0,0,1,.09-.38A.34.34,0,0,1,769.13,294.16Z" transform="translate(0.76 -208.4)"/><path class="cls-5" d="M771.88,314.24c0-.32.26-.82.12-.93-1.87-1.54-1.87-4.41-4.58-5.34-.19-.06-.32-.31-.47-.48a2.11,2.11,0,0,1,1.5.07,3,3,0,0,0,1.42,0,9.35,9.35,0,0,1,1.67-.16,12.2,12.2,0,0,1,1.71,0,1.46,1.46,0,0,1,.65.37c.45.87.91,1.73,2.1.86a15.41,15.41,0,0,0,1.52-1,1.3,1.3,0,0,1,1-.11,2.18,2.18,0,0,1,.47.21,1,1,0,0,1,.31.38c0,.35-.28.53-.57.69-.45.21-.72.52-.52,1.05l.18.38c.06.12.1.25.15.38a1.74,1.74,0,0,0,.51.67c.35.33.8.61.73,1.15-1,1.1-1.69-.16-2.51-.45a7.48,7.48,0,0,0-1.59-.91c-.49.8.76,1.16.66,1.85a3.16,3.16,0,0,0-1.55,1.28c-.4.17-.75-.13-1.12-.17-.87.14-.2.85-.46,1.22C772.07,315.68,772.1,314.81,771.88,314.24Z" transform="translate(0.76 -208.4)"/><path class="cls-66" d="M768.67,308.11l-1.72-.62-1.37-.51a.93.93,0,0,1-.08-.49,34.94,34.94,0,0,0,1.71-4.43,1.67,1.67,0,0,1,2-.8l1,.37A15.76,15.76,0,0,1,768.67,308.11Z" transform="translate(0.76 -208.4)"/><path class="cls-67" d="M767.41,302a8,8,0,0,1-1.71,4.68,2.89,2.89,0,0,1-2.29-1.19.79.79,0,0,1-.58-.56,4.79,4.79,0,0,0,1.53-2.45,2.72,2.72,0,0,1,1-1.62A1.68,1.68,0,0,1,767.41,302Z" transform="translate(0.76 -208.4)"/><path class="cls-68" d="M765.46,300.93c-.41,1.12-.84,2.23-1.21,3.35-.23.7-.62,1-1.42.64l-.71-.28a3,3,0,0,1-.07-1.81c.22-.85.11-1.8.71-2.54a1.61,1.61,0,0,1,1.14-.28A1.92,1.92,0,0,1,765.46,300.93Z" transform="translate(0.76 -208.4)"/><path class="cls-29" d="M771.88,314.24c.47.2.36,1.22,1.26.81.85.27,1.44.59.43,1.3-.74.07-1,.56-1.26,1.15s-.29,1.31-1.13,1.48l-.21-.13c-.83-1-.84-1.05-.25-2.5a2.49,2.49,0,0,0,.13-1.43C771.18,314.68,771.76,314.74,771.88,314.24Z" transform="translate(0.76 -208.4)"/><path class="cls-69" d="M763.75,300.29l-.8.07c-.36,0-.34.82-1,.38a1,1,0,0,1-.31-1.2c.45-.23.4-1.08,1.24-.84,1,.57,2.31.71,3.13,1.66,0,.52-.38.42-.75.33S764.32,300.18,763.75,300.29Z" transform="translate(0.76 -208.4)"/><path class="cls-70" d="M762.72,298.86l-1,.68c.25-.81.41-1.68,1.48-1.93a.59.59,0,0,1,.6-.25.84.84,0,0,1,.55.72.71.71,0,0,1-.23.38A3.81,3.81,0,0,1,762.72,298.86Z" transform="translate(0.76 -208.4)"/><path class="cls-71" d="M762,300.74l1-.38a6.62,6.62,0,0,0-.61,2.63c-.28.08-.24.47-.57.51C761.46,302.53,762.2,301.7,762,300.74Z" transform="translate(0.76 -208.4)"/><path class="cls-72" d="M763.41,305.48l2.29,1.19-.12.31C764.85,306.49,763.51,306.79,763.41,305.48Z" transform="translate(0.76 -208.4)"/><path class="cls-73" d="M763.64,297.44l-.47.17a.66.66,0,0,1-.11-.75,1.08,1.08,0,0,1,1.26-.23v0C764.51,297.2,764.16,297.38,763.64,297.44Z" transform="translate(0.76 -208.4)"/><path class="cls-74" d="M761.77,303.5c.12-.23.25-.47.57-.51-.07.55-.15,1.1-.22,1.65C761.46,304.37,761.61,303.94,761.77,303.5Z" transform="translate(0.76 -208.4)"/><path class="cls-75" d="M753.37,326.54a.81.81,0,0,0-.58-.55c-.55-2-.06-2.46,2.28-2,.69,0,1.42.12,1.5.88a2.09,2.09,0,0,1-1.49,2.3l-1.05-.37Z" transform="translate(0.76 -208.4)"/><path class="cls-31" d="M764.23,324.52l-1.15-.07c-1.41.13-2,1.31-3.1,1.9-.47.26-.83,1-1.59.28-.19-1.21,1.42-1.54,1.38-2.68.52-.61.5-1.83,1.91-1.47.72.91,2.09.62,2.86,1.44A.54.54,0,0,1,764.23,324.52Z" transform="translate(0.76 -208.4)"/><path class="cls-76" d="M761.48,322.45c-.93.15-.64,1.49-1.71,1.5-.71-.14-1.42-.26-2.12-.44-.32-.08-.77-.15-.8-.57s.4-.51.72-.6c.72-.21,1.46-.36,2.19-.53.65-.37,1.3-.64,2,0A.54.54,0,0,1,761.48,322.45Z" transform="translate(0.76 -208.4)"/><path class="cls-77" d="M758.39,326.63c1.23-.13,1.89-1.06,2.73-1.69.62-.46,1.12-.84,2-.49a36.31,36.31,0,0,1-5.48,4.36l.11-.31Z" transform="translate(0.76 -208.4)"/><path class="cls-78" d="M755.08,327.18c.29-.45.61-.89.88-1.36.51-.89.32-1.55-.89-1.82.53-.32,1,.06,1.49.19.88.24,1.07.82.62,1.4S756.69,327.68,755.08,327.18Z" transform="translate(0.76 -208.4)"/><path class="cls-79" d="M761.7,321.84l-1.94,0c-.24-.11-.5-.2-.52-.51a2.75,2.75,0,0,1,2.48-.51c.22.24.65.29.67.69S762.17,322.1,761.7,321.84Z" transform="translate(0.76 -208.4)"/><path class="cls-80" d="M776,320l-1.48.83a11.25,11.25,0,0,1-7.16,0c-.53-.16-1.24-.18-1.36-.92l.89-.4.66.22a14.49,14.49,0,0,0,4.41,0c.52-.08,1-.19,1.55-.22C774.34,319.73,775.29,319.2,776,320Z" transform="translate(0.76 -208.4)"/><path class="cls-81" d="M772.11,320c-1.53.76-3,.16-4.56-.28l2.07-.29a2.22,2.22,0,0,1,1.35-.18A1.35,1.35,0,0,1,772.11,320Z" transform="translate(0.76 -208.4)"/><path class="cls-29" d="M770.76,319.5c-.38.24-.76.06-1.14-.06-.09-1.17.83-.52,1.35-.59h0C771.12,319.14,770.83,319.28,770.76,319.5Z" transform="translate(0.76 -208.4)"/><path class="cls-82" d="M766,319.91a12.72,12.72,0,0,0,7.11.93,8.33,8.33,0,0,1,1.41,0l-.57.49a2.66,2.66,0,0,1-.77.39c-.48.17-.75.66-1.31.7-.94-.18-.15.55-.4.73a.88.88,0,0,1-.19.43,2.19,2.19,0,0,1-1.75.41,24.57,24.57,0,0,1-6.57-2.15,1.32,1.32,0,0,1-.67-.51c-.27-.12-.52-.26-.57-.56A16.71,16.71,0,0,0,766,319.91Z" transform="translate(0.76 -208.4)"/><path class="cls-83" d="M773.61,327.59c.47.37,0,.86.26,1.26.14.11.12.19,0,.25-.4.69-.42,1.58-1.12,2.13a1.29,1.29,0,0,1-.37-1c0-.67.28-1.29.34-1.95A.87.87,0,0,1,773.61,327.59Z" transform="translate(0.76 -208.4)"/><path class="cls-84" d="M772.63,330.43l.08.8c-.18.37-.35.74-.52,1.12l-.33-.8,0-.34a.44.44,0,0,1,0-.4A1,1,0,0,1,772.63,330.43Z" transform="translate(0.76 -208.4)"/><path class="cls-4" d="M776,320c-.86-.29-1.77.33-2.62-.28-.55-1.06.08-1.85.51-2.69a1.45,1.45,0,0,1,1.15.33c.15.07.28.16.42.24a2,2,0,0,1,.54.47c.25.54.75,1,1,1.5a.3.3,0,0,1-.22.33Z" transform="translate(0.76 -208.4)"/><path class="cls-85" d="M776.8,319.93l.09-.32c-.3-1.62.4-2.53,2.28-3a1.76,1.76,0,0,1,1.24,1c.06.2,0,.32-.25.34C778.92,318.44,778.24,319.71,776.8,319.93Z" transform="translate(0.76 -208.4)"/><path class="cls-86" d="M773.15,321.41a.81.81,0,0,1,.8-.06l.78.33c.09.44-.2.7-.44,1l-.3.33c-.48.54-.67,1.32-1.51,1.53a2.93,2.93,0,0,0-1.1.63,1.28,1.28,0,0,1-.37.23c-.29.09-.58.17-.84-.11l.35-.95c0-.6.68-.52.94-.85A5.55,5.55,0,0,1,773.15,321.41Z" transform="translate(0.76 -208.4)"/><path class="cls-87" d="M774,322.48l.72-.8.93.31-.68.81c-.18.06-.29.22-.45.29a.66.66,0,0,1-.36-.11C774,322.84,774,322.65,774,322.48Z" transform="translate(0.76 -208.4)"/><path class="cls-88" d="M780.16,318l.13-.31a.41.41,0,0,1,.35-.54c.22.85-.38,1.49-.51,2.24C779.69,318.85,780.18,318.43,780.16,318Z" transform="translate(0.76 -208.4)"/><path class="cls-89" d="M770.17,325.28l.81-.06a.55.55,0,0,1-.07.63,62.17,62.17,0,0,1-8.39,6.5l-.69-.22c0-1.23,1.15-1.67,2-2.24C766,328.42,767.81,326.53,770.17,325.28Z" transform="translate(0.76 -208.4)"/><path class="cls-90" d="M760.57,331.31l-.35-.14c-.63-.67-.2-1.08.33-1.48,1.27-1,2.53-2,3.75-3,1-.73,2-1.46,3-2.26a1.05,1.05,0,0,1,1.26.2c-.34,1.26-1.69,1.64-2.54,2.45s-1.8,1.35-2.65,2.09h0a8.88,8.88,0,0,0-1.61,1.18h0C761.2,330.52,761,331,760.57,331.31Z" transform="translate(0.76 -208.4)"/><path class="cls-91" d="M763.32,329.14c1.08-1.67,3-2.44,4.45-3.8l.69-.7a.37.37,0,0,1,.11-.43c.42-.21.82-.27,1.14.21C767.59,326,765.78,327.94,763.32,329.14Z" transform="translate(0.76 -208.4)"/><path class="cls-92" d="M764.57,326.77a17,17,0,0,1-3.75,3.21c-.47.35-.74.63-.6,1.19l-.36-.1-1-.45a2.44,2.44,0,0,0,.1-.24c.45-.45.46-1.28,1.36-1.34a6.46,6.46,0,0,0,2.1-1.54,4.73,4.73,0,0,1,.68-.58,2.1,2.1,0,0,1,1.07-.39A.56.56,0,0,1,764.57,326.77Z" transform="translate(0.76 -208.4)"/><path class="cls-91" d="M761.71,330.32a1.58,1.58,0,0,1,1.61-1.18A2.07,2.07,0,0,1,761.71,330.32Z" transform="translate(0.76 -208.4)"/><path class="cls-93" d="M771.55,323.66l-1,.67-.35-.11a.33.33,0,0,1-.29,0c-.09-.05-.14-.09-.13-.11a.29.29,0,0,1,.19-.34l1.38-.55C771.63,323.28,771.82,323.38,771.55,323.66Z" transform="translate(0.76 -208.4)"/><path class="cls-94" d="M769.82,324.09l.35.13-.46.2-1.13-.07c-.52.08-.75-.1-.64-.6A1.69,1.69,0,0,1,769.82,324.09Z" transform="translate(0.76 -208.4)"/><path class="cls-91" d="M760.57,331.31c.17-.54.44-1,1.14-1A1.72,1.72,0,0,1,760.57,331.31Z" transform="translate(0.76 -208.4)"/><path class="cls-95" d="M783.31,302.17c.13.4.27.8.4,1.2a2.09,2.09,0,0,1-.19,1.35c-.3.11-.27.63-.76.51-.92-.69-.59-1.55-.52-2.38a1.4,1.4,0,0,1,.59-.84A.37.37,0,0,1,783.31,302.17Z" transform="translate(0.76 -208.4)"/><path class="cls-96" d="M782.93,305.2c.13-.23.25-.47.59-.48l0,.13,0,.13a3.78,3.78,0,0,1-.56,1.88c-.45.16-.53-.15-.63-.44A1.14,1.14,0,0,1,782.93,305.2Z" transform="translate(0.76 -208.4)"/><path class="cls-97" d="M782.64,306.91l.81-1.93.26.48c-.42.55-.23,1.46-1.1,1.75Q782.45,307,782.64,306.91Z" transform="translate(0.76 -208.4)"/><path class="cls-98" d="M781,313.32l.65.64c0,.24,0,.48.07.73l-.42.23C780.44,314.47,780.47,313.93,781,313.32Z" transform="translate(0.76 -208.4)"/><path class="cls-99" d="M763.31,327a.65.65,0,0,1-.57.5,25.58,25.58,0,0,0-2.28,2c-.92-.29-.72,1-1.49.88-.27-.47-.41-.92.19-1.22a1.73,1.73,0,0,0,1.07-1.15c1.72-1.16,3.5-2.26,4.54-4.08a1.27,1.27,0,0,1,.77,0,1.42,1.42,0,0,1,.65.45.72.72,0,0,1,0,.48C765.48,325.85,764.27,326.29,763.31,327Z" transform="translate(0.76 -208.4)"/><path class="cls-100" d="M764.8,324a7.37,7.37,0,0,1-4.57,4l4-3.49.22-.62A.32.32,0,0,1,764.8,324Z" transform="translate(0.76 -208.4)"/><path class="cls-101" d="M768.43,287.53l.25-.61,3.2-.32-.06.11a.6.6,0,0,1,.29.8c-.35.47-1,.4-1.47.6a5.51,5.51,0,0,1-1.9,0c-.23-.15-.22-.4-.32-.6Z" transform="translate(0.76 -208.4)"/><path class="cls-102" d="M773.57,293.62c-.28-.09-.51-.23-.56-.54a1,1,0,0,1,.49-.25.33.33,0,0,1,.31.18Z" transform="translate(0.76 -208.4)"/><path class="cls-103" d="M774.49,292.23l-.45.23-.11-.18a.74.74,0,0,1,.08-.39l.14-.15.21-.06a.53.53,0,0,1,.34.24A.29.29,0,0,1,774.49,292.23Z" transform="translate(0.76 -208.4)"/><path class="cls-104" d="M774,292.46a1,1,0,0,0-.12.23.22.22,0,0,1-.22,0q-.11-.06-.09-.09a.3.3,0,0,1,.06-.33.34.34,0,0,1,.36,0Z" transform="translate(0.76 -208.4)"/><path class="cls-105" d="M774.49,292.23c0-.1,0-.2.06-.3a.24.24,0,0,1,.33-.06l0,.19Z" transform="translate(0.76 -208.4)"/><path class="cls-106" d="M775.06,291.72a.48.48,0,0,1,.25.14l-.38.2,0-.07C774.84,291.85,774.86,291.76,775.06,291.72Z" transform="translate(0.76 -208.4)"/><path class="cls-107" d="M773.56,292.54l.36.15-.11.32-.38-.06-.09-.16.07-.16Z" transform="translate(0.76 -208.4)"/><path class="cls-108" d="M768.42,287.5l.25.43c.13.31.5.22.71.38a.88.88,0,0,1,.27.31.6.6,0,0,1-.07.37,1.16,1.16,0,0,1-.31.22l-.17.08a1.14,1.14,0,0,1-.58.08l-.29-.17C767.61,288.53,768.05,288,768.42,287.5Z" transform="translate(0.76 -208.4)"/><path class="cls-109" d="M770.5,287.88c.26-.76,1.08-.1,1.5-.45.22-.16.43-.47.73,0l.24.38.11.2-.1.19a1.27,1.27,0,0,1-.34.27l-1,.47a.6.6,0,0,1-.64-.09A1.59,1.59,0,0,1,770.5,287.88Z" transform="translate(0.76 -208.4)"/><path class="cls-110" d="M772.73,287.4l-.73,0-.18-.72,1-.41.67.27C773.23,286.85,773,287.12,772.73,287.4Z" transform="translate(0.76 -208.4)"/><path class="cls-111" d="M772.86,288.06a.52.52,0,0,0,.11-.28l.38.13-.05.14,0,.14a.32.32,0,0,1-.29,0C772.89,288.12,772.85,288.08,772.86,288.06Z" transform="translate(0.76 -208.4)"/><path class="cls-112" d="M768.65,290.76l.51-.17h.22a1,1,0,0,1,.36.25,7,7,0,0,1,.67.85.41.41,0,0,1-.1.38,1.34,1.34,0,0,1-.86.22.64.64,0,0,1-.38-.24C768.24,291.78,768.48,291.26,768.65,290.76Z" transform="translate(0.76 -208.4)"/><path class="cls-113" d="M769,293.38a1,1,0,0,1-.76-1l.73-.12a.47.47,0,0,1,.38,0,.73.73,0,0,1,.15.35,1.07,1.07,0,0,1-.17.52A.58.58,0,0,1,769,293.38Z" transform="translate(0.76 -208.4)"/><path class="cls-114" d="M769.37,292.4l-.4-.12a.67.67,0,0,0,.1-.23l.38,0A.22.22,0,0,1,769.37,292.4Z" transform="translate(0.76 -208.4)"/><path class="cls-115" d="M771.13,288.83l.42-.22a5,5,0,0,1,1.22-.08,1.3,1.3,0,0,1,.82.86l-.38.94-.2.09a2.26,2.26,0,0,1-.45,0l-.44-.06a1.62,1.62,0,0,0-1,.19,2,2,0,0,1-.42.1l-.42,0-.39-.11c-.13,0-.25-.08-.37-.12a2.45,2.45,0,0,0-.37-.08h-.19a.51.51,0,0,1-.29-.21l0-.35c.06-.25.12-.48.39-.59h0l.48-.2h0a2.26,2.26,0,0,1,.72-.24,2.54,2.54,0,0,1,.39,0,1.6,1.6,0,0,1,.39.05Z" transform="translate(0.76 -208.4)"/><path class="cls-116" d="M769,289.14l-.39.59c0-.12-.07-.24-.11-.36Z" transform="translate(0.76 -208.4)"/><path class="cls-117" d="M768.65,290.08l.35.13c.09.17,0,.28-.14.33Z" transform="translate(0.76 -208.4)"/><path class="cls-118" d="M768.86,290.54l.14-.33v-.09l.25,0,.18.17a.35.35,0,0,1-.17.38l-.1-.1A.63.63,0,0,1,768.86,290.54Z" transform="translate(0.76 -208.4)"/><path class="cls-119" d="M762.52,332.35c2.28-2.46,5.29-4.17,7.76-6.44.24-.22.46-.46.7-.69h0c.51-.2.75-.67,1.14-1,1.16,0,.88-1.23,1.65-1.53.6,1-.21,1.67-.36,2.49a7.34,7.34,0,0,0,.21,2.42v0c-.24.25-.63.41-.65.82a2.52,2.52,0,0,1-.35.3c-2,1.51-3.94,3.1-6.09,4.42-.63-.25-.58.17-.61.52Z" transform="translate(0.76 -208.4)"/><path class="cls-120" d="M766.52,333.13c.44-1.23,1.89-1.47,2.75-2.32a30.09,30.09,0,0,1,3.31-2.53c.35.79-.33,1.23-.58,1.82a1.63,1.63,0,0,1-.69.66,5.05,5.05,0,0,0-2.28,1.39l-.22.06C767.9,332.24,767.48,333.21,766.52,333.13Z" transform="translate(0.76 -208.4)"/><path class="cls-121" d="M771,330.53a.68.68,0,0,0,.57-.5c.31-.06.45-.73.79-.36s0,.9-.33,1.27a.8.8,0,0,1-.18.27,12.93,12.93,0,0,1-2.91,1.75.66.66,0,0,1-.11-.75h0A11.14,11.14,0,0,1,771,330.53Z" transform="translate(0.76 -208.4)"/><path class="cls-122" d="M769,293.38l.14-.34c.18-.05.3-.22.51-.23a.52.52,0,0,1,.3.24.22.22,0,0,1-.14.29l0,.13,0,.13-.1.15a2.07,2.07,0,0,1-.34.15h-.19a.22.22,0,0,1-.19-.27C768.93,293.55,769,293.47,769,293.38Z" transform="translate(0.76 -208.4)"/><path class="cls-123" d="M768.9,293.64a1.2,1.2,0,0,0,.31.13c.12.17.09.29-.09.37v0l-.36-.16q-.13.11-.21,0s-.07-.09-.06-.12Z" transform="translate(0.76 -208.4)"/><path class="cls-124" d="M768.5,293.91l.27.09c0,.11-.08.22-.11.33a1.17,1.17,0,0,1-.31-.17A.27.27,0,0,1,768.5,293.91Z" transform="translate(0.76 -208.4)"/><path class="cls-125" d="M773.59,289.39c-.45-.07-.65-.43-.92-.72a.29.29,0,0,1,0-.34,1.11,1.11,0,0,1,.26-.27h0l.4.13,1.23.81A.62.62,0,0,1,773.59,289.39Z" transform="translate(0.76 -208.4)"/><path class="cls-126" d="M773.21,290.33c.39.12.84.19.93.68l-.1.15a.81.81,0,0,1-.33.14l-.19,0a1.24,1.24,0,0,1-.32-.23.89.89,0,0,1-.21-.51.29.29,0,0,1,.25-.23Z" transform="translate(0.76 -208.4)"/><path class="cls-127" d="M774.14,291l.35.13v0a.55.55,0,0,1,0,.38.38.38,0,0,1-.28.25h0a.55.55,0,0,1-.4,0,.71.71,0,0,1-.31-.28.28.28,0,0,1,.13-.33h0a1.89,1.89,0,0,0,.46-.2Z" transform="translate(0.76 -208.4)"/><path class="cls-128" d="M774.25,291.79l.13-.31a.22.22,0,0,1,.23,0c.07,0,.11.08.1.1l.35.18L775,292l-.42-.06A1,1,0,0,0,774.25,291.79Z" transform="translate(0.76 -208.4)"/><path class="cls-129" d="M774.71,291.54a.92.92,0,0,1-.33-.06l.11-.32Z" transform="translate(0.76 -208.4)"/><path class="cls-130" d="M781,313.32c-.12.56-.25,1.12.3,1.6a.71.71,0,0,0,0,.29l-.7,1.9-.35.54-1.19-.78a.73.73,0,0,1-.08-.45,12.8,12.8,0,0,0,.2-2.31,1.26,1.26,0,0,1,1-1.37Z" transform="translate(0.76 -208.4)"/><path class="cls-131" d="M768.67,308.11a2.12,2.12,0,0,1,.27-1.89c1.09-1.32.09-3.29,1.33-4.59l1.7.63a.43.43,0,0,1,0,.45c-.93,1.06-.86,2.48-1.29,3.72-.17.52-.12,1.12-.71,1.44Z" transform="translate(0.76 -208.4)"/><path class="cls-9" d="M771.88,302.57l.09-.31a18.34,18.34,0,0,1,7.46,5.22.26.26,0,0,1,0,.33.62.62,0,0,1-.38,0,.75.75,0,0,0-.39,0,1.14,1.14,0,0,0-.94.08c-.78.17-1.08-.3-1.31-.87a.78.78,0,0,1,.27-.53c.1-.5-.42-.41-.65-.59a4.82,4.82,0,0,1-.63-.35c-.46-.35-1-.56-1.47-.89-.27-.2-.52-.42-.78-.63C772.68,303.56,771.89,303.35,771.88,302.57Z" transform="translate(0.76 -208.4)"/><path class="cls-132" d="M779.07,302a.7.7,0,0,1,.13.75c-1.42.29-2-1.07-3-1.54-1.29-.58-2.4-1.79-3.32.18-.14.28-.63.2-1,.08.7-3.28,1.11-3.46,4.21-1.67A12.28,12.28,0,0,1,779.07,302Z" transform="translate(0.76 -208.4)"/><path class="cls-133" d="M779.07,302c-1.57-.6-2.81-1.74-4.33-2.48-1.19-.57-1.82-.9-2,.6a2,2,0,0,1-.88,1.35l-.68-.26.12-.29c.82-.84.64-2.16,1.48-3l2.06.75c.37.57,1.22.39,1.61.94C777.25,300.5,778.92,300.54,779.07,302Z" transform="translate(0.76 -208.4)"/><path class="cls-134" d="M762.72,298.86c.23-.6.84-.49,1.35-.56a2.41,2.41,0,0,1,.76.4,31,31,0,0,1,3.84,2l-.12.3c-.91.19-1.82.4-2.52-.55C764.93,299.91,763.61,299.82,762.72,298.86Z" transform="translate(0.76 -208.4)"/><path class="cls-135" d="M780.91,307.64c-.07,1.39-1.23,2.29-1.66,3.52a4.35,4.35,0,0,1-.66-.14c-.26,0-.21-.28-.29-.43l-.07,0a3.6,3.6,0,0,1,1-2.13c.09-.14.17-.28.25-.42l.25-.06.86-.41a.21.21,0,0,1,.26,0C780.89,307.57,780.92,307.61,780.91,307.64Z" transform="translate(0.76 -208.4)"/><path class="cls-136" d="M766,300.44l2.52.55.68.27c-.89-.31-.94,1-1.82.73a7.09,7.09,0,0,0-1.95-1.06l-1.71-.64C764.52,299.85,765.27,300.88,766,300.44Z" transform="translate(0.76 -208.4)"/><path class="cls-137" d="M768.67,300.69c-1.42-.72-3.16-.74-4.36-1.94a3,3,0,0,1,3.1,1.1l1.37.55C768.74,300.5,768.7,300.59,768.67,300.69Z" transform="translate(0.76 -208.4)"/><path class="cls-138" d="M780.91,307.64l-.34-.12a1,1,0,0,1,.14-.28,1.12,1.12,0,0,1,.31.1l0,.16Z" transform="translate(0.76 -208.4)"/><path class="cls-139" d="M779.33,307.78a2.11,2.11,0,0,1,.1-.3.37.37,0,0,1,.28.45l-.12-.09c-.08.08-.14.1-.2.05S779.32,307.8,779.33,307.78Z" transform="translate(0.76 -208.4)"/><path class="cls-140" d="M782.64,306.91a.51.51,0,0,1,0,.3l-1.57,0,.21-1.6a5.27,5.27,0,0,0,.34-2,.44.44,0,0,1,.32,0c.1,0,.15.07.14.09.45.88.18,1.82.42,2.71Z" transform="translate(0.76 -208.4)"/><path class="cls-141" d="M772.78,298c-.53,1-.42,2.26-1.48,3C771.71,299.91,771.67,298.66,772.78,298Z" transform="translate(0.76 -208.4)"/><path class="cls-141" d="M776.45,299.64c-.56-.28-1.32-.24-1.61-.94C775.39,299,776.15,299,776.45,299.64Z" transform="translate(0.76 -208.4)"/><path class="cls-142" d="M767.41,299.85l-3.1-1.1-.24-.45.12-.31c0-.72.69-.76,1.17-1l.42-.17c.59.26,1.07-.12,1.62-.13.48.4.35.74,0,1.13C766.92,298.44,767.17,299.15,767.41,299.85Z" transform="translate(0.76 -208.4)"/><path class="cls-81" d="M781.94,303.77l-.35-.12a5.72,5.72,0,0,1,.52-3.65l.65.55a2.39,2.39,0,0,1,.07.75,8.57,8.57,0,0,0-.41,1.66C782.28,303.24,782.33,303.63,781.94,303.77Z" transform="translate(0.76 -208.4)"/><path class="cls-143" d="M771.34,293.14c-.25-.08-.5-.17-.72,0l-.17.12-.21-.08a.92.92,0,0,1-.14-.39,1.24,1.24,0,0,1,.1-.39,1,1,0,0,1,.26-.31,1.6,1.6,0,0,1,.56-.26,2.1,2.1,0,0,1,.43,0,2,2,0,0,1,.4.16l.16.14.09.18Z" transform="translate(0.76 -208.4)"/><path class="cls-144" d="M772.77,292.59l-.67-.22v0a.21.21,0,0,1,0-.31.78.78,0,0,1,.4-.05.76.76,0,0,1,.31.25A.23.23,0,0,1,772.77,292.59Z" transform="translate(0.76 -208.4)"/><path class="cls-145" d="M773.43,293l-.42.13.1-.34.22,0,.14.18Z" transform="translate(0.76 -208.4)"/><path class="cls-146" d="M772.77,292.59l.13-.27h.23l.19.14v.22l-.21.09v0Z" transform="translate(0.76 -208.4)"/><path class="cls-147" d="M770.23,293.18h.39l-.16.36-.31-.11C770,293.3,770.07,293.22,770.23,293.18Z" transform="translate(0.76 -208.4)"/><path class="cls-148" d="M765.36,297c-.15.58-.78.67-1.17,1l-.55-.55c.23-.27.45-.55.67-.83Z" transform="translate(0.76 -208.4)"/><path class="cls-149" d="M770.23,293.18l0,.13,0,.12a1.89,1.89,0,0,1-.34-.09c0-.09.07-.18.11-.27l.19-.11.19.12Z" transform="translate(0.76 -208.4)"/><path class="cls-150" d="M769.93,294.09a1.61,1.61,0,0,0-.33-.12l-.13-.19.22-.08,0-.1Z" transform="translate(0.76 -208.4)"/><path class="cls-151" d="M769.12,294.14l.09-.37v0a.39.39,0,0,1,.35.19l.05,0-.13.31Z" transform="translate(0.76 -208.4)"/><path class="cls-152" d="M780.21,312.74c-.85.81-.51,1.91-.65,2.9,0,.34.26.8-.36.92-.39.16-.64-.06-.87-.34a4.23,4.23,0,0,1-.6-1.14,8.09,8.09,0,0,1-1.69,2.05.67.67,0,0,1-.5,0,1.62,1.62,0,0,1-.6-.82c0-.09,0-.17-.06-.25a2.09,2.09,0,0,1,0-.5,3.09,3.09,0,0,1,.5-1.11c.36-.43.54-1,.91-1.39s-.24-.59-.31-.88c-.23-1.09.27-1.16,1.15-.6.92-.19,1.39,1.65,2.49.6Z" transform="translate(0.76 -208.4)"/><path class="cls-153" d="M771.88,302.57c.34.58,1.22.59,1.5,1.24a4.84,4.84,0,0,0-.74,2.28,1.63,1.63,0,0,1-1.11,1.65l-1.6.13c.35-1.56.73-3.12,1-4.69C771.07,302.65,771.26,302.39,771.88,302.57Z" transform="translate(0.76 -208.4)"/><path class="cls-154" d="M774,304.37c.55.29,1.29.28,1.6.95a1.87,1.87,0,0,0-.28,1.93.58.58,0,0,1-.35.54c-.35.12-.68.44-1.1.09l-.69-.26c-.48-1.06-.54-2,.48-2.8.13-.1-.3-.43.07-.57a.23.23,0,0,1,.14,0A.69.69,0,0,1,774,304.37Z" transform="translate(0.76 -208.4)"/><path class="cls-155" d="M774,304.37a6.6,6.6,0,0,0-.82,3.25c-.54,0-1,.39-1.6.12a4.53,4.53,0,0,0,.75-2.38c0-.55,0-1.52,1.1-1.55A.86.86,0,0,1,774,304.37Z" transform="translate(0.76 -208.4)"/><path class="cls-156" d="M773.49,316.24c.67-.55-.07-.83-.35-1.19-.77-.87-1-1.56.57-1.56a5.8,5.8,0,0,1,1.37,2.63h0c.18.43,0,.63-.45.73a1.58,1.58,0,0,1-.8-.2A.84.84,0,0,1,773.49,316.24Z" transform="translate(0.76 -208.4)"/><path class="cls-157" d="M774.74,307.5l.45-.18c.19-.74.65-.92,1.39-.55a2,2,0,0,0,1.13,1.1c-.44.37-.78.88-1.49.89C775.25,308.83,774.61,308.56,774.74,307.5Z" transform="translate(0.76 -208.4)"/><path class="cls-155" d="M774.74,307.5a2.23,2.23,0,0,0,1.48,1.26c-.3.57-.82,1-1.49.72a1.29,1.29,0,0,1-.91-1.6Z" transform="translate(0.76 -208.4)"/><path class="cls-158" d="M777.14,311.57c-2.42-.3.18,1.24-.57,1.55l-.22.06-.12-.18c-.65-.68-1.61-1.23-1-2.44C775.83,310.82,776.68,310.75,777.14,311.57Z" transform="translate(0.76 -208.4)"/><path class="cls-159" d="M779.53,308.1a4.77,4.77,0,0,1-1.3,2.44c-.06-.14-.12-.28-.17-.42a1.15,1.15,0,0,1,.54-1.52l.58-.5A.23.23,0,0,1,779.53,308.1Z" transform="translate(0.76 -208.4)"/><path class="cls-158" d="M774.63,314.18c.1-.88.23-1.74,1.6-1.18h0a2,2,0,0,1-1.31,1.62C774.6,314.59,774.42,314.5,774.63,314.18Z" transform="translate(0.76 -208.4)"/><path class="cls-160" d="M774.63,314.18l.22.44.19.14c.27.34,0,.71.16,1.05l-.12.31c-.85-.72-1-1.73-1.37-2.63Z" transform="translate(0.76 -208.4)"/><path class="cls-161" d="M778.6,308.6l-.54,1.52C777.22,309.24,777.37,308.72,778.6,308.6Z" transform="translate(0.76 -208.4)"/><path class="cls-162" d="M779.53,308.1a.83.83,0,0,0-.35,0,.9.9,0,0,1-.27-.21l.08-.16a.58.58,0,0,1,.34,0l.26.06A1.22,1.22,0,0,1,779.53,308.1Z" transform="translate(0.76 -208.4)"/><path class="cls-163" d="M778.3,310.59l.29.43a.93.93,0,0,0-.23.21C778.14,311,778.21,310.81,778.3,310.59Z" transform="translate(0.76 -208.4)"/><path class="cls-164" d="M779,307.73a.8.8,0,0,1-.08.16.52.52,0,0,1-.26-.1Z" transform="translate(0.76 -208.4)"/><path class="cls-165" d="M773.49,316.24l.33.12c.13.24.47.47.13.75l-.57,2.64a1.26,1.26,0,0,1-1.27.26l-1.35-.51c-.33-.35.1-.45.21-.65,1-.53.89-1.6,1.26-2.43S772.91,315.64,773.49,316.24Z" transform="translate(0.76 -208.4)"/><path class="cls-166" d="M764.8,324l-.35-.12c-1.07-.33-2.59.21-3-1.45.07-.2.14-.41.22-.61a.7.7,0,0,0,.59-.49l.68.22c.53,1.12,1.72,1.6,2.67,2.32a.29.29,0,0,1-.16.38Z" transform="translate(0.76 -208.4)"/><path class="cls-167" d="M782.52,301.14l.24-.59a1.36,1.36,0,0,1,.28.11c.08.5.55,1,.27,1.51L783,302C782.58,301.82,782.65,301.44,782.52,301.14Z" transform="translate(0.76 -208.4)"/><path class="cls-168" d="M765.6,324a14.11,14.11,0,0,0-1.54-.55c-1.13-.28-1.38-.92-1.09-1.84,1-.39,1.4.66,2.19.85,1.61.37,3.19.9,4.78,1.36l-.05.16-.07.15-1.8-.27a2,2,0,0,1-1,.54C766.48,324.35,766,324.43,765.6,324Z" transform="translate(0.76 -208.4)"/><path class="cls-169" d="M771.55,323.66l-.23-.43-.09-.05c0-.36,0-.69.43-.86.57-.21.73-1,1.49-.91A8.46,8.46,0,0,1,771.55,323.66Z" transform="translate(0.76 -208.4)"/><path class="cls-170" d="M771.66,322.32l-.43.86c-.58-.57-.11-1,.26-1.24S771.62,322.17,771.66,322.32Z" transform="translate(0.76 -208.4)"/><path class="cls-171" d="M773.62,327.61c-.91-.69-.53-1.48-.35-2.26a.18.18,0,0,1,.23,0c.06.05.08.09.07.11.4.6.2,1.22.19,1.84Z" transform="translate(0.76 -208.4)"/><path class="cls-18" d="M772,330.94c0-.36.45-.65.17-1,0-.06-.41.08-.63.13l1-1.75.38.13c.4.77-.32,1.33-.33,2C772.47,330.65,772.37,330.93,772,330.94Z" transform="translate(0.76 -208.4)"/><path class="cls-172" d="M773.57,325.47a1.57,1.57,0,0,0-.3-.12c-.42-1,.36-1.76.5-2.65l.24-.22.18.4c.31.66-.14,1.17-.26,1.74l-.06.22Z" transform="translate(0.76 -208.4)"/><path class="cls-173" d="M774.49,323l.49-.15c-.4.67-.25,1.62-1.11,2l-.06,0A3.07,3.07,0,0,1,774.49,323Z" transform="translate(0.76 -208.4)"/><path class="cls-174" d="M778.63,316c.06.31.29.45.57.56,0,.11-.07.21-.1.31a3.13,3.13,0,0,0-2.21,2.74c-.55-.35-1.19-.65-1-1.43a2.14,2.14,0,0,1,.26-.69,7.93,7.93,0,0,1,1.3-1.48C777.8,315.72,778.19,315.46,778.63,316Z" transform="translate(0.76 -208.4)"/><path class="cls-160" d="M774.51,316.62a.68.68,0,0,0,.57-.5,1.18,1.18,0,0,1,.46.87c.45.52.29.81-.34.94l-.34-.13C774.93,317.37,774.15,317.1,774.51,316.62Z" transform="translate(0.76 -208.4)"/><path class="cls-175" d="M774.51,316.62c.09.4.58.72.35,1.18l-.91-.69c0-.25-.09-.5-.13-.75Z" transform="translate(0.76 -208.4)"/><path class="cls-176" d="M775.2,317.93a.82.82,0,0,0,.34-.94l.35.13c.72.06.21.62.45.88l-.45.18Z" transform="translate(0.76 -208.4)"/><path class="cls-89" d="M772.12,324.23c-.17.54-.43,1-1.14,1A1.74,1.74,0,0,1,772.12,324.23Z" transform="translate(0.76 -208.4)"/><path class="cls-177" d="M774.49,323l-.68,1.91c-.34-.76.19-1.33.38-2Z" transform="translate(0.76 -208.4)"/><path class="cls-178" d="M766.06,324.84l.11-.31a.84.84,0,0,1,.83-.23.51.51,0,0,1,.32.29,5.17,5.17,0,0,1-2.75,2.18l-.34-.13C764.44,325.69,765.62,325.59,766.06,324.84Z" transform="translate(0.76 -208.4)"/><path class="cls-179" d="M767.32,324.59l-.35-.14c-.13-.17-.08-.27.12-.33a1.07,1.07,0,0,1,.93-.3c.06.3.3.42.56.53l-.12.29Z" transform="translate(0.76 -208.4)"/><path class="cls-180" d="M766.06,324.84c-.2,1-1.31,1.13-1.83,1.8a1.19,1.19,0,0,1-.92.37A6.36,6.36,0,0,1,766.06,324.84Z" transform="translate(0.76 -208.4)"/><path class="cls-180" d="M760.46,329.5c.34-1.07,1.33-1.51,2.28-2C762.35,328.54,761.31,328.93,760.46,329.5Z" transform="translate(0.76 -208.4)"/><path class="cls-85" d="M781.94,303.77l.34-.93c.12-.08.2-.09.27,0s.09.11.07.14c0,.76-.31,1.53.31,2.24-.15.42-.3.84-.46,1.25C781.48,305.65,782.27,304.65,781.94,303.77Z" transform="translate(0.76 -208.4)"/><path class="cls-181" d="M782.62,303l-.34-.12a2.49,2.49,0,0,1,.24-1.7c.15.3.3.59.44.89Z" transform="translate(0.76 -208.4)"/><path class="cls-165" d="M767.09,324.12l-.12.33-.8.08-.69-.26.12-.31Z" transform="translate(0.76 -208.4)"/><path class="cls-182" d="M770.5,287.88a.88.88,0,0,1,.63.95H771a.68.68,0,0,1-.4,0,1.19,1.19,0,0,0-.41-.08.58.58,0,0,1-.58-.08c-.38-.18-.85-.25-1-.75C769.29,288,769.84,287.43,770.5,287.88Z" transform="translate(0.76 -208.4)"/><path class="cls-183" d="M774,292.33a.84.84,0,0,1-.35-.07l0-.22.14-.16.24,0,.11.2Z" transform="translate(0.76 -208.4)"/><path class="cls-50" d="M774.15,292.1l-.35-.18a.18.18,0,0,1,.12-.27l.35.14Z" transform="translate(0.76 -208.4)"/><path class="cls-184" d="M773.68,292.26l0,.15-.07.13,0,0a.25.25,0,0,1-.25,0c-.07-.05-.11-.08-.1-.1l0-.13a.27.27,0,0,1,.17-.26.2.2,0,0,1,.25.17Z" transform="translate(0.76 -208.4)"/><path class="cls-185" d="M773.23,292.5a1.05,1.05,0,0,1,.35.08l-.06.16,0,.15-.36-.13Z" transform="translate(0.76 -208.4)"/><path class="cls-186" d="M769.62,288.68l.76-.11c.14.18.1.31-.12.38-.25.26-.54.09-.82,0Z" transform="translate(0.76 -208.4)"/><path class="cls-187" d="M769.47,289l-.48.2Z" transform="translate(0.76 -208.4)"/><path class="cls-110" d="M772.76,288.4l-.09.27c-.37.06-.74.25-1.12-.06a1.06,1.06,0,0,1,.84-.38A.29.29,0,0,1,772.76,288.4Z" transform="translate(0.76 -208.4)"/><path class="cls-188" d="M772.76,288.4l-.37-.16.49-.18Z" transform="translate(0.76 -208.4)"/><path class="cls-189" d="M770.47,290.39l.36.13.21.13a1.09,1.09,0,0,1,.36.86,2,2,0,0,1-.1.21l-.21.11a.64.64,0,0,1-.69,0c-.4-.21-1-.27-.82-.92,0-.06,0-.12,0-.18a.73.73,0,0,1,.3-.22l.2,0A.82.82,0,0,0,770.47,290.39Z" transform="translate(0.76 -208.4)"/><path class="cls-190" d="M769.37,292.4a2.81,2.81,0,0,0,.08-.31c.24-.23.52-.1.79,0l.12.18a1.42,1.42,0,0,0-.08.18l-.15.14a1.07,1.07,0,0,1-.39.14h-.22l-.16-.14Z" transform="translate(0.76 -208.4)"/><path class="cls-191" d="M770.4,291.8l.74-.14a.26.26,0,0,1-.07.41l-.36.2a.29.29,0,0,1-.43-.16l0-.07Z" transform="translate(0.76 -208.4)"/><path class="cls-192" d="M769.26,290.69l.09-.38.22,0,.18.16a.26.26,0,0,1-.18.33v.12Z" transform="translate(0.76 -208.4)"/><path class="cls-193" d="M769.36,292.53a1.17,1.17,0,0,1,.33.11c.1.15,0,.25-.12.28l-.43.12Z" transform="translate(0.76 -208.4)"/><path class="cls-194" d="M770.83,290.52c.33-.85,1-.76,1.7-.39a.59.59,0,0,1,0,.47l-.14.2-.21.13a1.07,1.07,0,0,1-1.38-.42Z" transform="translate(0.76 -208.4)"/><path class="cls-195" d="M772.43,290.43c0-.1.07-.2.1-.3l.34.11,0,.25-.24.09Z" transform="translate(0.76 -208.4)"/><path class="cls-196" d="M769.66,290.45l-.31-.14h0c-.05-.14,0-.23.16-.26a.61.61,0,0,1,.3.15C769.87,290.34,769.83,290.43,769.66,290.45Z" transform="translate(0.76 -208.4)"/><path class="cls-197" d="M770.71,288.73a.77.77,0,0,1,.3.11c-.06.2-.19.25-.39.13S770.56,288.77,770.71,288.73Z" transform="translate(0.76 -208.4)"/><path class="cls-198" d="M769.49,290.05a.54.54,0,0,0-.16.26l-.33-.19Z" transform="translate(0.76 -208.4)"/><path class="cls-199" d="M770.47,290.39l-.42.24c-.12-.14-.1-.25.07-.32A.72.72,0,0,1,770.47,290.39Z" transform="translate(0.76 -208.4)"/><path class="cls-199" d="M770.71,288.73l-.09.24-.36,0,.12-.38Z" transform="translate(0.76 -208.4)"/><path class="cls-200" d="M772.77,290.51c0-.09.07-.18.1-.27l.37.07a2.08,2.08,0,0,1-.13.3.25.25,0,0,1-.24,0C772.8,290.56,772.77,290.53,772.77,290.51Z" transform="translate(0.76 -208.4)"/><path class="cls-201" d="M770.12,290.31c0,.11,0,.21-.07.32v0a.31.31,0,0,1-.36-.16h0c.05-.08.09-.17.13-.25A.43.43,0,0,1,770.12,290.31Z" transform="translate(0.76 -208.4)"/><path class="cls-18" d="M771,330.53a4.5,4.5,0,0,1-2.17,1.68A2.45,2.45,0,0,1,771,330.53Z" transform="translate(0.76 -208.4)"/><path class="cls-202" d="M769.57,292.92a1.39,1.39,0,0,0,.12-.28v-.08h.3l.14.25-.21.19v.08Z" transform="translate(0.76 -208.4)"/><path class="cls-203" d="M769.55,293.93a3.9,3.9,0,0,1-.35-.19l.49,0Z" transform="translate(0.76 -208.4)"/><path class="cls-204" d="M772.77,290.51a.7.7,0,0,0,.34.1l.23.45-.11.16a.93.93,0,0,1-.39.15,1.07,1.07,0,0,1-.43-.06.86.86,0,0,1-.3-.3.27.27,0,0,1,.21-.3l0,0a2,2,0,0,1,.48-.09Z" transform="translate(0.76 -208.4)"/><path class="cls-50" d="M774.15,291l-.46.2Z" transform="translate(0.76 -208.4)"/><path class="cls-205" d="M773.69,291.21l-.11.32-.17,0a.32.32,0,0,1-.22-.24.19.19,0,0,1,.14-.25h0Z" transform="translate(0.76 -208.4)"/><path class="cls-206" d="M773.92,291.65l-.12.27,0,.08a.34.34,0,0,1-.35-.15.24.24,0,0,1,.12-.32h0Z" transform="translate(0.76 -208.4)"/><path class="cls-207" d="M776.58,306.77a2.06,2.06,0,0,0-1.39.55c-1.09-.92-.53-1.49.36-2l.67.26c.21.37.88.43.8,1Z" transform="translate(0.76 -208.4)"/><path class="cls-155" d="M777,306.57l-.8-1c.45.27,1.15.14,1.36.77A2.85,2.85,0,0,1,777,306.57Z" transform="translate(0.76 -208.4)"/><path class="cls-208" d="M772.2,292.15l0,.13-.07.11-.36-.14a.25.25,0,0,1,.12-.35l.23.05Z" transform="translate(0.76 -208.4)"/><path class="cls-209" d="M771.84,292l-.09.3a.82.82,0,0,1-.33-.15,2,2,0,0,0,0-.24l.25-.07Z" transform="translate(0.76 -208.4)"/><path class="cls-210" d="M771.52,291.83l0,.13-.05.14-.35,0c0-.14,0-.28.07-.41h0A.3.3,0,0,1,771.52,291.83Z" transform="translate(0.76 -208.4)"/><path class="cls-211" d="M770.28,292.11l.43.16-.23.28a.24.24,0,0,1-.26,0c-.06,0-.08-.1-.07-.12A1.51,1.51,0,0,1,770.28,292.11Z" transform="translate(0.76 -208.4)"/><path class="cls-212" d="M770.15,292.4l.33.15-.12.26a.21.21,0,0,1-.25,0c-.07-.05-.1-.09-.09-.11v0c-.06-.14,0-.23.14-.27Z" transform="translate(0.76 -208.4)"/><path class="cls-213" d="M770,292.71l.34.1-.06.27-.39-.09A1.62,1.62,0,0,0,770,292.71Z" transform="translate(0.76 -208.4)"/><path class="cls-214" d="M772.9,292.32l-.36-.15a.24.24,0,0,1,.1-.33.46.46,0,0,1,.36.19.2.2,0,0,1-.13.3Z" transform="translate(0.76 -208.4)"/><path class="cls-215" d="M772.66,291.91a1.51,1.51,0,0,1-.12.26,1.32,1.32,0,0,1-.34,0l0-.15a.21.21,0,0,1,.12-.29A.36.36,0,0,1,772.66,291.91Z" transform="translate(0.76 -208.4)"/><path class="cls-216" d="M772.87,292.33c0-.09.1-.18.16-.27l.17-.08.18.08-.08.16,0,.15Z" transform="translate(0.76 -208.4)"/><path class="cls-217" d="M776.34,318l-.45-.88c.26-1.1,1.33-1.65,1.82-2.67.35.6.63,1.07.92,1.55C777.24,316.05,777.1,317.33,776.34,318Z" transform="translate(0.76 -208.4)"/><path class="cls-155" d="M774.85,314.62l1.38-1.62.34.12c-.28.5-.18,1.21-.91,1.44-.26.11-.49.38-.81.06Z" transform="translate(0.76 -208.4)"/><path class="cls-158" d="M774.85,314.62l.81-.06-.46,1.25Z" transform="translate(0.76 -208.4)"/><path class="cls-218" d="M773.45,291.85l.37.15c-.05.09-.09.19-.13.28l-.39-.06.05-.08-.08-.19Z" transform="translate(0.76 -208.4)"/><path class="cls-219" d="M772.32,290.71l-.12.38a.46.46,0,0,1,0,.41.58.58,0,0,1-.59.18.49.49,0,0,1-.33-.28,1,1,0,0,1-.46-.89A2.31,2.31,0,0,0,772.32,290.71Z" transform="translate(0.76 -208.4)"/><path class="cls-220" d="M769.69,290.45l.36.15a.34.34,0,0,1-.48.16Z" transform="translate(0.76 -208.4)"/><path class="cls-221" d="M771.3,291.4a.73.73,0,0,1,.31.17c.13.14.11.23-.09.25h0l-.38-.17A2.26,2.26,0,0,0,771.3,291.4Z" transform="translate(0.76 -208.4)"/><path class="cls-222" d="M770.17,292.41a1.16,1.16,0,0,0-.14.27,2.42,2.42,0,0,1-.35-.12Z" transform="translate(0.76 -208.4)"/><path class="cls-126" d="M772.78,290.58l-.48.09a.92.92,0,0,0,.13-.24Z" transform="translate(0.76 -208.4)"/><path class="cls-126" d="M772.11,291.39c0-.1,0-.2.09-.3l.38.12a.29.29,0,0,1-.15.29A.31.31,0,0,1,772.11,291.39Z" transform="translate(0.76 -208.4)"/><path class="cls-126" d="M773.33,291.06a1.43,1.43,0,0,1-.13.28l-.15.08-.16-.08,0-.15Z" transform="translate(0.76 -208.4)"/><path class="cls-223" d="M772.44,291.47a2.15,2.15,0,0,0,.14-.26,1.37,1.37,0,0,0,.35,0l-.08.06v.1a.21.21,0,0,1-.08.32l-.2,0Z" transform="translate(0.76 -208.4)"/><path class="cls-145" d="M773.59,291.53l-.13.32v0l-.23.07-.17-.17a.28.28,0,0,1,.16-.36l0,0Z" transform="translate(0.76 -208.4)"/><path class="cls-223" d="M772.11,291.39a1.14,1.14,0,0,1,.33.08v0q.15.24-.12.3l-.1.21-.39-.05-.32-.13.09-.25Z" transform="translate(0.76 -208.4)"/><path class="cls-224" d="M772.33,291.79a1.88,1.88,0,0,1,.12-.3,3,3,0,0,1,.32.09.24.24,0,0,1,.27,0c.07.06.09.1.08.13h0a.19.19,0,0,1-.11.31l0,0-.37-.15Z" transform="translate(0.76 -208.4)"/><path class="cls-225" d="M773,292c0-.1.07-.21.11-.31l.34.12c0,.11-.07.21-.11.31Z" transform="translate(0.76 -208.4)"/><path class="cls-226" d="M773.12,291.7l-.35-.12a1.55,1.55,0,0,0,.07-.23l.38,0C773.19,291.48,773.16,291.59,773.12,291.7Z" transform="translate(0.76 -208.4)"/></g><g class="cls-227"><ellipse class="cls-228" cx="725.3" cy="119.21" rx="8.74" ry="5.46"/><path class="cls-228" d="M803.61,323.28a6.25,6.25,0,0,0-6.27,4.52,9.07,9.07,0,0,0-3.36-2.57c3.62-.7,6.22-2.57,6.22-4.78,0-2.81-4.2-5.08-9.38-5.08-3.94,0-7.31,1.31-8.69,3.18-.87-3.09-5.13-5.44-10.28-5.44a15.14,15.14,0,0,0-5.6,1c-1.17-3.39-5.94-5.93-11.66-5.93-6.36,0-11.54,3.14-11.9,7.09a12.67,12.67,0,0,0-2.81-.31c-4.82,0-8.74,2.61-8.74,5.84s3.92,5.83,8.74,5.83a11.78,11.78,0,0,0,5-1.07,6.57,6.57,0,0,0-.14,1.26c0,4.06,3.73,7.35,8.32,7.35s8.31-3.29,8.31-7.35a6.79,6.79,0,0,0-1.62-4.34,14.68,14.68,0,0,0,2.11-.82c1.08,2.16,3.87,3.83,7.37,4.39a7.13,7.13,0,0,0-3.6,6c0,4.06,3.72,7.35,8.31,7.35h.27a6.33,6.33,0,0,0,0,.76c0,3.75,3.43,6.78,7.67,6.78s7.67-3,7.67-6.78a6.28,6.28,0,0,0-1.7-4.25l.11,0c4.84.74,9.28-1.05,10.27-4a6.61,6.61,0,0,0,5.39,2.61c3.53,0,6.39-2.53,6.39-5.65S807.14,323.28,803.61,323.28Zm-21.84-1.52a6,6,0,0,0,3.06,2.6,7.14,7.14,0,0,0-4.49,3,8.36,8.36,0,0,0-3.14-2A8.33,8.33,0,0,0,781.77,321.76Z" transform="translate(0.76 -208.4)"/></g></g></svg>
