<svg id="Layer_1" data-name="Layer 1" xmlns="http://www.w3.org/2000/svg" viewBox="0 0 1888.6 356.12"><defs><style>.cls-1{fill:#4f4948;}.cls-2{fill:#776f6e;}.cls-3{fill:#a07f75;}.cls-4{fill:#96766f;}.cls-5{fill:#4c2d20;}.cls-6{fill:#960c23;}.cls-7{fill:#72554a;}.cls-8{fill:#ce2136;}.cls-9{fill:#b71833;}.cls-10,.cls-14{fill:none;stroke-miterlimit:10;}.cls-10{stroke:#070707;}.cls-11{fill:#070707;}.cls-12{fill:#dbdad9;}.cls-13{fill:#5d8749;}.cls-14{stroke:#000;}</style></defs><title>Artboard 1 copy</title><rect class="cls-1" x="377.19" y="-0.23" width="378.08" height="356.9"/><rect class="cls-2" x="754.73" y="-0.23" width="378.08" height="356.9"/><rect class="cls-1" x="1132.75" y="-0.23" width="378.08" height="356.9"/><rect class="cls-2" x="1510.47" y="-0.23" width="378.08" height="356.9"/><rect class="cls-2" x="-0.98" y="-0.23" width="378.08" height="356.9"/><path class="cls-3" d="M1291.63,330.35c-10.69-.59-23.06-1.36-22.46-8.47s13.93-17.85,24.62-17.26,18.86,6.82,18.27,13.93S1302.31,330.94,1291.63,330.35Z"/><ellipse class="cls-3" cx="1662.74" cy="310.88" rx="13.45" ry="12.23" transform="translate(28.7 748.23) rotate(-25.57)"/><ellipse class="cls-3" cx="1702.38" cy="311.77" rx="12.23" ry="15.35" transform="translate(32.2 765.43) rotate(-25.57)"/><path class="cls-3" d="M1673.32,179.19s2.89,7.47-27.53,14.23l11.07,73.14s21.44,6.75,51.87,0c0,0,2.87-60,12.85-75.19,0,0-23.83,2.17-27.82-15.56h-20.94Z"/><path class="cls-3" d="M1651.09,192.86c-11.67-3.17-39.09,35.91-24.14,74.22C1634,285.2,1671.5,198.4,1651.09,192.86Z"/><path class="cls-4" d="M1665.59,146.3v11.47s-7.48,4.24,0,9v8l17.2,11.23,19.45-11.72V167s8.73-2,1.25-8v-19l-27.18-9.47Z"/><path class="cls-3" d="M1739.91,260c13.28-7,2.54-72.22-26.56-68.77C1701.38,192.61,1717.31,271.86,1739.91,260Z"/><path class="cls-5" d="M1665.59,154.28s-9.73-3.49,0-20.7c0,0,1-9.47,22.94-7.23,0,0,12.71-4.24,13.71-8.73,0,0,.75,7.48-7.73,11.22,0,0,9.8-1.49,12-9,0,0,4.7,2-6,12.71,0,0,8.76-3.49,12.36-7s-6.34,12.22-6.34,12.22L1704.74,153l-5.24-10s-19.45,10.47-25.43-5.74Z"/><path class="cls-6" d="M1673.47,318c-.38-3.65-9-10.52-18.76-9.5s-18.13,5.39-17.74,9,6.23,1.42,16,.4S1673.85,321.6,1673.47,318Z"/><path d="M1665.28,156.35c-.3-4.3,5.67-7.31,17.51-.58l3.43.06s14.21-7.41,17.27-1.31c.81,1.62.48,10.29-17.39,2.81l-3.31.13S1665.9,165.41,1665.28,156.35Z"/><path class="cls-7" d="M1688,164.67c0,.5-1.34.91-3,.91s-3-.41-3-.91,1.34-.42,3-.42S1688,164.16,1688,164.67Z"/><path class="cls-6" d="M1727.23,309.89c-.62-3.62-10-6.66-19.6-5s-18,6.82-17.36,10.44,9,1.92,18.68.26S1727.85,313.51,1727.23,309.89Z"/><ellipse class="cls-7" cx="1665.26" cy="226.12" rx="2.58" ry="1.12"/><ellipse class="cls-7" cx="1700.39" cy="225.99" rx="2.58" ry="1.12"/><ellipse class="cls-3" cx="1704.23" cy="300.79" rx="14.87" ry="29.89" transform="translate(10.35 655.25) rotate(-21.83)"/><ellipse class="cls-3" cx="1659.58" cy="301.85" rx="29.48" ry="15.29" transform="translate(832.7 1772.09) rotate(-70.95)"/><path class="cls-8" d="M1656.86,266.69s13.13,6.61,51.87,0l18.5,44.44s-18.48-4.62-37,4.61l-5.61-19-11.23,21.73s-18-13.19-37.4-2.14C1636,316.35,1653.44,278.62,1656.86,266.69Z"/><path class="cls-9" d="M1654.32,274s35.2,5.34,57.27-.95l-2.86-6.78s-27.31,6.26-51.87,0Z"/><line class="cls-10" x1="1660.21" y1="269.46" x2="1659.16" y2="272.96"/><line class="cls-10" x1="1669.96" y1="270.52" x2="1669.32" y2="274.09"/><line class="cls-10" x1="1674.05" y1="270.74" x2="1674.05" y2="274.35"/><line class="cls-10" x1="1698.25" y1="270.51" x2="1698.7" y2="274.1"/><line class="cls-10" x1="1694.35" y1="271.01" x2="1694.79" y2="274.6"/><line class="cls-10" x1="1702.3" y1="269.41" x2="1702.74" y2="273"/><line class="cls-10" x1="1706.76" y1="268.72" x2="1707.21" y2="272.31"/><line class="cls-10" x1="1665.22" y1="270.2" x2="1664.58" y2="273.77"/><ellipse class="cls-11" cx="1680.95" cy="273.13" rx="1.03" ry="1.14"/><ellipse class="cls-11" cx="1688.31" cy="272.81" rx="1.03" ry="1.14"/><path class="cls-11" d="M1680.17,286.72s-5.73-6.89,0-13.59l.78.36s-5.64,5.95-.4,12.65S1680.17,286.72,1680.17,286.72Z"/><path class="cls-11" d="M1688.58,284.56s5.19-6.09,0-12l-.7.32s5.1,5.26.36,11.18S1688.58,284.56,1688.58,284.56Z"/><polygon class="cls-3" points="1691.71 305.98 1703.01 295.92 1718.77 295.87 1727.17 301.89 1720.21 307.85 1709.31 304.47 1696.3 309.73 1691.71 305.98"/><polygon class="cls-4" points="1612.65 321.73 1623.98 313.86 1640.54 314.68 1649.69 320.21 1642.7 324.86 1631.06 321.41 1617.68 325.15 1612.65 321.73"/><path class="cls-3" d="M1716.93,304.66c10.62,2,36.36-41.41,18.82-52.84C1728.54,247.12,1698.84,301.21,1716.93,304.66Z"/><path class="cls-3" d="M1633.67,317.1c-11.43-2.07-24.77-61.27-3.49-66.94C1638.93,247.83,1653.14,320.62,1633.67,317.1Z"/><path class="cls-12" d="M1681.37,172.11c-3.13,0-5.66,1.66-5.66,3.7H1687C1687,173.77,1684.5,172.11,1681.37,172.11Z"/><path class="cls-13" d="M189,323.32c-102.59,0-185.76,2.79-185.76,6.24,0,1.5,15.81,2.88,42.14,3.95h0C40.9,350.43,19,352.25,19,352.25c-.09.69-1.59,1.83,0,1.74,41.54-2.22,48.15-19.73,48.15-19.73h0c32.62.95,75.26,1.53,121.91,1.53,102.6,0,185.77-2.79,185.77-6.23S291.61,323.32,189,323.32Z"/><path class="cls-3" d="M119.36,78.56s3.14,9-29.82,17.1l12,87.94s23.23,8.12,56.19,0c0,0,3.12-72.13,13.92-90.4,0,0-25.81,2.61-30.13-18.7H118.82Z"/><path class="cls-3" d="M93.3,95.2c-11.83-2.49-39.64,28.28-24.47,58.44C76,167.9,114,99.56,93.3,95.2Z"/><path class="cls-4" d="M111,40.26V52.69s-8.1,4.59,0,9.73v8.64l18.64,12.16,21.07-12.7V62.69S160.15,60.53,152,54V33.51L122.6,23.25Z"/><path class="cls-3" d="M222.24,111.77c-1.41-13.82-65.62-30.6-73.48-5C145.53,117.31,224.64,135.3,222.24,111.77Z"/><path class="cls-3" d="M210.11,119c8.39,5.78,59.66-23.14,51-39.88C257.53,72.21,195.81,109.13,210.11,119Z"/><path class="cls-4" d="M119.26,188.59c-9.09,5.36-59.64-28.2-49.42-44.85C74,136.9,134.72,179.46,119.26,188.59Z"/><path class="cls-5" d="M111,48.91s-10.53-3.78,0-22.42c0,0,1.08-10.27,24.86-7.84,0,0,13.77-4.59,14.85-9.45,0,0,.81,8.1-8.37,12.15,0,0,10.62-1.62,13-9.72,0,0,5.09,2.16-6.53,13.78,0,0,9.5-3.79,13.4-7.57s-6.87,13.24-6.87,13.24l-1.94,16.48-5.67-10.81s-21.07,11.35-27.55-6.21Z"/><path d="M110.64,51.15c-.32-4.65,6.15-7.91,19-.62l3.72.06s15.39-8,18.7-1.42c.88,1.76.53,11.15-18.84,3l-3.58.13S111.32,61,110.64,51.15Z"/><path class="cls-7" d="M135.3,60.17c0,.54-1.46,1-3.25,1s-3.24-.45-3.24-1,1.45-.45,3.24-.45S135.3,59.62,135.3,60.17Z"/><polygon class="cls-12" points="121.88 63.68 120.08 72.68 135.29 69.62 121.88 63.68"/><path class="cls-6" d="M118.64,248.39c-.42-4-10.3-7.92-20.84-6.81s-19.92,6.09-19.51,10,9.64,2.72,20.18,1.62S119.05,252.34,118.64,248.39Z"/><path class="cls-6" d="M177.77,240.32c-.68-3.92-10.8-7.21-21.24-5.41s-19.48,7.39-18.8,11.31,9.79,2.09,20.23.29S178.44,244.24,177.77,240.32Z"/><ellipse class="cls-7" cx="104.59" cy="128.25" rx="2.79" ry="1.21"/><ellipse class="cls-7" cx="152.53" cy="127.04" rx="2.79" ry="1.21"/><ellipse class="cls-3" cx="177.77" cy="281.14" rx="11.6" ry="36.89" transform="translate(-72.76 62.34) rotate(-16.56)"/><ellipse class="cls-3" cx="99.82" cy="282.02" rx="13.25" ry="37.3" transform="translate(-54.06 25.47) rotate(-11.46)"/><ellipse class="cls-3" cx="156.09" cy="227.22" rx="16.11" ry="32.38" transform="translate(-73.3 74.33) rotate(-21.83)"/><ellipse class="cls-3" cx="103.23" cy="234.42" rx="31.94" ry="15.24" transform="translate(-152.04 255.5) rotate(-70.95)"/><path class="cls-8" d="M101.53,183.37s14.22,8.46,56.19,0l20,56s-25.92-11.89-40,6.84l-6.26-24.49-12.83,26.66S99.19,234,78.29,251.63C78.29,251.63,100.27,198.68,101.53,183.37Z"/><path class="cls-9" d="M99.5,192.75s37.42,6.85,61.32-1.2l-3.1-8.7s-29.58,8-56.19,0Z"/><line class="cls-10" x1="105.16" y1="186.92" x2="104.01" y2="191.4"/><line class="cls-10" x1="115.71" y1="188.28" x2="115.02" y2="192.86"/><line class="cls-10" x1="120.15" y1="188.56" x2="120.15" y2="193.19"/><line class="cls-10" x1="146.37" y1="188.27" x2="146.85" y2="192.87"/><line class="cls-10" x1="142.14" y1="188.91" x2="142.62" y2="193.51"/><line class="cls-10" x1="150.75" y1="186.86" x2="151.24" y2="191.46"/><line class="cls-10" x1="155.59" y1="185.97" x2="156.07" y2="190.57"/><line class="cls-10" x1="110.58" y1="187.87" x2="109.89" y2="192.45"/><ellipse class="cls-11" cx="127.63" cy="191.62" rx="1.11" ry="1.46"/><ellipse class="cls-11" cx="135.6" cy="191.21" rx="1.11" ry="1.46"/><path class="cls-11" d="M126.79,209s-6.22-8.82,0-17.41l.84.46s-6.11,7.63-.44,16.21S126.79,209,126.79,209Z"/><path class="cls-11" d="M135.89,206.28s5.63-7.81,0-15.4l-.76.41s5.53,6.74.4,14.33S135.89,206.28,135.89,206.28Z"/><path class="cls-3" d="M105.56,312c-7,0-12.6,4.28-12.6,9.57h25.2C118.16,316.31,112.52,312,105.56,312Z"/><rect class="cls-11" x="92.96" y="319.98" width="25.19" height="3.24"/><path class="cls-14" d="M112.26,313.1s-10,3.46-10.78,6.7-.72-5.52-4.78-4.78"/><path class="cls-3" d="M189.64,311.84c7,0,12.6,4.29,12.6,9.58H177C177,316.13,182.68,311.84,189.64,311.84Z"/><rect class="cls-11" x="177.04" y="319.79" width="25.19" height="3.24"/><path class="cls-14" d="M197,313.1s-10,3.45-10.79,6.69-.72-5.52-4.78-4.78"/><polygon class="cls-3" points="275.75 60.66 275.2 75.37 265.66 84.58 256.77 84.61 257.26 75.73 266.01 72.13 270.6 60.29 275.75 60.66"/><path class="cls-13" d="M565.51,324.58c-102.59,0-185.76,2.79-185.76,6.23,0,1.5,15.81,2.88,42.14,4h0c-4.49,16.92-26.43,18.73-26.43,18.73-.09.7-1.6,1.84,0,1.75C437,353,443.6,335.52,443.6,335.52h0c32.62,1,75.26,1.53,121.91,1.53,102.6,0,185.77-2.79,185.77-6.24S668.11,324.58,565.51,324.58Z"/><path class="cls-3" d="M495.86,74.83s4.59,11.53-28.37,19.65L478,179.87s23.23,8.12,56.19,0c0,0,3.12-72.13,13.92-90.4,0,0-25.81,2.61-30.13-18.7H495.32Z"/><path class="cls-3" d="M471.16,94c-11.83-2.49-39.64,28.27-24.47,58.44C453.86,166.71,491.87,98.37,471.16,94Z"/><path class="cls-4" d="M487.48,36.53V49s-8.1,4.59,0,9.73v8.64l18.64,12.16,21.08-12.7V59s9.45-2.16,1.35-8.65V29.78L499.1,19.51Z"/><path class="cls-3" d="M594.72,76.05c-9.31-10.3-71,14.16-62.18,39.45C536.16,125.9,610.58,93.6,594.72,76.05Z"/><path class="cls-3" d="M553.41,33.83c-5.23,8.75,26.9,58.07,43.05,48.35C603.11,78.18,562.33,18.94,553.41,33.83Z"/><path class="cls-3" d="M458.72,202.19c-10.33-1.5-26.52-56.78-8-63C458.34,136.69,476.3,204.74,458.72,202.19Z"/><path class="cls-5" d="M487.48,45.18s-10.53-3.78,0-22.42c0,0,1.08-10.27,24.86-7.84,0,0,13.77-4.59,14.86-9.45,0,0,.81,8.1-8.38,12.15,0,0,10.62-1.62,13-9.72,0,0,5.09,2.16-6.53,13.78,0,0,9.5-3.79,13.4-7.57s-6.87,13.24-6.87,13.24L529.9,43.83,524.22,33s-21.07,11.35-27.55-6.21Z"/><path d="M487.15,47.42c-.32-4.65,6.14-7.91,19-.62l3.72.06s15.4-8,18.71-1.42c.88,1.76.52,11.15-18.85,3.05l-3.58.13S487.82,57.24,487.15,47.42Z"/><path class="cls-7" d="M511.8,56.43c0,.55-1.45,1-3.24,1s-3.25-.45-3.25-1,1.45-.45,3.25-.45S511.8,55.89,511.8,56.43Z"/><path class="cls-6" d="M495.14,244.65c-.42-4-10.3-7.91-20.84-6.8s-19.92,6.09-19.5,10.05,9.63,2.72,20.17,1.62S495.55,248.61,495.14,244.65Z"/><path class="cls-6" d="M554.27,236.59c-.68-3.92-10.8-7.21-21.24-5.41s-19.48,7.39-18.8,11.31,9.79,2.09,20.23.29S554.94,240.51,554.27,236.59Z"/><ellipse class="cls-7" cx="481.09" cy="124.52" rx="2.79" ry="1.21"/><ellipse class="cls-7" cx="529.04" cy="123.3" rx="2.79" ry="1.21"/><ellipse class="cls-3" cx="545.94" cy="279.4" rx="11.6" ry="36.89"/><ellipse class="cls-3" cx="476.32" cy="279.29" rx="13.25" ry="37.3" transform="matrix(1, -0.07, 0.07, 1, -17.79, 32.84)"/><ellipse class="cls-3" cx="532.59" cy="223.49" rx="16.11" ry="32.38" transform="translate(-44.91 214.06) rotate(-21.83)"/><ellipse class="cls-3" cx="479.73" cy="230.69" rx="31.94" ry="15.24" transform="translate(105.12 608.88) rotate(-70.95)"/><path class="cls-8" d="M478,179.64s14.23,8.46,56.19,0l20,56s-25.91-11.89-40,6.84L508,218l-12.83,26.65s-19.45-14.4-40.34,3.25C454.8,247.9,476.77,195,478,179.64Z"/><path class="cls-9" d="M476,189s37.42,6.85,61.32-1.2l-3.1-8.7s-29.58,8-56.19,0Z"/><line class="cls-10" x1="481.66" y1="183.19" x2="480.52" y2="187.67"/><line class="cls-10" x1="492.22" y1="184.55" x2="491.52" y2="189.13"/><line class="cls-10" x1="496.66" y1="184.83" x2="496.66" y2="189.46"/><line class="cls-10" x1="522.87" y1="184.54" x2="523.36" y2="189.14"/><line class="cls-10" x1="518.64" y1="185.18" x2="519.13" y2="189.78"/><line class="cls-10" x1="527.25" y1="183.13" x2="527.74" y2="187.73"/><line class="cls-10" x1="532.09" y1="182.24" x2="532.58" y2="186.84"/><line class="cls-10" x1="487.08" y1="184.14" x2="486.39" y2="188.72"/><ellipse class="cls-11" cx="504.13" cy="187.89" rx="1.11" ry="1.46"/><ellipse class="cls-11" cx="512.1" cy="187.48" rx="1.11" ry="1.46"/><path class="cls-11" d="M503.29,205.3s-6.22-8.82,0-17.41l.84.46s-6.11,7.63-.44,16.21S503.29,205.3,503.29,205.3Z"/><path class="cls-11" d="M512.4,202.55s5.62-7.81,0-15.4l-.77.41s5.53,6.74.4,14.33S512.4,202.55,512.4,202.55Z"/><path class="cls-3" d="M479.07,313.28c7,0,12.6,4.29,12.6,9.58h-25.2C466.47,317.57,472.11,313.28,479.07,313.28Z"/><rect class="cls-11" x="466.47" y="321.24" width="25.19" height="3.24"/><path class="cls-14" d="M472.37,314.36s10,3.46,10.78,6.7.72-5.52,4.78-4.79"/><path class="cls-3" d="M547.19,313.09c7,0,12.6,4.29,12.6,9.58H534.6C534.6,317.38,540.23,313.09,547.19,313.09Z"/><rect class="cls-11" x="534.6" y="321.05" width="25.19" height="3.24"/><path class="cls-14" d="M554.5,314.35s-10,3.46-10.78,6.7-.73-5.52-4.79-4.79"/><polygon class="cls-3" points="542.52 31.44 547.47 24.16 557.79 23.79 563.16 28.04 557.92 35.58 550.58 39.08 544.96 36.43 542.52 31.44"/><polygon class="cls-3" points="453.02 204.47 457.97 197.2 468.29 196.83 473.66 201.07 468.42 208.62 461.08 212.12 455.45 209.46 453.02 204.47"/><path class="cls-12" d="M503,64.52c-3.13,0-5.66,1.66-5.66,3.71h11.32C508.68,66.18,506.14,64.52,503,64.52Z"/><path class="cls-13" d="M943.77,324.58c-102.59,0-185.76,2.79-185.76,6.23,0,1.5,15.81,2.88,42.14,4h0c-4.49,16.92-26.44,18.73-26.44,18.73-.09.7-1.59,1.84,0,1.75,41.54-2.22,48.15-19.73,48.15-19.73h0c32.62,1,75.26,1.53,121.91,1.53,102.6,0,185.77-2.79,185.77-6.24S1046.37,324.58,943.77,324.58Z"/><path class="cls-3" d="M877.11,88.79s4.59,11.54-28.37,19.65l10.54,85.4s23.23,8.12,56.19,0c0,0,3.12-72.14,13.92-90.4,0,0-25.81,2.61-30.13-18.71H876.57Z"/><path class="cls-3" d="M852.41,108c-11.83-2.49-39.64,28.28-24.47,58.44C835.11,180.67,873.12,112.33,852.41,108Z"/><path class="cls-4" d="M868.73,50.5V62.92s-8.1,4.6,0,9.73v8.64l18.64,12.16,21.08-12.7V72.92s9.45-2.16,1.35-8.64V43.74L880.35,33.48Z"/><path class="cls-3" d="M840,216.15c-10.33-1.5-26.52-56.78-8-63C839.6,150.65,857.55,218.7,840,216.15Z"/><path class="cls-5" d="M868.73,59.14s-10.53-3.78,0-22.42c0,0,1.08-10.27,24.86-7.83,0,0,13.78-4.6,14.86-9.46,0,0,.81,8.11-8.38,12.16,0,0,10.62-1.62,13-9.73,0,0,5.09,2.16-6.53,13.78,0,0,9.5-3.78,13.4-7.56s-6.87,13.23-6.87,13.23l-1.93,16.48L905.47,47s-21.07,11.34-27.55-6.22Z"/><path d="M868.4,61.38c-.32-4.65,6.14-7.91,19-.62l3.72.06s15.4-8,18.71-1.41c.88,1.76.52,11.15-18.85,3l-3.58.14S869.07,71.2,868.4,61.38Z"/><path class="cls-7" d="M893.05,70.4c0,.55-1.45,1-3.24,1s-3.25-.44-3.25-1S888,70,889.81,70,893.05,69.85,893.05,70.4Z"/><path class="cls-6" d="M876.39,258.62c-.42-4-10.3-7.91-20.84-6.81s-19.92,6.09-19.5,10.05,9.63,2.73,20.17,1.62S876.8,262.58,876.39,258.62Z"/><path class="cls-6" d="M935.52,250.55c-.68-3.92-10.8-7.21-21.24-5.41s-19.48,7.4-18.8,11.32,9.79,2.08,20.23.28S936.19,254.47,935.52,250.55Z"/><ellipse class="cls-7" cx="862.34" cy="138.48" rx="2.79" ry="1.21"/><ellipse class="cls-7" cx="910.29" cy="137.27" rx="2.79" ry="1.21"/><ellipse class="cls-3" cx="917.22" cy="282.82" rx="33.47" ry="11.6" transform="translate(350.57 1057.54) rotate(-70.95)"/><ellipse class="cls-3" cx="855.35" cy="283.08" rx="11.73" ry="31.75" transform="translate(-17.18 58.47) rotate(-3.88)"/><ellipse class="cls-3" cx="913.84" cy="237.45" rx="16.11" ry="32.38" transform="translate(-22.77 356.82) rotate(-21.83)"/><ellipse class="cls-3" cx="860.98" cy="244.65" rx="31.94" ry="15.24" transform="translate(348.76 978.67) rotate(-70.95)"/><path class="cls-8" d="M859.28,193.6s14.23,8.47,56.19,0l20,56s-25.91-11.88-40,6.85L889.22,232l-12.83,26.66s-19.45-14.41-40.34,3.24C836.05,261.86,858,208.91,859.28,193.6Z"/><path class="cls-9" d="M857.25,203s37.42,6.86,61.32-1.2l-3.1-8.69s-29.58,8-56.19,0Z"/><line class="cls-10" x1="862.91" y1="197.15" x2="861.77" y2="201.64"/><line class="cls-10" x1="873.47" y1="198.52" x2="872.77" y2="203.09"/><line class="cls-10" x1="877.91" y1="198.8" x2="877.91" y2="203.42"/><line class="cls-10" x1="904.12" y1="198.5" x2="904.61" y2="203.1"/><line class="cls-10" x1="899.89" y1="199.14" x2="900.38" y2="203.74"/><line class="cls-10" x1="908.5" y1="197.09" x2="908.99" y2="201.69"/><line class="cls-10" x1="913.34" y1="196.2" x2="913.83" y2="200.8"/><line class="cls-10" x1="868.33" y1="198.11" x2="867.64" y2="202.68"/><ellipse class="cls-11" cx="885.38" cy="201.85" rx="1.11" ry="1.46"/><ellipse class="cls-11" cx="893.35" cy="201.44" rx="1.11" ry="1.46"/><path class="cls-11" d="M884.54,219.27s-6.22-8.83,0-17.42l.84.47s-6.11,7.63-.44,16.2S884.54,219.27,884.54,219.27Z"/><path class="cls-11" d="M893.65,216.51s5.62-7.81,0-15.4l-.77.41s5.53,6.75.4,14.33S893.65,216.51,893.65,216.51Z"/><path class="cls-3" d="M857.33,313.28c7,0,12.59,4.29,12.59,9.58H844.73C844.73,317.57,850.37,313.28,857.33,313.28Z"/><rect class="cls-11" x="844.73" y="321.24" width="25.19" height="3.24"/><path class="cls-14" d="M850.63,314.36s10,3.46,10.78,6.7.72-5.52,4.78-4.79"/><path class="cls-3" d="M906.5,313.09c7,0,12.6,4.29,12.6,9.58H893.9C893.9,317.38,899.54,313.09,906.5,313.09Z"/><rect class="cls-11" x="893.9" y="321.05" width="25.19" height="3.24"/><path class="cls-14" d="M913.8,314.35s-10,3.46-10.78,6.7-.72-5.52-4.78-4.79"/><polygon class="cls-3" points="834.27 218.44 839.22 211.16 849.54 210.79 854.91 215.03 849.67 222.58 842.33 226.08 836.7 223.43 834.27 218.44"/><path class="cls-12" d="M884.27,78.49c-3.13,0-5.66,1.66-5.66,3.7h11.32C889.93,80.15,887.39,78.49,884.27,78.49Z"/><polygon class="cls-4" points="141.33 197.55 134.54 184.48 121.97 180.24 113.93 184.02 118.17 191.83 126 197.65 136.84 200.08 141.33 197.55"/><path class="cls-13" d="M1697.81,324c-102.6,0-185.77,2.8-185.77,6.24,0,1.5,15.81,2.88,42.15,3.95h0c-4.49,16.92-26.44,18.74-26.44,18.74-.09.69-1.6,1.83,0,1.74,41.53-2.21,48.14-19.73,48.14-19.73h0c32.63.95,75.27,1.53,121.92,1.53,102.6,0,185.77-2.79,185.77-6.23S1800.41,324,1697.81,324Z"/><path class="cls-3" d="M987.15,120.32c-1.57-13.29-65.75-30.17-73.27-5.66C910.79,124.74,989.82,143,987.15,120.32Z"/><path class="cls-3" d="M972.56,127.82c8.4,5.78,59.67-23.14,51-39.88C1020,81.05,958.27,118,972.56,127.82Z"/><polygon class="cls-3" points="1040.93 69.31 1040.38 84.02 1030.84 93.24 1021.96 93.26 1022.45 84.39 1031.19 80.78 1035.79 68.94 1040.93 69.31"/><path class="cls-3" d="M1255.13,126.69s4.59,11.54-28.37,19.66l10.54,85.39s23.23,8.12,56.19,0c0,0,3.11-72.13,13.92-90.4,0,0-25.81,2.61-30.13-18.71h-22.69Z"/><path class="cls-3" d="M1230.43,145.87c-11.83-2.49-39.65,28.28-24.48,58.44C1213.13,218.58,1251.14,150.23,1230.43,145.87Z"/><path class="cls-4" d="M1246.75,88.4v12.43s-8.1,4.59,0,9.72v8.65l18.64,12.15,21.07-12.69v-7.84s9.46-2.16,1.35-8.64V81.65l-29.44-10.27Z"/><path class="cls-3" d="M1218,254.05c-10.33-1.5-26.52-56.78-8-63C1217.61,188.56,1235.57,256.6,1218,254.05Z"/><path class="cls-5" d="M1246.75,97s-10.53-3.78,0-22.42c0,0,1.08-10.26,24.86-7.83,0,0,13.77-4.6,14.85-9.46,0,0,.81,8.11-8.37,12.16,0,0,10.62-1.62,13-9.73,0,0,5.09,2.16-6.53,13.78,0,0,9.5-3.78,13.4-7.56s-6.87,13.23-6.87,13.23l-1.94,16.48-5.67-10.8s-21.07,11.34-27.55-6.22Z"/><path d="M1246.41,99.29c-.32-4.66,6.15-7.92,19-.63l3.72.06s15.39-8,18.7-1.41c.88,1.76.53,11.15-18.84,3l-3.58.14S1247.09,109.1,1246.41,99.29Z"/><path class="cls-7" d="M1271.06,108.3c0,.55-1.45,1-3.24,1s-3.24-.44-3.24-1,1.45-.45,3.24-.45S1271.06,107.75,1271.06,108.3Z"/><path class="cls-6" d="M1313.4,289.32c-.68-4.5-10.79-8.28-21.22-6.21s-19.45,8.48-18.78,13,9.79,2.39,20.21.33S1314.07,293.82,1313.4,289.32Z"/><ellipse class="cls-7" cx="1240.36" cy="176.38" rx="2.79" ry="1.21"/><ellipse class="cls-7" cx="1288.3" cy="175.17" rx="2.79" ry="1.21"/><ellipse class="cls-3" cx="1198.6" cy="291.27" rx="10.63" ry="27.34" transform="translate(-16.95 81.7) rotate(-3.88)"/><ellipse class="cls-3" cx="1293.23" cy="283.7" rx="16.35" ry="41.45" transform="translate(-23.88 418.39) rotate(-18.21)"/><path class="cls-3" d="M1218.39,244.46c16.92-5.67,32.3-3.66,34.37,4.49s-8.49,20.36-25.41,26-33.78,2.65-35.85-5.5S1201.47,250.13,1218.39,244.46Z"/><path class="cls-8" d="M1237.24,224s14.22,9.71,56.13,0l20,64.26s-25.88-13.64-39.92,7.85l-6.25-28.1-21.21,4.79s-19.22-29.27-35.12-25.88c0,0,6-3.81,17-9.4C1231.64,235.53,1234.17,229.87,1237.24,224Z"/><path class="cls-9" d="M1232.5,231.77s25.74,11.74,64,1.6l-3.1-10s-29.55,9.21-56.13,0Z"/><line class="cls-10" x1="1238.85" y1="226.23" x2="1237.32" y2="231.28"/><line class="cls-10" x1="1249.24" y1="228.58" x2="1248.16" y2="233.76"/><line class="cls-10" x1="1253.64" y1="229.23" x2="1253.25" y2="234.52"/><line class="cls-10" x1="1279.78" y1="229.85" x2="1279.87" y2="235.15"/><line class="cls-10" x1="1275.51" y1="230.27" x2="1275.6" y2="235.57"/><line class="cls-10" x1="1284.27" y1="228.57" x2="1284.35" y2="233.87"/><line class="cls-10" x1="1289.16" y1="227.91" x2="1289.25" y2="233.21"/><line class="cls-10" x1="1244.17" y1="227.73" x2="1243.09" y2="232.91"/><ellipse class="cls-11" cx="1260.83" cy="233.29" rx="1.67" ry="1.11" transform="translate(934.07 1473.18) rotate(-85.72)"/><ellipse class="cls-11" cx="1268.8" cy="233.41" rx="1.67" ry="1.11" transform="translate(941.33 1481.25) rotate(-85.72)"/><path class="cls-11" d="M1258.79,253.16s-5.43-10.57,1.49-19.93l.81.6s-6.75,8.27-1.83,18.51S1258.79,253.16,1258.79,253.16Z"/><path class="cls-11" d="M1268.1,250.68s6.27-8.51,1.32-17.62l-.8.41a15.64,15.64,0,0,1-.83,16.43C1262,258.2,1268.1,250.68,1268.1,250.68Z"/><path class="cls-3" d="M1199.46,315.22c-7,0-12.6,4.29-12.6,9.58h25.19C1212.05,319.51,1206.42,315.22,1199.46,315.22Z"/><rect class="cls-11" x="1186.86" y="323.18" width="25.19" height="3.24"/><path class="cls-14" d="M1206.16,316.3s-10,3.46-10.78,6.7-.72-5.52-4.79-4.79"/><polygon class="cls-4" points="1208.72 245.53 1213.67 238.26 1223.98 237.89 1229.36 242.13 1224.12 249.68 1216.77 253.18 1211.15 250.52 1208.72 245.53"/><path class="cls-12" d="M1262.29,116.39c-3.13,0-5.67,1.66-5.67,3.71H1268C1268,118.05,1265.41,116.39,1262.29,116.39Z"/><path class="cls-13" d="M1321.79,324.58c-102.6,0-185.77,2.79-185.77,6.23,0,1.5,15.81,2.88,42.15,4h0c-4.49,16.92-26.44,18.73-26.44,18.73-.09.7-1.6,1.84,0,1.75,41.53-2.22,48.14-19.73,48.14-19.73h0c32.63,1,75.26,1.53,121.92,1.53,102.6,0,185.77-2.79,185.77-6.24S1424.39,324.58,1321.79,324.58Z"/><path class="cls-3" d="M1303.4,140.89c11.82-2.49,39.64,28.27,24.47,58.43C1320.7,213.59,1282.68,145.25,1303.4,140.89Z"/><path class="cls-3" d="M1314.84,250.06c10.33-1.49,26.52-56.77,8-62.95C1315.21,184.57,1297.26,252.61,1314.84,250.06Z"/><polygon class="cls-3" points="1320.54 252.35 1315.59 245.07 1305.27 244.7 1299.9 248.95 1305.14 256.49 1312.48 259.99 1318.11 257.34 1320.54 252.35"/></svg>
