<svg id="forgrund" xmlns="http://www.w3.org/2000/svg" xmlns:xlink="http://www.w3.org/1999/xlink" viewBox="0 0 2177.4 1012.01"><defs><style>.cls-1{fill:none;}.cls-2{clip-path:url(#clip-path);}.cls-3{fill:#49453e;}.cls-3,.cls-4,.cls-5,.cls-6,.cls-7{opacity:0.61;}.cls-4{fill:#514e4a;}.cls-5{fill:#423f3b;}.cls-6{fill:#56524d;}.cls-7{fill:#494541;}.cls-8{clip-path:url(#clip-path-2);}.cls-9{fill:#1e2d10;}.cls-10{clip-path:url(#clip-path-3);}</style><clipPath id="clip-path" transform="translate(188.8 -552.74)"><rect class="cls-1" x="-0.82" y="615" width="1920" height="470"/></clipPath><clipPath id="clip-path-2" transform="translate(188.8 -552.74)"><rect class="cls-1" x="3.11" y="640.8" width="509.14" height="446.63"/></clipPath><clipPath id="clip-path-3" transform="translate(188.8 -552.74)"><rect class="cls-1" x="1324.67" y="656.3" width="594.83" height="442.62"/></clipPath></defs><title>forgrund_done</title><g class="cls-2"><polygon class="cls-3" points="1393.3 466.99 1400.38 459.74 1405.51 459.74 1413.33 459.74 1419.19 463.37 1424.56 463.37 1429.44 463.37 1431.89 466.99 1435.06 466.99 1430.91 480.58 1430.91 485.71 1428.71 490.54 1418.21 490.54 1408.93 488.73 1401.12 495.07 1391.84 488.5 1393.3 466.99"/><polygon class="cls-4" points="1466.11 466.45 1453.93 462.21 1449.98 459.74 1445.72 462.21 1439.32 466.45 1438.11 480.59 1438.11 492.25 1448.15 495.78 1458.81 502.85 1474.33 492.25 1478.29 478.11 1466.11 466.45"/><polygon class="cls-5" points="1415.28 501.43 1410.4 486.24 1418.78 478.47 1438.11 476.7 1449.37 489.07 1436.28 502.85 1415.28 501.43"/><polygon class="cls-6" points="1509.64 476.81 1514.1 470.42 1520.11 467.07 1527.23 467.07 1534.91 467.07 1540.61 475.6 1541.6 479.71 1537.14 488.69 1536.65 492.95 1530.21 501 1530.7 507.56 1524.26 512.74 1512.86 505.43 1505.65 501 1509.64 476.81"/><polygon class="cls-7" points="1535.52 459.74 1541.6 451.62 1549.2 451.62 1557.74 453.74 1563.38 459.61 1570.22 459.74 1575.39 459.74 1579.35 464.13 1583.01 464.07 1585.45 464.02 1592.59 463.89 1597.61 464.13 1599.41 467.64 1601.27 468.66 1606.44 474.4 1609.26 484.83 1609.26 489.86 1595.48 495.07 1586.96 499.12 1576.91 498.84 1564.13 495.07 1544.34 484.83 1535.52 462.57 1535.52 459.74"/><polygon class="cls-5" points="1471.07 479.24 1478.01 472.06 1483.62 467.07 1488.96 468.54 1498.85 470.88 1503.65 473.16 1505.26 476.46 1508.73 484.96 1505.26 492 1505.26 497.57 1498.31 501.09 1473.47 502.85 1467.33 494.93 1471.07 479.24"/><polygon class="cls-3" points="1280.47 497.55 1287.55 490.3 1292.68 490.3 1300.49 490.3 1306.36 493.93 1311.73 493.93 1316.61 493.93 1319.06 497.55 1322.23 497.55 1318.08 511.14 1318.08 516.27 1315.88 521.11 1305.38 521.11 1296.1 519.29 1288.29 525.63 1279.01 519.06 1280.47 497.55"/><polygon class="cls-4" points="1353.28 497.02 1341.1 492.78 1337.15 490.3 1332.88 492.78 1326.49 497.02 1325.27 511.15 1325.27 522.81 1335.32 526.34 1345.97 533.41 1361.5 522.81 1365.46 508.68 1353.28 497.02"/><polygon class="cls-5" points="1302.44 531.99 1297.57 516.8 1305.94 509.03 1325.27 507.26 1336.54 519.63 1323.45 533.41 1302.44 531.99"/><polygon class="cls-6" points="1396.81 507.38 1401.27 500.98 1407.28 497.63 1414.4 497.63 1422.08 497.63 1427.78 506.16 1428.77 510.27 1424.31 519.25 1423.82 523.51 1417.37 531.56 1417.87 538.12 1411.43 543.3 1400.03 535.99 1392.82 531.56 1396.81 507.38"/><polygon class="cls-7" points="1422.68 490.3 1428.77 482.18 1436.37 482.18 1444.9 484.3 1450.54 490.17 1457.39 490.3 1462.56 490.3 1466.52 494.69 1470.18 494.63 1472.62 494.58 1479.76 494.45 1484.78 494.69 1486.57 498.2 1488.43 499.23 1493.61 504.97 1496.43 515.39 1496.43 520.42 1482.65 525.63 1474.13 529.68 1464.08 529.4 1451.3 525.63 1431.51 515.39 1422.68 493.13 1422.68 490.3"/><polygon class="cls-5" points="1358.24 509.8 1365.18 502.62 1370.79 497.63 1376.13 499.1 1386.01 501.45 1390.82 503.72 1392.42 507.02 1395.9 515.52 1392.42 522.56 1392.42 528.13 1385.48 531.65 1360.64 533.41 1354.5 525.49 1358.24 509.8"/><polygon class="cls-3" points="1210.22 461.26 1217.3 454.01 1222.43 454.01 1230.24 454.01 1236.1 457.64 1241.47 457.64 1246.36 457.64 1248.8 461.26 1251.98 461.26 1247.83 474.85 1247.83 479.98 1245.63 484.81 1235.13 484.81 1225.85 483 1218.03 489.34 1208.75 482.77 1210.22 461.26"/><polygon class="cls-4" points="1283.03 460.73 1270.85 456.49 1266.89 454.01 1262.63 456.49 1256.24 460.73 1255.02 474.86 1255.02 486.52 1265.07 490.05 1275.72 497.12 1291.24 486.52 1295.2 472.38 1283.03 460.73"/><polygon class="cls-5" points="1232.19 495.7 1227.32 480.51 1235.69 472.74 1255.02 470.97 1266.28 483.34 1253.19 497.12 1232.19 495.7"/><polygon class="cls-6" points="1326.56 471.08 1331.02 464.69 1337.02 461.34 1344.15 461.34 1351.83 461.34 1357.53 469.87 1358.52 473.98 1354.06 482.96 1353.56 487.22 1347.12 495.27 1347.62 501.83 1341.17 507.01 1329.78 499.7 1322.56 495.27 1326.56 471.08"/><polygon class="cls-7" points="1352.43 454.01 1358.52 445.89 1366.12 445.89 1374.65 448.01 1380.29 453.87 1387.13 454.01 1392.31 454.01 1396.26 458.4 1399.93 458.34 1402.36 458.29 1409.51 458.16 1414.53 458.4 1416.32 461.91 1418.18 462.93 1423.36 468.67 1426.17 479.1 1426.17 484.13 1412.4 489.34 1403.87 493.38 1393.83 493.11 1381.04 489.34 1361.26 479.1 1352.43 456.84 1352.43 454.01"/><polygon class="cls-5" points="1287.98 473.51 1294.93 466.33 1300.54 461.34 1305.88 462.81 1315.76 465.15 1320.57 467.43 1322.17 470.73 1325.64 479.23 1322.17 486.27 1322.17 491.84 1315.23 495.36 1290.39 497.12 1284.24 489.2 1287.98 473.51"/><polygon class="cls-3" points="1129.32 493.73 1136.4 486.48 1141.53 486.48 1149.34 486.48 1155.2 490.11 1160.58 490.11 1165.46 490.11 1167.9 493.73 1171.08 493.73 1166.93 507.32 1166.93 512.45 1164.73 517.28 1154.23 517.28 1144.95 515.47 1137.13 521.81 1127.85 515.24 1129.32 493.73"/><polygon class="cls-4" points="1202.13 493.2 1189.95 488.96 1185.99 486.48 1181.73 488.96 1175.34 493.2 1174.12 507.33 1174.12 518.99 1184.17 522.52 1194.82 529.59 1210.35 518.99 1214.3 504.86 1202.13 493.2"/><polygon class="cls-5" points="1151.29 528.17 1146.42 512.98 1154.79 505.21 1174.12 503.44 1185.38 515.81 1172.3 529.59 1151.29 528.17"/><polygon class="cls-6" points="1245.66 503.56 1250.12 497.16 1256.13 493.81 1263.25 493.81 1270.93 493.81 1276.63 502.34 1277.62 506.45 1273.16 515.43 1272.66 519.69 1266.22 527.74 1266.72 534.3 1260.28 539.48 1248.88 532.17 1241.66 527.74 1245.66 503.56"/><polygon class="cls-7" points="1271.53 486.48 1277.62 478.36 1285.22 478.36 1293.75 480.48 1299.39 486.35 1306.23 486.48 1311.41 486.48 1315.36 490.88 1319.03 490.81 1321.46 490.76 1328.61 490.63 1333.63 490.88 1335.42 494.38 1337.28 495.4 1342.46 501.15 1345.27 511.57 1345.27 516.6 1331.5 521.81 1322.98 525.86 1312.93 525.58 1300.14 521.81 1280.36 511.57 1271.53 489.31 1271.53 486.48"/><polygon class="cls-5" points="1207.08 505.98 1214.03 498.8 1219.64 493.81 1224.98 495.28 1234.86 497.63 1239.67 499.9 1241.27 503.2 1244.74 511.7 1241.27 518.74 1241.27 524.31 1234.33 527.83 1209.49 529.59 1203.35 521.67 1207.08 505.98"/><polygon class="cls-6" points="1137.08 451.98 1141.54 445.59 1147.55 442.24 1154.67 442.24 1162.36 442.24 1168.05 450.77 1169.05 454.88 1164.59 463.86 1164.09 468.12 1157.65 476.17 1158.14 482.73 1151.7 487.91 1140.3 480.6 1133.09 476.17 1137.08 451.98"/><polygon class="cls-3" points="986.68 491.82 993.76 484.57 998.89 484.57 1006.71 484.57 1012.57 488.2 1017.94 488.2 1022.82 488.2 1025.27 491.82 1028.44 491.82 1024.29 505.41 1024.29 510.54 1022.09 515.37 1011.59 515.37 1002.31 513.56 994.5 519.9 985.22 513.33 986.68 491.82"/><polygon class="cls-4" points="1059.49 491.29 1047.31 487.05 1043.36 484.57 1039.1 487.05 1032.7 491.29 1031.48 505.42 1031.48 517.08 1041.53 520.61 1052.18 527.68 1067.71 517.08 1071.67 502.94 1059.49 491.29"/><polygon class="cls-5" points="1008.65 526.26 1003.78 511.07 1012.15 503.3 1031.48 501.53 1042.75 513.9 1029.66 527.68 1008.65 526.26"/><polygon class="cls-6" points="1103.02 501.65 1107.48 495.25 1113.49 491.9 1120.61 491.9 1128.29 491.9 1133.99 500.43 1134.98 504.54 1130.52 513.52 1130.03 517.78 1123.59 525.83 1124.08 532.39 1117.64 537.57 1106.24 530.26 1099.03 525.83 1103.02 501.65"/><polygon class="cls-7" points="1128.89 484.57 1134.98 476.45 1142.58 476.45 1151.12 478.57 1156.75 484.44 1163.6 484.57 1168.77 484.57 1172.73 488.96 1176.39 488.9 1178.83 488.85 1185.97 488.73 1190.99 488.96 1192.79 492.47 1194.65 493.49 1199.82 499.24 1202.64 509.66 1202.64 514.69 1188.86 519.9 1180.34 523.95 1170.29 523.67 1157.51 519.9 1137.72 509.66 1128.89 487.4 1128.89 484.57"/><polygon class="cls-5" points="1064.45 504.07 1071.39 496.89 1077 491.9 1082.34 493.37 1092.22 495.72 1097.03 497.99 1098.63 501.29 1102.11 509.79 1098.63 516.83 1098.63 522.4 1091.69 525.92 1066.85 527.68 1060.71 519.76 1064.45 504.07"/><polygon class="cls-3" points="816.37 463.17 823.45 455.92 828.58 455.92 836.39 455.92 842.25 459.55 847.63 459.55 852.51 459.55 854.95 463.17 858.13 463.17 853.98 476.76 853.98 481.89 851.78 486.72 841.28 486.72 832 484.91 824.18 491.25 814.9 484.68 816.37 463.17"/><polygon class="cls-4" points="889.18 462.63 877 458.39 873.04 455.92 868.78 458.39 862.39 462.63 861.17 476.77 861.17 488.43 871.22 491.96 881.87 499.02 897.4 488.43 901.35 474.29 889.18 462.63"/><polygon class="cls-5" points="838.34 497.61 833.47 482.42 841.84 474.65 861.17 472.88 872.44 485.25 859.35 499.02 838.34 497.61"/><polygon class="cls-6" points="932.71 473 937.17 466.6 943.18 463.25 950.3 463.25 957.98 463.25 963.68 471.78 964.67 475.89 960.21 484.87 959.72 489.13 953.27 497.18 953.77 503.74 947.33 508.92 935.93 501.61 928.71 497.18 932.71 473"/><polygon class="cls-7" points="958.58 455.92 964.67 447.8 972.27 447.8 980.8 449.92 986.44 455.78 993.28 455.92 998.46 455.92 1002.41 460.31 1006.08 460.25 1008.51 460.2 1015.66 460.07 1020.68 460.31 1022.47 463.82 1024.33 464.84 1029.51 470.58 1032.32 481.01 1032.32 486.04 1018.55 491.25 1010.03 495.29 999.98 495.02 987.2 491.25 967.41 481.01 958.58 458.75 958.58 455.92"/><polygon class="cls-5" points="894.13 475.42 901.08 468.24 906.69 463.25 912.03 464.72 921.91 467.06 926.72 469.34 928.32 472.64 931.79 481.14 928.32 488.18 928.32 493.75 921.38 497.27 896.54 499.02 890.4 491.11 894.13 475.42"/><polygon class="cls-3" points="746.12 480.36 753.2 473.11 758.33 473.11 766.14 473.11 772 476.74 777.37 476.74 782.26 476.74 784.7 480.36 787.88 480.36 783.72 493.95 783.72 499.08 781.52 503.91 771.02 503.91 761.74 502.1 753.93 508.44 744.65 501.87 746.12 480.36"/><polygon class="cls-4" points="818.92 479.83 806.75 475.59 802.79 473.11 798.53 475.59 792.14 479.83 790.92 493.96 790.92 505.62 800.96 509.15 811.62 516.22 827.14 505.62 831.1 491.49 818.92 479.83"/><polygon class="cls-5" points="768.09 514.8 763.22 499.61 771.59 491.84 790.92 490.07 802.18 502.44 789.09 516.22 768.09 514.8"/><polygon class="cls-6" points="862.45 490.19 866.91 483.79 872.92 480.44 880.05 480.44 887.73 480.44 893.42 488.97 894.42 493.08 889.96 502.06 889.46 506.32 883.02 514.37 883.51 520.93 877.07 526.11 865.67 518.8 858.46 514.37 862.45 490.19"/><polygon class="cls-7" points="888.33 473.11 894.42 464.99 902.01 464.99 910.55 467.11 916.19 472.98 923.03 473.11 928.21 473.11 932.16 477.5 935.83 477.44 938.26 477.39 945.4 477.26 950.43 477.5 952.22 481.01 954.08 482.03 959.25 487.77 962.07 498.2 962.07 503.23 948.3 508.44 939.77 512.49 929.73 512.21 916.94 508.44 897.16 498.2 888.33 475.94 888.33 473.11"/><polygon class="cls-5" points="823.88 492.61 830.83 485.43 836.43 480.44 841.78 481.91 851.66 484.26 856.47 486.53 858.07 489.83 861.54 498.33 858.07 505.37 858.07 510.94 851.12 514.46 826.28 516.22 820.14 508.3 823.88 492.61"/><polygon class="cls-6" points="594.21 455.8 598.67 449.41 604.68 446.06 611.8 446.06 619.48 446.06 625.18 454.59 626.17 458.7 621.71 467.68 621.22 471.94 614.78 479.99 615.27 486.55 608.83 491.73 597.43 484.42 590.22 479.99 594.21 455.8"/><polygon class="cls-3" points="548.13 488 555.21 480.75 560.34 480.75 568.15 480.75 574.01 484.38 579.38 484.38 584.27 484.38 586.71 488 589.89 488 585.74 501.59 585.74 506.72 583.54 511.55 573.04 511.55 563.76 509.74 555.94 516.08 546.66 509.51 548.13 488"/><polygon class="cls-4" points="620.94 487.47 608.76 483.23 604.8 480.75 600.54 483.23 594.15 487.47 592.93 501.6 592.93 513.26 602.98 516.79 613.63 523.86 629.15 513.26 633.11 499.13 620.94 487.47"/><polygon class="cls-5" points="570.1 522.44 565.23 507.25 573.6 499.48 592.93 497.71 604.19 510.08 591.1 523.86 570.1 522.44"/><polygon class="cls-6" points="664.47 497.83 668.93 491.43 674.93 488.08 682.06 488.08 689.74 488.08 695.44 496.61 696.43 500.72 691.97 509.7 691.47 513.96 685.03 522.01 685.53 528.57 679.08 533.75 667.69 526.44 660.47 522.01 664.47 497.83"/><polygon class="cls-7" points="690.34 480.75 696.43 472.63 704.03 472.63 712.56 474.75 718.2 480.62 725.04 480.75 730.22 480.75 734.17 485.14 737.84 485.08 740.27 485.03 747.42 484.9 752.44 485.14 754.23 488.65 756.09 489.67 761.27 495.42 764.08 505.84 764.08 510.87 750.31 516.08 741.78 520.13 731.74 519.85 718.95 516.08 699.17 505.84 690.34 483.58 690.34 480.75"/><polygon class="cls-5" points="625.89 500.25 632.84 493.07 638.45 488.08 643.79 489.55 653.67 491.9 658.48 494.17 660.08 497.47 663.55 505.97 660.08 513.01 660.08 518.58 653.14 522.1 628.3 523.86 622.15 515.94 625.89 500.25"/><polygon class="cls-3" points="345.88 478.45 352.96 471.2 358.09 471.2 365.91 471.2 371.77 474.83 377.14 474.83 382.02 474.83 384.47 478.45 387.64 478.45 383.49 492.04 383.49 497.17 381.29 502 370.79 502 361.51 500.19 353.69 506.53 344.42 499.96 345.88 478.45"/><polygon class="cls-4" points="418.69 477.92 406.51 473.68 402.56 471.2 398.3 473.68 391.9 477.92 390.68 492.05 390.68 503.71 400.73 507.24 411.38 514.31 426.91 503.71 430.87 489.57 418.69 477.92"/><polygon class="cls-5" points="367.85 512.89 362.98 497.7 371.36 489.93 390.68 488.16 401.95 500.53 388.86 514.31 367.85 512.89"/><polygon class="cls-6" points="462.22 488.28 466.68 481.88 472.69 478.53 479.81 478.53 487.49 478.53 493.19 487.06 494.18 491.17 489.72 500.15 489.23 504.41 482.79 512.46 483.28 519.02 476.84 524.2 465.44 516.89 458.23 512.46 462.22 488.28"/><polygon class="cls-7" points="488.09 471.2 494.18 463.08 501.78 463.08 510.32 465.2 515.95 471.06 522.8 471.2 527.97 471.2 531.93 475.59 535.59 475.53 538.03 475.48 545.17 475.35 550.19 475.59 551.98 479.1 553.85 480.12 559.02 485.87 561.84 496.29 561.84 501.32 548.06 506.53 539.54 510.57 529.49 510.3 516.71 506.53 496.92 496.29 488.09 474.03 488.09 471.2"/><polygon class="cls-5" points="423.65 490.7 430.59 483.52 436.2 478.53 441.54 480 451.42 482.35 456.23 484.62 457.83 487.92 461.31 496.42 457.83 503.46 457.83 509.03 450.89 512.55 426.05 514.31 419.91 506.39 423.65 490.7"/><polygon class="cls-6" points="242.94 497.83 247.4 491.43 253.41 488.08 260.53 488.08 268.21 488.08 273.91 496.61 274.9 500.72 270.44 509.7 269.95 513.96 263.51 522.01 264 528.57 257.56 533.75 246.16 526.44 238.95 522.01 242.94 497.83"/><polygon class="cls-7" points="268.82 480.75 274.9 472.63 282.5 472.63 291.04 474.75 296.68 480.62 303.52 480.75 308.69 480.75 312.65 485.14 316.31 485.08 318.75 485.03 325.89 484.9 330.92 485.14 332.71 488.65 334.57 489.67 339.74 495.42 342.56 505.84 342.56 510.87 328.78 516.08 320.26 520.13 310.22 519.85 297.43 516.08 277.64 505.84 268.82 483.58 268.82 480.75"/><polygon class="cls-5" points="204.37 500.25 211.31 493.07 216.92 488.08 222.26 489.55 232.15 491.9 236.95 494.17 238.56 497.47 242.03 505.97 238.56 513.01 238.56 518.58 231.61 522.1 206.77 523.86 200.63 515.94 204.37 500.25"/><polygon class="cls-3" points="1476.79 543.17 1483.12 535.92 1487.7 535.92 1494.68 535.92 1499.92 539.55 1504.72 539.55 1509.08 539.55 1511.27 543.17 1514.1 543.17 1510.39 556.76 1510.39 561.89 1508.43 566.73 1499.05 566.73 1490.76 564.91 1483.77 571.25 1475.48 564.68 1476.79 543.17"/><polygon class="cls-6" points="1453.3 518.62 1457.28 512.22 1462.65 508.87 1469.02 508.87 1475.88 508.87 1480.97 517.4 1481.85 521.51 1477.87 530.49 1477.43 534.75 1471.67 542.8 1472.11 549.36 1466.36 554.54 1456.18 547.23 1449.73 542.8 1453.3 518.62"/><polygon class="cls-7" points="1476.41 531.59 1481.85 523.46 1488.64 523.46 1496.27 525.58 1501.3 531.45 1507.42 531.59 1512.04 531.59 1515.57 535.98 1518.85 535.91 1521.03 535.87 1527.41 535.74 1531.89 535.98 1533.49 539.48 1535.16 540.51 1539.78 546.25 1542.3 556.67 1542.3 561.7 1529.99 566.91 1522.38 570.96 1513.4 570.68 1501.98 566.91 1484.3 556.67 1476.41 534.41 1476.41 531.59"/><polygon class="cls-5" points="1418.84 527.05 1425.04 519.87 1430.05 514.88 1434.83 516.35 1443.65 518.69 1447.95 520.97 1449.38 524.26 1452.48 532.77 1449.38 539.8 1449.38 545.38 1443.18 548.89 1420.98 550.65 1415.5 542.74 1418.84 527.05"/><polygon class="cls-4" points="2084.63 453.65 2072.46 449.41 2068.5 446.94 2064.24 449.41 2057.85 453.65 2056.63 467.78 2056.63 479.44 2066.67 482.98 2077.33 490.04 2092.85 479.44 2096.81 465.31 2084.63 453.65"/><polygon class="cls-5" points="2033.8 488.63 2028.93 473.44 2037.3 465.66 2056.63 463.9 2067.89 476.26 2054.8 490.04 2033.8 488.63"/><polygon class="cls-3" points="1941.57 471.38 1948.65 464.13 1953.78 464.13 1961.6 464.13 1967.46 467.75 1972.83 467.75 1977.71 467.75 1980.16 471.38 1983.33 471.38 1979.18 484.96 1979.18 490.1 1976.98 494.93 1966.48 494.93 1957.2 493.12 1949.38 499.46 1940.11 492.88 1941.57 471.38"/><polygon class="cls-4" points="2014.38 470.84 2002.2 466.6 1998.25 464.13 1993.98 466.6 1987.59 470.84 1986.38 484.97 1986.38 496.63 1996.42 500.17 2007.07 507.23 2022.6 496.63 2026.56 482.5 2014.38 470.84"/><polygon class="cls-5" points="1963.54 505.82 1958.67 490.63 1967.05 482.85 1986.38 481.09 1997.64 493.45 1984.55 507.23 1963.54 505.82"/><polygon class="cls-6" points="2057.91 481.2 2062.37 474.81 2068.38 471.46 2075.5 471.46 2083.18 471.46 2088.88 479.98 2089.87 484.09 2085.41 493.07 2084.92 497.34 2078.47 505.39 2078.97 511.95 2072.53 517.13 2061.13 509.82 2053.92 505.39 2057.91 481.2"/><polygon class="cls-5" points="2019.34 483.63 2026.28 476.44 2031.89 471.46 2037.23 472.93 2047.11 475.27 2051.92 477.54 2053.53 480.84 2057 489.35 2053.53 496.38 2053.53 501.95 2046.58 505.47 2021.74 507.23 2015.6 499.31 2019.34 483.63"/><polygon class="cls-3" points="1743.58 479.02 1750.66 471.77 1755.79 471.77 1763.61 471.77 1769.47 475.39 1774.84 475.39 1779.73 475.39 1782.17 479.02 1785.34 479.02 1781.19 492.61 1781.19 497.74 1778.99 502.57 1768.49 502.57 1759.21 500.76 1751.4 507.1 1742.12 500.52 1743.58 479.02"/><polygon class="cls-4" points="1816.39 478.48 1804.22 474.24 1800.26 471.77 1796 474.24 1789.6 478.48 1788.39 492.61 1788.39 504.27 1798.43 507.81 1809.09 514.87 1824.61 504.27 1828.57 490.14 1816.39 478.48"/><polygon class="cls-5" points="1765.56 513.46 1760.69 498.27 1769.06 490.49 1788.39 488.73 1799.65 501.09 1786.56 514.87 1765.56 513.46"/><polygon class="cls-6" points="1859.92 488.84 1864.38 482.45 1870.39 479.1 1877.51 479.1 1885.19 479.1 1890.89 487.62 1891.88 491.73 1887.42 500.71 1886.93 504.98 1880.49 513.03 1880.98 519.59 1874.54 524.76 1863.14 517.46 1855.93 513.03 1859.92 488.84"/><polygon class="cls-7" points="1885.8 471.77 1891.88 463.64 1899.48 463.64 1908.02 465.76 1913.65 471.63 1920.5 471.77 1925.67 471.77 1929.63 476.16 1933.29 476.09 1935.73 476.05 1942.87 475.92 1947.89 476.16 1949.69 479.67 1951.55 480.69 1956.72 486.43 1959.54 496.85 1959.54 501.89 1945.76 507.1 1937.24 511.14 1927.19 510.87 1914.41 507.1 1894.62 496.85 1885.8 474.6 1885.8 471.77"/><polygon class="cls-5" points="1821.35 491.27 1828.29 484.08 1833.9 479.1 1839.24 480.57 1849.13 482.91 1853.93 485.19 1855.54 488.48 1859.01 496.99 1855.54 504.02 1855.54 509.6 1848.59 513.11 1823.75 514.87 1817.61 506.96 1821.35 491.27"/><polygon class="cls-3" points="1541.34 469.47 1548.42 462.22 1553.55 462.22 1561.36 462.22 1567.22 465.84 1572.6 465.84 1577.48 465.84 1579.92 469.47 1583.1 469.47 1578.94 483.06 1578.94 488.19 1576.75 493.02 1566.25 493.02 1556.97 491.21 1549.15 497.55 1539.87 490.97 1541.34 469.47"/><polygon class="cls-4" points="1614.15 468.93 1601.97 464.69 1598.01 462.22 1593.75 464.69 1587.36 468.93 1586.14 483.06 1586.14 494.72 1596.19 498.26 1606.84 505.32 1622.37 494.72 1626.32 480.59 1614.15 468.93"/><polygon class="cls-5" points="1563.31 503.91 1558.44 488.72 1566.81 480.94 1586.14 479.18 1597.4 491.54 1584.31 505.32 1563.31 503.91"/><polygon class="cls-6" points="1657.68 479.29 1662.14 472.9 1668.14 469.55 1675.27 469.55 1682.95 469.55 1688.65 478.07 1689.64 482.18 1685.18 491.17 1684.68 495.43 1678.24 503.48 1678.74 510.04 1672.29 515.22 1660.9 507.91 1653.68 503.48 1657.68 479.29"/><polygon class="cls-7" points="1683.55 462.22 1689.64 454.09 1697.24 454.09 1705.77 456.21 1711.41 462.08 1718.25 462.22 1723.43 462.22 1727.38 466.61 1731.05 466.54 1733.48 466.5 1740.63 466.37 1745.65 466.61 1747.44 470.12 1749.3 471.14 1754.48 476.88 1757.29 487.3 1757.29 492.34 1743.52 497.55 1734.99 501.59 1724.95 501.32 1712.16 497.55 1692.38 487.3 1683.55 465.05 1683.55 462.22"/><polygon class="cls-5" points="1619.1 481.72 1626.05 474.54 1631.66 469.55 1637 471.02 1646.88 473.36 1651.69 475.63 1653.29 478.93 1656.76 487.44 1653.29 494.47 1653.29 500.04 1646.35 503.56 1621.51 505.32 1615.36 497.4 1619.1 481.72"/><polygon class="cls-6" points="1438.4 488.84 1442.86 482.45 1448.87 479.1 1455.99 479.1 1463.67 479.1 1469.37 487.62 1470.36 491.73 1465.9 500.71 1465.4 504.98 1458.96 513.03 1459.46 519.59 1453.02 524.76 1441.62 517.46 1434.4 513.03 1438.4 488.84"/><polygon class="cls-7" points="1464.27 471.77 1470.36 463.64 1477.96 463.64 1486.49 465.76 1492.13 471.63 1498.97 471.77 1504.15 471.77 1508.1 476.16 1511.77 476.09 1514.2 476.05 1521.35 475.92 1526.37 476.16 1528.16 479.67 1530.02 480.69 1535.2 486.43 1538.02 496.85 1538.02 501.89 1524.24 507.1 1515.72 511.14 1505.67 510.87 1492.89 507.1 1473.1 496.85 1464.27 474.6 1464.27 471.77"/><polygon class="cls-5" points="1399.83 491.27 1406.77 484.08 1412.38 479.1 1417.72 480.57 1427.6 482.91 1432.41 485.19 1434.01 488.48 1437.48 496.99 1434.01 504.02 1434.01 509.6 1427.07 513.11 1402.23 514.87 1396.09 506.96 1399.83 491.27"/><polygon class="cls-5" points="2077.16 535.64 2072.29 520.45 2080.66 512.67 2099.99 510.91 2111.26 523.27 2098.17 537.05 2077.16 535.64"/><polygon class="cls-3" points="2021.13 527.83 2028.21 520.58 2033.34 520.58 2041.15 520.58 2047.01 524.2 2052.39 524.2 2057.27 524.2 2059.71 527.83 2062.89 527.83 2058.74 541.41 2058.74 546.55 2056.54 551.38 2046.04 551.38 2036.76 549.57 2028.94 555.91 2019.66 549.33 2021.13 527.83"/><polygon class="cls-4" points="2093.94 497.25 2081.76 493.01 2077.8 490.54 2073.54 493.01 2067.15 497.25 2065.93 511.38 2065.93 523.04 2075.98 526.57 2086.63 533.64 2102.16 523.04 2106.11 508.91 2093.94 497.25"/><polygon class="cls-5" points="2043.1 532.23 2038.23 517.03 2046.6 509.26 2065.93 507.5 2077.2 519.86 2064.11 533.64 2043.1 532.23"/><polygon class="cls-3" points="1850.82 522.21 1857.9 514.96 1863.03 514.96 1870.84 514.96 1876.7 518.58 1882.08 518.58 1886.96 518.58 1889.4 522.21 1892.58 522.21 1888.42 535.79 1888.42 540.93 1886.23 545.76 1875.72 545.76 1866.44 543.95 1858.63 550.29 1849.35 543.71 1850.82 522.21"/><polygon class="cls-4" points="1923.63 498.64 1911.45 494.4 1907.49 491.93 1903.23 494.4 1896.84 498.64 1895.62 512.77 1895.62 524.43 1905.66 527.96 1916.32 535.03 1931.84 524.43 1935.8 510.3 1923.63 498.64"/><polygon class="cls-5" points="1872.79 533.62 1867.92 518.42 1876.29 510.65 1895.62 508.89 1906.88 521.25 1893.79 535.03 1872.79 533.62"/><polygon class="cls-6" points="1967.15 509 1971.62 502.61 1977.62 499.26 1984.75 499.26 1992.43 499.26 1998.13 507.78 1999.12 511.89 1994.66 520.87 1994.16 525.13 1987.72 533.18 1988.21 539.75 1981.77 544.92 1970.38 537.62 1963.16 533.18 1967.15 509"/><polygon class="cls-7" points="1993.03 514.96 1999.12 506.83 2006.71 506.83 2015.25 508.95 2020.89 514.82 2027.73 514.96 2032.91 514.96 2036.86 519.35 2040.53 519.28 2042.96 519.24 2050.11 519.11 2055.13 519.35 2056.92 522.86 2058.78 523.88 2063.96 529.62 2066.77 540.04 2066.77 545.08 2053 550.29 2044.47 554.33 2034.43 554.06 2021.64 550.29 2001.86 540.04 1993.03 517.79 1993.03 514.96"/><polygon class="cls-5" points="1928.58 511.43 1935.53 504.24 1941.13 499.26 1946.48 500.72 1956.36 503.07 1961.17 505.34 1962.77 508.64 1966.24 517.14 1962.77 524.18 1962.77 529.75 1955.83 533.27 1930.99 535.03 1924.84 527.11 1928.58 511.43"/><polygon class="cls-3" points="1780.56 516.37 1787.64 509.12 1792.77 509.12 1800.59 509.12 1806.45 512.74 1811.82 512.74 1816.7 512.74 1819.15 516.37 1822.32 516.37 1818.17 529.95 1818.17 535.09 1815.97 539.92 1805.47 539.92 1796.19 538.11 1788.38 544.45 1779.1 537.87 1780.56 516.37"/><polygon class="cls-4" points="1853.37 515.83 1841.19 511.59 1837.24 509.12 1832.98 511.59 1826.58 515.83 1825.37 529.96 1825.37 541.62 1835.41 545.15 1846.07 552.22 1861.59 541.62 1865.55 527.49 1853.37 515.83"/><polygon class="cls-5" points="1802.54 550.81 1797.66 535.62 1806.04 527.84 1825.37 526.08 1836.63 538.44 1823.54 552.22 1802.54 550.81"/><polygon class="cls-6" points="1896.9 519.18 1901.36 512.79 1907.37 509.44 1914.49 509.44 1922.17 509.44 1927.87 517.96 1928.86 522.07 1924.4 531.05 1923.91 535.32 1917.47 543.37 1917.96 549.93 1911.52 555.1 1900.12 547.8 1892.91 543.37 1896.9 519.18"/><polygon class="cls-7" points="1922.78 509.12 1928.86 500.99 1936.46 500.99 1945 503.11 1950.63 508.98 1957.48 509.12 1962.65 509.12 1966.61 513.51 1970.27 513.44 1972.71 513.4 1979.85 513.27 1984.87 513.51 1986.66 517.01 1988.53 518.04 1993.7 523.78 1996.52 534.2 1996.52 539.24 1982.74 544.45 1974.22 548.49 1964.17 548.22 1951.39 544.45 1931.6 534.2 1922.78 511.94 1922.78 509.12"/><polygon class="cls-5" points="1858.33 528.62 1865.27 521.43 1870.88 516.45 1876.22 517.91 1886.11 520.26 1890.91 522.53 1892.52 525.83 1895.99 534.34 1892.52 541.37 1892.52 546.94 1885.57 550.46 1860.73 552.22 1854.59 544.3 1858.33 528.62"/><polygon class="cls-4" points="1763.96 496.84 1751.78 492.6 1747.82 490.13 1743.56 492.6 1737.17 496.84 1735.95 510.97 1735.95 522.63 1746 526.16 1756.65 533.23 1772.18 522.63 1776.13 508.5 1763.96 496.84"/><polygon class="cls-5" points="1713.12 531.82 1708.25 516.63 1716.62 508.85 1735.95 507.09 1747.21 519.45 1734.13 533.23 1713.12 531.82"/><polygon class="cls-6" points="1807.49 507.2 1811.95 500.81 1817.95 497.46 1825.08 497.46 1832.76 497.46 1838.46 505.98 1839.45 510.09 1834.99 519.07 1834.49 523.34 1828.05 531.38 1828.55 537.95 1822.11 543.12 1810.71 535.82 1803.49 531.38 1807.49 507.2"/><polygon class="cls-5" points="1768.91 509.63 1775.86 502.44 1781.47 497.46 1786.81 498.93 1796.69 501.27 1801.5 503.54 1803.1 506.84 1806.57 515.35 1803.1 522.38 1803.1 527.95 1796.16 531.47 1771.32 533.23 1765.17 525.32 1768.91 509.63"/><polygon class="cls-3" points="1512.32 505.02 1519.4 497.77 1524.53 497.77 1532.35 497.77 1538.21 501.39 1543.58 501.39 1548.46 501.39 1550.9 505.02 1554.08 505.02 1549.93 518.6 1549.93 523.74 1547.73 528.57 1537.23 528.57 1527.95 526.76 1520.13 533.1 1510.85 526.52 1512.32 505.02"/><polygon class="cls-4" points="1585.13 504.48 1572.95 500.24 1568.99 497.77 1564.73 500.24 1558.34 504.48 1557.12 518.61 1557.12 530.27 1567.17 533.81 1577.82 540.87 1593.35 530.27 1597.31 516.14 1585.13 504.48"/><polygon class="cls-5" points="1534.29 539.46 1529.42 524.27 1537.79 516.49 1557.12 514.73 1568.39 527.09 1555.3 540.87 1534.29 539.46"/><polygon class="cls-6" points="1628.66 514.84 1633.12 508.45 1639.13 505.1 1646.25 505.1 1653.93 505.1 1659.63 513.62 1660.62 517.73 1656.16 526.71 1655.67 530.98 1649.22 539.03 1649.72 545.59 1643.28 550.76 1631.88 543.46 1624.66 539.03 1628.66 514.84"/><polygon class="cls-7" points="1654.53 497.77 1660.62 489.64 1668.22 489.64 1676.76 491.76 1682.39 497.63 1689.23 497.77 1694.41 497.77 1698.37 502.16 1702.03 502.09 1704.47 502.05 1711.61 501.92 1716.63 502.16 1718.42 505.67 1720.29 506.69 1725.46 512.43 1728.28 522.85 1728.28 527.89 1714.5 533.1 1705.98 537.14 1695.93 536.87 1683.15 533.1 1663.36 522.85 1654.53 500.6 1654.53 497.77"/><polygon class="cls-5" points="1590.09 517.27 1597.03 510.08 1602.64 505.1 1607.98 506.57 1617.86 508.91 1622.67 511.18 1624.27 514.48 1627.75 522.99 1624.27 530.02 1624.27 535.59 1617.33 539.11 1592.49 540.87 1586.35 532.96 1590.09 517.27"/><polygon class="cls-3" points="1582.57 523 1589.65 515.76 1594.78 515.76 1602.6 515.76 1608.46 519.38 1613.83 519.38 1618.72 519.38 1621.16 523 1624.33 523 1620.18 536.59 1620.18 541.73 1617.98 546.56 1607.48 546.56 1598.2 544.75 1590.39 551.09 1581.11 544.51 1582.57 523"/><polygon class="cls-4" points="1655.38 516.46 1643.21 512.22 1639.25 509.75 1634.99 512.22 1628.6 516.46 1627.38 530.59 1627.38 542.25 1637.42 545.78 1648.08 552.85 1663.6 542.25 1667.56 528.12 1655.38 516.46"/><polygon class="cls-5" points="1604.55 551.44 1599.68 536.25 1608.05 528.47 1627.38 526.71 1638.64 539.07 1625.55 552.85 1604.55 551.44"/><polygon class="cls-6" points="1698.91 503.79 1703.37 497.4 1709.38 494.05 1716.51 494.05 1724.18 494.05 1729.88 502.57 1730.88 506.68 1726.41 515.66 1725.92 519.92 1719.48 527.97 1719.97 534.54 1713.53 539.71 1702.13 532.4 1694.92 527.97 1698.91 503.79"/><polygon class="cls-7" points="1724.79 516.76 1730.88 508.63 1738.47 508.63 1747.01 510.75 1752.65 516.62 1759.49 516.76 1764.66 516.76 1768.62 521.15 1772.29 521.08 1774.72 521.04 1781.86 520.91 1786.89 521.15 1788.68 524.66 1790.54 525.68 1795.71 531.42 1798.53 541.84 1798.53 546.88 1784.76 552.09 1776.23 556.13 1766.19 555.86 1753.4 552.09 1733.62 541.84 1724.79 519.58 1724.79 516.76"/><polygon class="cls-5" points="1660.34 529.25 1667.28 522.06 1672.89 517.08 1678.23 518.54 1688.12 520.89 1692.92 523.16 1694.53 526.46 1698 534.97 1694.53 542 1694.53 547.57 1687.58 551.09 1662.74 552.85 1656.6 544.93 1660.34 529.25"/><polygon class="cls-3" points="1380.33 537.49 1387.41 530.24 1392.54 530.24 1400.35 530.24 1406.21 533.86 1411.59 533.86 1416.47 533.86 1418.91 537.49 1422.09 537.49 1417.94 551.08 1417.94 556.21 1415.74 561.04 1405.24 561.04 1395.96 559.23 1388.14 565.57 1378.86 558.99 1380.33 537.49"/><polygon class="cls-4" points="1453.14 512.92 1440.96 508.68 1437 506.21 1432.74 508.68 1426.35 512.92 1425.13 527.05 1425.13 538.71 1435.18 542.24 1445.83 549.31 1461.36 538.71 1465.31 524.58 1453.14 512.92"/><polygon class="cls-5" points="1402.3 547.9 1397.43 532.7 1405.8 524.93 1425.13 523.16 1436.39 535.53 1423.31 549.31 1402.3 547.9"/><polygon class="cls-6" points="1496.67 517.27 1501.13 510.88 1507.13 507.53 1514.26 507.53 1521.94 507.53 1527.64 516.05 1528.63 520.16 1524.17 529.14 1523.67 533.41 1517.23 541.46 1517.73 548.02 1511.29 553.19 1499.89 545.89 1492.67 541.46 1496.67 517.27"/><polygon class="cls-7" points="1522.54 530.24 1528.63 522.11 1536.23 522.11 1544.76 524.23 1550.4 530.1 1557.24 530.24 1562.42 530.24 1566.37 534.63 1570.04 534.57 1572.47 534.52 1579.62 534.39 1584.64 534.63 1586.43 538.14 1588.29 539.16 1593.47 544.9 1596.28 555.33 1596.28 560.36 1582.51 565.57 1573.98 569.61 1563.94 569.34 1551.15 565.57 1531.37 555.33 1522.54 533.07 1522.54 530.24"/><polygon class="cls-5" points="1458.09 525.71 1465.04 518.52 1470.65 513.54 1475.99 515 1485.87 517.35 1490.68 519.62 1492.28 522.92 1495.75 531.42 1492.28 538.46 1492.28 544.03 1485.34 547.55 1460.5 549.31 1454.35 541.39 1458.09 525.71"/><polygon class="cls-4" points="1342.43 496.84 1330.26 492.6 1326.3 490.13 1322.04 492.6 1315.65 496.84 1314.43 510.97 1314.43 522.63 1324.47 526.16 1335.13 533.23 1350.65 522.63 1354.61 508.5 1342.43 496.84"/><polygon class="cls-5" points="1291.6 531.82 1286.73 516.63 1295.1 508.85 1314.43 507.09 1325.69 519.45 1312.6 533.23 1291.6 531.82"/><polygon class="cls-6" points="1385.96 507.2 1390.42 500.81 1396.43 497.46 1403.56 497.46 1411.24 497.46 1416.93 505.98 1417.93 510.09 1413.47 519.07 1412.97 523.34 1406.53 531.38 1407.02 537.95 1400.58 543.12 1389.18 535.82 1381.97 531.38 1385.96 507.2"/><polygon class="cls-5" points="1347.39 509.63 1354.34 502.44 1359.94 497.46 1365.29 498.93 1375.17 501.27 1379.98 503.54 1381.58 506.84 1385.05 515.35 1381.58 522.38 1381.58 527.95 1374.63 531.47 1349.79 533.23 1343.65 525.32 1347.39 509.63"/><polygon class="cls-3" points="1151.09 527.01 1158.17 519.76 1163.3 519.76 1171.11 519.76 1176.97 523.39 1182.35 523.39 1187.23 523.39 1189.67 527.01 1192.85 527.01 1188.69 540.6 1188.69 545.73 1186.5 550.56 1176 550.56 1166.72 548.75 1158.9 555.09 1149.62 548.52 1151.09 527.01"/><polygon class="cls-4" points="1233.86 516.46 1221.68 512.22 1217.73 509.75 1213.46 512.22 1207.07 516.46 1205.85 530.59 1205.85 542.25 1215.9 545.78 1226.55 552.85 1242.08 542.25 1246.04 528.12 1233.86 516.46"/><polygon class="cls-5" points="1183.02 551.44 1178.15 536.25 1186.53 528.47 1205.85 526.71 1217.12 539.07 1204.03 552.85 1183.02 551.44"/><polygon class="cls-6" points="1277.39 526.82 1281.85 520.43 1287.86 517.08 1294.98 517.08 1302.66 517.08 1308.36 525.6 1309.35 529.71 1304.89 538.69 1304.4 542.96 1297.95 551 1298.45 557.57 1292.01 562.74 1280.61 555.44 1273.4 551 1277.39 526.82"/><polygon class="cls-7" points="1303.26 515.76 1309.35 507.63 1316.95 507.63 1325.48 509.75 1331.12 515.62 1337.97 515.76 1343.14 515.76 1347.1 520.15 1350.76 520.08 1353.2 520.04 1360.34 519.91 1365.36 520.15 1367.15 523.65 1369.02 524.68 1374.19 530.42 1377.01 540.84 1377.01 545.88 1363.23 551.09 1354.71 555.13 1344.66 554.85 1331.88 551.09 1312.09 540.84 1303.26 518.58 1303.26 515.76"/><polygon class="cls-5" points="1238.82 529.25 1245.76 522.06 1251.37 517.08 1256.71 518.54 1266.59 520.89 1271.4 523.16 1273 526.46 1276.48 534.97 1273 542 1273 547.57 1266.06 551.09 1241.22 552.85 1235.08 544.93 1238.82 529.25"/><polygon class="cls-3" points="999.25 512.66 1006.34 505.41 1011.46 505.41 1019.28 505.41 1025.14 509.03 1030.51 509.03 1035.4 509.03 1037.84 512.66 1041.01 512.66 1036.86 526.25 1036.86 531.38 1034.66 536.21 1024.16 536.21 1014.88 534.4 1007.07 540.74 997.79 534.16 999.25 512.66"/><polygon class="cls-4" points="1072.06 512.12 1059.89 507.88 1055.93 505.41 1051.67 507.88 1045.28 512.12 1044.06 526.25 1044.06 537.91 1054.1 541.45 1064.76 548.51 1080.28 537.91 1084.24 523.78 1072.06 512.12"/><polygon class="cls-5" points="1021.23 547.1 1016.36 531.91 1024.73 524.13 1044.06 522.37 1055.32 534.73 1042.23 548.51 1021.23 547.1"/><polygon class="cls-6" points="1115.59 522.48 1120.05 516.09 1126.06 512.74 1133.18 512.74 1140.87 512.74 1146.56 521.26 1147.56 525.37 1143.1 534.36 1142.6 538.62 1136.16 546.67 1136.65 553.23 1130.21 558.4 1118.81 551.1 1111.6 546.67 1115.59 522.48"/><polygon class="cls-7" points="1141.47 505.41 1147.56 497.28 1155.15 497.28 1163.69 499.4 1169.33 505.27 1176.17 505.41 1181.34 505.41 1185.3 509.8 1188.96 509.73 1191.4 509.69 1198.54 509.56 1203.57 509.8 1205.36 513.31 1207.22 514.33 1212.39 520.07 1215.21 530.49 1215.21 535.53 1201.43 540.74 1192.91 544.78 1182.87 544.51 1170.08 540.74 1150.3 530.49 1141.47 508.24 1141.47 505.41"/><polygon class="cls-5" points="1077.02 524.91 1083.96 517.73 1089.57 512.74 1094.91 514.21 1104.8 516.55 1109.61 518.82 1111.21 522.12 1114.68 530.63 1111.21 537.66 1111.21 543.23 1104.26 546.75 1079.42 548.51 1073.28 540.6 1077.02 524.91"/><polygon class="cls-3" points="928.4 512.71 935.49 505.46 940.62 505.46 948.43 505.46 954.29 509.09 959.66 509.09 964.55 509.09 966.99 512.71 970.16 512.71 966.01 526.3 966.01 531.43 963.82 536.26 953.31 536.26 944.03 534.45 936.22 540.79 926.94 534.22 928.4 512.71"/><polygon class="cls-4" points="1001.21 512.18 989.04 507.94 985.08 505.46 980.82 507.94 974.43 512.18 973.21 526.31 973.21 537.97 983.25 541.5 993.91 548.57 1009.43 537.97 1013.39 523.84 1001.21 512.18"/><polygon class="cls-5" points="950.38 547.15 945.51 531.96 953.88 524.19 973.21 522.42 984.47 534.79 971.38 548.57 950.38 547.15"/><polygon class="cls-6" points="1044.74 522.54 1049.2 516.14 1055.21 512.79 1062.34 512.79 1070.02 512.79 1075.72 521.32 1076.71 525.43 1072.25 534.41 1071.75 538.67 1065.31 546.72 1065.81 553.28 1059.36 558.46 1047.96 551.15 1040.75 546.72 1044.74 522.54"/><polygon class="cls-7" points="1070.62 505.46 1076.71 497.34 1084.31 497.34 1092.84 499.46 1098.48 505.33 1105.32 505.46 1110.5 505.46 1114.45 509.86 1118.12 509.79 1120.55 509.75 1127.69 509.62 1132.72 509.86 1134.51 513.36 1136.37 514.38 1141.55 520.13 1144.36 530.55 1144.36 535.58 1130.59 540.79 1122.06 544.84 1112.02 544.56 1099.23 540.79 1079.45 530.55 1070.62 508.29 1070.62 505.46"/><polygon class="cls-5" points="1006.17 524.96 1013.12 517.78 1018.72 512.79 1024.07 514.26 1033.95 516.61 1038.76 518.88 1040.36 522.18 1043.83 530.68 1040.36 537.72 1040.36 543.29 1033.41 546.81 1008.58 548.57 1002.43 540.65 1006.17 524.96"/><polygon class="cls-3" points="699.08 514.57 706.16 507.32 711.29 507.32 719.1 507.32 724.96 510.94 730.34 510.94 735.22 510.94 737.66 514.57 740.84 514.57 736.69 528.15 736.69 533.29 734.49 538.12 723.99 538.12 714.71 536.31 706.89 542.65 697.61 536.07 699.08 514.57"/><polygon class="cls-4" points="771.89 514.03 759.71 509.79 755.75 507.32 751.49 509.79 745.1 514.03 743.88 528.16 743.88 539.82 753.93 543.36 764.58 550.42 780.11 539.82 784.06 525.69 771.89 514.03"/><polygon class="cls-5" points="721.05 549.01 716.18 533.82 724.55 526.04 743.88 524.28 755.14 536.64 742.05 550.42 721.05 549.01"/><polygon class="cls-6" points="815.42 524.39 819.88 518 825.88 514.65 833.01 514.65 840.69 514.65 846.39 523.17 847.38 527.28 842.92 536.26 842.42 540.53 835.98 548.58 836.48 555.14 830.03 560.32 818.64 553.01 811.42 548.58 815.42 524.39"/><polygon class="cls-7" points="841.29 507.32 847.38 499.19 854.98 499.19 863.51 501.31 869.15 507.18 875.99 507.32 881.17 507.32 885.12 511.71 888.79 511.64 891.22 511.6 898.37 511.47 903.39 511.71 905.18 515.22 907.04 516.24 912.22 521.98 915.03 532.4 915.03 537.44 901.26 542.65 892.74 546.69 882.69 546.42 869.9 542.65 850.12 532.4 841.29 510.14 841.29 507.32"/><polygon class="cls-5" points="776.84 526.82 783.79 519.63 789.4 514.65 794.74 516.12 804.62 518.46 809.43 520.73 811.03 524.03 814.5 532.54 811.03 539.57 811.03 545.14 804.09 548.66 779.25 550.42 773.11 542.5 776.84 526.82"/><polygon class="cls-3" points="513.86 543.22 520.95 535.97 526.07 535.97 533.89 535.97 539.75 539.59 545.12 539.59 550.01 539.59 552.45 543.22 555.62 543.22 551.47 556.81 551.47 561.94 549.27 566.77 538.77 566.77 529.49 564.96 521.68 571.3 512.4 564.73 513.86 543.22"/><polygon class="cls-4" points="586.67 502.63 574.5 498.39 570.54 495.91 566.28 498.39 559.88 502.63 558.67 516.76 558.67 528.42 568.71 531.95 579.37 539.02 594.89 528.42 598.85 514.29 586.67 502.63"/><polygon class="cls-5" points="535.84 537.6 530.97 522.41 539.34 514.64 558.67 512.87 569.93 525.24 556.84 539.02 535.84 537.6"/><polygon class="cls-6" points="630.2 512.99 634.66 506.59 640.67 503.25 647.79 503.25 655.48 503.25 661.17 511.77 662.16 515.88 657.71 524.86 657.21 529.12 650.77 537.17 651.26 543.73 644.82 548.91 633.42 541.6 626.21 537.17 630.2 512.99"/><polygon class="cls-7" points="656.08 495.91 662.16 487.79 669.76 487.79 678.3 489.91 683.94 495.78 690.78 495.91 695.95 495.91 699.91 500.31 703.57 500.24 706.01 500.19 713.15 500.06 718.17 500.31 719.97 503.81 721.83 504.83 727 510.58 729.82 521 729.82 526.03 716.04 531.24 707.52 535.29 697.48 535.01 684.69 531.24 664.9 521 656.08 498.74 656.08 495.91"/><polygon class="cls-5" points="591.63 515.41 598.57 508.23 604.18 503.25 609.52 504.71 619.41 507.06 624.21 509.33 625.82 512.63 629.29 521.13 625.82 528.17 625.82 533.74 618.87 537.26 594.03 539.02 587.89 531.1 591.63 515.41"/><polygon class="cls-3" points="569.21 518.39 576.3 511.14 581.42 511.14 589.24 511.14 595.1 514.76 600.47 514.76 605.36 514.76 607.8 518.39 610.97 518.39 606.82 531.98 606.82 537.11 604.63 541.94 594.12 541.94 584.84 540.13 577.03 546.47 567.75 539.89 569.21 518.39"/><polygon class="cls-4" points="642.02 517.85 629.85 513.61 625.89 511.14 621.63 513.61 615.24 517.85 614.02 531.98 614.02 543.64 624.06 547.18 634.72 554.24 650.24 543.64 654.2 529.51 642.02 517.85"/><polygon class="cls-5" points="591.19 552.83 586.32 537.64 594.69 529.86 614.02 528.1 625.28 540.46 612.19 554.24 591.19 552.83"/><polygon class="cls-6" points="685.55 528.21 690.01 521.82 696.02 518.47 703.14 518.47 710.83 518.47 716.52 526.99 717.52 531.1 713.06 540.09 712.56 544.35 706.12 552.4 706.61 558.96 700.17 564.13 688.77 556.83 681.56 552.4 685.55 528.21"/><polygon class="cls-7" points="711.43 511.14 717.52 503.01 725.11 503.01 733.65 505.13 739.29 511 746.13 511.14 751.3 511.14 755.26 515.53 758.93 515.46 761.36 515.42 768.5 515.29 773.53 515.53 775.32 519.04 777.18 520.06 782.35 525.8 785.17 536.22 785.17 541.26 771.4 546.47 762.87 550.51 752.83 550.24 740.04 546.47 720.26 536.22 711.43 513.97 711.43 511.14"/><polygon class="cls-5" points="646.98 530.64 653.92 523.46 659.53 518.47 664.88 519.94 674.76 522.28 679.57 524.55 681.17 527.85 684.64 536.36 681.17 543.39 681.17 548.97 674.22 552.48 649.38 554.24 643.24 546.33 646.98 530.64"/><polygon class="cls-3" points="811.32 516.53 818.4 509.28 823.52 509.28 831.34 509.28 837.2 512.91 842.57 512.91 847.46 512.91 849.9 516.53 853.08 516.53 848.92 530.12 848.92 535.25 846.73 540.09 836.23 540.09 826.94 538.27 819.13 544.62 809.85 538.04 811.32 516.53"/><polygon class="cls-4" points="884.12 516 871.95 511.76 867.99 509.28 863.73 511.76 857.34 516 856.12 530.13 856.12 541.79 866.16 545.32 876.82 552.39 892.34 541.79 896.3 527.66 884.12 516"/><polygon class="cls-5" points="833.29 550.98 828.42 535.78 836.79 528.01 856.12 526.24 867.38 538.61 854.29 552.39 833.29 550.98"/><polygon class="cls-6" points="927.65 526.36 932.11 519.96 938.12 516.62 945.25 516.62 952.93 516.62 958.63 525.14 959.62 529.25 955.16 538.23 954.66 542.49 948.22 550.54 948.72 557.11 942.27 562.28 930.88 554.97 923.66 550.54 927.65 526.36"/><polygon class="cls-7" points="953.53 509.28 959.62 501.16 967.22 501.16 975.75 503.28 981.39 509.15 988.23 509.28 993.41 509.28 997.36 513.68 1001.03 513.61 1003.46 513.57 1010.61 513.44 1015.63 513.68 1017.42 517.18 1019.28 518.21 1024.45 523.95 1027.27 534.37 1027.27 539.4 1013.5 544.62 1004.97 548.66 994.93 548.38 982.14 544.62 962.36 534.37 953.53 512.11 953.53 509.28"/><polygon class="cls-5" points="889.08 528.78 896.03 521.6 901.63 516.62 906.98 518.08 916.86 520.43 921.67 522.7 923.27 526 926.74 534.5 923.27 541.54 923.27 547.11 916.33 550.63 891.49 552.39 885.34 544.47 889.08 528.78"/><polygon class="cls-3" points="417.41 519.64 424.49 512.39 429.62 512.39 437.43 512.39 443.3 516.02 448.67 516.02 453.55 516.02 455.99 519.64 459.17 519.64 455.02 533.23 455.02 538.36 452.82 543.19 442.32 543.19 433.04 541.38 425.22 547.72 415.94 541.15 417.41 519.64"/><polygon class="cls-4" points="490.22 519.11 478.04 514.87 474.08 512.39 469.82 514.87 463.43 519.11 462.21 533.24 462.21 544.9 472.26 548.43 482.91 555.5 498.44 544.9 502.39 530.76 490.22 519.11"/><polygon class="cls-5" points="439.38 554.08 434.51 538.89 442.88 531.12 462.21 529.35 473.48 541.72 460.39 555.5 439.38 554.08"/><polygon class="cls-5" points="495.17 531.89 502.12 524.71 507.73 519.72 513.07 521.19 522.95 523.53 527.76 525.81 529.36 529.11 532.83 537.61 529.36 544.65 529.36 550.22 522.42 553.74 497.58 555.5 491.44 547.58 495.17 531.89"/><polygon class="cls-3" points="347.15 536.83 354.24 529.58 359.37 529.58 367.18 529.58 373.04 533.21 378.41 533.21 383.3 533.21 385.74 536.83 388.91 536.83 384.76 550.42 384.76 555.55 382.56 560.38 372.06 560.38 362.78 558.57 354.97 564.91 345.69 558.34 347.15 536.83"/><polygon class="cls-4" points="419.96 496.24 407.79 492 403.83 489.53 399.57 492 393.18 496.24 391.96 510.37 391.96 522.03 402 525.56 412.66 532.63 428.18 522.03 432.14 507.9 419.96 496.24"/><polygon class="cls-5" points="369.13 531.22 364.26 516.02 372.63 508.25 391.96 506.49 403.22 518.85 390.13 532.63 369.13 531.22"/><polygon class="cls-6" points="463.49 506.6 467.95 500.21 473.96 496.86 481.08 496.86 488.77 496.86 494.46 505.38 495.46 509.49 491 518.47 490.5 522.74 484.06 530.78 484.55 537.35 478.11 542.52 466.71 535.22 459.5 530.78 463.49 506.6"/><polygon class="cls-7" points="489.37 529.58 495.46 521.46 503.05 521.46 511.59 523.58 517.23 529.45 524.07 529.58 529.25 529.58 533.2 533.98 536.87 533.91 539.3 533.86 546.44 533.74 551.47 533.98 553.26 537.48 555.12 538.5 560.29 544.25 563.11 554.67 563.11 559.7 549.34 564.91 540.81 568.96 530.77 568.68 517.98 564.91 498.2 554.67 489.37 532.41 489.37 529.58"/><polygon class="cls-5" points="424.92 509.03 431.87 501.84 437.47 496.86 442.82 498.32 452.7 500.67 457.51 502.94 459.11 506.24 462.58 514.74 459.11 521.78 459.11 527.35 452.16 530.87 427.32 532.63 421.18 524.71 424.92 509.03"/><polygon class="cls-6" points="374.08 504.63 378.54 498.24 384.55 494.89 391.67 494.89 399.35 494.89 405.05 503.42 406.04 507.53 401.58 516.51 401.09 520.77 394.64 528.82 395.14 535.38 388.7 540.56 377.3 533.25 370.09 528.82 374.08 504.63"/><polygon class="cls-6" points="195.25 512.27 199.71 505.88 205.72 502.53 212.84 502.53 220.52 502.53 226.22 511.06 227.21 515.17 222.75 524.15 222.26 528.41 215.82 536.46 216.31 543.02 209.87 548.2 198.47 540.89 191.26 536.46 195.25 512.27"/><polygon class="cls-4" points="281.76 523.91 269.58 519.67 265.62 517.2 261.36 519.67 254.97 523.91 253.75 538.04 253.75 549.7 263.8 553.23 274.45 560.3 289.98 549.7 293.93 535.57 281.76 523.91"/><polygon class="cls-6" points="325.29 534.27 329.75 527.88 335.76 524.53 342.88 524.53 350.56 524.53 356.26 533.05 357.25 537.16 352.79 546.14 352.29 550.4 345.85 558.45 346.35 565.02 339.91 570.19 328.51 562.88 321.29 558.45 325.29 534.27"/><polygon class="cls-7" points="291.38 497.17 297.47 489.04 305.07 489.04 313.6 491.16 319.24 497.03 326.08 497.17 331.26 497.17 335.21 501.56 338.88 501.49 341.31 501.45 348.46 501.32 353.48 501.56 355.27 505.06 357.13 506.09 362.31 511.83 365.12 522.25 365.12 527.29 351.35 532.5 342.82 536.54 332.78 536.26 319.99 532.5 300.21 522.25 291.38 499.99 291.38 497.17"/><polygon class="cls-5" points="286.71 536.7 293.66 529.51 299.27 524.53 304.61 525.99 314.49 528.34 319.3 530.61 320.9 533.91 324.37 542.41 320.9 549.45 320.9 555.02 313.96 558.54 289.12 560.3 282.98 552.38 286.71 536.7"/><rect class="cls-1" x="1463.55" width="644.13" height="653.26"/><g class="cls-8"><path class="cls-9" d="M-9.7,1440l-179.1-84.31,72.11-73s-20.47-450.38,76.08-466.07c62.33-10.12-19,65-19,65l30.43,143.25s-51.47,67-22.82,97.42c29.36,31.15,139.9,75.09,139.9,75.09l9.43-53.18-28.79-67.67-52.8-51.83L-.47,1001.53l-7.31-14.67,3.35-7.71c9.45-16.49,1-7.58,28.92-29.73s33.23-18.67,33.23-18.67l2.06-78.21L36.33,806.71,61,749.91l23,10.09s-10,65-6.78,86.46c1.9,12.86,18.89,48.42,18.89,48.42s8.26,12.44,7.44,17c-2.42,13.43-30.25,31.26-30.95,44.89-2.45,47.7,91.57,167.44,91.57,167.44s8.68-4.22,12-11.92-7.82-60.76-7.82-60.76l-7.32-14.67-.49-27.73-.9-126.52C153.46,834,185.59,794,177.57,765.49c-3-10.49-33.75-27.42-33.75-27.42L133,708.61c-2.16-5.87,5.49-10.29,9.45-5.46l20.09-.26c53.16-59.23,6.91-37.87,14.95-56.08,10.45-23.69,93.88,35.42,91.1,48.54-2.06,9.77-30.53,25.59-30.53,25.59s-28.18-.29-29.84,3c-7.26,14.24,17.65,69.66,17.65,69.66l-22.45,28s40.44,81.23,35.64,109.66c-4.08,24.19-58.75,77.44-47.57,85.75,24.67,18.36,117.32,9.08,109.2-117.19l-28.37-68.63,11.35-52.34,6-29.48s37.79-63.88,50.29-60.49c7.36,2-14.77,49.7-14.77,49.7l3.66,25.69s29.48,59.32,31,67.86c3.3,18.69-48.74-9.93-45.51,4.88,3.71,17,35,42.87,44,53.7s-34,160.63,7.16,175.12c26.15,9.2,37-50.7,63.87-96.95C453.5,927.15,368.55,796,410.63,769c17.31-11.12,31.52,88.78,53.8,81.11,20.16-6.93,32.3,63.78,33.88,85.12,2.62,35.65-18.09,84.59-18.09,84.59l-92,96.07-68,35.53-31.79,203.9-113.57-43,40.91,220.89-108.4-57.88Z" transform="translate(188.8 -552.74)"/></g><g class="cls-10"><path class="cls-9" d="M1458.32,1471.56l-179.09-84.31,72.1-73s-20.46-450.37,76.08-466.06c62.33-10.12-19,65-19,65l30.44,143.25s-51.47,67-22.83,97.42c29.36,31.15,139.9,75.09,139.9,75.09l9.44-53.18L1536.55,1108l-52.81-51.83-16.18-23.15-7.32-14.68,3.35-7.7c9.46-16.49,1-7.58,28.92-29.73s33.24-18.67,33.24-18.67l2-78.21-23.44-45.83,24.71-56.8,23,10.09s-10,65-6.79,86.46c1.9,12.86,18.9,48.41,18.9,48.41l7.44,17s-30.25,31.26-31,44.89c-2.46,47.69,91.56,167.44,91.56,167.44s8.68-4.22,12-11.92-7.81-60.76-7.81-60.76l-7.32-14.67-.49-27.74-.91-126.51c-6.26-48.61,25.88-88.63,17.85-117.14-2.95-10.49-33.74-27.42-33.74-27.42l-.13-20.69,16.3,7.15c53.16-59.23,85-77.35,85-77.35s26.35,35,23.57,48.17c-2.07,9.77-30.54,25.59-30.54,25.59s-28.17-.29-29.83,3c-7.27,14.24,17.65,69.66,17.65,69.66l-22.45,28s40.43,81.22,35.64,109.65c-4.08,24.2-58.75,77.45-47.58,85.76,24.68,18.36,117.33,9.07,109.2-117.19l-28.37-68.63,11.36-52.34,6-29.49s37.8-63.88,50.29-60.48c7.36,2-14.77,49.7-14.77,49.7l3.67,25.68s30.55,4.38,32.05,12.92c3.31,18.69-49.8,45-46.57,59.82,3.71,17,35,42.88,44,53.7s-34,160.64,7.16,175.13c26.14,9.2,37-50.7,63.87-97,24.17-41.66,65.73-69.76,65.73-69.76s-32.75-86.35-10.47-94c20.16-6.94,34.29,56.31,35.86,77.65,2.63,35.64-40.24,137.12-40.24,137.12l-92,96.07-68,35.53-31.79,203.9-113.58-43,40.91,220.89-108.39-57.88Z" transform="translate(188.8 -552.74)"/></g></g></svg>
