<svg id="Layer_2" data-name="Layer 2" xmlns="http://www.w3.org/2000/svg" viewBox="0 0 277.78 241.36"><defs><style>.cls-1{fill:#54593c;}.cls-2{fill:#565333;stroke:#474224;stroke-miterlimit:10;stroke-width:5px;}.cls-3{fill:#424927;}.cls-4{fill:#6a724a;}.cls-5{fill:#fff;}</style></defs><title>gladskildpadde</title><path class="cls-1" d="M813.18,162.69s11.4,16,26.79,15.38c0,0,21.75-18.16,24.49-30.25C864.46,147.82,830.08,126.89,813.18,162.69Z" transform="translate(-684.13 -36.88)"/><path class="cls-2" d="M762.92,248.08s-12.88-7.16-8.33-25.44l18.72-15.3,16.3-2.8S784.78,234.84,762.92,248.08Z" transform="translate(-684.13 -36.88)"/><path class="cls-3" d="M857.2,65.34S786.75,37.69,725,88.5s-36.92,93-30.85,115c0,0,17.49-25,36.8-27.09s3.53,43.34,3.53,43.34,111.65-10.07,134.35-74.32S857.2,65.34,857.2,65.34Z" transform="translate(-684.13 -36.88)"/><path class="cls-2" d="M731,175.26s-67.41,11.13-30.21,99.4c0,0,45.78-26.25,39.38-93.31C740.15,181.35,739.38,173.11,731,175.26Z" transform="translate(-684.13 -36.88)"/><path class="cls-4" d="M873.73,129l-16.05,6-15.78-6L812.13,142l-6,14.08L766.53,182.5l-23.16-6.63,4-22.76,38.27-22,27.56,5.48,25.07-13.54L847.37,101l-.85-4.75-27-15.55,5-18.7s40,3.07,48.3,22.18c9.19,21.12,8.76,21.3,8.76,21.3Z" transform="translate(-684.13 -36.88)"/><polygon class="cls-4" points="106.04 85.04 128 90.5 150.07 79.09 155.84 62.92 132.27 48.74 104.73 60.91 106.04 85.04"/><path class="cls-4" d="M818,61.43l-4,18.21-29.22,12.6L754.59,84.5l6.87-13.33S787.12,56.82,818,61.43Z" transform="translate(-684.13 -36.88)"/><path class="cls-4" d="M726,93.34s15.21-15.22,24.8-16.11a15,15,0,0,1-8.53,10C735.09,90.3,726,93.34,726,93.34Z" transform="translate(-684.13 -36.88)"/><polygon class="cls-4" points="51.26 59.91 41.46 91.65 60 109.08 99.47 86.2 97.14 63.01 67.51 54.26 51.26 59.91"/><path class="cls-4" d="M723.63,101s-7.91-2.5-16.76,10.54-14.51,20.91-15.58,28.64l27.05-13.89S726.22,105.83,723.63,101Z" transform="translate(-684.13 -36.88)"/><path class="cls-4" d="M690.22,147.93s-2.28,4.65-1.32,21.54L705,184.06l22.59-10.89L740.15,152l-21-17.06Z" transform="translate(-684.13 -36.88)"/><polygon class="cls-4" points="5.44 138.45 10.05 159.16 17.74 149.49 5.44 138.45"/><path class="cls-1" d="M809.88,167.16s16.94,15.25,22.49,15.3-26.76,17.17-31.86,14.81a102.7,102.7,0,0,1-9.72-5.23l17-23.3Z" transform="translate(-684.13 -36.88)"/><polygon class="cls-1" points="104.12 159.16 111.56 164.57 95.32 167.67 104.12 159.16 104.12 159.16"/><path class="cls-2" d="M822.53,115.54c9.24-3.17,32-57.88,52.58-67.21,0,0,78.33-38.88,84.29,45.41.27,3.68-8,1.87-13.76,3.9-8.68,3.1-2.71,24.63-17.89,30.74-10.76,4.34-31.57,6.82-47.35,11.28-5.68,1.61-7.56,3.68-13,4.12-10,.81-27.73-7.41-37.17-2.12-19.31,10.82-31.47,48.24-56.87,65.68-13.24,9.08-32,34.7-69.43,29.52,0,0,33-81.31,46.62-91.43C767,133.16,790.47,126.51,822.53,115.54Z" transform="translate(-684.13 -36.88)"/><circle cx="216.36" cy="41.29" r="7.21"/><path class="cls-2" d="M945,98s-37.3,20.54-51.72,8.28" transform="translate(-684.13 -36.88)"/><circle class="cls-5" cx="218.36" cy="38.69" r="2.6"/></svg>
