<svg id="Layer_2" data-name="Layer 2" xmlns="http://www.w3.org/2000/svg" viewBox="0 0 259.14 225.43"><defs><style>.cls-1{fill:#919191;}.cls-2{fill:#54593c;}.cls-3{fill:#565333;stroke:#474224;stroke-miterlimit:10;stroke-width:5px;}.cls-4{fill:#424927;}.cls-5{fill:#6a724a;}</style></defs><title>kedskildpadde</title><path class="cls-1" d="M325.85,164.82c8.81-5.9,14.78-17.18,14.78-30.11,0-19-12.9-34.46-28.75-34.46-12.15,0-22.55,9.08-26.76,21.88-4.2-12.8-14.61-21.88-26.75-21.88-15.86,0-28.75,15.46-28.75,34.46a38.62,38.62,0,0,0,6.75,22.16,38.94,38.94,0,0,0-7.91,15.92c-2.59,10.66-.7,21.25,4.32,29.06a37.29,37.29,0,0,0-15.11,18.25c-7,17.55-.84,36.93,13.8,43.19a24.48,24.48,0,0,0,9.64,2c7.34,0,14.69-3.22,20.58-8.85,1.82,9.66,7.49,17.82,16.07,21.48a24.43,24.43,0,0,0,9.63,2c12.05,0,24.16-8.64,29.7-22.46a38.48,38.48,0,0,0,1.35-25.53,32.21,32.21,0,0,0-2.61-6.14c9.45-3.8,17.39-13,20.32-25.08C339.59,186.43,335.11,172.36,325.85,164.82Zm-14-56.95c11.78,0,21.37,12,21.37,26.84,0,12.16-6.48,22.45-15.32,25.74a17.26,17.26,0,0,1-13.45-.56c-8.15-3.79-14-13.65-14-25.18C290.51,119.91,300.1,107.87,311.88,107.87Zm-38.81,113.2a32.79,32.79,0,0,0-4.32-11.24c.62-.4,1.24-.82,1.85-1.27a35.2,35.2,0,0,0,8.75-9.61A35.8,35.8,0,0,0,284,214.08,32.87,32.87,0,0,0,273.07,221.07Zm12.19-46.6a35.25,35.25,0,0,0-5.57-16.67,36.17,36.17,0,0,0,5.43-10.5,34.24,34.24,0,0,0,10.94,16.17c-.69.43-1.38.89-2.05,1.39A34.9,34.9,0,0,0,285.26,174.47Zm-26.89-66.6c11.78,0,21.36,12,21.36,26.84a31,31,0,0,1-5.05,17.3,23.32,23.32,0,0,1-5.1,5.53,17.69,17.69,0,0,1-22.71-.23,24.18,24.18,0,0,1-5.06-5.65A31.23,31.23,0,0,1,237,134.71C237,119.91,246.59,107.87,258.37,107.87Zm-22.75,66.77a31.7,31.7,0,0,1,5.8-12.11,24.89,24.89,0,0,0,33,.78c3.45,6,4.64,14,2.68,22.05a29.76,29.76,0,0,1-10.79,17,24.44,24.44,0,0,1-2.45,1.6,19.14,19.14,0,0,1-9.85,2.6A16.63,16.63,0,0,1,250,206a17.78,17.78,0,0,1-2.27-.76,19.11,19.11,0,0,1-8.09-6.5C235.19,192.65,233.42,183.7,235.62,174.64Zm25.69,70.48c-6.41,10.22-17.62,15.14-27,11.12-10.89-4.65-15.28-19.55-9.8-33.23a29.44,29.44,0,0,1,13.09-15.2l.16-.08a24.59,24.59,0,0,0,16.64,6.48,25.34,25.34,0,0,0,7.53-1.18,26.18,26.18,0,0,1,4.34,16.84,32.75,32.75,0,0,1-4.95,15.25Zm50.09-11a30.57,30.57,0,0,1-1.14,20.31c-5.48,13.67-18.79,21-29.68,16.36-8.24-3.52-12.76-12.93-12.08-23.23a32.5,32.5,0,0,1,2.28-10,32,32,0,0,1,2.67-5.22c3.88-6.19,9.51-10.43,15.45-11.93a25.17,25.17,0,0,0,11.25,6.4,24.29,24.29,0,0,0,6.07.77c.64,0,1.29,0,1.93-.08A22.71,22.71,0,0,1,311.4,234.16ZM329,198.78c-2.57,10.55-9.8,18.35-18,20.57a17.57,17.57,0,0,1-9.05.1,18.6,18.6,0,0,1-10.27-7.14c-4.54-6.12-6.35-15.13-4.14-24.25a29.83,29.83,0,0,1,10.8-17,22.33,22.33,0,0,1,5.82-3.14,18.29,18.29,0,0,1,6.11-1.07,17.64,17.64,0,0,1,4.32.55,18.66,18.66,0,0,1,3,1.1C327.12,173,332.14,185.75,329,198.78Z" transform="translate(-104.41 -60.8)"/><path class="cls-2" d="M224.72,178.26s10.63,15,25,14.34c0,0,20.27-16.93,22.83-28.2C272.53,164.4,240.48,144.88,224.72,178.26Z" transform="translate(-104.41 -60.8)"/><path class="cls-3" d="M177.86,257.87s-12-6.67-7.76-23.72l17.45-14.26,15.19-2.61S198.24,245.53,177.86,257.87Z" transform="translate(-104.41 -60.8)"/><path class="cls-4" d="M265.76,87.5s-65.68-25.77-123.22,21.59-34.42,86.68-28.76,107.22c0,0,16.3-23.31,34.3-25.25s3.3,40.4,3.3,40.4,104.09-9.39,125.25-69.29S265.76,87.5,265.76,87.5Z" transform="translate(-104.41 -60.8)"/><path class="cls-3" d="M148.08,190s-62.84,10.38-28.16,92.68c0,0,42.68-24.48,36.71-87C156.63,195.66,155.91,188,148.08,190Z" transform="translate(-104.41 -60.8)"/><path class="cls-5" d="M281.17,146.83l-15,5.57-14.72-5.63L223.74,159l-5.62,13.13-36.89,24.64-21.6-6.19,3.71-21.22L199,148.84,224.72,154l23.37-12.62,8.5-20.63-.79-4.43-25.2-14.5,4.66-17.43s37.27,2.87,45,20.68c8.57,19.7,8.17,19.86,8.17,19.86Z" transform="translate(-104.41 -60.8)"/><polygon class="cls-5" points="98.86 79.46 119.33 84.54 139.91 73.9 145.29 58.83 123.31 45.61 97.64 56.95 98.86 79.46"/><path class="cls-5" d="M229.22,83.86l-3.69,17-27.24,11.75-28.19-7.21,6.4-12.43S200.42,79.56,229.22,83.86Z" transform="translate(-104.41 -60.8)"/><path class="cls-5" d="M143.4,113.61s14.18-14.19,23.12-15a14,14,0,0,1-8,9.33C151.91,110.78,143.4,113.61,143.4,113.61Z" transform="translate(-104.41 -60.8)"/><polygon class="cls-5" points="47.79 56.03 38.66 85.62 55.94 101.87 92.74 80.53 90.57 58.91 62.94 50.76 47.79 56.03"/><path class="cls-5" d="M141.23,120.76s-7.37-2.33-15.62,9.83-13.54,19.49-14.53,26.7l25.22-12.95S143.65,125.25,141.23,120.76Z" transform="translate(-104.41 -60.8)"/><path class="cls-5" d="M110.08,164.5s-2.12,4.34-1.23,20.08l15,13.61L144.91,188l11.72-19.73L137,152.4Z" transform="translate(-104.41 -60.8)"/><polygon class="cls-5" points="5.07 129.25 9.37 148.56 16.54 139.53 5.07 129.25"/><path class="cls-2" d="M221.65,182.43s15.78,14.21,21,14.27-25,16-29.7,13.8a94.23,94.23,0,0,1-9.06-4.88l15.88-21.72Z" transform="translate(-104.41 -60.8)"/><polygon class="cls-2" points="97.07 148.56 104.01 153.59 88.86 156.49 97.07 148.56 97.07 148.56"/><path class="cls-2" d="M224.06,177.62s11.39,16,26.79,15.38c0,0,21.75-18.15,24.49-30.24C275.34,162.76,241,141.82,224.06,177.62Z" transform="translate(-104.41 -60.8)"/><path class="cls-3" d="M233.43,134.3c8.62-3,29.88-54,49-62.66,0,0,73-36.24,78.58,42.34.25,3.43-7.51,1.74-12.82,3.64-8.1,2.89-2.54,23-16.69,28.66-10,4-29.43,6.36-44.14,10.52-5.3,1.49-7.05,3.42-12.17,3.83-9.33.76-25.85-6.9-34.66-2-18,10.09-29.33,45-53,61.23-12.34,8.47-29.88,32.35-64.73,27.52,0,0,30.82-75.8,43.46-85.24C181.63,150.73,203.54,144.53,233.43,134.3Z" transform="translate(-104.41 -60.8)"/><circle cx="201.71" cy="38.67" r="6.72"/><path class="cls-3" d="M346.64,118.43a70.8,70.8,0,0,0-42.93,7.87" transform="translate(-104.41 -60.8)"/><path class="cls-1" d="M273.16,163.54a29.92,29.92,0,0,1-7-.49,17.59,17.59,0,0,1-7.85,1.88,18.59,18.59,0,0,1-12.44-5c-5.62-5-9.31-13.38-9.31-22.81a35.74,35.74,0,0,1,.41-5.33c1.4-9.17,4.09-16.65,10.65-20.22,1.63-2.67,3.14-5.49,4.87-8.21-13.8,2.06-22.12,16.41-22.12,33.76,0,.16,0,.31,0,.46a37.79,37.79,0,0,0,8.42,23.87c5,6,11.92,9.7,19.51,9.7,9.25,0,13.21-3.07,18.08-8.12A19,19,0,0,1,273.16,163.54Z" transform="translate(-104.41 -60.8)"/><path class="cls-1" d="M269.5,206.7a30.63,30.63,0,0,1-7-.5,17.41,17.41,0,0,1-7.84,1.9c-4.63,0-8.46-2.87-12-6.06A29.21,29.21,0,0,1,232.88,180c0-1.84.08-3.23,0-5-.56-8.79,4.15-15.42,8.13-16.88,1.63-2.71-1.94-2.38-2.61-6.07-9.79,7.21-11.28,10.64-12.5,26,0,.16,0,2.36,0,2.51a38.76,38.76,0,0,0,9.25,24.05c5,6.06,11.92,9.8,19.51,9.8a24.94,24.94,0,0,0,18.08-8.21A17.94,17.94,0,0,1,269.5,206.7Z" transform="translate(-104.41 -60.8)"/></svg>
