<svg id="mand" xmlns="http://www.w3.org/2000/svg" viewBox="0 0 403.57 328.88"><defs><style>.cls-1{fill:#a07f75;}.cls-2{fill:#96766f;}.cls-3{fill:#4c2d20;}.cls-4{fill:#72554a;}.cls-5{fill:#dbdad9;}.cls-6{fill:#960c23;}.cls-7{fill:#ce2136;}.cls-8{fill:#b71833;}.cls-11,.cls-9{fill:none;stroke-miterlimit:10;}.cls-9{stroke:#070707;}.cls-10{fill:#070707;}.cls-11{stroke:#000;}.cls-12{fill:#5d8749;}</style></defs><title>Mandsurferogersej</title><path class="cls-1" d="M160.94,174.54s3.14,9-29.9,17.15l12,88.17s23.29,8.14,56.34,0c0,0,3.12-72.32,14-90.64,0,0-25.88,2.62-30.21-18.75H160.4Z" transform="translate(-48.11 -105)"/><path class="cls-1" d="M134.81,191.23c-11.85-2.5-39.74,28.35-24.53,58.59C117.47,264.12,155.58,195.6,134.81,191.23Z" transform="translate(-48.11 -105)"/><path class="cls-2" d="M152.54,136.15v12.46s-8.12,4.6,0,9.75V167l18.69,12.19,21.13-12.73v-7.85s9.48-2.17,1.35-8.67V129.38l-29.52-10.3Z" transform="translate(-48.11 -105)"/><path class="cls-1" d="M264.09,207.84c-1.42-13.85-65.8-30.68-73.67-5C187.18,213.39,266.49,231.43,264.09,207.84Z" transform="translate(-48.11 -105)"/><path class="cls-1" d="M250.19,206.62c3.08,9.74,61.46,18.41,64.9-.18C316.5,198.8,244.94,190,250.19,206.62Z" transform="translate(-48.11 -105)"/><path class="cls-2" d="M172.49,256.7c-5,9.33-65.76,7.05-65.72-12.53C106.79,236.12,181,240.8,172.49,256.7Z" transform="translate(-48.11 -105)"/><path class="cls-3" d="M152.54,144.81s-10.56-3.79,0-22.48c0,0,1.08-10.29,24.92-7.85,0,0,13.81-4.6,14.9-9.48,0,0,.81,8.13-8.4,12.19,0,0,10.64-1.63,13-9.75,0,0,5.11,2.16-6.54,13.81,0,0,9.52-3.79,13.43-7.58S197,126.94,197,126.94l-1.94,16.52-5.68-10.83S168.25,144,161.75,126.4Z" transform="translate(-48.11 -105)"/><path d="M152.2,147.06c-.32-4.66,6.16-7.93,19-.62l3.72.06s15.44-8.05,18.76-1.42c.88,1.76.53,11.18-18.89,3l-3.59.14S152.88,156.9,152.2,147.06Z" transform="translate(-48.11 -105)"/><path class="cls-4" d="M176.92,156.1c0,.55-1.46,1-3.25,1s-3.25-.44-3.25-1,1.45-.45,3.25-.45S176.92,155.55,176.92,156.1Z" transform="translate(-48.11 -105)"/><polygon class="cls-5" points="115.36 54.62 113.55 63.65 128.81 60.58 115.36 54.62"/><path class="cls-6" d="M160.21,344.81c-.41-4-10.32-7.93-20.88-6.82s-20,6.1-19.56,10.07,9.66,2.73,20.22,1.62S160.63,348.78,160.21,344.81Z" transform="translate(-48.11 -105)"/><path class="cls-6" d="M219.5,336.72c-.68-3.93-10.83-7.23-21.3-5.42s-19.52,7.41-18.85,11.34,9.83,2.09,20.29.29S220.18,340.65,219.5,336.72Z" transform="translate(-48.11 -105)"/><ellipse class="cls-4" cx="98.02" cy="119.36" rx="2.8" ry="1.22"/><ellipse class="cls-4" cx="146.1" cy="118.14" rx="2.8" ry="1.22"/><ellipse class="cls-1" cx="219.5" cy="377.65" rx="11.63" ry="36.99" transform="matrix(0.96, -0.29, 0.29, 0.96, -146.65, -26.76)"/><ellipse class="cls-1" cx="148.35" cy="378.53" rx="13.29" ry="37.4" transform="translate(-196.98 -3.87) rotate(-25.57)"/><ellipse class="cls-1" cx="197.76" cy="323.59" rx="16.15" ry="32.47" transform="translate(-154.25 -8.26) rotate(-21.83)"/><ellipse class="cls-1" cx="144.77" cy="330.81" rx="32.02" ry="15.28" transform="translate(-263.28 254.7) rotate(-70.95)"/><path class="cls-7" d="M143.06,279.62s14.27,8.49,56.34,0l20,56.16s-26-11.92-40.07,6.86l-6.27-24.55-12.87,26.72s-19.5-14.45-40.44,3.25C119.77,348.06,141.8,295,143.06,279.62Z" transform="translate(-48.11 -105)"/><path class="cls-8" d="M141,289s37.51,6.87,61.48-1.2l-3.11-8.72s-29.66,8-56.34,0Z" transform="translate(-48.11 -105)"/><line class="cls-9" x1="98.6" y1="178.18" x2="97.45" y2="182.68"/><line class="cls-9" x1="109.18" y1="179.55" x2="108.49" y2="184.14"/><line class="cls-9" x1="113.63" y1="179.83" x2="113.63" y2="184.47"/><line class="cls-9" x1="139.92" y1="179.54" x2="140.4" y2="184.15"/><line class="cls-9" x1="135.67" y1="180.18" x2="136.16" y2="184.79"/><line class="cls-9" x1="144.31" y1="178.12" x2="144.79" y2="182.74"/><line class="cls-9" x1="149.16" y1="177.23" x2="149.65" y2="181.84"/><line class="cls-9" x1="104.03" y1="179.14" x2="103.34" y2="183.73"/><ellipse class="cls-10" cx="121.13" cy="182.9" rx="1.12" ry="1.46"/><ellipse class="cls-10" cx="129.12" cy="182.49" rx="1.12" ry="1.46"/><path class="cls-10" d="M168.39,305.36s-6.23-8.85,0-17.46l.84.46s-6.13,7.65-.44,16.25S168.39,305.36,168.39,305.36Z" transform="translate(-48.11 -105)"/><path class="cls-10" d="M177.52,302.59s5.63-7.83,0-15.44l-.77.41s5.55,6.77.4,14.37S177.52,302.59,177.52,302.59Z" transform="translate(-48.11 -105)"/><path class="cls-1" d="M159.11,408.61c-7,0-12.63,4.3-12.63,9.61h25.25C171.73,412.91,166.08,408.61,159.11,408.61Z" transform="translate(-48.11 -105)"/><rect class="cls-10" x="98.37" y="311.59" width="25.26" height="3.25"/><path class="cls-11" d="M165.83,409.7s-10.06,3.46-10.81,6.71-.73-5.54-4.8-4.8" transform="translate(-48.11 -105)"/><path class="cls-1" d="M231.4,408.43c7,0,12.63,4.3,12.63,9.6H218.77C218.77,412.73,224.43,408.43,231.4,408.43Z" transform="translate(-48.11 -105)"/><rect class="cls-10" x="170.67" y="311.4" width="25.26" height="3.25"/><path class="cls-11" d="M238.73,409.69s-10.06,3.46-10.81,6.71-.72-5.53-4.8-4.8" transform="translate(-48.11 -105)"/><polygon class="cls-2" points="121.07 150.6 133.34 139.68 150.46 139.62 159.58 146.16 152.02 152.63 140.18 148.96 126.05 154.68 121.07 150.6"/><polygon class="cls-1" points="259.92 103.5 271.05 95.12 287.09 95.67 295.88 101.25 289.01 106.21 277.79 102.83 264.74 106.95 259.92 103.5"/><ellipse class="cls-12" cx="201.78" cy="322.11" rx="201.78" ry="6.77"/></svg>
