<svg id="forgrund" xmlns="http://www.w3.org/2000/svg" xmlns:xlink="http://www.w3.org/1999/xlink" viewBox="0 0 1920.18 868.42"><defs><style>.cls-1{fill:url(#linear-gradient);}.cls-2{fill:url(#linear-gradient-2);}</style><linearGradient id="linear-gradient" x1="767.45" y1="-95.96" x2="1181.58" y2="1055.04" gradientUnits="userSpaceOnUse"><stop offset="0.02" stop-color="#fff"/><stop offset="0.06" stop-color="#eaf1f3"/><stop offset="0.14" stop-color="#bcd2d8"/><stop offset="0.23" stop-color="#93b7c1"/><stop offset="0.32" stop-color="#71a1ad"/><stop offset="0.41" stop-color="#558e9d"/><stop offset="0.52" stop-color="#408091"/><stop offset="0.63" stop-color="#317688"/><stop offset="0.77" stop-color="#287083"/><stop offset="0.96" stop-color="#256e81"/></linearGradient><linearGradient id="linear-gradient-2" x1="959" y1="529.81" x2="959" y2="1063.23" gradientUnits="userSpaceOnUse"><stop offset="0.09" stop-color="#7dc0cd"/><stop offset="0.25" stop-color="#66a8b6"/><stop offset="0.57" stop-color="#3f7f8f"/><stop offset="0.81" stop-color="#266577"/><stop offset="0.96" stop-color="#1d5c6e"/></linearGradient></defs><title>mellemgrund_done</title><path class="cls-1" d="M1919.18,587.39V290.22s-16.14-13.32-60.91-11c0,0-1.25-5.17-24-12s-21.27-3.43-27.6-2.12c-2.67.56-17.34-3.88-17.34-3.88l-27-4-27.24-3.39h-30.92l-11.54-4.17h-31.39l-5.08-4.16-8.3,2.31-14.31-2.31h-7.39L1610,245.2l-.2-2.48-11.22,1-2.5-.15-.12-2.17-10.71,1.45-2.6-.11.05-2.2-8.76,1.79-2.88-.17.17-2-8.6,1.62-1.73-.23.14-1.62-7.59.92-3.45-.75.11-3.58-16.15.17-23.08,1.85-5.54-4.62-15.69-3.7h-2.31l12.92-6.48,13.39-5.08v-5.09l-1514,3V584.73Z" transform="translate(1 -213.58)"/><path class="cls-2" d="M-1,1082l.25-511.62a164.34,164.34,0,0,0,66.88,13c50.73-1.21,92.17-34.8,172.69-8,36.51,12.15,115.88-16.4,145.71-6,69.28,24.21,106.63-.64,155.11-1.49,34.8-.61,97.56,9.31,105.45,9.46,42.69.84,52.81-5.93,98.36-7.26,46.31-1.36,76.48,13.58,90.09,12C885.25,575.87,911,556.18,948,568.3c70.3,23.05,77.16,3.2,97.2,6.2,24.52,3.66,78.22,7.25,120-4.82,49.2-14.23,78.59-6.88,117.2,0,19.24,3.43,85.88,16.57,132.77,5.68,13.58-3.15,44-4.52,83.52-4.72,19.53-.1,43.76,14.35,66.8,14.75,29,.5,57.53-12.92,88.73-11.9,35.18,1.16,79.95,10.48,112.91,11.9,43.67,1.88,72.92-23.5,101.81-22,30.35,1.56,49.89,22,49.89,22L1919,1082Z" transform="translate(1 -213.58)"/></svg>
