<svg id="mellemgrund" xmlns="http://www.w3.org/2000/svg" xmlns:xlink="http://www.w3.org/1999/xlink" viewBox="0 0 1024.76 374.6"><defs><style>.cls-1{fill:url(#linear-gradient);}</style><linearGradient id="linear-gradient" x1="373.83" y1="48.22" x2="663.83" y2="854.22" gradientUnits="userSpaceOnUse"><stop offset="0.02" stop-color="#fff"/><stop offset="0.06" stop-color="#eaf1f3"/><stop offset="0.14" stop-color="#bcd2d8"/><stop offset="0.23" stop-color="#93b7c1"/><stop offset="0.32" stop-color="#71a1ad"/><stop offset="0.41" stop-color="#558e9d"/><stop offset="0.52" stop-color="#408091"/><stop offset="0.63" stop-color="#317688"/><stop offset="0.77" stop-color="#287083"/><stop offset="0.96" stop-color="#256e81"/></linearGradient></defs><title>mellemgrund</title><path class="cls-1" d="M1024,583V286s-16.16-13.31-61-11c0,0-1.25-5.17-24-12s-21.3-3.43-27.63-2.12C908.69,261.44,894,257,894,257l-27-4-27.28-3.39h-31l-11.56-4.16H765.76l-5.09-4.16-8.32,2.31L738,241.29h-7.39l-16.3-.29-.2-2.48-11.24,1-2.5-.15-.12-2.17-10.73,1.45-2.6-.11,0-2.2-8.77,1.79-2.89-.17.18-2-8.62,1.61-1.73-.23.14-1.61-7.6.91-3.46-.74.12-3.58-16.18.17-23.11,1.85-5.55-4.62L593.8,226h-2.31l12.94-6.47,13.41-5.09V209.4l-618.6-1v368Z" transform="translate(0.76 -208.4)"/></svg>
