<svg id="Layer_2" data-name="Layer 2" xmlns="http://www.w3.org/2000/svg" viewBox="0 0 259.14 225.43"><defs><style>.cls-1{fill:#919191;}.cls-2{fill:#54593c;}.cls-3{fill:#565333;stroke:#474224;stroke-miterlimit:10;stroke-width:5px;}.cls-4{fill:#424927;}.cls-5{fill:#6a724a;}</style></defs><title>Skildpaddeinød</title><path class="cls-1" d="M116.62,200.63c2.93,12.07,10.87,21.28,20.32,25.08a32.21,32.21,0,0,0-2.61,6.14,38.36,38.36,0,0,0,1.35,25.53c5.54,13.82,17.65,22.46,29.7,22.46a24.43,24.43,0,0,0,9.63-2c8.58-3.66,14.25-11.82,16.07-21.48,5.89,5.63,13.24,8.85,20.58,8.85a24.43,24.43,0,0,0,9.63-2c14.65-6.26,20.84-25.64,13.8-43.19A37.22,37.22,0,0,0,220,201.85c5-7.81,6.91-18.4,4.32-29.06a39.07,39.07,0,0,0-7.91-15.92,38.62,38.62,0,0,0,6.75-22.16c0-19-12.89-34.46-28.75-34.46-12.15,0-22.55,9.08-26.76,21.88-4.2-12.8-14.6-21.88-26.75-21.88-15.86,0-28.75,15.46-28.75,34.46,0,12.93,6,24.21,14.78,30.11C117.65,172.36,113.17,186.43,116.62,200.63Zm45.63-65.92c0,11.53-5.82,21.39-14,25.18a17.26,17.26,0,0,1-13.45.56c-8.84-3.29-15.32-13.58-15.32-25.74,0-14.8,9.59-26.84,21.37-26.84S162.25,119.91,162.25,134.71Zm6.56,79.37A35.8,35.8,0,0,0,173.42,199a35,35,0,0,0,8.75,9.61c.61.45,1.23.87,1.85,1.27a32.59,32.59,0,0,0-4.32,11.24A32.87,32.87,0,0,0,168.81,214.08Zm-10.05-49.22c-.68-.5-1.36-1-2-1.39a34.16,34.16,0,0,0,10.93-16.17,36.41,36.41,0,0,0,5.43,10.5,35.35,35.35,0,0,0-5.56,16.67A35.06,35.06,0,0,0,158.76,164.86Zm57-30.15A31.15,31.15,0,0,1,211,151.66a24.14,24.14,0,0,1-5,5.65,17.69,17.69,0,0,1-22.71.23,23.32,23.32,0,0,1-5.1-5.53,31,31,0,0,1-5.05-17.3c0-14.8,9.58-26.84,21.36-26.84S215.77,119.91,215.77,134.71Zm-2.67,64.06a19.11,19.11,0,0,1-8.09,6.5,17.78,17.78,0,0,1-2.27.76,16.71,16.71,0,0,1-4,.54,19.11,19.11,0,0,1-9.84-2.6,24.44,24.44,0,0,1-2.45-1.6,29.77,29.77,0,0,1-10.8-17,30.23,30.23,0,0,1,2.69-22.05,24.88,24.88,0,0,0,33-.78,31.57,31.57,0,0,1,5.81,12.11C219.34,183.7,217.57,192.65,213.1,198.77Zm-24.31,41.11a32.81,32.81,0,0,1-2.29-10A26.24,26.24,0,0,1,190.85,213a25.34,25.34,0,0,0,7.53,1.18,24.75,24.75,0,0,0,6.15-.78,25,25,0,0,0,10.49-5.7l.16.08A29.44,29.44,0,0,1,228.27,223c5.48,13.68,1.09,28.58-9.8,33.23-9.4,4-20.6-.9-27-11.12A32.62,32.62,0,0,1,188.79,239.88Zm-44.17-12.34c.64.05,1.28.08,1.93.08a24.29,24.29,0,0,0,6.07-.77,25.17,25.17,0,0,0,11.25-6.4c5.93,1.5,11.57,5.74,15.45,11.93A32,32,0,0,1,182,237.6a32.5,32.5,0,0,1,2.28,10c.67,10.3-3.84,19.71-12.08,23.23-10.89,4.66-24.2-2.69-29.69-16.36a30.63,30.63,0,0,1-1.14-20.31A23,23,0,0,1,144.62,227.54Zm-9.47-59.06a18.32,18.32,0,0,1,3-1.1,17.58,17.58,0,0,1,4.32-.55,18.23,18.23,0,0,1,6.1,1.07,22.38,22.38,0,0,1,5.83,3.14,29.82,29.82,0,0,1,10.79,17c2.22,9.12.41,18.13-4.14,24.25a18.53,18.53,0,0,1-10.27,7.14,17.53,17.53,0,0,1-9-.1c-8.2-2.22-15.44-10-18-20.57C120.62,185.75,125.65,173,135.15,168.48Z" transform="translate(-89.22 -60.8)"/><path class="cls-2" d="M228.05,178.26s-10.63,15-25,14.34c0,0-20.28-16.93-22.83-28.2C180.24,164.4,212.29,144.88,228.05,178.26Z" transform="translate(-89.22 -60.8)"/><path class="cls-3" d="M274.91,257.87s12-6.67,7.76-23.72l-17.45-14.26L250,217.28S254.53,245.53,274.91,257.87Z" transform="translate(-89.22 -60.8)"/><path class="cls-4" d="M187,87.5s65.68-25.77,123.22,21.59S344.65,195.77,339,216.31c0,0-16.3-23.31-34.31-25.25s-3.29,40.4-3.29,40.4-104.09-9.39-125.25-69.29S187,87.5,187,87.5Z" transform="translate(-89.22 -60.8)"/><path class="cls-3" d="M304.68,190s62.85,10.38,28.17,92.68c0,0-42.68-24.48-36.71-87C296.14,195.66,296.85,188,304.68,190Z" transform="translate(-89.22 -60.8)"/><path class="cls-5" d="M171.6,146.83l15,5.57,14.71-5.63L229,159l5.62,13.13,36.89,24.64,21.6-6.19-3.71-21.22-35.69-20.49L228.05,154l-23.37-12.62-8.5-20.63.79-4.43,25.2-14.5-4.66-17.43s-37.27,2.87-45,20.68c-8.57,19.7-8.18,19.86-8.18,19.86Z" transform="translate(-89.22 -60.8)"/><polygon class="cls-5" points="160.28 79.46 139.81 84.54 119.23 73.9 113.85 58.83 135.83 45.61 161.5 56.95 160.28 79.46"/><path class="cls-5" d="M223.55,83.86l3.69,17,27.24,11.75,28.19-7.21-6.4-12.43S252.34,79.56,223.55,83.86Z" transform="translate(-89.22 -60.8)"/><path class="cls-5" d="M309.37,113.61s-14.18-14.19-23.12-15a14,14,0,0,0,7.95,9.33C300.85,110.78,309.37,113.61,309.37,113.61Z" transform="translate(-89.22 -60.8)"/><polygon class="cls-5" points="211.35 56.03 220.49 85.62 203.2 101.87 166.4 80.53 168.57 58.91 196.2 50.76 211.35 56.03"/><path class="cls-5" d="M311.53,120.76s7.38-2.33,15.63,9.83,13.53,19.49,14.53,26.7l-25.22-12.95S309.12,125.25,311.53,120.76Z" transform="translate(-89.22 -60.8)"/><path class="cls-5" d="M342.69,164.5s2.12,4.34,1.23,20.08l-15,13.61L307.86,188,296.14,168.3l19.6-15.9Z" transform="translate(-89.22 -60.8)"/><polygon class="cls-5" points="254.07 129.25 249.77 148.56 242.6 139.53 254.07 129.25"/><path class="cls-2" d="M231.12,182.43s-15.79,14.21-21,14.27,25,16,29.71,13.8a95.7,95.7,0,0,0,9.06-4.88L233,183.9Z" transform="translate(-89.22 -60.8)"/><polygon class="cls-2" points="162.07 148.56 155.13 153.59 170.28 156.49 162.07 148.56 162.07 148.56"/><path class="cls-3" d="M219.34,134.3c-8.62-3-29.88-54-49-62.66,0,0-73-36.24-78.59,42.34-.24,3.43,7.51,1.74,12.83,3.64,8.1,2.89,2.53,23,16.69,28.66,10,4,29.42,6.36,44.13,10.52,5.3,1.49,7.06,3.42,12.18,3.83,9.33.76,25.85-6.9,34.65-2,18,10.09,29.34,45,53,61.23,12.34,8.47,29.88,32.35,64.73,27.52,0,0-30.82-75.8-43.47-85.24C271.14,150.73,249.22,144.53,219.34,134.3Z" transform="translate(-89.22 -60.8)"/><circle cx="57.43" cy="38.67" r="6.72"/><path class="cls-3" d="M106.13,118.43a70.8,70.8,0,0,1,42.93,7.87" transform="translate(-89.22 -60.8)"/><path class="cls-1" d="M179.61,163.54a29.92,29.92,0,0,0,7-.49,17.56,17.56,0,0,0,7.85,1.88,18.55,18.55,0,0,0,12.43-5c5.63-5,9.31-13.38,9.31-22.81a35.74,35.74,0,0,0-.4-5.33c-1.4-9.17-4.09-16.65-10.65-20.22-1.64-2.67-3.14-5.49-4.87-8.21,13.8,2.06,22.12,16.41,22.12,33.76,0,.16,0,.31,0,.46A37.79,37.79,0,0,1,214,161.43c-5,6-11.93,9.7-19.51,9.7-9.25,0-13.21-3.07-18.09-8.12A19,19,0,0,0,179.61,163.54Z" transform="translate(-89.22 -60.8)"/><path class="cls-1" d="M183.27,206.7a30.51,30.51,0,0,0,7-.5,17.48,17.48,0,0,0,7.85,1.9c4.62,0,8.46-2.87,12-6.06A29.18,29.18,0,0,0,219.88,180c0-1.84-.07-3.23,0-5,.56-8.79-4.15-15.42-8.13-16.88-1.63-2.71,1.94-2.38,2.61-6.07,9.79,7.21,11.28,10.64,12.5,26,0,.16,0,2.36,0,2.51a38.87,38.87,0,0,1-9.25,24.05c-5,6.06-11.92,9.8-19.51,9.8-6.89,0-13.21-3.09-18.09-8.21A18.22,18.22,0,0,0,183.27,206.7Z" transform="translate(-89.22 -60.8)"/></svg>
