<svg id="skrald" xmlns="http://www.w3.org/2000/svg" viewBox="0 0 61.6 52.01"><defs><style>.cls-1{fill:#cbcaca;}.cls-2{fill:#fafafa;}.cls-3{fill:#7b7a7a;}.cls-4{fill:#756759;}.cls-5{fill:#575656;}.cls-6{fill:#919190;}.cls-7{fill:#9e9e9d;}.cls-8{fill:#8c8989;}.cls-9{fill:#55473a;}.cls-10{fill:#bab9b9;}.cls-11{fill:#a39488;}.cls-12{fill:#a0a0a0;}.cls-13{fill:#d0d0d0;}.cls-14{fill:#dedede;}.cls-15{fill:#989494;}.cls-16{fill:#979594;}.cls-17{fill:#d9d9d9;}.cls-18{fill:#cac9c9;}.cls-19{fill:#888787;}.cls-20{fill:#9f9c9b;}.cls-21{fill:#9c9c9b;}.cls-22{fill:#696868;}.cls-23{fill:#626161;}.cls-24{fill:#686867;}.cls-25{fill:#e5e5e5;}.cls-26{fill:#5e5d5d;}.cls-27{fill:#949493;}.cls-28{fill:#7d7c7c;}.cls-29{fill:#d4d4d4;}.cls-30{fill:#686767;}.cls-31{fill:#8f8e8d;}.cls-32{fill:#9d9d9c;}.cls-33{fill:#e8e8e8;}.cls-34{fill:#a19f9f;}.cls-35{fill:#ddd;}.cls-36{fill:#8b8988;}.cls-37{fill:#f2f2f2;}.cls-38{fill:#ccc;}.cls-39{fill:#f1f1f1;}.cls-40{fill:#959493;}.cls-41{fill:#b5b5b4;}.cls-42{fill:#9e9d9d;}.cls-43{fill:#c7c6c6;}.cls-44{fill:#616060;}.cls-45{fill:#919090;}.cls-46{fill:#5b5b5a;}.cls-47{fill:#cfcfcf;}.cls-48{fill:#c1c0c0;}.cls-49{fill:#e3e3e3;}.cls-50{fill:#969494;}.cls-51{fill:#a2a2a1;}.cls-52{fill:#afafae;}.cls-53{fill:#7a7979;}.cls-54{fill:#7e7d7d;}.cls-55{fill:#565555;}.cls-56{fill:#d4c4bf;}.cls-57{fill:#c8c7c7;}.cls-58{fill:#656464;}.cls-59{fill:#605f5f;}.cls-60{fill:#d1d0d0;}.cls-61{fill:#a8a6a5;}.cls-62{fill:#6d6b6b;}.cls-63{fill:#908e8d;}.cls-64{fill:#4e4d4d;}.cls-65{fill:#fefefe;}.cls-66{fill:#a19286;}.cls-67{fill:#f1e4e2;}.cls-68{fill:#969595;}.cls-69{fill:#dadada;}.cls-70{fill:#646363;}.cls-71{fill:#c4c4c4;}.cls-72{fill:#a6a5a5;}.cls-73{fill:#d8d8d8;}.cls-74{fill:#d7d7d7;}.cls-75{fill:#e2e2e2;}.cls-76{fill:#cccbcb;}.cls-77{fill:#bdbcbc;}.cls-78{fill:#b9b9b9;}.cls-79{fill:#e4e4e4;}.cls-80{fill:#fbfbfb;}.cls-81{fill:#b7b6b6;}.cls-82{fill:#f5f4f4;}.cls-83{fill:#ededec;}.cls-84{fill:#e4e3e3;}.cls-85{fill:#868585;}.cls-86{fill:#767575;}.cls-87{fill:#b6b5b5;}.cls-88{fill:#b2a396;}.cls-89{fill:#b1aaa4;}.cls-90{fill:#f5f5f5;}.cls-91{fill:#f7f7f7;}.cls-92{fill:#c3c2c2;}.cls-93{fill:#b3b3b2;}.cls-94{fill:#706f6f;}.cls-95{fill:#a1a1a0;}.cls-96{fill:#aea9a5;}.cls-97{fill:#dfdfdf;}.cls-98{fill:#bfbfbf;}.cls-99{fill:#4a4a49;}.cls-100{fill:#acacab;}.cls-101{fill:#d5d5d5;}.cls-102{fill:#b3b2b2;}.cls-103{fill:#818080;}.cls-104{fill:#727171;}.cls-105{fill:#979796;}.cls-106{fill:#676666;}.cls-107{fill:#8d8c8c;}.cls-108{fill:#5d5c5c;}.cls-109{fill:#323231;}.cls-110{fill:#6b6a6a;}.cls-111{fill:#797878;}.cls-112{fill:#777676;}.cls-113{fill:#424140;}.cls-114{fill:#807e7e;}.cls-115{fill:#b9b8b8;}.cls-116{fill:#3a3227;}.cls-117{fill:#989795;}.cls-118{fill:#716d69;}.cls-119{fill:#7f7e7e;}.cls-120{fill:#e3e3e2;}.cls-121{fill:#bbb;}.cls-122{fill:#7a7978;}.cls-123{fill:#b0aaa5;}.cls-124{fill:#aaaaa9;}.cls-125{fill:#84817d;}.cls-126{fill:#b0b0af;}.cls-127{fill:#bbbaba;}.cls-128{fill:#c5b7aa;}.cls-129{fill:#b2adaa;}.cls-130{fill:#e9e9e9;}.cls-131{fill:#c8c8c8;}.cls-132{fill:#a99e95;}.cls-133{fill:#eee;}.cls-134{fill:#f9f9f9;}.cls-135{fill:#dbdbdb;}.cls-136{fill:#d3d3d3;}.cls-137{fill:#f8f8f8;}.cls-138{fill:#e7e7e7;}.cls-139{fill:gray;}.cls-140{fill:#f6f6f6;}.cls-141{fill:#eaeaea;}.cls-142{fill:#3f3f3d;}.cls-143{fill:#929291;}.cls-144{fill:#807f7f;}.cls-145{fill:#757474;}.cls-146{fill:#30302f;}.cls-147{fill:#2c2c2b;}.cls-148{fill:#a19f9e;}.cls-149{fill:#757370;}.cls-150{fill:#c9c7c5;}.cls-151{fill:#595858;}.cls-152{fill:#bcbbbb;}.cls-153{fill:#cecece;}.cls-154{fill:#b6b2af;}.cls-155{fill:#f4f4f4;}.cls-156{fill:#b8b7b7;}.cls-157{fill:#d6d6d6;}.cls-158{fill:#c3c3c3;}.cls-159{fill:#373736;}.cls-160{fill:#bfbebe;}.cls-161{fill:#adadac;}.cls-162{fill:#f8f8f7;}.cls-163{fill:#d4d5d5;}</style></defs><title>skrald_dåse</title><path class="cls-1" d="M441.68,500.05l-1.94,1.64a3.69,3.69,0,0,1-.65.18c-.95,0-1.38-.71-1.69-1.41-1.15-2.64-2.33-5.26-3.41-7.93a1.85,1.85,0,0,1-.05-1.37,8.64,8.64,0,0,1,4.25-1.05c2.11,2.5,2.81,5.67,4.05,8.59A1,1,0,0,1,441.68,500.05Z" transform="translate(-400.68 -488.2)"/><path class="cls-2" d="M449.19,494.81a1.27,1.27,0,0,1-1.26-.66c-.71.53-1.39.05-2.08-.06a2.83,2.83,0,0,1-1.83-1.71,1.43,1.43,0,0,1,0-.74,1.25,1.25,0,0,1,.79-.73h0a2.57,2.57,0,0,0,.72-.31.58.58,0,0,1,.42-.14,19.64,19.64,0,0,1,2.31-1h0a3.94,3.94,0,0,1,2.07.13,2.92,2.92,0,0,1,1.15,2.1l.95,1c.36.94.5,1.83-.65,2.37a.94.94,0,0,0-1,0C450.17,495.16,449.72,494.73,449.19,494.81Z" transform="translate(-400.68 -488.2)"/><path class="cls-3" d="M430.94,497.08c.08-1-.24-2,.4-3,1.14-.14,1.24.85,1.49,1.51,1,2.74,2.33,5.36,3.5,8a8.69,8.69,0,0,0,.9,2c-.55.41.34,1.74-1,1.62a3.32,3.32,0,0,1-1.76-.95,2.27,2.27,0,0,1-.48-.84,5,5,0,0,0-.62-2,7.94,7.94,0,0,0-.93-1.45,21.28,21.28,0,0,1-.95-2.13c-.18-.45-.32-.92-.46-1.39A2.85,2.85,0,0,1,430.94,497.08Z" transform="translate(-400.68 -488.2)"/><path class="cls-4" d="M456.65,520.66c-2.51,4.89-4.92,9.83-7.57,14.64-.74,1.34-.3,3.24-2,4.08a1.6,1.6,0,0,1-.81-1.5c.64-2.64,2.21-4.86,3.42-7.23a95.39,95.39,0,0,1,5-9.35C455.26,520.79,455.8,520.24,456.65,520.66Z" transform="translate(-400.68 -488.2)"/><path class="cls-5" d="M435.9,504l-4.56-9.86a1.81,1.81,0,0,1,.64-1.29c.94.07,1,1,1.46,1.5a10.82,10.82,0,0,1,.58,1.46,8.31,8.31,0,0,0,.85,2,4.6,4.6,0,0,1,.38.85,8.48,8.48,0,0,0,.88,2,6.79,6.79,0,0,1,.39.87c.2.85.82,1.59.67,2.53C436.77,504.57,436.33,504.76,435.9,504Z" transform="translate(-400.68 -488.2)"/><path class="cls-6" d="M433.66,495.86l-.45-1.28c-.29-.73-.62-1.44-1-2.14a.92.92,0,0,1,.84-.65c2.06,1.86,2.38,4.63,3.59,6.93.64,1.21.78,2.77,2.38,3.29a1.63,1.63,0,0,1,.37.54c-.06.59-1.4.39-.84,1.37a1.3,1.3,0,0,1-1.23-.43c-.64-.54-.76-1.39-1.21-2.05l-.23-.65c-.33-.71-.61-1.45-1-2.14l-.22-.64C434.33,497.29,434.05,496.55,433.66,495.86Z" transform="translate(-400.68 -488.2)"/><path class="cls-7" d="M438.83,502.32c-1.81-.21-1.87-1.92-2.45-3.06-1.22-2.43-2.22-5-3.31-7.47.2-.34.4-.67.87-.63,1.14,2.67,2.24,5.36,3.45,8,.42.93.51,2.24,2,2.33C439.39,501.9,439.29,502.22,438.83,502.32Z" transform="translate(-400.68 -488.2)"/><path class="cls-8" d="M433.91,537.77l-.79-.32c-1,0-1.73-1-2.78-1l-2.06-.94c-3-1.12-5.7-2.87-8.57-4.25a1,1,0,0,1-.55-.62c-.13-1.58.76-1.58,1.88-1.21a4.73,4.73,0,0,1,1.66,1.12c1.1,1.83,3.18,2.21,4.81,3.25a12.56,12.56,0,0,0,2.39,1.16c.21,0,.41.08.62.12a13.79,13.79,0,0,0,1.82,0,6.38,6.38,0,0,1,1.84,2.16A.46.46,0,0,1,433.91,537.77Z" transform="translate(-400.68 -488.2)"/><path class="cls-9" d="M401.08,514c-.28-1.56,1.23-2.21,1.75-3.38,2.26-5,5.34-9.63,7.31-14.8.08-.22.51-.31.78-.46a.7.7,0,0,1,.57.32,1.4,1.4,0,0,1,.09,1.06c-.33.71-.87,1.3-1.18,2-2.33,4.49-4.61,9-7,13.45C402.93,513.07,402.66,514.45,401.08,514Z" transform="translate(-400.68 -488.2)"/><path class="cls-10" d="M441.68,500.05c.45-2.2-1.23-3.75-1.76-5.65a38.46,38.46,0,0,0-1.73-4.29l.67-.08a4.65,4.65,0,0,1,1.94,2.6c.77,2.32,2.1,4.42,2.8,6.77C443,499.86,442.51,500.38,441.68,500.05Z" transform="translate(-400.68 -488.2)"/><path class="cls-11" d="M401.08,514c1.07-.16,1.24-1.13,1.62-1.86,2.52-4.8,5-9.63,7.52-14.44.9-.06.95.45.75,1.12-2.94,5.4-5.52,11-8.63,16.31a2.2,2.2,0,0,1-.71.54.6.6,0,0,1-.74-.32C400.46,514.82,400.76,514.4,401.08,514Z" transform="translate(-400.68 -488.2)"/><path class="cls-12" d="M443.6,499.4c-1.65-1.4-2-3.53-2.83-5.35-.63-1.33-1.26-2.68-1.91-4l1.72-.12a5.78,5.78,0,0,1,1.05,2.12l-.12.09c.12.74.74,1.28.85,2,.38,1.65,1.75,3,1.48,4.84Z" transform="translate(-400.68 -488.2)"/><path class="cls-13" d="M430.94,497.08l.31,1.26c-1.5.83-2.64-.24-3.89-.73a6.25,6.25,0,0,0-2.41-.52,2.3,2.3,0,0,1-.68-.24c-.7-.86-2.38-.94-2.06-2.6C425.18,495,427.78,496.91,430.94,497.08Z" transform="translate(-400.68 -488.2)"/><path class="cls-14" d="M411.55,494.08c2.77-2.18,5.65-.75,8.5-.26a5.89,5.89,0,0,1,1.07.37c.48-.05.51.29.54.62a1.64,1.64,0,0,1-.25.61,1.21,1.21,0,0,1-.54.35,2.49,2.49,0,0,1-1.12-.54,4.34,4.34,0,0,0-1.87-.76,10.84,10.84,0,0,0-1.39-.21,6.65,6.65,0,0,0-1.39.25,2.31,2.31,0,0,1-.59,0,3.66,3.66,0,0,0-1.8-.07C412.29,494.43,411.85,494.49,411.55,494.08Z" transform="translate(-400.68 -488.2)"/><path class="cls-15" d="M419.32,530.77l9,4.71a61.89,61.89,0,0,1-13.76-7.11c1.13-.48,2,.29,2.9.67A3.47,3.47,0,0,1,419.32,530.77Z" transform="translate(-400.68 -488.2)"/><path class="cls-16" d="M433.91,537.77l.19-.37a1.7,1.7,0,0,1,1.28-.28c.87.12,1.61.63,2.47.77a4.11,4.11,0,0,1,.61.12c.73.21,1.46.38,2.07-.29a2,2,0,0,1,1.74.58c.19.59-1,1-.22,1.64A23.46,23.46,0,0,1,433.91,537.77Z" transform="translate(-400.68 -488.2)"/><path class="cls-17" d="M445.61,494.55c-.65.95,1.44,2.25-.39,3.05a14.28,14.28,0,0,1-2.14-2.51,1.14,1.14,0,0,1,.08-1.25c.75.17,1.38-1.14,2.2-.18A.87.87,0,0,1,445.61,494.55Z" transform="translate(-400.68 -488.2)"/><path class="cls-18" d="M452.42,510.38c1.43,1.2,3,2.31,3.73,4.12a1.31,1.31,0,0,1-1.27-.27,15.88,15.88,0,0,1-1.19-1.13,4.1,4.1,0,0,0-2.19-1.2,2.11,2.11,0,0,1-.58-.39c-.31-.5-.51-1,.09-1.44A.91.91,0,0,1,452.42,510.38Z" transform="translate(-400.68 -488.2)"/><path class="cls-14" d="M438.83,502.32c.17-.28.35-.55.53-.83l.38.2c.73,1.48,2.44,1.54,3.58,2.42a.66.66,0,0,1,0,.55c-.27.5-.36,1.16-1.08,1.29a1.88,1.88,0,0,1-.9-.23,1.68,1.68,0,0,1-.65-.67c.06-1.17-1.15-1.58-1.52-2.5A4,4,0,0,1,438.83,502.32Z" transform="translate(-400.68 -488.2)"/><path class="cls-19" d="M443.18,493.84l.12,1.08c.42,1.18,1.58,2.05,1.4,3.46l-.86.62c-.57-1.59-1.64-3-1.87-4.72a1.23,1.23,0,0,1,.66-.59A.6.6,0,0,1,443.18,493.84Z" transform="translate(-400.68 -488.2)"/><path class="cls-20" d="M411.77,526.78c-1.46-1.13-3.6-1.5-4.17-3.66l.33-.12a2.06,2.06,0,0,1,1,.25,4.21,4.21,0,0,1,.85.6c.84.93,2.41,1,2.8,2.46C412.49,526.78,412.14,526.8,411.77,526.78Z" transform="translate(-400.68 -488.2)"/><path class="cls-21" d="M451.44,491.71l-1.25-1.8a.7.7,0,0,1,.34-.9,4.14,4.14,0,0,1,2.66.17A3.38,3.38,0,0,0,451.44,491.71Z" transform="translate(-400.68 -488.2)"/><path class="cls-22" d="M457.19,516.69c.78,1,.77,1.75-.56,2.18-.11.86-.68.86-1.33.71a1.28,1.28,0,0,1-.49-.92,1.93,1.93,0,0,1,1.7-1.92Z" transform="translate(-400.68 -488.2)"/><path class="cls-23" d="M400.89,515.34l.61.18c1.31.18,1.22,1.37,1.59,2.23a1.35,1.35,0,0,1-.1.66,1,1,0,0,1-.52.38C400.76,518.18,400.5,516.91,400.89,515.34Z" transform="translate(-400.68 -488.2)"/><path class="cls-24" d="M446.17,539.85a6.41,6.41,0,0,1-2.72.24c-1.62-.4-.64-1-.14-1.61a3,3,0,0,1,.94-.43,1.63,1.63,0,0,1,1.56.3A2,2,0,0,1,446.17,539.85Z" transform="translate(-400.68 -488.2)"/><path class="cls-25" d="M452.42,510.38c-.44-.16-.94-.38-1.3,0s0,.71.2,1a.45.45,0,0,1-.32.56,2.06,2.06,0,0,1-1.64-.54,1.2,1.2,0,0,1-.4-.86c.06-.29.92-.2.38-.78a.8.8,0,0,1,1-.52C451.17,509.31,452.09,509.26,452.42,510.38Z" transform="translate(-400.68 -488.2)"/><path class="cls-26" d="M455.23,519.36a1.6,1.6,0,0,0,1.4-.49c.32.6.68,1.19,0,1.79l-1.29.42a1,1,0,0,1-1.14-.37,1.23,1.23,0,0,1-.17-.62,1.73,1.73,0,0,1,.2-.62,1.33,1.33,0,0,1,.5-.41A.41.41,0,0,1,455.23,519.36Z" transform="translate(-400.68 -488.2)"/><path class="cls-27" d="M457.19,516.69,457,517c-.41.17-.78-.17-1.18-.1-.89.31-.82,1.49-1.68,1.81a.57.57,0,0,1-.59-.26c-.24-1.38.52-2.35,1.32-3.31a1.08,1.08,0,0,1,1.39-.07Z" transform="translate(-400.68 -488.2)"/><path class="cls-28" d="M451.74,495.06l.65-2.37,1.23.72c.93.84,1.05,1.5-.41,1.8A1.84,1.84,0,0,1,451.74,495.06Z" transform="translate(-400.68 -488.2)"/><path class="cls-29" d="M407.6,523.12l-.92.07c-.21-1-1.76-1.54-.93-2.87,1.24-.65,1.89,0,2.37,1.07a1.59,1.59,0,0,1-.4,1.76Z" transform="translate(-400.68 -488.2)"/><path class="cls-30" d="M444.7,498.38c-.42-1.17-1.65-2-1.4-3.46a3.12,3.12,0,0,1,1.92,2.68Z" transform="translate(-400.68 -488.2)"/><path class="cls-31" d="M402.47,518.79l.28-.4c1.34-.52,1.83.52,2.46,1.33a1.38,1.38,0,0,1,.24,1c-.48.82-1,.5-1.48,0C403,520.49,403.12,519.33,402.47,518.79Z" transform="translate(-400.68 -488.2)"/><path class="cls-32" d="M444.3,491.71l-.14.46c.13.6-.18.87-.72,1a1.42,1.42,0,0,1-.66-.21,1.09,1.09,0,0,1-.37-.59c.53-.63.11-2.44,1.89-1.49C444.44,491.13,444.26,491.42,444.3,491.71Z" transform="translate(-400.68 -488.2)"/><path class="cls-29" d="M453.21,495.21c.47-.52.94-1,.41-1.8l.43.17c1,.4,1.66,1.32,1.17,2.09S453.87,495.54,453.21,495.21Z" transform="translate(-400.68 -488.2)"/><path class="cls-33" d="M459.48,495.79c-.81,0-1.63.46-2.63-.06a3.38,3.38,0,0,1,2.83-1.35C460,494.91,460.15,495.41,459.48,495.79Z" transform="translate(-400.68 -488.2)"/><path class="cls-34" d="M404,520.77c.58.19,1.11.22,1.43-.43l.25,0,.11.23c-.19,1.06,1.52,1.45.92,2.65A9.63,9.63,0,0,1,404,520.77Z" transform="translate(-400.68 -488.2)"/><path class="cls-35" d="M443.11,504.52l.21-.41c1.22.78,2.82,1,3.63,2.36a1.17,1.17,0,0,1-1,.43A4.12,4.12,0,0,1,443.11,504.52Z" transform="translate(-400.68 -488.2)"/><path class="cls-36" d="M411.77,526.78l.59-.15c1.2-.34,2.11.39,3.09.86a4.94,4.94,0,0,1,1.94,1.47.49.49,0,0,1-.18.69l-2.69-1.28Z" transform="translate(-400.68 -488.2)"/><path class="cls-37" d="M459.94,491.78c-.17-.47-1.36-.9-.09-1.44s1.27.69,1.8,1.19C461.17,492.23,460.53,491.81,459.94,491.78Z" transform="translate(-400.68 -488.2)"/><path class="cls-38" d="M446.31,506.66l.64-.19c1,.76,2.53.84,3.14,2.19-1.38,1.3-1.9-.57-2.87-.77A1.93,1.93,0,0,1,446.31,506.66Z" transform="translate(-400.68 -488.2)"/><path class="cls-14" d="M421.33,494.83l-.21-.64a1,1,0,0,1,1.08.06c.54,1.09,1.82,1.39,2.48,2.35-.13.76-.73.58-1.23.6a1.29,1.29,0,0,1-.53-.28,4,4,0,0,1-.34-.5C422.24,495.83,421.49,495.56,421.33,494.83Z" transform="translate(-400.68 -488.2)"/><path class="cls-39" d="M447.52,507.39c1,.1,1.25,1.78,2.57,1.27.06.21.13.42.2.63l-.87.64c-.85.19-1.26-.44-1.75-.94S447,508,447.52,507.39Z" transform="translate(-400.68 -488.2)"/><path class="cls-40" d="M443.7,538.61c-.21.47-1.19.81-.25,1.48a1.52,1.52,0,0,1-1.4-.15c-1.08-.62-.09-1.06.13-1.58a1.27,1.27,0,0,1,.53-.2C443.1,538.17,443.49,538.19,443.7,538.61Z" transform="translate(-400.68 -488.2)"/><path class="cls-3" d="M442.41,492.33a1.07,1.07,0,0,0,.4.23,2.22,2.22,0,0,1,.18.49,1.08,1.08,0,0,1-.09.5l-.14.21a.79.79,0,0,1-.79.52,2.41,2.41,0,0,1-.46-2.16Z" transform="translate(-400.68 -488.2)"/><path class="cls-41" d="M448.24,489.47c-.37,1.25-1.33,1.13-2.31,1C446.17,488.91,447.24,489.27,448.24,489.47Z" transform="translate(-400.68 -488.2)"/><path class="cls-42" d="M462.22,492.45l0,1.1c0,.7-.18,1.22-1,1.26a1,1,0,0,1-.59-.41c.12-.72.32-1.43.45-2.15C461.54,491.83,461.93,491.85,462.22,492.45Z" transform="translate(-400.68 -488.2)"/><path class="cls-43" d="M455.63,488.79c.79-.91,1.46-.66,2.38,0C457.13,489,456.49,489.44,455.63,488.79Z" transform="translate(-400.68 -488.2)"/><path class="cls-22" d="M441.63,492a2.38,2.38,0,0,1-1.05-2.12C441.73,490.22,442.15,490.89,441.63,492Z" transform="translate(-400.68 -488.2)"/><path class="cls-44" d="M411.55,494.08l1.08-.15a1.68,1.68,0,0,1,.7.93c-.24.91-1.05.74-1.7.88l-.29-.05-.42-.34Z" transform="translate(-400.68 -488.2)"/><path class="cls-45" d="M456.24,515.1l-.93,0a.83.83,0,0,1-.6,0,1.43,1.43,0,0,1-.46-.42,1,1,0,0,1,0-.92c.26-.25.51-.37.76,0l1.17.69Z" transform="translate(-400.68 -488.2)"/><path class="cls-46" d="M446.17,539.85a.78.78,0,0,1-.39-1.15.64.64,0,0,1,.41-.33l.27,0a1,1,0,0,1,.63,1A1,1,0,0,1,446.17,539.85Z" transform="translate(-400.68 -488.2)"/><path class="cls-47" d="M462.22,492.45a.81.81,0,0,0-1,0,.62.62,0,0,1-.71.18l-.6-.85,1.71-.25Z" transform="translate(-400.68 -488.2)"/><path class="cls-43" d="M460.54,492.63l.71-.18c.24.76-.31,1.28-.55,1.9-.08.55-.34.46-.65.18A2.86,2.86,0,0,0,460.54,492.63Z" transform="translate(-400.68 -488.2)"/><path class="cls-48" d="M460.05,494.53l.65-.18.35.22c.24.27.18.44-.17.51a1.21,1.21,0,0,1-1.4.71c.07-.47.14-.94.2-1.41A1.2,1.2,0,0,1,460.05,494.53Z" transform="translate(-400.68 -488.2)"/><path class="cls-49" d="M445.61,494.55l-.22-.63a.94.94,0,0,1,.56-.21l2,.44C447.32,495.23,446.37,494.35,445.61,494.55Z" transform="translate(-400.68 -488.2)"/><path class="cls-50" d="M430.34,536.42c1.15-.25,1.88.61,2.78,1A5,5,0,0,1,430.34,536.42Z" transform="translate(-400.68 -488.2)"/><path class="cls-38" d="M450.53,489l-.34.9-2-.43C448.9,488.88,449.75,489.13,450.53,489Z" transform="translate(-400.68 -488.2)"/><path class="cls-35" d="M449.19,494.81c.61-.57,1.11-.45,1.52.23C450,496.13,449.63,495.31,449.19,494.81Z" transform="translate(-400.68 -488.2)"/><path class="cls-22" d="M432.23,492.44a2.13,2.13,0,0,1,1,2.14c-.74-.35-.74-1.22-1.23-1.75Z" transform="translate(-400.68 -488.2)"/><path class="cls-42" d="M460.88,495.08l.18-.51c.67,0,.88-.54,1.14-1C462.41,494.62,462.27,495.38,460.88,495.08Z" transform="translate(-400.68 -488.2)"/><path class="cls-51" d="M444.3,491.71v-.88l.52.08Z" transform="translate(-400.68 -488.2)"/><path class="cls-29" d="M445.51,490.61l-.72.31Z" transform="translate(-400.68 -488.2)"/><path class="cls-52" d="M446,493.71l-.56.21c-.7-.87-1.51.87-2.21-.08a1.56,1.56,0,0,0-.42-.08l.1-.14a.69.69,0,0,1,0-.49.64.64,0,0,1,.38-.32,1.05,1.05,0,0,0,.91-.64Z" transform="translate(-400.68 -488.2)"/><path class="cls-53" d="M431.71,499.66a4.64,4.64,0,0,1,1,2.11.68.68,0,0,1-.08.71c-1.28.9-1.72,2.37-2.46,3.64-.57,1-.87,2.21-2.17,2.61a1.77,1.77,0,0,1-1.66-1.06c.35-2.93,2.11-5.22,3.53-7.66a1.44,1.44,0,0,1,1.49-.51Z" transform="translate(-400.68 -488.2)"/><path class="cls-22" d="M435.9,504a.83.83,0,0,0,1.25-.4l.34-.06c.42.2.9.31,1.09.82a1.56,1.56,0,0,1-.77,1.51.61.61,0,0,1-.66-.1C436.44,505.36,435.79,504.94,435.9,504Z" transform="translate(-400.68 -488.2)"/><path class="cls-21" d="M437.15,505.75a3.37,3.37,0,0,1,.38.19l.21.12a2.69,2.69,0,0,1,.75,0,1.25,1.25,0,0,1,.6.58,1.27,1.27,0,0,1-.27,1.42,1.2,1.2,0,0,1-.59.18,5.1,5.1,0,0,1-1.23-.2,1.61,1.61,0,0,1-.55-.29c-.2-.27-.3-.54,0-.81C437,506.72,436.41,505.85,437.15,505.75Z" transform="translate(-400.68 -488.2)"/><path class="cls-54" d="M427.28,496.92l4,1.42a1.77,1.77,0,0,1,.46,1.32h-.06a7.68,7.68,0,0,1-3.13-.93C427.93,498.25,426.87,498.09,427.28,496.92Z" transform="translate(-400.68 -488.2)"/><path class="cls-3" d="M436.45,507l.21.71c-.09.65-.59.69-1.1.71a1.34,1.34,0,0,1-.5-.23,1,1,0,0,1-.26-.44,2.47,2.47,0,0,0-.29-.67,3.79,3.79,0,0,1-.31-.37.93.93,0,0,1-.15-.45c0-.08.07-.15.1-.23l.23-.09Z" transform="translate(-400.68 -488.2)"/><path class="cls-44" d="M433.57,503.3a1.36,1.36,0,0,1,.6,1.92c0,.12,0,.23.05.35l-.31.18a1.58,1.58,0,0,1-1-1.7A.93.93,0,0,1,433.57,503.3Z" transform="translate(-400.68 -488.2)"/><path class="cls-55" d="M433.57,503.3l-.46.86a.62.62,0,0,1-.53-.19,3.54,3.54,0,0,1-.06-1.74c.05-.16.11-.31.16-.46A1.55,1.55,0,0,1,433.57,503.3Z" transform="translate(-400.68 -488.2)"/><path class="cls-5" d="M433.94,505.67l.23-.45.21.67h0A.29.29,0,0,1,433.94,505.67Z" transform="translate(-400.68 -488.2)"/><path class="cls-56" d="M454.17,520.46l1.19.62-8.9,17.34-.07-.1c-1.9,0-1.8-1.06-1.12-2.33,2.54-4.81,4.92-9.7,7.56-14.46a3.17,3.17,0,0,1,.92-.94Z" transform="translate(-400.68 -488.2)"/><path class="cls-22" d="M434.89,498.65a2.13,2.13,0,0,1,1,2.14A2.32,2.32,0,0,1,434.89,498.65Z" transform="translate(-400.68 -488.2)"/><path class="cls-22" d="M433.66,495.86a2.18,2.18,0,0,1,1,2.15A2.32,2.32,0,0,1,433.66,495.86Z" transform="translate(-400.68 -488.2)"/><path class="cls-22" d="M436.13,501.44c.77.3.77,1.18,1.26,1.69.09.17.09.29,0,.37s-.17.1-.21.08h0A2.3,2.3,0,0,1,436.13,501.44Z" transform="translate(-400.68 -488.2)"/><path class="cls-57" d="M439.17,502.55c.92.51,2.39.64,1.62,2.33a1.48,1.48,0,0,1-2-1.12C438.29,503.15,438.37,502.73,439.17,502.55Z" transform="translate(-400.68 -488.2)"/><path class="cls-58" d="M438.76,503.76l2,1.12.71.49a.36.36,0,0,1-.32.52,3.29,3.29,0,0,1-2.35-1,2.27,2.27,0,0,1-.37-.64l-1.29-.7.22-.45Z" transform="translate(-400.68 -488.2)"/><path class="cls-59" d="M427.56,534.52c-1.63-1.28-4.32-1.12-5-3.66,1.79-.49,3,1.2,4.57,1.29a14.47,14.47,0,0,1,3.24,1.51,2.47,2.47,0,0,1,.82.82c.26.78-.33.82-.83.94h0C429.27,535.52,428.63,534.37,427.56,534.52Z" transform="translate(-400.68 -488.2)"/><path class="cls-60" d="M417.39,529.3l-2.05-1.22c.31-.32,1.45-.59,0-1a.87.87,0,0,1-.61-1.13c.93-.57,1.69,0,2.5.35a7,7,0,0,1,1.29.88c.58,1.05,2.63.9,2.27,2.73-.49-.08-1.18-.84-1.26.39A2.78,2.78,0,0,1,417.39,529.3Z" transform="translate(-400.68 -488.2)"/><path class="cls-61" d="M420.8,529.91c-.32-1.34-2.15-1-2.52-2.33,3.48.27,6.06,2.41,8.79,4.25a.46.46,0,0,1-.1.71c-1.73.09-2.94-1.17-4.45-1.68Z" transform="translate(-400.68 -488.2)"/><path class="cls-10" d="M431.12,534.82l-.77-.55a.48.48,0,0,1,.26-.5,2.87,2.87,0,0,1,.92-.11,2.64,2.64,0,0,1,.62.08,5.49,5.49,0,0,1,1.68.83,2.29,2.29,0,0,1,.45.43,3.24,3.24,0,0,1,.37.83c.09.57.55,1,.56,1.63l-1.11-.06c-1.18-.26-1.28-1.58-2.11-2.17A.72.72,0,0,1,431.12,534.82Z" transform="translate(-400.68 -488.2)"/><path class="cls-62" d="M427.56,534.52c1.14-.38,1.85.57,2.76.9C429.19,535.76,428.47,534.85,427.56,534.52Z" transform="translate(-400.68 -488.2)"/><path class="cls-62" d="M431.12,534.82l.87.41c-.47.84-1.07.49-1.67.19Z" transform="translate(-400.68 -488.2)"/><path class="cls-63" d="M417.39,529.3l2.15,1c-.07.16-.15.31-.22.47l-2.11-1.12Z" transform="translate(-400.68 -488.2)"/><path class="cls-64" d="M410.93,498.45c0-.49-.36-.62-.71-.76l1.28-1.59h.27a1,1,0,0,1,.41.37,2.26,2.26,0,0,1,.21.81,4.83,4.83,0,0,1,0,.85,1.52,1.52,0,0,1-.39.78.81.81,0,0,1-.55.16C411.14,499,410.92,498.8,410.93,498.45Z" transform="translate(-400.68 -488.2)"/><path class="cls-65" d="M411.5,496.1a.44.44,0,0,1-.16-.41h0a.32.32,0,0,1,.51,0c0,.24-.08.36-.32.36Z" transform="translate(-400.68 -488.2)"/><path class="cls-66" d="M405.4,520.34l-.84-.46c.29-1.42-.94-1.47-1.72-1.93-.45-.81-.9-1.62-1.34-2.43l.27-.42c1.13-.22,1.37-1.23,1.8-2.05,2.07-3.92,4.09-7.87,6.14-11.8.47-.91.88-1.88,2-2.27l0-.17c.85.17,1,1,1.5,1.54.44.68,1.28.77,1.85,1.25a1.39,1.39,0,0,1,0,1.75c-2.53,4.62-4.88,9.33-7.3,14a4.13,4.13,0,0,0-.59,1.77c0,1.17-1.19.76-1.73,1.23Z" transform="translate(-400.68 -488.2)"/><path class="cls-67" d="M411.67,499q-3.93,7.57-7.88,15.16c-.42.8-.71,2-2,1q4-7.68,7.92-15.38c.28-.53.44-1.22,1.24-1.27Z" transform="translate(-400.68 -488.2)"/><path class="cls-68" d="M427.28,496.92c.16.81,1,.89,1.48,1.38a.71.71,0,0,1-.36.47,1.45,1.45,0,0,1-.92,0,3.65,3.65,0,0,1-.54-.32c-.6-.55-1.55-.73-1.78-1.68A2.12,2.12,0,0,1,427.28,496.92Z" transform="translate(-400.68 -488.2)"/><path class="cls-69" d="M425.16,496.8c.75.6,2,.57,2.29,1.74-1.59.11-3-.14-4-1.56l1.25-.38Z" transform="translate(-400.68 -488.2)"/><path class="cls-70" d="M414.71,494.16l.46.15a5.14,5.14,0,0,1,1.76.41c1.37,1.74.89,3.4-1.48,5.22a1.75,1.75,0,0,1-1.12-.26,3.46,3.46,0,0,1-1.33-1.75c-.3-1.24.38-2.18,1-3.15A1.18,1.18,0,0,1,414.71,494.16Z" transform="translate(-400.68 -488.2)"/><path class="cls-30" d="M414.71,494.16l-.41.8a1,1,0,0,1-1.07,0,.94.94,0,0,1-.6-1A1.64,1.64,0,0,1,414.71,494.16Z" transform="translate(-400.68 -488.2)"/><path class="cls-71" d="M417.93,494.08c.94-.29,1.56.42,2.31.73-.07.73-.72.69-1.19.89s-1.1.07-1.15-.7C418.59,494.71,417.81,494.38,417.93,494.08Z" transform="translate(-400.68 -488.2)"/><path class="cls-6" d="M416,494.84c-.52.2-.8,0-.8-.53a.86.86,0,0,1,1.26-.46c.48,0,.5.26.41.62S416.25,494.69,416,494.84Z" transform="translate(-400.68 -488.2)"/><path class="cls-72" d="M416.65,494.55l-.22-.7a1.89,1.89,0,0,1,1.5.23c.06.24.88.25.21.71A1.28,1.28,0,0,1,416.65,494.55Z" transform="translate(-400.68 -488.2)"/><path class="cls-73" d="M419,495.22l1.25-.41.66.86a.4.4,0,0,1,.48.32.68.68,0,0,1-.46.47,2.06,2.06,0,0,1-.7-.07A1.73,1.73,0,0,1,419,495.22Z" transform="translate(-400.68 -488.2)"/><path class="cls-49" d="M421.33,495.92l-.43-.25.21-.42a2.79,2.79,0,0,1,2.11,1.1l-.21.4A1.3,1.3,0,0,1,421.33,495.92Z" transform="translate(-400.68 -488.2)"/><path class="cls-74" d="M423.22,496.35l-2.11-1.1.22-.42C422,495.3,423,495.34,423.22,496.35Z" transform="translate(-400.68 -488.2)"/><path class="cls-60" d="M435.21,537.46c-.57-.37-1.28-.66-.87-1.57a2.59,2.59,0,0,1,2.26.51,2.52,2.52,0,0,1,1.34,1.89C436.85,538.61,436.12,537.71,435.21,537.46Z" transform="translate(-400.68 -488.2)"/><path class="cls-75" d="M437.94,538.29,436.47,537a.53.53,0,0,1,.23-.62,2.15,2.15,0,0,1,2.08.18,1.89,1.89,0,0,1,.72.79c0,.78-.56.94-1.14,1.12A1.52,1.52,0,0,1,437.94,538.29Z" transform="translate(-400.68 -488.2)"/><path class="cls-76" d="M438.36,538.45l1.09-1c.33-.72.71-.43,1.1-.07a.44.44,0,0,1-.26.59C440,539.39,439.09,538.62,438.36,538.45Z" transform="translate(-400.68 -488.2)"/><path class="cls-77" d="M440.29,538l.21-.49a1.28,1.28,0,0,1,1.34-.3c.48.31,1.23.46.74,1.31a2.64,2.64,0,0,0-.4-.12Z" transform="translate(-400.68 -488.2)"/><path class="cls-78" d="M451.78,511.63a1.69,1.69,0,0,1,2.09,1.11,1,1,0,0,1-.9.35A1.46,1.46,0,0,1,451.78,511.63Z" transform="translate(-400.68 -488.2)"/><path class="cls-79" d="M451.78,511.63l1.47,1.31c0,.11-.05.21-.07.31a1,1,0,0,1-.89.2,2,2,0,0,1-1.05-.67,1,1,0,0,1-.15-.91l.23-.44Z" transform="translate(-400.68 -488.2)"/><path class="cls-21" d="M453.25,512.94l.62-.2c.45.27,1,.49,1.11,1.07l-.68.18c-.76.08-.93-.47-1.11-1Z" transform="translate(-400.68 -488.2)"/><path class="cls-80" d="M447.52,507.39l.43,1.24c-.11.46-.46.52-.85.52a5.11,5.11,0,0,1-1.73-.65,6.54,6.54,0,0,1-.93-.62c-.61-.73-1.72-1-1.9-2.16.28-.35-.13-1,.57-1.2l3.2,2.14Z" transform="translate(-400.68 -488.2)"/><path class="cls-81" d="M442.54,505.72a7.38,7.38,0,0,1,2.24,1.8c-.46,1.06-1.27.3-1.92.37l-.62-.09a3.16,3.16,0,0,1-.9-.24.87.87,0,0,1-.37-.49c-.07-.52-.14-1.05.42-1.39a1.15,1.15,0,0,0,.11-.31Z" transform="translate(-400.68 -488.2)"/><path class="cls-82" d="M414.69,526.16l2.6,1.35c-.61.74-1.4.27-2,.57l-3-1.45c-.51-1.46-2.42-1.23-3.06-2.53.06-.65.53-.83,1.06-.93a4,4,0,0,1,1.82.53,8.61,8.61,0,0,1,1.86,1.18A2.06,2.06,0,0,1,414.69,526.16Z" transform="translate(-400.68 -488.2)"/><path class="cls-83" d="M410.27,523.41l-1,.69-.69-.55c0-.6-.88-1.08-.25-1.77a1.48,1.48,0,0,1,1,.09,2,2,0,0,1,.78.59A1,1,0,0,1,410.27,523.41Z" transform="translate(-400.68 -488.2)"/><path class="cls-84" d="M408.38,521.9c-.19.59,1.34.93.23,1.65l-.89-.4.23-1.47h.28Z" transform="translate(-400.68 -488.2)"/><path class="cls-85" d="M454,518.69c.58-.75.57-2,1.73-2.26.18.88-.89,1.4-.66,2.3l.18.63-.43-.21a.64.64,0,0,1-.54,0A.68.68,0,0,1,454,518.69Z" transform="translate(-400.68 -488.2)"/><path class="cls-86" d="M455.05,518.73c-.41-1,.39-1.55.66-2.31L457,517A2.44,2.44,0,0,0,455.05,518.73Z" transform="translate(-400.68 -488.2)"/><path class="cls-87" d="M402.84,518c1.07.2,2.75-.15,1.72,1.93a2.12,2.12,0,0,0-1.81-1.49A3.43,3.43,0,0,0,402.84,518Z" transform="translate(-400.68 -488.2)"/><path class="cls-88" d="M453.69,521.2c-2.64,5.12-5.21,10.27-8,15.33-.66,1.2-.28,1.47.67,1.79l-.61.38c-.42-.4-.95-.28-1.45-.32a1.26,1.26,0,0,1-1.42-.88,1.66,1.66,0,0,1,.08-.94c2.57-5.33,5-10.72,8.31-15.69C452.19,520.28,453,520.16,453.69,521.2Z" transform="translate(-400.68 -488.2)"/><path class="cls-89" d="M443.05,537.71l1.28.67-.63.23-1.12-.13c0-.63-.59-.75-1-1C442.21,536.61,442.64,537.11,443.05,537.71Z" transform="translate(-400.68 -488.2)"/><path class="cls-90" d="M449.2,510.35l.21.64c.19.67.89.9,1.24,1.42a.62.62,0,0,1,0,.62,2.39,2.39,0,0,1-2.22,0c-.83-.51-1.29-1.42-2.09-2a4.91,4.91,0,0,1-.48-.43c-.37-.4-.81-.73-1.16-1.15a.94.94,0,0,1-.14-.65,1.06,1.06,0,0,1,1.29-.17c.43.19.84.42,1.27.61C447.86,509.47,448.74,509.5,449.2,510.35Z" transform="translate(-400.68 -488.2)"/><path class="cls-91" d="M449.2,510.35l-2.34-.68a.65.65,0,0,1,.44-.84l.65-.2,1.47,1.3c.15.16.29.33.44.5Z" transform="translate(-400.68 -488.2)"/><path class="cls-92" d="M450.75,512.67c-.81-.27-1.44-.69-1.34-1.68l1.68.88.26.62A.82.82,0,0,1,450.75,512.67Z" transform="translate(-400.68 -488.2)"/><path class="cls-93" d="M454,518.69l.43.3a1.41,1.41,0,0,1,.12.5,1.22,1.22,0,0,1-.16.37c-.26.3-.51.18-.77,0l-.17-.24a1.08,1.08,0,0,1,.06-.59.69.69,0,0,1,.48-.3Z" transform="translate(-400.68 -488.2)"/><path class="cls-94" d="M453.46,519.7l.91.16c-.07.2-.13.4-.2.6l0,0c-.35,0-.74.35-1-.07S453.2,519.88,453.46,519.7Z" transform="translate(-400.68 -488.2)"/><path class="cls-74" d="M454.53,519.49l-.12-.5a2.14,2.14,0,0,1,.39.16A.65.65,0,0,1,454.53,519.49Z" transform="translate(-400.68 -488.2)"/><path class="cls-95" d="M454,518.74c-.07.12-.13.23-.19.36a.76.76,0,0,1-1-.56,4,4,0,0,1,2.08-3.62l.46.2C454.9,516.34,453.66,517.25,454,518.74Z" transform="translate(-400.68 -488.2)"/><path class="cls-96" d="M405.42,520.35c.25-.72,1-.53,1.49-.83a1.08,1.08,0,0,1,.68.1,4.87,4.87,0,0,1,1.09.82c.3.31.76.66.36,1.14-.27.33-.71,0-1.07,0l0,.06c-.55-.73-1-1.57-2.19-1.14Z" transform="translate(-400.68 -488.2)"/><path class="cls-97" d="M443.25,492.81a2,2,0,0,1-.2.42.24.24,0,0,1-.36-.17l.12-.5Z" transform="translate(-400.68 -488.2)"/><path class="cls-98" d="M421.33,495.92l1.68.83.42.23c1.32.58,2.82.68,4,1.56l.05,0c.79,3.62-2.35,7.69-5.54,7.2a3.38,3.38,0,0,1-1.76-.85c-.65-1.11-2.3-1.45-2.34-3,.64-2.1,1.39-4.12,3.23-5.52C421.17,496.17,421.24,496,421.33,495.92Z" transform="translate(-400.68 -488.2)"/><path class="cls-65" d="M442.69,493.06l.36.17a1,1,0,0,1-.19.39C442.6,493.49,442.52,493.31,442.69,493.06Z" transform="translate(-400.68 -488.2)"/><path class="cls-99" d="M413.23,494.91a1,1,0,0,1,1.07,0c-.2,1-1.14,1.71-.94,2.82a1,1,0,0,1-1.18-.7l-.24-.7a2.6,2.6,0,0,0-.35-.63.82.82,0,0,1-.3-.07C411.75,495,412.62,495.27,413.23,494.91Z" transform="translate(-400.68 -488.2)"/><path class="cls-100" d="M454.85,514.92c-.64,1.26-1.29,2.52-1.94,3.77-.18.71-.7.59-1.06.3-.88-.7-.19-1.4.09-2.09.47-.51,1.06-1,1-1.77a1.21,1.21,0,0,1,.31-.52,1.27,1.27,0,0,1,1.18.07Z" transform="translate(-400.68 -488.2)"/><path class="cls-101" d="M454.45,514.68a1,1,0,0,1-1.1,0,.73.73,0,0,1-.81-.14,1.3,1.3,0,0,1-.29-.51.82.82,0,0,1,.25-.81l.69-.21,1.11,1Z" transform="translate(-400.68 -488.2)"/><path class="cls-102" d="M421.87,505.22c2,.59,3.14-.3,3.81-2.19.54-1.53,1.76-2.78,1.82-4.51h1c.67.51,1.79.2,2.18,1.21q-2.06,4-4.09,7.92a1.81,1.81,0,0,1-1.59-.06c-1.07-.57-2.29-.92-3-2Z" transform="translate(-400.68 -488.2)"/><path class="cls-86" d="M432.52,502.23a1.55,1.55,0,0,1,.19,1.73c-.11,2.35-.9,4.3-3.15,5.41a1.2,1.2,0,0,1-1.37-.88c.89-1.72,1.84-3.42,2.65-5.17C431.2,502.52,431.64,502.11,432.52,502.23Z" transform="translate(-400.68 -488.2)"/><path class="cls-98" d="M428.19,508.49l1.32.68c0,.11,0,.22-.05.33a.78.78,0,0,1-.55.3,3.11,3.11,0,0,1-1.23-.35c-.64-.34-1.36-.53-2-.85a2,2,0,0,1-.77-1,.59.59,0,0,1,.18-.57l1.51.62Z" transform="translate(-400.68 -488.2)"/><path class="cls-98" d="M430.68,499.74c-.52-.78-1.87-.06-2.18-1.21a.82.82,0,0,1,.26-.23l2.89,1.37C431.35,500,431,499.89,430.68,499.74Z" transform="translate(-400.68 -488.2)"/><path class="cls-103" d="M438.46,504.28l.45.26c.42.67,1.74.86,1.12,2.09a.87.87,0,0,1-1.22,0l-.8-.47a.38.38,0,0,1-.48-.25v0Z" transform="translate(-400.68 -488.2)"/><path class="cls-104" d="M435.37,508l1.29-.36.45.18.24.14a2.08,2.08,0,0,1,.41.37l.17.24.12.26a2.79,2.79,0,0,1,.14.57,4.28,4.28,0,0,1,0,.62,1.6,1.6,0,0,1-.53,1.16,1.18,1.18,0,0,1-1,0C435.72,510.35,434.23,509.7,435.37,508Z" transform="translate(-400.68 -488.2)"/><path class="cls-105" d="M438.81,506.63H440a.88.88,0,0,1,1.17.64h0c.26.56.8,1.08.29,1.76a3.35,3.35,0,0,1-1.88-.19,2.06,2.06,0,0,1-.59-.25,1,1,0,0,1-.35-.52Z" transform="translate(-400.68 -488.2)"/><path class="cls-106" d="M437.7,508.68l-.15-.08-.16-.08a5.38,5.38,0,0,1-.28-.7v0c.34-.31.68-.14,1,0A.59.59,0,0,1,437.7,508.68Z" transform="translate(-400.68 -488.2)"/><path class="cls-107" d="M437.7,508.68l.42-.83.47.21.42.23c0,.38-.2.56-.5.71l-.31.07a.56.56,0,0,1-.47-.38Z" transform="translate(-400.68 -488.2)"/><path class="cls-108" d="M437.53,505.91l.48.25C437.69,506.39,437.5,506.38,437.53,505.91Z" transform="translate(-400.68 -488.2)"/><path class="cls-109" d="M435.37,508c-.31,1.47.88,2.14,1.62,3-.3.85-1,.92-1.77,1a5.65,5.65,0,0,1-2.1-.76,3.44,3.44,0,0,1-1.46-1.24c-.35-1.78.61-3,1.86-4a.43.43,0,0,1,.62.26h0a7.31,7.31,0,0,0,.64.93c.09.16.17.33.25.5A3.44,3.44,0,0,0,435.37,508Z" transform="translate(-400.68 -488.2)"/><path class="cls-110" d="M434.6,507.53a1.33,1.33,0,0,1-.48-1.22l.87.42a1.06,1.06,0,0,1,0,.5A.49.49,0,0,1,434.6,507.53Z" transform="translate(-400.68 -488.2)"/><path class="cls-111" d="M434.6,507.53c0-.12.11-.24.17-.36a.29.29,0,0,1,.42.2l-.18.37-.22-.07Z" transform="translate(-400.68 -488.2)"/><path class="cls-112" d="M434.14,506.3a2.59,2.59,0,0,1-.39-.25c-.05-.14,0-.24,0-.31s.13-.09.16-.08h0l.43.21Z" transform="translate(-400.68 -488.2)"/><path class="cls-108" d="M435.19,507.37l-.42-.2c.07-.15.14-.29.22-.44Z" transform="translate(-400.68 -488.2)"/><path class="cls-113" d="M434,505.66c-.07.13-.14.26-.2.39-.67,1.28-1.34,2.55-2,3.83a1.12,1.12,0,0,1-1,.41,1.67,1.67,0,0,1-1.39-1.06l.12-.06c1.65-1.38,2.05-3.52,3.2-5.21l.4.2Z" transform="translate(-400.68 -488.2)"/><path class="cls-114" d="M453.46,519.7c-.36.83.4.62.74.8l-.51.7-1.89-.37a.45.45,0,0,1-.53-.35,1.27,1.27,0,0,1,.61-1.22c.57,0,1.17-.15,1.68.27Z" transform="translate(-400.68 -488.2)"/><path class="cls-115" d="M441.12,507.26l-1.17-.64c.2-1-1-1.25-1-2.08l2.48,1.14Z" transform="translate(-400.68 -488.2)"/><path class="cls-18" d="M430.54,533.93c-.06.11-.12.23-.19.34-1.12-.58-2.25-1.15-3.38-1.72a.88.88,0,0,0,.18-.29,1.76,1.76,0,0,1,1.61,0C429.49,532.69,430.31,533,430.54,533.93Z" transform="translate(-400.68 -488.2)"/><path class="cls-116" d="M428.45,532.74l-1.3-.48c-2.19-1.19-4.38-2.39-6.58-3.56-.75-.4-1.53-.75-2.29-1.12l-1.17-.7a1.93,1.93,0,0,1-.49-2.73c2.17-4.39,4.41-8.74,6.77-13,.94-1.7,2.2-2.09,3.92-1.08,1.22.72,2.54,1.27,3.79,1.94,1.44.78,2.89,1.53,4.35,2.28,6.37,3.34,5.33,2.35,2.5,8-1.63,3.26-3.36,6.46-5,9.71a4.45,4.45,0,0,1-1.33,1.93h0C430.4,534,429.62,532.81,428.45,532.74Z" transform="translate(-400.68 -488.2)"/><path class="cls-117" d="M430.87,512.59a37.37,37.37,0,0,1-4-2c-1.47-1-2.24-.37-2.9.9-2.28,4.4-4.54,8.81-6.86,13.19a2.14,2.14,0,0,0,0,2.21c-.86-.06-1.44-1.06-2.42-.72-.36-.11-.67-.28-.67-.72-1.59-1-1.42-2.09-.56-3.62,2.69-4.8,5-9.79,7.7-14.6a1.9,1.9,0,0,1,1.66,0c1.36.53,2.47,1.55,3.88,2,1,.5,1.87,1.32,3.12.9a3.35,3.35,0,0,1,2.17,1.31C432.13,512.3,431.65,512.59,430.87,512.59Z" transform="translate(-400.68 -488.2)"/><path class="cls-118" d="M431.61,533.92a5.79,5.79,0,0,1,1.08-3.09c2.15-4.15,4.25-8.33,6.51-12.42.57-1,.3-1.31-.53-1.73-1.21-.6-2.38-1.28-3.56-1.92a.48.48,0,0,1,.37-.49,6.89,6.89,0,0,1,2.35.59,16.29,16.29,0,0,1,2.32,1.26c4,2.23,4.05,2.36,1.9,6.52-1.81,3.5-3.59,7-5.45,10.48-.6,1.1-1.17,2.34-2.84,1.85Z" transform="translate(-400.68 -488.2)"/><path class="cls-119" d="M433.76,535c1.1-.11,1.55-.89,2-1.77,2.08-4.09,4.1-8.21,6.36-12.2,1.09-1.92.87-3-1.2-3.72-.63-.22-1.38-.46-1.59-1.28a1.33,1.33,0,0,1,.92-.12,14.71,14.71,0,0,0,1.88.11,1.61,1.61,0,0,1,1.06.74c.41,1.14,2,1.29,2.2,2.65a7.83,7.83,0,0,1-1.21,3.32q-2.88,5.59-5.8,11.17a5,5,0,0,1-1.85,2.4c-1,.29-1.66-.41-2.36-.94Z" transform="translate(-400.68 -488.2)"/><path class="cls-118" d="M428.45,532.74c1.24-.12,2.16.64,3.16,1.18h-1.07Z" transform="translate(-400.68 -488.2)"/><path class="cls-120" d="M434.17,535.33l2.08.93a.34.34,0,0,1,.39.39l-.17.33-2.13-1.09C434.28,535.7,434.22,535.52,434.17,535.33Z" transform="translate(-400.68 -488.2)"/><path class="cls-121" d="M412.18,497.08l1.18.7.91,1.39a.47.47,0,0,1-.06.42c-.09.11-.15.16-.18.14a1.42,1.42,0,0,1-.68,0,2.32,2.32,0,0,1-1.26-1.57A.79.79,0,0,1,412.18,497.08Z" transform="translate(-400.68 -488.2)"/><path class="cls-122" d="M412.09,498.12l1.43,1.32a1.36,1.36,0,0,1-.16.86.73.73,0,0,1-.42.37c-.8-.36-.81-1.25-1.24-1.86Z" transform="translate(-400.68 -488.2)"/><path class="cls-70" d="M411.59,495.75l.35.63-.46-.32A1.15,1.15,0,0,0,411.59,495.75Z" transform="translate(-400.68 -488.2)"/><path class="cls-123" d="M407.34,519.74l-.43-.22a1,1,0,0,1-.31-1.44q3.91-7.47,7.83-14.92c.09-.17.4-.23.61-.34a1.55,1.55,0,0,1,.89-.38,2.21,2.21,0,0,1,1.22.58,10.68,10.68,0,0,1,1,1c.22.32.42.65,0,1-2.51-.55-3.61.89-4.55,2.94-1.55,3.36-3.45,6.54-5,9.92A3.8,3.8,0,0,1,407.34,519.74Z" transform="translate(-400.68 -488.2)"/><path class="cls-124" d="M415.7,502.61l-.66.21a1.42,1.42,0,0,0-.45-1.26.43.43,0,0,1-.51-.28,1,1,0,0,1,.43-.86c.81-.2,1.2.35,1.59.89a1.47,1.47,0,0,1,.17.61A.77.77,0,0,1,415.7,502.61Z" transform="translate(-400.68 -488.2)"/><path class="cls-125" d="M414.22,501.32l.37.24a1.14,1.14,0,0,1-1.65-.89l.22-.42C413.9,500.23,414,500.81,414.22,501.32Z" transform="translate(-400.68 -488.2)"/><path class="cls-126" d="M419,495.22l1.67.89a44.27,44.27,0,0,1-3.13,5.64.9.9,0,0,1-1.11-.08c-.3-.77-1.67-.82-1.35-2,1.38-.64,1.58-2.1,2.15-3.26s-.61-1.2-1.25-1.55l.68-.29,1.49.24C418.2,495.36,418.49,495.5,419,495.22Z" transform="translate(-400.68 -488.2)"/><path class="cls-13" d="M415.07,499.65c0,.86,1.23.85,1.28,1.7a.31.31,0,0,1-.06.35c-.08.08-.15.11-.19.09l-1.49-1.28c-.6,0-1-.17-.61-.88l.27-.46Z" transform="translate(-400.68 -488.2)"/><path class="cls-127" d="M417.19,501.75c1.22-1.84,1.65-4.17,3.47-5.64l.43.19L418,502.2l-.27.09A.63.63,0,0,1,417.19,501.75Z" transform="translate(-400.68 -488.2)"/><path class="cls-128" d="M451.39,520.6a3.3,3.3,0,0,1,.41.23q-4.38,8.43-8.75,16.88c-.47-.22-.92-.56-1.47-.23H440.5a1,1,0,0,0-1.05,0l-.85-.5a2.38,2.38,0,0,1,.11-2.67c2.27-4.59,4.71-9.1,7-13.67a1.94,1.94,0,0,1,1.37-1.19,6.32,6.32,0,0,1,2.32.31A4.51,4.51,0,0,1,451.39,520.6Z" transform="translate(-400.68 -488.2)"/><path class="cls-129" d="M447.57,519.69c-.34.18-.84.27-1,.55q-3.87,7.53-7.65,15.11a6.81,6.81,0,0,0-.34,1.59,3.32,3.32,0,0,0-2-.29l-.39-.39q4.1-7.86,8.2-15.72c.28-.54.69-1.08.37-1.76a.46.46,0,0,1,.38-.53,2.63,2.63,0,0,1,1.75.54A1.47,1.47,0,0,1,447.57,519.69Z" transform="translate(-400.68 -488.2)"/><path class="cls-52" d="M452.5,513.18l.06,1c-1.21.24-1.83-.29-1.92-1.5l.11,0,.6-.18Z" transform="translate(-400.68 -488.2)"/><path class="cls-130" d="M445.61,509a1,1,0,0,0-1,0c-1.13.16-1.58-.53-1.85-1.47.69-.55,1.37.57,2.06,0l.84.43C445.72,508.31,446.11,508.66,445.61,509Z" transform="translate(-400.68 -488.2)"/><path class="cls-79" d="M445.61,509V508l1.68.88-.44.84Z" transform="translate(-400.68 -488.2)"/><path class="cls-48" d="M442.72,507.5l1.85,1.47.35.26c-1.13,1.15-1.87.08-2.7-.48a1.07,1.07,0,0,1,0-1.47Z" transform="translate(-400.68 -488.2)"/><path class="cls-131" d="M442.21,507.28v1.05a.68.68,0,0,1-.09.62c-.29.23-.57.33-.82-.06,0-.55-.61-1-.18-1.63Z" transform="translate(-400.68 -488.2)"/><path class="cls-132" d="M421.34,507.24c.12,1.37-.74,2.39-1.3,3.5-2,3.87-3.9,7.77-6,11.55-.69,1.22-.89,2.1,0,3.15l-1.94-1.17c-.26-.45-1.07-.6-.75-1.36,2.67-4.9,5.16-9.9,7.76-14.84.36-.68.43-1.83,1.72-1.48A1,1,0,0,1,421.34,507.24Z" transform="translate(-400.68 -488.2)"/><path class="cls-84" d="M411.35,523.41l.73.86-1.81-.86-.23-.61A1,1,0,0,1,411.35,523.41Z" transform="translate(-400.68 -488.2)"/><path class="cls-128" d="M407.34,519.74c.5-2.39,1.81-4.44,2.89-6.58,1.24-2.45,2.63-4.83,3.75-7.33.81-1.79,1.69-2.55,3.49-1.25.21.15.6.05.9.06a1,1,0,0,1,1.1.19,1.47,1.47,0,0,1,.35,1.15,7.13,7.13,0,0,1-.94,2.9c-2.08,4-4.21,7.94-6.18,12-.79,1.61-1.63,2.44-3.4,1.42l-.92-.38-.41-.28c.1-.29,1.41,0,.4-.79C408,520.51,407.4,520.37,407.34,519.74Z" transform="translate(-400.68 -488.2)"/><path class="cls-123" d="M409.3,522.28c1.52.35,2.33-.25,3-1.68,2-4.06,4.08-8,6.2-12a13,13,0,0,0,1-2.94c.93-.06,1.66.11,1.47,1.31-.81-.34-.81.29-1.06.79-2.35,4.63-4.75,9.24-7.12,13.86a4.46,4.46,0,0,1-1.47,1.8L410,522.8Z" transform="translate(-400.68 -488.2)"/><path class="cls-133" d="M450.64,512.71a3.34,3.34,0,0,0,1.92,1.5l-.05,0c.16,1.1-.93,1.31-1.39,2a3.1,3.1,0,0,1-1.28.2A3.65,3.65,0,0,1,448,516a1.44,1.44,0,0,1-.4-.45c-.11-.71.55-1.27.36-2a1.66,1.66,0,0,1,.11-.58.73.73,0,0,1,.48-.33Z" transform="translate(-400.68 -488.2)"/><path class="cls-134" d="M448.29,513.14c-.07.12-.13.25-.2.38l-.26.23c-1.2.39-2.27-.15-3.38-.46-.51-.28-1-.59-1.05-1.24a2.81,2.81,0,0,0,.47-2c.81-.54,1.46,0,2.15.29l.42.22C446.91,511.51,447.84,512.15,448.29,513.14Z" transform="translate(-400.68 -488.2)"/><path class="cls-14" d="M446,510.31c-.71.5-1.38-.53-2.09-.07a.89.89,0,0,1-1.15.19,2.77,2.77,0,0,1-.8-1.68l.23-.42c.9.29,1.59,1.25,2.71.9C445.41,509.46,445.94,509.66,446,510.31Z" transform="translate(-400.68 -488.2)"/><path class="cls-135" d="M448.29,513.14a3.14,3.14,0,0,1-1.85-2.61c1,.41,1.46,1.37,2.09,2.15Z" transform="translate(-400.68 -488.2)"/><path class="cls-136" d="M453.56,519.53l-1.5-.11c-.51.11-1,.41-1.53.26a2.19,2.19,0,0,1-1.42-.57.64.64,0,0,1-.06-.57c.81-.31-.24-.61,0-.91.35-.56,1.09-.41,1.51-.85a4.34,4.34,0,0,1,.76-.5.88.88,0,0,1,.6,0,.8.8,0,0,1,.34.5c.87.41-1.83,2,.65,1.89l.87.41Z" transform="translate(-400.68 -488.2)"/><path class="cls-137" d="M421,507c-.13-.84-.9-1-1.47-1.31l-.27-.63c0-.65.17-1,.89-.64l1.72.84-.08.09c.87,1.05,2.4,1.08,3.26,2.14a.93.93,0,0,1,.65.81c-1.24,1.23-1.94-.68-3-.51l-1.36-.51A1.54,1.54,0,0,0,421,507Z" transform="translate(-400.68 -488.2)"/><path class="cls-138" d="M420.15,504.38a1,1,0,0,0-.89.64l-.89-.38-.75-.55c-.18-.68-.54-1.41.41-1.84v-.05C418.38,503.27,420.34,502.79,420.15,504.38Z" transform="translate(-400.68 -488.2)"/><path class="cls-14" d="M451.8,516.54a2.48,2.48,0,0,0-.26-.19c-.29.12-.45,0-.5-.27-.19-1.16,1.25-1,1.47-1.82l.84.38-.18.45C453.3,516.13,452.72,516.5,451.8,516.54Z" transform="translate(-400.68 -488.2)"/><path class="cls-139" d="M451.8,516.54c.56-.38,1.17-.73,1.37-1.45.79,1.16.34,1.65-.91,1.71Z" transform="translate(-400.68 -488.2)"/><path class="cls-140" d="M425.05,507.45c-1.08-.71-2.56-.83-3.26-2.14l3.29,1.73A2.93,2.93,0,0,1,425.05,507.45Z" transform="translate(-400.68 -488.2)"/><path class="cls-121" d="M429.39,509.23l1.77.81a6,6,0,0,1,1.95.82c1.13.54,2.18,1.24,3.35,1.69.46.47,1.34.4,1.53,1.21a1.23,1.23,0,0,1-.31.65,1,1,0,0,1-.71.2,18.22,18.22,0,0,1-4.27-2,2,2,0,0,1-.49-.63c-.49-1.42-2.33-1.12-3-2.33C429.28,509.48,429.34,509.36,429.39,509.23Z" transform="translate(-400.68 -488.2)"/><path class="cls-141" d="M422.7,507.75c1.09-.39,1.86,1.16,3,.51a3.73,3.73,0,0,1,2.23.72.49.49,0,0,1-.06.53,1.44,1.44,0,0,1-1,.41Z" transform="translate(-400.68 -488.2)"/><path class="cls-49" d="M427.72,509.39l.21-.41,1.29.63c1,.78,2.43.9,3.15,2.1a.25.25,0,0,1-.43-.07l-2.5-1.31A1.4,1.4,0,0,1,427.72,509.39Z" transform="translate(-400.68 -488.2)"/><path class="cls-142" d="M437.85,513.69c-.27-.53-1.16.09-1.29-.7-.12-.57-1-.47-1-1.14.25-.67.95-.53,1.43-.79l.64,0c.11-.24.27-.29.48-.14a5.74,5.74,0,0,0,.9,2.65.71.71,0,0,1-.29.58A.83.83,0,0,1,437.85,513.69Z" transform="translate(-400.68 -488.2)"/><path class="cls-143" d="M438.06,511.19l-.2-.11-.23-.07c0-.42.05-.85.08-1.28.42-.05.71-.37,1.08-.51a1.3,1.3,0,0,1,.62,0,1.24,1.24,0,0,1,.75,1.31,1.56,1.56,0,0,1-1.57,1A1,1,0,0,1,438.06,511.19Z" transform="translate(-400.68 -488.2)"/><path class="cls-144" d="M439,509.36a.83.83,0,0,1-1.26.37c.08-.13.15-.27.22-.4a.27.27,0,0,1,0-.33c.08-.07.14-.1.18-.08v0A.62.62,0,0,1,439,509.36Z" transform="translate(-400.68 -488.2)"/><path class="cls-107" d="M437.11,507.82l.28.7C437.3,508.29,437.2,508.06,437.11,507.82Z" transform="translate(-400.68 -488.2)"/><path class="cls-145" d="M438.15,508.92l-.22.41c-.07-.21-.14-.42-.2-.64Z" transform="translate(-400.68 -488.2)"/><path class="cls-29" d="M442,508.75a1.5,1.5,0,0,1,.87,1.47c-1,.87-1.64,0-2.36-.48a4.42,4.42,0,0,1-1-.91l-.09-.32c.74-.46,1.25.21,1.87.38Z" transform="translate(-400.68 -488.2)"/><path class="cls-143" d="M439,509.36l-.81-.46.85-.61.42.22,0,0a.69.69,0,0,1-.45.85Z" transform="translate(-400.68 -488.2)"/><path class="cls-146" d="M435.56,511.85c.47.27,1,.45,1,1.14-1.42-.06-2.09-1.46-3.31-1.87-.09-.15-.1-.25,0-.31s.15-.07.2-.05Z" transform="translate(-400.68 -488.2)"/><path class="cls-147" d="M433.44,510.76c-.06.12-.12.24-.19.36L431.16,510l.59-.16Z" transform="translate(-400.68 -488.2)"/><path class="cls-148" d="M450.56,519.15l1.5.27-.67,1.18c-.76.37-1.29-.21-1.91-.46C449.54,519.48,450.11,519.38,450.56,519.15Z" transform="translate(-400.68 -488.2)"/><path class="cls-149" d="M431.94,511.64a2,2,0,0,0,.43.07l.42.38a3.45,3.45,0,0,0,1.69,1.37c.39.22.75.45.82.95a3.9,3.9,0,0,1-.19.35l-4.24-2.17Z" transform="translate(-400.68 -488.2)"/><path class="cls-150" d="M427.72,509.39l1.72.94c-1.14,1.61-1.72-.31-2.59-.41Z" transform="translate(-400.68 -488.2)"/><path class="cls-151" d="M434.05,513.73c-.72-.31-1.33-.72-1.26-1.64l4.58,2.24c1.24.26,2.86,0,2.79,2l-.83-.37a1.76,1.76,0,0,1-1.69-.9C436.29,515.06,435.41,513.75,434.05,513.73Z" transform="translate(-400.68 -488.2)"/><path class="cls-108" d="M434.05,513.73c1.47-.26,2.39.94,3.59,1.37-.95.36-1.57-.43-2.34-.69Z" transform="translate(-400.68 -488.2)"/><path class="cls-94" d="M440.16,516.37c-.47-1.3-2-1.23-2.79-2a.75.75,0,0,0,.3-.36,15.65,15.65,0,0,1,2.34.57,6.68,6.68,0,0,1,1.25.55,1.34,1.34,0,0,1,.56,1.19A1.43,1.43,0,0,1,440.16,516.37Z" transform="translate(-400.68 -488.2)"/><path class="cls-152" d="M445,518.4l-.22.38c-.52-.69-2.43-.09-1.75-1.89l.29-.12a1.56,1.56,0,0,1,.59.18A2.38,2.38,0,0,1,445,518.4Z" transform="translate(-400.68 -488.2)"/><path class="cls-152" d="M441.82,516.28c-.33-.26-.68-.5-.68-1a.78.78,0,0,1,.23-.75.77.77,0,0,1,.51-.15,1.2,1.2,0,0,1,.45.32c.15.22.29.46.45.69.2.46.92.77.4,1.43l-.11,0Z" transform="translate(-400.68 -488.2)"/><path class="cls-45" d="M414,499.63c.21.29.41.58.61.88l-.39.81-1.06-1.07c-.33-.47.2-.56.36-.81Z" transform="translate(-400.68 -488.2)"/><path class="cls-69" d="M418,502.25c-.14.61-.27,1.23-.41,1.84-.38-.13-.68-.34-.7-.78s-.69-.94-.82-1.53h0l.25-.44.84.4Z" transform="translate(-400.68 -488.2)"/><path class="cls-153" d="M416.1,501.78a1.35,1.35,0,0,1,.82,1.53l-1.22-.7C415.84,502.33,416,502.06,416.1,501.78Z" transform="translate(-400.68 -488.2)"/><path class="cls-154" d="M450.56,519.15l-1.08,1c-.76.39-1.3-.21-1.91-.45l-.87-.47c.68-1,1.54-.55,2.38-.32Z" transform="translate(-400.68 -488.2)"/><path class="cls-14" d="M449.08,518.9c-.72.69-1.61,0-2.38.32L445,518.4a2.75,2.75,0,0,1-1.39-1.34c0-.58.44-.74.91-.83a7.36,7.36,0,0,1,2.3.59c.86.46,1.95.58,2.43,1.62Z" transform="translate(-400.68 -488.2)"/><path class="cls-155" d="M448.09,513.52c1.22,1,.17,1.37-.45,1.89a1.84,1.84,0,0,1-1.39.27,5.87,5.87,0,0,1-1.71-.63c-.62-.39-1.34-.71-1.34-1.61a.66.66,0,0,1,.58-.35c1.45,0,2.79,1.19,4.32.43Z" transform="translate(-400.68 -488.2)"/><path class="cls-156" d="M448.06,515.67l1.89.39a.75.75,0,0,1,.2,1,1.73,1.73,0,0,1-2-.39C447.9,516.34,447.74,516,448.06,515.67Z" transform="translate(-400.68 -488.2)"/><path class="cls-47" d="M448.06,515.67l.21.7c-.46.75-1,.39-1.55.14a1.44,1.44,0,0,1-.45-.56.45.45,0,0,1,.3-.56l1.07,0Z" transform="translate(-400.68 -488.2)"/><path class="cls-51" d="M450.21,516.84l-.26-.78,1.09,0,.5.27-.53.84A.6.6,0,0,1,450.21,516.84Z" transform="translate(-400.68 -488.2)"/><path class="cls-43" d="M440.68,509.17c.69.41,1.14,1.34,2.17,1.06h1.08c.66.65,1.39,1.31-.25,1.59a1.7,1.7,0,0,1-2-.06,3.66,3.66,0,0,1-1.15-1.32C440.36,510,440.24,509.55,440.68,509.17Z" transform="translate(-400.68 -488.2)"/><path class="cls-157" d="M448.1,513.52c-1.48,1.4-2.85,0-4.27-.14a.37.37,0,0,1,0-.31c.06-.1.09-.14.11-.13a6.34,6.34,0,0,1,.75-.07Z" transform="translate(-400.68 -488.2)"/><path class="cls-79" d="M444.69,512.87l-.68.18c-1.12-.09-2.42,0-2.26-1.73l1.93.5C443.71,512.47,444.28,512.59,444.69,512.87Z" transform="translate(-400.68 -488.2)"/><path class="cls-90" d="M450.21,516.84l.8.35c-.43,1-1.34.21-1.94.55a3.64,3.64,0,0,1-2.07-.69c-.31-.26-.51-.54-.24-.95.49.19.95.52,1.51.27C448.9,516.6,449.45,517.13,450.21,516.84Z" transform="translate(-400.68 -488.2)"/><path class="cls-158" d="M447,516.76l2.05,1c.07.23.91.23.22.7-.68-.77-2.08-.18-2.54-1.34-.07-.17,0-.28.06-.32A.23.23,0,0,1,447,516.76Z" transform="translate(-400.68 -488.2)"/><path class="cls-135" d="M440.16,515.3,437.67,514a.75.75,0,0,0,.18-.28l.88.25C439.59,514,440.47,514,440.16,515.3Z" transform="translate(-400.68 -488.2)"/><path class="cls-159" d="M438.06,511.19a.71.71,0,0,1,.43.05c.26,1,1.58,1.42,1.52,2.62-.45.36-.8.27-1.06-.23C437.76,513.15,437.13,512.45,438.06,511.19Z" transform="translate(-400.68 -488.2)"/><path class="cls-22" d="M439,513.63l.95.07c.9-.37,1.34.13,1.65.87l-.41.73h-1c0-1-1.07-.79-1.43-1.36Z" transform="translate(-400.68 -488.2)"/><path class="cls-160" d="M441.55,514.57c-.82.23-1-.77-1.65-.87-.33-.9-2.23-.9-1.41-2.46.68,0,1.06-.47,1.54-.82a.57.57,0,0,1,.67-.19l1.05,1.09c.33,1.13,1.51,1.15,2.26,1.73a1.74,1.74,0,0,1-.18.33l-.42-.12c-.66.23-1.52.2-1.64,1.19Z" transform="translate(-400.68 -488.2)"/><path class="cls-161" d="M440.7,510.23l-.67.19-1-1.08.45-.85,1.21.68C440.69,509.52,440.69,509.87,440.7,510.23Z" transform="translate(-400.68 -488.2)"/><path class="cls-131" d="M444.4,516.47l-.76.59-.46-.22-.89-1.45A1.56,1.56,0,0,1,444.4,516.47Z" transform="translate(-400.68 -488.2)"/><path class="cls-162" d="M444.4,516.47l-2.11-1.08c-.06-.23-.13-.45-.19-.67.82-1.13,1.54-.08,2.29.11s1.32.67,1.95,1l.42.23.26.66-.27.34A4,4,0,0,1,444.4,516.47Z" transform="translate(-400.68 -488.2)"/><path class="cls-141" d="M444.49,515.37c-.8-.22-1.42-1.07-2.39-.65l-.33-.27c-.07-.52-.91-1.08-.48-1.39s1.42-.06,2.12.2c.13.85.95.93,1.49,1.32A.62.62,0,0,1,444.49,515.37Z" transform="translate(-400.68 -488.2)"/><path class="cls-163" d="M444.49,515.37l.41-.79,1.67.81-.23.48C445.58,516.22,445.08,515.63,444.49,515.37Z" transform="translate(-400.68 -488.2)"/></svg>
