<svg id="skrald" xmlns="http://www.w3.org/2000/svg" viewBox="0 0 120 89.01"><defs><style>.cls-1{fill:#102812;}.cls-2{fill:#99c019;}.cls-3{fill:#4f705b;}.cls-4{fill:#a7c058;}.cls-5{fill:#51735c;}.cls-6{fill:#8bb11d;}.cls-7{fill:#9bc21b;}.cls-8{fill:#638b43;}.cls-9{fill:#041a05;}.cls-10{fill:#051b06;}.cls-11{fill:#243921;}.cls-12{fill:#698578;}.cls-13{fill:#839399;}.cls-14{fill:#667a75;}.cls-15{fill:#d9e3bf;}.cls-16{fill:#8ab823;}.cls-17{fill:#689177;}.cls-18{fill:#1e3d22;}.cls-19{fill:#18301b;}.cls-20{fill:#cbd8a2;}.cls-21{fill:#5d811a;}.cls-22{fill:#aec87b;}.cls-23{fill:#618324;}.cls-24{fill:#9dc22e;}.cls-25{fill:#051b07;}.cls-26{fill:#1e331d;}.cls-27{fill:#061f07;}.cls-28{fill:#729426;}.cls-29{fill:#031704;}.cls-30{fill:#162b15;}.cls-31{fill:#d8e2bd;}.cls-32{fill:#3c6419;}.cls-33{fill:#2c4027;}.cls-34{fill:#566d56;}.cls-35{fill:#2b3a1c;}.cls-36{fill:#4d6d20;}.cls-37{fill:#7a9e27;}.cls-38{fill:#99977d;}.cls-39{fill:#5d7669;}.cls-40{fill:#021503;}.cls-41{fill:#263f1c;}.cls-42{fill:#041804;}.cls-43{fill:#253a26;}.cls-44{fill:#356018;}.cls-45{fill:#284123;}.cls-46{fill:#9abe2e;}.cls-47{fill:#83a62f;}.cls-48{fill:#71922c;}.cls-49{fill:#5e8039;}.cls-50{fill:#6b8e53;}.cls-51{fill:#808c2d;}.cls-52{fill:#062009;}.cls-53{fill:#283e2b;}.cls-54{fill:#051a06;}.cls-55{fill:#354831;}.cls-56{fill:#9cc123;}.cls-57{fill:#325012;}.cls-58{fill:#81a623;}.cls-59{fill:#7d944d;}.cls-60{fill:#597a21;}.cls-61{fill:#55751f;}.cls-62{fill:#8aae2c;}.cls-63{fill:#9fc32c;}.cls-64{fill:#adc265;}.cls-65{fill:#8db21a;}.cls-66{fill:#869f5c;}.cls-67{fill:#adc562;}.cls-68{fill:#cfdab6;}.cls-69{fill:#d1dcb7;}.cls-70{fill:#c7d2b0;}.cls-71{fill:#c3ceaf;}.cls-72{fill:#456e52;}.cls-73{fill:#486553;}.cls-74{fill:#6b807d;}.cls-75{fill:#cad5b2;}.cls-76{fill:#4c6a5a;}.cls-77{fill:#0d250d;}.cls-78{fill:#546e63;}.cls-79{fill:#64866e;}.cls-80{fill:#0d240e;}.cls-81{fill:#041905;}.cls-82{fill:#537262;}.cls-83{fill:#627a73;}.cls-84{fill:#1d321c;}.cls-85{fill:#436b47;}.cls-86{fill:#5d756d;}.cls-87{fill:#d7e1bc;}.cls-88{fill:#49782b;}.cls-89{fill:#dde6c4;}.cls-90{fill:#264523;}.cls-91{fill:#a0b852;}.cls-92{fill:#102911;}.cls-93{fill:#909c7f;}.cls-94{fill:#bad069;}.cls-95{fill:#98be21;}.cls-96{fill:#789d20;}.cls-97{fill:#031604;}.cls-98{fill:#011202;}.cls-99{fill:#dbe5a4;}.cls-100{fill:#85a083;}.cls-101{fill:#d5e1d3;}.cls-102{fill:#cedacd;}.cls-103{fill:#526f61;}.cls-104{fill:#597369;}.cls-105{fill:#d0dcc3;}.cls-106{fill:#c1d2be;}.cls-107{fill:#6f8381;}.cls-108{fill:#d3ddb9;}.cls-109{fill:#365a11;}.cls-110{fill:#4a6c19;}.cls-111{fill:#b7bda1;}.cls-112{fill:#2e432a;}.cls-113{fill:#193217;}.cls-114{fill:#bdc4a5;}.cls-115{fill:#98a380;}.cls-116{fill:#364930;}.cls-117{fill:#6b795b;}.cls-118{fill:#536243;}.cls-119{fill:#021605;}.cls-120{fill:#bccb99;}.cls-121{fill:#263a21;}.cls-122{fill:#dae4c0;}.cls-123{fill:#6a9375;}.cls-124{fill:#6d8781;}.cls-125{fill:#e0e9b4;}.cls-126{fill:#99c01b;}.cls-127{fill:#627b75;}.cls-128{fill:#526e60;}.cls-129{fill:#b1c77b;}.cls-130{fill:#374e2d;}.cls-131{fill:#86a35f;}.cls-132{fill:#041b06;}.cls-133{fill:#2b4a28;}.cls-134{fill:#3f5b17;}.cls-135{fill:#566b3d;}.cls-136{fill:#5f8024;}.cls-137{fill:#8cb025;}.cls-138{fill:#96c261;}.cls-139{fill:#92bb48;}.cls-140{fill:#82a736;}.cls-141{fill:#99c357;}.cls-142{fill:#637c74;}.cls-143{fill:#638272;}.cls-144{fill:#4c7217;}.cls-145{fill:#6e8381;}.cls-146{fill:#759d1c;}.cls-147{fill:#dbe6cc;}.cls-148{fill:#70974b;}.cls-149{fill:#a0c515;}.cls-150{fill:#dce6cd;}.cls-151{fill:#7ba31d;}.cls-152{fill:#7fa31e;}.cls-153{fill:#b3ca62;}.cls-154{fill:#a6bd63;}.cls-155{fill:#cdd7b3;}.cls-156{fill:#43611b;}.cls-157{fill:#ecf0d2;}.cls-158{fill:#ebf0d1;}.cls-159{fill:#e9eecc;}.cls-160{fill:#416214;}.cls-161{fill:#143302;}.cls-162{fill:#d7e1ba;}.cls-163{fill:#dbe5ba;}.cls-164{fill:#3b5a13;}.cls-165{fill:#8aa254;}.cls-166{fill:#91a957;}.cls-167{fill:#9fb75b;}.cls-168{fill:#e6eecd;}.cls-169{fill:#a6c180;}.cls-170{fill:#d5deba;}.cls-171{fill:#647a75;}.cls-172{fill:#4e7016;}.cls-173{fill:#7c8d90;}.cls-174{fill:#3f533a;}.cls-175{fill:#436412;}.cls-176{fill:#92b072;}.cls-177{fill:#8db51c;}.cls-178{fill:#cbd59e;}.cls-179{fill:#8eb320;}.cls-180{fill:#9cc222;}.cls-181{fill:#9cc116;}.cls-182{fill:#789d1e;}.cls-183{fill:#5e8419;}.cls-184{fill:#283d24;}.cls-185{fill:#e1e7c6;}.cls-186{fill:#e4edda;}.cls-187{fill:#e0e7bd;}.cls-188{fill:#93a460;}.cls-189{fill:#edf2ce;}.cls-190{fill:#eff2d3;}.cls-191{fill:#071e08;}.cls-192{fill:#3f5041;}.cls-193{fill:#7c8e91;}.cls-194{fill:#5f831a;}.cls-195{fill:#2e4a1f;}.cls-196{fill:#c5cdaf;}.cls-197{fill:#ecf1d1;}.cls-198{fill:#9fb171;}.cls-199{fill:#a8c48c;}.cls-200{fill:#9fbf83;}.cls-201{fill:#dce6d0;}.cls-202{fill:#b2c2ab;}.cls-203{fill:#97bf1b;}.cls-204{fill:#9cc319;}.cls-205{fill:#dfe8c7;}.cls-206{fill:#b7ce61;}.cls-207{fill:#1a3e1c;}.cls-208{fill:#98be1b;}.cls-209{fill:#80a51e;}.cls-210{fill:#1c3f1e;}.cls-211{fill:#c2c9ae;}.cls-212{fill:#eaeec3;}.cls-213{fill:#ebf0ce;}.cls-214{fill:#1c3e1c;}.cls-215{fill:#d8dec3;}.cls-216{fill:#9dc320;}.cls-217{fill:#99c673;}.cls-218{fill:#95c26b;}.cls-219{fill:#dbe3c3;}.cls-220{fill:#d7e3ce;}.cls-221{fill:#91c07d;}.cls-222{fill:#6c9022;}.cls-223{fill:#98b058;}.cls-224{fill:#5a7d1a;}.cls-225{fill:#476816;}.cls-226{fill:#93ad4e;}.cls-227{fill:#c0cd9c;}.cls-228{fill:#82a331;}.cls-229{fill:#638d1f;}.cls-230{fill:#607450;}</style></defs><title>skrald_gronflaske</title><path class="cls-1" d="M520.44,669.19l-21.6,11.86C505.51,676.13,512.5,671.79,520.44,669.19Z" transform="translate(-452.47 -668.05)"/><path class="cls-2" d="M529.45,681.53c1.27.4,2.93.06,3.45,1.86-1.25,2.81-4,3.84-6.39,5.22-7.57,4.36-15.26,8.52-22.89,12.79,6.68-3.75,13.4-7.44,20.1-11.15,1.7-.94,3.43-1.82,5.35-.46a2.54,2.54,0,0,1,.5,1.21c.13,2-1.49,2.44-2.79,3.18-7.4,4.21-15,8-22.23,12.56a4.34,4.34,0,0,1-1.7,1.13,2.73,2.73,0,0,1-1.36.07,3.89,3.89,0,0,1-1.05-.89c-3.79-5.24-3.47-7.27,2.6-10.86q12-7.1,24.46-13.5A6.63,6.63,0,0,0,529.45,681.53Z" transform="translate(-452.47 -668.05)"/><path class="cls-3" d="M529.8,669.33c.17.58.75,1.17,0,1.74a20.71,20.71,0,0,1-3.06,3.67c-6.77,3.91-13.59,7.74-20.51,11.36-3.2.79-6.4,1.62-8.43,4.58a1.84,1.84,0,0,1,.22.92,3.82,3.82,0,0,1-.39.93,15.64,15.64,0,0,1-3.82,3.62,3.66,3.66,0,0,1-1,.27,6.1,6.1,0,0,1-2.51-.75,1.57,1.57,0,0,1-.45-.93,5.7,5.7,0,0,1,1.15-3c1.3-1.37,2-3.23,3.44-4.47a6.51,6.51,0,0,1,1.7-.92c8.78-6,18.35-10.56,27.56-15.77C525.49,669.59,527.5,668.54,529.8,669.33Z" transform="translate(-452.47 -668.05)"/><path class="cls-4" d="M531.16,691.48c2.16,1.42,4.57,1.53,7,1.35,1.47,1.08.57,2-.23,2.85a8.23,8.23,0,0,1-1.15.81c-5.72,3.23-11.47,6.38-17.2,9.57a35.66,35.66,0,0,1-4.84,2.39,12.32,12.32,0,0,0-4.21,1.72c-1.95.5-3.94,2.61-5.82-.14.8-2.65,3.14-3.7,5.31-4.66,6.58-2.92,12.59-6.88,17.76-9.49-3.49,1.92-8.15,4.58-12.89,7.1-1.09.58-2.33,2-3.63.18,4.85-4.29,10.94-6.49,16.39-9.76.76-.45,1.65-.68,2.18-1.47A1.55,1.55,0,0,1,531.16,691.48Z" transform="translate(-452.47 -668.05)"/><path class="cls-5" d="M542,693.23c2.31-1.35,4.67-2.53,7.45-2.37a1.21,1.21,0,0,1,.69,1.69c-11.63,6.7-23.47,13-35.16,19.62-1.2.68-2.66,1-3.33,2.42a8.66,8.66,0,0,1-.26,1.12c-1.32,1.28-3.05,1.25-4.7,1.49a3.47,3.47,0,0,1-1.58-.35c-2.41-1.47-4.46-.63-6.38,1a5.65,5.65,0,0,1-.82.64,2.51,2.51,0,0,1-1.51.36,1.15,1.15,0,0,1-.68-.7c.18-.54,1-1.49-.59-1a2.76,2.76,0,0,1-.25-2.61,5.63,5.63,0,0,1,3.26-2.2,3.49,3.49,0,0,1,1.16-.09c1.66.57,3.32,1.13,5.08.35,4.68-1,8.75-3.5,12.89-5.71C525.57,702.52,533.79,697.89,542,693.23Z" transform="translate(-452.47 -668.05)"/><path class="cls-6" d="M529.45,681.53a1.94,1.94,0,0,1-1.17,2.09c-7.53,4-15,8.09-22.48,12.16-1.67.91-3.12,2.21-4.7,3.18-3.17,1.94-2.56,3.88-.9,6.27.4.58,1.32.91,1,1.88a1.41,1.41,0,0,1-1.45.93c-2.78-1.25-3.92-3.52-4-6.45a4.85,4.85,0,0,1,1.49-2.55,6.48,6.48,0,0,1,.85-.81,7.92,7.92,0,0,1,.95-.69c1-.6,2-1.17,3-1.76a11.72,11.72,0,0,0,3.38-2.51,18.46,18.46,0,0,1,2.78-1.86c4.46-2.49,9-4.91,13.38-7.45a21.35,21.35,0,0,1,6.72-2.63Z" transform="translate(-452.47 -668.05)"/><path class="cls-7" d="M528.77,690.1A6.52,6.52,0,0,0,524,691c-6.64,3.86-13.65,7.07-20,11.44-.11.07-.22.2-.33.19-1.17-.06-2.29,2.31-3.21.63-.68-1.25,1.31-2.1,2.28-2.57a273.36,273.36,0,0,0,30.16-17.28.46.46,0,0,1,.35.51,11.43,11.43,0,0,1-2.91,5.82A1.79,1.79,0,0,1,528.77,690.1Z" transform="translate(-452.47 -668.05)"/><path class="cls-8" d="M542,693.23c-.32,1.68-1.89,2-3.06,2.62-9.36,5.24-18.77,10.38-28.11,15.65a16.53,16.53,0,0,1-7.56,2.4c-1.13-.35-2.27-.7-2.37-2.17a1.9,1.9,0,0,1,1.12-1.24,3.62,3.62,0,0,1,2.78-.06,8.7,8.7,0,0,0,5.52-1.27c1.45.16,2.31-1.42,3.75-1.29l4.67-2.54a113.81,113.81,0,0,0,18.17-10.07l.68-.37c1.57.16,1.79-1.17,2.35-2.12C540.76,692.29,541.34,692.9,542,693.23Z" transform="translate(-452.47 -668.05)"/><path class="cls-9" d="M495.71,687.44l-1.45.67c-1.12.75-1.4.15-1.41-.88,2-2.1,3.4-4.7,6-6.18a183.32,183.32,0,0,1,21.6-11.86c.68.47,1.31.11,1.94-.1a.87.87,0,0,1,.2,1.25c-5.35,4.33-11.77,6.84-17.58,10.39a24.18,24.18,0,0,0-4.82,3C498.3,684.49,497.78,686.89,495.71,687.44Z" transform="translate(-452.47 -668.05)"/><path class="cls-10" d="M570.55,713.54c4.63,2.79-.52,3.85-1,5.74a3.11,3.11,0,0,1-1.38,2,16.52,16.52,0,0,0-3.92,2.78,9.77,9.77,0,0,1-1.48,1.15c-2,.74-3.81,3.3-6.07.5a1.63,1.63,0,0,1,0-1.13c1.09-1.09,3-1.26,3.46-3.06a13.6,13.6,0,0,1,1.72-2.07,24.78,24.78,0,0,1,2.61-2c.43-.36.81-.77,1.24-1.13C567.45,715.61,568.44,713.58,570.55,713.54Z" transform="translate(-452.47 -668.05)"/><path class="cls-11" d="M533.33,750.85,529.14,754c-1.65.1-2.76,1.89-4.57,1.45-2.37-.11-4.55-1-6.79-1.66a2.74,2.74,0,0,1-1.83-1.93,1.94,1.94,0,0,1,1-1.83c1.64-.33,3.08.5,4.63.74a15.5,15.5,0,0,0,5.39-.16,9.56,9.56,0,0,0,3.72-2.37,5,5,0,0,1,2-1.61,2.7,2.7,0,0,1,1.87.85,2.07,2.07,0,0,1,.42.93C535,749.57,533.78,750,533.33,750.85Z" transform="translate(-452.47 -668.05)"/><path class="cls-12" d="M465.08,712.93l.82-1.2c2.4-1.54,4.15-3.89,6.66-5.29,1.12-.27,2.21-.67,3.32-1,1.79-.32,3.23-1.43,4.83-2.18a3.6,3.6,0,0,1,2.45-.38,1,1,0,0,1,.38,1.15c-.89,1.63-2.56,2.24-4,3.12a12.73,12.73,0,0,0-4.08,2.81c-2.7,2.73-6.07,4.61-9,7a4.1,4.1,0,0,1-2.51.58,1.84,1.84,0,0,1-1.1-2.61A12.1,12.1,0,0,1,465.08,712.93Z" transform="translate(-452.47 -668.05)"/><path class="cls-13" d="M504.06,680.11l18.69-10.33c.54-.58,1.52-.4,2-1.14l1-.08c.77.79.38,1.41-.37,1.8-8.05,4.26-15.68,9.29-24.06,12.93C500.77,681,503.6,681.57,504.06,680.11Z" transform="translate(-452.47 -668.05)"/><path class="cls-14" d="M500.94,682.72c1.45.46,2.43-.58,3.5-1.17q9.26-5.06,18.45-10.23c1.15-.65,2.78-.93,2.83-2.76a3.52,3.52,0,0,0,2.76-.28c.79-.39,1.79-.43,1.32,1.05a5.66,5.66,0,0,0-1.88.28c-10,5.59-20.42,10.41-29.82,17-.74.52-1.38,1.15-2.39.8l3.79-4.14A1.1,1.1,0,0,1,500.94,682.72Z" transform="translate(-452.47 -668.05)"/><path class="cls-15" d="M508.15,692.58l-2.61,1.84a2.44,2.44,0,0,1-1.12.48c-1.22,0-2.43,2.34-3.66,0,.7-1.88,2.52-2.42,4-3.32,6.34-3.77,13.11-6.8,19.16-11.08a2.23,2.23,0,0,1,2.08-.18,1.22,1.22,0,0,1,.28.54c0,1.8-1.57,2.12-2.72,2.81C518.49,686.74,513,689.14,508.15,692.58Z" transform="translate(-452.47 -668.05)"/><path class="cls-16" d="M491.79,736.09c.86-.79-1.41-2.66,1-2.91,4.07,5.43,6.73,11.67,10.07,17.52.53.93.19,1.73-.95,2-2.92-1.3-3.45-4.37-5-6.69a16.24,16.24,0,0,0-1.89-3.38c-.26-.21-.52-.44-.77-.67-.4-.5-1.06-.84-1.08-1.6C492.56,739,492.86,737.32,491.79,736.09Z" transform="translate(-452.47 -668.05)"/><path class="cls-17" d="M474.85,727.9l-3.65,1.15c-.91-.27-1.85-.52-1.92-1.73,3.82-1.87,6.93-5.48,11.79-4.9a1.79,1.79,0,0,1,.27,1c-.77,1.89-2.91,2-4.19,3.22C476.27,726.87,475.86,727.94,474.85,727.9Z" transform="translate(-452.47 -668.05)"/><path class="cls-18" d="M508.85,752.26c0,.22,0,.44,0,.65a25.37,25.37,0,0,1-8.92,4.15c-.84-.47-2.34.36-2.59-1.3a2.87,2.87,0,0,1,1.73-1.54c1.13-.36,2.26-.7,3.35-1.17,1.25-.68,2.28-1.79,3.79-2a2.09,2.09,0,0,1,1.18.2c.27,2.27-2.15,1.79-3,2.92-.42.29.54.64.12.35-.12-.08-.09-.21.12-.34C506,753.4,507.11,752.18,508.85,752.26Z" transform="translate(-452.47 -668.05)"/><path class="cls-19" d="M469.58,727.3l1.62,1.75-1.18.73c-.42.7-1,.51-1.53.22a5.88,5.88,0,0,1-1.53-1.84,8.12,8.12,0,0,1-.54-1.06,10.73,10.73,0,0,1-.57-1.65,32.2,32.2,0,0,0-4.21-8,3.18,3.18,0,0,1-.54-1,1.61,1.61,0,0,1,.54-1.57l1.32-.65c.23,0,.35.14.38.3s0,.26,0,.28c-.58,1.08.25,1.73.74,2.49a4.92,4.92,0,0,1,2.21,2.32c.92,1.46,1.7,3,2.51,4.53A5,5,0,0,1,469.58,727.3Z" transform="translate(-452.47 -668.05)"/><path class="cls-20" d="M508.15,692.58c3.89-3.83,9.15-5.41,13.63-8.29,1.6-1,3.48-1.65,4.52-3.41l2.07.45Z" transform="translate(-452.47 -668.05)"/><path class="cls-21" d="M492.56,748.81a1.29,1.29,0,0,0-.43-.62c.32-1.1.65-2.2,1-3.31,1.71.36,2.11,2,3.13,3.1a3.72,3.72,0,0,1,.53,1,7.35,7.35,0,0,1-.57,4.29l-.43.34a1.33,1.33,0,0,1-1-.13C493.18,752.3,492.89,750.54,492.56,748.81Z" transform="translate(-452.47 -668.05)"/><path class="cls-22" d="M554.16,716.43a3.3,3.3,0,0,1,2.65.13,2.76,2.76,0,0,1-.71,2.09,15.63,15.63,0,0,1-2.81,2.76,3.89,3.89,0,0,1-2.16.7,1.27,1.27,0,0,1-.93-.61,3.07,3.07,0,0,1-.09-2.27,5.93,5.93,0,0,1,1.88-2.16A6.87,6.87,0,0,1,554.16,716.43Z" transform="translate(-452.47 -668.05)"/><path class="cls-23" d="M565.42,718l-3.23,2c-1,.25-2,1.15-2.87-.12a6.46,6.46,0,0,1,.83-3.52c2.11.52,3.6-1.62,5.66-1.3.13.75-.6,1.32-.45,2.07A1.5,1.5,0,0,1,565.42,718Z" transform="translate(-452.47 -668.05)"/><path class="cls-24" d="M554.16,716.43l-2.11,1.32c-1.16.34-2.26-.12-3.39-.22-1.45-.36-2.8-1-4.22-1.49-1.09-.53-1.68-1.29-1.17-2.55a1,1,0,0,1,.92-.39C547.35,714.69,550.5,716.34,554.16,716.43Z" transform="translate(-452.47 -668.05)"/><path class="cls-25" d="M474.85,727.9l1.68-1.8a25.82,25.82,0,0,0,3.9-1.29,3.65,3.65,0,0,1,2.05-.64,2.17,2.17,0,0,1,1,.52,2.15,2.15,0,0,1,.52,1.56c-.45.91-1.13.77-1.86.39-2.07,1.43-4.66.82-6.84,1.77C475.14,728.24,475,728.06,474.85,727.9Z" transform="translate(-452.47 -668.05)"/><path class="cls-26" d="M473.12,707c-2.72,1.08-4.1,4.23-7.22,4.69a19.29,19.29,0,0,1,6.42-6.06c1.2.18,1.82-1.47,3.11-1a.94.94,0,0,1,.25,1A6,6,0,0,1,473.12,707Z" transform="translate(-452.47 -668.05)"/><path class="cls-27" d="M476.63,702.37l2.36-1.55c1.73-1.74,4.31-2.17,6-3.93l.65-.43a1.42,1.42,0,0,1,1.46.68,1.88,1.88,0,0,1-.36,1.07,12.56,12.56,0,0,1-3.25,2.24,19.69,19.69,0,0,0-4.1,2.59,7.69,7.69,0,0,1-.83.68,3.2,3.2,0,0,1-1.49.54,1.17,1.17,0,0,1-.89-.47C476,703.21,476.37,702.81,476.63,702.37Z" transform="translate(-452.47 -668.05)"/><path class="cls-28" d="M560.15,716.43c.64,1.35.52,2.5-.84,3.35l-.47.3c-.88.33-1.78.77-2.49-.31-.47-1.94.38-2.95,2.27-3.24Z" transform="translate(-452.47 -668.05)"/><path class="cls-29" d="M492.85,687.23a1.49,1.49,0,0,0,1.41.88,7.64,7.64,0,0,1-3.09,4.12c-.5.15-1,.45-1.53.2Z" transform="translate(-452.47 -668.05)"/><path class="cls-30" d="M468.74,729.46l1.28.32c-1.56,2.66-4.65,2.44-6.95,3.69a.79.79,0,0,1-.52-.41c-.1-.21-.13-.32-.09-.35a2,2,0,0,1,.68-1.42,4.94,4.94,0,0,1,1-.52C465.64,730.31,467,729.08,468.74,729.46Z" transform="translate(-452.47 -668.05)"/><path class="cls-31" d="M544.19,713.1l-.61.58a1,1,0,0,1-.84.48,34.13,34.13,0,0,1-5.94-3.08,1,1,0,0,1,.12-1.43,1.8,1.8,0,0,1,1.51-.42l1.1.41Z" transform="translate(-452.47 -668.05)"/><path class="cls-32" d="M530.05,689.34l3.2-5.44c1.67,2.34-.45,3.73-1.37,5.41A1.79,1.79,0,0,1,530.05,689.34Z" transform="translate(-452.47 -668.05)"/><path class="cls-33" d="M526,680.34l-1.46.64a1.54,1.54,0,0,1-1.07-1.21c.06-1.57.22-3.1,1.89-3.89.82.08,1.54.27,1.58,1.29Z" transform="translate(-452.47 -668.05)"/><path class="cls-34" d="M462.41,733.92c0,1.4-.89,1.26-1.74.92-1.73-.68-1.74-2.13-1.48-3.66a1.35,1.35,0,0,1,1.68-.7C462.21,731.25,462.45,732.52,462.41,733.92Z" transform="translate(-452.47 -668.05)"/><path class="cls-35" d="M462.41,733.92l-1.88-3.45a3.65,3.65,0,0,1-2-1.61,11.07,11.07,0,0,1-1.88-4.3,1.07,1.07,0,0,1,.68-1.1c3.63,2.09,4.88,5.54,5.42,9.4.11.21.23.41.35.61Z" transform="translate(-452.47 -668.05)"/><path class="cls-36" d="M565.08,717.49c-1.82-1.42.19-1.66.73-2.36,1.63-.39,2.79-2.18,4.74-1.59l-4.85,3.59A.44.44,0,0,1,565.08,717.49Z" transform="translate(-452.47 -668.05)"/><path class="cls-37" d="M493.19,740.37l1.57,1.26a18.66,18.66,0,0,1,1.69,4.67c.17.77.39,1.93-1.17,1.52a14.69,14.69,0,0,1-2-4.09A5.16,5.16,0,0,1,493.19,740.37Z" transform="translate(-452.47 -668.05)"/><path class="cls-38" d="M455.51,726.47a9.92,9.92,0,0,1-3-5.62,3.41,3.41,0,0,1,2.54,1.34,5.27,5.27,0,0,1,1.2,2.7A1.9,1.9,0,0,1,455.51,726.47Z" transform="translate(-452.47 -668.05)"/><path class="cls-39" d="M454.46,722.67l-2-1.82c.12-1.55,1.24-1.89,2.49-2.07a1.25,1.25,0,0,1,.7.71,3.85,3.85,0,0,1,.15,2.55A1.44,1.44,0,0,1,454.46,722.67Z" transform="translate(-452.47 -668.05)"/><path class="cls-40" d="M455.15,719.42c-.06-.22-.12-.43-.19-.64l2.45-1.55a8.75,8.75,0,0,1,4.24-2.35v0l-.36,1.2c-.61,1.75-2.38,2.23-3.61,3.32a3.35,3.35,0,0,1-1,.5A1.61,1.61,0,0,1,455.15,719.42Z" transform="translate(-452.47 -668.05)"/><path class="cls-41" d="M530.05,689.34a1.69,1.69,0,0,1,1.83,0l-.72,2.17-.64.43c-1,.51-1.3-.26-1.65-.93l-.1-.88Z" transform="translate(-452.47 -668.05)"/><path class="cls-42" d="M486.93,697.27l-1.26-.81,2.72-2.8a1.41,1.41,0,0,1,1.16,1.39C489.25,696.46,488.7,697.58,486.93,697.27Z" transform="translate(-452.47 -668.05)"/><path class="cls-29" d="M489.29,695.08l-.9-1.42c0-.79.73-.93,1.25-1.23l1.53-.2c-.49.85,0,2.1-1.12,2.69A.47.47,0,0,1,489.29,695.08Z" transform="translate(-452.47 -668.05)"/><path class="cls-43" d="M485,696.89c-1.44,2.18-3.86,2.87-6,3.93C480.62,698.93,482.87,698,485,696.89Z" transform="translate(-452.47 -668.05)"/><path class="cls-44" d="M526.89,673.5c1.07-.68,1.52-2.1,2.89-2.43.25,1.5-1.16,2.3-1.5,3.55-.53.61-1,.38-1.51-.06A.74.74,0,0,1,526.89,673.5Z" transform="translate(-452.47 -668.05)"/><path class="cls-45" d="M552.75,689.16a1.24,1.24,0,0,1,.37.53c0,.5.17,1-.12,1.48a3,3,0,0,1-1.17,1,1.67,1.67,0,0,1-1.48,0l-.91-1.25C550.55,690.3,551.65,689.73,552.75,689.16Z" transform="translate(-452.47 -668.05)"/><path class="cls-46" d="M459.33,728.55l1.2,1.92-1.34.71-1.32-.77c.14-.68-.37-1.24-.31-1.91C458.17,727.87,458.75,728.16,459.33,728.55Z" transform="translate(-452.47 -668.05)"/><path class="cls-47" d="M558.62,716.53c-1.64.74-2,2.08-1.72,3.7a.83.83,0,0,1-.76.49,1.68,1.68,0,0,1-.7-.67c-.31-.69.15-1.26.31-1.88.36-.53.71-1.07,1.06-1.61Z" transform="translate(-452.47 -668.05)"/><path class="cls-48" d="M493.27,743.73l2.52,4.29a.45.45,0,0,1,.23.71c-1.75-.69-1.9-2.6-2.92-3.85Z" transform="translate(-452.47 -668.05)"/><path class="cls-49" d="M527,674.3l1.24.32L527,677.17l-1.53-1a1.64,1.64,0,0,1,.18-.9C526,674.9,526.26,674.2,527,674.3Z" transform="translate(-452.47 -668.05)"/><path class="cls-50" d="M539.93,692.77c.48,2.1-.7,2.38-2.35,2.12a1.4,1.4,0,0,0,.62-2.06Z" transform="translate(-452.47 -668.05)"/><path class="cls-51" d="M457.78,728.57a1.94,1.94,0,0,1,.09,1.84l-2.36-3.94c.09-.37.17-.75.25-1.13a1.75,1.75,0,0,1,1.11.45A3.19,3.19,0,0,1,457.78,728.57Z" transform="translate(-452.47 -668.05)"/><path class="cls-52" d="M463.31,714.83l-.35-.58c.35-1,.92-1.68,2.12-1.32C465,714.06,464.2,714.48,463.31,714.83Z" transform="translate(-452.47 -668.05)"/><path class="cls-53" d="M461.65,714.88l-4.24,2.35C458.58,716,459.58,714.47,461.65,714.88Z" transform="translate(-452.47 -668.05)"/><path class="cls-54" d="M476.29,703.37c.1.19.2.38.31.57a1,1,0,0,1-1.17.84c-1,.27-1.86,1.35-3.11.89l1.09-.84A3.59,3.59,0,0,1,476.29,703.37Z" transform="translate(-452.47 -668.05)"/><path class="cls-55" d="M476.29,703.37l-2.88,1.46a6,6,0,0,1,3.22-2.46Z" transform="translate(-452.47 -668.05)"/><path class="cls-1" d="M524.71,668.64a1.59,1.59,0,0,1-2,1.14l-.37-.69C523,668.32,523.89,668.53,524.71,668.64Z" transform="translate(-452.47 -668.05)"/><path class="cls-56" d="M507.2,751.22l-.31.22-.35.12c-1.6.12-2.67,1.47-4.16,1.82a.72.72,0,0,1-.51-.49c-.07-.22-.08-.35,0-.38.91-.65.33-1.1-.05-1.82-3.09-5.8-7.2-11.06-9-17.51a13.71,13.71,0,0,1,5.11,1.29,4.1,4.1,0,0,1,.25,1.43c.87,2.6,3.92,2.67,5.36,4.61a4.83,4.83,0,0,1,.54,1c1.08,2.79,3.13,5.1,3.83,8.07A1.85,1.85,0,0,1,507.2,751.22Z" transform="translate(-452.47 -668.05)"/><path class="cls-9" d="M518.78,729c.21-1.44-1.27-1.81-1.8-2.81-.67-1.29-1.75-2.47-.23-3.86a4.46,4.46,0,0,1,2.63,1c.45.48.69,1.1,1.12,1.59a15,15,0,0,0,5.7,3.16c.34,0,.68.1,1,.17a4,4,0,0,1,1.44.63,2.8,2.8,0,0,1,.64.85,3.84,3.84,0,0,1-.36,3.6c-1.44.81-2.75.14-4.09-.35s-2.37-1.29-3.56-1.92a12,12,0,0,1-1.65-1A2.39,2.39,0,0,1,518.78,729Z" transform="translate(-452.47 -668.05)"/><path class="cls-57" d="M518.88,723.77a2,2,0,0,1-2.13-1.41c-.57-1-.18-1.93.09-2.89a.81.81,0,0,1,.86-.4c.42.23.71,1,.76,1a3.84,3.84,0,0,0,1.15-2.47c-.58-.43-1.52-.1-1.9-.93a1.43,1.43,0,0,1,.28-1c1.64-1.5,3.73-1.81,5.78-2.25,2.37.87,1.5,2.57.94,4.06-.63,1.66-1.66,3.15-2,4.93a2.62,2.62,0,0,1-.58,1C521.15,724.42,520,724.05,518.88,723.77Z" transform="translate(-452.47 -668.05)"/><path class="cls-58" d="M512.51,741.49l4.64-3.74c2.22-.61,1.73,1.37,2.28,2.36.15,1.3-.6,2.22-1.31,3.16s-1.33,1.79-2.54,2C514.14,744.34,513.43,742.83,512.51,741.49Z" transform="translate(-452.47 -668.05)"/><path class="cls-59" d="M509,735.5c2.23,1.08,2.71,3.11,2.89,5.3-.37.76.57,1.66-.28,2.36a2.6,2.6,0,0,1-.95.45,2.34,2.34,0,0,1-2.39-.86,6.29,6.29,0,0,1-.71-4.08C507.9,737.55,508.66,736.61,509,735.5Z" transform="translate(-452.47 -668.05)"/><path class="cls-60" d="M511.34,743c.66-.6-.77-1.75.57-2.18l.6.69c2,.29,2.88,1.45,2.65,3.46.37,1.09-.15,1.72-1.11,2.13A2.19,2.19,0,0,1,513,747C511.52,746,510.14,745,511.34,743Z" transform="translate(-452.47 -668.05)"/><path class="cls-61" d="M509,735.5c.74,1.36.2,2.34-.94,3.14a2,2,0,0,1-2,.37,5.78,5.78,0,0,1-1.49-.64c-.77-.76-2.4-1.28-.82-2.75Z" transform="translate(-452.47 -668.05)"/><path class="cls-62" d="M503.81,735.62c-.65,1.54,1.2,1.62,1.5,2.6-.06.15-.13.29-.19.44a1.64,1.64,0,0,1-.91.27,6,6,0,0,1-1.86-.5,14.13,14.13,0,0,0-1.78-.67c-1.14-.54-2.62-.65-2.94-2.26l.28-1Z" transform="translate(-452.47 -668.05)"/><path class="cls-63" d="M518.86,740.47c-.85-.73-.27-2.36-1.71-2.72.41-1,.81-2,1.22-3,1-1,1.65-.1,2.41.31a2.77,2.77,0,0,1,.9,2,6.19,6.19,0,0,1-1.3,3A1.5,1.5,0,0,1,518.86,740.47Z" transform="translate(-452.47 -668.05)"/><path class="cls-64" d="M504.79,710.43c-.75.38-1.47.9-2.38.47-1.29-.82-3.54-1.39-.81-3.21a4.49,4.49,0,0,1,.67-.31c2.18-.14,3.25-2.33,5.23-2.86,1.27-.53,2.31-1.78,3.91-1.27,4.89-.89,8.54-4.32,12.89-6.31,2.68-1.22,5-3.25,8.77-4.07-1,1.93-2.3,2.23-3.31,2.79-6.57,3.68-13.15,7.36-19.76,11A20,20,0,0,0,504.79,710.43Z" transform="translate(-452.47 -668.05)"/><path class="cls-65" d="M511.41,703.25l-4,2.21c-1.46-.32-2.29,1.55-3.79,1.11,1-2.07,3.18-2.48,4.91-3.44,6.47-3.61,13-7.08,19.57-10.56.73-.39.61-1,.81-1.59l1.65.93c-3,3.19-7.23,4.45-10.84,6.69C517,700.27,514.17,701.71,511.41,703.25Z" transform="translate(-452.47 -668.05)"/><path class="cls-66" d="M501.6,707.69c-1.76,1.58.94,2,.81,3.2l-1.35.75a1.77,1.77,0,0,1-2,1.13l-.05-.08a3.81,3.81,0,0,1-2.1-1,2.25,2.25,0,0,1-.4-2.33,2.93,2.93,0,0,1,3.24-1.47l1.44-.74C501.35,707.3,501.47,707.5,501.6,707.69Z" transform="translate(-452.47 -668.05)"/><path class="cls-67" d="M503.58,706.57c1.28-.31,2.26-1.66,3.79-1.11-1.87.2-2.67,3.21-5.1,1.92Z" transform="translate(-452.47 -668.05)"/><path class="cls-68" d="M497.17,691.83a1,1,0,0,1,.56-.42c.48-1.45,1.84-2.13,2.81-3.15.5-.38,1-.69,1.57-1a14.35,14.35,0,0,1,4.09-1.49c.79-.45-.69,1.79.8.65,4-3.09,8.67-5.18,13.13-7.56A2.34,2.34,0,0,1,523,679a2.1,2.1,0,0,1-.86,2.93c-6.71,3.39-13.11,7.32-19.79,10.75C500.6,693.57,498.34,695.32,497.17,691.83Z" transform="translate(-452.47 -668.05)"/><path class="cls-69" d="M497.17,691.83c1.37,2,2.86,1,4.34.16,5.6-3.11,11.19-6.24,16.82-9.3,1.19-.64,2.25-1.83,3.85-1.28a2.15,2.15,0,0,1-.74,1.17c-6.59,3.92-13.39,7.46-20.05,11.24a10,10,0,0,0-1,.67c-.93.87-2.31,1.15-3.05,2.28-.51.93-.36,2-.6,3-1.55,2.33-2.67,2.07-3.37-.57a11,11,0,0,1-.13-3.39Z" transform="translate(-452.47 -668.05)"/><path class="cls-70" d="M506.17,685.91,502,688.12a.75.75,0,0,1-.17-1,3.8,3.8,0,0,1,2.6-1.18l22.48-12.41.15.8-1.14,1.28c-5.54,3.58-11.46,6.49-17.19,9.75A3.46,3.46,0,0,1,506.17,685.91Z" transform="translate(-452.47 -668.05)"/><path class="cls-71" d="M493.22,695.79c1.7.84.53,2.48,1,3.7.89,2.22,1.31,1.35,1.84-.1.56-.7,1.14-.54,1.73,0-.12,1-1.08,1.28-1.63,1.91a2.56,2.56,0,0,1-2.47,1.62c-1.62-.46-2-1.77-2.22-3.21,0-.82.24-1.68-.35-2.42,0-.83.43-1.28,1.3-1.21Z" transform="translate(-452.47 -668.05)"/><path class="cls-72" d="M504.41,685.91,502,687.43c-.86,1-2,1.64-2.86,2.56a1.87,1.87,0,0,1-1.43.75c-.72.18-1.56.58-2-.35s.49-1,1-1.11C499.52,688.66,501.12,685.35,504.41,685.91Z" transform="translate(-452.47 -668.05)"/><path class="cls-73" d="M492.44,696l-1,1.48a1.64,1.64,0,0,1-1.73,1.34,1.42,1.42,0,0,1-.93-.69,2,2,0,0,1,1.63-2.65A1.35,1.35,0,0,1,492.44,696Z" transform="translate(-452.47 -668.05)"/><path class="cls-74" d="M490.42,695.51c-.51.79-1.29,1.46-1.21,2.53a1.46,1.46,0,0,1-1.42.85,1.13,1.13,0,0,1-.65-1.44l-.21-.18c1.29-.19,1.35-1.7,2.36-2.19l.76-.16A4.49,4.49,0,0,1,490.42,695.51Z" transform="translate(-452.47 -668.05)"/><path class="cls-75" d="M497.69,690.74l1.08-.82a1.91,1.91,0,0,1,2.05-1c-.4,1.61-2,1.77-3.09,2.51C497.72,691.19,497.71,691,497.69,690.74Z" transform="translate(-452.47 -668.05)"/><path class="cls-50" d="M536.9,695.26c-3.72,3.94-8.95,5.45-13.39,8.23-1.42.89-2.77,2.34-4.78,1.84Z" transform="translate(-452.47 -668.05)"/><path class="cls-50" d="M514.06,707.87c-1.22.54-2.18,1.81-3.75,1.29C511.51,708.58,512.51,707.43,514.06,707.87Z" transform="translate(-452.47 -668.05)"/><path class="cls-76" d="M550.35,692.11l1.38-.55a1.08,1.08,0,0,1,0,1.35,4.55,4.55,0,0,1-1,1.06c-11.86,6.84-23.91,13.33-35.87,20-1.24.69-2.49,1.36-4,1-2.36-.71-.94-1.23.08-1.8,9-5,18-10.1,27.13-15C542.09,696,545.73,693,550.35,692.11Z" transform="translate(-452.47 -668.05)"/><path class="cls-77" d="M524.27,713.71l-6.5,2.84a12.41,12.41,0,0,1-11.1,2.06,1.36,1.36,0,0,1-.21-2.09l4.74-1c1.05-1.18,2.71-1.13,3.95-1.93.93-.23,1.86-.4,2.78-.64a7.88,7.88,0,0,0,1.69-.59c2.2-1.15,4.33-2.43,6.54-3.58,1.19-.62,2.37-1.44,3.84-.77.77,1.6-.82,2.09-1.44,3a22,22,0,0,1-1.79,1.54C526,713.19,525.37,714,524.27,713.71Z" transform="translate(-452.47 -668.05)"/><path class="cls-78" d="M515.64,714.12a9.36,9.36,0,0,1-4.44,1.43l-.33-.6,40.4-22.38c.44,2.62-1.83,3.07-3.34,3.91C537.18,702.39,526.63,708.66,515.64,714.12Z" transform="translate(-452.47 -668.05)"/><path class="cls-79" d="M497.68,711.74a1.55,1.55,0,0,1,1.37,1L495,715c-.78,2.44-2.83,3.59-4.85,4.76-2.64,1.58-5.25,3.23-8.32,3.89l-.6-.18-.37-.67c1.06-3.52,4.45-4.3,7.05-6,2.66-1.44,5.29-2.93,7.95-4.37A9.89,9.89,0,0,1,497.68,711.74Z" transform="translate(-452.47 -668.05)"/><path class="cls-80" d="M506.46,716.52l0,1.64a1.11,1.11,0,0,1-.56.77,8.34,8.34,0,0,1-2.45.58c-1.86-.27-3.59.77-5.45.51a1.49,1.49,0,0,1-.83-.56c-.26-.58.13-1,.39-1.41l.66-.6a8.17,8.17,0,0,1,7.14-1.32Z" transform="translate(-452.47 -668.05)"/><path class="cls-81" d="M497.58,718.05l-.32,1c-1.07,2.52-3.7,3-5.68,4.33a11,11,0,0,1-2.27.95,10.36,10.36,0,0,0-4.51,2,1.27,1.27,0,0,1-1.06,0l-.68-1.23a5,5,0,0,1,2.79-2.7,8.73,8.73,0,0,1,2.46-1c2.83-.42,4.82-3.22,7.95-2.82Z" transform="translate(-452.47 -668.05)"/><path class="cls-82" d="M489.33,719c2.26-.83,3.73-2.78,5.7-4l.44,2.36c-.35,1.47-1.91,1.68-2.76,2.64a1.79,1.79,0,0,1-1,.51C490.53,720.61,489.29,720.82,489.33,719Z" transform="translate(-452.47 -668.05)"/><path class="cls-83" d="M505.38,716.13l-7.14,1.32C500.25,715,502.55,714.14,505.38,716.13Z" transform="translate(-452.47 -668.05)"/><path class="cls-84" d="M491.8,720.25a1.62,1.62,0,0,0,.68-.34,3.8,3.8,0,0,1,3.3-1.78,4.16,4.16,0,0,0,.48.46c-2.58,1.26-4.7,3.49-7.8,3.61C489,720.5,490.42,720.44,491.8,720.25Z" transform="translate(-452.47 -668.05)"/><path class="cls-85" d="M499.1,712.77l2-1.13c.74.75,1.47,1.51,2.2,2.26C501.51,714.89,500.39,713.52,499.1,712.77Z" transform="translate(-452.47 -668.05)"/><path class="cls-86" d="M495.78,718.13l-3.3,1.78c.29-1.68,1.94-1.77,3-2.57l.94-.16Z" transform="translate(-452.47 -668.05)"/><path class="cls-87" d="M497.81,699.34l-1.73,0c.08-.92.15-1.84.23-2.76.57-1.35,2.45-1.15,3-2.53l.67-.38a152.85,152.85,0,0,0,21.54-11.94l.67-.37a2.64,2.64,0,0,0,.6-2.09c.54-.44,1-.5,1.11.34l.67,1.32c-1,1.81-2.9,2.45-4.55,3.38-5.37,3-10.77,6-16.13,9-1.07.6-2.48.89-2.79,2.4s-2.31,1.61-2.67,3.1Z" transform="translate(-452.47 -668.05)"/><path class="cls-88" d="M493.44,702.58l2.74-1.33a15.47,15.47,0,0,0,3.62,6.6l-3.27,1.82-.56-.13c-1.65-1.18-2.27-3-3.17-4.73a4.76,4.76,0,0,1-.28-1.11c0-.19,0-.38.05-.57A.84.84,0,0,1,493.44,702.58Z" transform="translate(-452.47 -668.05)"/><path class="cls-89" d="M498.42,698.84c-.61-2.33,1.68-2.16,2.67-3.1,1.22-.47,2.16-1.75,3.71-1.24-.37,1.09-1.51,1.18-2.28,1.75-1.12.76-2.51,1.1-3.41,2.2Z" transform="translate(-452.47 -668.05)"/><path class="cls-87" d="M499.11,698.45c.55-1.55,2.07-1.76,3.27-2.41a.45.45,0,0,1,0,.68Z" transform="translate(-452.47 -668.05)"/><path class="cls-2" d="M502.4,696.72c0-.23,0-.46,0-.68l2.42-1.54a6.2,6.2,0,0,1,.74-.08C505,695.82,503.5,696,502.4,696.72Z" transform="translate(-452.47 -668.05)"/><path class="cls-1" d="M500.94,682.72l-1.44.58c.9-1.94,3-2.24,4.56-3.19Z" transform="translate(-452.47 -668.05)"/><path class="cls-90" d="M560.35,726.36c-3.45,1.27-6.22,4-10,4.62a13.9,13.9,0,0,1,1.54-4.22,5.07,5.07,0,0,1,1.35-1.22c1.12-.61,2.21-1.36,3.57-.74,2.35,3.38,3.83-.69,5.78-.68C562.43,725.44,561.05,725.56,560.35,726.36Z" transform="translate(-452.47 -668.05)"/><path class="cls-91" d="M556.85,724.8l-3.57,1.69c-.84-.37-2.2,1.87-2.64-.53a6.61,6.61,0,0,1,2.78-2.35c.92-.48,1.83-1,2.8-1.4a3,3,0,0,1,3,.26c.47,1.58-.76,1.66-1.73,2Z" transform="translate(-452.47 -668.05)"/><path class="cls-28" d="M559,722.55l-2.37.37c-.47-2.16,1.07-2.66,2.61-3.14h0l2.88.29c0,1.14-1.16,1.21-1.73,1.82A1.12,1.12,0,0,1,559,722.55Z" transform="translate(-452.47 -668.05)"/><path class="cls-9" d="M559,722.55l1.42-.66c.37,2.4-1.22,2.54-2.93,2.54C558,723.75,559.29,723.78,559,722.55Z" transform="translate(-452.47 -668.05)"/><path class="cls-92" d="M567.7,720.45,566,722.34l-2.13.92C564.58,721.55,566.33,721.26,567.7,720.45Z" transform="translate(-452.47 -668.05)"/><path class="cls-93" d="M565.08,717.49c.2-.13.41-.25.62-.36.24.4.19.72-.28.91A3.38,3.38,0,0,1,565.08,717.49Z" transform="translate(-452.47 -668.05)"/><path class="cls-94" d="M526.89,751.71c-1.83-.59-3.77.89-5.57-.28-.51-.41-.38-.89-.18-1.39a8,8,0,0,0,1.34-3.7,5.11,5.11,0,0,1,.32-.93,6.1,6.1,0,0,0,.75-2.8c0-.34,0-.67,0-1,.22-1.19-.36-2.48.49-3.58a1.64,1.64,0,0,1,2.11.12c2.17,3.47,3.28,7.16,2.38,11.27C528.16,750.28,527.33,750.85,526.89,751.71Z" transform="translate(-452.47 -668.05)"/><path class="cls-95" d="M527.55,749.7c1.36-4.11-.64-7.65-1.92-11.31a1.29,1.29,0,0,1,1.66.11c2.12,2.07,2.74,5.24,5.16,7.1a1.35,1.35,0,0,1,.39,1.08c-.45.68-.68,1.54-1.57,1.86C530.19,749.42,529.33,751,527.55,749.7Z" transform="translate(-452.47 -668.05)"/><path class="cls-96" d="M521.72,750.33c-.14.37-.27.74-.4,1.1l-4.39-1.21c-.77-.11-1.35-.39-1.2-1.33a23.19,23.19,0,0,1,2.65-3.28,1.79,1.79,0,0,1,1.09-.19C521.46,746.49,521.87,748.28,521.72,750.33Z" transform="translate(-452.47 -668.05)"/><path class="cls-97" d="M532.84,746.68c-.05-.22-.11-.43-.17-.64a4,4,0,0,1,.55-2.21,6.13,6.13,0,0,1,.46-.78,6.56,6.56,0,0,1,.9-1,.83.83,0,0,1,.83-.13c1.2,1.05-.13,2.24.19,3.33-.15,1,.1,2.1-1.22,2.47A1.7,1.7,0,0,1,532.84,746.68Z" transform="translate(-452.47 -668.05)"/><path class="cls-98" d="M516.18,751.67l-.64.16c-.65-.78-1.95-1-2.1-2.2a1.07,1.07,0,0,1,.45-.76,2,2,0,0,1,.9-.2,1.22,1.22,0,0,1,1.08.74l1.06.81Z" transform="translate(-452.47 -668.05)"/><path class="cls-99" d="M527.55,749.7c1.62.84,2.41-1,3.72-1.16-.66,2.16-2.69,2.43-4.38,3.17A2.42,2.42,0,0,1,527.55,749.7Z" transform="translate(-452.47 -668.05)"/><path class="cls-100" d="M534.38,747.72c.41-.83.82-1.65,1.22-2.47,1.83,1.71-.13,2.25-1,3.13Z" transform="translate(-452.47 -668.05)"/><path class="cls-101" d="M465.81,716.21l9.19-7a7.91,7.91,0,0,1,3.25-2c1.9,1.29-1,1.41-.62,2.27a9.34,9.34,0,0,1,3.66-2.66c2.76-.76,5-2.57,7.53-3.73,1.28-.59,2.64-1.82,4-.12h0c-.9,2.23-3.14,2.79-4.93,3.91-2.88,1.8-6.12,3-8.74,5.26a8,8,0,0,1-2.75,1.65,11.52,11.52,0,0,0-5.95,3.18,10.28,10.28,0,0,1-1.07,1.39,4,4,0,0,1-2.67,1.23C464.5,719,464.3,717.84,465.81,716.21Z" transform="translate(-452.47 -668.05)"/><path class="cls-102" d="M481.28,707.61l-4.43,2.45,1.66-2.67a1.63,1.63,0,0,1,.34-1l4.49-2.67c.67-1.82,2.61-2.29,3.79-3.56.67-.68,1.59-1,2.26-1.71l2.06-1c1,0,.65.85.8,1.38C489.74,703.24,485.41,705.3,481.28,707.61Z" transform="translate(-452.47 -668.05)"/><path class="cls-103" d="M489.39,698.48c.16,1.18-1,1.4-1.5,2.13a12.08,12.08,0,0,1-4.55,2.46l-2.18,1c-.74-2,1.4-2.33,2-3.53,1.32-1.11,2.7-2.07,4.56-1.78l1.44-.71A3.38,3.38,0,0,1,489.39,698.48Z" transform="translate(-452.47 -668.05)"/><path class="cls-104" d="M483.74,700.93c0,1.73-2.43,1.5-2.59,3.13-1.68.73-2.93,2.52-5.09,2.05a2.84,2.84,0,0,1,.46-1c.78-.72,1.87-1.06,2.48-2a7.24,7.24,0,0,1,2.55-1.86c.64-.32,1.08-.94,1.79-1.16a.55.55,0,0,1,.45.44C483.82,700.78,483.8,700.9,483.74,700.93Z" transform="translate(-452.47 -668.05)"/><path class="cls-105" d="M483.34,703.07l4.55-2.46c-.95,1.87-3,2.13-4.55,3.14C483.35,703.52,483.35,703.3,483.34,703.07Z" transform="translate(-452.47 -668.05)"/><path class="cls-106" d="M465.81,716.21c-.42,1.19-.78,2.36.8,3a1,1,0,0,1-1.09.81l-1.47-2.73Z" transform="translate(-452.47 -668.05)"/><path class="cls-106" d="M478.85,706.42c-.11.32-.22.65-.34,1L475,709.24C475.82,707.67,477.44,707.18,478.85,706.42Z" transform="translate(-452.47 -668.05)"/><path class="cls-107" d="M476.72,705.74l-.66.37c-1,.4-1.74,1.33-2.94.93l2.37-1.62C476.1,704.75,476.48,705,476.72,705.74Z" transform="translate(-452.47 -668.05)"/><path class="cls-108" d="M495.87,753.18c.3-1.28-.37-2.71.55-3.91a4.91,4.91,0,0,1,4.12,2.84c.65,1.21.89,2.45-1.11,2.65l-2.07,1-.42-.71a1.6,1.6,0,0,1-.67-.41,1.8,1.8,0,0,1-.43-.66A2.16,2.16,0,0,1,495.87,753.18Z" transform="translate(-452.47 -668.05)"/><path class="cls-109" d="M492.92,754.21c-2.38-.5-1.7-1.91-1-3.33,2-1,1.66,1.11,2.4,1.78a1,1,0,0,1-.27,1.11A4.28,4.28,0,0,1,492.92,754.21Z" transform="translate(-452.47 -668.05)"/><path class="cls-110" d="M494.25,753.24c-.62-.93-.85-2.25-2.32-2.36l.63-2.07c1.5,1.27,1.65,3.29,2.7,4.81l-.44.36-.55-.16Z" transform="translate(-452.47 -668.05)"/><path class="cls-111" d="M494.63,753.93a3.07,3.07,0,0,1,.63-.31l0,0a.75.75,0,0,1,.76.42c.08.14.15.28.22.42l.06.47-1,.28a1.39,1.39,0,0,1-.63-.52A.73.73,0,0,1,494.63,753.93Z" transform="translate(-452.47 -668.05)"/><path class="cls-112" d="M496.77,754.78V755l.17.08-.66-.1-.06,0,.07-.66Z" transform="translate(-452.47 -668.05)"/><path class="cls-113" d="M495,754.64a3.23,3.23,0,0,1,.29.59c-.48.21-.95.41-1.08-.37C494.39,754.44,494.65,754.38,495,754.64Z" transform="translate(-452.47 -668.05)"/><path class="cls-114" d="M495,754.64l-.79.22-.13-.27-.31-.4a.74.74,0,0,1,.85-.36v.1C494.75,754.17,494.88,754.4,495,754.64Z" transform="translate(-452.47 -668.05)"/><path class="cls-115" d="M492.92,754.21l.68-.54c.25,0,.38.12.4.28s0,.26-.06.29l.15.35Z" transform="translate(-452.47 -668.05)"/><path class="cls-116" d="M536.43,736.75c.77,1,.12,2.23.48,3.3l-1.21.62a1.32,1.32,0,0,1-1.45-.65C534,738.3,534.31,736.91,536.43,736.75Z" transform="translate(-452.47 -668.05)"/><path class="cls-117" d="M535.41,741.92l-.45.79a1,1,0,0,1-.66-.5c0-.14-.07-.29-.11-.43s.07-.28.1-.42l.33-.29.43.07Z" transform="translate(-452.47 -668.05)"/><path class="cls-118" d="M534.72,740.27l1,.4-.65.47h.06a.53.53,0,0,1-.6-.47Z" transform="translate(-452.47 -668.05)"/><path class="cls-119" d="M507.2,751.22l.27-1.08a16.29,16.29,0,0,0,1.28-2.78,2.28,2.28,0,0,1,.77-1.28,1.63,1.63,0,0,1,1.86.26,6,6,0,0,1,1.06,1c.07.14.14.29.22.43s0,.33,0,.49c-1.36,1.23-2,3.1-3.76,4l-5.44,3C504.56,753,507,753.27,507.2,751.22Z" transform="translate(-452.47 -668.05)"/><path class="cls-120" d="M512.82,748.76a.47.47,0,0,1-.21-.49l0,0a2.07,2.07,0,0,0,0-.86c0-.13.09-.27.13-.41a.79.79,0,0,1,.76-.29l.13.28c.69-.09,1.29,0,1.49.81a1.41,1.41,0,0,1-.55.76l-.89.37A1.48,1.48,0,0,1,512.82,748.76Z" transform="translate(-452.47 -668.05)"/><path class="cls-121" d="M512.82,748.76l.83-.13c.29,0,.46,0,.5.22s0,.31,0,.35l-.66.43Z" transform="translate(-452.47 -668.05)"/><path class="cls-122" d="M499.43,754.76c1.53-1.12.8-2.13-.19-3.06s-1.88-1.62-2.82-2.43a1.41,1.41,0,0,0-.4-.54,1.65,1.65,0,0,0-.23-.71c.68-2.3-2.33-4-1-6.39l-.05,0c1.51.48,1.31,2.42,2.63,3.06q2.25,3.93,4.51,7.87a1,1,0,0,0,.32.67q.46,0,.45.3c0,.18,0,.29-.12.34C501.56,754.4,500.67,755.13,499.43,754.76Z" transform="translate(-452.47 -668.05)"/><path class="cls-56" d="M497.34,744.64c-1.29-.67-1.77-2-2.63-3.06C496.54,741.78,496.58,743.52,497.34,744.64Z" transform="translate(-452.47 -668.05)"/><path class="cls-123" d="M488.6,717.6a34.84,34.84,0,0,0-7.71,5.18c-2.82-.16-4.65,2-7,3-1.42.55-2.87,1-4.3,1.57-.52-.92-1.05-1.84-1.58-2.76a1.36,1.36,0,0,1,.84-.52,14.22,14.22,0,0,0,3.54-.57,20.5,20.5,0,0,0,4.06-2c4-1.13,7.28-3.82,11.35-4.69A.83.83,0,0,1,488.6,717.6Z" transform="translate(-452.47 -668.05)"/><path class="cls-124" d="M480.59,725.35c-1.22,1-2.66.75-4.06.75,1.24-1.47,3.23-1.63,4.73-2.65h0C482.37,724.56,480.86,724.73,480.59,725.35Z" transform="translate(-452.47 -668.05)"/><path class="cls-125" d="M502.5,753.82c-.12-.22-.23-.43-.33-.64,1.5-.42,2.54-2.09,4.37-1.62Z" transform="translate(-452.47 -668.05)"/><path class="cls-126" d="M468.42,724.33c-.14.06-.28.14-.42.21-.83-1.5-1.65-3-2.48-4.49l1.09-.81,2.65-1.62c1.18-1.75,3.31-2.25,4.79-3.59a1.78,1.78,0,0,1,1.59-.69l2.7-1.55a2.45,2.45,0,0,1,1.78-1c3.24-1.48,6.27-3.35,9.38-5.07,1.95-1.09,3.47-1.8,4.93.9s0,3.65-1.87,4.79c-3.88,2.39-8.19,4.07-11.77,7a9.58,9.58,0,0,1-3.46,2,16.63,16.63,0,0,0-5.08,2.2A16.57,16.57,0,0,1,468.42,724.33Z" transform="translate(-452.47 -668.05)"/><path class="cls-127" d="M456.84,719.32c1-1.78,2.8-2.36,4.44-3.22l.49.57a1.6,1.6,0,0,1,.8,1.58,3.48,3.48,0,0,1-1.2,1.46,5.3,5.3,0,0,1-3.61,1.18A1.56,1.56,0,0,1,456.84,719.32Z" transform="translate(-452.47 -668.05)"/><path class="cls-128" d="M468.74,729.46c-1.66.8-3,2.28-5.11,2.06a1.44,1.44,0,0,1-.76-1.73,4.5,4.5,0,0,1,4.66-2.31Z" transform="translate(-452.47 -668.05)"/><path class="cls-129" d="M466.67,725.38l.46,1.46c-1.05,1.53-2.81,1.94-4.33,2.74a1.91,1.91,0,0,1-1.57-1.87,2.2,2.2,0,0,1,.5-1.21,6,6,0,0,1,4.08-2A.94.94,0,0,1,466.67,725.38Z" transform="translate(-452.47 -668.05)"/><path class="cls-130" d="M466.67,725.38a5.47,5.47,0,0,0-.45-.51,2.23,2.23,0,0,1-1.17-.67,6.16,6.16,0,0,1-.53-.73c-.18-.24-.34-.49-.52-.73a12.35,12.35,0,0,1-.84-1.07,11.64,11.64,0,0,1-.66-1.73,2.68,2.68,0,0,1-.07-1.85l-.66-1.42A15.44,15.44,0,0,1,466.67,725.38Z" transform="translate(-452.47 -668.05)"/><path class="cls-131" d="M462.61,729.37l4.52-2.53c.13.21.26.43.4.64L463,730.05A.54.54,0,0,1,462.61,729.37Z" transform="translate(-452.47 -668.05)"/><path class="cls-132" d="M552.07,727.4a3.06,3.06,0,0,1-1.68,3.58l-3.6,1.31-.06-.27a1.19,1.19,0,0,1-.74-.79,2.12,2.12,0,0,1,.56-2.16C548.31,728.26,549.93,727,552.07,727.4Z" transform="translate(-452.47 -668.05)"/><path class="cls-133" d="M546.37,731.35l.36.67c-2.48,2.11-5.54,1.92-8.5,2.12-1.18-.2-2.2.57-3.34.6a8.44,8.44,0,0,1-1.51-.06c-1.44-.68-3.47.34-4.51-1.54l-.15-3.5a1.4,1.4,0,0,1,.61-.78,4.13,4.13,0,0,1,4.13,1.08,6.52,6.52,0,0,0,.45.67,1,1,0,0,0,.67-.14,1.76,1.76,0,0,1,.66-.28c.37-.06.74-.09,1.11-.13a6.73,6.73,0,0,1,.77-.09,5.79,5.79,0,0,0,1.16-.29,8,8,0,0,1,.82-.3,7.35,7.35,0,0,1,2.76-.28,2.26,2.26,0,0,1,1.29.7C543.51,731.78,545.25,730.93,546.37,731.35Z" transform="translate(-452.47 -668.05)"/><path class="cls-134" d="M533.82,733.9l.87.19c.48.31,1.37.09,1.37,1l.21,1-.1.18H536c-.91,1.18-1.88,1.84-3.1.36C532.16,735.37,533.21,734.71,533.82,733.9Z" transform="translate(-452.47 -668.05)"/><path class="cls-135" d="M536.06,735.13l-1.37-1c1.18-.11,2.37-.71,3.54,0Z" transform="translate(-452.47 -668.05)"/><path class="cls-136" d="M495.66,754.17a3.62,3.62,0,0,0-.42-.53l.63-.46a1.77,1.77,0,0,1,.42.59C496.24,754.16,496,754.3,495.66,754.17Z" transform="translate(-452.47 -668.05)"/><path class="cls-137" d="M550.75,721.8l2.09-1a1,1,0,0,1,.62.91c.34,2.86-2.8,3.51-3.59,5.66a5.38,5.38,0,0,1-5.07,1.37C545.25,725.15,547.9,723.39,550.75,721.8Z" transform="translate(-452.47 -668.05)"/><path class="cls-94" d="M550.75,721.8l-5.84,6.74a1.24,1.24,0,0,1-2,1.4l-1.16-.33c-.53-.45-.39-1-.16-1.49a9.11,9.11,0,0,1,1.35-1.74q2.79-2.55,5.42-5.28a1.56,1.56,0,0,1,2,.11Z" transform="translate(-452.47 -668.05)"/><path class="cls-138" d="M550.41,721.21l-1.68.07a1.83,1.83,0,0,1-1.56-.17,19.16,19.16,0,0,1-2.75-2.5c-.83-1.14-2.56-1.46-2.81-3.11.09-.78.31-1.46,1.25-1.56a4.41,4.41,0,0,1,.72-.26,1.65,1.65,0,0,0,1.08,1.87c1.62.84,2.89,2.21,4.57,3a2.56,2.56,0,0,1,1.13,1A1.64,1.64,0,0,1,550.41,721.21Z" transform="translate(-452.47 -668.05)"/><path class="cls-139" d="M550.36,719.49l-1.08-.32a2.4,2.4,0,0,1-.44-2.36,4.7,4.7,0,0,1,3.21.94C551.89,718.72,551.06,719,550.36,719.49Z" transform="translate(-452.47 -668.05)"/><path class="cls-140" d="M553.18,721.42c-.11-.2-.23-.39-.34-.58l2.91-2.67c0,.59.08,1.18.11,1.76A2.16,2.16,0,0,1,553.18,721.42Z" transform="translate(-452.47 -668.05)"/><path class="cls-141" d="M548.84,716.81c.4.74,1,1.45.44,2.36-2.4-.11-3.41-2-4.62-3.62C546.23,715.36,547.41,716.5,548.84,716.81Z" transform="translate(-452.47 -668.05)"/><path class="cls-142" d="M480.59,725.35c.23-.63.45-1.26.68-1.9l8.06-4.46c.48,1.09,1.68.77,2.47,1.26l-3.34,2-2,.94c-1.45-.09-2.33,1.4-3.77,1.37Z" transform="translate(-452.47 -668.05)"/><path class="cls-26" d="M482.7,724.51c1.17-.69,2.27-1.59,3.77-1.37l-3.41,2C483,724.89,482.83,724.7,482.7,724.51Z" transform="translate(-452.47 -668.05)"/><path class="cls-143" d="M476.72,705.74l-1.23-.32c0-.21-.05-.43-.06-.64l1.17-.84,1.47-.59a1.26,1.26,0,0,1,1,.23C478.87,704.94,477.6,705.13,476.72,705.74Z" transform="translate(-452.47 -668.05)"/><path class="cls-144" d="M533.09,736c.83,1.4,1.87.74,2.88.27a.42.42,0,0,1,.46.47,3.59,3.59,0,0,0-1.71,3.52l-.05.29a.86.86,0,0,1-1.14.23,4.24,4.24,0,0,1-2-3.87A1.33,1.33,0,0,1,533.09,736Z" transform="translate(-452.47 -668.05)"/><path class="cls-86" d="M483.74,700.93c-.11-.21-.23-.42-.35-.63-.54-.06-.61-.28-.23-.66l4-2.19.63,1.29C486.59,699.78,484.71,699.51,483.74,700.93Z" transform="translate(-452.47 -668.05)"/><path class="cls-43" d="M483.16,699.64a1.68,1.68,0,0,0,.23.66l-.87,1.31c-1.51-.24-2.38,1.66-4,1.19C479.53,700.93,481.52,700.55,483.16,699.64Z" transform="translate(-452.47 -668.05)"/><path class="cls-145" d="M478.56,702.8c1.36-.25,2.31-1.88,4-1.19l-3.47,2-1-.23Z" transform="translate(-452.47 -668.05)"/><path class="cls-146" d="M559.28,719.78a8.46,8.46,0,0,0-2.61,3.14l-2.68,1.5c-.67-2.1.77-3,2.25-3.83l.66-.36C557.65,719.85,558.36,719.26,559.28,719.78Z" transform="translate(-452.47 -668.05)"/><path class="cls-54" d="M455.15,719.42l1.13.25c4.16,3,4.85,7.89,6.74,12.14l-.3,1.05c-2-3-2.89-6.71-5.79-9.15-1-.16-1.33-.84-1.27-1.78C455.48,721.09,454.59,720.4,455.15,719.42Z" transform="translate(-452.47 -668.05)"/><path class="cls-53" d="M463,731.81l-6.74-12.14.56-.35,1,1.36a4.84,4.84,0,0,1,1,.56,10.51,10.51,0,0,1,1.66,2.35,10.2,10.2,0,0,1,.57,1,4,4,0,0,1,.49,2.85c.37.64.74,1.27,1.1,1.91l.36.68.66,1.47Z" transform="translate(-452.47 -668.05)"/><path class="cls-147" d="M542.86,713.94l-1,1.43a3.93,3.93,0,0,1-.54,1,3.23,3.23,0,0,1-2.58,1c-1.09-.45-1-1.37-1-2.3,1.49-1.68-.79-2.33-1-3.56,0-.17,0-.35,0-.53C539.41,710.69,541,712.59,542.86,713.94Z" transform="translate(-452.47 -668.05)"/><path class="cls-148" d="M535.4,708.4l1.78,1.65c-.14.33-.28.66-.43,1l0,0a1,1,0,0,1-.54.83,1.2,1.2,0,0,1-1-.12,5.34,5.34,0,0,1-1-3C534.45,708.11,534.59,707.13,535.4,708.4Z" transform="translate(-452.47 -668.05)"/><path class="cls-75" d="M523.89,679.66l-1.11-.34c-2.93-.18-4.87,2-7.2,3.16-3.77,1.9-7.41,4.06-11.32,6.23,0-1.55,2.08-1.44,1.91-2.81,5.42-3,10.84-6,16.28-9,1.07-.59,2-1.56,3.45-1.3l-.47.61C524.18,677,525,678.75,523.89,679.66Z" transform="translate(-452.47 -668.05)"/><path class="cls-149" d="M457.78,728.57l-1.52-2.73c.12-.56,0-1.29.87-1.34l2.2,4Z" transform="translate(-452.47 -668.05)"/><path class="cls-150" d="M457.13,724.5l-.87,1.34c-.16-.17-.32-.34-.5-.5l-1.3-2.67,1.2-.74,1.27,1.78Z" transform="translate(-452.47 -668.05)"/><path class="cls-151" d="M556.24,720.59,554,724.42l-3.37,2a.46.46,0,0,1-.69.22,16,16,0,0,0,3.25-5.22l2.68-1.49Z" transform="translate(-452.47 -668.05)"/><path class="cls-152" d="M509.44,747.57c1,2.13-1,1.92-2,2.57-1.16-3.1-4-5.43-4.1-9,.21-.54.64-.46,1.07-.37s.79.32,1.19.48l1.24.41a2.9,2.9,0,0,1,1.18.7,8.81,8.81,0,0,1,.38.89c.11.66-.05,1.33.11,2C508.89,746,508.68,747,509.44,747.57Z" transform="translate(-452.47 -668.05)"/><path class="cls-153" d="M497.63,735.5l3.52,1.67c.61,1,1.88,1.49,2,2.82-.05.16-.1.33-.16.49a14.14,14.14,0,0,1-5.48-3.26C496.78,736.48,496.74,736,497.63,735.5Z" transform="translate(-452.47 -668.05)"/><path class="cls-154" d="M504.44,741.38l-1.07-.26c-.12-.22-.25-.43-.39-.64v-.06c.38-.89-.8-1.5-.44-2.39a2.44,2.44,0,0,1,2.08.63C505.12,739.6,506.07,740.59,504.44,741.38Z" transform="translate(-452.47 -668.05)"/><path class="cls-155" d="M526.59,729c-3.17.25-4.77-2.6-7.27-3.65.36-1.58,2.42-1.21,3-2.58v0a5.11,5.11,0,0,1,1.78-2.74,11.73,11.73,0,0,1,1.32-1,17.62,17.62,0,0,0,2.5-2.07c1-.79,2-1.66,3-2.5a3.94,3.94,0,0,1,2.11-.8c2,.29,1.92,1.61,1.54,3.12a56.9,56.9,0,0,1-2.45,7.19,5.22,5.22,0,0,1-2.47,2.76c-.54.32-1.11.57-1.65.86a5.27,5.27,0,0,0-1,.74A3.91,3.91,0,0,0,526.59,729Z" transform="translate(-452.47 -668.05)"/><path class="cls-156" d="M522.29,722.75c-.43,1.51-2,1.7-3,2.58-.15-.52-.29-1-.44-1.56Z" transform="translate(-452.47 -668.05)"/><path class="cls-157" d="M529.37,729.27l-.65.37a2.48,2.48,0,0,1-.37-.63l.17-.3a.65.65,0,0,1,.67,0A.35.35,0,0,1,529.37,729.27Z" transform="translate(-452.47 -668.05)"/><path class="cls-158" d="M528.35,729a.67.67,0,0,1-1-.31l.22-.31a1.07,1.07,0,0,1,.75,0,.4.4,0,0,1,.06.63Z" transform="translate(-452.47 -668.05)"/><path class="cls-159" d="M526.59,729l-.32-.53a.69.69,0,0,1,.72-.56.72.72,0,0,1,.31.86v0Z" transform="translate(-452.47 -668.05)"/><path class="cls-160" d="M524.58,720.68a3.78,3.78,0,0,1-2.3,2.09c-1.15-1.83.47-3.08,1.05-4.49s1.78-2.8.94-4.57c.56-.58,1.11-1.16,1.67-1.73a2,2,0,0,1,1.41,1.54,7.68,7.68,0,0,1-1.05,4.1C525.88,718.72,524.88,719.5,524.58,720.68Z" transform="translate(-452.47 -668.05)"/><path class="cls-161" d="M517.6,719.16l2.83-2.56c1.49,2.47-2.27,3.32-1.28,5.8C517.64,721.41,517.69,720.26,517.6,719.16Z" transform="translate(-452.47 -668.05)"/><path class="cls-162" d="M515,747.89l-1.33-.88,1.46-2.06,2.41-2.05c1.66.66,1.44,1.88.92,3.18.16,1.92-1.52,2.39-2.61,3.33l-1.15-.49-.06-.38A2.76,2.76,0,0,0,515,747.89Z" transform="translate(-452.47 -668.05)"/><path class="cls-163" d="M518.48,746.08l-.92-3.18,1.3-2.43,1.12-.91a2.4,2.4,0,0,1,1.89.85,2.73,2.73,0,0,1,.49,1,3.17,3.17,0,0,1-.59,2.56,6.24,6.24,0,0,1-2.54,1.89Z" transform="translate(-452.47 -668.05)"/><path class="cls-164" d="M513.56,746.73a1.85,1.85,0,0,1-.59.45,6.29,6.29,0,0,1-1.67.18c-.39-.51-.73-1.09-1.51-1.05a1.81,1.81,0,0,1-1-.74c-.6-1.79.4-2.28,1.91-2.36l.64-.23C511.1,744.81,512.54,745.64,513.56,746.73Z" transform="translate(-452.47 -668.05)"/><path class="cls-165" d="M507.94,742.91l-.38-.6c-.65-1.19-1.83-2.22-1.2-3.82l1.72.14c-.28,1.4,1.15,2.58.52,4C508.5,743,508.28,743.13,507.94,742.91Z" transform="translate(-452.47 -668.05)"/><path class="cls-60" d="M507.94,742.91c.22-.08.45-.16.66-.26l2.1.56c-1,.52-2,1.08-1.26,2.48-1,1.1-1.26-.39-1.9-.54Z" transform="translate(-452.47 -668.05)"/><path class="cls-166" d="M506.36,738.49c.42,1.27,1.81,2.23,1.2,3.82l-1.05-.29a13,13,0,0,1-1.28-2.66,2.9,2.9,0,0,1,.11-1l0-.17Z" transform="translate(-452.47 -668.05)"/><path class="cls-67" d="M502.55,738c.37.75,1,1.47.45,2.39-.38-1.22-1.95-1.76-1.85-3.25C501.85,737.08,502.21,737.53,502.55,738Z" transform="translate(-452.47 -668.05)"/><path class="cls-167" d="M505.34,738.39c.12.18.24.37.35.56-.67.87,1.67,2-.22,2.76l-1-.33c.06-.91.13-1.81.19-2.72A4.71,4.71,0,0,1,505.34,738.39Z" transform="translate(-452.47 -668.05)"/><path class="cls-168" d="M521.54,740.71c-.77,0-1.14-.63-1.56-1.15.17-1,.41-1.94,1.51-2.32l-.07,0C523.11,738.32,522.64,739.5,521.54,740.71Z" transform="translate(-452.47 -668.05)"/><path class="cls-169" d="M497.68,711.74l-.35,1c-3,.76-5.31,2.82-8.07,4-1.36-.26-2.33.8-3.49,1-1.67.35-3.64,2.12-5.08-.47,2.39-1.61,5-2.84,7.48-4.26,2.58-.63,4.61-2.38,7-3.38a3.76,3.76,0,0,1,1.29-.1l.06.09C496.92,710.36,497.3,711.05,497.68,711.74Z" transform="translate(-452.47 -668.05)"/><path class="cls-3" d="M500.82,688.9l-2.05,1c.45-1.63,2-1.8,3.21-2.49v.69Z" transform="translate(-452.47 -668.05)"/><path class="cls-170" d="M521.51,681.78c-.3,1.5-1.69,1.79-2.75,2.39q-7.62,4.29-15.3,8.48c-1.07.59-2,1.61-3.49,1.07Z" transform="translate(-452.47 -668.05)"/><path class="cls-170" d="M499.3,694.1c-.32,1.64-1.95,1.74-3,2.53C496.63,695,498.26,694.89,499.3,694.1Z" transform="translate(-452.47 -668.05)"/><path class="cls-105" d="M481.28,707.61l11-8.72a6.59,6.59,0,0,0,1.19,3.69l-.27.25-.33.16c-2.65-.33-4.27,1.85-6.45,2.66C484.68,706.28,483.42,708.09,481.28,707.61Z" transform="translate(-452.47 -668.05)"/><path class="cls-171" d="M552,692.13l1.43,1c-.49,1.84-2.15,2.41-3.56,3.21-4.86,2.75-9.77,5.43-14.65,8.16-5.75,3.06-11.66,5.81-17.21,9.24-.77.27-1.49.84-2.39.42.37-1.64,1.91-2,3.08-2.61,9.8-5.47,19.63-10.89,29.42-16.37,1.18-.65,2.72-.94,3.13-2.57Z" transform="translate(-452.47 -668.05)"/><path class="cls-172" d="M525.45,717.44l1.56-3.52a7.94,7.94,0,0,1,.92-3.12c.17-1.31,1.43-1.51,2.23-2.19a.81.81,0,0,1,.89-.45c1.77,1.94-.1,3.5-.58,5.17a23.08,23.08,0,0,1-2.25,4.36,4.77,4.77,0,0,1-2.36,2.07C525.06,719.1,525.45,718.23,525.45,717.44Z" transform="translate(-452.47 -668.05)"/><path class="cls-173" d="M518,713.7c1.22-2.57,4-3,6.1-4.28,3.37-2.07,6.91-3.87,10.38-5.78a.84.84,0,0,1,.3,1.17,3.55,3.55,0,0,1-.88,1.05c-5.08,2.5-10.4,4.57-15,8Z" transform="translate(-452.47 -668.05)"/><path class="cls-174" d="M518.92,713.84c4.55-4,10.16-6.17,15.39-9l.37.37c0,.17-.08.34-.11.51a4,4,0,0,1-.62.84c-.93.69-1.55,2-3,1.68l-.77.35C525.8,709.05,522.84,712.47,518.92,713.84Z" transform="translate(-452.47 -668.05)"/><path class="cls-175" d="M527.93,710.8c.69,1.33-.32,2.17-.92,3.12-.36-.65-.71-1.3-1.07-1.94Z" transform="translate(-452.47 -668.05)"/><path class="cls-176" d="M488.84,716.56c2.9-1.1,5.13-3.71,8.49-3.82l-8.73,4.86-.39-.61C488.26,716.61,488.46,716.45,488.84,716.56Z" transform="translate(-452.47 -668.05)"/><path class="cls-84" d="M497.6,719.56l-.59.6-4.07,2.14-2.53.6,6.85-3.9Z" transform="translate(-452.47 -668.05)"/><path class="cls-84" d="M488.47,723.76l-1.25.93-2.86,1.14A3.93,3.93,0,0,1,488.47,723.76Z" transform="translate(-452.47 -668.05)"/><path class="cls-177" d="M488.87,713.24l-8.17,4.42a.48.48,0,0,1-.79.16c3.44-3.38,8.08-4.77,12-7.31,1.47-1,3.49-1.45,1.95-4-1.44-2.35-2.79-.71-4.19-.09-3.35,1.49-6.14,4.16-9.9,4.82,3.87-3.46,8.68-5.33,13.16-7.75l3.51,6-.61.47C493.23,710.46,491.41,712.63,488.87,713.24Z" transform="translate(-452.47 -668.05)"/><path class="cls-105" d="M493,703.54l-13.16,7.75-1.46.5c4.14-4.07,9.71-5.78,14.5-8.79A2.48,2.48,0,0,1,493,703.54Z" transform="translate(-452.47 -668.05)"/><path class="cls-178" d="M549.93,726.64a2.42,2.42,0,0,0,.69-.22l2.66.07-1.21.91c-2.05.43-3.37,2.67-5.74,2.29-.57.82-1.15,1.12-1.78.06l.36-1.21A11.12,11.12,0,0,0,549.93,726.64Z" transform="translate(-452.47 -668.05)"/><path class="cls-179" d="M519.23,745.82a3.89,3.89,0,0,1,2.15-2.41A2.79,2.79,0,0,1,523,746.2a3.36,3.36,0,0,1-1.24,4.13Z" transform="translate(-452.47 -668.05)"/><path class="cls-180" d="M521.54,740.71c-.1-1.17,1-2.37-.12-3.5a3,3,0,0,1,2.53,1.17c.63,1.17,1,2.36.21,3.61a2,2,0,0,1-2.23-.63A1.18,1.18,0,0,0,521.54,740.71Z" transform="translate(-452.47 -668.05)"/><path class="cls-181" d="M521.93,741.36a2.81,2.81,0,0,1,2.23.63,5.16,5.16,0,0,1,.2.67,7.73,7.73,0,0,0-.83,3.08l-.57.46c-.58-.9-1.72-1.48-1.58-2.79C521.56,742.72,521.75,742,521.93,741.36Z" transform="translate(-452.47 -668.05)"/><path class="cls-180" d="M523.53,745.74a2.18,2.18,0,0,1,.83-3.08A3.93,3.93,0,0,1,523.53,745.74Z" transform="translate(-452.47 -668.05)"/><path class="cls-182" d="M526.68,738.68l1.34-.61c.91.42,1.66-.23,2.49-.38,2.25,1.32,2.59,3.76,3.44,5.9a2.24,2.24,0,0,1-1.28,2.45c-1.69.68-2.23-.56-2.86-1.69Z" transform="translate(-452.47 -668.05)"/><path class="cls-183" d="M534,743.59c-2.29-1.31-2.1-4.05-3.44-5.9l1.36-.77,2.21,4c.26.06.39.18.39.35s0,.27-.1.3l0-.07a1.61,1.61,0,0,0,.08,1.06,3.49,3.49,0,0,1,0,.72l-.3.16Z" transform="translate(-452.47 -668.05)"/><path class="cls-184" d="M534.52,743.25a1.22,1.22,0,0,0-.35-.57.51.51,0,0,1,.55-.54.87.87,0,0,0,.24.57A.7.7,0,0,1,534.52,743.25Z" transform="translate(-452.47 -668.05)"/><path class="cls-185" d="M514.1,749.2a4,4,0,0,1-.45-.57l.72-.41a.47.47,0,0,1,.38.36c0,.18,0,.28,0,.31v0l-.3.16Z" transform="translate(-452.47 -668.05)"/><path class="cls-186" d="M475.64,713.34l-1.19.78a9.46,9.46,0,0,1-4.85,2.58A7.16,7.16,0,0,1,475.64,713.34Z" transform="translate(-452.47 -668.05)"/><path class="cls-106" d="M469.6,716.7l4.84-2.58c-1.28,1.83-3.32,2.53-5.18,3.5C469.37,717.32,469.49,717,469.6,716.7Z" transform="translate(-452.47 -668.05)"/><path class="cls-187" d="M495.66,754.17a2.59,2.59,0,0,0,.63-.4l.48,1a2.13,2.13,0,0,0-.55.2Z" transform="translate(-452.47 -668.05)"/><path class="cls-188" d="M493.94,754.24c-.11-.19-.22-.39-.34-.57l.65-.43a5,5,0,0,0,.38.59Z" transform="translate(-452.47 -668.05)"/><path class="cls-189" d="M534.72,742.14l-.55.54a.88.88,0,0,1,.22-1.21Z" transform="translate(-452.47 -668.05)"/><path class="cls-190" d="M534.37,741.54c-.1-.21-.19-.43-.29-.65a1.12,1.12,0,0,1,.59-.33,4.21,4.21,0,0,1,.44.58Z" transform="translate(-452.47 -668.05)"/><path class="cls-191" d="M555.21,696.71l-18.84,10.23c-.88-.2-1.75-.42-1.7-1.6h0a2.47,2.47,0,0,1,.88-1.22c7-3.88,13.53-8.58,21.21-11.12l3.64-.11.37.73Z" transform="translate(-452.47 -668.05)"/><path class="cls-192" d="M556.78,693l-22.1,12.34a4.37,4.37,0,0,1-.37-.48c.17-.22.34-.44.52-.65A189.54,189.54,0,0,1,555,693Z" transform="translate(-452.47 -668.05)"/><path class="cls-193" d="M555,693l-20.21,11.21c-.11-.19-.22-.38-.32-.57q9.47-5.28,18.94-10.55Z" transform="translate(-452.47 -668.05)"/><path class="cls-194" d="M534.67,705.34l1.7,1.6-1,1.46c-.48-.33-.71-.21-.68.38a20.7,20.7,0,0,0,.06,4.09,1.32,1.32,0,0,1-1.47,1.22l-2.12,1c-1.18-.43-1.08-1.35-.72-2.21,1-2.44,1.57-5.12,3.42-7.18Z" transform="translate(-452.47 -668.05)"/><path class="cls-195" d="M507.54,745.15l1.9.54c.11.21.23.42.35.62-.11.42-.23.84-.35,1.26C508.2,747.24,508,746.11,507.54,745.15Z" transform="translate(-452.47 -668.05)"/><path class="cls-196" d="M511.3,747.36a1.54,1.54,0,0,1,1.67-.18,1.94,1.94,0,0,0-.21.34l-.5.12A.63.63,0,0,1,511.3,747.36Z" transform="translate(-452.47 -668.05)"/><path class="cls-197" d="M512.26,747.64a1.06,1.06,0,0,0,.5-.12c0,.26-.07.51-.11.77C512.51,748.08,512.38,747.86,512.26,747.64Z" transform="translate(-452.47 -668.05)"/><path class="cls-198" d="M514.71,748.89c-.11-.23-.23-.45-.34-.67.21-.12.43-.23.65-.33Z" transform="translate(-452.47 -668.05)"/><path class="cls-199" d="M479.91,717.82l.79-.16c2.79.17,5.44-.6,8.14-1.1l-.63.43a66,66,0,0,1-11.82,5.63c-1.72-.13-2.73,1.69-4.43,1.63-1.16.77-2.33,1.06-3.53.08.4-1.67,2-1.77,3.18-2.41,2,.13,3.05-2.2,5.07-2.13Z" transform="translate(-452.47 -668.05)"/><path class="cls-200" d="M472,724.25c1.46-.6,2.57-2.15,4.43-1.63C475,723.25,473.8,724.68,472,724.25Z" transform="translate(-452.47 -668.05)"/><path class="cls-200" d="M476.68,719.79c-1.91.19-2.51,3.49-5.07,2.13C473.24,721.06,474.61,719.59,476.68,719.79Z" transform="translate(-452.47 -668.05)"/><path class="cls-201" d="M462.43,718.09l1.17,2c-1.42,1.25-2.87,2.44-4.91,1.23.15-1.5,2-1.27,2.48-2.39Z" transform="translate(-452.47 -668.05)"/><path class="cls-202" d="M461.17,718.9c-.32,1.23-1.5,1.48-2.36,2.1-.08.43-.32.54-.7.34a.66.66,0,0,1-.31-.66Z" transform="translate(-452.47 -668.05)"/><path class="cls-203" d="M465.47,723.42l.75,1.45L462.11,727C461.32,724.27,461.7,723.86,465.47,723.42Z" transform="translate(-452.47 -668.05)"/><path class="cls-204" d="M465.47,723.42c-1.11,1.21-4,.77-3.36,3.58-.19.16-.39.31-.6.46L460,724.7a1.58,1.58,0,0,1,.74-.85c1.43-.53,2.74-1.51,4.4-1.1Z" transform="translate(-452.47 -668.05)"/><path class="cls-205" d="M458.11,721.34l.7-.34c1.76.52,3.06-1.31,4.79-.94.11.5.23,1,.34,1.51-.83,1.94-2.5,2.36-4.37,2.45Z" transform="translate(-452.47 -668.05)"/><path class="cls-206" d="M459.57,724l4.37-2.45c.47-.16.66.12.79.5a7,7,0,0,1-4,2.31l-.74.32C459.82,724.48,459.7,724.25,459.57,724Z" transform="translate(-452.47 -668.05)"/><path class="cls-203" d="M460.69,724.38l4-2.31a1.72,1.72,0,0,1,.36.68C463.62,723.29,462.53,724.84,460.69,724.38Z" transform="translate(-452.47 -668.05)"/><path class="cls-207" d="M544.55,729.75l1.78-.06a1.5,1.5,0,0,1,0,1.66c-1.76,1-3.49,2-3.46-1.41Z" transform="translate(-452.47 -668.05)"/><path class="cls-208" d="M547.61,720.94l1.12.34c-1,2.77-3.44,4.14-5.59,5.79a1.34,1.34,0,0,0-1.07,1.34c-.11.4-.21.8-.32,1.2l-3.11.62h-.87a4.88,4.88,0,0,0-.84-.13.9.9,0,0,0-.62.52l-1.07-.15a2.55,2.55,0,0,1-1-.57c-1.37-1.84-.52-3.65.24-5.35a15.09,15.09,0,0,0,1.51-5.4,3.16,3.16,0,0,1,2.28-1.58,4.53,4.53,0,0,1,4.26.12,6.08,6.08,0,0,1,1.4.75A11.35,11.35,0,0,0,547.61,720.94Z" transform="translate(-452.47 -668.05)"/><path class="cls-209" d="M536.26,719.48c1.11,1.47.36,2.7-.29,4.12-.89,1.94-2.45,3.9-1,6.26a1.37,1.37,0,0,1-.54.69l-.42.14-.43-.13a8.09,8.09,0,0,0-4.18-1.29c-.12-.19-.24-.38-.37-.56s-.09-.28-.13-.42a4.68,4.68,0,0,0-.27-1.22.74.74,0,0,1,0-.76,8.43,8.43,0,0,0,2.88-2.72C533.17,722.3,533.58,719.57,536.26,719.48Z" transform="translate(-452.47 -668.05)"/><path class="cls-210" d="M534.32,731.87c-.56,0-1.22.15-1.41-.58,0-.18.41-.48.64-.73l.05-.08a1,1,0,0,1,.69.51A1.55,1.55,0,0,1,534.32,731.87Z" transform="translate(-452.47 -668.05)"/><path class="cls-211" d="M536.7,729.87l1,.12c.23,0,.35.12.38.28s0,.25,0,.28c-.39.32-.71.2-1-.14-.24,0-.37-.11-.38-.26S536.65,729.9,536.7,729.87Z" transform="translate(-452.47 -668.05)"/><path class="cls-212" d="M538,730.55c-.12-.19-.24-.37-.35-.56l1,.24-.27.23Z" transform="translate(-452.47 -668.05)"/><path class="cls-213" d="M536.7,729.87a3,3,0,0,0,.33.54,2.29,2.29,0,0,1-.72.21C536.19,730.24,536.23,729.94,536.7,729.87Z" transform="translate(-452.47 -668.05)"/><path class="cls-214" d="M534.32,731.87l-.37-.7c.06-.15.13-.3.19-.46l.49.12Z" transform="translate(-452.47 -668.05)"/><path class="cls-215" d="M534.3,730.18a1.55,1.55,0,0,1,.64-.32,3.83,3.83,0,0,1,.3.61c-.2.13-.4.25-.61.36l0-.08c-.27,0-.41-.1-.43-.27S534.23,730.21,534.3,730.18Z" transform="translate(-452.47 -668.05)"/><path class="cls-216" d="M542.07,728.41c-.42-.41-1.28-.71-.82-1.46.58-1,1.27-.26,1.89.12A1.59,1.59,0,0,1,542.07,728.41Z" transform="translate(-452.47 -668.05)"/><path class="cls-217" d="M547.61,720.94c-1.56-.25-3.55.26-3.92-2.16a1.15,1.15,0,0,1,1.41-.8Z" transform="translate(-452.47 -668.05)"/><path class="cls-218" d="M545.1,718l-1.41.8-1-.29a2.37,2.37,0,0,1-1.47-2.69l.64-.43Z" transform="translate(-452.47 -668.05)"/><path class="cls-219" d="M536.26,719.48c-1.63,1.31-2.28,3.75-4.74,4.11.75-2.44,1.39-4.92,2.29-7.3.38-1,.42-1.63-.5-2.2.41-.42,1.08-.66,1-1.44a1.07,1.07,0,0,1,1.21-1l.76-.18c1.29.73,2.13,1.72,1.84,3.33l.53,2.45c.28,0,.41.12.37.26a.35.35,0,0,1-.18.26Z" transform="translate(-452.47 -668.05)"/><path class="cls-220" d="M538.08,714.83l-1.84-3.33a.78.78,0,0,1,.54-.44C539.44,713.12,539.63,713.66,538.08,714.83Z" transform="translate(-452.47 -668.05)"/><path class="cls-221" d="M538.8,717.8c-.06-.17-.12-.35-.19-.52l2.65-1.48,1.47,2.69C541.34,718.71,540.3,717,538.8,717.8Z" transform="translate(-452.47 -668.05)"/><path class="cls-222" d="M535.48,711.68l-1.21,1c-.82-1.4-.32-2.65.45-3.87A4.39,4.39,0,0,1,535.48,711.68Z" transform="translate(-452.47 -668.05)"/><path class="cls-223" d="M505.47,741.71c.07-.92.15-1.84.22-2.76.43,1,1.42,1.81.82,3.07Z" transform="translate(-452.47 -668.05)"/><path class="cls-224" d="M533.89,705.73c-.48,3.25-3.54,5.76-2.7,9.39a6.86,6.86,0,0,1-3,2.57c-.26-3.48,3.14-5.91,2.71-9.43Z" transform="translate(-452.47 -668.05)"/><path class="cls-225" d="M525.45,717.44l.41,2.32-1.28.92A4.52,4.52,0,0,1,525.45,717.44Z" transform="translate(-452.47 -668.05)"/><path class="cls-226" d="M528.64,726.31a5.36,5.36,0,0,0,.24.6,1.59,1.59,0,0,1-.58,1.23l-.38.27-.31.17-.31.17a5.23,5.23,0,0,0-.41-.63c-.35-.19-.41-.43-.15-.74Z" transform="translate(-452.47 -668.05)"/><path class="cls-227" d="M526.74,727.38c.06.24.12.49.16.74l-.32.15-.31.18C526.42,728.09,526.58,727.73,526.74,727.38Z" transform="translate(-452.47 -668.05)"/><path class="cls-228" d="M528.34,729.06l-.42-.65.3-.21a.64.64,0,0,1,.86.25l-.08.26-.36.12Z" transform="translate(-452.47 -668.05)"/><path class="cls-176" d="M488.87,713.24c2.28-1.17,4.17-3.2,7-3.19C493.52,711.09,491.64,713.12,488.87,713.24Z" transform="translate(-452.47 -668.05)"/><path class="cls-229" d="M529.08,728.45l-.86-.25c-.33-.72.28-.94.66-1.29C530.18,727.26,529.46,727.87,529.08,728.45Z" transform="translate(-452.47 -668.05)"/><path class="cls-230" d="M534.3,730.18a1.87,1.87,0,0,0,.35.57l-.7.42-.35-.69Z" transform="translate(-452.47 -668.05)"/></svg>
