<svg id="skrald" xmlns="http://www.w3.org/2000/svg" viewBox="0 0 69.83 66.43"><defs><style>.cls-1{fill:#e5e4df;}.cls-2{fill:#ebeae5;}.cls-3{fill:#e9e7e2;}.cls-4{fill:#f9f8f2;}.cls-5{fill:#f5f5f5;}.cls-6{fill:#fcfdfd;}.cls-7{fill:#eae8e3;}.cls-8{fill:#faf9f9;}.cls-9{fill:#fcfcfc;}.cls-10{fill:#cbc7c4;}.cls-11{fill:#e8e7e5;}.cls-12{fill:#f7f7f6;}.cls-13{fill:#dbd6cf;}.cls-14{fill:#c5bbb4;}.cls-15{fill:#6c6561;}.cls-16{fill:#f7f6f5;}.cls-17{fill:#dedddb;}.cls-18{fill:#e4e2de;}.cls-19{fill:#eae9e4;}.cls-20{fill:#f5f4f3;}.cls-21{fill:#c9beb7;}.cls-22{fill:#e0dbd8;}.cls-23{fill:#dfdbd6;}.cls-24{fill:#89827d;}.cls-25{fill:#e6e5df;}.cls-26{fill:#c6c5c5;}.cls-27{fill:#dedcd9;}.cls-28{fill:#f1f0f0;}.cls-29{fill:#f3f2ed;}.cls-30{fill:#b8b6b3;}.cls-31{fill:#d1c8c1;}.cls-32{fill:#96938f;}.cls-33{fill:#86817d;}.cls-34{fill:#dcdcda;}.cls-35{fill:#bbb3ad;}.cls-36{fill:#e0e0de;}.cls-37{fill:#6d6661;}.cls-38{fill:#868482;}.cls-39{fill:#d8d7d7;}.cls-40{fill:#7c7c79;}.cls-41{fill:#b4b4b3;}.cls-42{fill:#c5beb8;}.cls-43{fill:#e3e2e3;}.cls-44{fill:#d2d1cf;}.cls-45{fill:#c4bcb8;}.cls-46{fill:#d4d4d4;}.cls-47{fill:#e9e7e6;}.cls-48{fill:#d1d0cf;}.cls-49{fill:#e0dedd;}.cls-50{fill:#ecebe5;}.cls-51{fill:#e6e4e2;}.cls-52{fill:#d2cfcc;}.cls-53{fill:#e0dedc;}.cls-54{fill:#eeedea;}.cls-55{fill:#f7f6f1;}.cls-56{fill:#ecebea;}.cls-57{fill:#edece9;}.cls-58{fill:#a8a29d;}.cls-59{fill:#f1f0ee;}.cls-60{fill:#f8f7f7;}.cls-61{fill:#f4f4f3;}.cls-62{fill:#bdb8b4;}.cls-63{fill:#f8f7f2;}.cls-64{fill:#b3ada9;}.cls-65{fill:#f6f5f4;}.cls-66{fill:#fbfbf5;}.cls-67{fill:#e0dedb;}.cls-68{fill:#f8f8f7;}.cls-69{fill:#f8f8f6;}.cls-70{fill:#ebeae4;}.cls-71{fill:#eeede7;}.cls-72{fill:#d4cec8;}.cls-73{fill:#a6a19d;}.cls-74{fill:#f9f9f7;}.cls-75{fill:#f2f1ec;}.cls-76{fill:#cabfb8;}.cls-77{fill:#d3cbc5;}.cls-78{fill:#efeeed;}.cls-79{fill:#c4b7b0;}.cls-80{fill:#b3a39a;}.cls-81{fill:#e4dfdb;}.cls-82{fill:#c7bcb4;}.cls-83{fill:#e2e0db;}.cls-84{fill:#e9e9e4;}.cls-85{fill:#fcfcf7;}.cls-86{fill:#fdfcf6;}.cls-87{fill:#efeee9;}.cls-88{fill:#f9f9f3;}.cls-89{fill:#f6f6f0;}.cls-90{fill:#88807a;}.cls-91{fill:#f9f8f8;}.cls-92{fill:#848380;}.cls-93{fill:#e9e8e6;}.cls-94{fill:#cfc5bf;}.cls-95{fill:#cfccc6;}.cls-96{fill:#aca6a0;}.cls-97{fill:#7b6d67;}.cls-98{fill:#988c87;}.cls-99{fill:#bfb1aa;}.cls-100{fill:#b5a59d;}.cls-101{fill:#7a726d;}.cls-102{fill:#fcfcfb;}.cls-103{fill:#fafaf8;}.cls-104{fill:#d7d5d3;}.cls-105{fill:#d9d8d5;}.cls-106{fill:#e2dfd9;}.cls-107{fill:#dfdcd6;}.cls-108{fill:#d9d3cd;}.cls-109{fill:#f2f1ef;}.cls-110{fill:#c7c3be;}.cls-111{fill:#e3e1db;}.cls-112{fill:#f5f5f2;}.cls-113{fill:#a6a09b;}.cls-114{fill:#b6a69e;}.cls-115{fill:#88807b;}.cls-116{fill:#dad5d3;}.cls-117{fill:#d0c8c3;}.cls-118{fill:#bdb9b5;}.cls-119{fill:#fbfbf6;}.cls-120{fill:#d8d6d2;}.cls-121{fill:#f4f3f2;}.cls-122{fill:#c5c1be;}.cls-123{fill:#e5e3de;}.cls-124{fill:#eeede8;}.cls-125{fill:#776e6a;}.cls-126{fill:#f9f9f6;}.cls-127{fill:#b0aba8;}.cls-128{fill:#dbd8d4;}.cls-129{fill:#d8d1ca;}.cls-130{fill:#c6bab3;}.cls-131{fill:#ccc9c4;}.cls-132{fill:#c2bdb9;}.cls-133{fill:#a7a19c;}.cls-134{fill:#837b75;}.cls-135{fill:#615853;}.cls-136{fill:#9c948f;}.cls-137{fill:#d5d2ce;}.cls-138{fill:#fdfdfc;}.cls-139{fill:#d1cdca;}.cls-140{fill:#fbfaf8;}.cls-141{fill:#faf9f5;}.cls-142{fill:#fbfaf5;}.cls-143{fill:#8f8c89;}.cls-144{fill:#f1f0ea;}.cls-145{fill:#f6f6f1;}.cls-146{fill:#dbdad7;}.cls-147{fill:#cecbc8;}.cls-148{fill:#f8f7f6;}.cls-149{fill:#9a938e;}.cls-150{fill:#bab5b1;}.cls-151{fill:#cfc6be;}.cls-152{fill:#f0edeb;}.cls-153{fill:#cdc2bb;}.cls-154{fill:#d4cdc8;}.cls-155{fill:#dad4ce;}.cls-156{fill:#dbd9d4;}.cls-157{fill:#d5d3cf;}.cls-158{fill:#9e9792;}.cls-159{fill:#8c8784;}.cls-160{fill:#8f8b87;}.cls-161{fill:#ac9a91;}.cls-162{fill:#989794;}.cls-163{fill:#97908a;}.cls-164{fill:#ada7a2;}.cls-165{fill:#938b86;}.cls-166{fill:#c5c2be;}.cls-167{fill:#f4f4f2;}.cls-168{fill:#736b66;}.cls-169{fill:#dad8d3;}.cls-170{fill:#efeeec;}.cls-171{fill:#8e8781;}.cls-172{fill:#847c77;}.cls-173{fill:#a19590;}.cls-174{fill:#c9c0ba;}.cls-175{fill:#908883;}.cls-176{fill:#e7e6e0;}.cls-177{fill:#fbfbf9;}.cls-178{fill:#faf9f8;}.cls-179{fill:#e9e7e5;}.cls-180{fill:#efeeeb;}.cls-181{fill:#f3f2f2;}.cls-182{fill:#d5cdc7;}.cls-183{fill:#f8f8f8;}.cls-184{fill:#fcfbfb;}.cls-185{fill:#ddd8d2;}.cls-186{fill:#eceae9;}.cls-187{fill:#d1c8c2;}.cls-188{fill:#e1deda;}.cls-189{fill:#f8f7f4;}.cls-190{fill:#bdb8b3;}.cls-191{fill:#f1f0eb;}.cls-192{fill:#d2cdcb;}.cls-193{fill:#fcfcfa;}.cls-194{fill:#b6b1ac;}.cls-195{fill:#e4dfdd;}.cls-196{fill:#867c78;}.cls-197{fill:#edebe9;}.cls-198{fill:#e0ddd8;}.cls-199{fill:#e7e4e0;}.cls-200{fill:#99928d;}.cls-201{fill:#ada7a3;}.cls-202{fill:#ded9d3;}.cls-203{fill:#ece9e6;}.cls-204{fill:#f9f8f7;}.cls-205{fill:#f7f6f0;}.cls-206{fill:#f0efed;}.cls-207{fill:#f5f4f2;}.cls-208{fill:#fcfcf6;}.cls-209{fill:#fafaf4;}.cls-210{fill:#8d8681;}.cls-211{fill:#e8e7e3;}.cls-212{fill:#a19a95;}.cls-213{fill:#d8d2cb;}.cls-214{fill:#fcfbfa;}.cls-215{fill:#726963;}.cls-216{fill:#aba5a0;}.cls-217{fill:#8c857f;}.cls-218{fill:#c2c0bb;}.cls-219{fill:#f9f9f8;}.cls-220{fill:#e8e7e4;}.cls-221{fill:#e2e1de;}.cls-222{fill:#857c78;}.cls-223{fill:#f5f4f0;}.cls-224{fill:#e9e8e2;}.cls-225{fill:#e1ddd8;}.cls-226{fill:#e7e5e0;}.cls-227{fill:#d7d1ca;}.cls-228{fill:#7b716b;}.cls-229{fill:#f9f8f6;}.cls-230{fill:#b4aea9;}.cls-231{fill:#aba6a0;}.cls-232{fill:#a69e98;}.cls-233{fill:#b2a197;}.cls-234{fill:#edebe7;}.cls-235{fill:#f5f4ef;}.cls-236{fill:#bab4b2;}.cls-237{fill:#e2dfdd;}.cls-238{fill:#ecebe6;}.cls-239{fill:#736a66;}.cls-240{fill:#6c635e;}.cls-241{fill:#5e554e;}.cls-242{fill:#8f8884;}.cls-243{fill:#fafaf9;}.cls-244{fill:#f6f6f5;}.cls-245{fill:#af9d93;}.cls-246{fill:#837a75;}.cls-247{fill:#eae7e5;}.cls-248{fill:#c9beb8;}.cls-249{fill:#d1cbc8;}.cls-250{fill:#9c928c;}.cls-251{fill:#b0aba6;}.cls-252{fill:#c5b9b2;}.cls-253{fill:#b6a69d;}</style></defs><title>skrald_papirkule</title><path class="cls-1" d="M187.56,540l-.22.62c-.94,1.19.18,2.81-.72,4-.33,1.25-1.41,1.89-2.33,2.67l.05,0a23.2,23.2,0,0,1-4.1,1.45,3.37,3.37,0,0,1-3.2-.39,3.07,3.07,0,0,1-.9-1.65,4.51,4.51,0,0,1,0-2.22c.15-.38.29-.77.42-1.13,0-.08.1-.16.06-.28a4.63,4.63,0,0,1-.24.51c-.38.49-.81.83-1.52.49a2.2,2.2,0,0,1-.15-1.75c-.28-.33.9-1-.06-.93-2.09.26-3.9,1.57-6.18,1.28a1.22,1.22,0,0,1-.78-1c.11-1.55,1.2-2,2.62-2.47,1.74-.53,3.79-.25,5.23-1.52.19-.93-.37-1.88-.06-2.8,1-1.67,2.67-2.38,4.43-3.06a4.6,4.6,0,0,1,2,.33,5.86,5.86,0,0,1,1.31.69c2,1.34,3.91,2.74,3.43,5.39A11.35,11.35,0,0,0,187.56,540Z" transform="translate(-125.19 -489.1)"/><path class="cls-2" d="M127.75,520.69c-.06-.45-.12-.9-.17-1.35,1.86-2.15,1.58-5.26,3.45-7.41a1.43,1.43,0,0,1,1.36-.29c1.6.78,1.66,2.68,3,3.62.42.57.72,1.2,1.09,1.79a5.69,5.69,0,0,0,2.15,2c1,.71,2.35,1,3.05,2.06-.52,1.5-1.85.71-2.87.8a4.81,4.81,0,0,1-.92-.25c-1.41-1.1-2.58-1.67-2.91.71-.14,1-.73,1.88-.32,2.93.11.74,1.51,1.4.29,2.23-.43-.05.12.11-.31,0a24.51,24.51,0,0,0-8.76.39l.81-2.28C126.42,523.84,128.1,522.5,127.75,520.69Z" transform="translate(-125.19 -489.1)"/><path class="cls-3" d="M163.82,492.12c1.25-.73,2.47-1.51,3.77-2.17.81-.42,1.64-1.61,2.69-.12a12.26,12.26,0,0,1-2,7.33,2.92,2.92,0,0,1-1.13.82c-2,.25-3.36,1.49-4.74,2.69a5.74,5.74,0,0,0-2.73-.6c-1.82-.8-3.74-1.36-5.5-2.3-1.3-1-2.17-2.2-1.88-3.84,1.17-1.41,2.47-.53,3.68.06a31.84,31.84,0,0,0,5.83,2.56c2.36-.38,2.77-1.32,1.66-3.79A.49.49,0,0,1,163.82,492.12Z" transform="translate(-125.19 -489.1)"/><path class="cls-4" d="M125.92,527.91c2.45-5.26,6.1-1.41,9.34-.64a1.1,1.1,0,0,1,1.29.31.86.86,0,0,1-.18.8c-1.39.11-2.67.17-2.6,2.08,0,1.08-.87,2-1.5,2.92a11.33,11.33,0,0,1-3.1,1.68,2.12,2.12,0,0,1-2.89-1.57c-.43-1.1-.19-2.23-.39-3.35,0-.41-.13-.83.3-1.11Z" transform="translate(-125.19 -489.1)"/><path class="cls-5" d="M189.21,535.38l-.41,1.13a1.55,1.55,0,0,1-2-.73c-.46-1.3-.39-2.84-1.95-3.67-1.22-1.19-.66-2.46-.41-3.72.11-.54.11-1.1.19-1.65a16.84,16.84,0,0,0,.35-2.74,4.9,4.9,0,0,0-.13-1.52,14.1,14.1,0,0,1-.64-1.86,5.51,5.51,0,0,1,0-.81c.26-1.46-1.41-2-1.81-3.15.42-1,1.26-1.13,2.29-.81,1.73.85,3.19,1.89,3.42,3.89.53,4.36.93,8.73,1.73,13.07A2.58,2.58,0,0,1,189.21,535.38Z" transform="translate(-125.19 -489.1)"/><path class="cls-6" d="M192,521.45q1.08,4.92,2.15,9.84a2.31,2.31,0,0,1-1,2.89c-.06.19-.13.37-.19.56-1,.12-1.9.73-2.83-.16-.6-4.12-1.12-8.25-1.77-12.37a2.8,2.8,0,0,1,.61-2.83,1.48,1.48,0,0,1,.88-.15A25.23,25.23,0,0,1,192,521.45Z" transform="translate(-125.19 -489.1)"/><path class="cls-7" d="M131.35,510.35l-.83-3.48c.14-1.37,1.31-2.28,1.64-3.57a1,1,0,0,1,.69-.43,2.42,2.42,0,0,1,1.71.39c1,.88.45,1.81.23,2.73a13.41,13.41,0,0,1-1.13,1.47c2.52-.65,4.1-2.15,6-3.22a1.5,1.5,0,0,1,.91.09,3.54,3.54,0,0,1,1.26,2.37c.18,1.73-1.17,2.46-2.42,3.14-1.45.79-2.8,1.71-4.18,2.59a2.14,2.14,0,0,1-.91.06,2.74,2.74,0,0,1-.84-.41C132.87,511.36,131.64,511.35,131.35,510.35Z" transform="translate(-125.19 -489.1)"/><path class="cls-8" d="M162.22,500.61c.82-1.88,2-3.28,4.54-2.92a5.43,5.43,0,0,1,2.82.2,4.63,4.63,0,0,0,2.14.36A2.53,2.53,0,0,0,173.6,497a1.23,1.23,0,0,1,.6-.5c1.1.31,2,.81,2.1,2a3,3,0,0,0,1.81,2.32c1.29.69,2.64,1.56,2.16,3.31a1,1,0,0,1-.75.3,6.15,6.15,0,0,1-2.35-1,1.62,1.62,0,0,0-2.29-.92,5.63,5.63,0,0,1-2.76-.17c-.46-.12-.91-.28-1.36-.44-.88-.31-1.76-.64-2.64-.94a20.83,20.83,0,0,0-2.58-.68C164.32,499.71,163.47,501.35,162.22,500.61Z" transform="translate(-125.19 -489.1)"/><path class="cls-9" d="M189.87,519.46c-2.11,2.51-.07,5.27,0,7.88.09,2.39.76,4.79.32,7.19a.73.73,0,0,1-.31,1.05l-.71-.2c-.45-4.86-1.68-9.67-1.67-14.56,0-1.91-1.17-3.36-2.82-4.48,1.59-.62,2.95.16,4.33.85C189.76,517.82,190.48,518.46,189.87,519.46Z" transform="translate(-125.19 -489.1)"/><path class="cls-10" d="M172,499c-.7.41-1.37,0-2.05-.19-.5-.88-1.82-.57-2.31-1.46l2.67-7.51c1,1.17,1.05,2.64,1.45,4a3.6,3.6,0,0,0,2.47,2.64c0,.16-.07.33-.1.5C173.28,497.53,171.75,497.45,172,499Z" transform="translate(-125.19 -489.1)"/><path class="cls-11" d="M188.61,509.29a2.17,2.17,0,0,1,2.81.77c.51.79,0,1.53-.91,1.89-2.14.35-4-.68-6-1.29-1.34-.42-2.63-1.11-4.09-.88a1.81,1.81,0,0,1-1-.27,2,2,0,0,1-.44-.85c-.2-3.26-.1-3.32,3.51-2.16,1.08-.2,1.34.58,1.69,1.26A7.1,7.1,0,0,0,188.61,509.29Z" transform="translate(-125.19 -489.1)"/><path class="cls-12" d="M163.62,492.72c1.07.19,2.36.31,1.44,1.78-.73,1.18-.18,3.67-3.06,2.8a5.93,5.93,0,0,0-.75-.84c-.33-.4-.53-.87-.85-1.29-.66-.69-1.9-.9-2-2.06.15-.5.67-.43,1.06-.57l.68.22A7.94,7.94,0,0,1,163.62,492.72Z" transform="translate(-125.19 -489.1)"/><path class="cls-13" d="M139.87,504.34c-1.08,2-3.3,2.67-5.22,3.66-.58.3-1.17,1.23-1.89.36s-.12-1.52.7-2c.36-.21.69-.46,1-.69.83-.75,1-2,2.26-2.43a2.66,2.66,0,0,1,.55.16,3.74,3.74,0,0,1,1.81-.35C139.72,503.31,140.35,503.56,139.87,504.34Z" transform="translate(-125.19 -489.1)"/><path class="cls-14" d="M131.57,511.78c-.67,2-1.32,3.92-2,5.86-.32.88-.39,2.08-2,1.7a5.43,5.43,0,0,0,.09-.56,9.53,9.53,0,0,0-.11-3c.52-1.45-.41-3.35,1.35-4.4l.91-.37C130.52,511,131.21,511.05,131.57,511.78Z" transform="translate(-125.19 -489.1)"/><path class="cls-15" d="M152.6,553.42l-1.26-.38c-.18-.57-.82-.59-1.21-.92A8.31,8.31,0,0,1,148.4,551l-1-.89c-1.42-1.16-3.78-.91-4.66-2.87,0-.53.41-.79.87-1a2.49,2.49,0,0,1,1,0,4.57,4.57,0,0,1,1.34.53,8.76,8.76,0,0,0,4.22,1.52,3.87,3.87,0,0,1,1.73.64,5.45,5.45,0,0,1,1.34,1.83C153.55,551.76,154.66,553,152.6,553.42Z" transform="translate(-125.19 -489.1)"/><path class="cls-16" d="M152.63,494a6.86,6.86,0,0,0,1.69,3.17.94.94,0,0,1-.2,1.19,1.8,1.8,0,0,1-.89.15,17.16,17.16,0,0,0-4.13-.75,1.42,1.42,0,0,1-1.68-1.44,1.91,1.91,0,0,1,.23-.78c.68-.47,1.46-.8,2.11-1.31l1-.91A5.29,5.29,0,0,1,152.63,494Z" transform="translate(-125.19 -489.1)"/><path class="cls-1" d="M152.63,494a1.92,1.92,0,0,1-1.85-.68,3.76,3.76,0,0,1,4.13-1.77c.49,1.31,1.76,1.72,2.92,2.2a8.34,8.34,0,0,1,3.76,2.75l.41.79a22.6,22.6,0,0,1-6.66-2.86A2.36,2.36,0,0,0,152.63,494Z" transform="translate(-125.19 -489.1)"/><path class="cls-17" d="M180.09,509.53c.49-.94,1.28-.85,2.19-.52,2.74,1,5.49,2,8.23,2.94a5.07,5.07,0,0,0-.59,3.62l-.42.12a1.53,1.53,0,0,1-.79-.35,3.15,3.15,0,0,1-.4-2c-.33-1.34-1.54-1-2.46-1.22-1.39-.21-2.71-.75-4.09-1A2.42,2.42,0,0,1,180.09,509.53Z" transform="translate(-125.19 -489.1)"/><path class="cls-18" d="M161.59,496.51c-2-.93-3.74-2.16-5.87-2.75-1.22-.34-2-1.06-.81-2.2,1.63-.29,3.05.48,4.53,1l-.79.35c-.22,1.94,2.23,1,2.7,2.26Z" transform="translate(-125.19 -489.1)"/><path class="cls-19" d="M142.27,495.52l.63.17c1.71,2.79.25,4.66-1.79,6.36a1.16,1.16,0,0,1-1.43-.5,1.49,1.49,0,0,1-.19-1C140.25,498.8,140.24,496.63,142.27,495.52Z" transform="translate(-125.19 -489.1)"/><path class="cls-20" d="M182.56,506.5c-.89.71-1.79-.2-2.86-.12l0,2.42a1,1,0,0,1-.86-.21,5.75,5.75,0,0,1-1.31-2.36,3.32,3.32,0,0,1,0-.89,3.48,3.48,0,0,1,.29-.84c.39-.44.72-1,1.5-.45l.63.22c.27-.12.44-.45.83-.36Z" transform="translate(-125.19 -489.1)"/><path class="cls-21" d="M147.78,495.54c0,.19-.05.39-.07.58.22,2-.34,3.92-.61,5.87a4.37,4.37,0,0,1-1.15,2.27,1.22,1.22,0,0,1-1,.25,1.39,1.39,0,0,1-1.05-1.23c.57-2.69.91-5.49,3.2-7.46a3.5,3.5,0,0,1,.24-.42C147.52,495.2,147.69,495.24,147.78,495.54Z" transform="translate(-125.19 -489.1)"/><path class="cls-22" d="M152.6,553.42c1.13-.73.48-1.6.11-2.46.09-1,.93-.93,1.69-1a1.93,1.93,0,0,1,.86.33,2.1,2.1,0,0,1,.62,1.17,5.41,5.41,0,0,1-.5,2.86,1.84,1.84,0,0,1-1.68.16Z" transform="translate(-125.19 -489.1)"/><path class="cls-23" d="M143.75,495.4l2.69.29a.93.93,0,0,1-.23.94c-1.3,2.37-1.43,5.23-3.17,7.42a.92.92,0,0,1-1-.17c-.63-2.67,1.69-4.6,1.7-7.11C143.62,496.31,143.37,495.83,143.75,495.4Z" transform="translate(-125.19 -489.1)"/><path class="cls-24" d="M159.87,554.7l-2.13.06a3,3,0,0,0-.54-.33c0-.16,0-.32-.07-.48.73-1.71,1-3.66,2.43-5a1,1,0,0,1,.93.05,2.48,2.48,0,0,1,.14,2.14,2.71,2.71,0,0,0,0,1.57,2,2,0,0,1-.08,1.57A1.29,1.29,0,0,1,159.87,554.7Z" transform="translate(-125.19 -489.1)"/><path class="cls-25" d="M143.75,495.4l.41.76c-.12,2.38-1.37,4.4-2,6.6-.37.62-.9.47-1.45.18a.54.54,0,0,1,0-.9c1.36-1.9,2.67-3.82,2.22-6.35Z" transform="translate(-125.19 -489.1)"/><path class="cls-26" d="M128.91,511.37l-.78,4.33c-.18.6.21,1.39-.62,1.76C126.69,515.11,126,512.8,128.91,511.37Z" transform="translate(-125.19 -489.1)"/><path class="cls-27" d="M187.09,535.31c.25.81,1,.91,1.71,1.2l-.25.6c-1.12.22-1.6,1.35-2.68,1.62.76-2.58-1.24-4-2.91-5.55a2.68,2.68,0,0,1,2.5.22A3.79,3.79,0,0,1,187.09,535.31Z" transform="translate(-125.19 -489.1)"/><path class="cls-28" d="M180.7,503.91l-.83.36c.42-1.75-.93-2.54-2.22-3.35-1-.6-2.09-1.08-1.35-2.43a9.15,9.15,0,0,0,2.77,2.46C180.13,501.54,181.17,502.48,180.7,503.91Z" transform="translate(-125.19 -489.1)"/><path class="cls-29" d="M132.37,503.61a3.06,3.06,0,0,1-1.85,3.26l-.56-.21c-.29-1.09-1-2.22.12-3.2C130.85,503,131.62,502.67,132.37,503.61Z" transform="translate(-125.19 -489.1)"/><path class="cls-30" d="M185.87,538.73c.47-1.13.68-2.62,2.68-1.62l-1,2.84C186.82,539.77,186.08,539.58,185.87,538.73Z" transform="translate(-125.19 -489.1)"/><path class="cls-31" d="M146.23,496.25l.21-.56a6,6,0,0,1,.61.13c-.94,2.7-1.89,5.41-2.83,8.12-.95-.25-.76-.87-.53-1.42C144.56,500.44,144.86,498.13,146.23,496.25Z" transform="translate(-125.19 -489.1)"/><path class="cls-32" d="M186.21,544.05c1.08-.93-1.52-3.07,1.13-3.48a5.48,5.48,0,0,1-.21,4.42C186.38,545.06,186.37,544.49,186.21,544.05Z" transform="translate(-125.19 -489.1)"/><path class="cls-33" d="M186.21,544.05l.92.94a2.53,2.53,0,0,1-2.84,2.26Z" transform="translate(-125.19 -489.1)"/><path class="cls-34" d="M142.27,495.52a16.13,16.13,0,0,0-2.64,5.51.41.41,0,0,1-.6-.21C140.11,499.05,139.36,496.25,142.27,495.52Z" transform="translate(-125.19 -489.1)"/><path class="cls-35" d="M130.3,503.45c-.11,1.07-.23,2.14-.34,3.21-1.42-1.35-2-2.66.07-3.79C130.39,503,130.5,503.15,130.3,503.45Z" transform="translate(-125.19 -489.1)"/><path class="cls-36" d="M189.87,519.46a2,2,0,0,0-.79-1.58,1.66,1.66,0,0,1,.81-2.3h0c1.24,1,.42,2.4.8,3.56,0,.57-.28.64-.76.34Z" transform="translate(-125.19 -489.1)"/><path class="cls-37" d="M180.31,548.38a7.39,7.39,0,0,1,4-1.17c-.89.84-1.57,2-3.22,1.57A.62.62,0,0,1,180.31,548.38Z" transform="translate(-125.19 -489.1)"/><path class="cls-38" d="M180.31,548.38l.81.4-1.16.74c-1.13.26-2.07-.51-3.12-.66-.3-.26-.67-.51-.47-.94s.5-.17.78-.09Z" transform="translate(-125.19 -489.1)"/><path class="cls-3" d="M136.75,503.25a3.45,3.45,0,0,1-2.26,2.43c0-.66,0-1.33-.05-2,.09-1.18,1.21-.28,1.69-.68Z" transform="translate(-125.19 -489.1)"/><path class="cls-39" d="M193.12,534.18l1-2.89C195.15,532.73,195.82,534,193.12,534.18Z" transform="translate(-125.19 -489.1)"/><path class="cls-40" d="M153.7,554.48l1.41-.2c.33-.13.53-.46.91-.52a1.84,1.84,0,0,1,.73.12,1,1,0,0,1,.44.55h0C156.09,555.24,155,555.75,153.7,554.48Z" transform="translate(-125.19 -489.1)"/><path class="cls-41" d="M127.75,520.69c.83,1.91-.71,3.29-1,4.94C126,523.73,127.45,522.35,127.75,520.69Z" transform="translate(-125.19 -489.1)"/><path class="cls-42" d="M136.13,503l-1.69.68-1.83-.58a.43.43,0,0,1,0-.51q.15-.21.24-.18C134,501.87,135.05,502.65,136.13,503Z" transform="translate(-125.19 -489.1)"/><path class="cls-43" d="M188.61,509.29c-1.7.59-3-.52-4.5-1.05-.05,0-.09-.19-.06-.26s.13-.15.2-.22Z" transform="translate(-125.19 -489.1)"/><path class="cls-44" d="M139,500.82l.6.21h0a1.79,1.79,0,0,1-.84,2.32,1.46,1.46,0,0,1-1.5.06Z" transform="translate(-125.19 -489.1)"/><path class="cls-45" d="M132.81,502.42c-.07.23-.14.46-.2.69s-.15.33-.24.5l-2.07-.16-.27-.58C130.79,502,131.81,502.28,132.81,502.42Z" transform="translate(-125.19 -489.1)"/><path class="cls-46" d="M190,519.47l.76-.34a4,4,0,0,1,1.27,2.32C190.89,521.17,190,520.72,190,519.47Z" transform="translate(-125.19 -489.1)"/><path class="cls-9" d="M131.57,511.78l-1.75-.78.7-.27a4.36,4.36,0,0,1,3.18,1.11l.61.24c-.34,1-.85.77-1.44.13Z" transform="translate(-125.19 -489.1)"/><path class="cls-47" d="M163.62,492.72a7.15,7.15,0,0,1-3.5,0c1-1.17,2.5-.3,3.7-.64Z" transform="translate(-125.19 -489.1)"/><path class="cls-48" d="M189.92,535.58c.1-.35.21-.7.31-1.05l2.7.21A2.88,2.88,0,0,1,189.92,535.58Z" transform="translate(-125.19 -489.1)"/><path class="cls-2" d="M127.51,517.46c.43-.51-.25-1.41.62-1.76.74,1.19-.15,2.08-.46,3.08A1.19,1.19,0,0,1,127.51,517.46Z" transform="translate(-125.19 -489.1)"/><path class="cls-49" d="M176.88,548.51l3.08,1a1.23,1.23,0,0,1-1.41.2l-2.08-.1a.93.93,0,0,1-.16-.7A.71.71,0,0,1,176.88,548.51Z" transform="translate(-125.19 -489.1)"/><path class="cls-50" d="M133.7,511.84l-3.18-1.11.83-.38C132.18,510.78,133.32,510.76,133.7,511.84Z" transform="translate(-125.19 -489.1)"/><path class="cls-51" d="M147.78,495.54l-.49-.14a3.61,3.61,0,0,1,2.46-1.16A1.86,1.86,0,0,1,147.78,495.54Z" transform="translate(-125.19 -489.1)"/><path class="cls-52" d="M175.93,535.2c0,.92.89,1.76.43,2.72-1.07.43-1.64-.35-2.31-.91-.47-.48-.75-1.12-1.33-1.51-2.05-.41-3.72,1-5.73.75a1.5,1.5,0,0,1-.83-1.86c1.73-.75,2.25-2.94,4.4-3.2a2.23,2.23,0,0,1,.85.14,21.83,21.83,0,0,0,2.44,1.54,6.55,6.55,0,0,1,1.71,1.65Z" transform="translate(-125.19 -489.1)"/><path class="cls-53" d="M174.07,536.49c.76.48,1.52,1,2.29,1.43-1.31,2-3.8,1.16-5.67,1.79a5.28,5.28,0,0,0-2.6,1.78c-.87-.08-.87-.72-1-1.29a2.76,2.76,0,0,1,.37-1.69A10.06,10.06,0,0,1,174.07,536.49Z" transform="translate(-125.19 -489.1)"/><path class="cls-54" d="M175.56,542.18l-.6,1.72a.73.73,0,0,1-.09.79c-1.48.8-3.31,1.3-2.81,3.57.09.42-.53.49-1,.5-1.53-.36-1.67-1.66-2.16-2.73a2.28,2.28,0,0,1,0-1.76C170.7,542.49,172.72,541.32,175.56,542.18Z" transform="translate(-125.19 -489.1)"/><path class="cls-55" d="M167.85,540.09a1.36,1.36,0,0,0,.24,1.4c.14.26.28.53.41.8a.54.54,0,0,1,0,.49c-.08.15-.13.22-.17.21-1.13.46-2.5,0-3.59.66a2.13,2.13,0,0,1-.87,0,1.9,1.9,0,0,1-.75-.5,3,3,0,0,1-.32-.82,2.79,2.79,0,0,1,.41-2.13C164.66,538.52,166.14,537.72,167.85,540.09Z" transform="translate(-125.19 -489.1)"/><path class="cls-56" d="M168.31,542.85c.07-.19.13-.37.19-.56,1.87-.55,3.73-1.15,5.63-1.62,1.36-.34,2.14,0,1.43,1.51a15.72,15.72,0,0,0-6.41,2.26,1.2,1.2,0,0,1-.35-.49l-.3-.54A1,1,0,0,1,168.31,542.85Z" transform="translate(-125.19 -489.1)"/><path class="cls-28" d="M175.93,535.2l-.61-.28c-1.4-3.55-1-4.15,2.9-4.13a2.35,2.35,0,0,1,1.63,1.29C178.89,533.5,176.72,533.6,175.93,535.2Z" transform="translate(-125.19 -489.1)"/><path class="cls-57" d="M174.74,544.49c.07-.2.15-.39.22-.59a1.21,1.21,0,0,0,1-.92.93.93,0,0,1,1.24.44l-.4,1.16c-1.08.58-.27,2.1-1.38,2.67a1.28,1.28,0,0,1-1,0C173.11,546.15,173.74,545.3,174.74,544.49Z" transform="translate(-125.19 -489.1)"/><path class="cls-58" d="M176.88,548.51a2.74,2.74,0,0,0-.29.46c-.82.22-.27,2.16-1.94,1.32a2.94,2.94,0,0,1,.48-3.11l.14.09c.55-.08.32-1.48,1.41-.69.15.42.31.84.47,1.25C176.66,547.9,176.45,548.08,176.88,548.51Z" transform="translate(-125.19 -489.1)"/><path class="cls-59" d="M177.22,543.42,176,543c.4-.84.39-1.92,1.46-2.51C178.33,541.71,177.35,542.51,177.22,543.42Z" transform="translate(-125.19 -489.1)"/><path class="cls-60" d="M179.85,532.08,178,531.4c0-.61.49-.74,1-.79a3.75,3.75,0,0,1,2.76,1.22.72.72,0,0,1,0,.89Z" transform="translate(-125.19 -489.1)"/><path class="cls-61" d="M181.72,532.72c.06-.16.12-.32.19-.48l.42-.24a3.94,3.94,0,0,1,2.84.8c.37.37.63.75.28,1.23l-2.49-.85Z" transform="translate(-125.19 -489.1)"/><path class="cls-62" d="M176.68,546.58l-1.41.69c.4-.95.16-2.26,1.55-2.69C176.77,545.24,176.72,545.91,176.68,546.58Z" transform="translate(-125.19 -489.1)"/><path class="cls-63" d="M141.72,521.23c-1.16-.75-2.86-.56-3.63-2-.62-.74-1.6-1.17-2.08-2l-.85-1.58c1.8-1.73,4.59-2.08,6.34-3.87a2,2,0,0,1,.84-.26,1.92,1.92,0,0,1,1.25,1.17,27.84,27.84,0,0,1,.42,3.14c.18.77.37,1.53.62,2.29a8.59,8.59,0,0,1,.42,1.66,2.7,2.7,0,0,1-.27,1.79C143.69,522.62,142.67,522.39,141.72,521.23Z" transform="translate(-125.19 -489.1)"/><path class="cls-64" d="M141.72,521.23c1,.29,2.15,1.11,2.92-.27.58.09.72.5.81.95a4.4,4.4,0,0,1-.1,1.49c-.55,2.43-1.95,4.72-1.06,7.4a4.55,4.55,0,0,1-3.28-1,4.21,4.21,0,0,1-1.25-2.52c-.24-2-1.32-3.89-.92-5.93Z" transform="translate(-125.19 -489.1)"/><path class="cls-63" d="M133.8,525.46c-.75-2.46,1.49-4.11,1.11-6.48,1.79.37,2.31,1.51,3.2,2.21.57,2.26,0,4-2.21,5.12A2.56,2.56,0,0,1,133.8,525.46Z" transform="translate(-125.19 -489.1)"/><path class="cls-65" d="M142.18,511.67c-1.65,2.34-4.17,3.39-7,3.95a4.36,4.36,0,0,1-2.29-3.41,1.4,1.4,0,0,0,1.44-.13l.63.22a3.9,3.9,0,0,0,3.89-.58C139.88,511.05,141,510.31,142.18,511.67Z" transform="translate(-125.19 -489.1)"/><path class="cls-66" d="M135.68,526.1c1.62-1.25,1.67-3.25,2.43-4.91l.73.19c1.19,1.78,1.24,3.77,1.51,5.72-.72,1.41-1.88.69-2.95.41C136.74,527.13,136,526.83,135.68,526.1Z" transform="translate(-125.19 -489.1)"/><path class="cls-67" d="M135.68,526.1l1.86.73a.9.9,0,0,1-.26,1.16.67.67,0,0,1-.78-.25l-1.24-.47-1.46-1.81Z" transform="translate(-125.19 -489.1)"/><path class="cls-68" d="M136,517.2a3.6,3.6,0,0,1,2.08,2C137,518.9,136.11,518.4,136,517.2Z" transform="translate(-125.19 -489.1)"/><path class="cls-69" d="M162.22,500.61c1.19.18,1.43-2.37,3.11-.83,0,1.55-1.39,2.31-2.15,3.43-.72.44-1.58.23-2.36.36-.79-.41-1.92.5-2.51-.68a4.3,4.3,0,0,1,1.29-2.52,2.53,2.53,0,0,1,.75-.43C161.5,498.7,161.76,499.94,162.22,500.61Z" transform="translate(-125.19 -489.1)"/><path class="cls-29" d="M160.35,499.94l-.2.58c-.62.3-1,1-1.84,1a8.93,8.93,0,0,1-3.82-1.18,1.64,1.64,0,0,1-.57-2l.4-1.14C156.35,498.06,158.71,498.24,160.35,499.94Z" transform="translate(-125.19 -489.1)"/><path class="cls-12" d="M167.61,497.34c.84.37,1.88.48,2.31,1.46l-3.16-1.11Z" transform="translate(-125.19 -489.1)"/><path class="cls-70" d="M129.09,534.74c.36-1.29,1.81-1,2.69-1.59a2.26,2.26,0,0,1,1.62,0c1.66,2.11,1.31,4.57-1,7.27a2.86,2.86,0,0,1-2.9-.81,5,5,0,0,1-1.53-2.31A5.64,5.64,0,0,1,129.09,534.74Z" transform="translate(-125.19 -489.1)"/><path class="cls-71" d="M133,533.59l-1.24-.44c.22-1.53,1.45-2.58,1.4-4.42-.07-2.37,2-.54,3.12-.45a.56.56,0,0,1,.73.12c.43,1.07-.83,1.88-.36,3a1.7,1.7,0,0,1-.3,1.54C135.48,533.91,134.18,533.51,133,533.59Z" transform="translate(-125.19 -489.1)"/><path class="cls-72" d="M129.09,534.74c.86,1.25-.3,1.74-.93,2.43-.27.11-.42,0-.45-.25a2,2,0,0,1-1.33-2.52.76.76,0,0,1,.44-1.08A2,2,0,0,0,129.09,534.74Z" transform="translate(-125.19 -489.1)"/><path class="cls-73" d="M126.82,533.32c-.14.36-.29.72-.44,1.08a1.32,1.32,0,0,1-1.06-.94c-.44-.7.44-1.29.08-2l1.13-1.51C127.33,531.07,126.39,532.21,126.82,533.32Z" transform="translate(-125.19 -489.1)"/><path class="cls-74" d="M136.92,528.51l-.62-.23.2-.54.65.17a3.06,3.06,0,0,1,2.9.68.9.9,0,0,1,.29.89,1.59,1.59,0,0,1-1.4.36,3.64,3.64,0,0,1-1-.3A2.54,2.54,0,0,1,136.92,528.51Z" transform="translate(-125.19 -489.1)"/><path class="cls-75" d="M189.89,515.58l-.81,2.3-4.36-1.54a2,2,0,0,0-2.27.47,2.55,2.55,0,0,1-1.61.52c-.72,0-1.45,0-2.18-.06-.88-.09-1.76-.23-2.64-.33a4,4,0,0,1-1.31-.48c-.85-.66-2.08-1-2.13-2.32a1.16,1.16,0,0,1,.59-.64c3.13.44,6.24,1.12,9.4.91a30.25,30.25,0,0,1,6.67,1Z" transform="translate(-125.19 -489.1)"/><path class="cls-76" d="M184.53,520.8a2.11,2.11,0,0,1,.82,1.59,6.75,6.75,0,0,0-.47,1.83c.19,1.16-.64,2.07-.69,3.16a2.19,2.19,0,0,1-.92,1.46,2,2,0,0,1-1.44-.1,1.88,1.88,0,0,1-.71-.66,1.62,1.62,0,0,1,.08-.9,17.38,17.38,0,0,0,1.82-5.44,1.89,1.89,0,0,1,.67-1.17A.61.61,0,0,1,184.53,520.8Z" transform="translate(-125.19 -489.1)"/><path class="cls-77" d="M184.53,520.8l-.31-.11-.3-.11c-1,2.44-1.75,5-2.64,7.46l.63.25c-.89,1.33-1.81.61-2.74-.09a1.69,1.69,0,0,1-.06-1.5,28.88,28.88,0,0,0,2.57-6.85,1.33,1.33,0,0,1,.72-.7,2,2,0,0,1,2.28,1.12A4.61,4.61,0,0,0,184.53,520.8Z" transform="translate(-125.19 -489.1)"/><path class="cls-78" d="M184.68,520.27l-2.44-.89a.64.64,0,0,1-.73-.17,2,2,0,0,1-.17-.76,8.15,8.15,0,0,0-.35-1.52,1.46,1.46,0,0,1,1.46-.11C184.3,517.37,185.74,518.15,184.68,520.27Z" transform="translate(-125.19 -489.1)"/><path class="cls-79" d="M183.73,527c-.79-1.18,1.26-1.89.41-3.08.46-.18.85-.75,1.43-.14a3.88,3.88,0,0,1-.42,3A1.29,1.29,0,0,1,183.73,527Z" transform="translate(-125.19 -489.1)"/><path class="cls-78" d="M185.45,534l-.45-.8a1,1,0,0,1-.12-.67.73.73,0,0,1,.52-.41c2.19.35,1.61,1.9,1.69,3.16Z" transform="translate(-125.19 -489.1)"/><path class="cls-80" d="M185.4,532.15a1.74,1.74,0,0,1-.22.48c-3-.62-3-.62-1.45-3.62.38-.53.67-1.24,1.63-.73C185.24,529.56,183.85,530.8,185.4,532.15Z" transform="translate(-125.19 -489.1)"/><path class="cls-81" d="M185.36,528.28c-.6,0-.78.41-1,.81a.86.86,0,0,1-.72.14,1.07,1.07,0,0,1-.52-.55l.61-1.71,1.42-.2Z" transform="translate(-125.19 -489.1)"/><path class="cls-82" d="M185.57,523.75l-1.43.14c.25-.62.34-1.34,1.21-1.5A1.22,1.22,0,0,1,185.57,523.75Z" transform="translate(-125.19 -489.1)"/><path class="cls-50" d="M142.18,511.67c-2-.62-3,.86-4.42,1.56s-2.44,1.09-2.82-.93c.65-1.34,1.95-1.93,3.21-2.65s3.12-.95,3-2.93a1.27,1.27,0,0,1,1.32.17,2.24,2.24,0,0,1,.69,1.17,6.26,6.26,0,0,1,0,1.73c-.12.69-.05,1.47-.89,1.83Z" transform="translate(-125.19 -489.1)"/><path class="cls-83" d="M142.38,507.16l-1.25-.44c-.22-.72-.43-1.44-.65-2.16a.47.47,0,0,1,0-.52c.09-.15.17-.21.21-.2,1.21-.06,2.29.7,3.49.64a2.21,2.21,0,0,0,1.25-.15l0,0c.53-.27,1-.67,1.7-.38a1.07,1.07,0,0,1,.53.69C146.62,506.77,144.72,507.35,142.38,507.16Z" transform="translate(-125.19 -489.1)"/><path class="cls-84" d="M140.7,504c-.07.2-.14.39-.22.59l-.3-.11-.31-.11a1.33,1.33,0,0,0-1.07-1l.84-2.32,1,1-.2.58C140.71,503.06,141.32,503.46,140.7,504Z" transform="translate(-125.19 -489.1)"/><path class="cls-85" d="M162.64,503.38c.32-1.6,1.51-2.6,2.69-3.6a4.7,4.7,0,0,1,2.69.3c1.28,1.31.71,2.65.25,3.95s-.69,2.88-1.3,4.23a1,1,0,0,1-.89.42C164.12,507.36,161.62,506.31,162.64,503.38Z" transform="translate(-125.19 -489.1)"/><path class="cls-86" d="M172.38,501.63a4.82,4.82,0,0,0,2.7.3l.24.47c.09,2.39-1,4.41-2,6.47-.35.6-1.67.58-1.2,1.73a5.31,5.31,0,0,1-2,.4,4.31,4.31,0,0,1-1.75,0,2,2,0,0,1-.75-.5,1.59,1.59,0,0,1-.27-1.24,1.77,1.77,0,0,1,.56-.63C170,506.6,170.05,503.44,172.38,501.63Z" transform="translate(-125.19 -489.1)"/><path class="cls-87" d="M172,510.47l-.52-1.1.92,0a14.62,14.62,0,0,0,2.64-7.45h0c2-1.32,2.45-.36,2.3,1.46a3.17,3.17,0,0,1,.83,1.6l-.22.58c-.86,1.65-.15,4.13-2.7,4.91-.16.52-1.46-.92-1.07.52a.93.93,0,0,1-.73.44A1.47,1.47,0,0,1,172,510.47Z" transform="translate(-125.19 -489.1)"/><path class="cls-88" d="M166.43,508.54c-.38-3,2-5.43,1.59-8.46l3.12,1.11c-.6,2.83-1.43,5.57-3.43,7.81l-.12,0A.94.94,0,0,1,166.43,508.54Z" transform="translate(-125.19 -489.1)"/><path class="cls-89" d="M167.71,509c1.48-2.46,1.06-5.73,3.43-7.81l1.24.44c-.33,2.68-2.59,4.56-3.07,7.21C169.15,509.76,168.29,509.11,167.71,509Z" transform="translate(-125.19 -489.1)"/><path class="cls-90" d="M172,499c-.84-.5-1.21-1.16-.66-2,.79-1.17,1.85-.13,2.79-.07C175.1,499.22,172.75,498.37,172,499Z" transform="translate(-125.19 -489.1)"/><path class="cls-91" d="M178.21,505a2.17,2.17,0,0,1-.83-1.6c.67.07,1.56-.47,1.86.66A1.24,1.24,0,0,0,178.21,505Z" transform="translate(-125.19 -489.1)"/><path class="cls-92" d="M129.54,539.44l-1.78-1.2a1,1,0,0,1-.05-1.32,1.41,1.41,0,0,0,.45.25l1.53,1.82q.24.25.09.36T129.54,539.44Z" transform="translate(-125.19 -489.1)"/><path class="cls-93" d="M180.09,509.53l1.69,1.23a2.8,2.8,0,0,1,1.69.89c1.55,1.5,1.29,2.39-.88,2.69a4.46,4.46,0,0,1-3-.56c-.9-.66-2-1-2.82-1.79a1.08,1.08,0,0,1-.28-.81,1.6,1.6,0,0,1,.88-.85c.77-.26,1.35-.86,2.19-1Z" transform="translate(-125.19 -489.1)"/><path class="cls-94" d="M179.53,509.33c-.31.84-.62,1.68-1.91,1.27l-.21-.46c.1-.95,0-2.11,1.67-1.64l.57.3A2.4,2.4,0,0,0,179.53,509.33Z" transform="translate(-125.19 -489.1)"/><path class="cls-65" d="M161.35,495.15c-.9-.34-1.84-.62-2.7-1s-.87-.85,0-1.22C159,494.24,161,493.78,161.35,495.15Z" transform="translate(-125.19 -489.1)"/><path class="cls-95" d="M144.39,546.59a1.67,1.67,0,0,0-.49-.08,2,2,0,0,1-2.26-1.33c-1-1.91-2.48-3.62-3.14-5.68.58-1.45,2.16-.68,3.19-1.15a2.29,2.29,0,0,1,1.34.37,15,15,0,0,1,2.83,5,3.25,3.25,0,0,1-.05,1.32,4.05,4.05,0,0,1-.33.81A1.4,1.4,0,0,1,144.39,546.59Z" transform="translate(-125.19 -489.1)"/><path class="cls-96" d="M138.66,539.48c2.56,1.82,2.54,5.28,5.24,7l-.82.4c-1.31.52-2.35-.31-3.46-.76a13.55,13.55,0,0,1-2.68-6.44,1,1,0,0,1,1-.78A1,1,0,0,1,138.66,539.48Z" transform="translate(-125.19 -489.1)"/><path class="cls-97" d="M139.36,545.47l3.72,1.44c1.16,1.91,4.07,1.08,5.18,3.06a22.39,22.39,0,0,1-7.48-2.62c-.81-.43-2-.39-2.27-1.5a.47.47,0,0,1,0-.49c.08-.14.15-.2.19-.19A.65.65,0,0,1,139.36,545.47Z" transform="translate(-125.19 -489.1)"/><path class="cls-97" d="M150.06,548.79a4.41,4.41,0,0,1-4.31-1.64,1.36,1.36,0,0,1,1.61-1.11,4.81,4.81,0,0,1,2.65,2.32C150,548.5,150,548.64,150.06,548.79Z" transform="translate(-125.19 -489.1)"/><path class="cls-98" d="M140.78,547.35l7.48,2.62.47.79C146.11,549.55,143,549.48,140.78,547.35Z" transform="translate(-125.19 -489.1)"/><path class="cls-99" d="M152,549.37l-1.91-.58.12-.21c-.4-1.44.3-1.87,1.71-1.64,1.14.72,2.82.89,3,2.6C153.9,550.22,152.94,549.73,152,549.37Z" transform="translate(-125.19 -489.1)"/><path class="cls-100" d="M152,549.37c.95-.64,1.81.06,2.71.3a.39.39,0,0,1,0,.46c-.09.13-.16.19-.21.17l-1.81.66Z" transform="translate(-125.19 -489.1)"/><path class="cls-101" d="M146.76,546.28a1.17,1.17,0,0,1-1,.87l-1.36-.56c.18-.34.37-.68.56-1A1.37,1.37,0,0,1,146.76,546.28Z" transform="translate(-125.19 -489.1)"/><path class="cls-51" d="M146.32,502.12a14.41,14.41,0,0,1,1.39-6c1.41,1.91,4.08.3,5.58,2a3,3,0,0,1,.26.88c0,1-.36,2-.36,3.09a2.71,2.71,0,0,1-.94,1.93c-1.87,0-3.13-2.19-5.19-1.48A.92.92,0,0,1,146.32,502.12Z" transform="translate(-125.19 -489.1)"/><path class="cls-102" d="M153.1,498.68c.06-.2.12-.39.19-.58l.63.22.84,1.59c.38,2.89,2.42,1.08,3.74,1.33a2.18,2.18,0,0,1,1.65-.72l-1.64,2.66c-1.33,1.18-3.24.7-4.68,1.24a1.31,1.31,0,0,1,1.25.67c-.22,1.29-1.31.87-2.17.89a1.78,1.78,0,0,1-1.36-1.12.74.74,0,0,1,.26-.75l.88-2.34C152.27,500.65,153.55,499.81,153.1,498.68Z" transform="translate(-125.19 -489.1)"/><path class="cls-103" d="M179.54,513.22a8.18,8.18,0,0,0,2.75.57c2.55,0,1.3-1,.54-2,1.59-.53,3.12.55,4.7.39a2.7,2.7,0,0,1,1.72,1.21c-.22.64-.56,1.27,0,2-2.3,1-4.54-.34-6.82-.49-1.35-.26-3,.69-4-1C178.56,513.32,179,513.17,179.54,513.22Z" transform="translate(-125.19 -489.1)"/><path class="cls-104" d="M187.38,512.73a13.91,13.91,0,0,1-4.55-.91l-1.05-1.06c1.7-.63,3,.69,4.56,1C187.15,511.63,187.8,511.69,187.38,512.73Z" transform="translate(-125.19 -489.1)"/><path class="cls-105" d="M187.38,512.73c-.11-.55-.54-.8-1-1,1.51-.31,2.86-.36,2.91,1.69Z" transform="translate(-125.19 -489.1)"/><path class="cls-106" d="M177.62,510.6l-.83.35a1.46,1.46,0,0,1-1.85-.67c2.3-.8,1-3.76,3.05-4.71l-.18.56c1.08,1.58-.48,2.94-.17,4.46Z" transform="translate(-125.19 -489.1)"/><path class="cls-107" d="M177.64,510.59c-.62-1.54.38-2.95.17-4.46a4.11,4.11,0,0,1,1.27,2.37C177.94,508.78,178,509.81,177.64,510.59Z" transform="translate(-125.19 -489.1)"/><path class="cls-108" d="M145.41,504.33l-.76.4a1.65,1.65,0,0,1-1.86-.69c1.23-2.56,1.22-5.66,3.44-7.79-.51,2.6-2.54,4.79-2,7.69Z" transform="translate(-125.19 -489.1)"/><path class="cls-109" d="M146.32,502.12l.51.17c.8.62.95,1.28.21,2l-1.61.11C145.73,503.62,146,502.87,146.32,502.12Z" transform="translate(-125.19 -489.1)"/><path class="cls-110" d="M156,554.15l-.87.13a5,5,0,0,1,.41-3,2.49,2.49,0,0,1,.11-1.8A10,10,0,0,0,156.8,547c.3-.84.6-1.67.89-2.51a8.16,8.16,0,0,0,.59-2.49,10.37,10.37,0,0,0,.46-3.8,14.39,14.39,0,0,1,1.65-4.77c1-1,.72-2.52,1.66-3.52a1.3,1.3,0,0,1,.87-.15,6,6,0,0,1,1.43,3.21,36.58,36.58,0,0,0-1.16,3.77c-.15.29-.3.59-.44.89-1.64,4.38-3.12,8.8-4.71,13.19C157.6,552.09,157.23,553.38,156,554.15Z" transform="translate(-125.19 -489.1)"/><path class="cls-21" d="M154.52,550.3c0-.21.1-.42.16-.63-.34-1.37-2.36-.92-2.72-2.26a3.35,3.35,0,0,1,3.79,1.09,1.54,1.54,0,0,1-.66,1.93Z" transform="translate(-125.19 -489.1)"/><path class="cls-78" d="M155.09,550.43l.57-1.71a.54.54,0,0,1,.55-.52c.71.52.48,1-.06,1.37l-.63,1.67Z" transform="translate(-125.19 -489.1)"/><path class="cls-111" d="M141.72,503.06l2.44-6.9c.53,2.88-1.5,5.07-2,7.67C141.48,503.82,141.35,503.56,141.72,503.06Z" transform="translate(-125.19 -489.1)"/><path class="cls-112" d="M141.72,503.06c.14.26.29.51.44.77l.63.21,1.86.69c-1.47.66-2.64-.47-4-.75-.08-.46-.15-.91-.22-1.36Z" transform="translate(-125.19 -489.1)"/><path class="cls-113" d="M157.19,554.43l-.3-.07-.3-.11a76.85,76.85,0,0,1,6-16.7c1.52.88,1.11,2,.52,3-.76,2.91-.55,6.19-3.3,8.32C159,550.75,158.94,553,157.19,554.43Z" transform="translate(-125.19 -489.1)"/><path class="cls-114" d="M169,554.8a4.25,4.25,0,0,1-.27.52,17.07,17.07,0,0,0-4.19-.58c-1.28-.22-2.53-.7-3.83-.35l-.54-.12c-.1-.53-.21-1-.32-1.58a1.5,1.5,0,0,1,1.33-1.2c3.25,0,6.53-.52,9.7,1a1,1,0,0,1,.3.8C170.89,554.26,169.14,553.56,169,554.8Z" transform="translate(-125.19 -489.1)"/><path class="cls-115" d="M159.86,548.91q1.56-4.36,3.11-8.73a.41.41,0,0,1,.49.34c0,.65-.05,1.3-.07,1.94a38.58,38.58,0,0,0-1,4.64,2.84,2.84,0,0,1-.69,1.66,1.4,1.4,0,0,1-1.34.34Z" transform="translate(-125.19 -489.1)"/><path class="cls-116" d="M160.4,549.1l.86-.35a.68.68,0,0,1,.77.1,2.24,2.24,0,0,1,.36,1.56,1.39,1.39,0,0,1-.8.83c-.62,0-1.1.83-1.82.18Z" transform="translate(-125.19 -489.1)"/><path class="cls-117" d="M159.77,551.42l1.56-.69a.81.81,0,0,1-.41,1.17l-1,.79A1,1,0,0,1,159.77,551.42Z" transform="translate(-125.19 -489.1)"/><path class="cls-118" d="M162.93,537.76c-2.45,3.54-3,7.81-4.63,11.66-.66,1.57-1.14,3.22-1.71,4.83a6,6,0,0,0-.61-.1c2.24-5.94,3.64-12.2,6.74-17.82C163.3,536.77,163.73,537.22,162.93,537.76Z" transform="translate(-125.19 -489.1)"/><path class="cls-119" d="M162.93,537.76c-.07-.48-.14-1-.2-1.43l.2.1c1-.88.15-3.49,2.9-2.67a1.51,1.51,0,0,1,.58.65l.72,1.63c.31.27.7.47.85.88.1.64.26,1.29-.29,1.81.05.46.11.91.16,1.36-1.74-1.58-3.08-.68-4.39.43a2.27,2.27,0,0,1-.49-.34C163,539.38,162.94,538.57,162.93,537.76Z" transform="translate(-125.19 -489.1)"/><path class="cls-120" d="M167.69,538.73c0-.64-.05-1.28-.08-1.93,1.34-1.87,3.71-1.36,5.62-1.9a2.14,2.14,0,0,1,.84,1.59Z" transform="translate(-125.19 -489.1)"/><path class="cls-121" d="M178.83,531.05l-.85.35c-3.59-.69-2.81,1.63-2.66,3.52l-1.58-1.79a1.58,1.58,0,0,1-.59-1.13c.47-2.85,2.84-2.26,4.91-2.21C178.66,530,179.26,530.28,178.83,531.05Z" transform="translate(-125.19 -489.1)"/><path class="cls-122" d="M166.41,534.41a2.62,2.62,0,0,0-.48-.22.59.59,0,0,1-.08-.79c1.89-.76,1.91-3.33,4.16-3.74.72.45,1.47.87.92,1.83C168.83,531.68,169.07,535,166.41,534.41Z" transform="translate(-125.19 -489.1)"/><path class="cls-120" d="M173.23,534.9l-5.62,1.9-.48-.76C169.07,535.29,170.9,534.16,173.23,534.9Z" transform="translate(-125.19 -489.1)"/><path class="cls-62" d="M170.93,531.49l-.86-1.57a1.19,1.19,0,0,1,1.05-.56,2.17,2.17,0,0,1,.8.37c.55.53,1,1.1.69,1.88-.3.33-.62.59-1.06.11Z" transform="translate(-125.19 -489.1)"/><path class="cls-122" d="M171.55,531.72l.84-.37c.76-.09.8.53,1.05.95l.3.83A1.84,1.84,0,0,1,171.55,531.72Z" transform="translate(-125.19 -489.1)"/><path class="cls-91" d="M170.86,553.45l.21-.57a4.89,4.89,0,0,1-.7-1.93,4.16,4.16,0,0,1,0-1.65,1.49,1.49,0,0,1,.85-.89c-.75-2.84.78-3.86,3.5-3.92-.17.92-1.18,1.91.39,2.69a4.83,4.83,0,0,1-.28,3.12c-.64.88-.35,1.9-.38,2.87a5.72,5.72,0,0,1-2.4,1.26c-.12.17-.25.33-.37.49a1.35,1.35,0,0,1-.56-.09C170.76,554.41,170.29,554,170.86,553.45Z" transform="translate(-125.19 -489.1)"/><path class="cls-123" d="M171.24,548.41l-.44,1.17c-3,.83-5.94,1-8.87-.57l-.67-.26.59-1.77a.53.53,0,0,1,.12-.6,1.58,1.58,0,0,1,.68-.09c.62-.1.86-.79,1.53-.81,1.73.19,3.47-.2,5.19.34C170.38,546.45,169.89,548,171.24,548.41Z" transform="translate(-125.19 -489.1)"/><path class="cls-124" d="M169.37,545.82a7.23,7.23,0,0,1-5.59,0,1.62,1.62,0,0,1,.81-2.31c.8-2,2.45-.52,3.72-.62l.63.22a6.8,6.8,0,0,0,.42.8l-.21.57C169.23,544.9,169.3,545.36,169.37,545.82Z" transform="translate(-125.19 -489.1)"/><path class="cls-125" d="M162.19,546.57a1.9,1.9,0,0,1-.34.41,4.74,4.74,0,0,1,1.54-4.52,2.53,2.53,0,0,1,0,.55A3.25,3.25,0,0,1,162.19,546.57Z" transform="translate(-125.19 -489.1)"/><path class="cls-126" d="M164.59,543.47l-.81,2.31c-.42.21.18,1.52-1.05.86a6,6,0,0,1,1.08-3.39Z" transform="translate(-125.19 -489.1)"/><path class="cls-127" d="M163.81,543.25l-1.08,3.39a5,5,0,0,0-.54-.07l1.2-3.56A3.5,3.5,0,0,0,163.81,543.25Z" transform="translate(-125.19 -489.1)"/><path class="cls-128" d="M169.36,543.87l-.42-.8Z" transform="translate(-125.19 -489.1)"/><path class="cls-129" d="M178.83,531.05a1.49,1.49,0,0,0-1.11-1l-.25-.36c-.15-.71-.42-1.46.57-1.79a1.8,1.8,0,0,1,.88.2c.78.47,1.7.61,2.5,1,0,1,.71,1.93.49,2.94v.16Z" transform="translate(-125.19 -489.1)"/><path class="cls-130" d="M181.91,532.07c.21-.89-3.95-1.4-.41-2.59.63-.58,1.6-.08,2.25-.56l.61.17c.11,1.21-2.59,2.86.82,3.54l-.18.6Z" transform="translate(-125.19 -489.1)"/><path class="cls-131" d="M142.2,511.62c0-.64,0-1.28,0-1.92,1.27-1,2.41-2.3,4.43-1.3a1.16,1.16,0,0,1,.25,1.14,9.17,9.17,0,0,0-.71,1.72,1.79,1.79,0,0,1-.42.63,3.51,3.51,0,0,1-2.63.78Z" transform="translate(-125.19 -489.1)"/><path class="cls-132" d="M145,521.69c-.1-.25-.21-.49-.31-.73-.11-.49-.21-1-.32-1.47a1.26,1.26,0,0,1,1.22,0,16,16,0,0,1,2,1.72,4.18,4.18,0,0,1,.57.69,2,2,0,0,1,.29,1.27A2.1,2.1,0,0,1,146,524.9C144.56,524.09,145.36,522.74,145,521.69Z" transform="translate(-125.19 -489.1)"/><path class="cls-133" d="M143.14,512.67a4.11,4.11,0,0,1,2.48-1.06,2.28,2.28,0,0,1,.22,3,3.77,3.77,0,0,1-2.36,1.34A6.16,6.16,0,0,1,143.14,512.67Z" transform="translate(-125.19 -489.1)"/><path class="cls-134" d="M143.48,516a1.88,1.88,0,0,1,1.79-1.27,1.55,1.55,0,0,1,.86,1,2.92,2.92,0,0,1,0,2.06,1.47,1.47,0,0,1-.64.54,2,2,0,0,1-1.31-.13C143.91,517.39,143.7,516.67,143.48,516Z" transform="translate(-125.19 -489.1)"/><path class="cls-135" d="M144.13,518.1l1.3-.18c.83.65,1.06,1.29.1,1.93l-1.21-.36Z" transform="translate(-125.19 -489.1)"/><path class="cls-136" d="M145,521.69l1,2.94a5.05,5.05,0,0,1,.82,3.84,10.36,10.36,0,0,1-.64,2.52,1.53,1.53,0,0,1-1.19.56l-.44-.16-.23-.39.24-.36c-1.9-1.44-2.19-2.81-.71-4.72C144.66,524.83,144.6,523.12,145,521.69Z" transform="translate(-125.19 -489.1)"/><path class="cls-137" d="M140.22,529.12l-3.07-1.21.39-1.08c.93.21,1.83.89,2.81.27l.58,2.11A.52.52,0,0,1,140.22,529.12Z" transform="translate(-125.19 -489.1)"/><path class="cls-138" d="M140.22,529.12l.71.09,3.6,1.43a4.1,4.1,0,0,1-.06.49c-1.13.58-2.2.11-3.27-.34a2.3,2.3,0,0,1-1.16-1.18Z" transform="translate(-125.19 -489.1)"/><path class="cls-139" d="M162.64,503.38c-.2,2.31,2.35,3.18,3.15,5-3.3.47-6-1.16-8.82-2.52-.86-.8-.71-1.42.37-1.68a33,33,0,0,1,3.25-.84C161.27,503.16,161.94,502.33,162.64,503.38Z" transform="translate(-125.19 -489.1)"/><path class="cls-140" d="M160.59,503.31c-.91,1.41-2.83,1-4.07,1.86-.41.68-.9.66-1.44.06-.5-.43-2.56-.38-.58-1.56,1.25-.75,2.68-.29,4-.49C159.2,503.44,159.92,502.22,160.59,503.31Z" transform="translate(-125.19 -489.1)"/><path class="cls-141" d="M158.5,501.24c-.87,1.52-2.47,1.16-3.7.72s-.06-1.34,0-2C155.91,500.62,157.47,500.18,158.5,501.24Z" transform="translate(-125.19 -489.1)"/><path class="cls-142" d="M141.28,530.05l3.19,1.08,0,0c3,1.56,3,1.61.45,3.57-1,.31-2.13-.07-3.16.17-2,.9-2.5,2.92-3.69,4.42l-.82.35a1.49,1.49,0,0,1-1,.69,13.8,13.8,0,0,0-2.4.49,2.22,2.22,0,0,1-1.25.08,1,1,0,0,1-.52-.61c.46-2.2,2.74-4.08.94-6.67l3.1-.85a4,4,0,0,1,2.42-.87C140.28,532.33,140.86,531.29,141.28,530.05Z" transform="translate(-125.19 -489.1)"/><path class="cls-143" d="M132.08,540.26l.56.37c.1.69-.51.68-.94.85-.66-.73-1.81-1-2.16-2l.15-.45C130.52,539.35,131.05,540.25,132.08,540.26Z" transform="translate(-125.19 -489.1)"/><path class="cls-29" d="M138.4,532.26l-2.28.48a1.21,1.21,0,0,0-.21-1.36,2.87,2.87,0,0,1,2.26-2.43l.62.22C139.42,530.32,139.77,531.43,138.4,532.26Z" transform="translate(-125.19 -489.1)"/><path class="cls-144" d="M138.17,529l-2.26,2.43c-1-1.43.82-1.86,1-2.87Z" transform="translate(-125.19 -489.1)"/><path class="cls-145" d="M138.4,532.26l.39-3.09,1.25.44,1.24.44C142,532.73,140.79,533.14,138.4,532.26Z" transform="translate(-125.19 -489.1)"/><path class="cls-63" d="M178.68,513.56c.8,1.72,2.64.46,3.74,1.32-3.17.51-6.29.5-9.2-1.36l-.06-.43a3.81,3.81,0,0,1,2.57-.79C176.89,512.33,178,512.36,178.68,513.56Z" transform="translate(-125.19 -489.1)"/><path class="cls-146" d="M181,516.93c.76.34,2,.48.81,1.62-.34.16-.56.51-1,.51a3.39,3.39,0,0,1-1.82-.78,1.61,1.61,0,0,1-.08-1.46C179.6,516.35,180.29,516.73,181,516.93Z" transform="translate(-125.19 -489.1)"/><path class="cls-147" d="M178.9,516.82a1.24,1.24,0,0,1,.22,1.39,1.54,1.54,0,0,1-1,1.14,1.79,1.79,0,0,1-.82-.13,1.66,1.66,0,0,1-.71-.94,8,8,0,0,1-.38-1.8C177.13,516,178,516.61,178.9,516.82Z" transform="translate(-125.19 -489.1)"/><path class="cls-148" d="M172.88,514c.13,1.2,1.8,1,2.11,2a3,3,0,0,1-2.32.35,2.16,2.16,0,0,1-1.71-1.62,1.35,1.35,0,0,1,.58-1.22A1.29,1.29,0,0,1,172.88,514Z" transform="translate(-125.19 -489.1)"/><path class="cls-149" d="M172.88,514l-1.23-.29c-1.13-.85-1.56-1.79-.55-2.89,2,.1,2.13,1.29,1.91,2.7l.21,0A1.28,1.28,0,0,0,172.88,514Z" transform="translate(-125.19 -489.1)"/><path class="cls-150" d="M172.85,516c.7-.47,1.43,0,2.14.06l1.18.46c.75.36,1.16.87.89,1.66a1.46,1.46,0,0,1-1.32,0l-2-1.12A1.73,1.73,0,0,1,172.85,516Z" transform="translate(-125.19 -489.1)"/><path class="cls-151" d="M181.28,528a10,10,0,0,1,2.64-7.46c-.14.38-.28.76-.41,1.14a12.12,12.12,0,0,1-2,5.75Z" transform="translate(-125.19 -489.1)"/><path class="cls-152" d="M183.75,528.92c-.43,1.15-1.38.72-2.25.56l-3.13-1.17a.47.47,0,0,1-.05-.49c.07-.15.14-.21.18-.2a.7.7,0,0,1,.74.26c.87.3,1.7,1,2.67.41l1.21.39Z" transform="translate(-125.19 -489.1)"/><path class="cls-153" d="M181.47,527.47l2-5.75A6.39,6.39,0,0,1,181.47,527.47Z" transform="translate(-125.19 -489.1)"/><path class="cls-129" d="M179.24,527.88l-.66-.17a2.17,2.17,0,0,1-.33-1.1c.8-2.63.94-5.56,3.37-7.49l.62.26c-.07.17-.13.35-.2.53a17.2,17.2,0,0,1-2.44,6.9Z" transform="translate(-125.19 -489.1)"/><path class="cls-154" d="M179.6,526.81q1.23-3.45,2.44-6.9A8.86,8.86,0,0,1,179.6,526.81Z" transform="translate(-125.19 -489.1)"/><path class="cls-155" d="M181.62,519.12l-2.85,8a.69.69,0,0,1-.77-.1c-1-.68.41-1.56-.34-2.27a1.66,1.66,0,0,1,.26-1.91,1.63,1.63,0,0,0,.84-2,6.54,6.54,0,0,1,.61-1.89c.5-.36,1.1.09,1.62-.09l.81-.35Z" transform="translate(-125.19 -489.1)"/><path class="cls-156" d="M142.38,507.16c1.7-.93,3.91-1.06,5.16-2.71a1.07,1.07,0,0,1,.83.19,2.1,2.1,0,0,1,.51,1.59,2.61,2.61,0,0,1-.41,1.18,1.87,1.87,0,0,1-.64.54,2.74,2.74,0,0,1-1.3-.06c-1.28-.44-2.45.73-3.75.07Z" transform="translate(-125.19 -489.1)"/><path class="cls-157" d="M142.78,508c1.27-.12,2.24-1.46,3.74-.61.27.43.77.84.21,1.35-1.77-.57-2.93.93-4.51,1C142.41,509.12,142.6,508.54,142.78,508Z" transform="translate(-125.19 -489.1)"/><path class="cls-158" d="M148.14,504.7l-.29-.16-.31-.09-.24-.11-.26-.08-.21-2c2.46-1.55,3.85-.21,5,1.82a1.88,1.88,0,0,0-.08.52C150.62,505.79,149.37,505.2,148.14,504.7Z" transform="translate(-125.19 -489.1)"/><path class="cls-159" d="M160.73,554.39c1.34-1.33,2.73-.22,4.11.13.75,0,.73.31.45.77Z" transform="translate(-125.19 -489.1)"/><path class="cls-160" d="M165.29,555.29l-.45-.77a4.24,4.24,0,0,1,3.91.8C167.62,555.92,166.43,555,165.29,555.29Z" transform="translate(-125.19 -489.1)"/><path class="cls-161" d="M170.86,553.45c.1.46.19.92.28,1.38l-2.12,0C168.69,553.24,170,553.6,170.86,553.45Z" transform="translate(-125.19 -489.1)"/><path class="cls-162" d="M172.07,554.43c.69-.58,1.15-1.54,2.4-1.25C174,554.18,173.53,555.05,172.07,554.43Z" transform="translate(-125.19 -489.1)"/><path class="cls-163" d="M155.08,505.23c.5.16,1,.34,1.44-.06l9.27,3.18.64.19,1.16.5c.1.45.19.89.29,1.34-1.4.85-3-.25-4.43.16a5.71,5.71,0,0,1-1.42-.19c-.95-.26-1.87-.6-2.8-.92a14.19,14.19,0,0,1-1.41-.55,8.8,8.8,0,0,1-1.35-.73c-1.13-1-3-1-3.74-2.49C153.42,505.17,154.45,506,155.08,505.23Z" transform="translate(-125.19 -489.1)"/><path class="cls-90" d="M168.46,510.8l1.49-.31.35.27c-.21,1.46,2.21,3.61-1.06,4.27a2.93,2.93,0,0,1-.88-.18,2.28,2.28,0,0,1-1.15-1.31,2.6,2.6,0,0,1,0-1.24,3,3,0,0,1,.52-1.09A1.68,1.68,0,0,1,168.46,510.8Z" transform="translate(-125.19 -489.1)"/><path class="cls-8" d="M175.08,501.94c1.66.69.48,1.5.12,2.13-1,1.73-.37,4.28-2.76,5.32Z" transform="translate(-125.19 -489.1)"/><path class="cls-164" d="M173,513.5c-.54-.89-.34-2.24-1.85-2.54a1.31,1.31,0,0,1-1.22-.3v-.17c.67-.45,1.39-.05,2.09,0l1.81.65c1.22.09,2.71,0,1.49,1.8Z" transform="translate(-125.19 -489.1)"/><path class="cls-165" d="M168.46,510.8a.88.88,0,0,1-.12.32c-1.56,1.18-3,.7-4.34-.52l-.19-.48c1.38-1.31,2.71.46,4.07.26Z" transform="translate(-125.19 -489.1)"/><path class="cls-166" d="M175.34,512.92c.39-1.23-.75-1.37-1.49-1.8a2.6,2.6,0,0,0,.28-.45,2.87,2.87,0,0,1,2.47.79c1,.58,2.41.48,2.94,1.76l-.86.34A7.68,7.68,0,0,0,175.34,512.92Z" transform="translate(-125.19 -489.1)"/><path class="cls-167" d="M176.6,511.46l-2.47-.79c-.28-1.08.5-.33.81-.39l1.85.67A5.27,5.27,0,0,1,176.6,511.46Z" transform="translate(-125.19 -489.1)"/><path class="cls-168" d="M131.7,541.48l.94-.85.92-.37c2.16-.1,2.6,2,4,2.84.4.72,1.8,1,1.09,2.21l-.18.54C135.8,545,133.87,543.08,131.7,541.48Z" transform="translate(-125.19 -489.1)"/><path class="cls-169" d="M141.31,533.94a6.86,6.86,0,0,1,3.34.49,2.35,2.35,0,0,1,2.4.53c.85,1.16.2,2.44.5,3.64a1.28,1.28,0,0,1-.91,1c-1.27.24-2.57.74-3.67-.52l-1.17-.42c-2,.05-1.67-1.24-1.46-2.25A10.87,10.87,0,0,1,141.31,533.94Z" transform="translate(-125.19 -489.1)"/><path class="cls-170" d="M141.31,533.94c1,1.53-1.75,3.22.49,4.7-.59,1.58-2.27.07-3.14.84l-.63-.22C137.64,536.64,139.74,535.44,141.31,533.94Z" transform="translate(-125.19 -489.1)"/><path class="cls-123" d="M143,539.06h3.57c1.12.94.64,2.09.65,3.19a2.86,2.86,0,0,1-.22.81,1.4,1.4,0,0,1-1.48.75A15.11,15.11,0,0,1,143,539.06Z" transform="translate(-125.19 -489.1)"/><path class="cls-171" d="M145.49,543.81l1.08-.89c.42-.33.92-.63,1.36-.1a1.26,1.26,0,0,1-.16,1.66c-.77.52-1.54,1.09-2.61.51Z" transform="translate(-125.19 -489.1)"/><path class="cls-172" d="M145.16,545c.74-.15,1.3-.92,2.22-.49a.53.53,0,0,1,.64.32c0,.79-.55,1.1-1.19,1.37l-.07.09-1.81-.7Z" transform="translate(-125.19 -489.1)"/><path class="cls-173" d="M138.69,545.31l-1.49-1.82c-.44-1.16-2.48-2.07-.82-3.56l.83-.32c.47,2,2.33,3.66,2.15,5.86Z" transform="translate(-125.19 -489.1)"/><path class="cls-174" d="M146.83,546.19l1-1.53.45-.14a31.19,31.19,0,0,1,7.45,3.23c.07.14.14.28.2.42l-.28.55-3.7-1.31c-1.19-.38-1.55.32-1.78,1.18C148.62,548.36,148.25,546.6,146.83,546.19Z" transform="translate(-125.19 -489.1)"/><path class="cls-16" d="M153.1,498.68c.74,1.17-.21,2.07-.41,3.09C152,500.6,152.89,499.7,153.1,498.68Z" transform="translate(-125.19 -489.1)"/><path class="cls-175" d="M152.73,505.66c1.37.72,3.17.59,4.17,2-.75.57-1.67.23-2.52.26a10.6,10.6,0,0,1-2.9-.43,4,4,0,0,1-.75-.3,6.27,6.27,0,0,0-1.77-.69,1.28,1.28,0,0,1-.6-.44c-.07-.47-.15-.93-.22-1.39,1.15-.65,2.42.36,3.59-.07C152.06,505,152.4,505.32,152.73,505.66Z" transform="translate(-125.19 -489.1)"/><path class="cls-176" d="M156.15,549.57a1.38,1.38,0,0,0-.21-1.4h-.06c-1.84-2.63-5.08-2.64-7.66-3.88-.42-1.57.62-2.4,1.74-3.19a3.8,3.8,0,0,1,2-.68c2.19.32,4.32.78,5.93,2.46a3,3,0,0,1,.3,1.43c0,1.08-.91,2-.63,3.09C157.24,548.22,157.22,549.21,156.15,549.57Z" transform="translate(-125.19 -489.1)"/><path class="cls-164" d="M170.86,529.64l-.79.28c-1.68.9-1.29,3.79-4,3.69a.69.69,0,0,1-.79-.05,6.38,6.38,0,0,1-2.19-3.52,2.22,2.22,0,0,0-.42-.25l-.28-.35a1.23,1.23,0,0,1,.48-.68,12.57,12.57,0,0,1,6.12-1.49C170.06,527.75,171,528.36,170.86,529.64Z" transform="translate(-125.19 -489.1)"/><path class="cls-29" d="M157.54,543.56c-1.52-1.86-4-1.75-5.93-2.76a1.17,1.17,0,0,1-.65-1,1.3,1.3,0,0,1,.4-.71,6.3,6.3,0,0,1,3-1.37c1.13.25,2.29.17,3.43.33a3.08,3.08,0,0,1,.83.31,2.89,2.89,0,0,1,.56.66c1.43,1.28-.44,2-.41,3C158.73,542.79,159.17,544,157.54,543.56Z" transform="translate(-125.19 -489.1)"/><path class="cls-177" d="M165.45,533.38a2.57,2.57,0,0,1,.6.23,1.94,1.94,0,0,0-.12.58c-.93-.22-1.74-.14-1.72,1,0,.88-.46,1.2-1.28,1.28a2.86,2.86,0,0,1,1.14-3.48A1.22,1.22,0,0,1,165.45,533.38Z" transform="translate(-125.19 -489.1)"/><path class="cls-178" d="M159.23,539l-.69-.23c-.79-1.83.51-3.29.71-5a2.06,2.06,0,0,1,.33-.86,1,1,0,0,1,.87-.29,1.26,1.26,0,0,1,.76.59Z" transform="translate(-125.19 -489.1)"/><path class="cls-179" d="M161.21,533.23l-.63-.23c-.34-1.61-.65-3.21,1.89-3.24l.18,0C161.47,530.65,163,532.62,161.21,533.23Z" transform="translate(-125.19 -489.1)"/><path class="cls-57" d="M165.45,533.38l-1.38-.43c-.72-.87-1.48-1.73-1-2.91Z" transform="translate(-125.19 -489.1)"/><path class="cls-180" d="M157.54,543.56c.9-.16,1-.92,1.28-1.54.57,1,0,1.73-.28,2.55-.29.2-.49.13-.59-.21Z" transform="translate(-125.19 -489.1)"/><path class="cls-181" d="M158,544.36l.59.21-1,2.83C156.84,546.24,157.78,545.36,158,544.36Z" transform="translate(-125.19 -489.1)"/><path class="cls-76" d="M171,551c0,.64.05,1.29.07,1.93-3.34-1.1-6.78-.33-10.15-1l.41-1.17.83-.36A17.74,17.74,0,0,1,171,551Z" transform="translate(-125.19 -489.1)"/><path class="cls-182" d="M171,551a26.61,26.61,0,0,1-8.84-.58,1.22,1.22,0,0,1-.23-1.36l8.87.57C170.87,550,170.93,550.5,171,551Z" transform="translate(-125.19 -489.1)"/><path class="cls-183" d="M173.44,532.3l-1.05-.95-.9-1.57c.3-2.49,2.3-1.66,3.91-1.61a4,4,0,0,1,.89.23,3.36,3.36,0,0,1,1.49,1.61l-.06,0C176.27,530.77,173.83,529.91,173.44,532.3Z" transform="translate(-125.19 -489.1)"/><path class="cls-184" d="M175.47,528.58c-1.32.42-3.18-.54-4,1.2a2.85,2.85,0,0,0-.63-.14l-2.13-2a4.54,4.54,0,0,1-2.76-3.07,3.11,3.11,0,0,1,.13-1.39,2.56,2.56,0,0,1,1.14-1.49c1.78-.38,2.79.76,3.84,1.84,1,.76,1.68,1.78,2.65,2.55A5.28,5.28,0,0,1,175.47,528.58Z" transform="translate(-125.19 -489.1)"/><path class="cls-106" d="M175.47,528.58c-1.09-.33-1.35-1.39-2.06-2.05.06-.85.74-.75,1.36-.75a15.48,15.48,0,0,1,1.79.41,3.47,3.47,0,0,1,1.6.74l.61.23c-.06.18-.12.37-.19.55l-.21.6-.62-.21a4.31,4.31,0,0,1-1.65.68Z" transform="translate(-125.19 -489.1)"/><path class="cls-185" d="M176.1,528.78a1.14,1.14,0,0,1,1.65-.68l0,1.91Z" transform="translate(-125.19 -489.1)"/><path class="cls-186" d="M145.68,515.53c-.14-.28-.27-.57-.41-.85.66-.94.2-2,.35-3.07l.3-.6c0-.93.61-.72,1.21-.56a2.31,2.31,0,0,1,.87,1.41,5.23,5.23,0,0,1,.27,1.17,1.86,1.86,0,0,1-.21.72,6.75,6.75,0,0,1-1,1.1A2.19,2.19,0,0,1,145.68,515.53Z" transform="translate(-125.19 -489.1)"/><path class="cls-187" d="M146.73,508.7l-.21-1.35,1.28.41c.59,0,.72.41.75.87a2,2,0,0,1-.34.77c-.55.39-1,1.16-1.87.43Z" transform="translate(-125.19 -489.1)"/><path class="cls-188" d="M146.34,509.83l1.61-.72a1.17,1.17,0,0,1-.59,1.74,1.42,1.42,0,0,0-1.44.16C145.44,510.4,145.56,510,146.34,509.83Z" transform="translate(-125.19 -489.1)"/><path class="cls-189" d="M147.62,522l-.56-.32a.92.92,0,0,1,.22-1.19c1-.31,1.75.35,2.57.73a3.34,3.34,0,0,0,2,.47c.62-.29.66-1,1.06-1.43s.82-.8,1.53-.56c1.09,1.37.09,2.62,0,3.93a1.8,1.8,0,0,1-1.47,1.13,3.1,3.1,0,0,1-1.49-.37C150.17,523.65,148.66,523.19,147.62,522Z" transform="translate(-125.19 -489.1)"/><path class="cls-190" d="M146.1,528.49c0-1.29-.09-2.58-.13-3.86a3.28,3.28,0,0,0,2.1-1.84.7.7,0,0,1,.89.52C148.66,525.38,149.16,527.86,146.1,528.49Z" transform="translate(-125.19 -489.1)"/><path class="cls-191" d="M147.44,520.59c-.13.37-.26.74-.38,1.11a3.68,3.68,0,0,1-1.53-1.85c.5-.64-.05-1.28-.1-1.93l.23.12a1.07,1.07,0,0,1,1.49-.3,3.12,3.12,0,0,1,.78,2.29A.7.7,0,0,1,147.44,520.59Z" transform="translate(-125.19 -489.1)"/><path class="cls-192" d="M148.7,523l-.63-.25-.45-.77c1.39.66,3.19.5,4.19,2l-.26.23a2.16,2.16,0,0,1-.72,0,6.09,6.09,0,0,1-.71-.17,4.05,4.05,0,0,1-1-.46A2.26,2.26,0,0,1,148.7,523Z" transform="translate(-125.19 -489.1)"/><path class="cls-55" d="M147,517.86l-1.34.18c0-.83,0-1.67,0-2.51.23-.46.47-.91,1.09-1C148.54,515.63,148.31,516.74,147,517.86Z" transform="translate(-125.19 -489.1)"/><path class="cls-193" d="M147.08,535.31l-2.43-.88c1.56-1.13,1.15-2.23-.22-3.33a2.47,2.47,0,0,0,.52.18,3.35,3.35,0,0,1,3.17,1.18,7.52,7.52,0,0,1,1.42,2.46C149,536.07,148,535.69,147.08,535.31Z" transform="translate(-125.19 -489.1)"/><path class="cls-194" d="M148.7,523a4.9,4.9,0,0,1,.61.21c.73,2.75-.95,4.87-1.75,7.23a2.53,2.53,0,0,1-.79.77.65.65,0,0,1-.94-.34,3.32,3.32,0,0,1,.27-2.42C147.92,527.11,147.74,524.81,148.7,523Z" transform="translate(-125.19 -489.1)"/><path class="cls-195" d="M145.83,530.91l.7.26a2.19,2.19,0,0,1,2.41.73c.21.94-.37,1.15-1.19,1.14-.61-1-1.76-1.33-2.8-1.76Z" transform="translate(-125.19 -489.1)"/><path class="cls-196" d="M136.38,539.93c-.57,1.32.83,2.33.82,3.56-1.7-.58-2.07-2.5-3.64-3.23C134.37,539.45,135.38,539.7,136.38,539.93Z" transform="translate(-125.19 -489.1)"/><path class="cls-197" d="M181,518.9a1.41,1.41,0,0,1-1.43.16c-.45.36-.92.61-1.49.09a1.25,1.25,0,0,1,1.05-.94A2,2,0,0,1,181,518.9Z" transform="translate(-125.19 -489.1)"/><path class="cls-198" d="M178.07,519.15l1.49-.09a1.5,1.5,0,0,1-.62,1.69,1.67,1.67,0,0,1-.81,2.3v2c-.62.3-1.09.88-1.88.91a1.34,1.34,0,0,1-1.08-.75,1.75,1.75,0,0,1,.07-.88c1-1.66,1-3.76,2.23-5.33Z" transform="translate(-125.19 -489.1)"/><path class="cls-199" d="M177.48,519a6.51,6.51,0,0,1-2,5.74c-.86-1.38.42-2.6.12-3.94a5.17,5.17,0,0,0-1.22-1.06,2.17,2.17,0,0,1-.51-.66c-.28-.91,1.43-.31,1.07-1.28.26-.32.54-.46.89-.07l1.26.46Z" transform="translate(-125.19 -489.1)"/><path class="cls-165" d="M169.94,510.66l1.22.3c-.37,1,.43,1.81.49,2.73-.13.36-.26.71-.38,1.07a.53.53,0,0,1-.35.78,1.53,1.53,0,0,1-1.74-.91C171.61,513.78,169.42,511.93,169.94,510.66Z" transform="translate(-125.19 -489.1)"/><path class="cls-200" d="M171,515.45l.29-.69c.44.5.8,1.1,1.58,1.2l1.23.52c-.38,1.16-1.29.72-2.12.52C171.34,516.64,170.7,516.28,171,515.45Z" transform="translate(-125.19 -489.1)"/><path class="cls-201" d="M171.87,516.44c.74.08,1.5.56,2.22,0,.7.23,1.48.36,1.71,1.2L175,518a2.77,2.77,0,0,1-2.48-.3A1.28,1.28,0,0,1,171.87,516.44Z" transform="translate(-125.19 -489.1)"/><path class="cls-202" d="M176.49,525.7a1.15,1.15,0,0,1,1.65-.7c0,.64,0,1.29,0,1.93l-1.47.13A1.4,1.4,0,0,1,176.49,525.7Z" transform="translate(-125.19 -489.1)"/><path class="cls-202" d="M178.13,523.05l.81-2.3a1.18,1.18,0,0,1,.75,1.72C179.39,523.15,178.81,523.22,178.13,523.05Z" transform="translate(-125.19 -489.1)"/><path class="cls-203" d="M148.24,508.65c-.15-.3-.3-.59-.44-.89.08-.19.16-.38.23-.57a3.74,3.74,0,0,1,1.48-.39,2.38,2.38,0,0,1,.79.17,4,4,0,0,1,.63.52,1.66,1.66,0,0,1,.45,1.09,1.46,1.46,0,0,1-.54,1,2.63,2.63,0,0,1-2.06.08C148.35,509.44,148.36,509,148.24,508.65Z" transform="translate(-125.19 -489.1)"/><path class="cls-204" d="M149.42,507.07a1.29,1.29,0,0,1-1.39.12l.33-1.1.71.14.19.17a1,1,0,0,1,.19.44Z" transform="translate(-125.19 -489.1)"/><path class="cls-205" d="M162.43,509.84l1.38.28-.13.15a.94.94,0,0,1,.07.8c-1.17,2.05-3.54,1.56-5.45,1.94a16,16,0,0,0-3.76.69,1.82,1.82,0,0,1-1.61-1.38c.07-1.81,1.51-1.84,2.92-1.89,1.67-.05,3.42.35,4.92-.6C161.31,509.58,161.89,510,162.43,509.84Z" transform="translate(-125.19 -489.1)"/><path class="cls-206" d="M154.2,507.48c.92-.55,1.8.22,2.7.21l1.2.61a.57.57,0,0,1-.36.69C156.25,509.19,154.88,509.11,154.2,507.48Z" transform="translate(-125.19 -489.1)"/><path class="cls-207" d="M157.93,508.79c0-.16.11-.32.17-.49l1.25.43a1.52,1.52,0,0,1,.16.88,1.18,1.18,0,0,1-1.42.88,1.62,1.62,0,0,1-.74-.6A1,1,0,0,1,157.93,508.79Z" transform="translate(-125.19 -489.1)"/><path class="cls-148" d="M159.17,509.23l.18-.5,3.08,1.11-1.39.06A1.49,1.49,0,0,1,159.17,509.23Z" transform="translate(-125.19 -489.1)"/><path class="cls-208" d="M171.87,516.44l.57.8c.23.8,1.3,1,1.53,1.75l.61.22c1.34,3.13.48,4.09-3.24,3.63-1.36-.22-2.54-1.22-4-1l-.66,1.78a.87.87,0,0,1-.75-.11c-.57-.54-1-1.18-1.54-1.76a8.12,8.12,0,0,0-1.33-1.42,6.92,6.92,0,0,1-1.45-1.51c-1.05-1.45-.33-2,1.15-2.27a9.27,9.27,0,0,0,5.78-1.93l.64,0,1.8.82Z" transform="translate(-125.19 -489.1)"/><path class="cls-209" d="M154.85,513.52c-.08-.89-.14-1.39,1.31-1.22a10.36,10.36,0,0,0,7.38-1.52,7,7,0,0,1,4.18,1.49l-.16,1.21c-1,1.3-2.73,1.52-4.1,2.28-2,.45-3.83,1.7-6.11,1a9.08,9.08,0,0,1-2.48-2C154.63,514.31,154.46,513.91,154.85,513.52Z" transform="translate(-125.19 -489.1)"/><path class="cls-13" d="M163.36,515.24a10,10,0,0,1,4.2-1.76l1,1.12c-1,2.68-3.32,2.64-5.79,2.37C161.91,516.34,161.91,516.34,163.36,515.24Z" transform="translate(-125.19 -489.1)"/><path class="cls-29" d="M167.72,512.27l-4.18-1.49c.05-.17.1-.34.14-.51,1.56.26,3,1.45,4.66.85Z" transform="translate(-125.19 -489.1)"/><path class="cls-210" d="M147.08,535.31c.66-.59,1.74.4,2.33-.45.06-1.05.78-1.1,1.66-.9a2.18,2.18,0,0,1,.79,1.61c0,1-.1,2-1.25,2.55-1.1.13-2,1.19-3.26.56C145.48,537.6,147.12,536.43,147.08,535.31Z" transform="translate(-125.19 -489.1)"/><path class="cls-211" d="M147.35,538.68c1-.42,1.68-1.53,3.06-1.14,1,.38,1.45.94.88,1.89l0,0a16.31,16.31,0,0,1-2.44,1.93,5.23,5.23,0,0,1-2.19,1l-.15-3.25Z" transform="translate(-125.19 -489.1)"/><path class="cls-212" d="M146.69,542.3a2.77,2.77,0,0,1,1.82-1.36,1.61,1.61,0,0,1,1.88.75c-.71.82-2.08,1.12-2.15,2.45.16.18.19.34.1.46s-.18.18-.24.16l-.26-.09-.23-.08-.23-.09c.16-.71,1-1.68-.81-1.58Z" transform="translate(-125.19 -489.1)"/><path class="cls-213" d="M148.1,544.76c.05-.21.09-.42.14-.62,2.5-.27,4.58,1.14,6.84,1.81,1.32.4,1.18,1.3.8,2.22A38.51,38.51,0,0,1,148.1,544.76Z" transform="translate(-125.19 -489.1)"/><path class="cls-214" d="M157.93,508.79l-.41,1.15c-1.41.65-2.79-.27-4.19-.24a3.17,3.17,0,0,1-2.25-1.37l-.4-.81c.15-.34.54-.27.81-.4l2.71.36C155.29,508.36,156.68,508.37,157.93,508.79Z" transform="translate(-125.19 -489.1)"/><path class="cls-215" d="M149.07,506.23a1.12,1.12,0,0,1,1.8.61.5.5,0,0,1-.62.18c-.24-.07-.47-.16-.71-.24a2.85,2.85,0,0,1-.6-.43Z" transform="translate(-125.19 -489.1)"/><path class="cls-206" d="M150.27,506.82l.6,0,.62.28-.81.4-.64-.23c-.16-.2-.19-.34-.06-.41A.33.33,0,0,1,150.27,506.82Z" transform="translate(-125.19 -489.1)"/><path class="cls-216" d="M150.39,541.69l-1.88-.75a3.26,3.26,0,0,1,2.81-1.54c.1.47.19.93.29,1.4Z" transform="translate(-125.19 -489.1)"/><path class="cls-217" d="M166.53,524.55l2.2,3-6.06,1.61a1.49,1.49,0,0,1-1.22,0,3.2,3.2,0,0,1-.69-.52c-.6-.79-1.48-1.55-.55-2.57A9.75,9.75,0,0,1,166.53,524.55Z" transform="translate(-125.19 -489.1)"/><path class="cls-102" d="M161.45,528.71l1.22.49a2.35,2.35,0,0,1-.2.56c-1.54.58-1.29,2.15-1.89,3.24l-.6-.21C159,530.89,159.79,529.65,161.45,528.71Z" transform="translate(-125.19 -489.1)"/><path class="cls-218" d="M151.29,539.43c-.29-.63-.58-1.26-.88-1.89.82-.43.57-1.32.87-2a2.33,2.33,0,0,1,1-.25c1.25.2,2.45.47,2.86,1.85a.8.8,0,0,1-.57.72C153.44,538.36,152.72,539.5,151.29,539.43Z" transform="translate(-125.19 -489.1)"/><path class="cls-219" d="M154.55,537.89c.1-.15.18-.31.26-.46.51-.55.88-1.3,1.9-1.14a2.8,2.8,0,0,1,1.37.61c.48.61.58,1.17-.14,1.63C156.78,538.51,155.55,538.94,154.55,537.89Z" transform="translate(-125.19 -489.1)"/><path class="cls-220" d="M157.94,538.53a1.25,1.25,0,0,0-.22-1.37,1.51,1.51,0,0,1,0-1.36c.61-.87.85-2,2-2.45.64,2-.87,3.58-1.22,5.39Z" transform="translate(-125.19 -489.1)"/><path class="cls-221" d="M159.76,533.35c-.51.91-.32,2.21-1.64,2.66-.72-.08-1.08.55-1.68.69l-1.63.73c-.54-1.29-2-1.18-3-1.71-.28-.86.19-1.9-.83-2.58a1.44,1.44,0,0,1-.23-1.6,2.24,2.24,0,0,1,.59-.64c1.42-.35,2.51-1.68,4.25-1.09a31.7,31.7,0,0,1,2.66,2.23,5,5,0,0,1,1.42-3.57,1.25,1.25,0,0,1,1.75.28v0c-.42,1.39-1.56,2.51-1.47,4.08C159.9,533,159.83,533.16,159.76,533.35Z" transform="translate(-125.19 -489.1)"/><path class="cls-222" d="M166.53,524.55l-6.3,1.86a2.59,2.59,0,0,1-.52-2.11,1.72,1.72,0,0,1,.59-1.11c2-.41,3.92-1,6,0a2.23,2.23,0,0,1,.42.39Z" transform="translate(-125.19 -489.1)"/><path class="cls-223" d="M167.34,521.82c1.13-.63,2.38.36,3.52,0,.23.54.94.56,1.25,1a1.22,1.22,0,0,1-.26,1.1c-.32.29-.78.23-1.16.39A5.36,5.36,0,0,0,167.34,521.82Z" transform="translate(-125.19 -489.1)"/><path class="cls-19" d="M170.69,524.29l.81-.35a1.56,1.56,0,0,1,.91-.08,6.31,6.31,0,0,1,2.7,1.83.54.54,0,0,1-.27.72,1.41,1.41,0,0,0-1.43.12Z" transform="translate(-125.19 -489.1)"/><path class="cls-207" d="M174.84,526.41c.06-.19.13-.38.19-.56l-.13-.39.35-.21,1.24.45a1.18,1.18,0,0,1,.2,1.36Z" transform="translate(-125.19 -489.1)"/><path class="cls-224" d="M151.08,508.33l2.49.85c.62-.1.7.27.7.7-.52.84-1.86,1.24-1.44,2.58a4.21,4.21,0,0,1-2.41,3.28,1.9,1.9,0,0,1-.92.06c-.9-.5-2.16-.77-1.7-2.18l.2-.58c.44-1.5.54-3.24,2.68-3.58Z" transform="translate(-125.19 -489.1)"/><path class="cls-8" d="M147.8,513.62l2.09,2a4.9,4.9,0,0,1-2.25,4.37c-.22-.72-.43-1.44-.64-2.16a3.38,3.38,0,0,0-.23-3.32A1.22,1.22,0,0,1,147.8,513.62Z" transform="translate(-125.19 -489.1)"/><path class="cls-225" d="M150.68,509.46c-1.52.77-1,2.89-2.68,3.58l-.42-.81a3.18,3.18,0,0,1,1-2.84Z" transform="translate(-125.19 -489.1)"/><path class="cls-8" d="M148.63,509.39l-1,2.84a1.27,1.27,0,0,1-.22-1.38c.19-.58.39-1.16.59-1.74a2.74,2.74,0,0,1,.29-.46Z" transform="translate(-125.19 -489.1)"/><path class="cls-226" d="M163.36,515.24c0,.65-1.13.9-.61,1.73-.94.28-1.44.72-.56,1.63a1.82,1.82,0,0,1-.72.46,49.46,49.46,0,0,0-7.42,4.55c-.91-1.36,1-2.56,0-3.91-.46-1.48.85-2,1.61-2.79a2.11,2.11,0,0,1,1.67-.53C159.53,516.64,161.29,515.38,163.36,515.24Z" transform="translate(-125.19 -489.1)"/><path class="cls-191" d="M157.35,516.38l-1,.9c-1.66.2-2.27,1.36-2.72,2.64-1.55.28-.76,1.64-1.18,2.44-.95.61-1.8-.09-2.69-.31-.71-1.89.15-3.41,1.08-4.91,1.42-1,2.25-2.83,4.45-2.82C155.83,515.12,157,515.35,157.35,516.38Z" transform="translate(-125.19 -489.1)"/><path class="cls-227" d="M154.05,523.61c1.53-2.94,4.51-4,7.53-5.08a1.74,1.74,0,0,1,.06,1.23,3.85,3.85,0,0,1-.39.72,23.32,23.32,0,0,1-1.46,2c-1.86,1.22-3.82,2.31-5.63,3.6-.74.21-1.14-.19-1.44-.76a.63.63,0,0,1,.31-.71Z" transform="translate(-125.19 -489.1)"/><path class="cls-4" d="M151.56,516.88l-1.83,5.17c-.77-.48-1.53-1-2.29-1.46.06-.19.13-.38.2-.57.65-1.5.77-3.27,2.25-4.37v0A1.62,1.62,0,0,1,151.56,516.88Z" transform="translate(-125.19 -489.1)"/><path class="cls-228" d="M153,524.58a1.73,1.73,0,0,0-.09.56,5.56,5.56,0,0,1-1.42,5,1,1,0,0,1-1,.11c-1.08-2,.47-3.54.7-5.31a1.16,1.16,0,0,1,.66-.71l0-.25Z" transform="translate(-125.19 -489.1)"/><path class="cls-229" d="M153.23,520.06c.65-1.29.48-3.39,3.09-2.78l-2.25,2.42a1.27,1.27,0,0,1-1,.94c-.12-.18-.13-.33,0-.44S153.17,520,153.23,520.06Z" transform="translate(-125.19 -489.1)"/><path class="cls-2" d="M153.23,520.06c-.07.19-.13.38-.19.58,0,.63.57,1.49-.62,1.72a2.8,2.8,0,0,1,0-2.8Z" transform="translate(-125.19 -489.1)"/><path class="cls-230" d="M146.68,530.67c.88-2.47,1.75-4.94,2.63-7.42l1.26.39a1.44,1.44,0,0,1,0,1.28,17.14,17.14,0,0,0-2,5.17,2.63,2.63,0,0,1-.34.81A1,1,0,0,1,146.68,530.67Z" transform="translate(-125.19 -489.1)"/><path class="cls-231" d="M150.16,524.79l.41-1.15a4.48,4.48,0,0,1,.62.2c.25,2.49-.8,4.59-2,6.65a1,1,0,0,1-1.09,0h0A12.23,12.23,0,0,1,150.16,524.79Z" transform="translate(-125.19 -489.1)"/><path class="cls-232" d="M148.74,530.74l2.45-6.9.66.39a2.14,2.14,0,0,0-.2.4c0,1.9-1.1,3.48-1.52,5.25a1.12,1.12,0,0,1-.89,1.08Z" transform="translate(-125.19 -489.1)"/><path class="cls-233" d="M151.14,531.55l.32,1.52a.75.75,0,0,1-.41,1.07l-1.64.72c-1.06-.21-1.36-1-1.66-1.82l1.2-.89a.59.59,0,0,1-.07-.52c.06-.16.11-.24.15-.22A2.13,2.13,0,0,1,151.14,531.55Z" transform="translate(-125.19 -489.1)"/><path class="cls-113" d="M149.18,531.51c-.08.21-.15.42-.23.64l-2.42-1a4.74,4.74,0,0,1,.15-.5,1.42,1.42,0,0,0,1.45-.13l.61.2,0,.06A1.18,1.18,0,0,1,149.18,531.51Z" transform="translate(-125.19 -489.1)"/><path class="cls-234" d="M172.14,524.16l-.64-.22.41-1.15c3.28,1.37,2.92-2.08,4.53-2.92.76,1.86-.74,3.2-1,4.82-.07.19-.14.37-.2.56l0,0C173.89,525.76,173.32,524.11,172.14,524.16Z" transform="translate(-125.19 -489.1)"/><path class="cls-235" d="M176.44,519.87c-.76,2-.76,4.92-4.53,2.92a1.4,1.4,0,0,1-1-1c3.57,1.13,3.75,1,3.72-2.57Z" transform="translate(-125.19 -489.1)"/><path class="cls-207" d="M174,519c-.5-.59-2.65.07-1.53-1.75L175,518C176.22,519.77,173.71,518.14,174,519Z" transform="translate(-125.19 -489.1)"/><path class="cls-236" d="M150.27,506.82c-.08.16-.15.32-.23.47l-.62-.22h0a.32.32,0,0,1,0-.38c.06-.1.12-.15.16-.14Z" transform="translate(-125.19 -489.1)"/><path class="cls-237" d="M149.56,506.55c0,.18-.07.35-.12.52l-.5-.72Z" transform="translate(-125.19 -489.1)"/><path class="cls-238" d="M151.56,516.88l-1.67-1.25a10.22,10.22,0,0,0,2.67-3.56.42.42,0,0,1,.63.21l1.66,1.24c.13.27.27.53.41.8C153.58,514.62,153.65,517.09,151.56,516.88Z" transform="translate(-125.19 -489.1)"/><path class="cls-75" d="M153.19,512.28l-.63-.21c-.83-1.53.22-1.86,1.44-2.09,1.37-.87,2.76.41,4.14.18a1.23,1.23,0,0,0,1-.93l1.87.67c-.36,2.41-2.46.94-3.73,1.25S154,510.34,153.19,512.28Z" transform="translate(-125.19 -489.1)"/><path class="cls-124" d="M158.14,510.16c-1.38.47-2.76-.13-4.14-.18-.15-.26-.29-.53-.43-.8,1.46-.64,2.63.5,4,.76Z" transform="translate(-125.19 -489.1)"/><path class="cls-239" d="M166.26,523.21c-1.91-.36-3.71.89-5.66.09a1.24,1.24,0,0,1,0-1.39c1.2-1.14,2.48-1.79,4.09-.39C165.79,521.66,166,522.48,166.26,523.21Z" transform="translate(-125.19 -489.1)"/><path class="cls-240" d="M164.73,521.52c-1.45-.5-2.63.14-3.86.61-1.39-.69-.41-1.3,0-1.93l.4-.53c.87-.27,1.65.53,2.52.31A1.36,1.36,0,0,1,164.73,521.52Z" transform="translate(-125.19 -489.1)"/><path class="cls-241" d="M163.76,520a1.86,1.86,0,0,1-2.52-.31c.12-.38.23-.76.34-1.14a1.79,1.79,0,0,0,.61.07Z" transform="translate(-125.19 -489.1)"/><path class="cls-242" d="M151.05,534.14c.14-.36.28-.72.41-1.07,2.88.67-.09,1.8.38,2.65a5.12,5.12,0,0,0-.56-.15C151.2,535.09,151.13,534.61,151.05,534.14Z" transform="translate(-125.19 -489.1)"/><path class="cls-243" d="M160.08,524.43c.66.65.17,1.32.15,2-.4,1.12,1.14,1.42,1.22,2.34a1.55,1.55,0,0,0-1.52.15c-1.25-.43-2.65,1-3.83-.44a7.76,7.76,0,0,1,.87-3.64c.42-.68.7-1.49,1.66-1.71C159.49,523.19,159.75,523.85,160.08,524.43Z" transform="translate(-125.19 -489.1)"/><path class="cls-177" d="M156.44,536.7c.43-.5.3-2.08,1.68-.69-.13.38-.27.76-.4,1.15Z" transform="translate(-125.19 -489.1)"/><path class="cls-244" d="M156.32,528.87c1.18-.51,2.35-1.17,3.61,0l-1.6,4.53c0-2-3.35-1.51-3-3.59a.82.82,0,0,1,.18-1.11A.64.64,0,0,1,156.32,528.87Z" transform="translate(-125.19 -489.1)"/><path class="cls-245" d="M155.8,528.78l-.43,1.06c-1.29.5-2.21,1.9-4,1.2,0-.14-.09-.28-.14-.41a3.38,3.38,0,0,1,1.45-2.08c1.31-.35,1.93-1.83,3.49-1.75C156.79,527.62,156.41,528.23,155.8,528.78Z" transform="translate(-125.19 -489.1)"/><path class="cls-246" d="M149.18,531.51l-.39-.71.79-.38c.29-.1.43-.47.83-.37l.52.18c.44.16.35.56.5.86l0-.05-.26.52Z" transform="translate(-125.19 -489.1)"/><path class="cls-247" d="M160.08,524.43a1.36,1.36,0,0,1-1-1,.76.76,0,0,1,.36-1.12c.42-.72.31-1.78,1.41-2.08,0,.64-.65,1.26,0,1.93l-.27,1.17C160.43,523.68,160.25,524.05,160.08,524.43Z" transform="translate(-125.19 -489.1)"/><path class="cls-193" d="M172.14,524.16c1.4-.64,1.92,1.13,3.09,1.12-.06.19-.13.38-.2.57A5.9,5.9,0,0,1,172.14,524.16Z" transform="translate(-125.19 -489.1)"/><path class="cls-248" d="M159.43,522.28l-.36,1.12c-.94.11-1,.93-1.31,1.5-1.18.48-2,1.69-3.52,1.48l-.35-.27C155,523.9,157.19,523.07,159.43,522.28Z" transform="translate(-125.19 -489.1)"/><path class="cls-249" d="M151.43,531.09c-.17-.29-.33-.58-.5-.86l2-5.09.95,1h0a1.91,1.91,0,0,1,.19,1.42,2.89,2.89,0,0,1-1.22,1.46A3.82,3.82,0,0,0,151.43,531.09Z" transform="translate(-125.19 -489.1)"/><path class="cls-250" d="M150.41,530.05l-.83.37,2.07-5.79C152.29,526.7,150.72,528.22,150.41,530.05Z" transform="translate(-125.19 -489.1)"/><path class="cls-251" d="M150.16,524.79l-2,5.74A6.4,6.4,0,0,1,150.16,524.79Z" transform="translate(-125.19 -489.1)"/><path class="cls-252" d="M153.51,527.28l.4-1.17c1.48.09,2.12-1.92,3.85-1.21l-1.44,4a3,3,0,0,0-.52-.09c.13-.66.59-1.31,0-2C155.05,527.06,154.56,528.12,153.51,527.28Z" transform="translate(-125.19 -489.1)"/><path class="cls-253" d="M153.51,527.28l2.26-.49a2.9,2.9,0,0,1-2.89,2.2Z" transform="translate(-125.19 -489.1)"/></svg>
