<svg id="skrald" xmlns="http://www.w3.org/2000/svg" viewBox="0 0 96.96 140.15"><defs><style>.cls-1{fill:#2b2729;}.cls-2{fill:#161313;}.cls-3{fill:#2e2a2c;}.cls-4{fill:#191617;}.cls-5{fill:#272426;}.cls-6{fill:#262325;}.cls-7{fill:#1b1819;}.cls-8{fill:#221e20;}.cls-9{fill:#665e62;}.cls-10{fill:#201d1d;}.cls-11{fill:#231f21;}.cls-12{fill:#201d1f;}.cls-13{fill:#403a3f;}.cls-14{fill:#2f2b2d;}.cls-15{fill:#211e1f;}.cls-16{fill:#221f20;}.cls-17{fill:#1c191b;}.cls-18{fill:#2d2a2d;}.cls-19{fill:#3e3a3e;}.cls-20{fill:#0d0c0c;}.cls-21{fill:#2d292c;}.cls-22{fill:#575155;}.cls-23{fill:#232123;}.cls-24{fill:#3e393d;}.cls-25{fill:#484149;}.cls-26{fill:#4f4950;}.cls-27{fill:#433e41;}.cls-28{fill:#7e7679;}.cls-29{fill:#5c545a;}.cls-30{fill:#312d2f;}.cls-31{fill:#3c383a;}.cls-32{fill:#2e2b2e;}.cls-33{fill:#b4acaf;}.cls-34{fill:#3c383b;}.cls-35{fill:#3c383c;}.cls-36{fill:#252123;}.cls-37{fill:#242123;}.cls-38{fill:#0e0c0c;}.cls-39{fill:#2b2829;}.cls-40{fill:#1f1c1d;}.cls-41{fill:#d4d3d5;}.cls-42{fill:#786f72;}.cls-43{fill:#373337;}.cls-44{fill:#7e7678;}.cls-45{fill:#c0b9bb;}.cls-46{fill:#9a9295;}.cls-47{fill:#4d484e;}.cls-48{fill:#252124;}.cls-49{fill:#151212;}.cls-50{fill:#372f2e;}.cls-51{fill:#454046;}.cls-52{fill:#3d393d;}.cls-53{fill:#171415;}.cls-54{fill:#383539;}.cls-55{fill:#1d191a;}.cls-56{fill:#1b1718;}.cls-57{fill:#302d30;}.cls-58{fill:#2b272a;}.cls-59{fill:#332f33;}.cls-60{fill:#1e1b1b;}.cls-61{fill:#100e0f;}.cls-62{fill:#453f43;}.cls-63{fill:#797374;}.cls-64{fill:#716a6c;}.cls-65{fill:#8b8586;}.cls-66{fill:#b8b4b7;}.cls-67{fill:#7d7778;}.cls-68{fill:#3a363a;}.cls-69{fill:#61595e;}.cls-70{fill:#a9a0a2;}.cls-71{fill:#4e474d;}.cls-72{fill:#a39b9d;}.cls-73{fill:#81787b;}.cls-74{fill:#92898c;}.cls-75{fill:#342f31;}.cls-76{fill:#bfbcbd;}.cls-77{fill:#837d7d;}.cls-78{fill:#343034;}.cls-79{fill:#221f21;}.cls-80{fill:#0e0d0c;}.cls-81{fill:#534f4e;}.cls-82{fill:#aba3a5;}.cls-83{fill:#cac5c6;}.cls-84{fill:#fcfcfb;}.cls-85{fill:#eeecee;}.cls-86{fill:#fcfdfe;}.cls-87{fill:#f6f5f4;}.cls-88{fill:#867d7f;}.cls-89{fill:#91898b;}.cls-90{fill:#f0eff0;}.cls-91{fill:#4e474c;}.cls-92{fill:#9f9798;}.cls-93{fill:#544c51;}.cls-94{fill:#2a2628;}.cls-95{fill:#443f44;}.cls-96{fill:#a69ea0;}.cls-97{fill:#b6adaf;}.cls-98{fill:#b1a8aa;}.cls-99{fill:#b1aaac;}.cls-100{fill:#979194;}.cls-101{fill:#b8aeb0;}.cls-102{fill:#50494d;}.cls-103{fill:#655d61;}.cls-104{fill:#6e6669;}.cls-105{fill:#403b3f;}.cls-106{fill:#282528;}.cls-107{fill:#f5f3f4;}.cls-108{fill:#e8e6e7;}.cls-109{fill:#958c8e;}.cls-110{fill:#8f8789;}.cls-111{fill:#b8b3b6;}.cls-112{fill:#b5aeb0;}.cls-113{fill:#9f9799;}.cls-114{fill:#1b1719;}.cls-115{fill:#645c60;}.cls-116{fill:#6d6569;}.cls-117{fill:#b4adaf;}.cls-118{fill:#7f7678;}.cls-119{fill:#beb3b4;}.cls-120{fill:#746b6f;}.cls-121{fill:#cdc5c6;}.cls-122{fill:#423e43;}.cls-123{fill:#433f44;}.cls-124{fill:#4a454a;}.cls-125{fill:#675d60;}.cls-126{fill:#3d393e;}.cls-127{fill:#3a373b;}.cls-128{fill:#403b40;}.cls-129{fill:#363337;}.cls-130{fill:#333033;}.cls-131{fill:#6c6667;}.cls-132{fill:#534c51;}.cls-133{fill:#625d5e;}.cls-134{fill:#544f4f;}.cls-135{fill:#cac8c8;}.cls-136{fill:#938c8e;}.cls-137{fill:#4b454b;}.cls-138{fill:#464043;}.cls-139{fill:#4e484b;}.cls-140{fill:#9e9797;}.cls-141{fill:#a79e9f;}.cls-142{fill:#7c7376;}.cls-143{fill:#999192;}.cls-144{fill:#b0a8a9;}.cls-145{fill:#a8a2a3;}.cls-146{fill:#5d555a;}.cls-147{fill:#b7adaf;}.cls-148{fill:#c2b7b9;}.cls-149{fill:#9b9295;}.cls-150{fill:#b6abad;}.cls-151{fill:#bfb5b6;}.cls-152{fill:#93898c;}.cls-153{fill:#cbc3c3;}.cls-154{fill:#e9e8e8;}.cls-155{fill:#807b7c;}.cls-156{fill:#2a2527;}.cls-157{fill:#7c7577;}.cls-158{fill:#a19c9d;}.cls-159{fill:#817b7c;}.cls-160{fill:#8b8486;}.cls-161{fill:#b9b5b7;}.cls-162{fill:#2a2729;}.cls-163{fill:#dad8d7;}.cls-164{fill:#fefefe;}.cls-165{fill:#b2a9aa;}.cls-166{fill:#aaa2a3;}.cls-167{fill:#807a7b;}.cls-168{fill:#bdb8ba;}.cls-169{fill:#413d41;}.cls-170{fill:#454146;}.cls-171{fill:#514b50;}.cls-172{fill:#a09a9c;}.cls-173{fill:#fcfdfc;}.cls-174{fill:#878182;}.cls-175{fill:#efeeee;}.cls-176{fill:#867d7e;}.cls-177{fill:#968d90;}.cls-178{fill:#bab0b1;}.cls-179{fill:#f7f6f6;}.cls-180{fill:#d4d0d1;}.cls-181{fill:#beb4b5;}.cls-182{fill:#afa5a6;}.cls-183{fill:#7d7377;}.cls-184{fill:#797175;}.cls-185{fill:#9c9596;}.cls-186{fill:#918a8b;}.cls-187{fill:#a09899;}.cls-188{fill:#f0efef;}.cls-189{fill:#564f54;}.cls-190{fill:#696165;}.cls-191{fill:#5b5459;}.cls-192{fill:#5c555a;}.cls-193{fill:#746c6f;}.cls-194{fill:#b4aaab;}.cls-195{fill:#968c8e;}.cls-196{fill:#454045;}.cls-197{fill:#564e53;}.cls-198{fill:#888485;}.cls-199{fill:#fdfefd;}.cls-200{fill:#7e7879;}.cls-201{fill:#756f70;}.cls-202{fill:#9a9395;}.cls-203{fill:#322e32;}.cls-204{fill:#605b5a;}.cls-205{fill:#857f80;}.cls-206{fill:#767171;}.cls-207{fill:#4b4549;}.cls-208{fill:#989292;}.cls-209{fill:#353135;}.cls-210{fill:#948c8d;}.cls-211{fill:#574f54;}.cls-212{fill:#9a9193;}.cls-213{fill:#867c7f;}.cls-214{fill:#7f797a;}.cls-215{fill:#aeaaab;}.cls-216{fill:#736e6e;}.cls-217{fill:#4e484a;}.cls-218{fill:#868080;}.cls-219{fill:#aba6a8;}.cls-220{fill:#cac8c9;}.cls-221{fill:#c3bdbf;}.cls-222{fill:#322f32;}.cls-223{fill:#908a8c;}.cls-224{fill:#b0acac;}.cls-225{fill:#39353a;}.cls-226{fill:#928b8c;}.cls-227{fill:#ada5a5;}.cls-228{fill:#73696d;}.cls-229{fill:#827b7c;}.cls-230{fill:#eeedee;}.cls-231{fill:#786f71;}.cls-232{fill:#474147;}.cls-233{fill:#413c40;}.cls-234{fill:#393539;}.cls-235{fill:#383438;}.cls-236{fill:#494246;}.cls-237{fill:#c5c2c2;}.cls-238{fill:#b0adb0;}.cls-239{fill:#2a282b;}.cls-240{fill:#423d43;}.cls-241{fill:#757070;}.cls-242{fill:#444045;}.cls-243{fill:#847e7f;}.cls-244{fill:#686364;}.cls-245{fill:#cbc8ca;}.cls-246{fill:#cdc9ca;}.cls-247{fill:#6c6669;}</style></defs><title>skrald_pose</title><path class="cls-1" d="M1004.36,488c.78,1,3.55-1.34,2.71,2.3-.69,3-2.07,3.29-4.14,3.07-4.78-.48-9.65-.51-14.45-.94-2-.17-3.79,1.16-5.68,1.32a3.52,3.52,0,0,1-4,.91,5,5,0,0,1-1-.47c-1.19-1.41-2.92-.66-4.44-.79a1.62,1.62,0,0,1-1.05-1.25l-1.69-4.89a1.4,1.4,0,0,1,1.31-1.45c2.34,2,1.7-1.25,2.34-2.24a65.59,65.59,0,0,1,3-7.5c.73-1.46,1.31-3.3,3.08-2.65,1.52,1.37,1,3.45.51,5.53a4.42,4.42,0,0,0-.34,2,6.71,6.71,0,0,1,.52-2.45c1-2.71,2.11-2.46,3.31-1,1.68.9,2.53-2.25,4.08-2a2.41,2.41,0,0,1,1.2-.19c2,.85,1.18,3.06,1,5a7.63,7.63,0,0,1-.41,1.39c-.66,1.35-1.8,1.92-2.76,2.77-.64.5-1.33.88-2,1.33-.39.51-1.08.86-.76,1.69.77-.59,1.28-1.53,2.06-2s1.71-1.33,2.63-1.84c1.92-1.5,3.83-2.66,5.49-.57a1.94,1.94,0,0,1,0,1.36c-.71,1.24-2.48,1.4-2.44,3.45,1,1.1,2.26.24,3.45-.13a5.47,5.47,0,0,1,1.18-.19C999.38,488,1002.29,485.72,1004.36,488Z" transform="translate(-910.27 -464.09)"/><path class="cls-2" d="M915.49,582.12c-2.52-2.84-5.41-5.38-4.75-10.78-.78-1-.51-2.11.18-3.28.61-.95-.51-1.94.44-2.88a10.46,10.46,0,0,1,1-3.61c2.59-2.15,2.61.85,3.5,2.11a40.17,40.17,0,0,0,.66,5,7.55,7.55,0,0,1-.19,1.88,7.58,7.58,0,0,0-.19,2.31,12.12,12.12,0,0,0,.55,2c.21.46.44.91.69,1.34s.69,1.16,1,1.74a7.33,7.33,0,0,0,1.28,1.53,6.4,6.4,0,0,0,3.18,1.37c1.24.21,2.58,0,3.77.47,2.52.53,3.27,4.36,6.17,4.17,1.28,1.59,3.29,1,4.93,1.58.95,1.12,2.1,2,3,3.16.7,1,.65,1.95-.78,2.4-3.32-.52-6.23-2.29-9.49-3a4,4,0,0,1-1.79-.29,23.43,23.43,0,0,0-1.89-1.43c-1.1-1.16-2.65-1.39-3.9-2.23a12.36,12.36,0,0,1-1.49-.77c-1.32-1-2.56-2.26-4.4-2.09A1.73,1.73,0,0,1,915.49,582.12Z" transform="translate(-910.27 -464.09)"/><path class="cls-3" d="M991.52,504.63c5.16,1.84,6.87,6.9,7.24,13.22a5.88,5.88,0,0,1-3.49,5.39c-1.32.68-2.46.87-2.88-1,.19-2.64,1-5.46-.22-7.74a13.15,13.15,0,0,0-1.51-3.73,5.63,5.63,0,0,0-3-2.41,2.4,2.4,0,0,1-.87-.66,3,3,0,0,1-.24-1.89,2,2,0,0,1,.78-1C988.83,504.06,990.08,505.2,991.52,504.63Z" transform="translate(-910.27 -464.09)"/><path class="cls-4" d="M996.37,564.21c.31,3.41-2.38,5.81-3.08,8.88a11.39,11.39,0,0,0-2.21,5.88c-1.82,1.71-1.77,5-3.94,6.4-1.92,2.55-2.57,6.2-5.2,8.14a.87.87,0,0,1-1-.48c-.39-1.46.19-2.95.55-4.44a16.64,16.64,0,0,1,1-3.57c.69-1.26,1.37-2.53,2.17-3.7,1.72-1.53,1.86-3.58,1.91-5.66a12.66,12.66,0,0,1,1.79-4.9,3.51,3.51,0,0,1,1.55-1.26,1.37,1.37,0,0,1,1.05.16c.34.72.35.77,1-.17C993.35,567.65,993.7,564.38,996.37,564.21Z" transform="translate(-910.27 -464.09)"/><path class="cls-5" d="M997.6,520.47c.39-.87.77-1.75,1.16-2.62a31.8,31.8,0,0,1,2.07,11.11c-1.38,3.69-1.5,7.71-3.41,11.28-.65,1.2-1,2.6-2.42,2.76a6.39,6.39,0,0,1-3.11-1.4c-.62-1.78.17-3.43,1-5.08,1.57-2.79,3.13-5.59,2.72-8.91a20.81,20.81,0,0,1,.23-3.76A6.1,6.1,0,0,1,997.6,520.47Z" transform="translate(-910.27 -464.09)"/><path class="cls-6" d="M995,542.57c1.95-2.53,2.63-5.55,3.51-8.59.48-1.68.25-4.12,2.35-5,.94,2.75,1.56,5.58,0,8.87-.52,3.13-.74,6.31-2,9.33a6.72,6.72,0,0,1-3.57,3.73c-1.3.09-1.93-.78-2.21-2.18C993.24,546.54,993.05,544.27,995,542.57Z" transform="translate(-910.27 -464.09)"/><path class="cls-7" d="M913,561.06l-1.63,4.12c.76-5.32,2.74-10.3,4.76-15.26,1.49-1.63,1.34-4.21,2.81-5.86.79-1.54.73-3.62,2.36-4.63,1.9.28,1.09,2.09.73,3.44a20.26,20.26,0,0,0-1.17,5c-.28,3.23-2.17,6.33-1.33,9.75.45,1.84-1,3.87-2.71,4.95-1,.14-1.38-.67-1.57-1.54C914.73,558.69,913.81,560.48,913,561.06Z" transform="translate(-910.27 -464.09)"/><path class="cls-8" d="M971.76,486.46l-1.17.82c-2.53-6.14-5-12.33-3.5-20.3,1-1.28,1.59-1,2,.22s.42,2.76.86,4c.26.67.55,1.32.79,2a7.1,7.1,0,0,1,.35,1.61c.09.74.13,1.49.29,2.2.14.53.29,1.06.43,1.6a16.23,16.23,0,0,1,.35,1.74C972.14,482.39,973.9,484.24,971.76,486.46Z" transform="translate(-910.27 -464.09)"/><path class="cls-9" d="M926,531.16c1.24-3,2-6.16,3.93-8.77a2.16,2.16,0,0,1,.3,1.66c-.28,1,.18,1.07.82.85,1.63.63,2.4-3,4.08-2,1.35,1.21,1.42,3,1,5.12-1.2,2.15-2.68,3.47-4.57,3.43.39.43,1.5,0,1.77,1.12a1.63,1.63,0,0,1-1.11,1.54c-1.31.33-2.43-.31-3.68-.31a4.35,4.35,0,0,1-1.48-.26,2.05,2.05,0,0,1-.77-.64A2.51,2.51,0,0,1,926,531.16Z" transform="translate(-910.27 -464.09)"/><path class="cls-10" d="M996.37,564.21c-2.08,2-2.66,5.75-5.36,7.11,0,0-.2-.19-.19-.3a8.69,8.69,0,0,1,.16-1c-.68-2.76,1-5.23,1.73-7.81.53-1.79,1.71-3.39,1.72-5.34a4.86,4.86,0,0,1,.56-2c2.88-1.32,2.46-5.75,5-7.4,1.31,4.67-3,8.56-3,13.14C996.93,561.6,997.64,563.08,996.37,564.21Z" transform="translate(-910.27 -464.09)"/><path class="cls-11" d="M933.65,515.07c1.73-5,5.13-8.11,8.4-11.41,1.68.39,1.44,2,1.13,3.68-2.08,4.22-4.52,7.85-8.67,8.62A1.21,1.21,0,0,1,933.65,515.07Z" transform="translate(-910.27 -464.09)"/><path class="cls-12" d="M948.91,498c4-3.71,8.4-1.83,12.52-3.92a1.83,1.83,0,0,1,.24,2.38,8.29,8.29,0,0,1-3,2.51,13.22,13.22,0,0,0-7.1,2.36,2.78,2.78,0,0,1-2.36-.06A2.29,2.29,0,0,1,948.91,498Z" transform="translate(-910.27 -464.09)"/><path class="cls-13" d="M980.37,474.09c-2.68.18-2.35,3.32-3.38,5.06a30.82,30.82,0,0,0-2,5.21c-1.77-1.12-.53-3.05-.2-4.74.43-1.24.89-2.48,1.43-3.68s-.12-1.19-.75-1.23c-.28-2.69-1.71-4.72-1.9-7.46l6.77-.2a16.5,16.5,0,0,1,.46,6.54Z" transform="translate(-910.27 -464.09)"/><path class="cls-14" d="M948.91,498a3.68,3.68,0,0,0,.87,2.9c.39,3-.85,4.82-3.31,5.65-.54.16-1.09.35-1.64.56a9.58,9.58,0,0,1-1.55.61.92.92,0,0,1-.88-.37c.37-1.39.44-2.68-.35-3.67C943.76,500.53,946.27,499.12,948.91,498Z" transform="translate(-910.27 -464.09)"/><path class="cls-15" d="M1000,547.46c-1.74,2.34-.39,7.12-4.5,7.58a.7.7,0,0,1-1-.39,4.93,4.93,0,0,1,.88-4.12c3.38-3.48,4-8.3,5.45-12.7A22.93,22.93,0,0,1,1000,547.46Z" transform="translate(-910.27 -464.09)"/><path class="cls-16" d="M920.11,548.12c-1.5-2.89,2.73-5.81,1.18-8.69.87-1.52,1.11-3.56,2.72-4.47,1.12-.31.6-3.43,2.48-2.43l.15,0a10,10,0,0,1,.38,2.71,12,12,0,0,1-.67,2.89,16,16,0,0,1-1.25,2.68,13.26,13.26,0,0,0-2,5.34C922.39,547.68,921.58,548.86,920.11,548.12Z" transform="translate(-910.27 -464.09)"/><path class="cls-17" d="M978.65,493.38a5.9,5.9,0,0,0,4.15.39l-1.69,4.68c.12,2.19-1.17,2.72-2.5,3.23a13.28,13.28,0,0,1-3.62,0,4.91,4.91,0,0,1-3-1.75,3.25,3.25,0,0,1-.57-1.13,2.45,2.45,0,0,1,.5-1.35,3.63,3.63,0,0,1,2.87-.66C977.16,497.74,977.45,494.66,978.65,493.38Z" transform="translate(-910.27 -464.09)"/><path class="cls-18" d="M996.45,488.59l-.81-.26c-2.4,0-2.79-1.24-1.17-3.79l.34-.93a3.47,3.47,0,0,1-.16-1.26,4.19,4.19,0,0,1,1.27-2.29c1.4-1,1.8-2.86,2.74-4.26a2.06,2.06,0,0,1,1-.7c.82,1,0,2.47.27,3.64-1.63,2.08-2.18,4-.14,5.44v0A4.8,4.8,0,0,1,996.45,488.59Z" transform="translate(-910.27 -464.09)"/><path class="cls-19" d="M995.17,482.47l-.36,1.14c-1.88-1.5-3.79.07-5.7,1.13-.29-1,.32-1.82.75-2.68a6.53,6.53,0,0,1,1.51-2.3,9.39,9.39,0,0,0,2.83-3.56c.95-1.61,1.26-4.83,3.69-2.82.68.41,1.55.58,1.73,1.72a.83.83,0,0,1-.3.41c-2.24.67-1.52,4.15-3.46,5.12l-.43,1.1c-.24.1-.36.24-.36.43S995.11,482.45,995.17,482.47Z" transform="translate(-910.27 -464.09)"/><path class="cls-20" d="M984.33,595.46a11.2,11.2,0,0,1-3.91,6.68,9.44,9.44,0,0,1-.84-4.37,5.5,5.5,0,0,1,2.14-4.3,28.38,28.38,0,0,1,5.42-8.1c.11,1.5-.74,2.68-1.36,3.94-1.16,1.2-.79,2.88-1.4,4.25A9.33,9.33,0,0,0,984.33,595.46Z" transform="translate(-910.27 -464.09)"/><path class="cls-21" d="M978.4,501c.93-.8,2.22-1,2.71-2.58l1.32.84c1.36,1.66,3.74,1.07,5.1,2.73l.93,1.67c.06,1.14-.71,1.18-1.27,1.51l-.13.06c-2.86.68-5.21-.44-7.5-1.77A3.39,3.39,0,0,1,978.4,501Z" transform="translate(-910.27 -464.09)"/><path class="cls-22" d="M973.6,467.25c2.17,1.5,3.13,3.77,2.2,7.23.84,1.09.23,2.28-.33,3.46a2.52,2.52,0,0,1-1.05.86,2.4,2.4,0,0,1-1.79-1.32,3.83,3.83,0,0,1-.37-1.2,14.22,14.22,0,0,1-.09-2c0-.43,0-.87.07-1.3.34-1.79-.41-3.3-.18-5.06a1.62,1.62,0,0,1,.79-1Z" transform="translate(-910.27 -464.09)"/><path class="cls-23" d="M972,497.67c-.08.27-.17.53-.26.8a2.1,2.1,0,0,1-2.48.39,24.35,24.35,0,0,1-3.54-2.57,1.63,1.63,0,0,1-.11-2,14.42,14.42,0,0,1,6-.37c1.28.16,1.18,1.43,1.17,2.63A1.77,1.77,0,0,1,972,497.67Z" transform="translate(-910.27 -464.09)"/><path class="cls-24" d="M980.21,479.3c.06-1.74.11-3.48.16-5.21l.09-.08c.92-.79.63-2.22,1.39-3.1a8.62,8.62,0,0,1,2.54-3.17c.58,3.16-2.57,7.05-.12,9.84-1.48-.62-2.65-.25-3.22,2.06C980.52,480.19,980.24,480.07,980.21,479.3Z" transform="translate(-910.27 -464.09)"/><path class="cls-25" d="M996.45,488.59q1.66-2.22,3.31-4.45l4.6,3.88C1001.86,486.81,998.94,490.07,996.45,488.59Z" transform="translate(-910.27 -464.09)"/><path class="cls-1" d="M988.37,473.52c1-2.42,2.07-4.33,4.3-2.83,1,1.26.82,2.75-.06,4.38a3.23,3.23,0,0,1-.88.92c-.88.12-1.53-.62-2.4-.52a1.51,1.51,0,0,1-.77-.6l.18-.26A3.06,3.06,0,0,1,988.37,473.52Z" transform="translate(-910.27 -464.09)"/><path class="cls-26" d="M982.26,471.33c-.41,1.07-.66,2.29-1.8,2.68-.15-2.29-1.49-4.31-.09-7a1.36,1.36,0,0,1,1.77,0C982.62,468.35,983.41,469.59,982.26,471.33Z" transform="translate(-910.27 -464.09)"/><path class="cls-27" d="M991.66,480.58l-1.14.91c-.34.69-.66.74-1,.17l.27-1.1c.3-1.71.59-3.43,1.86-4.74h0c1.44-1.13,1.05-3.5,2.48-4.64l.71.37c.52,1.5-.15,3.09-.42,4.65C993.68,477.8,992.51,479.05,991.66,480.58Z" transform="translate(-910.27 -464.09)"/><path class="cls-28" d="M972.85,467l-.33.84a2.38,2.38,0,0,1-1.55.55,3.76,3.76,0,0,1-2.41-.7c.12-1.68-1-.37-1.47-.69-.79-2.44-.12-3.47,1.92-2.55A26.92,26.92,0,0,1,972.85,467Z" transform="translate(-910.27 -464.09)"/><path class="cls-29" d="M994,476.44c-.3-1.67.34-3.28.91-4.89,1.09.43,2.38.47,3,1.83-2.63-1.18-1.55,3.32-3.3,3.48Q994,477.15,994,476.44Z" transform="translate(-910.27 -464.09)"/><path class="cls-30" d="M933.65,515.07l.78.35a2.86,2.86,0,0,1-.25,1.93,14.17,14.17,0,0,0-1.89,4.88,5,5,0,0,1-1.89,2.64.56.56,0,0,1-.9-.14l.47-2.34C931,519.85,931.8,517.12,933.65,515.07Z" transform="translate(-910.27 -464.09)"/><path class="cls-31" d="M965.6,494.25l.51,1.52c-.69,1.44-1.68,1.26-2.64,1.27-.74-.11-1.54-.11-1.92-1l-.12-2C962.87,493.84,964.38,493.18,965.6,494.25Z" transform="translate(-910.27 -464.09)"/><path class="cls-32" d="M982.26,471.33c.09-1.47-.81-2.68-.12-4.3l2.25.71C983.78,469,983.69,470.7,982.26,471.33Z" transform="translate(-910.27 -464.09)"/><path class="cls-33" d="M972.28,496.81l-.72-2.93.72-1.71,1.5.53C974.87,494.66,974.38,496,972.28,496.81Z" transform="translate(-910.27 -464.09)"/><path class="cls-34" d="M999.75,484.18c-3.19-1.26-1.9-3.28.14-5.44C999.09,480.68,998.17,482.64,999.75,484.18Z" transform="translate(-910.27 -464.09)"/><path class="cls-35" d="M987.53,502c-1.79-.72-4-.47-5.1-2.73C984.28,499.87,986.21,500.28,987.53,502Z" transform="translate(-910.27 -464.09)"/><path class="cls-10" d="M991.08,579a6.09,6.09,0,0,1,2.21-5.88Z" transform="translate(-910.27 -464.09)"/><path class="cls-36" d="M994.16,471.18c-.73,1.61-.75,3.7-2.48,4.64a10.79,10.79,0,0,0,1-5.13Z" transform="translate(-910.27 -464.09)"/><path class="cls-37" d="M987.19,505.2l1.27-1.51c1,.37,2.28-.1,3.06.94C990,505.61,988.62,505.32,987.19,505.2Z" transform="translate(-910.27 -464.09)"/><path class="cls-16" d="M918.93,544.06c-.83,2-.91,4.46-2.81,5.86C916.76,547.8,917.39,545.67,918.93,544.06Z" transform="translate(-910.27 -464.09)"/><path class="cls-38" d="M984,594.22a4.38,4.38,0,0,1,1.8-4.91.61.61,0,0,1-.2.77A6.21,6.21,0,0,1,984,594.22Z" transform="translate(-910.27 -464.09)"/><path class="cls-4" d="M984,594.22l1.6-4.14c-.13,1.15-.27,2.3-.4,3.44-.29.65-.57,1.29-.85,1.94Z" transform="translate(-910.27 -464.09)"/><path class="cls-39" d="M926.49,532.53,924,535a8.6,8.6,0,0,1,2-3.8Z" transform="translate(-910.27 -464.09)"/><path class="cls-40" d="M988.37,473.52l.37,1.09C988.18,474.54,988,474.18,988.37,473.52Z" transform="translate(-910.27 -464.09)"/><path class="cls-41" d="M988.56,474.87a1,1,0,0,1,.76.13c.38.47.28.77-.32.9l-.36-.1-.29-.26C988.43,475.32,988.5,475.09,988.56,474.87Z" transform="translate(-910.27 -464.09)"/><path class="cls-42" d="M973.87,478.34h.54c-.59,3,1.39-.44,1.55.67-.23,1.79-1.61,3.5-.94,5.34-.67,2.05-1.25,4.37-3.26,2.1,1.2-2.51-1.38-4.12-.12-6.65l.3-.57a2.89,2.89,0,0,1,1.42-.95Z" transform="translate(-910.27 -464.09)"/><path class="cls-43" d="M994.47,484.54c-.6,1.9-.24,3.18,1.17,3.79-1.49,2.83-3.13,1-4.65,1.07-.68,0-.26-1.34,0-2.12C991.64,485.21,992.74,484.11,994.47,484.54Z" transform="translate(-910.27 -464.09)"/><path class="cls-21" d="M978.65,493.38c0,1.83,0,3.71-1.62,5-1.4,1.1-1.86-.36-2.57-1.1-.14-2.84,1-4.18,3.27-4.2Z" transform="translate(-910.27 -464.09)"/><path class="cls-44" d="M977.73,493.09a7.69,7.69,0,0,0-3.27,4.2c-.83.45-1.67,1-2.47.38a4.83,4.83,0,0,1,.29-.86,4.22,4.22,0,0,0,1.5-4.11C975.23,492.19,976.89,490.59,977.73,493.09Z" transform="translate(-910.27 -464.09)"/><path class="cls-45" d="M985.28,484.67l1.69-.62c1.23.35,1.23,1.05.09,2.06-1.63-.73-.77,5.31-3.24,2.31A4,4,0,0,1,985.28,484.67Z" transform="translate(-910.27 -464.09)"/><path class="cls-46" d="M987.06,486.11a2.24,2.24,0,0,0-.09-2.06c.39-1.68,1.79-1.47,2.59-2.39l1-.17-1.41,3.25Z" transform="translate(-910.27 -464.09)"/><path class="cls-36" d="M989,475.9a1.72,1.72,0,0,0,.32-.9,1.81,1.81,0,0,1,2.37.82l-1.86,4.75C989.08,479.23,991.12,476.6,989,475.9Z" transform="translate(-910.27 -464.09)"/><path class="cls-47" d="M980.21,479.3l.84.34c-.28,1.16.38,2.52-.95,3.52C979,482,979.74,480.64,980.21,479.3Z" transform="translate(-910.27 -464.09)"/><path class="cls-48" d="M985.28,484.67l-1.46,3.75C982.85,486.57,983.82,485.52,985.28,484.67Z" transform="translate(-910.27 -464.09)"/><path class="cls-49" d="M969.29,602.24c-1.63.14-3.32.51-4.75-.41-4.32-.57-8.1-2.72-12.2-3.93-6.64-2.06-12.88-5.27-19.8-6.53l-3-1a.43.43,0,0,1-.09-.53c.11-.17.2-.24.26-.22,4.36-1.55,7.29,2,11,2.53,1.2-1.57,2.47-2.71,4.12-2a8.11,8.11,0,0,1,1.07.3,25.74,25.74,0,0,1,2.56,1c1,.46,1.75,1.34,2.75,1.78a6.91,6.91,0,0,0,2.14.26,5.55,5.55,0,0,1,3.06,1.09c1.41,1.44,3.21,1.11,5,.61a3.58,3.58,0,0,1,3.69,1,28.83,28.83,0,0,0,4.22,3,2.35,2.35,0,0,1,.68,1.86A2.05,2.05,0,0,1,969.29,602.24Z" transform="translate(-910.27 -464.09)"/><path class="cls-50" d="M932.54,591.37c4.57-.77,8,2.2,12,3.23a78,78,0,0,1,7.8,2.81q.28.42.06.69c-.15.19-.27.27-.35.24Z" transform="translate(-910.27 -464.09)"/><path class="cls-15" d="M952.08,598.34c.1-.31.2-.62.29-.93l12.17,4.42-.67.52Z" transform="translate(-910.27 -464.09)"/><path class="cls-51" d="M937.31,587.54c-1.68-.1-4.31,2.49-4.58-1.6a2.21,2.21,0,0,1,.13-1.38c4.51-4.32,9.83-4.39,14.68-7,2-1.06,4-1.71,5.92-3.17a1.64,1.64,0,0,1,1.17,0,3.06,3.06,0,0,1,1.38,2,4.49,4.49,0,0,1-.43,2.17c-1.44,2.39-3.43,3.06-5.49,3.73-3.62,1.16-7.28,2.18-10.63,4.88C938.73,587.81,938,587.15,937.31,587.54Z" transform="translate(-910.27 -464.09)"/><path class="cls-52" d="M926.38,582.49l-4-.44c.85-4.54,3.72-2.35,5.58-3.52,3.13-1.2,6.24-2.55,9.35-3.91,1.6-.7,3.27-1.7,4.63-.18a3.08,3.08,0,0,1-1,2.64c-2,1.8-4.27,2-6.37,3.21-1.34.73-3.66-.19-3.68,3.25C929.05,584.2,928.22,581.57,926.38,582.49Z" transform="translate(-910.27 -464.09)"/><path class="cls-53" d="M913,561.06c.62-1.46.61-3.31,2.26-4.38.44,1.94.85,3.8,1.27,5.65a2.52,2.52,0,0,1,2.28,2.89c-.24,1.38-.7,2.57-2,3-1.17-.93-1.21-2.68-1.61-4.17Z" transform="translate(-910.27 -464.09)"/><path class="cls-54" d="M928.21,579.83c-1.93.93-4.18-.84-5.86,2.22-1.26-.53-2.94-.24-3.46-2.22a1.48,1.48,0,0,1,1.16-1.44c2.28.06,4.47-1.65,6.73-2a3.49,3.49,0,0,1,1.16.14,2,2,0,0,1,1.21,1.34A2.3,2.3,0,0,1,928.21,579.83Z" transform="translate(-910.27 -464.09)"/><path class="cls-55" d="M937.31,587.54l1.87-.55a2.32,2.32,0,0,1,1.24-.45,4.43,4.43,0,0,1,2.78,1.14c.67,1,2.19,1.41,1.25,3.53-1.27-1.41-2.45,1.5-3.7.89C940.26,589.81,937.57,590.1,937.31,587.54Z" transform="translate(-910.27 -464.09)"/><path class="cls-56" d="M926.38,582.49c1.93-1.2,3.25.42,4.88.59a.81.81,0,0,1,1,0,2.66,2.66,0,0,1,.83,2c-.1.3-.2.6-.31.9-1.67,1.5-2.8.56-3.61-.74S927.73,582.77,926.38,582.49Z" transform="translate(-910.27 -464.09)"/><path class="cls-57" d="M917.74,578.31l-1.13-1.54c.59-2.82,2.73-2.37,4.12-3.52a5.4,5.4,0,0,1,1.72-.62,2.49,2.49,0,0,1,2.07.84,3,3,0,0,1,.49,1.92,2.46,2.46,0,0,1-.71,1.18C922.12,577.27,919.92,577.51,917.74,578.31Z" transform="translate(-910.27 -464.09)"/><path class="cls-6" d="M915.38,573a2.42,2.42,0,0,1,0-2.24c.49-.34.87-.92,1.38-1.25a6.8,6.8,0,0,1,3.8-.66,2.09,2.09,0,0,1,.8,2.29C919.49,573.77,917.49,574.27,915.38,573Z" transform="translate(-910.27 -464.09)"/><path class="cls-58" d="M915.38,573c2-.72,4.08-.33,5.92-2.25l.53-.14a1.81,1.81,0,0,1,.89,1.38,1.39,1.39,0,0,1-.55,1.11l-1.16.79a27.47,27.47,0,0,0-4.83,1.63Z" transform="translate(-910.27 -464.09)"/><path class="cls-59" d="M917.74,578.31c2.08-2.9,4.37-2.54,6.67-2.06-.95,2.6-2.93,2-4.42,2.87l-1.1.71A1.59,1.59,0,0,1,917.74,578.31Z" transform="translate(-910.27 -464.09)"/><path class="cls-60" d="M916.46,570.07l-1.1.72c.23-.66.46-1.32.7-2a.64.64,0,0,1,0-.74c.15-.18.27-.26.34-.23,1.15-.42,1.41-1.68,1.85-2.76,1.87-.52,1.85,1.07,1.87,2.63C919.37,570,917.63,569.1,916.46,570.07Z" transform="translate(-910.27 -464.09)"/><path class="cls-18" d="M916.18,575.55c1.51-1.74,3.09-2.52,4.83-1.63l-4.4,2.85C916.47,576.36,916.32,576,916.18,575.55Z" transform="translate(-910.27 -464.09)"/><path class="cls-61" d="M916.41,567.84c-.11.32-.23.64-.35,1a5,5,0,0,1-.84-4.74C915.93,565.12,917.08,565.89,916.41,567.84Z" transform="translate(-910.27 -464.09)"/><path class="cls-56" d="M921.58,584.17l-4.34-1.89C919.14,581.77,920.74,582,921.58,584.17Z" transform="translate(-910.27 -464.09)"/><path class="cls-56" d="M927.24,587.3c-1.56-.65-3.35-.81-4.34-2.6C924.41,585.44,926.52,585,927.24,587.3Z" transform="translate(-910.27 -464.09)"/><path class="cls-62" d="M979.57,502.56l7.49,2.7c.07.74.13,1.47.2,2.2a2,2,0,0,1-1.15,2.25c-2.42.22-2.72-2.9-4.42-3.81a15.61,15.61,0,0,1-1.82-1.12,1.92,1.92,0,0,1-.67-1.63C979.32,503,979.44,502.75,979.57,502.56Z" transform="translate(-910.27 -464.09)"/><path class="cls-63" d="M992.87,521.83c.3,1.82,1.38,1,2.33.57a2,2,0,0,1,.7,1.72,3.58,3.58,0,0,1-.69,2.08,6.82,6.82,0,0,1-3.23,2.46c-2.42-.92-1.39-3.43-1-5.65a4.23,4.23,0,0,1,.82-1.3Q992.48,521.17,992.87,521.83Z" transform="translate(-910.27 -464.09)"/><path class="cls-64" d="M992.87,521.83l-.28-.1-.28-.1a19.34,19.34,0,0,0-1.54-2.41,4.59,4.59,0,0,1-.13-4.06c.56-.93,1.22-1.59,2.14-1.46C994.81,516,994.13,518.82,992.87,521.83Z" transform="translate(-910.27 -464.09)"/><path class="cls-65" d="M992.78,513.7l-2,2.5c-1.5-.16-2-1.39-2-3.11a4.94,4.94,0,0,1,.84-2.21,2.14,2.14,0,0,1,1.78-.88C992.45,510.82,993.37,511.72,992.78,513.7Z" transform="translate(-910.27 -464.09)"/><path class="cls-66" d="M991.41,510l-1.15.78a2.77,2.77,0,0,1-2.5-2.26c0-.24,0-.49,0-.73C990,506.43,990.4,508.86,991.41,510Z" transform="translate(-910.27 -464.09)"/><path class="cls-67" d="M995.75,524c-.18-.54-.36-1.09-.55-1.63.57-1.16,1.25-2.09,2.4-1.93l-1.26,3.72-.39.21Z" transform="translate(-910.27 -464.09)"/><path class="cls-68" d="M986.73,508.79c.18-.44.35-.89.52-1.33a4.72,4.72,0,0,1,.53.33l.11,0a1.13,1.13,0,0,1,0,.77c-.1.26-.17.38-.21.37A.81.81,0,0,1,986.73,508.79Z" transform="translate(-910.27 -464.09)"/><path class="cls-69" d="M989.13,570.55l-2.06,5.72-.4.51a15,15,0,0,1-4.15,2.12,13.42,13.42,0,0,0-4.29.64,3.19,3.19,0,0,1-2.1-.45,2.56,2.56,0,0,1-.7-.85,9.09,9.09,0,0,1,1.09-3.71c3.11-1.9,6.33-3.49,8.91-6.71a2.34,2.34,0,0,1,2.18-.52C988.17,568.34,991.2,567.31,989.13,570.55Z" transform="translate(-910.27 -464.09)"/><path class="cls-70" d="M982.58,588.18l-1.44,5.07-.55.41c-2.36.38-4.75,1.7-7.1,1.33a2.73,2.73,0,0,1-1.84-1.48,2.41,2.41,0,0,1,1.26-2.37c1.24-.59,2.54-.2,3.75-1.13,2.39-1-.95-1,0-1.73a1.77,1.77,0,0,1,1.26-1.38,10.37,10.37,0,0,1,3.81.57A1.54,1.54,0,0,1,982.58,588.18Z" transform="translate(-910.27 -464.09)"/><path class="cls-71" d="M989.13,570.55c.11-.73.7-1.77-.72-1.15s-1-.75-.84-1.71c-.28-1.73.74-2.5,1.83-3.22,1.08-.26,2.3-.9,2.77.79-.53,1.56-.8,3.25-1.88,4.56C989.91,570.07,989.52,570.31,989.13,570.55Z" transform="translate(-910.27 -464.09)"/><path class="cls-72" d="M982.58,588.18,982,588c-.83.43-1.45-.05-2.11-.34a1.76,1.76,0,0,1,.63-2.45c1.46-1-.31-.71-.1-1.18a3.07,3.07,0,0,1,.37-2.75,2.08,2.08,0,0,1,3.25,0c.57,1.38-1,2.4-.91,3.71C982.07,586,983.05,587.14,982.58,588.18Z" transform="translate(-910.27 -464.09)"/><path class="cls-15" d="M990.29,569.82l1.68-5a8.11,8.11,0,0,1,2.85-7.89c.49.13,1.82-.3,1,.91-2.4,3.77-3.17,8.16-4.89,12.16Z" transform="translate(-910.27 -464.09)"/><path class="cls-73" d="M987.07,576.27c.34,2,1,4.12-1.75,5.13-.46.3-.8.21-1-.28a6.2,6.2,0,0,1,2.64-4.5Z" transform="translate(-910.27 -464.09)"/><path class="cls-74" d="M984.5,581.06l.82.34c-.76,1.19-.83,3-2.24,3.61-.73-1.39-.24-2.35,1.08-3a.69.69,0,0,1,0-.69C984.34,581.12,984.43,581,984.5,581.06Z" transform="translate(-910.27 -464.09)"/><path class="cls-75" d="M981.72,593.47l-1.69,4.9c-.35,1.07-.79,1.24-1.32.48a7,7,0,0,1,.72-3.92,6.46,6.46,0,0,1,1.45-1.87l.26.19A4.07,4.07,0,0,1,981.72,593.47Z" transform="translate(-910.27 -464.09)"/><path class="cls-76" d="M995.75,524a1.21,1.21,0,0,0,.59.16c.55,1,.08,2.17-.08,3.28a10.9,10.9,0,0,1-1.06,5.42c-.94,1.93-2,3.78-2.8,5.81-1,2.42-1.75,1.57-2.41.14a5.49,5.49,0,0,1,0-1.67,40.5,40.5,0,0,1,3.31-9,10.13,10.13,0,0,1,1.38-2.15Z" transform="translate(-910.27 -464.09)"/><path class="cls-77" d="M995,542.57c-.71,2-.26,4.19-1.58,6a1.78,1.78,0,0,1-1.55,1.24,3,3,0,0,1-2.41-2.72,7.3,7.3,0,0,1,1.39-4.42,3.61,3.61,0,0,1,1.75-1.12C993.86,540.65,994.6,541.12,995,542.57Z" transform="translate(-910.27 -464.09)"/><path class="cls-78" d="M992.57,541.6l-1.16.93c-1.25.27-1.69,3-3.29,2.19a3.58,3.58,0,0,1-.18-1.4c.34-1.89.8-3.71,2.47-4.72.68,1.13,1.32,1.09,2-.45.85-2,1.75-3.89,2.63-5.84.34,1.56-.46,2.83-1.2,4.13C993.28,538.13,992,539.71,992.57,541.6Z" transform="translate(-910.27 -464.09)"/><path class="cls-79" d="M993.84,536.44l1.2-4.13a12.71,12.71,0,0,1,1.22-4.84C997.73,530.94,995.54,533.63,993.84,536.44Z" transform="translate(-910.27 -464.09)"/><path class="cls-80" d="M978.88,599.06l1.15-.69c1.56.74.8,2.31.39,3.77-1.21,1.5-2.67,1.13-4,1.63a6.73,6.73,0,0,1-5.37-2,3.17,3.17,0,0,1,.83-2.28,3.38,3.38,0,0,1,1.19-.8C975,598.71,977.15,597.75,978.88,599.06Z" transform="translate(-910.27 -464.09)"/><path class="cls-15" d="M971.48,600.54c.71,2.86,3.36,2,4.93,3.23-1,1-1.75.11-2.63.22l-4.49-1.75c.19-.4.37-.8.55-1.2A1.43,1.43,0,0,1,971.48,600.54Z" transform="translate(-910.27 -464.09)"/><path class="cls-35" d="M992.3,549.38l1.09-.76,2,1.91a8.59,8.59,0,0,1-.62,4.18c-1,2.32-2.46,3.78-4.36,3.36-1.61-.36-1.21-2.4-1-4.06A8.06,8.06,0,0,1,992.3,549.38Z" transform="translate(-910.27 -464.09)"/><path class="cls-81" d="M919.67,568c-.51-.94-.21-2.57-1.41-2.94l-1.74-2.75c2-2.31,3-4.83,1.88-7.65-1-2.52,2-4.21,1.71-6.57a3.47,3.47,0,0,0,2.52-2.52,5,5,0,0,1,.65-2.7.79.79,0,0,1,1-.32,3.77,3.77,0,0,1,.75,2.28,14.16,14.16,0,0,0,.53,3.55c.17.57.3,1.15.44,1.73.29,1.45,1.24,2.37,1.61,3.76a4,4,0,0,1-.37,2c-.52,1.31-2,1.47-2.35,3a3.53,3.53,0,0,0,1.42,2.38,7.16,7.16,0,0,1,.79.77c.4.39.79.8,1.17,1.22a3.44,3.44,0,0,1,.73,3.68c-1.47,2.74-3.36-.38-4.9,1.57-.73,1.15-1.57,2-2.74,2.07l-.06.21-1.11-1.63A2,2,0,0,1,919.67,568Z" transform="translate(-910.27 -464.09)"/><path class="cls-82" d="M970.94,467.38l1.58.44c.76,1.79,1.43,3.63.56,6a9.4,9.4,0,0,0-2.06.41.72.72,0,0,1-.77-.51l-1-1.67C969.86,470.49,969.85,468.74,970.94,467.38Z" transform="translate(-910.27 -464.09)"/><path class="cls-83" d="M970.94,467.38A4.57,4.57,0,0,1,969.3,472c-.25-1.46-.49-2.92-.74-4.37Z" transform="translate(-910.27 -464.09)"/><path class="cls-84" d="M970.86,477.21l-.11-2.19.41-.3.41.17.21.45a3.08,3.08,0,0,1-.18,1.11l-.31.48Z" transform="translate(-910.27 -464.09)"/><path class="cls-85" d="M971.18,478.49c-.43-.24-.56-.66-.32-1.28L971,477a1.29,1.29,0,0,1,1,0l.35.4.19.55A1.5,1.5,0,0,1,972,479,.64.64,0,0,1,971.18,478.49Z" transform="translate(-910.27 -464.09)"/><path class="cls-86" d="M970.25,473.71l1,.14c0,.15.07.31.1.47a.82.82,0,0,1-.6.68l0,0Z" transform="translate(-910.27 -464.09)"/><path class="cls-87" d="M971.18,478.49a4.3,4.3,0,0,0,.57.2c.47.37.4.65-.2.84l.09.28Z" transform="translate(-910.27 -464.09)"/><path class="cls-88" d="M930.2,524.88l1.65-2.73c-.11-1.35.59-2.5,1.06-3.72,1.88-1,3.34-4.09,5.7-2.91a6.64,6.64,0,0,1-.6,5.73,4.77,4.77,0,0,1-.92,1,18.71,18.71,0,0,1-2.18,1c-1.5.07-2.33,4-4.21,2C930.39,525.39,930.21,525.29,930.2,524.88Z" transform="translate(-910.27 -464.09)"/><path class="cls-89" d="M932.06,533.49l1.18-.71c1.15-.31,1.67.61,2.24,1.42a4.25,4.25,0,0,1,.29,4,7.47,7.47,0,0,1-5.48,2.88,3.61,3.61,0,0,1-2.51-2.21,2.92,2.92,0,0,1,1-2.46A13.33,13.33,0,0,1,932.06,533.49Z" transform="translate(-910.27 -464.09)"/><path class="cls-90" d="M934.91,523.29c.39-.66.44-1.75,1.4-1.68.56,1,1.4,1.7,1.67,3,.19.56.36,1.13.53,1.71a13.12,13.12,0,0,0,1.08,2.7c.81,1.6,2.34,2.67,2,5.12-3,3.66-3.64-.19-5.13-1.39-.68-1.37-1.69-2.58-1-4.66C935.3,526.47,935.11,524.88,934.91,523.29Z" transform="translate(-910.27 -464.09)"/><path class="cls-91" d="M935.49,528.06c-.1,1.77,1.32,2.28,1.7,3.66a10.17,10.17,0,0,1-1.56,2.65l-.48.29-1.91-1.88-2.39-1.07Z" transform="translate(-910.27 -464.09)"/><path class="cls-92" d="M932.06,533.49a6.35,6.35,0,0,1-2.86,3.34c-.66.23-.92-.27-1.17-.79-.25-.93-.89-1.76-.12-3C929.61,531.64,930.73,533.08,932.06,533.49Z" transform="translate(-910.27 -464.09)"/><path class="cls-93" d="M927.91,533.07l.69,2.45c-1,.61-1.65.23-2.09-.75a2.36,2.36,0,0,1,.13-2.28Z" transform="translate(-910.27 -464.09)"/><path class="cls-94" d="M930.2,524.88l.5.36c-.33,1-.85,2.31-1.65,1.9s.2-1.58.45-2.41C929.73,524.79,930,524.84,930.2,524.88Z" transform="translate(-910.27 -464.09)"/><path class="cls-95" d="M990,554.12c.12,6.92,3.05,1,4.75.59l.69.33-.66,1.93L992,564.85l-2.47.21c-2.72-1.07-4.11,2.56-6.2,3.74-.75.45-1.49.72-2.15.18a13.72,13.72,0,0,1-.63-4,4.18,4.18,0,0,1,2.42-3.16c2-.83,3-3,4.41-4.76C988.21,556.07,988.73,554.53,990,554.12Z" transform="translate(-910.27 -464.09)"/><path class="cls-96" d="M938.4,515.68c-1.86,0-3.06,3-5,2.59a.48.48,0,0,1-.19-.61q.18-.37.27-.33l1-1.91c3.56-1.24,5.9-4.45,8-8.09l.72-.28a7,7,0,0,1-.17,7.29,2.41,2.41,0,0,1-1.07.78c-1.11-1.45-1.79.49-2.65,1.06A.64.64,0,0,1,938.4,515.68Z" transform="translate(-910.27 -464.09)"/><path class="cls-97" d="M945.31,505.68c2.61.08,3.59-2.29,4.47-4.8l1.73-.39c.68,1.39-.4,3.1-.08,4.53a2,2,0,0,0,1.07.91c1.16.42,2.53-.85,3.64-.06a2.47,2.47,0,0,1,.75,1.68,3.8,3.8,0,0,1-.35,1.39c-1.65,1.84-3.3.5-4.95,1.05a3.6,3.6,0,0,1-1.09-.17c-1.68-2.67-1.71,1.09-2.59,1.49a1.77,1.77,0,0,1-1.15.2,2.73,2.73,0,0,1-1.47-1.85C945.1,508.37,944.24,507.22,945.31,505.68Z" transform="translate(-910.27 -464.09)"/><path class="cls-98" d="M950.19,506.54c-.75-2.17.87-4,1.32-6.05,2.39-2.59,4.88-3.05,7.43-2,0,.22.07.43.11.65a3.1,3.1,0,0,1-.68,1.2,23.44,23.44,0,0,1-4.09,2.78C952.65,503.67,951.68,505.65,950.19,506.54Z" transform="translate(-910.27 -464.09)"/><path class="cls-99" d="M961.55,496h1.72a1.57,1.57,0,0,1,.36,2c-1.64,1.57-3.24,2.45-4.65.53l0-.12A3.38,3.38,0,0,1,961.55,496Z" transform="translate(-910.27 -464.09)"/><path class="cls-100" d="M976,479c-.82.3-1,2-1.91,1.69a13.89,13.89,0,0,1,.36-2.36c.46-1.29.92-2.58,1.39-3.87.44-.65.88-1.77,1.32-1.87,1-.2.69,1,.5,1.69C977.15,475.9,976.52,477.45,976,479Z" transform="translate(-910.27 -464.09)"/><path class="cls-101" d="M942.22,514.49c1.59-2.52.27-4.95.9-7.44l1.14-.6a11.32,11.32,0,0,1,1,2.86c0,1.86.48,3.63,0,5.6a3.35,3.35,0,0,1-1.25,1.85C942.87,516.73,942.19,516,942.22,514.49Z" transform="translate(-910.27 -464.09)"/><path class="cls-96" d="M945.05,509.16c-1-.43-1.2-1.39-.79-2.71l1-.77c-.07,1.24,1.11,1.94.55,3.4C945.56,509.56,945.29,509.56,945.05,509.16Z" transform="translate(-910.27 -464.09)"/><path class="cls-102" d="M926.51,534.77l2.09.75.6,1.31-1.5,1.73-.42.11a5.09,5.09,0,0,0-1.16-.31.57.57,0,0,1-.51-.58Z" transform="translate(-910.27 -464.09)"/><path class="cls-39" d="M923.74,542.65l-1.11,2.94a4.85,4.85,0,0,1,1.68-5A1.68,1.68,0,0,1,923.74,542.65Z" transform="translate(-910.27 -464.09)"/><path class="cls-93" d="M923.74,542.65l.57-2.06c.43-.94.86-1.87,1.3-2.81l.56.18a3.44,3.44,0,0,1,0,2.79,4.84,4.84,0,0,1-1.19,1.85l-.6.22A5.72,5.72,0,0,1,923.74,542.65Z" transform="translate(-910.27 -464.09)"/><path class="cls-103" d="M972.36,499.05l2.77,1.84-.06.69c-1,1.88-2.69,2.92-4,4.48a2.09,2.09,0,0,1-1.07.39c-2.48.35-5.14,2.42-7.35.32a3.07,3.07,0,0,1,.42-2.07,3.59,3.59,0,0,1,1.52-1.27C967.47,503,970,501.35,972.36,499.05Z" transform="translate(-910.27 -464.09)"/><path class="cls-104" d="M972.36,499.05c-1.67,4.52-4.54,5.13-7.67,4.91,0-1.92,1.34-2.76,2.32-3.9a10.73,10.73,0,0,1,2.27-2.11l2.45.52Z" transform="translate(-910.27 -464.09)"/><path class="cls-105" d="M978.4,501a1.66,1.66,0,0,1,1.17,1.53l0,0a2.91,2.91,0,0,1-2.68.35,2.73,2.73,0,0,1-1.91-1.89l.17-.17C976.41,499.8,977.32,500.88,978.4,501Z" transform="translate(-910.27 -464.09)"/><path class="cls-106" d="M995.86,480.63c1.4-1.48-.55-6.12,3.46-5.13C998.33,477.37,998.79,480.6,995.86,480.63Z" transform="translate(-910.27 -464.09)"/><path class="cls-107" d="M995.17,482.47l-.36-.72.62,0A2.18,2.18,0,0,1,995.17,482.47Z" transform="translate(-910.27 -464.09)"/><path class="cls-108" d="M994,476.44a.84.84,0,0,0,.63.42c-.39,1.93-1.16,3.41-2.93,3.72C991.07,478.23,992.68,477.45,994,476.44Z" transform="translate(-910.27 -464.09)"/><path class="cls-109" d="M971.27,473.85c.86-2.14,1.27-.6,1.81,0l-.23.27a5.47,5.47,0,0,0-.08,1.06,1.32,1.32,0,0,1-.68.71c-.31,0-.46-.23-.42-.64l0-.06a1.86,1.86,0,0,1-.38-1.17Z" transform="translate(-910.27 -464.09)"/><path class="cls-110" d="M972.26,477.87a1.69,1.69,0,0,1-.65-.37,1.57,1.57,0,0,1,0-1.11,1.54,1.54,0,0,1,.7-.85h0c.4-.2.66-.08.79.36a.65.65,0,0,1-.23.52A1.22,1.22,0,0,1,972.26,477.87Z" transform="translate(-910.27 -464.09)"/><path class="cls-111" d="M972.26,477.87c.2-.48.39-1,.58-1.45.54.46,1.27.75,1,1.92l-.07-.17c-.71.53-1.2.35-1.53-.39Z" transform="translate(-910.27 -464.09)"/><path class="cls-112" d="M973.08,475.9l-.79-.36c.19-.48.37-1,.56-1.45C972.92,474.69,973,475.3,973.08,475.9Z" transform="translate(-910.27 -464.09)"/><path class="cls-113" d="M969.28,498c-.32,1.19-.65,2.38-1.8,2.86-.48-2.14-2.54-.79-3.52-1.83a2,2,0,0,1-.53-1.06c0-.63-.11-1.26-.16-1.89,1-.07,1.84.57,2.84-.26C967.37,496.12,968.68,496.38,969.28,498Z" transform="translate(-910.27 -464.09)"/><path class="cls-114" d="M933.47,517.33c0,.31-.05.63-.08.94-.52,1.3-1,2.59-1.54,3.88A4.67,4.67,0,0,1,933.47,517.33Z" transform="translate(-910.27 -464.09)"/><path class="cls-110" d="M972.27,477.78l1.53.39c-.59,1-1.31,1.59-2.25,1.36a.85.85,0,0,0,.2-.84C971.93,478.39,972.1,478.08,972.27,477.78Z" transform="translate(-910.27 -464.09)"/><path class="cls-115" d="M944.45,591.21c-.53-.93-1.06-1.85-1.58-2.78,1.45-1.94,3.25-2.14,5-2.54,3.29.11,6.41-2,9.61-3.06,3.55-.67,7-3.06,10.61-2.91a2.14,2.14,0,0,1,1.92,1.25,2,2,0,0,1-1.61,2.11c-7.72,2.6-15.27,7-23.14,8.05Z" transform="translate(-910.27 -464.09)"/><path class="cls-116" d="M945.28,591.33c3.94-2.56,8.16-3.06,12.21-5s8.31-3.31,12.47-4.93a1.86,1.86,0,0,1,3.15,1.43,1.92,1.92,0,0,1-.81,1.06c-1.79.51-3.63.56-5.28,2.15a8.36,8.36,0,0,1-2.17.87,9.29,9.29,0,0,1-1.12.3,33.65,33.65,0,0,0-5.61,2c-3.24,1.18-6.45,2.92-9.76,3Z" transform="translate(-910.27 -464.09)"/><path class="cls-117" d="M980.88,593.06c-.23.7-.46,1.39-.7,2.09-2,2.88-4.87,2.6-7.24,4.16l.06,0a21.78,21.78,0,0,1-3.63.53,9.45,9.45,0,0,1-5-2.85c.22-2.88,2-2.21,3.28-2.65,2.09-.17,4,1,6.25-.31C976.21,594.39,978.65,591.83,980.88,593.06Z" transform="translate(-910.27 -464.09)"/><path class="cls-118" d="M964.1,586l.78.29a10.82,10.82,0,0,1,1,3.49,3.38,3.38,0,0,1-.6,2.66,9.16,9.16,0,0,1-5.68,2.12,26.09,26.09,0,0,1-4.85-.53c-.69.15-1.34-.45-2.07.25s-1.21.52-1.77.16c-.44-2.21.7-3,2.24-3.48a24.86,24.86,0,0,0,4.38-1.81C959.77,588.31,962.1,588,964.1,586Z" transform="translate(-910.27 -464.09)"/><path class="cls-119" d="M959.8,593.4l5.53-1.43c.75-.62,1.58-1,2.35-1.54,1.43-2,3-3.12,4.94-2.27a2.47,2.47,0,0,1,.81.8,2.18,2.18,0,0,1-.27,2.53l-1.44,1.67c-1.32.86-2.75,1.11-4.08,1.9-.94,1.13-2.52-.13-3.23,1.88-.79-1-1.69-1.67-3.06-.76-1.2.19-2.46.26-2.85-1.23C958.27,594.08,959.12,593.62,959.8,593.4Z" transform="translate(-910.27 -464.09)"/><path class="cls-120" d="M957.83,589.33c-1.75,3.1-5.61.83-6.9,5.12-1.34,0-1.45-1.89-2.57-2.22,3.16-2.19,6.53-2.74,9.83-3.9a.72.72,0,0,1-.05.73C958,589.26,957.9,589.35,957.83,589.33Z" transform="translate(-910.27 -464.09)"/><path class="cls-74" d="M959.8,593.4c-2.2,3.49,1.31,1.59,1.55,2.78-1.71.09-3.85,2.19-5-.56,0-1.34-1.61-.71-1.72-2C956.46,592.8,958.09,593.43,959.8,593.4Z" transform="translate(-910.27 -464.09)"/><path class="cls-121" d="M969.37,599.79c1.3-2.28,2.44-.82,3.63-.53l-1.52,1.28-1.64.5Z" transform="translate(-910.27 -464.09)"/><path class="cls-120" d="M954.66,593.65c.78.39,1.78.49,1.72,2l-3.68-1.33A1.65,1.65,0,0,1,954.66,593.65Z" transform="translate(-910.27 -464.09)"/><path class="cls-122" d="M954.56,574.81l-.75-.27c-3.14,2-6.24,4.3-9.67,3.47.71-3.71,3.55-3.13,5.34-4.68,5-2.58,10.2-4.42,15.21-7.11a11.89,11.89,0,0,0,4.87-1.3c1.11-.45,2.23-.87,3.34-1.3s2.4-.48,3.18.75c.36,2.16-1.15,3.13-2.24,4.37a6.55,6.55,0,0,1-1.06.86c-4,1.17-8.16.94-11.92,4.41a5,5,0,0,1-3.23.81C956.62,574.73,955.56,575,954.56,574.81Z" transform="translate(-910.27 -464.09)"/><path class="cls-123" d="M944.19,577.77c3.32.28,6.34-2.94,9.62-3.23-3.06,4.64-7.4,4.31-11.14,6.13-3.17,1.54-6.48,2.48-9.63,4.37l-1-1.63c0-.9.34-1.94,1-2.24C936.68,579.44,940.35,577.1,944.19,577.77Z" transform="translate(-910.27 -464.09)"/><path class="cls-124" d="M940,587.31l-.77-.32c-.15-2.73,1.62-2.2,2.81-2.89,4.27-2.47,9-2,13-5.85,1.55-.87,2.9-1.26,3.13,1.27-5.2,4.47-11,5.51-16.59,7.38A14.4,14.4,0,0,0,940,587.31Z" transform="translate(-910.27 -464.09)"/><path class="cls-125" d="M958,579.36c-.65-1.29-2-.72-3-1.1.23-.64.46-1.28.68-1.92a1.76,1.76,0,0,1,2.15-.87c1.13.66,2.41,1.06,3.16,2.38a2,2,0,0,1-.23,1.38A2.24,2.24,0,0,1,958,579.36Z" transform="translate(-910.27 -464.09)"/><path class="cls-123" d="M957.66,576.05l-1.94.29a1.59,1.59,0,0,1-1.16-1.53c.89-1.17,1.89-1.56,3-1.15.19.92,1.65.86,1,2.43C958.19,576.42,957.89,576.4,957.66,576.05Z" transform="translate(-910.27 -464.09)"/><path class="cls-126" d="M964.88,567.36l-15.18,6.82a22.48,22.48,0,0,0-5.65,2.26c-1.23.61-2.7,1.92-3.62,0,.49-.56,1-1.13,1.46-1.7,2.65-3.07,6.07-3.49,9-5.52,3.55-3.31,7.6-3.93,11.48-5.49,1.93-.78,2.69.48,3,2.39A1.61,1.61,0,0,1,964.88,567.36Z" transform="translate(-910.27 -464.09)"/><path class="cls-127" d="M951.11,570.24l-9.22,4.48c-4.73.18-9.12,3.46-13.68,5.11l.7-2a1.53,1.53,0,0,1,.07-1c.14-.3.22-.45.27-.43,5.88-3.08,11.9-5.2,17.89-7.52,1.41-.55,2.77-.63,3.77.64C951,569.8,951,570,951.11,570.24Z" transform="translate(-910.27 -464.09)"/><path class="cls-128" d="M940.43,576.42c3.12.74,6.14-3.62,9.27-2.24-1.59,2-4,1.32-5.51,3.59-4,2.49-8.54,1.42-12.19,5.64l-.74-.33c.21-1-2.61-1.93.5-3C934.67,579.11,937.55,577.67,940.43,576.42Z" transform="translate(-910.27 -464.09)"/><path class="cls-129" d="M920,579.12c1.22-1.76,3-1.75,4.42-2.87l.3-.89c1.49-.69,1.95.16,1.92,1.77C924.42,577.91,922.32,580.35,920,579.12Z" transform="translate(-910.27 -464.09)"/><path class="cls-130" d="M929.26,576.88c-.11.32-.23.64-.35,1l-1.49-.52c-.28-1.44-1.49-2.21-1.4-3.9.72-1.69,1.88-1.46,3-1.58a2,2,0,0,1,1,.37,2.53,2.53,0,0,1,.58,1.69A9.65,9.65,0,0,1,929.26,576.88Z" transform="translate(-910.27 -464.09)"/><path class="cls-131" d="M926.28,573.55c.58,1.13,1.87,1.82,1.14,3.78l-.79-.2-1.92-1.77-.42-1.29C924.9,572.35,925.58,572.6,926.28,573.55Z" transform="translate(-910.27 -464.09)"/><path class="cls-132" d="M958,579.36c1-1,1.76-.43,2.6-.18,1-.46,2.32-.41,2,1-.42,2-2.22,1.72-3.47,2.26-3.85,1.13-7.61,3-11.44,4.35l-4.85,1.62L940,587.31C945.8,583.6,952.1,582.7,958,579.36Z" transform="translate(-910.27 -464.09)"/><path class="cls-133" d="M926.28,573.55a1.7,1.7,0,0,0-2,.52l-2.12-.94.27-.9c1.08-3.28,2.86-3.32,4.83-2.5a4,4,0,0,1,1.84,2.68Z" transform="translate(-910.27 -464.09)"/><path class="cls-11" d="M919.67,568c.17.38.35.75.52,1.13a4.14,4.14,0,0,1-3.73.92C917.31,568.67,918.67,568.93,919.67,568Z" transform="translate(-910.27 -464.09)"/><path class="cls-134" d="M927.26,570.61c-1.73-.89-3.31-.11-4.82,1.62l-1.08-1.66,2.54-2.3a2.67,2.67,0,0,1,3.66.83A1.32,1.32,0,0,1,927.26,570.61Z" transform="translate(-910.27 -464.09)"/><path class="cls-135" d="M982.22,504.7c2.31.43,1.6,4.75,4.18,4.84l.25.58a7.66,7.66,0,0,1,.14,1.37,18.66,18.66,0,0,1-2.33,9.93c-.84,1-1.73,1.71-2.76,1-.6-1.79-.07-3.75.21-5.66a16,16,0,0,0,.27-3.88,27.7,27.7,0,0,0-.33-3.56c-.08-.78-.13-1.58-.21-2.37S981.45,505.36,982.22,504.7Z" transform="translate(-910.27 -464.09)"/><path class="cls-136" d="M982.22,504.7l-.06,2.19c-1.93,1.13-3.88,1.91-5.87,1.56-.9-1-.51-2.19.2-3.41,1.14-1.55,2.37-1.05,3.58-1Z" transform="translate(-910.27 -464.09)"/><path class="cls-137" d="M980.07,504.05l-3.14,1.09a2.37,2.37,0,0,1-1.16.19c-2.57-2.65.65-2.54,1.52-3.54l2.25.81C979.72,503.08,979.89,503.56,980.07,504.05Z" transform="translate(-910.27 -464.09)"/><path class="cls-135" d="M986.73,508.79a4,4,0,0,1,.69.09c-.2.82-.51,1.19-1,.56l0,.1A1.46,1.46,0,0,0,986.73,508.79Z" transform="translate(-910.27 -464.09)"/><path class="cls-78" d="M991.8,522.59c.19,1.81-1.64,4.36.6,5.41-.63,5.65-3.23,10.94-4.22,16.52l.15.3a9.44,9.44,0,0,1-4.14,8.66c-2.24,1-4.42,2.4-6.65,3.48-1,.5-2.32.59-2.76-.78-.38-1.21.53-2.26,1.34-3,1.3-1.2,2.2-2.91,3.55-4,.93-.57,2-1,2.2-2.54a7.33,7.33,0,0,1,1.12-2.17c.53-1,.34-2,.55-3.05a6.77,6.77,0,0,1,1.12-2.56c3.88-2.94,3.25-7.27,3.69-11.27a13.23,13.23,0,0,1,1.73-4.36C990.61,522.6,991.15,522.12,991.8,522.59Z" transform="translate(-910.27 -464.09)"/><path class="cls-57" d="M988.18,544.52c-.46-.31-2.15,1.47-1.37,0,2.53-4.78,3.45-9.66,4.11-14.74.08-.59,1-1.19,1.48-1.79a2.89,2.89,0,0,1,2.27-2l-.68,1.81a50.91,50.91,0,0,0-3.43,9.78,1.91,1.91,0,0,1-.15,1Z" transform="translate(-910.27 -464.09)"/><path class="cls-138" d="M991.8,522.59l-1.08.73c-.49.13-.8-.07-.93-.62a3.51,3.51,0,0,1,1.57-3.37c2.65-1,1,1.27.95,2.3Z" transform="translate(-910.27 -464.09)"/><path class="cls-68" d="M991.36,519.33,990,523c-1.4,3.26-3.57,3.75-5.72,3-2.33-.82-.43-3.35-.34-5.14.9-3.42,2.31-6.78,2.18-10.32,1.7-.59,3.12-.69,2.93,2.1-.18,1.81.77,2.66,1.67,3.56C990.94,517.24,991.15,518.28,991.36,519.33Z" transform="translate(-910.27 -464.09)"/><path class="cls-139" d="M989.07,512.63c-.58-1.41-1.81-1.66-2.93-2.1l.24-1.09,1-.56c.15-.38.31-.75.47-1.13l2.37,3C989.86,511.4,989.46,512,989.07,512.63Z" transform="translate(-910.27 -464.09)"/><path class="cls-140" d="M981.28,568.78l1.7-.59c1-.29,2.08-1.2,2.86,0a13.53,13.53,0,0,1-9.32,6.77.82.82,0,0,1-1-.14,2.51,2.51,0,0,1-.31-1.86,4.87,4.87,0,0,1,1.67-2.12C978.32,570,979.67,568.66,981.28,568.78Z" transform="translate(-910.27 -464.09)"/><path class="cls-141" d="M975.53,577.77l.7.47c1,4.62-1.42,3.77-3.45,3.6a31.3,31.3,0,0,0-7-2,1.92,1.92,0,0,1-1.4-2.24,2.61,2.61,0,0,1,2.48-1c2.43,0,4.78.48,7.28.06A1.63,1.63,0,0,1,975.53,577.77Z" transform="translate(-910.27 -464.09)"/><path class="cls-142" d="M984.5,581.06c-.12.31-.24.62-.34.94-1.1-.17-2.09-1.14-3.38,0-1.1.52-1.52-.07-1.55-1.3.72-2.47,2.59-1.31,3.74-2.43,1.22-1.34,2.46-2.52,4-1.61A10.62,10.62,0,0,1,984.5,581.06Z" transform="translate(-910.27 -464.09)"/><path class="cls-143" d="M985.84,568.22l-2.86,0c1.56-1.56,3-3.27,4.7-4.64,1.44-1.2,2.38-.91,1.82,1.51l-1.93,2.63Z" transform="translate(-910.27 -464.09)"/><path class="cls-144" d="M973.23,581.63c.95-1.21,3.62,0,3-3.4l2.2.59c.83-.11.94.51.84,1.35a4.11,4.11,0,0,1-1.85,3c-.93.48-1.89.52-2.83.94-.77.26-1.5.35-1.89-.56l.15-1.09a.57.57,0,0,1,0-.67C973,581.66,973.15,581.6,973.23,581.63Z" transform="translate(-910.27 -464.09)"/><path class="cls-145" d="M978.89,580.21c-.15-.46-.3-.92-.46-1.39,1.61-1.94,3.08-1.2,4.54-.59-.65,2.21-2.33,1.14-3.36,2.17C979.23,580.8,979,580.74,978.89,580.21Z" transform="translate(-910.27 -464.09)"/><path class="cls-146" d="M975.53,577.77l-1.56-.24a2.26,2.26,0,0,1,.21-2,1.71,1.71,0,0,1,1.61-.86l.73.34A3.14,3.14,0,0,1,975.53,577.77Z" transform="translate(-910.27 -464.09)"/><path class="cls-147" d="M980.82,584.17c1.9,1.72-1.45,1.74-1,3-.63.29-1.28-.34-1.89.46l-1.11.7a2.51,2.51,0,0,1-3.09,0c-.66-.42-1.56-.84-1.26-2,.56-2.06,2.15-1.88,3.4-2.39a16.89,16.89,0,0,0,2.41-.71C979.29,583.1,980.28,583,980.82,584.17Z" transform="translate(-910.27 -464.09)"/><path class="cls-148" d="M967.64,595.06c1.23-1.4,2.36-3.33,4.08-1.9l2.22.82C971.75,597.35,969.71,595.6,967.64,595.06Z" transform="translate(-910.27 -464.09)"/><path class="cls-149" d="M973.84,587.29l3,1,2.19,1.23c-.6,1-1.43.76-2.16,1.05-1.71.81-2.85.1-3.72-1.38h0A1.62,1.62,0,0,1,973.84,587.29Z" transform="translate(-910.27 -464.09)"/><path class="cls-150" d="M973.12,589.21l3.72,1.38c-1.18,2.55-2.44,1.09-3.68.9C973.15,590.73,973.13,590,973.12,589.21Z" transform="translate(-910.27 -464.09)"/><path class="cls-151" d="M977.92,587.61c.14-.57-.16-1.53.48-1.59s.94.72,1.41,1.13L982,588C980.33,589.23,979.25,587.8,977.92,587.61Z" transform="translate(-910.27 -464.09)"/><path class="cls-152" d="M980.82,584.17l-2.61.13c-.25-.65-1.14-.55-1.15-1.48l1.83-2.61.72.19a1.61,1.61,0,0,0,1.17,1.56C980.79,582.69,980.81,583.43,980.82,584.17Z" transform="translate(-910.27 -464.09)"/><path class="cls-153" d="M972.94,599.31c1.94-3.2,4.86-2.65,7.24-4.16l-1.3,3.91A7.48,7.48,0,0,1,972.94,599.31Z" transform="translate(-910.27 -464.09)"/><path class="cls-78" d="M990.56,537.61a18.49,18.49,0,0,1,3.43-9.78Z" transform="translate(-910.27 -464.09)"/><path class="cls-154" d="M983.59,552.93c2.58-1.93,3.77-4.94,4.74-8.11,1.33,0,.86-4.6,3.08-2.29-.45,1.65-.89,3.31-1.34,5a7,7,0,0,1-1.89,4.91c-1.18,1.29-2.41,2.4-4,2.26C983.63,554.36,983.45,553.75,983.59,552.93Z" transform="translate(-910.27 -464.09)"/><path class="cls-155" d="M987.44,552.16l2.63-4.67,2.23,1.89c0,2-1.85,3-2.26,4.74-.7,1.29-.92,3-2.29,3.71a1.85,1.85,0,0,1-.65-1.64C987.31,554.84,987.21,553.52,987.44,552.16Z" transform="translate(-910.27 -464.09)"/><path class="cls-5" d="M928.71,566.68a2.72,2.72,0,0,0-1.65-2.86,8.13,8.13,0,0,0-.29-1.13l-.25-.2-.32,0c-.43-1.05-1.2-1.85-1.19-3.22s1.72-1.8,1.65-3.28l.65-2a2.4,2.4,0,0,1,1.69-1.36c2.3.08,3.85,1.4,4.65,3.9a11.86,11.86,0,0,0,1.06,4.54c2.57,4.73,2.55,4.75-2.55,7.17a4.21,4.21,0,0,1-2.87.18C928.74,568.08,928.72,567.39,928.71,566.68Z" transform="translate(-910.27 -464.09)"/><path class="cls-156" d="M928.71,566.68l.37,1.24c.37.68,1.64,1,.75,2.2s-1.71.47-2.26-.49l-3.67-1.36c.31-.63-1.5-2.08.7-1.94C926,566.42,927.08,567.89,928.71,566.68Z" transform="translate(-910.27 -464.09)"/><path class="cls-157" d="M925.22,549.88l-.3-1.15c0-3.4,2.58-3.9,4.2-5.5a2.73,2.73,0,0,1,2.37,0,2.62,2.62,0,0,1,.85.84,1.92,1.92,0,0,1-.06,1.39,3.87,3.87,0,0,1-1,.9,13.55,13.55,0,0,0-4.58,3.52C926.14,550.3,925.59,550.64,925.22,549.88Z" transform="translate(-910.27 -464.09)"/><path class="cls-158" d="M925.22,549.88l1.23-.62a.8.8,0,0,1,1-.08c.64,1.17,2,2,.91,4l-1.09.79C926.05,553.13,924.7,552.33,925.22,549.88Z" transform="translate(-910.27 -464.09)"/><path class="cls-159" d="M929.29,543.64c-.83,2.53-3.6,2.48-4.37,5.09a3.72,3.72,0,0,1-.51-3.54,4.07,4.07,0,0,1,.94-.83,13.3,13.3,0,0,1,3.18-1.4A.9.9,0,0,1,929.29,543.64Z" transform="translate(-910.27 -464.09)"/><path class="cls-160" d="M925.27,545.42l-.86-.23c0-.79,0-1.58-.07-2.37l.2.13c1.09-1.07,2-2.59,3.53-2.41a1.44,1.44,0,0,1,.47,1.69C927.72,543.76,926.29,544.24,925.27,545.42Z" transform="translate(-910.27 -464.09)"/><path class="cls-161" d="M925.43,559c.3,1.13,1.28,1.9.77,3.45-1.83-.42-2.6-1.79-2.19-4.23C924.75,557.92,925.26,558.08,925.43,559Z" transform="translate(-910.27 -464.09)"/><path class="cls-162" d="M925.43,559l-1.42-.78c.16-2.24,2-1.1,2.65-2.27C927.39,557.48,926,558.05,925.43,559Z" transform="translate(-910.27 -464.09)"/><path class="cls-163" d="M926.77,562.69c.45.18.61.52.29,1.13C926.71,563.59,926.38,563.34,926.77,562.69Z" transform="translate(-910.27 -464.09)"/><path class="cls-112" d="M971.26,474c.13.39.25.78.38,1.17l-.87-.15Z" transform="translate(-910.27 -464.09)"/><path class="cls-112" d="M972.3,475.54a3.15,3.15,0,0,1-.34,1,8.86,8.86,0,0,1-1,.42l.66-1.71A3.78,3.78,0,0,1,972.3,475.54Z" transform="translate(-910.27 -464.09)"/><path class="cls-164" d="M971,476.92l1-.42-.35,1A1.66,1.66,0,0,1,971,477Z" transform="translate(-910.27 -464.09)"/><path class="cls-165" d="M938.4,515.68l.94.21c1.18-.57,1.79.63,2.74.81a3.29,3.29,0,0,1-.07,3.69,4.85,4.85,0,0,1-2.11.68c-.95,0-1.83,1.79-2.83.78C938.1,519.86,937.92,517.73,938.4,515.68Z" transform="translate(-910.27 -464.09)"/><path class="cls-166" d="M937.07,521.85l2.59-2.4a5.59,5.59,0,0,1-2.12,5.9l-1.23-3.74Z" transform="translate(-910.27 -464.09)"/><path class="cls-167" d="M932.2,544.52l-.39,0c-.52-1.35-1.65-2.29-1.36-4.18l5.06-2.3c2.28,0,2.57,3.19,4.52,3.68a2.62,2.62,0,0,1,1.26,1.72,3,3,0,0,0,0,2.53c0,.19.06.38.08.57a8,8,0,0,1,0,1.2,6.8,6.8,0,0,0,.13,2.35,13.83,13.83,0,0,0,1.76,3.62c1.19,3.64,4.56,5.42,4.74,9.92a1.78,1.78,0,0,1-1.52,1.12c-2.92-1-4.38-4.27-6.81-6a6.87,6.87,0,0,1-.74-.78c-.63-.81-1.19-1.71-1.85-2.5a7.78,7.78,0,0,1-.58-.8c-.27-.4-.53-.82-.8-1.22a7.1,7.1,0,0,1-.54-.84,10.57,10.57,0,0,1-.63-1.45c-.32-.87-.63-1.75-1-2.63C933,547.24,932.69,545.81,932.2,544.52Z" transform="translate(-910.27 -464.09)"/><path class="cls-168" d="M939.93,542.87c-2.49-.27-3.15-3-4.42-4.87l-.36-3.34v-.37c2.43-.5,2.88,2.1,4.05,3.57a8.55,8.55,0,0,1,.59,1.08C940.18,540.15,940.76,541.32,939.93,542.87Z" transform="translate(-910.27 -464.09)"/><path class="cls-169" d="M930.45,540.3a3.62,3.62,0,0,1,1.36,4.18l-2.52-.84a2.32,2.32,0,0,0-.61-.47,1.3,1.3,0,0,1-.48-1.16l-.4-1.26a1.48,1.48,0,0,1-.67-1.36,1,1,0,0,1,.63-.87l-.06,0C929,538.46,929.58,539.62,930.45,540.3Z" transform="translate(-910.27 -464.09)"/><path class="cls-35" d="M938.63,538.88c-1.17-1.52-1.84-3.64-3.49-4.59.49-1.09.87-2.32,2.05-2.57,1.08,1.16,1.41,4.11,3.93,1.83a2.2,2.2,0,0,1,1-.78c2.46.07,4.34-3.53,6.88-3,1.73.74,1.28,2.86,1.36,4.61.33,7.66,4.25,11.52,9.31,14.11,1.23.62,2.68-.07,4.06-.55,1-.36,2.36-1.24,2.33,1.06a11.83,11.83,0,0,1-6.83,6.76c-3.52-2.35-7.67-3.61-10-7.94-.7-1.28-1.47-2.48-2.1-3.83-1-2.16-.23-6-2.07-6.8C943.32,536.45,940.81,538.58,938.63,538.88Z" transform="translate(-910.27 -464.09)"/><path class="cls-170" d="M941.12,533.55c-.3-1.93-2.46-2.17-2.35-4.48.75-2.47,3.14-2.28,4.18-4.27,1.22-1.42.93-3.48,2-5a1.69,1.69,0,0,1,2.15-.62c1.11.74,1.84,2,2.8,3,.76.9,1.84,1.38,2.29,2.66-2.76,4.67-7,5.89-10.68,8.56Z" transform="translate(-910.27 -464.09)"/><path class="cls-171" d="M943.54,525.18c-.95,2.73-3.13,2.7-4.77,3.89l-.8-2.5c.17-3.13,1.3-5.25,4.09-5.6C943.46,521.75,944.49,522.78,943.54,525.18Z" transform="translate(-910.27 -464.09)"/><path class="cls-142" d="M942.07,521.5c-2.24.63-3.39,2.57-4.1,5.07l-.43-1.22,2.12-5.9,2.28.77C942.6,520.43,942.94,520.74,942.07,521.5Z" transform="translate(-910.27 -464.09)"/><path class="cls-172" d="M981.28,568.78a9.29,9.29,0,0,1-4.54,2.88c-1.76-1.88.08-3.33,1-4.89a8.4,8.4,0,0,1,2-1.88.69.69,0,0,1,.94.39C982.11,566,981.88,567.28,981.28,568.78Z" transform="translate(-910.27 -464.09)"/><path class="cls-173" d="M980.77,565.28a4.47,4.47,0,0,0-.63-.16c-1.14.23-1.34-.69-1.42-1.76,1.59-3,3.46-5.26,6.41-4.8,1.23,2.31-.62,3.07-1.83,4.16A4.19,4.19,0,0,0,980.77,565.28Z" transform="translate(-910.27 -464.09)"/><path class="cls-174" d="M983.3,562.72c.41-1.37,2.72-1.94,1.55-4,0-2.39,1.18-2.45,2.5-2.24.13.44.27.87.4,1.31C986.41,559.67,985.77,562.52,983.3,562.72Z" transform="translate(-910.27 -464.09)"/><path class="cls-175" d="M942.07,521.5c-.05-.43-.09-.85-.13-1.28-.18-1.14-.37-2.28-.55-3.42a1.78,1.78,0,0,1,0-2.32h.84l1.75,2.13c1.29.73,1.41,2.16,1.07,3.86-.69,1.51,1.39,3.83-1.5,4.7C944.19,523.09,942.18,523,942.07,521.5Z" transform="translate(-910.27 -464.09)"/><path class="cls-176" d="M941.38,514.48c0,.78,0,1.55,0,2.32-1.19.93-1.24-.92-2-.91C939.72,514.55,940,512.94,941.38,514.48Z" transform="translate(-910.27 -464.09)"/><path class="cls-142" d="M964.2,498.23c.95,1.11,3.85-1.08,3.28,2.58L964.69,504l-1.15.81c-2.09,1.89-3.69,5.11-6.61,4.8a1.28,1.28,0,0,1-.71-.9c.11-.31.2-.63.28-.94a5.13,5.13,0,0,1,2.88-5.21A17.61,17.61,0,0,0,964.2,498.23Z" transform="translate(-910.27 -464.09)"/><path class="cls-177" d="M964.2,498.23a4.8,4.8,0,0,1-3.39,4.7,7,7,0,0,0-4.31,4.8c-.13-.44-.25-.87-.38-1.3-.57-2.85.63-5,2.56-6.92a5.4,5.4,0,0,0,.3-.94c1.46.44,3-.37,4.45-.65Z" transform="translate(-910.27 -464.09)"/><path class="cls-178" d="M958.68,499.51c-.85,2.31-1.71,4.61-2.56,6.92-1.45-.39-3,1.88-4.42.63,0-2.12,1.45-3.26,2.51-4.67A10.15,10.15,0,0,1,958.68,499.51Z" transform="translate(-910.27 -464.09)"/><path class="cls-179" d="M945.05,509.16a1.61,1.61,0,0,0,.81-.08l1,1.84a4.9,4.9,0,0,1,.83,3.92,2.9,2.9,0,0,1-1.19,1.83c-1.38.25-1.64-.86-1.74-2.17C944.8,512.73,943.74,511.12,945.05,509.16Z" transform="translate(-910.27 -464.09)"/><path class="cls-180" d="M947.78,511.09c.58-2.09,1.14-4.25,3.12-2.08.48.9,1.37,1.5,1.21,2.9a3.11,3.11,0,0,1-1.07,1.94,2.41,2.41,0,0,1-1.25.22C948.47,513.78,947.61,513,947.78,511.09Z" transform="translate(-910.27 -464.09)"/><path class="cls-181" d="M954.21,502.39c0,2.16-1.5,3.24-2.51,4.67l-1.51-.52C951.07,504.42,951.89,502.22,954.21,502.39Z" transform="translate(-910.27 -464.09)"/><path class="cls-182" d="M956.22,508.67a6,6,0,0,0,.63.29,3,3,0,0,1,.27,2.65,1.82,1.82,0,0,1-2.18.89,4.17,4.17,0,0,1-1-.54c-.8-.83-2-1.24-2.14-2.81C953.33,508,954.7,509.34,956.22,508.67Z" transform="translate(-910.27 -464.09)"/><path class="cls-183" d="M947.78,511.09c.38,1.31,1.38,1.79,2.27,2.42a1.88,1.88,0,0,1-1.52,1.89,1.35,1.35,0,0,1-1.29-.9l-.33-3.58Z" transform="translate(-910.27 -464.09)"/><path class="cls-142" d="M951.78,509.15c.93.65,2.31.6,2.64,2.21-1,.9-1.94,1.26-2.76.21L950.9,509Z" transform="translate(-910.27 -464.09)"/><path class="cls-184" d="M944.81,514.5c.48.78.8,1.8,1.83,1.78,1.42.06,1.19,1.42,1.14,2.65a1.75,1.75,0,0,1-.88,1.06,1.48,1.48,0,0,0-1.86.49c-.36-1.28-.72-2.57-1.07-3.86Z" transform="translate(-910.27 -464.09)"/><path class="cls-185" d="M927.76,538.52a6.73,6.73,0,0,0-.32,1c-.61.94-1.06,2.38-2.25,1.44.33-1,.65-2,1-3C927.12,537,927.22,538.38,927.76,538.52Z" transform="translate(-910.27 -464.09)"/><path class="cls-186" d="M925.19,541l2.25-1.44.36,1.24a6.54,6.54,0,0,1-3.26,2.2C924.76,542.28,925,541.61,925.19,541Z" transform="translate(-910.27 -464.09)"/><path class="cls-187" d="M946.9,520l.52-1c-.28-1.62,1-2.67,1.44-4,.4-.47.79-1,1.19-1.43l1.16.06a19.25,19.25,0,0,1,3.89-1.92,1.61,1.61,0,0,0,1.84-.37,13.36,13.36,0,0,1,5.93-4.7c2.26.59,4.76-1.4,7-.46a4.68,4.68,0,0,1-1.07,4.32c-.64,1.14-1.31-1.09-2.46.93-1.56,2.73-4.5,4-6.94,5.43-3.4,2-6.44,5.25-10.13,6.22A5.19,5.19,0,0,1,946.9,520Z" transform="translate(-910.27 -464.09)"/><path class="cls-188" d="M968,510.66c.61-1.51,1.21-3,1.82-4.54l.89-.17a.81.81,0,0,1,1,.53,13.2,13.2,0,0,1-.23,4.54,12,12,0,0,1-1.09,3.06c-.6,1-1.29,1.77-2.31,1.56C966.68,514.28,966.58,512.64,968,510.66Z" transform="translate(-910.27 -464.09)"/><path class="cls-189" d="M971.33,506.42c-.19-.17-.39-.32-.59-.47.53-2.8,2.83-3.23,4.21-4.89l2.34.73c.4,1.24-2.89,1.26-1,3C974.79,507.35,973.09,507.19,971.33,506.42Z" transform="translate(-910.27 -464.09)"/><path class="cls-190" d="M962.87,506.58c-1.94,1.64-3.55,4.07-5.93,4.7a2.74,2.74,0,0,1-.09-2.32c2.67.09,4.09-4,6.69-4.19C963.32,505.38,963.1,506,962.87,506.58Z" transform="translate(-910.27 -464.09)"/><path class="cls-191" d="M947.72,586.81c3.4-3.47,7.33-3.62,11.08-4.93,0,1.27-.83,1.32-1.45,1.71C954.21,585.49,951.07,587.42,947.72,586.81Z" transform="translate(-910.27 -464.09)"/><path class="cls-192" d="M957.35,583.59l1.45-1.71c.62-.3,1.24-.58,1.86-.89l1.46-.77-1.51-1c.1-.28.21-.55.32-.83a2.13,2.13,0,0,1,2.54-.35,5.56,5.56,0,0,0,2.16,1.34c.72.38,1.69.26,2.06,1.32C964.22,581.21,960.86,583.94,957.35,583.59Z" transform="translate(-910.27 -464.09)"/><path class="cls-193" d="M967.69,580.66l-2.25-.92c-.12-.33-.1-.56.07-.69s.26-.16.36-.12l7.36,2.69a3.51,3.51,0,0,1-.38.86l-2.89-1Z" transform="translate(-910.27 -464.09)"/><path class="cls-194" d="M973.84,587.29c-.24.64-.48,1.28-.71,1.93-2.11-1-3.84-.11-5.23,2.56-.8-.79-2.16-.61-2.64-2a3.33,3.33,0,0,1-.38-3.51l1.87-.62c1.87-1.24,3.9-1.21,5.79-2.28l.15.17a1.69,1.69,0,0,0,1.84-.58,1.85,1.85,0,0,1,1.82,1.93,11.76,11.76,0,0,0-2.39.59C972.52,586.17,973,586.79,973.84,587.29Z" transform="translate(-910.27 -464.09)"/><path class="cls-193" d="M957.83,589.33l.36-1A16.94,16.94,0,0,1,964.1,586C962.49,589.23,960.2,589.44,957.83,589.33Z" transform="translate(-910.27 -464.09)"/><path class="cls-193" d="M972.54,583.4a5.42,5.42,0,0,1-5.79,2.28C968.39,582.61,970.47,583,972.54,583.4Z" transform="translate(-910.27 -464.09)"/><path class="cls-195" d="M965.26,589.81c1,.44,2.38.23,2.64,2l-2.57.19C965.31,591.25,965.28,590.53,965.26,589.81Z" transform="translate(-910.27 -464.09)"/><path class="cls-196" d="M960.87,573.72c.17-.61.31-1.69.52-1.75,3.75-1.19,7.46-4,11.28-2.93,1.48.25,1.05,1.69.37,2.47-1,1.13-1.4,2.65-2.37,3.71a3.71,3.71,0,0,1-2.44.34,15.43,15.43,0,0,0-3.66,0C963.07,575.54,961.52,575.68,960.87,573.72Z" transform="translate(-910.27 -464.09)"/><path class="cls-137" d="M970.58,575c-.81-2.5,3.49-3.23,2.09-5.94.14-.34.28-.67.41-1,1.82-.11,3.61-3.17,5.43-1.21,0,1.83-3,2.56-1.77,4.84l-1.27,1.76c-1.17,1.54-2.64,1.77-4.07,2.16A1,1,0,0,1,970.58,575Z" transform="translate(-910.27 -464.09)"/><path class="cls-197" d="M960.87,573.72a6.13,6.13,0,0,0,4.17.47c.28,1.12,1.31.88,2,1.35a2,2,0,0,1,0,2.31l-2.28-.44a1.45,1.45,0,0,1-1.53.09,4.79,4.79,0,0,1-.84-.6c-.71-1.62-1.54.08-2.33.37-.62-.29-1.44-.22-1.66-1.2-.26-.81-.52-1.61-.79-2.41Z" transform="translate(-910.27 -464.09)"/><path class="cls-198" d="M976,564.69a3.82,3.82,0,0,0-3.4-.06,1.65,1.65,0,0,1-.59-1.57,5.48,5.48,0,0,1,1.82-2.69,4.34,4.34,0,0,1,1.08-.49,3.83,3.83,0,0,1,1.11-.13l.53.14c1,.76,2.38,1.2,1.86,3.39C977.76,564.31,977.13,565.43,976,564.69Z" transform="translate(-910.27 -464.09)"/><path class="cls-199" d="M976,564.69l2.21-1.61c.39-.2.62-.07.68.4l1.25,1.64c-.4.8-.73,1.68-1.63,1.71-1.81-.53-3.61,2.18-5.43,1.21C973.94,566.77,975.54,566.5,976,564.69Z" transform="translate(-910.27 -464.09)"/><path class="cls-200" d="M964.88,567.36l.11-1.1a4.76,4.76,0,0,1,4.06-3.33c1,.55,1.51,1.33.61,2.85C968.09,566.65,966.55,567.81,964.88,567.36Z" transform="translate(-910.27 -464.09)"/><path class="cls-201" d="M969.66,565.78c-.23-.82-.45-1.64-.67-2.46.27-2.31,1.53-1.72,2.58-1.75.56.32.64.95.57,1.7.15.45.31.9.46,1.36Z" transform="translate(-910.27 -464.09)"/><path class="cls-202" d="M958.32,576.07l2.31.62a2.45,2.45,0,0,1,2.58-.07l-.12.32c.35.55.93,1,.14,1.93l-2.3-.52c-1-.9-2.81-.38-3.27-2.31A2.44,2.44,0,0,0,958.32,576.07Z" transform="translate(-910.27 -464.09)"/><path class="cls-129" d="M971.83,562.06a4,4,0,0,0-2.85,1.26l-4,2.94c-.92-1-1.33-2.27-3.41-1.17-3.45,1.83-7.22,2.08-10.47,5.15h0a3.28,3.28,0,0,1-.54-2.62c1.6-3.9,4.45-4.26,6.91-5-6.52.62-10.12-5.39-15-8.76-1.47-.61-1.74-2.27-2-4l.19-.39c.13-.25.28-.48.43-.71a1.49,1.49,0,0,0,.19-.77,5.66,5.66,0,0,0-.16-.76,1.43,1.43,0,0,1-.11-.78l-.08.15a4.31,4.31,0,0,1,0-2.41,1.19,1.19,0,0,0-1.11-1.35l-.72-3.43c3-2.63,4.32-2.64,5.1.4.59,2.29,1.47,4.34,2.23,6.49,2.27,6.39,6.51,9.49,12.31,10a2,2,0,0,1,2.12.18c5.51,1.41,13.94-3.86,18-11.29,1.13-1.57,2.42-2.5,4-2.22.53.54,1.7.62.79,2.18-.76.21-1.15.9-1.46,1.7-.21,1.27-.56,2.4-1.81,2.69-1.78,1.8-2.93,4.5-6.1,5.76,3.86,1.82,6.38-3,9.19-2.45l.41,1.22a1.91,1.91,0,0,1-1,1.65c-2,1.29-4.19,2.11-6.09,3.81-.32.26-.65.5-1,.72l-.16-.2a2.68,2.68,0,0,1-.94.63l-.84-.13C973.31,561.21,972.7,562,971.83,562.06Z" transform="translate(-910.27 -464.09)"/><path class="cls-129" d="M951.07,568c0,.74,0,1.49,0,2.23-5.1-1.53-10,2.79-14.92,4.29-2.28.69-4.59,1.81-6.93,2.36a3.57,3.57,0,0,1,1.06-3c.38-2.19,1.91-1.88,3-2.43,5.08-2.57,10.36-3.88,15.39-6.78C950.43,564.73,950.88,566.22,951.07,568Z" transform="translate(-910.27 -464.09)"/><path class="cls-32" d="M939.67,557.39c2.63,1.77,4.6,4.46,6.76,6.9-.48,2.18-2,2.37-3.29,2.93-4.39,1.94-8.77,3.88-13.22,5.42l-.81-.23c-.77-.38-1.71-.52-1.85-1.8a7,7,0,0,0,.31-1l1.83.11-.32-1.82,2.61-.18c2.54-1.29,6.58-.42,5.84-6.44C937.79,559.68,937.64,557.76,939.67,557.39Z" transform="translate(-910.27 -464.09)"/><path class="cls-203" d="M929.92,572.64c4.55-4,9.83-4.34,14.62-7.11.64-.38,1.26-.83,1.89-1.24l1.33-.76c.83-.08,1,.53,1,1.42-.68,2-2.14,2.2-3.49,2.75-5,2-10,4.14-14.95,6.21C930.19,573.49,930.05,573.07,929.92,572.64Z" transform="translate(-910.27 -464.09)"/><path class="cls-204" d="M982.54,543.62a7.07,7.07,0,0,0-3.23,2.23c-5.48,6-11.48,10.16-18.39,11.11a1.75,1.75,0,0,0-1.86.52c-.75.44-1.4.22-1.43-.65a1.59,1.59,0,0,1,1.38-1.54c2.35-1.9,4.79-3.67,6.58-6.52,2.64-4.87-1.45-3.29-2.58-4.53a2.8,2.8,0,0,1-.45-3.17,6.64,6.64,0,0,1,.71-1.28,27.21,27.21,0,0,1,3.69-3.54c-2.49-1.26-5.38-1.83-6.41-5.38a8.87,8.87,0,0,1,0-4.13c.46-1.45-.58-2.38-.37-3.75a1.83,1.83,0,0,1,2.63-.65c.85,2.85,2.38,2.68,4.58.92a92.47,92.47,0,0,1,9.86-7.2,6.83,6.83,0,0,1,1.11-.36c1.37-.09,2.39-1.14,3.34-2.38a2.8,2.8,0,0,1,1-.69c.72,1,.43,2.26.26,3.52a8,8,0,0,0-1.15,6.15c.95.21,1.48-.77,2.12-1.45,0,5.25,1.24,5.67,6.06,2.15a6.29,6.29,0,0,1,.7.32q-.87,2.38-1.72,4.78c-.8,1.08-1.22,2.53-2.3,3.32a25,25,0,0,0-3.4,4.08c-1.37,2.13-.2,2.48,1,2.77a1.29,1.29,0,0,1,.73.8l-1,2.88C983.46,542.37,983.35,543.5,982.54,543.62Z" transform="translate(-910.27 -464.09)"/><path class="cls-205" d="M976.69,508.23c1.81-1,3.61-2.32,5.47-1.34l.3,2c-1,3.62-3.18,3.3-5.27,3.36-1.11-.38-1.56-1.33-1.37-2.83A2,2,0,0,1,976.69,508.23Z" transform="translate(-910.27 -464.09)"/><path class="cls-206" d="M977.14,511.74c1.76-1,3.87-.5,5.32-2.85a4.69,4.69,0,0,1,.27,3.74c-.13.31-.25.63-.36.94A13.42,13.42,0,0,1,978,516.5h0c-1.29.18-1.38-1-1.58-2.12A3.23,3.23,0,0,1,977.14,511.74Z" transform="translate(-910.27 -464.09)"/><path class="cls-207" d="M981.84,522.3c-2.27-2.25-.21-4.18,1.15-6.15Z" transform="translate(-910.27 -464.09)"/><path class="cls-208" d="M976.69,508.23l-.37,1.07c-1.84,1-3.64,5.21-5.54,1.28-.42-1.38.18-2.77.55-4.16l4.94-1.65a2,2,0,0,1,.66.37C976.59,506.19,976.05,507.27,976.69,508.23Z" transform="translate(-910.27 -464.09)"/><path class="cls-209" d="M986.45,530.62,989,528.1c-.07,4.1.93,8.59-3.93,11l-.68-.28c-1.39.45-2-.32-1.13-1.77C984.45,535,985,532.53,986.45,530.62Z" transform="translate(-910.27 -464.09)"/><path class="cls-209" d="M982.54,543.62l1.53-1.67c-.32,1.11,1.86,2-.3,3.28A1.72,1.72,0,0,0,982.54,543.62Z" transform="translate(-910.27 -464.09)"/><path class="cls-209" d="M980.5,549.62c.61-.89,1.21-1.79,1.81-2.69C983,549,982.24,549.8,980.5,549.62Z" transform="translate(-910.27 -464.09)"/><path class="cls-210" d="M971.41,575.25c1.15-1.81,2.64-1.59,4.06-1.82.11.41.21.82.32,1.22l-1.16.82C973.33,576.64,972.16,577.07,971.41,575.25Z" transform="translate(-910.27 -464.09)"/><path class="cls-211" d="M971.41,575.25l3.22.22-.66,2.06c-2.52,1.75-4.63-.19-7,.32,0-.62-.08-1.24-.13-1.86a3.19,3.19,0,0,1,1.47-1.8l2.28.79Z" transform="translate(-910.27 -464.09)"/><path class="cls-212" d="M963.23,578.87c0-.64-.09-1.29-.14-1.93l1.59.47c.39.51.79,1,1.19,1.52l-.43.81Z" transform="translate(-910.27 -464.09)"/><path class="cls-213" d="M976.35,584.92,974.53,583c.92-.91,1.71-.34,2.53-.17a1.59,1.59,0,0,1,1.15,1.48Z" transform="translate(-910.27 -464.09)"/><path class="cls-214" d="M976,560.33a3,3,0,0,1,.29-1A15.31,15.31,0,0,0,982.9,555l1.1-.81c1.3-.09,2.36-1.07,3.44-2,1,1.27,1.89,2.55-.09,4.36-.77.86-2.05.75-2.5,2.24-2.35.74-4,3.15-6,4.72a1.23,1.23,0,0,1-.68-.4Z" transform="translate(-910.27 -464.09)"/><path class="cls-81" d="M939.67,557.39c-1.29.92-.94,2.48-1.41,3.72-3,.7-4.1-1.71-5.27-4.07a7.06,7.06,0,0,0-4.59-3.83c-.38-1.29-1.46-2.1-1.27-3.77a4.7,4.7,0,0,1,3.79-1.53c1.23.38,1.74,1.78,2.63,2.65a9.42,9.42,0,0,1,1.28,1.68c.2.28.4.57.61.85a14.76,14.76,0,0,0,1.21,1.69c.62.84,1.54,1.23,2.2,2Z" transform="translate(-910.27 -464.09)"/><path class="cls-162" d="M933,557l5.27,4.07c1.26,4.93-.25,6.44-6.57,6.63a9.51,9.51,0,0,1,1.85-1.31c2.08-.83,3.6-1.44.93-3.46C932.94,561.81,932.29,559.69,933,557Z" transform="translate(-910.27 -464.09)"/><path class="cls-215" d="M933.32,551.5c-1.71.1-1.57-2-2.28-3s-1.29-2,.38-3a.59.59,0,0,0,.44.22c1.31.18,1.54,1.78,2.33,2.65l1,2.77-.42.39C934.25,551.63,933.82,551.32,933.32,551.5Z" transform="translate(-910.27 -464.09)"/><path class="cls-216" d="M931.42,545.46c-.89,1-.46,2-.38,3-1.31.2-2.58,1.63-3.9,1a3.88,3.88,0,0,1-.69-.18A6.34,6.34,0,0,1,931.42,545.46Z" transform="translate(-910.27 -464.09)"/><path class="cls-217" d="M934.19,548.33a3.78,3.78,0,0,1-2.33-2.65c.11-.39.23-.77.34-1.16C933.67,545.06,934.23,546.42,934.19,548.33Z" transform="translate(-910.27 -464.09)"/><path class="cls-218" d="M928.2,542l.48,1.16a6.12,6.12,0,0,1-3.41,2.25C925.79,543.67,927.29,543.23,928.2,542Z" transform="translate(-910.27 -464.09)"/><path class="cls-78" d="M948.76,565c-.33-.47-.67-.94-1-1.42-1.35-3.6-4.48-5.54-5.27-9.66,3-1,4.13,2,5.9,3.52,3.47,2.87,7.14,5,12.81,3.88-3.84,3.24-7.9,2.26-10.13,6.73Z" transform="translate(-910.27 -464.09)"/><path class="cls-219" d="M938.85,556.8c-1.11-.23-2.29-.31-2.78-1.76.27-.63.77-.5,1.16-.73A3.71,3.71,0,0,1,938.85,556.8Z" transform="translate(-910.27 -464.09)"/><path class="cls-220" d="M937.23,554.31l-1.16.73a1.54,1.54,0,0,1-1-1.56.89.89,0,0,1,0-.94l.41-.25c.2.19.41.37.61.54a7.87,7.87,0,0,1,.56,1.08A3.5,3.5,0,0,1,937.23,554.31Z" transform="translate(-910.27 -464.09)"/><path class="cls-221" d="M941,544.22a1.87,1.87,0,0,1,0,2.41C940.68,545.89,939.46,545.32,941,544.22Z" transform="translate(-910.27 -464.09)"/><path class="cls-222" d="M940.54,549.89a2.57,2.57,0,0,1,0-2.26l.48-.32.4.3a2,2,0,0,1,0,1.18,2.4,2.4,0,0,1-.75.93Z" transform="translate(-910.27 -464.09)"/><path class="cls-223" d="M941.37,547.82l-.79-.19c.17-.38.33-.77.5-1.15a.4.4,0,0,1,.57.22.78.78,0,0,1,0,.78C941.53,547.73,941.43,547.85,941.37,547.82Z" transform="translate(-910.27 -464.09)"/><path class="cls-224" d="M935.17,551.1c.11.4.23.79.34,1.19l-.09.29a.63.63,0,0,1-.85-.28,1,1,0,0,1,.38-1Z" transform="translate(-910.27 -464.09)"/><path class="cls-215" d="M936.68,553.91l-.56-1.08Z" transform="translate(-910.27 -464.09)"/><path class="cls-225" d="M959,555.29c-.72.91-1.34,1.8,0,2.19-5.64.14-9.83-2.59-12.53-8.07-1.17-2.38-2.78-4.83-2.88-7.59-.17-4.56-1.85-4-4.44-2.38a6.11,6.11,0,0,1-.58-.56c1.84-2.83,4.83-1.56,6.84-4.16.66-.85,1.12.19,1.17,1.07.54,9.39,4.49,15.13,11.6,17.52C959,553.55,959,554.42,959,555.29Z" transform="translate(-910.27 -464.09)"/><path class="cls-128" d="M963.56,540.23c-.37,1.09-.94,2.2-.32,3.23.17,1.27,2.46.56,1.63,2.54s-2.47,2.3-4,2.17c-6.26-.54-10.66-6.87-10.38-15.54.07-2.22,0-3.28-2-2.26-2.38.57-4.17,4.85-6.93,3,2.89-4.24,7.1-5.42,10.54-8.38a2.35,2.35,0,0,1,3.5-.8c1.57,1.46.55,3.57.14,5.55-1.11,5.4.56,10,4,12.46,1.06.75,1-.35,1.41-.71C961.86,540.8,962.45,539.42,963.56,540.23Z" transform="translate(-910.27 -464.09)"/><path class="cls-19" d="M948.44,530.37l3.44-3c.23,3.28-.93,6.26-.39,9.16,1.23,6.52,4.87,9.45,9.9,10.63a2.47,2.47,0,0,0,2.7-1.07c1-1.5-1.15-1.34-.85-2.63a9.7,9.7,0,0,0,1.51.34c1.23.11,3.15-.83,3.34,1.08.15,1.43-1.18,3-2.5,3.89-4.68,2.55-8.33.71-11.4-2.32-3.32-3.27-5.29-7.78-4.81-13.79C949.48,531.47,949.25,530.76,948.44,530.37Z" transform="translate(-910.27 -464.09)"/><path class="cls-226" d="M955.3,524.87l-3.25.16c-1-.6-2.35-.47-2.8-2,3.72-4.53,8.72-5.74,12.78-9.4,1.62-1.46,3.58-2,5-4.11.76-1.09.46.94,1,1.15-.09,1.57-.36,3.18.19,4.57a1.33,1.33,0,0,1,0,.88c-.11.29-.18.43-.22.42-3.28,2.64-7.18,3.71-10,7.54C957.15,525.29,956.21,524.85,955.3,524.87Z" transform="translate(-910.27 -464.09)"/><path class="cls-227" d="M948.86,514.94c2.11,2.27-1.91,2.35-1.44,4l-.78-2.7.6-1.78Z" transform="translate(-910.27 -464.09)"/><path class="cls-228" d="M955.1,511.65c-1.12,1.54-2.28,2.88-3.89,1.92l.45-2,2.76-.21A5.15,5.15,0,0,1,955.1,511.65Z" transform="translate(-910.27 -464.09)"/><path class="cls-229" d="M970.78,510.58c1.89,2.82,3.67-2.45,5.54-1.28.27.82.55,1.63.82,2.44l0,2.34c-2.6,2.18-5,5.62-8.26,3.47-.21-1.56,1.25-2.83,1.1-4.38C970.23,512.31,970.5,511.44,970.78,510.58Z" transform="translate(-910.27 -464.09)"/><path class="cls-230" d="M970,513.17c.39,1.54-.36,3.08-.68,4.61-.25.8-.7,1.07-1.3.93a2.64,2.64,0,0,1,0-2.51c.09-.32.19-.65.29-1C969.12,515,969.53,514.06,970,513.17Z" transform="translate(-910.27 -464.09)"/><path class="cls-231" d="M968.3,574.19a2.62,2.62,0,0,1-1.47,1.8c-1.26.35-2-.07-1.79-1.8Z" transform="translate(-910.27 -464.09)"/><path class="cls-232" d="M963.21,576.62c-.88.22-1.83,1-2.58.07-.09-.57-.17-1.15-.26-1.73C961.62,574.9,962.7,575.16,963.21,576.62Z" transform="translate(-910.27 -464.09)"/><path class="cls-233" d="M971.83,562.06a3.18,3.18,0,0,1,2.18-1.43l-1.87,2.64C972,562.86,971.93,562.46,971.83,562.06Z" transform="translate(-910.27 -464.09)"/><path class="cls-234" d="M974.85,560.76l.94-.63C975.59,560.7,975.29,561,974.85,560.76Z" transform="translate(-910.27 -464.09)"/><path class="cls-235" d="M960.92,557c6.43-2.65,12.45-6.72,18.39-11.11-1.29,6-5.91,7.28-9.31,9.93-2.22,1.72-5.08,1.91-7.65,2.72C961.31,558.83,960.31,558.94,960.92,557Z" transform="translate(-910.27 -464.09)"/><path class="cls-236" d="M982.9,555c-1.56,3.51-3.77,5-6.66,4.37C978.08,556.72,980.58,556.13,982.9,555Z" transform="translate(-910.27 -464.09)"/><path class="cls-237" d="M941.37,547.82l.28-1.12c.62.19.6.76.39,1.44l-.5.26-.25-.51Z" transform="translate(-910.27 -464.09)"/><path class="cls-238" d="M942,548.14l.46.65-.77.32-.12-.64.5-.4Z" transform="translate(-910.27 -464.09)"/><path class="cls-239" d="M940.72,549.72q.12-.45.27-.9c.37-.24.65-.18.84.2l-.1.09Z" transform="translate(-910.27 -464.09)"/><path class="cls-240" d="M955.3,524.87l2.32-1.25c.91-.63,1.82-1.16,2.6-.2,1,.46,2.28.68,1.52,2.79-2.48.82-3.12,3.19-3.06,5.58.07,2.78.51,5.47,3,6.43.86.34,2.84-.78,1.93,2h0c-1.66,0-1.68,4.84-4.43,2.57-4.1-3.37-6-7.44-4.67-12.63C954.89,528.41,956.23,526.67,955.3,524.87Z" transform="translate(-910.27 -464.09)"/><path class="cls-241" d="M968,518.39l1.28-.61c2.84,0,5.06-3.38,7.84-3.7.29.8.57,1.6.86,2.41-4.93,3.73-9.73,7.84-15,10.68-.65-1.34.71-2.92-.15-3.95C963.64,519.94,965.81,519.17,968,518.39Z" transform="translate(-910.27 -464.09)"/><path class="cls-242" d="M963.56,540.24c-5.48-2.31-6.89-5.39-5.5-11.64.65-2.93,1.68-4,3.68-2.39a9.67,9.67,0,0,0-.63,4.25c-.92,4.12,1,5.18,3.67,5.16,1.29,0,2.72-.8,3.56.76Q966,538.31,963.56,540.24Z" transform="translate(-910.27 -464.09)"/><path class="cls-243" d="M968,518.39l-5.15,4.83c-.85-.23-1.68-.65-2.62.2l-2.6.2c2.69-4.47,6.42-6.15,10.31-7.42Z" transform="translate(-910.27 -464.09)"/><path class="cls-51" d="M968.34,536.38c-2.53-.59-5.8,2.37-7.8-.92-1-1.7-2.57-3.2.57-5,1.58,3.36,4.78,3.72,7.44,5.09.07,0,.1.28.06.41A1.76,1.76,0,0,1,968.34,536.38Z" transform="translate(-910.27 -464.09)"/><path class="cls-234" d="M986.45,530.62c-.49,2.43-.24,5.1-2.63,6.88-.56.42.14,1,.57,1.29-1.35,1-2.65.63-3.22-.49-.8-1.55.91-2.72,1.65-3.83A10.94,10.94,0,0,1,986.45,530.62Z" transform="translate(-910.27 -464.09)"/><path class="cls-244" d="M978,516.5c1-2.31,2.89-2,4.38-2.93C981.33,515.8,980.1,517.48,978,516.5Z" transform="translate(-910.27 -464.09)"/><path class="cls-245" d="M935,551.25a7.32,7.32,0,0,1-.24.92.51.51,0,0,1,0,.62c-.14.15-.24.22-.31.19l-1.11-1.48A1.13,1.13,0,0,1,935,551.25Z" transform="translate(-910.27 -464.09)"/><path class="cls-246" d="M934.43,553l.28-.81.71.41-.36.9Z" transform="translate(-910.27 -464.09)"/><path class="cls-247" d="M941.83,549l-.84-.2a7.89,7.89,0,0,0,.3-.94l.82.19A6.45,6.45,0,0,0,941.83,549Z" transform="translate(-910.27 -464.09)"/></svg>
