<svg id="skrald" xmlns="http://www.w3.org/2000/svg" viewBox="0 0 69.41 67.14"><defs><style>.cls-1{fill:#5a5959;}.cls-2{fill:#a7a6a6;}.cls-3{fill:#fdfdfd;}.cls-4{fill:#cfcfcf;}.cls-5{fill:#e5e5e5;}.cls-6{fill:#7f7e7e;}.cls-7{fill:#e9e9e9;}.cls-8{fill:#d1d0d0;}.cls-9{fill:#f3f3f3;}.cls-10{fill:#d2d1d0;}.cls-11{fill:#bbbaba;}.cls-12{fill:#c5c4c4;}.cls-13{fill:#949393;}.cls-14{fill:#e6e6e6;}.cls-15{fill:#f1f1f1;}.cls-16{fill:#a9a8a8;}.cls-17{fill:#7f7f7e;}.cls-18{fill:#d6d6d6;}.cls-19{fill:#ececec;}.cls-20{fill:#e3e3e3;}.cls-21{fill:#c4c4c4;}.cls-22{fill:#a8a8a7;}.cls-23{fill:#d7d7d7;}.cls-24{fill:#bfbfbf;}.cls-25{fill:#828181;}.cls-26{fill:#a2a1a1;}.cls-27{fill:#e0e0e0;}.cls-28{fill:#a0a09f;}.cls-29{fill:#c1c0c0;}.cls-30{fill:#ddd;}.cls-31{fill:#dadada;}.cls-32{fill:#818080;}.cls-33{fill:#8d8d8d;}.cls-34{fill:#646363;}.cls-35{fill:#a8a7a7;}.cls-36{fill:#b1b1b0;}.cls-37{fill:#7d7c7c;}.cls-38{fill:#868585;}.cls-39{fill:#a5a5a4;}.cls-40{fill:#8a8989;}.cls-41{fill:#a4a4a3;}.cls-42{fill:#eee;}.cls-43{fill:#a4a3a3;}.cls-44{fill:#ccc;}.cls-45{fill:#fcfcfc;}.cls-46{fill:#9f9e9e;}.cls-47{fill:#585757;}.cls-48{fill:#a7a7a6;}.cls-49{fill:#cbcaca;}.cls-50{fill:#757474;}.cls-51{fill:#656464;}.cls-52{fill:#c4c3c3;}.cls-53{fill:#d2d2d2;}.cls-54{fill:#6c6b6b;}.cls-55{fill:#706f6f;}.cls-56{fill:#cacaca;}.cls-57{fill:#bdbcbc;}.cls-58{fill:#979696;}.cls-59{fill:#898988;}.cls-60{fill:#b7b7b6;}.cls-61{fill:#c6c6c6;}.cls-62{fill:#ababaa;}.cls-63{fill:#b2b1b1;}.cls-64{fill:#959594;}.cls-65{fill:#999998;}.cls-66{fill:#969695;}.cls-67{fill:#efefef;}.cls-68{fill:#f7f7f7;}.cls-69{fill:#7b7a7a;}.cls-70{fill:#545353;}.cls-71{fill:#8d8c8c;}.cls-72{fill:#ededed;}.cls-73{fill:#746059;}.cls-74{fill:#767474;}.cls-75{fill:#cdcccc;}.cls-76{fill:#bab9b9;}.cls-77{fill:#c7c6c6;}.cls-78{fill:#8f8e8e;}.cls-79{fill:#cbcbcb;}.cls-80{fill:#e4e4e4;}.cls-81{fill:#b3b3b2;}.cls-82{fill:#9a9a99;}.cls-83{fill:#686767;}.cls-84{fill:#cac2bf;}.cls-85{fill:#dad3d1;}.cls-86{fill:#908f8f;}.cls-87{fill:#f5f5f5;}.cls-88{fill:#c2c2c2;}.cls-89{fill:#dcdcdc;}.cls-90{fill:#bcbcbc;}.cls-91{fill:#727171;}.cls-92{fill:#807f7f;}.cls-93{fill:#878686;}.cls-94{fill:#a5a4a4;}.cls-95{fill:#8c8c8b;}.cls-96{fill:#cdcdcd;}.cls-97{fill:#8e8e8d;}.cls-98{fill:#fefefe;}.cls-99{fill:#8d8d8c;}.cls-100{fill:#acabab;}.cls-101{fill:#f6f6f6;}.cls-102{fill:#848383;}.cls-103{fill:#e7e7e7;}.cls-104{fill:#5b5a5a;}.cls-105{fill:#525151;}.cls-106{fill:#d8d8d8;}.cls-107{fill:#a9a9a8;}.cls-108{fill:#d9d9d9;}.cls-109{fill:#565555;}.cls-110{fill:#cccbcb;}.cls-111{fill:#555454;}.cls-112{fill:#6a6969;}.cls-113{fill:#888787;}.cls-114{fill:#686766;}.cls-115{fill:#72706f;}.cls-116{fill:#c5c5c5;}.cls-117{fill:#d4d4d4;}.cls-118{fill:#696868;}.cls-119{fill:#d0d0d0;}.cls-120{fill:#787777;}.cls-121{fill:#888;}.cls-122{fill:#7a7979;}.cls-123{fill:#abaaaa;}.cls-124{fill:#a6a5a5;}.cls-125{fill:#bebdbd;}.cls-126{fill:#575656;}.cls-127{fill:#c6c5c5;}.cls-128{fill:#989897;}.cls-129{fill:#484847;}.cls-130{fill:#40403f;}.cls-131{fill:#c2c1c1;}.cls-132{fill:#5c5b5b;}.cls-133{fill:#beb4b0;}.cls-134{fill:#807d7c;}.cls-135{fill:#717070;}.cls-136{fill:#888887;}.cls-137{fill:#c7c7c7;}.cls-138{fill:#eaeaea;}.cls-139{fill:#b0afaf;}.cls-140{fill:#b7b6b6;}.cls-141{fill:#8e8d8d;}.cls-142{fill:#a3a3a2;}.cls-143{fill:#939392;}.cls-144{fill:#999897;}.cls-145{fill:#bdbdbc;}.cls-146{fill:#10190f;}.cls-147{fill:#8c8b8b;}.cls-148{fill:#c3c2c2;}.cls-149{fill:#797878;}.cls-150{fill:#c9c9c9;}.cls-151{fill:#d9d8d8;}.cls-152{fill:#504f4f;}.cls-153{fill:#90908f;}.cls-154{fill:#e2e2e2;}.cls-155{fill:#838282;}.cls-156{fill:#b9b9b8;}.cls-157{fill:#c3c3c3;}.cls-158{fill:#828282;}.cls-159{fill:#6e6d6c;}.cls-160{fill:#666565;}.cls-161{fill:#dddcdc;}.cls-162{fill:#919090;}.cls-163{fill:#9b9a9a;}.cls-164{fill:#929291;}.cls-165{fill:#777676;}.cls-166{fill:#cecece;}.cls-167{fill:#171f16;}.cls-168{fill:#a1a1a0;}.cls-169{fill:#bdbdbd;}.cls-170{fill:#fbfbfb;}.cls-171{fill:#f7f8f7;}</style></defs><title>skrald_aludåse</title><path class="cls-1" d="M116,724.31a5.44,5.44,0,0,1-1.33,2.21,7,7,0,0,1-2.62.91c-5.56-2.44-10.76-5.56-16.12-8.37a2.09,2.09,0,0,1-1.38-2.19,2.7,2.7,0,0,1,.64-1.08,10.6,10.6,0,0,1,4-2.22,2.1,2.1,0,0,1,1,0A93.18,93.18,0,0,1,115.67,722,3.09,3.09,0,0,1,116,724.31Z" transform="translate(-51.64 -671.15)"/><path class="cls-2" d="M110.05,733.45l-.71.73c-.58-.4-1,0-1.39.34-1.58,1.16-3,.42-4.42-.33a23.81,23.81,0,0,1-2.58-1.51c-1.63-1.32-3.7-2-4.73-3a19.83,19.83,0,0,1,4.59,4c.46.54,1.25,1.28,0,1.9a84,84,0,0,1-9.54-7.79c-1.27-1.21-2.39-2.65-4.11-3.29a1.94,1.94,0,0,0-1.09-.17,3,3,0,0,1-1.08.15,1.29,1.29,0,0,1-.58-.45,1.6,1.6,0,0,1-.17-1.47c1.81-1.41,3.51-3,6-3.29a1,1,0,0,1,.34.66c0,1.2,1.09,1.42,1.84,1.87,3.36,2,6.9,3.61,10.39,5.35,2.12,1.69,4.81,2.42,6.92,4.13A2.11,2.11,0,0,1,110.05,733.45Z" transform="translate(-51.64 -671.15)"/><path class="cls-3" d="M120.69,708.38c.36,1.72-.35,3.32-.55,5a.65.65,0,0,1-.44.63,3.52,3.52,0,0,1-2.65-.66c-5.7-3.16-11.48-6.16-17.26-9.18-.75-.39-1.54-.76-1.66-1.75a1.5,1.5,0,0,1,.26-.74c.75-.85,1.83-.72,2.79-1,1.17-.25,2.38-.21,3.56-.47a2.87,2.87,0,0,1,1.84.3c3.51,1.84,6.79,4.14,10.61,5.39A6,6,0,0,1,120.69,708.38Z" transform="translate(-51.64 -671.15)"/><path class="cls-4" d="M92.17,718.49l-6,3.42c-.18.43-.45.36-.75.14-1-1.11-2.3-.5-3.05,0a3.46,3.46,0,0,1-4.41-.31l-.42-.32c-3.58-4.15-7.84-7.6-11.69-11.48a42.31,42.31,0,0,1-4.53-5.56c1.65-.68,2.25,1.13,3.48,1.45A13.33,13.33,0,0,1,67,707.64c4,3.26,6.65,7.88,11.11,10.65.26.17.46.54.85.28a1.79,1.79,0,0,0,0-.83,7.73,7.73,0,0,1-.06-1c.11-.8,0-1.8,1.34-1.47.63.45.63,1.21.91,1.83.6,1,1.33.35,2,.11,1.48-.57,2.88-1.34,4.35-1.92.69-.27,1.52-1,2.13.18-.51,1.52-2,1.75-3.17,2.37-.86.39-1.78.61-2.45.89a25.37,25.37,0,0,0,3.77-1,5.12,5.12,0,0,1,.67-.19,12.52,12.52,0,0,0,4.55-1c.42,0,.58.28.63.66a1.93,1.93,0,0,1-.26,1A.91.91,0,0,1,92.17,718.49Z" transform="translate(-51.64 -671.15)"/><path class="cls-5" d="M119.72,713.77l.42-.42a1.09,1.09,0,0,1,0,1.51c-.22,1-1.08,1-1.81,1.28-3.87-2.09-7.82-4-11.62-6.22-1.63-1.73-4-2.3-5.82-3.83-.23-.2.14.48-.24.53a28.34,28.34,0,0,1-7.86-4.24,1.06,1.06,0,0,1,.39-1.13,18.76,18.76,0,0,1,8.52-4l1.45.69c-.62,1.39-2.14,1.53-3.2,2.31-.85.61-2.14.64-2.47,1.91,2.1,2.22,5.09,2.94,7.6,4.45,3.91,2.33,8.09,4.21,12.06,6.46C117.89,713.53,118.7,714.15,119.72,713.77Z" transform="translate(-51.64 -671.15)"/><path class="cls-6" d="M91.31,719.11l0-.67c.59-.15.81-1,1.57-.82,4.35,2.91,9.19,4.94,13.75,7.46,1.82,1,3.5,2.43,5.8,2.2.57-.73,1.2-1.26,2.19-.76,0,.81-.66,1.25-1.06,1.84-.48.75-1.44.8-2,1.37a1.8,1.8,0,0,1-1.13.27c-5.88-2.91-11.56-6.2-17.41-9.17C92.31,720.47,91.44,720.12,91.31,719.11Z" transform="translate(-51.64 -671.15)"/><path class="cls-7" d="M101.68,697.27c-2.86,1.82-6.31,2.57-8.89,4.89a1.51,1.51,0,0,1-.84.33c-.52,0-1,.06-1.54.08a10.32,10.32,0,0,1-2.15-.22c-.3,0-.6-.05-.91-.06a9.7,9.7,0,0,0-1.51.17,7.26,7.26,0,0,1-1.61-.09c-1-.29-2.16,0-2.74-1.14a1.93,1.93,0,0,1,.23-.7,4.33,4.33,0,0,1,3.22-1.65,1.28,1.28,0,0,1,.63.33c1.51,1.63,3.32,1.32,5.11.69,2.06-.72,3.94-1.88,6-2.54,1.17,0,1.85-1,2.78-1.47Z" transform="translate(-51.64 -671.15)"/><path class="cls-8" d="M74.07,673.05c.53-1,1.57-1,2.52-1.17a2,2,0,0,1-.09,1.32c-.11.31-.24.62-.35.93-.11,1.57,1.54,2.46,1.57,4a2.06,2.06,0,0,1-.13.69,5.38,5.38,0,0,1-.67,1.22,1.29,1.29,0,0,1-.61.35,2.46,2.46,0,0,1-.71-.08,3.88,3.88,0,0,1-2.32-2.56,2.67,2.67,0,0,1-.13-1.05,15.53,15.53,0,0,1,.4-2C73.6,674.09,74.72,673.85,74.07,673.05Z" transform="translate(-51.64 -671.15)"/><path class="cls-9" d="M99.48,695.89A2.14,2.14,0,0,1,97,697.74c.18-.86.68-1.71-.51-2.37a2.22,2.22,0,0,0-2.57.07,56.38,56.38,0,0,1-5.48,3.62c-.89.46-1.81,1.37-2.93.39l-.34-.33c.14-1.27,1.26-1.48,2.13-1.91a7.34,7.34,0,0,0,2.3-1.51,24.36,24.36,0,0,1,2.17-1.61,8.59,8.59,0,0,1,1.27-.9,3.11,3.11,0,0,1,2.62-.53c1,.64,1.54,1.79,2.72,2.17Z" transform="translate(-51.64 -671.15)"/><path class="cls-10" d="M81.51,726.55l-.4.39c-1.52-1.62-3.73-2.42-5.07-4.25,2.59,1.41,4.7-1.19,7.16-.87.34,0,.89-.41.91.32,0,.25-.37.52-.57.78a.9.9,0,0,1-.18.63,3.81,3.81,0,0,1-1.44.81c-1,.31-.4.84-.18,1.31A.69.69,0,0,1,81.51,726.55Z" transform="translate(-51.64 -671.15)"/><path class="cls-11" d="M117.38,717.12l-.15.67c-1.31.51-2.26-.34-3.3-.86-1.9-.95-3.73-2-5.66-2.9-.84-.51-1.71-1-2.58-1.45s-1.57-1-1.3-2.11a.85.85,0,0,1,.67-.42c4.12,1.39,7.75,3.76,11.52,5.82A1.72,1.72,0,0,1,117.38,717.12Z" transform="translate(-51.64 -671.15)"/><path class="cls-12" d="M117.38,717.12l-12.52-7a1.17,1.17,0,0,1-1.17-1,1,1,0,0,1,1.52-.26c4.11,2.68,8.83,4.3,12.81,7.22a.49.49,0,0,1-.33.65A1.12,1.12,0,0,0,117.38,717.12Z" transform="translate(-51.64 -671.15)"/><path class="cls-13" d="M117,718.17c.32.67-.21,1-.58,1.39a.61.61,0,0,1-.45.58c-2.61-.59-4.71-2.24-7.06-3.37a5.54,5.54,0,0,1-.65-.42,13.33,13.33,0,0,0-3-1.65c-1-.76-2.5-1-2.93-2.5a.71.71,0,0,1,.4-.64c1.89.19,3.34,1.42,5,2.16a88,88,0,0,0,8.53,4.39C116.48,718.12,116.72,718.14,117,718.17Z" transform="translate(-51.64 -671.15)"/><path class="cls-14" d="M120.69,708.38c-1.5-.2-2.29-1.66-3.67-2.08a73,73,0,0,1-9.09-4.8.62.62,0,0,1,0-.73c.51-.34,1-.09,1.52,0a7.51,7.51,0,0,0,1.7.85c2.44.78,4.52,2.31,6.82,3.38a21.64,21.64,0,0,1,3,2.26A1,1,0,0,1,120.69,708.38Z" transform="translate(-51.64 -671.15)"/><path class="cls-15" d="M91.8,685.71c.47,1.72.73,3.55,2.14,4.87-.07.6.47,1.23-.06,1.82a1,1,0,0,1-.77.06,9.2,9.2,0,0,1-3.24-3,3.17,3.17,0,0,1-.27-1.94,4.37,4.37,0,0,1,.85-1.71A1,1,0,0,1,91.8,685.71Z" transform="translate(-51.64 -671.15)"/><path class="cls-16" d="M75.57,673.74l.69-.72c.42-.34.47-1,1-1.22l1.46,0a2.93,2.93,0,0,0,1.8,3.74c.26.77-.18,1.22-.74,1.63a2.22,2.22,0,0,1-1.61.26C76.68,676.64,76.24,675.11,75.57,673.74Z" transform="translate(-51.64 -671.15)"/><path class="cls-17" d="M80.32,675.46c-1.08.33-1.63-.14-2.2-1.08-.75-1.23,0-1.85.63-2.62a2,2,0,0,1,2.5-.32c-.46,1-1,2-.16,3a1.11,1.11,0,0,1-.16.67A1,1,0,0,1,80.32,675.46Z" transform="translate(-51.64 -671.15)"/><path class="cls-18" d="M91.58,682.69l.17.88c-2.67-.69-4-3.05-5.83-4.76a2.21,2.21,0,0,1-.32-.9,1.08,1.08,0,0,1,1-.93C88.89,678.32,91,679.84,91.58,682.69Z" transform="translate(-51.64 -671.15)"/><path class="cls-19" d="M86.09,678.17l5.66,5.4a.67.67,0,0,1,0,.46,1.26,1.26,0,0,1-1.27.29c-2.08-1.46-4.33-2.76-5-5.51A.74.74,0,0,1,86.09,678.17Z" transform="translate(-51.64 -671.15)"/><path class="cls-20" d="M96.38,702.08c1.69-2.3,4.5-2.75,6.75-4.12l.38.33c-.2,1.91-2,1.94-3.18,2.7-.44.28-1.2-.12-1.44.65l-.36.37A2.46,2.46,0,0,1,96.38,702.08Z" transform="translate(-51.64 -671.15)"/><path class="cls-21" d="M111.5,729.13c.51-.79,1.3-.78,2.1-.77-.75,2-2.55,3.27-3.55,5.09-.12-.59-.24-1.18-.37-1.78C109.51,730.27,111.27,730.24,111.5,729.13Z" transform="translate(-51.64 -671.15)"/><path class="cls-22" d="M117,718.17l-.37.38c-2.71-.86-5-2.54-7.53-3.79a1.3,1.3,0,0,1-.51-1.08c3.15.83,5.63,3.06,8.68,4.11A2.6,2.6,0,0,1,117,718.17Z" transform="translate(-51.64 -671.15)"/><path class="cls-23" d="M54.53,688.24l-.26-.31c2.11-2,3.65-4.58,6.28-6,.23,1.09-.67,1.73-1,2.6a8.54,8.54,0,0,1-1.25,1.62,9.41,9.41,0,0,1-1.84,1.61A2.65,2.65,0,0,1,54.53,688.24Z" transform="translate(-51.64 -671.15)"/><path class="cls-24" d="M117.73,705.54l-6.94-3.78c-.61-.19-1.08-.42-.38-1.08a1.48,1.48,0,0,0,1.27.41,13,13,0,0,0,2.18,1.16c1.21.14,1.92,1.23,3,1.62,1.1-.31,1.11.59,1.35,1.22A.51.51,0,0,1,117.73,705.54Z" transform="translate(-51.64 -671.15)"/><path class="cls-25" d="M86.43,677.09l-.66.75c-.43,1.22-1.08.67-1.63.15-.84-.78-1.64-1.58-2.41-2.43a2.44,2.44,0,0,1-.39-.68,1.45,1.45,0,0,1-.08-.77c.33-.4.65-.88,1.15-.17s1.22.68,1.8,1.06a13.14,13.14,0,0,0,1.72,1.33l.25.19A.93.93,0,0,1,86.43,677.09Z" transform="translate(-51.64 -671.15)"/><path class="cls-24" d="M64.87,678.38a7,7,0,0,1,2-3c1.54-.36,1.13,1.38,2,1.8a1.53,1.53,0,0,1-.25.64,3.05,3.05,0,0,1-1.55.9C66.3,678.85,65.39,679.67,64.87,678.38Z" transform="translate(-51.64 -671.15)"/><path class="cls-26" d="M86.43,677.09l-.18-.17-.18-.17a.48.48,0,0,1,.59-.42c1.6.38,2,2.17,3.4,2.84.83,1,2.54,1.69,1.52,3.52C90.48,680.26,88.09,679,86.43,677.09Z" transform="translate(-51.64 -671.15)"/><path class="cls-27" d="M98.89,701.64c1-1.82,3.53-1.61,4.62-3.35a1.07,1.07,0,0,1,1.07.37c-.12,2-2.22,1.58-3.18,2.56Z" transform="translate(-51.64 -671.15)"/><path class="cls-28" d="M68.43,677.58l.33-.48c.24-.66.94-.5,1.38-.79l.8-.6a1,1,0,0,1,.65.25,2.31,2.31,0,0,1,.26,2.07,1.88,1.88,0,0,1-1,1C69.62,679.3,69,678.51,68.43,677.58Z" transform="translate(-51.64 -671.15)"/><path class="cls-6" d="M115.91,720l.47-.44a1.19,1.19,0,0,1,.21.44c0,.67,0,1.38-.85,1.56-1.81-.74-3.74-1.28-5-2.93.36-.91.88-.67,1.6-.37C113.56,718.76,114.55,719.76,115.91,720Z" transform="translate(-51.64 -671.15)"/><path class="cls-29" d="M71.61,677.78l-.35-1.8c-.12-.66-1-1.42.28-1.86l.75,0c1.4.36.88,1.59,1.12,2.48l0,.76a2.34,2.34,0,0,1-.59.23A2.27,2.27,0,0,1,71.61,677.78Z" transform="translate(-51.64 -671.15)"/><path class="cls-30" d="M101.4,701.22c.65-1.36,2.36-1.41,3.18-2.56l1.1.33c.16.89-.78,1.14-1.05,1.78Z" transform="translate(-51.64 -671.15)"/><path class="cls-31" d="M104.63,700.77c-.14-.88.62-1.23,1.05-1.78l2.17.7c0,.39.53.6.4,1l-.36.35c-.66.24-1.17-.37-1.81-.32Z" transform="translate(-51.64 -671.15)"/><path class="cls-32" d="M90.06,679.17c-1.71-.27-2.36-1.94-3.64-2.77a.37.37,0,0,1,.14-.4q.19-.11.24-.06C88.51,676.38,89.19,677.87,90.06,679.17Z" transform="translate(-51.64 -671.15)"/><path class="cls-14" d="M70.14,676.31l-1.38.79c-1.39.3-.63-1.77-1.84-1.68C68.36,674.41,69.17,675.65,70.14,676.31Z" transform="translate(-51.64 -671.15)"/><path class="cls-33" d="M59.22,684.1c-.09-1.06,1-1.41,1.33-2.19.82-.64,1.58-1.56,2.7-.47a1.16,1.16,0,0,1-.13.63,1.91,1.91,0,0,1-.76.59,7.33,7.33,0,0,0-2.21,1.25A1.18,1.18,0,0,1,59.22,684.1Z" transform="translate(-51.64 -671.15)"/><path class="cls-34" d="M81,674.64c-1.65-1.22-1.7-2.3.28-3.2l.79.64c.24.91-.88,1.37-.76,2.24h0c0,.18,0,.28-.11.32S81,674.67,81,674.64Z" transform="translate(-51.64 -671.15)"/><path class="cls-35" d="M63.38,681.29c-.57-1.29.38-1.89,1.16-2.56,1,.24,1.18,1,1.12,1.88a1.21,1.21,0,0,1-.39.53,3.17,3.17,0,0,1-1.58.24Z" transform="translate(-51.64 -671.15)"/><path class="cls-36" d="M118.08,705.19c-.49-.25-.36-1.18-1.17-1.09-.24,0-.34-.11-.31-.34,2-.74,2.5,1.28,3.64,2.09C119.28,706.44,118.59,706.1,118.08,705.19Z" transform="translate(-51.64 -671.15)"/><path class="cls-26" d="M115.9,721.43l.69-1.43c1.23.92.86,1.89.09,2.87a.93.93,0,0,1-.9-.52C115.55,722,115.48,721.69,115.9,721.43Z" transform="translate(-51.64 -671.15)"/><path class="cls-37" d="M105.21,736.52c-.59.46-1,1.15-1.92,1.12,0-.11,0-.23-.07-.34a2.7,2.7,0,0,1,.44-1.35c1-1,2.08-1.27,3.23-.2,0,.12,0,.25,0,.37Z" transform="translate(-51.64 -671.15)"/><path class="cls-38" d="M81.28,674.32c-.85-1.12.21-1.6.76-2.24,1.53.34.09,1.27.37,1.86A1.18,1.18,0,0,0,81.28,674.32Z" transform="translate(-51.64 -671.15)"/><path class="cls-12" d="M94,692a1,1,0,0,1,0-1.45c.37.35.73.71,1.09,1.07,0,.4.48.63.35,1.07-.74.16-1.24.95-2.09.83C93.07,692.85,94.05,692.67,94,692Z" transform="translate(-51.64 -671.15)"/><path class="cls-39" d="M65.23,680.89a2.72,2.72,0,0,0-.69-2.16.7.7,0,0,1,.33-.35c.75.76,1.4-.32,2.13-.11a1.63,1.63,0,0,1-.14.9c-.29.59,0,1.23-.16,1.82A.92.92,0,0,1,65.23,680.89Z" transform="translate(-51.64 -671.15)"/><path class="cls-40" d="M108.3,733.86c.57-.61.85-.3,1,.32-.71.76-1.17,1.82-2.4,1.94l0-.06C107,735.09,107.23,734.21,108.3,733.86Z" transform="translate(-51.64 -671.15)"/><path class="cls-41" d="M116.6,703.76c.1.12.2.23.31.34-1.29-.16-2.08-1.27-3.22-1.7a.3.3,0,0,1,.14-.34c.12-.06.19-.08.22,0C115.16,702.21,116.29,702.4,116.6,703.76Z" transform="translate(-51.64 -671.15)"/><path class="cls-42" d="M117.69,716.78l.28-.43c0-.2,0-.33.12-.37s.2,0,.24,0l1.79-1.12C120.09,716.49,119.32,717.18,117.69,716.78Z" transform="translate(-51.64 -671.15)"/><path class="cls-43" d="M73.41,676.63c-1.07-.51-.41-1.81-1.12-2.48l.75,0a.73.73,0,0,1,.72.75A1.42,1.42,0,0,1,73.41,676.63Z" transform="translate(-51.64 -671.15)"/><path class="cls-44" d="M118.08,705.19a2.79,2.79,0,0,0,2.16.66l.74,1.41a7.47,7.47,0,0,1-3.25-1.72Z" transform="translate(-51.64 -671.15)"/><path class="cls-45" d="M95.38,692.72c-.11-.36-.23-.72-.35-1.07l3.35,3.18C96.91,694.79,96.43,693.35,95.38,692.72Z" transform="translate(-51.64 -671.15)"/><path class="cls-46" d="M90.93,684.19l.87-.16v1.68l-1.2.21C89.84,685.17,90.16,684.64,90.93,684.19Z" transform="translate(-51.64 -671.15)"/><path class="cls-47" d="M86.8,675.94l-.38.46a2.89,2.89,0,0,0-.35.35l0-.09c-.72-.28-1.55-.48-1.14-1.58A2.15,2.15,0,0,1,86.8,675.94Z" transform="translate(-51.64 -671.15)"/><path class="cls-48" d="M114.05,702l-.36.38c-1,.13-1.42-.75-2-1.31A4,4,0,0,1,114.05,702Z" transform="translate(-51.64 -671.15)"/><path class="cls-49" d="M110.41,700.68a1.08,1.08,0,0,0,.38,1.08c-.65.15-1-.31-1.45-.67-.61-.2-1.07-.45-.39-1.1Z" transform="translate(-51.64 -671.15)"/><path class="cls-7" d="M73.76,674.87l-.72-.75,1-1.07C75.85,674,73.83,674.26,73.76,674.87Z" transform="translate(-51.64 -671.15)"/><path class="cls-14" d="M71.54,674.12c-.49.56-.13,1.25-.28,1.86a2.08,2.08,0,0,1-.32-.27C70.39,674.89,69.63,674,71.54,674.12Z" transform="translate(-51.64 -671.15)"/><path class="cls-50" d="M115.91,722.2l.77.67-.69,1.44-.43-1.76c0-.21,0-.32.11-.36S115.87,722.16,115.91,722.2Z" transform="translate(-51.64 -671.15)"/><path class="cls-51" d="M84.88,675.08c0,.8.68,1.11,1.14,1.58-1.15,0-1.67-.61-1.81-1.66Z" transform="translate(-51.64 -671.15)"/><path class="cls-52" d="M77.29,671.8c-.21.52-.08,1.33-1,1.22a1.09,1.09,0,0,1,.33-1.14Z" transform="translate(-51.64 -671.15)"/><path class="cls-53" d="M109,700a1.1,1.1,0,0,0,.39,1.1l-1.09-.35a1.09,1.09,0,0,1-.4-1Z" transform="translate(-51.64 -671.15)"/><path class="cls-53" d="M63.25,681.44l.14-.15.08-.06c.43,0,.91-.24,1.18.33a.92.92,0,0,1-.61.76,1.11,1.11,0,0,1-.67-.12.93.93,0,0,1-.31-.59A.52.52,0,0,1,63.25,681.44Z" transform="translate(-51.64 -671.15)"/><path class="cls-54" d="M112.47,727.28c-.79,1.1-1.71.77-2.67.27q-8.26-4.29-16.53-8.55c-.66-.34-.28-.87-.42-1.3.43-.94,1-1.51,2.09-.86-.11,1.11.77,1.35,1.51,1.75Q104.48,722.91,112.47,727.28Z" transform="translate(-51.64 -671.15)"/><path class="cls-55" d="M115.91,722.2c-.11.12-.23.24-.35.35-3.5-2.68-7.69-4.12-11.41-6.39a19,19,0,0,0-5-2.3c-.57-.87.32-.8.68-1.08a8.74,8.74,0,0,1,1.3-.46,1,1,0,0,1,.68.19c2.13,2.14,4.94,3.18,7.49,4.63.65.38,1.45.61,1.57,1.53l5.07,2.76C115.9,721.69,115.91,722,115.91,722.2Z" transform="translate(-51.64 -671.15)"/><path class="cls-56" d="M94.94,716.84c-.84-.07-1.38.61-2.09.86-.47.31-.81.88-1.5.74v-.74a12.49,12.49,0,0,1-4.66,1.19l-.35.36c-.66-.21-1.32.08-2,0-.45,0-.83-.27-.19-.71,1.09-.9,2.61-1.13,3.55-2.27a.8.8,0,0,1,.51-.8,1.63,1.63,0,0,1,.66,0,7.59,7.59,0,0,0,1.65.19,9.34,9.34,0,0,0,3-.21c.75-.1,1.71-.63,2.06.64Z" transform="translate(-51.64 -671.15)"/><path class="cls-57" d="M95.57,716.11c-1-.66-1.89,0-2.81.13a2.68,2.68,0,0,1-2.54-.32c0-.75.62-.95,1.18-1.17a12.54,12.54,0,0,0,2.75-1.41,1.61,1.61,0,0,1,.65-.17.92.92,0,0,1,.5.39c1.35,1.55,1.76-.53,2.66-.7.7-.2,1.56-1.4,1.93.32-.21.28-1-.08-.78.68Z" transform="translate(-51.64 -671.15)"/><path class="cls-58" d="M102.38,727.53a106.09,106.09,0,0,1-11.74-6c-.75-.42-1.41-.73-.64-1.67,1.7-.42,2.85.8,4.15,1.46,4.92,2.52,9.83,5,14.63,7.79.6.34,1.19.62,1.33,1.37-.63,1-1.31.29-1.93,0C106.2,729.63,104.36,728.46,102.38,727.53Z" transform="translate(-51.64 -671.15)"/><path class="cls-59" d="M110,730.58c-6.45-4-13.26-7.3-20-10.69a3.08,3.08,0,0,0,.3-.41l1-.37q8.89,4.77,17.77,9.54a14,14,0,0,1,1.64,1.17A.68.68,0,0,1,110,730.58Z" transform="translate(-51.64 -671.15)"/><path class="cls-60" d="M85,724.31l.71-.7c2.25.87,3.94,2.54,5.71,4.07A71.32,71.32,0,0,0,97.51,733c.71.48,1.43,1,.86,2-.93.7-1.69,0-2.51-.27A6.18,6.18,0,0,1,93.44,733c-1.42-2-3.46-3.37-5.31-4.94C86.88,727,85.26,726.21,85,724.31Z" transform="translate(-51.64 -671.15)"/><path class="cls-61" d="M85,724.31c2.32,2,4.67,3.93,6.94,6,.76.69,1.88,1.19,1.91,2.47a2.21,2.21,0,0,1-1.52-.1,25.51,25.51,0,0,1-4.56-2.83A4.42,4.42,0,0,1,87,729a6.58,6.58,0,0,0-1.41-1.74A11.14,11.14,0,0,1,84,725.51a1.72,1.72,0,0,1-.23-.76.87.87,0,0,1,.84-.72Z" transform="translate(-51.64 -671.15)"/><path class="cls-46" d="M101.14,735.49c-1.67-3.13-4.63-4.93-7.21-7.2a30.61,30.61,0,0,1,7.48,4c-.16.4-.44.4-.78.26.12.2.39.2.53.35.91,1,3.19,1.06,2.49,3.31a1.49,1.49,0,0,1-1.32.62,1.58,1.58,0,0,1-1-.56A1.14,1.14,0,0,1,101.14,735.49Z" transform="translate(-51.64 -671.15)"/><path class="cls-62" d="M101.14,735.49l.37.37c-1,.84-1.62.22-2.29-.44a7.35,7.35,0,0,0-2.29-2.55c-3.56-3-7.17-6-10.5-9.3a4.21,4.21,0,0,1,2.88,1.37C92.92,728.84,97.42,731.72,101.14,735.49Z" transform="translate(-51.64 -671.15)"/><path class="cls-63" d="M86.43,723.57c4,2.85,7.18,6.65,11.25,9.43.86.58,1.88,1.21,2.06,2.45a1.29,1.29,0,0,1-1.27.5.72.72,0,0,1-.54-.8c.44-.62.23-1-.34-1.46-4-3.33-7.92-6.72-11.87-10.08Z" transform="translate(-51.64 -671.15)"/><path class="cls-64" d="M103.28,736.24c.83-1.45-.87-1.32-1.29-2a12.33,12.33,0,0,0-2-2c.5-.55,1,.26,1.41-.06.78.46,1.57.91,2.34,1.39,1.48.9,3,1.33,4.55.23l-1.41,2.2a2.19,2.19,0,0,0-3.2.4A.32.32,0,0,1,103.28,736.24Z" transform="translate(-51.64 -671.15)"/><path class="cls-65" d="M110,730.58l.69-.76.78-.69c-.14,1.18-1.2,1.7-1.82,2.54-2.47-1.3-5.15-2.26-7.3-4.14,1.89.29,3.38,1.47,5,2.26A4.1,4.1,0,0,0,110,730.58Z" transform="translate(-51.64 -671.15)"/><path class="cls-66" d="M84.65,724l-.73.63a.6.6,0,0,1-.5-.22,1.63,1.63,0,0,1-.21-1.1l.33-.42.71,0A1.11,1.11,0,0,1,84.65,724Z" transform="translate(-51.64 -671.15)"/><path class="cls-42" d="M96.38,702.08a3.37,3.37,0,0,1,2.15-.07,1,1,0,0,0,.52,1.06l20.67,10.7c-.69.7-1.44.37-2.1,0-6.89-3.65-13.76-7.34-20.64-11C96.68,702.62,96.38,702.49,96.38,702.08Z" transform="translate(-51.64 -671.15)"/><path class="cls-67" d="M106.08,700.77a1.54,1.54,0,0,1,1.81.32c2.87,2,6.33,3.06,9.13,5.21-1.27.57-2-.52-2.93-1A53.63,53.63,0,0,1,106.08,700.77Z" transform="translate(-51.64 -671.15)"/><path class="cls-68" d="M78.74,718.35l-.42-1.81c1.44-2.44,4.16-2.65,6.4-3.69a26.66,26.66,0,0,1,6.44-1.35c1,0,2-.21,2.82.67.27,1.25-.81,1.33-1.51,1.63-1.09.45-2.18.91-3.26,1.4-2.92.67-5.4,2.4-8.19,3.39C80.25,718.86,79.36,719.79,78.74,718.35Z" transform="translate(-51.64 -671.15)"/><path class="cls-69" d="M77.81,719.43a2.29,2.29,0,0,1-.12,1.82c-5.09-3.15-8.53-8-12.84-12,1.28-.83,1.88.4,2.71.91a13.58,13.58,0,0,1,2.26,1.49c.8.69,1.87,1.06,2.47,2a4.94,4.94,0,0,0,1.48,1.67,6.63,6.63,0,0,1,2.56,2.14C76.78,718.17,77,719,77.81,719.43Z" transform="translate(-51.64 -671.15)"/><path class="cls-70" d="M69.59,712.37c-1.6-1-2.9-2.45-4.74-3.09l-2.22-2a11.68,11.68,0,0,1-3.09-2.94l-2.46-2.45a5.71,5.71,0,0,1-.87-1.34,1.16,1.16,0,0,1,0-1,1.21,1.21,0,0,1,1.29-.34,1.84,1.84,0,0,1,.54.5,6.5,6.5,0,0,0,1.49,2.14L65,707.11c.39.38.78.76,1.19,1.12a19.91,19.91,0,0,1,2.86,2.14,3.36,3.36,0,0,1,.52.61C69.83,711.45,70.22,711.92,69.59,712.37Z" transform="translate(-51.64 -671.15)"/><path class="cls-71" d="M85.13,713.19c-2.22,1.21-4.74,1.81-6.81,3.35-1.35-.08-.34,1.05-.74,1.46a1.69,1.69,0,0,1-2-1.75,2.21,2.21,0,0,1,.27-.7C77,714,79,714.48,80.51,713.66c1.39-.29,2.63-1.24,4.15-1A.81.81,0,0,1,85.13,713.19Z" transform="translate(-51.64 -671.15)"/><path class="cls-72" d="M78.74,718.35c1.25.82,2.23-.14,3.26-.54,2.4-.92,4.54-2.45,7.11-3a.69.69,0,0,1-.7.74l-.7.72c-2.48.45-4.53,1.94-6.83,2.84C79.83,719.56,79,719.94,78.74,718.35Z" transform="translate(-51.64 -671.15)"/><path class="cls-49" d="M84.16,718.58c.6.63,1.64-.19,2.17.67-1.78.86-3.73.87-6.08,1.2A10.37,10.37,0,0,1,84.16,718.58Z" transform="translate(-51.64 -671.15)"/><path class="cls-73" d="M75.88,716.26c0,1.13,1.09,1.2,1.7,1.74,0,.25,0,.5,0,.75-1,.79-1.08-.18-1.43-.67a6.87,6.87,0,0,0-2.88-2.14.8.8,0,0,1,.53-.83,1.7,1.7,0,0,1,.71.06C75.1,715.41,75.68,715.6,75.88,716.26Z" transform="translate(-51.64 -671.15)"/><path class="cls-49" d="M86.68,718.89c1.45-.81,3.11-.8,4.66-1.19A4.67,4.67,0,0,1,86.68,718.89Z" transform="translate(-51.64 -671.15)"/><path class="cls-69" d="M59.54,704.37l3.09,2.94c-1.31-.29-1.87-1.57-2.9-2.23C59.67,704.84,59.61,704.6,59.54,704.37Z" transform="translate(-51.64 -671.15)"/><path class="cls-74" d="M76.2,718.08c.43.32.76.84,1.43.67l.18.68C76.78,719.57,76.26,719.1,76.2,718.08Z" transform="translate(-51.64 -671.15)"/><path class="cls-53" d="M118.33,716l-.36.37c-4.75-2.39-9.24-5.29-14.21-7.24a2.42,2.42,0,0,1-2.35-1.21,1.23,1.23,0,0,1,.15-1.13c2.13.22,3.56,1.9,5.45,2.63,3.15,1.69,6.31,3.36,9.46,5.06C117.18,714.84,118.08,715,118.33,716Z" transform="translate(-51.64 -671.15)"/><path class="cls-75" d="M101.54,707l0,.71c-2.21.73-3.49-1.1-5.17-1.86-1.31-1.38-3.77-1.39-4.32-3.67l.72,0,8,4.14A.69.69,0,0,1,101.54,707Z" transform="translate(-51.64 -671.15)"/><path class="cls-31" d="M101.54,707l-.74-.71c0-.07-.12-.13-.16-.2-.12-.23-.11-.56.21-.4,2.15,1.08,4.45,1.9,6.16,3.7C104.9,709.25,103.58,707.32,101.54,707Z" transform="translate(-51.64 -671.15)"/><path class="cls-45" d="M85.51,699.45c3.2-.58,5.41-2.87,7.94-4.61,1.3-.89,2.32-1.24,3.7.12,1.23,1.21,1.23,1.92-.15,2.78l-6.21,2.83a6.41,6.41,0,0,1-5.15-.15C85,700.19,85.22,699.82,85.51,699.45Z" transform="translate(-51.64 -671.15)"/><path class="cls-76" d="M88.12,702l2.5.24a52.08,52.08,0,0,1,6,3.25c.79,1.15,2.43,1.12,3.2,2.3.21.75-.36.87-.85,1a2.46,2.46,0,0,1-1.44-.2c-.69-.34-1.19-1-1.9-1.25l-.57-.2-.28-.1a1.8,1.8,0,0,1-.47-.35,2.27,2.27,0,0,0-.72-.46,4.19,4.19,0,0,1-1.37-.68,13.45,13.45,0,0,0-2.29-1.34,5.18,5.18,0,0,1-.9-.63A2.1,2.1,0,0,1,88.12,702Z" transform="translate(-51.64 -671.15)"/><path class="cls-77" d="M90.13,696.11c-1.26,1.65-3.49,1.7-5,3A8.42,8.42,0,0,0,81.94,701c-1-1.13-.22-1.86.59-2.59a27.33,27.33,0,0,0,6.32-2.94,1.3,1.3,0,0,1,.7-.14A.84.84,0,0,1,90.13,696.11Z" transform="translate(-51.64 -671.15)"/><path class="cls-16" d="M89.57,703.32l.73.7a1.23,1.23,0,0,1,1.12,1.29,1.46,1.46,0,0,1-.45.59,1.51,1.51,0,0,1-1.37,0,9.35,9.35,0,0,0-2.1-1.42,1.85,1.85,0,0,1-.48-.35,7.74,7.74,0,0,0-.8-.82,2.21,2.21,0,0,1-.37-.43c-.12-.29,0-.55.1-.82a1.33,1.33,0,0,1,1.42-.09C88.33,702,88.58,703.25,89.57,703.32Z" transform="translate(-51.64 -671.15)"/><path class="cls-78" d="M81.59,701.34l2.89.62a1.91,1.91,0,0,1,1.09.72.57.57,0,0,1,.05.6.92.92,0,0,0-.7.77,1.06,1.06,0,0,1-.58.31c-1.25-.62-2.88-.77-3.2-2.55A.73.73,0,0,1,81.59,701.34Z" transform="translate(-51.64 -671.15)"/><path class="cls-79" d="M96.47,705.68c-1.85-1.32-4.19-1.84-5.85-3.48a1.79,1.79,0,0,1,1.45,0c1.33,1.43,3.33,1.84,4.75,3.13,0,.19,0,.31-.11.36S96.51,705.72,96.47,705.68Z" transform="translate(-51.64 -671.15)"/><path class="cls-80" d="M81.59,701.34c-.11.09-.23.18-.33.28h-.38c-1.12-1.65.13-2.74.93-3.94a2.16,2.16,0,0,1,1.39-.44.6.6,0,0,1,.39.85.84.84,0,0,1-.59.37A2.79,2.79,0,0,0,81.94,701C81.83,701.1,81.71,701.22,81.59,701.34Z" transform="translate(-51.64 -671.15)"/><path class="cls-81" d="M89.57,703.32c-1.1.12-1.5-.88-2.2-1.39l.75,0Z" transform="translate(-51.64 -671.15)"/><path class="cls-82" d="M85.59,703.05,84.48,702,86,702v.66c0,.17,0,.28-.16.33S85.62,703.08,85.59,703.05Z" transform="translate(-51.64 -671.15)"/><path class="cls-70" d="M87.93,729.44l4.84,3c.45.49,1.7.69.66,1.74-.94.14-1.56-1.19-2.6-.56a2.15,2.15,0,0,1-1-1.06l-.34-.41a1.65,1.65,0,0,1-1.85-.78C87.33,730.69,87.18,730,87.93,729.44Z" transform="translate(-51.64 -671.15)"/><path class="cls-83" d="M81.51,726.55l0-.73a.48.48,0,0,1,.54-.42,5.59,5.59,0,0,1,2.88,1.8,6,6,0,0,1,1,2,.37.37,0,0,1-.49.39l-.74-.57c-1-.28-1.38-1.58-2.51-1.75Z" transform="translate(-51.64 -671.15)"/><path class="cls-10" d="M85.45,729.62l.43-.14c1.14-.13,1.48.74,1.89,1.52s1.11.85,1.74,1.17C87.26,732.75,86.82,730.44,85.45,729.62Z" transform="translate(-51.64 -671.15)"/><path class="cls-10" d="M82.2,727.3c1.12.19,1.74,1.07,2.51,1.75C83.48,729,83,727.89,82.2,727.3Z" transform="translate(-51.64 -671.15)"/><path class="cls-84" d="M56.37,699.75l0,.75a3.08,3.08,0,0,1-1.86-1.76A4.17,4.17,0,0,1,53,696.6c-.4-1.1-.82-2.19-1.19-3.3-.48-1.45-.12-2.5,1.52-2.84a1.58,1.58,0,0,1,.62,1.19c.63,1.91,1,3.94,2,5.71A4.46,4.46,0,0,1,56.37,699.75Z" transform="translate(-51.64 -671.15)"/><path class="cls-85" d="M54.49,698.74l1.86,1.76c.34.43.93.72.73,1.42A6,6,0,0,1,54.49,698.74Z" transform="translate(-51.64 -671.15)"/><path class="cls-86" d="M76.06,679.89l.43.28c.61.73.1,1.32-.22,1.93-.84,1.83.53,2.66,1.75,3,3.78,1.08,5.91,4,8.16,6.83a3.73,3.73,0,0,1-1.9,3.25.91.91,0,0,1-.84-.18c-2.63-2.5-5-5.23-8.12-7.25a7.31,7.31,0,0,1-2.87-3.15,1.64,1.64,0,0,1,.21-1.26c.67-1.06,1.7-1.83,2.34-2.91A1.46,1.46,0,0,1,76.06,679.89Z" transform="translate(-51.64 -671.15)"/><path class="cls-87" d="M75.78,681.7c.26-.5.88-.83.71-1.53l.29-.3c.9-.78,1.74-1.67,3.09-1.56a11.69,11.69,0,0,1,3,3.4c.8,2.06,2.55,3.21,4.18,4.49,1,.78,2.36,1.57,1.09,3.18-2.09-.39-3.06-2.25-4.56-3.43-.78-.61-1.46-1.55-2.61-1.19C78.09,685.66,76.83,683.9,75.78,681.7Z" transform="translate(-51.64 -671.15)"/><path class="cls-88" d="M76.06,679.89l-.72.74a3,3,0,0,1-1.63,1.19.88.88,0,0,1-.58-.29A5.58,5.58,0,0,0,72,678.94a1.68,1.68,0,0,1,0-.67c.31-.46.35-1.14,1.07-1.24l.39.36C74.41,678.14,74.54,679.73,76.06,679.89Z" transform="translate(-51.64 -671.15)"/><path class="cls-11" d="M75.57,673.74l2.92,3.49a1,1,0,0,1-1,1.11C77.13,676.69,74.87,675.82,75.57,673.74Z" transform="translate(-51.64 -671.15)"/><path class="cls-23" d="M79.61,678.33a3.62,3.62,0,0,1-2.83,1.54,1.05,1.05,0,0,1,.31-1.13c1-.17,1.23-1.19,2-1.59.54.13,1.22-.82,1.63.23A1.15,1.15,0,0,1,79.61,678.33Z" transform="translate(-51.64 -671.15)"/><path class="cls-89" d="M79.25,677.24c-.7.53-1,1.57-2.16,1.5l.36-.39,1-1.12c.32-.27.64-.52,1.09-.35,0,.17,0,.28-.11.33S79.29,677.27,79.25,677.24Z" transform="translate(-51.64 -671.15)"/><path class="cls-90" d="M94,692c.21.7-.33,1.07-.68,1.52l-1,1.07c-1,0-1.85.77-2.88.78h0c-1.25.17-2,2.44-3.68.89.49-1.75,2.3-1.7,3.47-2.5a16.93,16.93,0,0,1,2.6-1.45c.63-.28,1.24.15,1.87,0Z" transform="translate(-51.64 -671.15)"/><path class="cls-12" d="M89.38,695.4a3.12,3.12,0,0,1,2.88-.78l-2.13,1.49Z" transform="translate(-51.64 -671.15)"/><path class="cls-91" d="M81.86,725.45l-.37.37c-.39-.4-1.1-.8-1.09-1.18s.72-.75,1.34-.67a1,1,0,0,1,.85.7A.79.79,0,0,1,81.86,725.45Z" transform="translate(-51.64 -671.15)"/><path class="cls-38" d="M82.55,724.81l-.81-.84,1.47-.63a1,1,0,0,1,.35,1.08C83.41,725,83.1,725.24,82.55,724.81Z" transform="translate(-51.64 -671.15)"/><path class="cls-88" d="M96.47,705.68l.35-.36a18.39,18.39,0,0,0,4.74,2.4l2.2,1.39c.36.36.73.71,1.1,1.06l-.36.38a1.16,1.16,0,0,1-1,.15c-1-.45-1.75-1.28-2.88-1.42a1.27,1.27,0,0,1-.81-1.16Z" transform="translate(-51.64 -671.15)"/><path class="cls-2" d="M103.79,710.56h.71c.66,1.94,3.08,1.6,4,3.13l.74.72c-.72.84-1-.12-1.47-.35a20.76,20.76,0,0,1-4.41-2.47A1.28,1.28,0,0,1,103.79,710.56Z" transform="translate(-51.64 -671.15)"/><path class="cls-92" d="M109,717.63c-2.64-1.56-5.94-2.15-7.64-5.13.08-.53.41-.46.76-.32,1,1.35,2.63,1.76,4,2.54a10.19,10.19,0,0,0,2.46,1.14l.36.35C109,716.68,109.84,717.13,109,717.63Z" transform="translate(-51.64 -671.15)"/><path class="cls-26" d="M107.83,713.71c.42.37.78.86,1.46.69l7.3,4.15c-3.43-.68-6.26-2.6-9.11-4.47,0-.19,0-.3.12-.35S107.79,713.68,107.83,713.71Z" transform="translate(-51.64 -671.15)"/><path class="cls-93" d="M109,717.63c0-.47,0-1-.05-1.42a46.33,46.33,0,0,1,7,3.79c-1,.16-1.73-.47-2.56-.88s-1.52-1.27-2.52-.45Z" transform="translate(-51.64 -671.15)"/><path class="cls-94" d="M107.83,713.71l-.35.37a21.16,21.16,0,0,1-4.71-2.35.79.79,0,0,1,.1-.62,1.14,1.14,0,0,1,.57-.31.5.5,0,0,1,.37.48C104.84,712.59,106.45,713,107.83,713.71Z" transform="translate(-51.64 -671.15)"/><path class="cls-95" d="M106.05,714.83c-1.45-.66-3.16-.9-4-2.49a.31.31,0,0,1,.41-.26l3.26,2.39C106,714.45,106.06,714.58,106.05,714.83Z" transform="translate(-51.64 -671.15)"/><path class="cls-96" d="M102.42,712.08a2.57,2.57,0,0,0-.41.26l-.64.16a2.14,2.14,0,0,0-.41.25c-.67-.36-.32-.81-.11-1.25a2.12,2.12,0,0,1,.88-.69,1.08,1.08,0,0,1,1.32.41c-.1.17-.19.34-.28.51A1.45,1.45,0,0,0,102.42,712.08Z" transform="translate(-51.64 -671.15)"/><path class="cls-97" d="M106.05,714.83l-.37-.36a4.81,4.81,0,0,1,2.92,1.39A3,3,0,0,1,106.05,714.83Z" transform="translate(-51.64 -671.15)"/><path class="cls-98" d="M88.15,689.3c.43-1.36-.44-2.08-1.44-2.54-1.57-.74-2.54-2.13-3.8-3.19-.57-.47-.86-1-.33-1.71a3.06,3.06,0,0,1,1.11-2.12,4.2,4.2,0,0,1,.94-.79,2.51,2.51,0,0,1,1.14-.36c1.11,2.43,3.48,3.7,5.16,5.6l-.33,1.73c.18.72-.32,1.15-.71,1.62a7.62,7.62,0,0,1-1,3.07,3.49,3.49,0,0,1-.69.89,1.63,1.63,0,0,1-1,.44.72.72,0,0,1-.45-.58C86.83,690.44,87,689.54,88.15,689.3Z" transform="translate(-51.64 -671.15)"/><path class="cls-12" d="M93.64,692.39a.92.92,0,0,1-1.45.06,3.76,3.76,0,0,1-2.85-2.1c-.21-.65-.24-1.23.59-1.45Z" transform="translate(-51.64 -671.15)"/><path class="cls-90" d="M89.93,688.9a1.1,1.1,0,0,0-.32,1.11.48.48,0,0,1-.27.5,1,1,0,0,1-.89-.13,8.86,8.86,0,0,1,1.44-2.84A1.58,1.58,0,0,1,89.93,688.9Z" transform="translate(-51.64 -671.15)"/><path class="cls-29" d="M85.77,678.59l-.75.66c-1.87.63-2.45-1.34-3.76-1.85a3.07,3.07,0,0,1-.6-.22l-1.41.06.33-.36c.39-.4.86-.76.74-1.42a3.07,3.07,0,0,1,.29-.34c.4,0,.65-.51,1.1-.36,1.56.75,1.94,3.07,4.06,3.08l.32.33Z" transform="translate(-51.64 -671.15)"/><path class="cls-99" d="M81.71,674.76l-1.1.36.36-.48a3.34,3.34,0,0,0,.32-.33Z" transform="translate(-51.64 -671.15)"/><path class="cls-100" d="M53.87,689.73c-.08-.11-.16-.23-.23-.35l.89-1.14c.47-.29.79-.87,1.48-.71a1.53,1.53,0,0,1,.05.64,11.38,11.38,0,0,1-.27,1.92c-.31.46-.72.37-1.15.21A2.53,2.53,0,0,1,53.87,689.73Z" transform="translate(-51.64 -671.15)"/><path class="cls-101" d="M59.22,684.1l.74-.56a1.19,1.19,0,0,1,1.67.42,1.23,1.23,0,0,1,0,1.09A5.16,5.16,0,0,1,58.62,687a1.24,1.24,0,0,1-.69-.23,1.27,1.27,0,0,1-.13-1.06Z" transform="translate(-51.64 -671.15)"/><path class="cls-67" d="M57.8,685.68l.27.94c-.5,2.06-.93,2.29-2.35,1.26.09-.12.19-.24.29-.35Z" transform="translate(-51.64 -671.15)"/><path class="cls-102" d="M53.87,689.73h.76c.14.7.53,1.43-.2,2-.35.16-.69.24-.88-.23l-.21-1.07Z" transform="translate(-51.64 -671.15)"/><path class="cls-55" d="M66.32,679c.22-.26.45-.52.68-.77l1.43-.69c1-.12,1.24,1.13,2.1,1.29a2.52,2.52,0,0,1-.68,2.17,1.25,1.25,0,0,1-1.68.25A24.84,24.84,0,0,0,66.32,679Z" transform="translate(-51.64 -671.15)"/><path class="cls-103" d="M69.54,680.71l1-1.83,1.08-1.1c.44-.34.76-.91,1.46-.75l-.75,1.44c-.71.3-.71,1.12-1.16,1.6a4.15,4.15,0,0,1-.35.57,1.24,1.24,0,0,1-.84.47A.48.48,0,0,1,69.54,680.71Z" transform="translate(-51.64 -671.15)"/><path class="cls-31" d="M61.43,684.17,60,683.54a2.68,2.68,0,0,1,2.43-1.2,1.35,1.35,0,0,1,.53,1.06,1.14,1.14,0,0,1-.32.51A1.84,1.84,0,0,1,61.43,684.17Z" transform="translate(-51.64 -671.15)"/><path class="cls-28" d="M62.76,683.47a1.22,1.22,0,0,1-.37-1.13l.67-.73.42.34a2.33,2.33,0,0,1,0,.53,2.05,2.05,0,0,1-.28.76A.71.71,0,0,1,62.76,683.47Z" transform="translate(-51.64 -671.15)"/><path class="cls-91" d="M65.23,680.89a1.81,1.81,0,0,0,1.44-.1.65.65,0,0,1,.53.37,8.3,8.3,0,0,1,.15,2.05,1.54,1.54,0,0,1-.29.62,1.35,1.35,0,0,1-.6.32,1.15,1.15,0,0,1-.59-.3c-.49-.72-1.16-1.35-1.08-2.34l0-.32Z" transform="translate(-51.64 -671.15)"/><path class="cls-72" d="M64.49,681.46l-1-.23c.43-.49.88-.61,1.35,0h.07c0,.22,0,.33-.16.34A.33.33,0,0,1,64.49,681.46Z" transform="translate(-51.64 -671.15)"/><path class="cls-104" d="M103.48,737.46l-1.21-.07c-.49-.28-.43-.58,0-.9l1-.25c.14.07.28.14.41.22Z" transform="translate(-51.64 -671.15)"/><path class="cls-105" d="M67.05,681.14l-.38-.35c-.32-.55-1.32-.95-.35-1.75,1.67-.53,1.54.85,1.85,1.76a.85.85,0,0,1-.3.58C67.53,681.52,67.21,681.58,67.05,681.14Z" transform="translate(-51.64 -671.15)"/><path class="cls-92" d="M64.49,681.46a1.56,1.56,0,0,0,.4-.27l1.19,2.49a2.31,2.31,0,0,1-1.53-.37,1.52,1.52,0,0,1-.67-.68c0-.11,0-.22,0-.33Z" transform="translate(-51.64 -671.15)"/><path class="cls-106" d="M63.16,682.33a2,2,0,0,1,.32-.38l.39.35h0a.41.41,0,0,1-.12.38c-.11.08-.17.11-.2.09A.4.4,0,0,1,63.16,682.33Z" transform="translate(-51.64 -671.15)"/><path class="cls-107" d="M101.27,711.62c-.22.34-.48.68-.31,1.13a1,1,0,0,1-1.07.43c-.85-1.09-1.25,0-1.79.38-.59-.14-.65-.79-1.07-1.09a1.83,1.83,0,0,1-.5-.86.79.79,0,0,1,.29-.6,6.57,6.57,0,0,1,3.85-.22A1,1,0,0,1,101.27,711.62Z" transform="translate(-51.64 -671.15)"/><path class="cls-80" d="M88.41,715.59c.24-.24.47-.49.7-.74,1.15-1.56,3.53-1,4.61-2.66.5-.57.91-.26,1.3.13.2.38.27.73-.18,1l-.35.34c-.75.26-1.43.67-2.16,1-1.31.11-2.21,1.31-3.56,1.32l-.18-.18Z" transform="translate(-51.64 -671.15)"/><path class="cls-49" d="M88.77,715.94c1.14-.63,2.17-1.54,3.58-1.52a.71.71,0,0,1-.71.75l-1.42.75A.93.93,0,0,1,88.77,715.94Z" transform="translate(-51.64 -671.15)"/><path class="cls-90" d="M97.3,712.15c.94.08.7.85.8,1.41a4.09,4.09,0,0,1-2.84,1.25c-.64,0-.64,0,0-1.2C95.4,712.39,96.26,712.14,97.3,712.15Z" transform="translate(-51.64 -671.15)"/><path class="cls-108" d="M97.3,712.15l-2.08,1.46-.38-.3,0-.86a1.39,1.39,0,0,1,1.85-1Z" transform="translate(-51.64 -671.15)"/><path class="cls-61" d="M91.64,715.17l.71-.75a2.83,2.83,0,0,1,2.14-.77A4.8,4.8,0,0,1,91.64,715.17Z" transform="translate(-51.64 -671.15)"/><path class="cls-34" d="M93.53,733.86l-.76-1.4,1.09.3L96,734.22c.23.6.13,1-.55,1.22C94.53,735.28,93.64,735.06,93.53,733.86Z" transform="translate(-51.64 -671.15)"/><path class="cls-109" d="M95.73,735.25l.3-1a3.39,3.39,0,0,1,1.9.93c.22.26.45.51.68.77l-.18.32C97.25,736.67,96.27,736.54,95.73,735.25Z" transform="translate(-51.64 -671.15)"/><path class="cls-110" d="M82.55,724.81l1-.39.36.24.39.41a2.75,2.75,0,0,0,1.84,1.76c.48.55,1.3.91,1.08,1.86-1.23.65-1.84-.29-2.54-1l-2.83-2.25Z" transform="translate(-51.64 -671.15)"/><path class="cls-111" d="M84.69,727.7a5.24,5.24,0,0,0,2.54,1l.7.75c-.05.52-.11,1-.16,1.56l-1.89-1.52C85.53,728.86,84.68,728.57,84.69,727.7Z" transform="translate(-51.64 -671.15)"/><path class="cls-79" d="M86.15,726.83a1.71,1.71,0,0,1-1.84-1.76Z" transform="translate(-51.64 -671.15)"/><path class="cls-112" d="M102.24,736.49l0,.89-1.15.12c-1.24.1-2.22-.2-2.51-1.6v0a1,1,0,0,1,1.13-.47l1.77.41Z" transform="translate(-51.64 -671.15)"/><path class="cls-113" d="M85.13,713.19l-.39-.39c0-.12,0-.24.05-.37,2.14-1.4,4.37-2.18,6.86-.86a.59.59,0,0,1-.48.5Z" transform="translate(-51.64 -671.15)"/><path class="cls-64" d="M91.17,712.07l.39-.52c.72-1.74,2.23-1,3.48-1.12a1.83,1.83,0,0,1,1.48,1l.12.12-1.85,1a.92.92,0,0,0-1.07-.26Z" transform="translate(-51.64 -671.15)"/><path class="cls-114" d="M69.59,712.37a1.1,1.1,0,0,0-.4-1.06c1.08-.81,1.66.31,2.46.62a2.86,2.86,0,0,1,.52.46,1.71,1.71,0,0,1,.28,1.63l-.3.17Z" transform="translate(-51.64 -671.15)"/><path class="cls-115" d="M74,715.22l-.67.72c-.51-.51-1.27-.85-1.17-1.75v0C73,714.11,73.78,714.18,74,715.22Z" transform="translate(-51.64 -671.15)"/><path class="cls-116" d="M72.09,712.81l-.34-.38a8.65,8.65,0,0,0-3.09-2.36,51,51,0,0,0-4.16-3.3A18.35,18.35,0,0,1,63,705.4c-1.49-1.15-2.44-2.95-4.36-3.56a2.08,2.08,0,0,1-.76-2,1.25,1.25,0,0,1,1.4-.56,2.91,2.91,0,0,1,.75.37,28.78,28.78,0,0,1,2.54,2.27c3,3.25,6.6,5.7,9.8,8.67a9.8,9.8,0,0,1,1.88,2,1.84,1.84,0,0,1,.19.83c-.62.86-1.19.26-1.77-.06A.92.92,0,0,1,72.09,712.81Z" transform="translate(-51.64 -671.15)"/><path class="cls-117" d="M58.6,701.84c1.48-.85,1.86.7,2.65,1.26a18.48,18.48,0,0,1,2,1.92c0,1.2,2.11,1.17,1.59,2.69Z" transform="translate(-51.64 -671.15)"/><path class="cls-118" d="M56.37,699.75c-.9-.46-.51-1.43-.81-2.12.12-.9-1.14-2.17.71-2.59a3.18,3.18,0,0,1,2.25,2.72,2.64,2.64,0,0,1-1.13,1.67Z" transform="translate(-51.64 -671.15)"/><path class="cls-117" d="M64.77,706.41c2,.46,2.88,2.41,4.41,3.51.67.55.37.84-.29,1L66,708.85C65.89,707.88,65,707.32,64.77,706.41Z" transform="translate(-51.64 -671.15)"/><path class="cls-119" d="M68.89,711a1,1,0,0,0,.29-1,2.92,2.92,0,0,1,2.57,2.51c-1.15.3-1.4-1.46-2.56-1.12l-.18-.16Z" transform="translate(-51.64 -671.15)"/><path class="cls-106" d="M64.77,706.41c.47.78,2,1.05,1.2,2.44l-1.09-1.14c-.06-1.18-1.73-1.4-1.59-2.69Z" transform="translate(-51.64 -671.15)"/><path class="cls-120" d="M57.39,699.43c-.18-.69.3-1.07.7-1.48a.64.64,0,0,1,.57.18c.22.4,1,.74.17,1.27-.29.24-.54.57-1,.41Z" transform="translate(-51.64 -671.15)"/><path class="cls-121" d="M74,713.8l.33-.4c0-.22,0-.43,0-.65a1.47,1.47,0,0,1,.65-1.07c.77-.27,1.14.39,1.64.73.3.29.49.67.8.94,1.08.58,2.5-.75,3.41.63-1.22,1.4-3.47.34-4.63,1.9C75.3,715.34,74.29,714.93,74,713.8Z" transform="translate(-51.64 -671.15)"/><path class="cls-32" d="M80.8,714c-1.27-.88-2.73,1.15-4-.27,2-1.7,6.25-2.19,7.9-.92h0C83.42,713.17,82.23,714,80.8,714Z" transform="translate(-51.64 -671.15)"/><path class="cls-115" d="M74,713.8c.88.55,2,.79,2.21,2.08-.1.12-.2.25-.29.38l-1.53-.69c-.16-1.16-1.81-1.2-1.85-2.46C73.15,713,73.49,713.54,74,713.8Z" transform="translate(-51.64 -671.15)"/><path class="cls-83" d="M72.5,713.11c.62.82,1.85,1.18,1.85,2.46l-.18-.17-.18-.18-1.83-1.05c0-.45,0-.91-.07-1.36Z" transform="translate(-51.64 -671.15)"/><path class="cls-122" d="M84.73,712.79a17.4,17.4,0,0,0-7.9.92l-.36-1.06a.93.93,0,0,1,.33-.62A96.53,96.53,0,0,1,88,710.1c2.92-.4,5.88-.63,8.66-1.73a1.28,1.28,0,0,1,1-.07l.76.14a1.31,1.31,0,0,1,.38,1.64c-1.07,1.15-2.42.78-3.72.69-1.14.5-2.55-.21-3.58.78A11.55,11.55,0,0,0,84.73,712.79Z" transform="translate(-51.64 -671.15)"/><path class="cls-103" d="M90.6,705.82l.46-.4a2,2,0,0,1,1.44,0l1.52.65.06.2-.11.17.17-.12.19.08.36.43a.94.94,0,0,1,0,1A.8.8,0,0,1,94,708c-.85-.27-1.72-.46-2.58-.69C90.87,707,90,706.82,90.6,705.82Z" transform="translate(-51.64 -671.15)"/><path class="cls-87" d="M94.42,707.8l.27-.95v0c.24,0,.47-.06.71,0,1.18-.12,1.56,1,2.31,1.51l-.8.58C95.93,708.88,94.86,709.07,94.42,707.8Z" transform="translate(-51.64 -671.15)"/><path class="cls-19" d="M98.83,709.83c-.12-.46-.23-.93-.35-1.39l1.28-.32,1.08,1.08c0,.1,0,.21,0,.32a1.33,1.33,0,0,1-.61.73A1.06,1.06,0,0,1,98.83,709.83Z" transform="translate(-51.64 -671.15)"/><path class="cls-123" d="M92.5,705.44a1.72,1.72,0,0,1-1.44,0c.14-.68-.38-1-.76-1.4A2.54,2.54,0,0,1,92.5,705.44Z" transform="translate(-51.64 -671.15)"/><path class="cls-27" d="M95.41,706.79l-.71,0Z" transform="translate(-51.64 -671.15)"/><path class="cls-124" d="M94,706.09c.32-.09.39,0,.31.33l0,.08a.46.46,0,0,1-.35-.39Z" transform="translate(-51.64 -671.15)"/><path class="cls-125" d="M85.8,696.2c1.46.93,2.28-1,3.58-.8-1.81,1.67-3.77,3-6.38,3.05.12-.13.23-.26.35-.38.68-.32.76-1.21,1.42-1.55A1.43,1.43,0,0,1,85.8,696.2Z" transform="translate(-51.64 -671.15)"/><path class="cls-126" d="M90.6,705.82c-.26,1.13.8.71,1.22,1a1.19,1.19,0,0,1-1,1.29c-4.5.77-9,1.84-13.52,2.12-.65-.95-.24-1.71.4-2.44,3-1.83,6.53-1.76,9.83-2.48a5.83,5.83,0,0,1,2.08.16Z" transform="translate(-51.64 -671.15)"/><path class="cls-79" d="M89.63,705.51c-.48.76-1.14.11-1.71.23-.9.06-.85-.65-1-1.22a.52.52,0,0,1,.49-.43A2.21,2.21,0,0,1,89.63,705.51Z" transform="translate(-51.64 -671.15)"/><path class="cls-82" d="M86.32,703c.62-.13.85.13.73.74a.37.37,0,0,1-.11.36c-.1.09-.16.12-.18.1l-.3-.09-.22-.23a1.26,1.26,0,0,1-.08-.61C86.21,703.21,86.26,703.12,86.32,703Z" transform="translate(-51.64 -671.15)"/><path class="cls-127" d="M86.71,704.1a3.51,3.51,0,0,1,.34-.33c.13.1.25.21.37.32l-.38.42c-.27.36-.52.31-.76,0A.39.39,0,0,1,86.71,704.1Z" transform="translate(-51.64 -671.15)"/><path class="cls-128" d="M85.59,703.05l.36-.37.37.35h0a.92.92,0,0,1-.26.61c-.33.15-.63.18-.8-.24Z" transform="translate(-51.64 -671.15)"/><path class="cls-129" d="M86.38,704.43c.19.27.42.23.66.08l.88,1.23-9.85,2.15c-.73-1,.08-1.73.56-2.5a3,3,0,0,1,.57-.42c1.64-1.23,3.64-.45,5.41-1a3.11,3.11,0,0,1,.28-.23c.41,0,.76.2,1.16.2A.47.47,0,0,1,86.38,704.43Z" transform="translate(-51.64 -671.15)"/><path class="cls-130" d="M84.61,704c-1.54,1.43-3.77.19-5.37,1.4-.22-1.72.23-3.07,2-3.73l0-.07C81.93,703,83.57,703.12,84.61,704Z" transform="translate(-51.64 -671.15)"/><path class="cls-131" d="M86,704.14c-.44.15-.76-.11-1.08-.35a3,3,0,0,1,.12-.4s.16,0,.24,0l.7,0a.39.39,0,0,1,.44.25l-.09.11c0,.18,0,.29-.11.33S86,704.18,86,704.14Z" transform="translate(-51.64 -671.15)"/><path class="cls-132" d="M81.24,701.69c-1,1-1.31,2.5-2,3.73l-.18-.1a7.24,7.24,0,0,1-3.36-2.2q-3.42-3.23-6.8-6.51c-1.5-1.46-1.69-2.87,0-4.28,1.43-.83,1.32-1.68.16-2.72-.69-.61-1.85-1.07-1.36-2.4A3.21,3.21,0,0,1,68.89,686c1.76-1.53,3.37-1.25,4.78.49a94.52,94.52,0,0,0,9.2,9.36,1.24,1.24,0,0,1-.58,1.91C81.75,699,80.13,700,81.24,701.69Z" transform="translate(-51.64 -671.15)"/><path class="cls-7" d="M82.29,697.76l.66-1.48a1.06,1.06,0,0,1,.32-1,1.13,1.13,0,0,1,.66-.26l.11.18c.94-.22,1-1.6,2.12-1.61.66.7.18,1.22-.27,1.74l-.83.88c-.48.46-.88,1-1.63,1.09Z" transform="translate(-51.64 -671.15)"/><path class="cls-60" d="M83.43,697.32l1.33-1.39c.57.19.32.64.33,1-.53.45-.85,1.23-1.75,1.13Z" transform="translate(-51.64 -671.15)"/><path class="cls-133" d="M98.61,735.9c.58.94,1.79.9,2.51,1.6-.34,1.29-1.24.65-1.9.48a21.74,21.74,0,0,1-6.35-3.35c-.48-.31-.83-.84-1.51-.69l-.39-.45c1-.86,1.65.64,2.56.37a3.8,3.8,0,0,0,2.2,1.39A2.73,2.73,0,0,0,98.61,735.9Z" transform="translate(-51.64 -671.15)"/><path class="cls-134" d="M55.87,695.11c-.11.84-.21,1.68-.31,2.52a13,13,0,0,1-2-6.1l.81,0a10.79,10.79,0,0,1,2.84-.29,1.84,1.84,0,0,1,.66.32,12.13,12.13,0,0,0,2.6,3.61c.85.76,1.41,1.73.28,2.79a2.42,2.42,0,0,1-1.39.49.92.92,0,0,1-.61-.34C58.21,696.68,57.64,695.31,55.87,695.11Z" transform="translate(-51.64 -671.15)"/><path class="cls-19" d="M88.15,689.3l-1.34,2.23a.8.8,0,0,1-.81.72L80.53,687a2.35,2.35,0,0,0-2.18-.87c-1.75.21-2.5-1.5-3.44-2.58-.65-.76.36-1.3.87-1.81a5,5,0,0,1,2,1.82c.54.91,1.48,1.54,2.54.63s2-.46,2.85.4C84.82,686.15,86.49,687.72,88.15,689.3Z" transform="translate(-51.64 -671.15)"/><path class="cls-135" d="M83.55,695.5l-.6.78c-3.2-1.68-5.41-4.48-7.84-7a19.69,19.69,0,0,1-1.57-2c-1.28-1.7-2.71-2.35-4.51-.71-.23-.76.31-1.27.57-1.88a3.8,3.8,0,0,1,.55-.82,2.8,2.8,0,0,1,.5-.41l.28-.15a5.67,5.67,0,0,1,1.21-.38c.43,0,.85,0,1,.5l-.65.8c2.51,3.42,6.29,5.52,9.08,8.66C82.34,693.73,83.35,694.3,83.55,695.5Z" transform="translate(-51.64 -671.15)"/><path class="cls-136" d="M83.55,695.5c-3.16-3-6.33-6-9.47-9.08-.63-.61-1.59-1-1.54-2.16,2.93,3.11,6.73,5.22,9.58,8.42.67.75,1.53,1.32,1.81,2.36Z" transform="translate(-51.64 -671.15)"/><path class="cls-3" d="M86,692.25l.81-.72.37.34a.48.48,0,0,1,.39.57,1.46,1.46,0,0,1-1.38,1.22c-.76.46-1.09,1.52-2.15,1.56C84.74,694.26,84.93,693,86,692.25Z" transform="translate(-51.64 -671.15)"/><path class="cls-51" d="M73.19,683.46l-1-.23a1.41,1.41,0,0,1,1.25-1.6,3,3,0,0,1,1.87-1C75.28,682.08,73.93,682.54,73.19,683.46Z" transform="translate(-51.64 -671.15)"/><path class="cls-19" d="M80.66,677.18l.36-.32A9,9,0,0,1,84.34,680l-1.76,1.85c-1-1.14-2.5-1.91-3-3.53Z" transform="translate(-51.64 -671.15)"/><path class="cls-65" d="M72.07,678.94c1.49.29,1.75,1.17,1.16,2.46a4.46,4.46,0,0,1-2.07,2.11l-.12.13c-.65-.44-.26-1-.14-1.48a2.86,2.86,0,0,0-.16-1.78l-.17-.12C71,679.68,71.25,679,72.07,678.94Z" transform="translate(-51.64 -671.15)"/><path class="cls-137" d="M71.16,683.51l2.06-2.11a2.73,2.73,0,0,1,.25.23l-1.25,1.6C71.88,683.38,71.62,683.83,71.16,683.51Z" transform="translate(-51.64 -671.15)"/><path class="cls-138" d="M72.07,678.94l-1.5,1.32a1.92,1.92,0,0,1,1.75-1.79Z" transform="translate(-51.64 -671.15)"/><path class="cls-139" d="M85.09,696.94l-.33-1,.71-.79c1.14-1.7,3.66-2.3,3.79-4.8l.35-.33,2.58,2.44c-1.74,1.92-4.31,2.42-6.39,3.75Z" transform="translate(-51.64 -671.15)"/><path class="cls-140" d="M103.81,711.28l-.48-.42a4.56,4.56,0,0,1-2-1,.9.9,0,0,1-.33-.56l-.13-.1c1.66-1,2,.89,3,1.36Z" transform="translate(-51.64 -671.15)"/><path class="cls-14" d="M101.07,709.49c1.14-.18,1.59.79,2.26,1.37a1.09,1.09,0,0,1-.28.36l-1.12-.27C101.14,710.77,100.65,710.4,101.07,709.49Z" transform="translate(-51.64 -671.15)"/><path class="cls-141" d="M101.07,709.49c.29.49.58,1,.86,1.46l-.65.67-.72-.58a1.16,1.16,0,0,1-.3-1l.71-.74Z" transform="translate(-51.64 -671.15)"/><path class="cls-142" d="M89.26,690.34c1,.88,1.36,1.84-.2,2.36s-2,2.18-3.59,2.44c.3-.47.76-.85.72-1.48l1.24-1.47c.15-.35,1.15-.31.46-1l.56-.77Z" transform="translate(-51.64 -671.15)"/><path class="cls-18" d="M84.34,680,81,676.86c1.09-.86,1.13.48,1.58.83.77.59,1.38,1.39,2.42,1.56C84.79,679.5,84.56,679.75,84.34,680Z" transform="translate(-51.64 -671.15)"/><path class="cls-143" d="M87.89,691.15l1.2.05a1.43,1.43,0,0,1-1.66,1,3.92,3.92,0,0,0-.25-.32Z" transform="translate(-51.64 -671.15)"/><path class="cls-144" d="M57.23,691.36c-.94.44-1.86,1.17-2.87.15l.27-1.79c.33.25.67.47,1.08.19L56,690A2.25,2.25,0,0,1,57.23,691.36Z" transform="translate(-51.64 -671.15)"/><path class="cls-145" d="M55.72,687.88c1.47.86,1.73-.53,2.35-1.26.14,0,.2,0,.2.18.45,2-.89,2.75-2.45,3.29l-.11-.18C55.44,689.23,55,688.56,55.72,687.88Z" transform="translate(-51.64 -671.15)"/><path class="cls-146" d="M55.82,690.09c.64-1.23,2.21-1.76,2.45-3.29l3.12-1.86a2.59,2.59,0,0,1,2.07.88.89.89,0,0,1,.21.73,4,4,0,0,1-1.34,1.9c-.57.52-1.28.83-1.89,1.29-.85.5-1.65,1.1-2.52,1.59a2,2,0,0,1-.74.07l0,0C56.74,691,55.92,690.92,55.82,690.09Z" transform="translate(-51.64 -671.15)"/><path class="cls-147" d="M63.24,685.89c-1,.39-1.12-.86-1.85-.95,0-.26,0-.51,0-.77a1,1,0,0,1,1.16-.54,1.39,1.39,0,0,0,1.1.24c.54-.18,1.08-.36,1.57.13a1.08,1.08,0,0,1,.17.72A1.63,1.63,0,0,1,63.24,685.89Z" transform="translate(-51.64 -671.15)"/><path class="cls-148" d="M67.83,681.1a1.63,1.63,0,0,1,.34-.3c.49.54.94.36,1.37-.09a2.5,2.5,0,0,1,.33.32c0,.13,0,.26.07.39-.53,1.31-.79,2.86-2.67,2.94a.78.78,0,0,1-.45-.6l.28-.52A10.2,10.2,0,0,1,67.83,681.1Z" transform="translate(-51.64 -671.15)"/><path class="cls-149" d="M70.74,680.38a1.38,1.38,0,0,1,1,1.73,1.57,1.57,0,0,1-1.69-1l-.21-.08Z" transform="translate(-51.64 -671.15)"/><path class="cls-27" d="M63.48,684.7c-1.06.28-.57-.73-.89-1.07l.17-.16.4-.42a1.06,1.06,0,0,1,1,0C64.61,683.85,63.58,684.1,63.48,684.7Z" transform="translate(-51.64 -671.15)"/><path class="cls-150" d="M63.89,683.1l-.73-.05v-.72c.12.11.24.22.37.32A.35.35,0,0,1,63.89,683.1Z" transform="translate(-51.64 -671.15)"/><path class="cls-151" d="M66.82,683.76a2.69,2.69,0,0,0,.32.27,1.48,1.48,0,0,1-.13,1.45,2.18,2.18,0,0,1-.92.69c-.46.1-1,.33-1.3-.18-.35-.67.44-.91.69-1.37a1.2,1.2,0,0,1,.89-.67Z" transform="translate(-51.64 -671.15)"/><path class="cls-152" d="M67.83,681.1a1.6,1.6,0,0,1-.73,2.14c-.25-.7-.73-1.39,0-2.1Z" transform="translate(-51.64 -671.15)"/><path class="cls-153" d="M66.37,684l-.64.73c-.2.14-.32.1-.34-.16l-.48-.53c0-.37-.51-.61-.29-1,.67-.11,1,.4,1.46.74A3.71,3.71,0,0,0,66.37,684Z" transform="translate(-51.64 -671.15)"/><path class="cls-154" d="M64.62,682.94c.1.35.2.7.29,1l-1.43.71c.14-.53.27-1.07.41-1.61l-.36-.44.3-.35Z" transform="translate(-51.64 -671.15)"/><path class="cls-155" d="M100.26,710a.93.93,0,0,1,.3,1l-4,.34-1.38-.61c1.22-.36,2.58-.15,3.69-.94Z" transform="translate(-51.64 -671.15)"/><path class="cls-156" d="M75,711.94l-.38,1c-3.43-3.06-7.16-5.76-10.48-9-.71-.69-1.27-1.59-2.31-1.87l-2.6-2.53a.94.94,0,0,1,.59-.58,2.53,2.53,0,0,1,1.31,0,94.65,94.65,0,0,1,12.24,10.28C74.07,710,75.32,710.51,75,711.94Z" transform="translate(-51.64 -671.15)"/><path class="cls-157" d="M61.79,702.17c.38.13.88.15,1.12.41,3.6,3.81,8.16,6.52,11.67,10.41a1,1,0,0,1-.29.41C70.41,709.34,65.6,706.31,61.79,702.17Z" transform="translate(-51.64 -671.15)"/><path class="cls-158" d="M59.56,699.33l-.37.31-.36-.24c-.13-.37-.25-.75-.38-1.12,0-.2,0-.31.13-.35s.19,0,.23,0l.37.34C59.79,698.45,60.24,698.69,59.56,699.33Z" transform="translate(-51.64 -671.15)"/><path class="cls-159" d="M58.81,697.93l-.36.35-.36-.33c-.09-1.46-1.5-1.88-2.22-2.84-.13-.54-.33-1.44.61-.74C57.63,695.23,58.92,696.17,58.81,697.93Z" transform="translate(-51.64 -671.15)"/><path class="cls-124" d="M75,711.94a116.89,116.89,0,0,0-14.68-12.62,2.71,2.71,0,0,1,0-1.44c.57-.59,1-1.16.21-1.91-1.34-1.34-3-2.46-3.27-4.57l.46-.28c.72-.25,1.44-.46,2.06.23,1,1.77,1.82,3.68,4.25,3.83A10.08,10.08,0,0,0,67.29,693c.13-1.94-2.09-2.12-2.65-3.54a1.52,1.52,0,0,1,.25-.71,1.26,1.26,0,0,1,1-.47,22.21,22.21,0,0,1,3.93,3.94c-2.2,1.57-1.69,2.85.16,4.46,3.13,2.73,6,5.72,9,8.61-.33.85-1,1.59-1,2.57a4.24,4.24,0,0,0-.61,2.2,2.4,2.4,0,0,1-.06,1.19,2.17,2.17,0,0,1-.65,1l-.28.39C75.66,713.06,75.66,711.75,75,711.94Z" transform="translate(-51.64 -671.15)"/><path class="cls-135" d="M76.75,712.26a1.08,1.08,0,0,1,.37-1.08c1.77-.93,3.75-1,5.65-1.37a4.31,4.31,0,0,0,2.57-.4,66.62,66.62,0,0,1,9-1.44l.1-.17,2.5,1.08c-1.89,1.3-4.17,1.1-6.27,1.48C86.05,711.18,81.39,711.65,76.75,712.26Z" transform="translate(-51.64 -671.15)"/><path class="cls-160" d="M82.88,710.32c-1.93.22-3.76,1.09-5.76.86a1.14,1.14,0,0,1,.34-1.09c3.86-1.28,7.93-1.45,11.88-2.22.93-.18,1.86-.15,2.48-1,.9.22,2,0,2.5,1.11-2.8,1.46-6,1.18-8.93,1.94C84.56,710.09,83.71,710.11,82.88,710.32Z" transform="translate(-51.64 -671.15)"/><path class="cls-161" d="M94,706.11l.35.39C94,706.56,93.86,706.41,94,706.11Z" transform="translate(-51.64 -671.15)"/><path class="cls-86" d="M86.39,703.68a1.92,1.92,0,0,1-.44-.25l.36-.39C86.34,703.26,86.36,703.47,86.39,703.68Z" transform="translate(-51.64 -671.15)"/><path class="cls-30" d="M86,704.14l.33-.35.41.31-.33.33A.86.86,0,0,1,86,704.14Z" transform="translate(-51.64 -671.15)"/><path class="cls-162" d="M69.85,692.25a6.78,6.78,0,0,1-4-3.83.61.61,0,0,1,.16-.55,5.29,5.29,0,0,1,1-.64,1.28,1.28,0,0,1,.61-.09.44.44,0,0,1,.28.47l2.5,2.41C71.61,691.13,71.45,691.87,69.85,692.25Z" transform="translate(-51.64 -671.15)"/><path class="cls-163" d="M67.94,687.61l-.33-.27a2.52,2.52,0,0,1,2.51-2.65c0,.87-.72,1.28-1.09,1.91Z" transform="translate(-51.64 -671.15)"/><path class="cls-164" d="M60.24,697.88a.92.92,0,0,1,0,1.44h-.72a1,1,0,0,0-.38-1.06A1,1,0,0,1,60.24,697.88Z" transform="translate(-51.64 -671.15)"/><path class="cls-165" d="M66.89,685.13c.08-.37.16-.73.25-1.1,1.81-.13,1.41-2.5,2.94-2.92a3.23,3.23,0,0,1,1.69,1c-.39.44-.85.85-.73,1.53-.12.1-.23.21-.34.32-1,.41-1.61,1.33-2.54,1.83a1.53,1.53,0,0,1-.7.16A.75.75,0,0,1,66.89,685.13Z" transform="translate(-51.64 -671.15)"/><path class="cls-166" d="M67.92,685.54A6.39,6.39,0,0,1,70.7,684c-.2.24-.39.49-.58.73l-2.51,2.65-.06-.15C66.58,686.4,67.92,686.12,67.92,685.54Z" transform="translate(-51.64 -671.15)"/><path class="cls-110" d="M59.37,691.42l-1.73-.3c.48-1.08,1.64-1.23,2.48-1.83,1,.19.75.91.63,1.56a1.31,1.31,0,0,1-.4.53A1.33,1.33,0,0,1,59.37,691.42Z" transform="translate(-51.64 -671.15)"/><path class="cls-166" d="M65.39,684.52a1.5,1.5,0,0,0,.34.16l-.69.93,1,.21a1.67,1.67,0,0,1-.09,1.24,1.7,1.7,0,0,1-.38.51,1.15,1.15,0,0,1-.59.19,6.69,6.69,0,0,0-1.22-.89,1,1,0,0,1-.26-.55l-.29-.43A4.09,4.09,0,0,0,65.39,684.52Z" transform="translate(-51.64 -671.15)"/><path class="cls-154" d="M60.45,691c-.2-.56.24-1.24-.33-1.73.22-.83,1.2-.35,1.57-.92a.49.49,0,0,1,.63-.09,1,1,0,0,1,.24,1,5.67,5.67,0,0,1-.86,1.51A1,1,0,0,1,60.45,691Z" transform="translate(-51.64 -671.15)"/><path class="cls-167" d="M62.18,688.45l-.49-.08c.61-.69,1.23-1.37,1.84-2a.65.65,0,0,1,.37.28A1.71,1.71,0,0,1,62.18,688.45Z" transform="translate(-51.64 -671.15)"/><path class="cls-168" d="M65.76,686.87c-.16-.43.09-.74.31-1l.82-.69.61.6C67.37,686.78,66.69,687,65.76,686.87Z" transform="translate(-51.64 -671.15)"/><path class="cls-79" d="M60.45,691l1.07-.37c.3-.3.59-.62.9-.9a5.75,5.75,0,0,1,1.43-.85c.43-.14.87-.34,1.22.16l-.28.44c.95,1.4,2.9,2,3.19,3.9l-3.83,2.54c-3-1.34-4.13-2.89-3.72-4.88Z" transform="translate(-51.64 -671.15)"/><path class="cls-169" d="M60.43,691.06c0,2.55,2.46,3.28,3.73,4.88a5.45,5.45,0,0,1-4.79-4.52Z" transform="translate(-51.64 -671.15)"/><path class="cls-16" d="M68,693.4c-.9-1.43-2.85-2-3.19-3.9C66.25,690.48,68.48,690.82,68,693.4Z" transform="translate(-51.64 -671.15)"/><path class="cls-170" d="M65.07,689.06l-1.08.38c-.61-.45-.25-.89,0-1.33a1.47,1.47,0,0,1,1-.46l.36-.29c.38-.13.78-.24,1,.19.14.25-.06.4-.29.5a.89.89,0,0,0-.29.37Z" transform="translate(-51.64 -671.15)"/><path class="cls-83" d="M82.88,710.32a2.42,2.42,0,0,1,2.51-.41A2.38,2.38,0,0,1,82.88,710.32Z" transform="translate(-51.64 -671.15)"/><path class="cls-27" d="M66.14,688.05c.17-.66-.41-.55-.73-.69l.35-.49,1.74-1.14a2.26,2.26,0,0,1,.42-.19c-.13.55-.25,1.1-.37,1.65C67.17,687.62,66.84,688.15,66.14,688.05Z" transform="translate(-51.64 -671.15)"/><path class="cls-106" d="M65.05,687.65l-.7.75c-.8.07-.93,1.08-1.69,1.22a.48.48,0,0,1-.47-.42v-.75l1.72-1.85A1.44,1.44,0,0,1,65.05,687.65Z" transform="translate(-51.64 -671.15)"/><path class="cls-7" d="M62.19,689.2c.13.1.26.2.38.31s0,.48,0,.72a1.06,1.06,0,0,1-1.07.42C61.33,690,61.82,689.62,62.19,689.2Z" transform="translate(-51.64 -671.15)"/><path class="cls-171" d="M62.59,690.23c0-.24,0-.48,0-.72.55-.44.89-1.22,1.78-1.11a1.08,1.08,0,0,0-.36,1C63.52,689.7,63.05,690,62.59,690.23Z" transform="translate(-51.64 -671.15)"/></svg>
