<svg id="skrald" xmlns="http://www.w3.org/2000/svg" viewBox="0 0 148.61 88.44"><defs><style>.cls-1{fill:#ebf5fa;}.cls-2{fill:#fafbfc;}.cls-3{fill:#ecf6fb;}.cls-4{fill:#f4fafc;}.cls-5{fill:#f2f6f8;}.cls-6{fill:#a1c0db;}.cls-7{fill:#c0d6e9;}.cls-8{fill:#e2eff9;}.cls-9{fill:#c0e4f9;}.cls-10{fill:#f3f9fd;}.cls-11{fill:#006aa3;}.cls-12{fill:#235b83;}.cls-13{fill:#134365;}.cls-14{fill:#245276;}.cls-15{fill:#1d4d71;}.cls-16{fill:#b3cde4;}.cls-17{fill:#d0e3f1;}.cls-18{fill:#7a8bae;}.cls-19{fill:#1b4a6d;}.cls-20{fill:#176292;}.cls-21{fill:#04669d;}.cls-22{fill:#e0e3eb;}.cls-23{fill:#6697c0;}.cls-24{fill:#8288aa;}.cls-25{fill:#a3d1ec;}.cls-26{fill:#2c6fa0;}.cls-27{fill:#f6fafd;}.cls-28{fill:#83abc4;}.cls-29{fill:#e9f4fa;}.cls-30{fill:#858dad;}.cls-31{fill:#007ab9;}.cls-32{fill:#9a9fbc;}.cls-33{fill:#d3d9e6;}.cls-34{fill:#727599;}.cls-35{fill:#ced5e3;}.cls-36{fill:#777ea2;}.cls-37{fill:#90b6d1;}.cls-38{fill:#026096;}.cls-39{fill:#bdd3e4;}.cls-40{fill:#a7c4d8;}.cls-41{fill:#010e24;}.cls-42{fill:#7ea8c2;}.cls-43{fill:#a8c4d9;}.cls-44{fill:#757b9f;}.cls-45{fill:#76a4bf;}.cls-46{fill:#ebf4f9;}.cls-47{fill:#5b6188;}.cls-48{fill:#195883;}.cls-49{fill:#c6d4e9;}.cls-50{fill:#0065a0;}.cls-51{fill:#a9c6df;}.cls-52{fill:#dae9f4;}.cls-53{fill:#ccdeed;}.cls-54{fill:#076ca4;}.cls-55{fill:#dae8f3;}.cls-56{fill:#0070ac;}.cls-57{fill:#fbfcfd;}.cls-58{fill:#0975b0;}.cls-59{fill:#006a9f;}.cls-60{fill:#3d76a2;}.cls-61{fill:#004e7d;}.cls-62{fill:#005282;}.cls-63{fill:#b1c5dd;}.cls-64{fill:#d6e5f5;}.cls-65{fill:#ebf2fa;}.cls-66{fill:#f9fbfd;}.cls-67{fill:#bad3ed;}.cls-68{fill:#adc9e2;}.cls-69{fill:#c2d8f0;}.cls-70{fill:#cfe0f3;}.cls-71{fill:#fdfefd;}.cls-72{fill:#b9d2ed;}.cls-73{fill:#fdfdfe;}.cls-74{fill:#f5f8fb;}.cls-75{fill:#e6f2fa;}.cls-76{fill:#f8fbfe;}.cls-77{fill:#b7d0e5;}.cls-78{fill:#b6cfe5;}.cls-79{fill:#c1d7e9;}.cls-80{fill:#a1c1dc;}.cls-81{fill:#5e648c;}.cls-82{fill:#565b83;}.cls-83{fill:#b9d1e6;}.cls-84{fill:#b2cce2;}.cls-85{fill:#70799e;}.cls-86{fill:#60678f;}.cls-87{fill:#afcbe2;}.cls-88{fill:#cfe0ef;}.cls-89{fill:#c7dbec;}.cls-90{fill:#d5e5f2;}.cls-91{fill:#f1f5f9;}.cls-92{fill:#fbfcfc;}.cls-93{fill:#a6c4dd;}.cls-94{fill:#8a9fbf;}.cls-95{fill:#646a90;}.cls-96{fill:#6f7599;}.cls-97{fill:#dcebf6;}.cls-98{fill:#e1eef7;}.cls-99{fill:#0a6393;}.cls-100{fill:#0081c5;}.cls-101{fill:#568cbf;}.cls-102{fill:#4a779e;}.cls-103{fill:#315f8a;}.cls-104{fill:#0a2945;}.cls-105{fill:#014e7b;}.cls-106{fill:#a2ccea;}.cls-107{fill:#c2e5f9;}.cls-108{fill:#0072b1;}.cls-109{fill:#1270a7;}.cls-110{fill:#90bcde;}.cls-111{fill:#3571a0;}.cls-112{fill:#0072ae;}.cls-113{fill:#b9ddf3;}.cls-114{fill:#307aa9;}.cls-115{fill:#41749c;}.cls-116{fill:#51789b;}.cls-117{fill:#a0c0db;}.cls-118{fill:#b1cde4;}.cls-119{fill:#bfd6ea;}.cls-120{fill:#265a80;}.cls-121{fill:#fcfcfb;}.cls-122{fill:#fdfdfc;}.cls-123{fill:#2d5d84;}.cls-124{fill:#76a8cf;}.cls-125{fill:#006faa;}.cls-126{fill:#0f3553;}.cls-127{fill:#0076b4;}.cls-128{fill:#e0edf6;}.cls-129{fill:#dbe7f6;}.cls-130{fill:#afcae2;}.cls-131{fill:#cde0ef;}.cls-132{fill:#a0c1dc;}.cls-133{fill:#c5d3e1;}.cls-134{fill:#cddef2;}.cls-135{fill:#b0cae2;}.cls-136{fill:#535680;}.cls-137{fill:#4f537d;}.cls-138{fill:#c7daeb;}.cls-139{fill:#cee0ef;}.cls-140{fill:#fdfdfd;}.cls-141{fill:#88aeca;}.cls-142{fill:#c4e5fa;}.cls-143{fill:#006ca7;}.cls-144{fill:#78a0c1;}.cls-145{fill:#014d7b;}.cls-146{fill:#bed5e7;}.cls-147{fill:#053e62;}.cls-148{fill:#b4cfed;}.cls-149{fill:#cad9ee;}.cls-150{fill:#e5f1f8;}.cls-151{fill:#e2ebf7;}.cls-152{fill:#edf3fa;}.cls-153{fill:#e6f2f9;}.cls-154{fill:#fcfdfd;}.cls-155{fill:#e4eef5;}.cls-156{fill:#e7f3f9;}.cls-157{fill:#d3dee9;}.cls-158{fill:#f6f9fc;}.cls-159{fill:#5f648b;}.cls-160{fill:#50557f;}.cls-161{fill:#5a6188;}.cls-162{fill:#8085a6;}.cls-163{fill:#f8fbfd;}.cls-164{fill:#dbe6f2;}.cls-165{fill:#72799e;}.cls-166{fill:#bfd5e8;}.cls-167{fill:#dae6f1;}.cls-168{fill:#9bbdd9;}.cls-169{fill:#646b92;}.cls-170{fill:#565a83;}.cls-171{fill:#c4d2e0;}.cls-172{fill:#d4e3f0;}.cls-173{fill:#e8f2f9;}.cls-174{fill:#eef3f8;}.cls-175{fill:#8f97b4;}.cls-176{fill:#d6e6f2;}.cls-177{fill:#eff4fa;}.cls-178{fill:#d9e8f3;}.cls-179{fill:#aecbe2;}.cls-180{fill:#acd1e9;}.cls-181{fill:#8fbfe8;}.cls-182{fill:#a5d0ee;}.cls-183{fill:#1c5177;}.cls-184{fill:#006fae;}.cls-185{fill:#1f81ba;}.cls-186{fill:#1970a3;}.cls-187{fill:#c6e6f8;}.cls-188{fill:#006ba7;}.cls-189{fill:#006ba6;}.cls-190{fill:#5592c4;}.cls-191{fill:#91bde3;}.cls-192{fill:#026293;}.cls-193{fill:#005b8d;}.cls-194{fill:#376d93;}.cls-195{fill:#005f92;}.cls-196{fill:#8fbddf;}.cls-197{fill:#0072b2;}.cls-198{fill:#31658b;}.cls-199{fill:#006297;}.cls-200{fill:#b6def7;}.cls-201{fill:#c0cee1;}.cls-202{fill:#c3e5f9;}.cls-203{fill:#0f618f;}.cls-204{fill:#024c76;}.cls-205{fill:#f2f6fb;}.cls-206{fill:#216b99;}.cls-207{fill:#015686;}.cls-208{fill:#006caa;}.cls-209{fill:#105b87;}.cls-210{fill:#a4c8e2;}.cls-211{fill:#94bad7;}.cls-212{fill:#5b81a1;}.cls-213{fill:#0f5078;}.cls-214{fill:#b8ddf4;}.cls-215{fill:#d5e6f2;}.cls-216{fill:#7097bb;}.cls-217{fill:#abcfe7;}.cls-218{fill:#006da9;}.cls-219{fill:#165881;}.cls-220{fill:#2f729d;}.cls-221{fill:#005b8b;}.cls-222{fill:#005a8c;}.cls-223{fill:#205175;}.cls-224{fill:#00669c;}</style></defs><title>skrald_storflaske</title><path class="cls-1" d="M884,670.36l11.91-6.16a3,3,0,0,1,1.59-.08,6.61,6.61,0,0,1,2.26,1.18c3.33,2.63,3.16,5.1,1.21,7.63a46,46,0,0,0-6.47,10.47c-.92,2.26-.63,3.49,2.54,4.6,2.81,1,6.05,2,6.76,5.25a2.19,2.19,0,0,1-.55,1.76c-2.48,1.41-4.89.17-7.32-1.21-1.65-.94-3.37-2-4.55-.1-1.61,1.82-.31,4,.2,6.06.09,1.12-.6,1.75-1.6,2.2l-.65.08-4.17-6.51a6.81,6.81,0,0,0-.39-.82,5.53,5.53,0,0,1-.33-.85s-.16-.43-.17-.43a6.31,6.31,0,0,1-.28-.87c-.08-.3-.13-.59-.18-.89a12.09,12.09,0,0,0-.42-1.38,7.43,7.43,0,0,1-.41-1.48,9.46,9.46,0,0,1-.08-1,13.49,13.49,0,0,0-.87-4.27c-.27-1.15-.61-2.28-.92-3.43a11.86,11.86,0,0,1-.34-4.79C881.74,673.59,883.09,672.1,884,670.36Z" transform="translate(-855.82 -661.06)"/><path class="cls-2" d="M943.53,698.13c-.48-2.16-1.95-3.19-3.67-1.72A23.86,23.86,0,0,1,929.19,702c-1.9.42-2.15,2.4-2.86,3.86.42,1.23-.47,2-.83,3-1,.86-1.34,2.15-2.13,3.16-1.1,1.29-1.62,3-3.67,3.59-1.41,1.13-2.3,3.27-5.28,1.34-1.54.81-2.91.37-4.14-1-2.45.26-5-1.6-7.42-.77-2.28.08-4.09-1-5.81-2.4-2.57-.74-3.22-3-4.85-4.45a1.11,1.11,0,0,1,.08-1.19,3.55,3.55,0,0,1,2.75-.15c1.85,1.24,3.37,2.93,5.68,3.55a7.65,7.65,0,0,0,3.74.35c2.81-.05,5.43,1.48,8.17,1.89,1,.13,2,.24,2.66-.48a15.23,15.23,0,0,1,1.18-1.09,10.9,10.9,0,0,1,2-1.22c2.17-.85,2.29-2.94,3.2-4.57a11.41,11.41,0,0,1,1.63-2.63c2.36-6.44,10.84-6.05,16-9.45,1.2-.8,3.12-.33,4.75.47a4.33,4.33,0,0,1,2.61,3.62,2.11,2.11,0,0,1-.45,1.24A1.65,1.65,0,0,1,943.53,698.13Z" transform="translate(-855.82 -661.06)"/><path class="cls-3" d="M972.55,747.44c-1-1.71-4.43-2.58-3.24-5.08-1.77-4.65-2.21-9.33-3.33-14a2.69,2.69,0,0,1,2.12-1.25c2.65,1.23,1.43,3.73,3.5,5.54,1.76-1,.62-3.7,2.57-4.55a4.1,4.1,0,0,1,4.42,1.36c1.38,1.64,3.38,2,5.24,2.79s3.61,1.45,4.74,3a1.58,1.58,0,0,1-.53,1.78c-2.73.59-5-1.16-7.46-2.11-2.14-.84-3.92-1.38-4.1,1.17a26.85,26.85,0,0,0-.5,3.47c-.84,3.5,1.1,5.39,5.28,6a1.87,1.87,0,0,1,.42,2.28c-.61,2.66-3.29,1.25-5.23,1.29C975,748.85,973.92,747.86,972.55,747.44Z" transform="translate(-855.82 -661.06)"/><path class="cls-4" d="M945.72,698.22c.11-.26.23-.51.34-.76,1.32-1.17,3.15-.73,4.48.19a7.92,7.92,0,0,0,6.86,1.12c1.47,1.09,1.38,3,3.09,3.93,1.43,1.76,1.06,3.52,1,5.29a2.73,2.73,0,0,1-.76,1.6,1.38,1.38,0,0,1-1.89,0,6.74,6.74,0,0,0-7.22-2.38c-4,1-5.93-.75-7-4C946,701.81,945.23,699.83,945.72,698.22Z" transform="translate(-855.82 -661.06)"/><path class="cls-5" d="M958.89,709.56l1.43-.4c1.37.42,1.62,1.51,2.21,2.41,1.62,3.49,3.25,7,3.17,10.59-.65,2,1.42,4.1.86,6.09a32.9,32.9,0,0,1,2.75,14.11c-.53-.41-1.46-.82-1.53-1.22-1.25-7-6.35-13.65-6.86-20.69C960.65,716.8,957.26,713.16,958.89,709.56Z" transform="translate(-855.82 -661.06)"/><path class="cls-6" d="M964.7,681.31l.63,1.16a2.81,2.81,0,0,1,.52,1.11c-.07,2.12,1,4.2,1.47,6.3a4.26,4.26,0,0,1-.55,2.26,2.78,2.78,0,0,1-1.36,1.21,3.17,3.17,0,0,1-2.56-1.12,11.84,11.84,0,0,1-2.7-4.46c-.23-.77-.37-1.55-.68-2.31-1.5-3-5.28-5.21-5.59-8.66,1.18-.95,2.53.09,3.81.34q.67.09,1.35.15c1.46-.07,2.64.9,4,1.3C963.88,679.39,963.32,680.69,964.7,681.31Z" transform="translate(-855.82 -661.06)"/><path class="cls-7" d="M998.48,728.21l-1.3,2.94c.3.83-.29.87-1,.78a1.67,1.67,0,0,1-.79-.92c-.13-.36-.22-.72-.32-1.07a6.86,6.86,0,0,0-1.75-2.39,9.46,9.46,0,0,1-.82-1,27.75,27.75,0,0,0-3-3.45,12,12,0,0,1-.88-1c-4.38-5.79-10.07-10.86-14.24-16.77a3.11,3.11,0,0,1-.59-1.87,1.24,1.24,0,0,1,.94-.76,4.29,4.29,0,0,1,2.77,1c7.5,7.63,13.38,16.26,21.44,23.56A.65.65,0,0,1,998.48,728.21Z" transform="translate(-855.82 -661.06)"/><path class="cls-8" d="M993.21,734.9a4.34,4.34,0,0,1-3.6,3c-.72-.72-.58-1.55-.81-2.33-5.27-4.52-9.53-9.69-13.87-14.8-.45-1.11-.59-2.14.49-2.83,3.48,1.13,5.16,3.92,7.45,6.14,1.4,1.36,2.36,3,4.13,4.13,2.64,1.15,3.65,4.23,6.87,4.69a3.25,3.25,0,0,1,1.13.83C995.08,734.8,994.06,734.76,993.21,734.9Z" transform="translate(-855.82 -661.06)"/><path class="cls-9" d="M858.49,689.1a21.5,21.5,0,0,1-2-8.18c1.41-.71,2.81-1.47,4.65,0,1.59,2.75,2.54,5.49,1.51,8.21C861.49,690.3,860,689.85,858.49,689.1Z" transform="translate(-855.82 -661.06)"/><path class="cls-10" d="M975.56,736.07c-.84-3.65.78-4.31,4.59-2.5,2.49,1.19,5,2.27,7.56,3.4,1,1.66-.11,2.75-.73,4a4,4,0,0,1-1.66,1.35l-.61,1.43a1.33,1.33,0,0,1-1.25-.56,4.35,4.35,0,0,1-.07-2.42C982.09,737.06,980.19,735.93,975.56,736.07Z" transform="translate(-855.82 -661.06)"/><path class="cls-11" d="M881.51,675.88c.25,1.5,1.22,3,.64,4.51a.81.81,0,0,1-.83.4,5.7,5.7,0,0,1-1.65-.49,6.43,6.43,0,0,1-1-.54,5.19,5.19,0,0,1-.85-.7,7.2,7.2,0,0,1-.89-1.26,13,13,0,0,1-.64-1.3,3.24,3.24,0,0,1-.25-.88c0-.14.07-.28.11-.42.93-.6,1.62-1.53,3.13-1.32C881,673.73,881.17,674.88,881.51,675.88Z" transform="translate(-855.82 -661.06)"/><path class="cls-12" d="M867,695.61c-2,1.2-3.57.44-5-1.38,0-1.42,1-2.54,1-4,.1-.16.21-.3.32-.45a1.7,1.7,0,0,1,1.15-.32c1.52.49,3.08.81,4.6,1.35a2.44,2.44,0,0,1,.88,2.26,2.24,2.24,0,0,1-.63.95C868.5,694.54,867.23,694.57,867,695.61Z" transform="translate(-855.82 -661.06)"/><path class="cls-13" d="M857.45,675.94c1.26-2.34,4-1.3,6.3-1.15a2.75,2.75,0,0,1,1.82,3.42,2.94,2.94,0,0,1-.64,1.07,2.46,2.46,0,0,1-1.89.58,5.71,5.71,0,0,1-3-1.82C859.23,677.28,858,676.94,857.45,675.94Z" transform="translate(-855.82 -661.06)"/><path class="cls-14" d="M878.85,695.52l-4.78-.4c-.81-1.54-2.06-3.09-.73-4.56,1.09-.52,2.6.15,3.68-.42a2.32,2.32,0,0,1,1.28.23,3.52,3.52,0,0,1,1.22,2.1,3.45,3.45,0,0,1-.09,2.16C879.25,694.93,879.06,695.23,878.85,695.52Z" transform="translate(-855.82 -661.06)"/><path class="cls-15" d="M873.66,690.79c-.53,1.39,1.28,3,.41,4.33l-1.88-.59c-1.5.35-2.64.13-2.85-1.58L869,691a.69.69,0,0,1,0-.86,3.07,3.07,0,0,1,1.39-.52,9.1,9.1,0,0,1,1.05-.08l1.57-.23a1.66,1.66,0,0,1,1.06.38C874.43,690.27,874.36,690.67,873.66,690.79Z" transform="translate(-855.82 -661.06)"/><path class="cls-16" d="M1003,712.87c1.53,2-.43,3.5-.08,5.34l-.38.42c-2.16.47-2.16-1-2.53-2.11-.07-1.9-2.73-3.49-2-5.51a3.22,3.22,0,0,1,2.49-.44,2,2,0,0,1,1.1.76,4.13,4.13,0,0,1,.85.55C1002.61,712.22,1002.78,712.55,1003,712.87Z" transform="translate(-855.82 -661.06)"/><path class="cls-17" d="M1001.6,711.33l-1.1-.37a13,13,0,0,1-5.74-8,2.85,2.85,0,0,1,1.46-.1,10.14,10.14,0,0,1,3.55,1.78,2.48,2.48,0,0,1,.73,2C1000.54,708.17,1002.36,709.72,1001.6,711.33Z" transform="translate(-855.82 -661.06)"/><path class="cls-18" d="M998.48,728.21l.36-.78a3.17,3.17,0,0,1-.37-2.3c.9-2.56,1.39-5.36,4.47-6.65l-.05-.27c.41,3.45-1,6.36-2.09,9.36C1000.47,728.49,999.61,728.67,998.48,728.21Z" transform="translate(-855.82 -661.06)"/><path class="cls-19" d="M878.88,694.76l-.23-2.19a7.62,7.62,0,0,1,2.23-1.46,2.31,2.31,0,0,1,1.17,0,5.06,5.06,0,0,1,1.47,1l.8.79a8.84,8.84,0,0,0,.87.73l-.15,0a1.7,1.7,0,0,1,0,1,1.27,1.27,0,0,1-.76.67c-1.35,1-3-.35-4.52-.18A1.16,1.16,0,0,1,878.88,694.76Z" transform="translate(-855.82 -661.06)"/><path class="cls-20" d="M867,674.91c1.13.2,2.18-.6,3.36.33.1.49.32.82.94.56a4,4,0,0,1,.87.32,1.84,1.84,0,0,1,1.85.71,1.45,1.45,0,0,1,.06,1.17,3.44,3.44,0,0,1-2.33,1.83,3.73,3.73,0,0,1-2.61-.82,20.9,20.9,0,0,1-1.93-2.53C866.88,675.94,866.66,675.41,867,674.91Z" transform="translate(-855.82 -661.06)"/><path class="cls-21" d="M874.13,677.05l-1.94-.93c1.59-1.29-.62-4,1.6-5.14,2.36,1.07.32,3.2,2.36,4.22l.07.26a2,2,0,0,1,.06.9,1.53,1.53,0,0,1-.6.66,2.79,2.79,0,0,1-1,.19Z" transform="translate(-855.82 -661.06)"/><path class="cls-22" d="M1000.5,706.57l-.86-1.17a1.13,1.13,0,0,1,.67-1.77c2.93.29,3.28,2.22,4.12,4.07C1002.66,708.45,1002,705.59,1000.5,706.57Z" transform="translate(-855.82 -661.06)"/><path class="cls-23" d="M863.54,690.4c1.13,2,.49,3.19-1.55,3.83-1.34-.24-2.68-.48-2.81-2C859.9,690.54,861.19,689.72,863.54,690.4Z" transform="translate(-855.82 -661.06)"/><path class="cls-24" d="M951,673.51l7.72,3.24c.18.29.18.52,0,.68s-.28.22-.36.18l-.07-.06c-2.44-.5-4.83-1.63-7.32-1.53-2-.54-3.92-1.19-5.24-2.84-.35-1.29.51-1.26,1.57-.94C948.57,672.61,949.66,673.47,951,673.51Z" transform="translate(-855.82 -661.06)"/><path class="cls-25" d="M863.54,690.4l-4.36,1.79-.69-3.09,3.63-.29a1.83,1.83,0,0,1,1.86.9A1.35,1.35,0,0,1,863.54,690.4Z" transform="translate(-855.82 -661.06)"/><path class="cls-26" d="M857.45,675.94c.91.71,2.44-.08,3.08,1.29a1.83,1.83,0,0,1-.35,1.71c-1.15.61-2.3,1.26-3.79-.08C856,677.61,854.87,676,857.45,675.94Z" transform="translate(-855.82 -661.06)"/><path class="cls-27" d="M945.72,698.22c.88,2,1.74,4-1.08,4.95q-.55-2.52-1.12-5A2.3,2.3,0,0,0,945.72,698.22Z" transform="translate(-855.82 -661.06)"/><path class="cls-28" d="M892.64,707.11c-.15.38-.29.76-.44,1.15-1.86-1.88-3.6-3.79-2.88-6.22h0c1.49-.41,2.13.57,2.78,1.54A5.35,5.35,0,0,1,892.64,707.11Z" transform="translate(-855.82 -661.06)"/><path class="cls-29" d="M986,740.81c.55-1.28,1.11-2.56,1.67-3.84l.67-1.51a.66.66,0,0,1,1,.43,1.69,1.69,0,0,1,.27,2c-.1.23-.21.45-.32.68C988.66,739.75,988.3,741.23,986,740.81Z" transform="translate(-855.82 -661.06)"/><path class="cls-25" d="M856.39,678.86l3.4-.16a1.7,1.7,0,0,1,1.52,2l-.52.37-4.27-.11C856.47,680.24,856.43,679.55,856.39,678.86Z" transform="translate(-855.82 -661.06)"/><path class="cls-30" d="M881.51,675.88l-2.23-2c2.8,0,2.54-2.91,4.71-3.52C884.74,672.91,881.75,673.78,881.51,675.88Z" transform="translate(-855.82 -661.06)"/><path class="cls-31" d="M867,674.91l.7,1.11c.24,1.47-.77,2.17-2,2.75a1.2,1.2,0,0,1-1.18-.59,3.45,3.45,0,0,0-.8-3.39C864.71,674,865.81,674.07,867,674.91Z" transform="translate(-855.82 -661.06)"/><path class="cls-32" d="M993.21,734.9l1.42-1.15a1.55,1.55,0,0,1,1.23-2.14l1.32-.46C997.56,733.77,996.45,735.19,993.21,734.9Z" transform="translate(-855.82 -661.06)"/><path class="cls-33" d="M983.72,743.39a8.68,8.68,0,0,0,1,.33c1.51,2.21-1.3,2.45-1.73,3.78-2.1-.81-.77-1.93-.92-2.92A2.2,2.2,0,0,1,983.72,743.39Z" transform="translate(-855.82 -661.06)"/><path class="cls-34" d="M951,673.51c-1.79.67-3.49-1.54-5.28-.89a1.2,1.2,0,0,1-1.13.1c-.6-.4-.91-.83-.49-1.35l1.42-.37Z" transform="translate(-855.82 -661.06)"/><path class="cls-35" d="M986,740.81l3.25-2.26c.14,2.42-1.32,3.56-4,3.74Z" transform="translate(-855.82 -661.06)"/><path class="cls-36" d="M958.39,677.61l.33-.86c1.92-.57,3.25.28,4.28,1.84C961.4,679,960,677.72,958.39,677.61Z" transform="translate(-855.82 -661.06)"/><path class="cls-37" d="M919.7,715.56l3-4c1,.18,1.3.52.63,1.15C922.56,714.08,922.39,716,919.7,715.56Z" transform="translate(-855.82 -661.06)"/><path class="cls-38" d="M869.34,693a4.1,4.1,0,0,0,2.85,1.58c-.7,1.3-1.71,2-3.63,1-.74-.69-.44-1.16.14-1.57Z" transform="translate(-855.82 -661.06)"/><path class="cls-39" d="M923.36,712.75l-.63-1.15c.43-1.14.6-2.45,2.2-2.83.64.68-.17,1.27.23,1.93C924.89,711.62,924.61,712.53,923.36,712.75Z" transform="translate(-855.82 -661.06)"/><path class="cls-40" d="M972.55,747.44c1.87-.71,2.77.77,3.9,1.73C974.59,749.86,973.46,748.91,972.55,747.44Z" transform="translate(-855.82 -661.06)"/><path class="cls-41" d="M868.7,693.92c-.05.52-.1,1.05-.14,1.57l-1.61.12C865,693.07,867.11,693.69,868.7,693.92Z" transform="translate(-855.82 -661.06)"/><path class="cls-42" d="M897.05,712.71l5.81,2.4C900.32,715.85,898.5,714.76,897.05,712.71Z" transform="translate(-855.82 -661.06)"/><path class="cls-43" d="M925.16,710.7c-.08-.64-.15-1.29-.23-1.93l1.4-3C927.53,707.94,925.67,709.11,925.16,710.7Z" transform="translate(-855.82 -661.06)"/><path class="cls-44" d="M1000.31,703.63l-.67,1.77-3.7-2.15c.3-1.33,1.6-.16,2.35-.37l1.21.23A4.3,4.3,0,0,0,1000.31,703.63Z" transform="translate(-855.82 -661.06)"/><path class="cls-45" d="M910.28,715.88l4.14,1C912.67,719.21,911.47,717.54,910.28,715.88Z" transform="translate(-855.82 -661.06)"/><path class="cls-46" d="M983,744.83c-.26.85-.92,1.64,0,2.67l-1.29.38a1.63,1.63,0,0,1-.27-1.94C981.16,744.79,981.45,744.19,983,744.83Z" transform="translate(-855.82 -661.06)"/><path class="cls-47" d="M1003,712.87c-.17-.33-.34-.66-.52-1C1003.06,712.1,1003.2,712.44,1003,712.87Z" transform="translate(-855.82 -661.06)"/><path class="cls-48" d="M871.32,675.8c-.69.36-.91,0-.94-.56Z" transform="translate(-855.82 -661.06)"/><path class="cls-49" d="M878.88,694.76l.49.13.41.28-.93.35A.74.74,0,0,1,878.88,694.76Z" transform="translate(-855.82 -661.06)"/><path class="cls-50" d="M884.3,695.35l.33-.93a.61.61,0,0,1,.8.37.85.85,0,0,1-.28.74A6.44,6.44,0,0,0,884.3,695.35Z" transform="translate(-855.82 -661.06)"/><path class="cls-51" d="M902.42,695.21l.75-1.53a14.26,14.26,0,0,1,.35-3.93c.19-.59.41-1.18.55-1.79-6.13-6.24-1.8-9.93,1.9-13.79a6.25,6.25,0,0,0,1.95-2.61,18.38,18.38,0,0,1,13.55-1.95,6.55,6.55,0,0,1,1.45.55c1.19.83,1.74,1.78,1.25,2.92a4.91,4.91,0,0,1-1.41,1.31c-5.74,4-10.9,8.49-13.66,14.71-.53,1.13-1,2.29-1.56,3.42a21.43,21.43,0,0,1-1.14,2.24,3.72,3.72,0,0,1-1.37,1.36,2.11,2.11,0,0,1-1.45,0l-.69-.38Z" transform="translate(-855.82 -661.06)"/><path class="cls-52" d="M904.84,689.91c-.55,1.26-1.11,2.51-1.67,3.77-1.24-3.56-5.08-4.27-8.08-5.26-3.61-1.18-3.14-2.46-2.36-4.51a32.93,32.93,0,0,1,6.69-11.21c2.44-2.58,2.19-4.64-.64-7.29,5.8.05,11.66,1.55,17.47,2a14,14,0,0,1,4.85,1,3.79,3.79,0,0,1,1,.89.73.73,0,0,1,0,.72c-.13.19-.23.28-.29.25-4.74-.45-9,.47-13.29,1.4a6.26,6.26,0,0,1-2.34.7c-3,.8-3.85,3.51-6.09,5a8,8,0,0,0-2.09,3.3,12.78,12.78,0,0,0-1.32,3.62c1.37,3,5.1,2.82,7.34,4.63A4.26,4.26,0,0,1,904.84,689.91Z" transform="translate(-855.82 -661.06)"/><path class="cls-2" d="M890.73,693.57c-.29-2.09-.48-3.62,3.16-2,2.79,1.27,5.15,3.79,8.53,3.62h.22a2.64,2.64,0,0,1-.59,3.06c-3.45,2.53-7.06-.39-10.62-1.32C889.86,695.84,889.91,694.71,890.73,693.57Z" transform="translate(-855.82 -661.06)"/><path class="cls-53" d="M917,668.11c-6.07-.11-12.14-.5-18.2-2.7l-2-.91,1.72-1.07a3.12,3.12,0,0,1,1.86-.58,48.34,48.34,0,0,0,11.25,2.62C913.6,665.93,915.81,666,917,668.11Z" transform="translate(-855.82 -661.06)"/><path class="cls-54" d="M882.15,680.39c.54,1,1.48,2,.68,3.06.23,1.25-.33,2-1.7,2.22a3.69,3.69,0,0,1-3-1.87A2.24,2.24,0,0,1,878,682a2.41,2.41,0,0,1,.71-.88,3.94,3.94,0,0,1,1.17-.4,7.24,7.24,0,0,0,1.88-.28Z" transform="translate(-855.82 -661.06)"/><path class="cls-55" d="M890.73,693.57l.89,3.11c1.6,1.27,2.2,2.57.88,3.9a1.24,1.24,0,0,1-1.27-.43C889.71,697.84,887.66,695.47,890.73,693.57Z" transform="translate(-855.82 -661.06)"/><path class="cls-56" d="M880.52,685.55l2.31-2.1a4.79,4.79,0,0,1,1,5.19c-.85,0-1.6-.62-2.46-.62a3.2,3.2,0,0,1-1.12-.64C879.68,686.61,879.63,686,880.52,685.55Z" transform="translate(-855.82 -661.06)"/><path class="cls-57" d="M891.23,700.15l1,.46a2.09,2.09,0,0,1,1,1.4,1.9,1.9,0,0,1-.84,1.83l-.57.14-2.54-1.93Z" transform="translate(-855.82 -661.06)"/><path class="cls-58" d="M881.82,687.85c1-.67,1.38.4,2,.79l-.34.75-.35.34a2.56,2.56,0,0,1-1.08.16,2.07,2.07,0,0,1-1-.56,1.48,1.48,0,0,1,0-1A1.2,1.2,0,0,1,881.82,687.85Z" transform="translate(-855.82 -661.06)"/><path class="cls-59" d="M883.48,689.39c.84.26,1.06.64.55,1.18h-.45a.89.89,0,0,1-.54-.66c0-.3.17-.47.5-.52Z" transform="translate(-855.82 -661.06)"/><path class="cls-60" d="M885.19,693.63l-1.25-.46c0-.15-.06-.3-.08-.45l.47-.11A.89.89,0,0,1,885.19,693.63Z" transform="translate(-855.82 -661.06)"/><path class="cls-61" d="M885.43,694.79a7.28,7.28,0,0,1-.8-.37l.41-.76C885.64,694,885.8,694.36,885.43,694.79Z" transform="translate(-855.82 -661.06)"/><path class="cls-62" d="M884,690.57c.9.16.81.63.66,1.12l-.62.13-.5-.46a.64.64,0,0,1,.58-.79Z" transform="translate(-855.82 -661.06)"/><path class="cls-63" d="M883.83,691.31l.42.22.44.16-.36.92.06-.08a1,1,0,0,1-1.14-.41A.65.65,0,0,1,883.83,691.31Z" transform="translate(-855.82 -661.06)"/><path class="cls-3" d="M943.88,694.67c-1-.28-2.48-1-2.81-.75-4.4,3.7-13,2.29-15.51,8.28-.17.42-.91.6-1.39.9-.85-1.32-.23-2.41,0-3.55a5.84,5.84,0,0,0-.12-3.38,17,17,0,0,1-.68-4.07c.05-1.34-.56-2.75-.27-4.08a2.39,2.39,0,0,1,1-1.34c2.56-.67,5.09-1.34,2.35-4.58-.94-1.44-2.12-2.76-3.21-4.13a2.85,2.85,0,0,1-.46-2.36,3.24,3.24,0,0,1,.58-1,2.39,2.39,0,0,1,1.11-.56,3.49,3.49,0,0,1,2.14,1.7,3,3,0,0,0,3.21,1.76c.37-.09.75-.16,1.13-.23s.75-.13,1.13-.18a3.93,3.93,0,0,0,2-.88c.95-.68,1.75-1.6,3.38-1.18,3.43,3-.29,4-1.06,5.77a13.16,13.16,0,0,0-2.58,3.32c2.47,1.56,3.41-1.24,5.49-.65a11.16,11.16,0,0,0,4,4.32c.58,1-.29,1.72-.37,2.6.52,2.12,2.59.89,3.71,1.69C948.19,694.92,945.59,694.42,943.88,694.67Z" transform="translate(-855.82 -661.06)"/><path class="cls-64" d="M925.83,699.29c-.55,1.27-1.1,2.54-1.66,3.81l-1.4,3a3.51,3.51,0,0,1-1.44,0c-4.48-2.16-8.84-4.55-13.53-6.27-2.14-1.43-3.31-3.1-2.64-5.22l1-2.27A67.26,67.26,0,0,1,925.83,699.29Z" transform="translate(-855.82 -661.06)"/><path class="cls-65" d="M907.59,699.29c5.38.71,9.85,3.46,14.25,6.37.16,2.38-1.32,3.77-3.32,4.87a1.6,1.6,0,0,1-1.63,1.09c-2-2.32-4.72-3.61-7.53-4.85-1.85-.81-3.79-1.58-5-3.25Q903.53,699.85,907.59,699.29Z" transform="translate(-855.82 -661.06)"/><path class="cls-66" d="M904.62,703.41c3.4,1.52,6.78,3.09,10.21,4.53,2.12.9,3,2,2.06,3.68l-.75,1.57a11.61,11.61,0,0,1-5.42-.73c-2.59-.94-5.42-1.15-7.72-2.94a3.92,3.92,0,0,1-1-2.87C902.31,705.19,902.75,703.83,904.62,703.41Z" transform="translate(-855.82 -661.06)"/><path class="cls-27" d="M943.88,694.67c.55-1,3.63-.24,2.31-2.59.7-1.89,1.61-3.15,3.84-.4.32,1.82,1.82,2.72,3.61,3.57s4,1.35,4.59,3.43l-.36.44c-3.06,1.46-3.07,1.48-7.5-.65a10.11,10.11,0,0,0-4.31-1C945.28,696.55,945.41,695.21,943.88,694.67Z" transform="translate(-855.82 -661.06)"/><path class="cls-67" d="M902.87,707.15l.33,1.94c.14.88,2.49,1.23,1.24,2.46a3.25,3.25,0,0,1-3.57.14c-.75-1.19-3.3-1.48-2.66-3.36,1.58-2.18,1.85-5.16,4.63-6.63,1.55.32,1.3,1.11,1,1.95C903.55,704.81,902.49,705.73,902.87,707.15Z" transform="translate(-855.82 -661.06)"/><path class="cls-68" d="M898.71,708.91l2.16,2.78c-2.47-1-5.11-1.8-6-4.47a1.64,1.64,0,0,1-.81-1.56,2,2,0,0,1,2.1-.94,3,3,0,0,1,1.17.73A9.19,9.19,0,0,1,898.71,708.91Z" transform="translate(-855.82 -661.06)"/><path class="cls-69" d="M904.44,711.55l-1.24-2.46c2.48,1.49,5.23,2.07,7.95,2.75.29.71,1.46.81,1.62,1.61C909.89,713.72,907.29,711.55,904.44,711.55Z" transform="translate(-855.82 -661.06)"/><path class="cls-70" d="M918.52,710.53l3.32-4.87.93.43C921.41,707.61,922.45,710.93,918.52,710.53Z" transform="translate(-855.82 -661.06)"/><path class="cls-71" d="M894.33,706c.19.4.37.81.55,1.21a2.39,2.39,0,0,1-2.24-.11c-1-1-1.42-2-.82-3.13l-.06,0C893.49,703.81,894.07,704.75,894.33,706Z" transform="translate(-855.82 -661.06)"/><path class="cls-72" d="M912.77,713.45c-.73-.4-1.45-.82-1.62-1.61l5,1.34C915.42,714.62,914.1,714.06,912.77,713.45Z" transform="translate(-855.82 -661.06)"/><path class="cls-73" d="M983,744.83a1.66,1.66,0,0,0-1.58,1.11c-6,.31-7.4-1.07-6.26-6.42-.08-1.65.2-3.33,2.47-3.13a8.32,8.32,0,0,1,7.11,4.69l-1,2.31C983.48,743.87,983.24,744.35,983,744.83Z" transform="translate(-855.82 -661.06)"/><path class="cls-29" d="M975.67,718l-.06,2.69c.54,3.42,4.14,5.5,6,8.32.85,1.25,3.19,2.5,1,3.92-3.61-.14-4.8-4.14-8.21-4.59-1.9-1.55-5.55-2.1-4.65-5.28,2.66-1.27,1.63-4.67,4-6.11A2.19,2.19,0,0,1,975.67,718Z" transform="translate(-855.82 -661.06)"/><path class="cls-74" d="M969.77,723.51c.55,2.28,4.56,2.24,4.7,4.81-.35,1.61-.61,3.25-1.07,4.82-.21.73-.37,1.77-1.64,1.63s-1.58-1.22-1.88-2c-.71-1.82-1.24-3.66-1.84-5.49-1.19-1.73-2.09-3.42-.23-4.8A2.18,2.18,0,0,1,969.77,723.51Z" transform="translate(-855.82 -661.06)"/><path class="cls-75" d="M982.68,732.91c-.52-3-3.39-5-5.38-7.32-1.46-1.7-2.65-3.09-1.69-4.92a129.9,129.9,0,0,1,13.73,15.22l-1-.43Z" transform="translate(-855.82 -661.06)"/><path class="cls-76" d="M984.73,741.08c-1.39-.93-2.75-1.9-4.19-2.76-2.74-1.66-4.71-1.54-5.39,1.2-1-1.42.07-2.35.41-3.45.63-2,2.36-2.15,4.14-.79C981.8,736.89,986,737.49,984.73,741.08Z" transform="translate(-855.82 -661.06)"/><path class="cls-77" d="M967.9,722.67c.05,1.53.1,3.07.14,4.6-.29.53-.56,1.09-1.48,1-1.45-2-2.69-4-1.81-6.13.68-.41.8-1.42,2-1.26C967.75,721.25,968.63,721.68,967.9,722.67Z" transform="translate(-855.82 -661.06)"/><path class="cls-78" d="M960.82,687.71l2.66,3.95a21.56,21.56,0,0,1,.74,17c-.42,1.21-.4,2.87-2.62,2.8l-1.28-2.32c.19-.49.37-1,.56-1.45.34-3.45.59-6.9-.44-10.5-.28-1.27-.68-2.54-.85-3.81C960.11,691.53,958.42,689,960.82,687.71Z" transform="translate(-855.82 -661.06)"/><path class="cls-79" d="M961.21,697c2.45,4,.84,7.34-.33,10.74-.36-1.7-.72-3.39-1.09-5.09a4.61,4.61,0,0,1-.69-3.31C959.34,698.2,959.74,697.2,961.21,697Z" transform="translate(-855.82 -661.06)"/><path class="cls-27" d="M959.83,699.94c.78,1,.27,1.84,0,2.68-3.51-.35-1.66-2.22-1.92-3.5h0C958.72,698.91,959.18,699.67,959.83,699.94Z" transform="translate(-855.82 -661.06)"/><path class="cls-80" d="M961.6,711.48a22.53,22.53,0,0,0,2-16.47,15.66,15.66,0,0,1-.12-3.35c.52.53,1,1.06,1.55,1.6a7.14,7.14,0,0,1,1.26,2c.57,1.23,2.07,2.11,2.27,3.46-.44,2.15,1.66.62,2.22,1.31a4,4,0,0,1,1.32.66c1.46,1.36,1.43,2.87,1.43,4.38-1.27,5.12-2.54,10.24-5.7,14.58a2.44,2.44,0,0,1-1.47,1.35,1.71,1.71,0,0,1-1.61,1.09C964.67,718.5,962.78,715,961.6,711.48Z" transform="translate(-855.82 -661.06)"/><path class="cls-81" d="M983.83,697.14c1.06-.93,2.58.43,3.74,0,.33-.27.58-.18.76.22,2.14,1.31,4.82,1.79,6.54,3.74a4.05,4.05,0,0,1-2.8.41c-2-.35-3.9-1.31-5.9-1.77C984.83,699.2,983.85,698.46,983.83,697.14Z" transform="translate(-855.82 -661.06)"/><path class="cls-82" d="M992.48,700.87l2.39.22,3.42,1.79-2.35.37-1-.09a1.76,1.76,0,0,1-1.2-.31A2.7,2.7,0,0,1,992.48,700.87Z" transform="translate(-855.82 -661.06)"/><path class="cls-2" d="M960.82,687.71c-.78,1.91,1.21,4.4-.54,6.1-3.11.8-5.57-1.09-8.14-2.53-.42-1.13.26-1.84.85-2.59a9.52,9.52,0,0,1,.7-.87,4.08,4.08,0,0,1,1.33-1.05c1.61-.34,2.81-1.31,4.4-1.68a1.14,1.14,0,0,1,1,.67Z" transform="translate(-855.82 -661.06)"/><path class="cls-83" d="M960.43,685.76l-1-.37c-4.85-.08-7.66-2.19-9.21-6.91a3.42,3.42,0,0,1,2.81-2.45.87.87,0,0,1,1.06.75C955.72,680,959.6,682.24,960.43,685.76Z" transform="translate(-855.82 -661.06)"/><path class="cls-84" d="M965.3,695.2a1.7,1.7,0,0,1-.27-1.94c.31-.57.61-1.14.92-1.7,1.29,0,2.12.82,3,1.54.35.28.69.58,1,.87,1.67,1.4,4,2.24,4.79,4.37a9,9,0,0,0,2,2.91,6.15,6.15,0,0,1,.73,1c.3.74.57,1.47-.24,2l-2.88-1.28c-1.82-.26-1.66-1.88-2.68-2.68C969.33,698.79,966.94,697.36,965.3,695.2Z" transform="translate(-855.82 -661.06)"/><path class="cls-85" d="M968.43,693.68,966,691.56c.26-.69.53-1.38.8-2.06l2.54,2c.2.45.67.77.9,1.21a1.17,1.17,0,0,1-.28.8C969.5,693.85,968.94,693.68,968.43,693.68Z" transform="translate(-855.82 -661.06)"/><path class="cls-86" d="M954.13,676.78l-1-.46a1.54,1.54,0,0,1-1.66-1.09c2.52-.12,4.5,1.64,6.8,2.32C956.86,678.35,955.53,677,954.13,676.78Z" transform="translate(-855.82 -661.06)"/><path class="cls-87" d="M977.28,704.19l-.27-1.94a2.12,2.12,0,0,1,1.89.46,217.63,217.63,0,0,1,20.51,23.19l-.57,1.53c-3.72-.68-5.17-3.56-7-5.83C987.2,715.68,981.31,710.44,977.28,704.19Z" transform="translate(-855.82 -661.06)"/><path class="cls-88" d="M996.5,730l-.36.75c-2,1.18-3.23,0-4.51-1.51-3.11-3.51-6.27-7-9.52-10.43-2.31-2.75-4.62-5.51-7.15-8.14-.55-1.15-.69-2.19.45-2.91,3.85,1.44,5.13,4.85,7.68,7.28,2.4,2.27,4.27,4.95,6.57,7.34h0a30.91,30.91,0,0,0,3.74,4.4h0C994.06,728.13,995.49,729,996.5,730Z" transform="translate(-855.82 -661.06)"/><path class="cls-89" d="M989.66,722.42C984.52,719,982,713.94,977.74,710c-.72-.67-1.46-1.32-2.19-2a1.51,1.51,0,0,1-1.32-.48c-.67-1.11-.89-2.1.52-2.62C979.73,710.71,985.78,716,989.66,722.42Z" transform="translate(-855.82 -661.06)"/><path class="cls-90" d="M982.39,718.26c4.12,3,7,6.89,10.09,10.52,1.12,1.31,2,2.08,3.66,2-.1.27-.19.55-.28.82l-1.23,2.14-.74-.37c-1.41-1.28-3.91-1.73-4.17-3.88a22,22,0,0,0-4.89-5.78,20.21,20.21,0,0,1-1.82-1.89,5.63,5.63,0,0,1-1.28-2.75A1,1,0,0,1,982.39,718.26Z" transform="translate(-855.82 -661.06)"/><path class="cls-89" d="M993.4,726.82a5.21,5.21,0,0,1-3.74-4.4C991.5,723.56,993.07,724.85,993.4,726.82Z" transform="translate(-855.82 -661.06)"/><path class="cls-91" d="M972.26,700.12l2.14,2.79c-.11.25-.21.51-.31.76a.63.63,0,0,1,0,.7c-.13.2-.23.28-.3.25a1.12,1.12,0,0,1-1.05-.62L971,700.43C971.11,699.74,971.38,699.33,972.26,700.12Z" transform="translate(-855.82 -661.06)"/><path class="cls-92" d="M973.74,704.43c.11-.25.23-.5.35-.76l.66,1.19-.09,2.67c.31,1.28-.21,1.74-1.73,1.21C972.2,707,972.13,705.5,973.74,704.43Z" transform="translate(-855.82 -661.06)"/><path class="cls-89" d="M996.5,730c-1.64-.67-3-1.53-3.1-3.22A6.14,6.14,0,0,1,996.5,730Z" transform="translate(-855.82 -661.06)"/><path class="cls-93" d="M906.29,661.5l3.56-.37a8.85,8.85,0,0,1,4.09,1.12c.35.78,1.93,1,1.62,2.07-2,1.84-4.6.64-7.09.06a5.57,5.57,0,0,1-2.59-1.82A.66.66,0,0,1,906.29,661.5Z" transform="translate(-855.82 -661.06)"/><path class="cls-94" d="M915.45,663.89c-.72-.41-1.46-.82-1.51-1.65l.39.13.38.18c2.13.15,3.87,1.37,5.73,2.26.54,1.16-.4,1.18-1.25,1.28A4.6,4.6,0,0,1,915.45,663.89Z" transform="translate(-855.82 -661.06)"/><path class="cls-95" d="M920.63,665.44l-5.92-2.89,1.44-.39c1.7,1.28,4.4,1.29,5.37,3.5A.63.63,0,0,1,920.63,665.44Z" transform="translate(-855.82 -661.06)"/><path class="cls-96" d="M940.08,672.41l1.85-1.25,2.17.21c.25.36.5.73.74,1.1C943.61,674.4,942,674.06,940.08,672.41Z" transform="translate(-855.82 -661.06)"/><path class="cls-97" d="M983.28,721.38c.77.37,1.42.82,1.56,1.61,2.27,2,3.72,4.58,6.25,6.43-.77,2,3,2.17,2.8,4-1.39.42-2.72.52-3.69-1.06a6.58,6.58,0,0,0-3.59-3.1c-3.67-4.67-7.17-9.46-12.76-12.82a2.37,2.37,0,0,1,1.25-3.15,2.55,2.55,0,0,1,1.43.18C979.54,715.66,981,718.75,983.28,721.38Z" transform="translate(-855.82 -661.06)"/><path class="cls-98" d="M974.11,716.37a26.33,26.33,0,0,1,12.5,12.85q-5.46-5.62-10.94-11.24l-1.89-.84A.55.55,0,0,1,974.11,716.37Z" transform="translate(-855.82 -661.06)"/><path class="cls-99" d="M864,689.71l-1.86-.9q-.66-3.9-1.33-7.78l.33.2a1.86,1.86,0,0,1,2.38-.3c1.44,1.07,1.31,2.54,2,3.82.19,1.51.65,3.07.18,4.51-.42.48-1.17.32-1.77.46Z" transform="translate(-855.82 -661.06)"/><path class="cls-100" d="M881.71,680.47a1.47,1.47,0,0,1-1.56,1.08,3,3,0,0,1-.83-1.3.63.63,0,0,1,.53-.64Z" transform="translate(-855.82 -661.06)"/><path class="cls-101" d="M877.41,677.59l.74,1.19-.53.17a3,3,0,0,1-1.18-.37l-.45-.42c-.07-.17-.13-.34-.2-.52a.9.9,0,0,1,.67-.7A1.17,1.17,0,0,1,877.41,677.59Z" transform="translate(-855.82 -661.06)"/><path class="cls-102" d="M878.15,678.78a6.16,6.16,0,0,0,.71.4c.18.22.21.4.11.54s-.2.21-.26.18a1.29,1.29,0,0,1-1-.32.65.65,0,0,1,.06-.83Z" transform="translate(-855.82 -661.06)"/><path class="cls-103" d="M877.41,677.59a9.18,9.18,0,0,1-.89-.28c-.36-.26-.44-.53-.24-.83h.56Z" transform="translate(-855.82 -661.06)"/><path class="cls-104" d="M875.82,676a.8.8,0,0,1,.4-.52c.21.33.41.67.62,1l-.19-.14C876.24,676.57,876,676.47,875.82,676Z" transform="translate(-855.82 -661.06)"/><path class="cls-105" d="M878.47,680l.39-.79,1,.43c-.05.29-.11.58-.16.87l-.46.12-.48-.22Z" transform="translate(-855.82 -661.06)"/><path class="cls-106" d="M863.89,689.72l1.28-.38c.9-.17.58-1.08,1.06-1.51a2,2,0,0,1,.89-.49,2.37,2.37,0,0,1,1.11.35,4.72,4.72,0,0,1,.72.84l.26.46a2.39,2.39,0,0,1,.28,1.41c-.16.2-.32.41-.47.62C867.07,692.15,865.49,690.85,863.89,689.72Z" transform="translate(-855.82 -661.06)"/><path class="cls-107" d="M864.78,684.94c-2.28-1-.41-2.6-1.5-3.77-.5-.62-1.47-1.27-.2-1.77l1.12-.37.59-.17.6.33a5.41,5.41,0,0,1,.85.95c.52.87,1,1.73,1.53,2.61a1.15,1.15,0,0,1-.2,1.47A4.17,4.17,0,0,1,864.78,684.94Z" transform="translate(-855.82 -661.06)"/><path class="cls-108" d="M863.08,679.4c.07.59.14,1.18.2,1.77l-2.16.06c-.45-.84-.89-1.68-1.33-2.53.24-.49.49-1,.74-1.47Z" transform="translate(-855.82 -661.06)"/><path class="cls-109" d="M865.06,679.41a2.09,2.09,0,0,0-.86-.38c.12-.28.24-.57.35-.85l.43.19.44.17a.61.61,0,0,1,0,.67C865.23,679.38,865.12,679.44,865.06,679.41Z" transform="translate(-855.82 -661.06)"/><path class="cls-110" d="M873.66,690.79l-.55-1.31c0-.18,0-.35-.05-.53a2.07,2.07,0,0,1,.72-.72,16.56,16.56,0,0,1,2.47-1.19,1.75,1.75,0,0,1,1.17.43,3.31,3.31,0,0,1,.75,2.16,1.09,1.09,0,0,1-.67.78C876.78,692.26,875.19,691.45,873.66,690.79Z" transform="translate(-855.82 -661.06)"/><path class="cls-111" d="M881.5,691.23c-.44,1.12-1.41,1.54-2.85,1.34l-.45-1.8a.84.84,0,0,1,.07-.88,2,2,0,0,1,1-.18,4.25,4.25,0,0,1,1.59.65A1.9,1.9,0,0,1,881.5,691.23Z" transform="translate(-855.82 -661.06)"/><path class="cls-112" d="M878.53,689.89l-.33.88a4.2,4.2,0,0,0-.7-.36l.08-.89A.92.92,0,0,1,878.53,689.89Z" transform="translate(-855.82 -661.06)"/><path class="cls-113" d="M867.59,683.92l-.71-1.11c-.1-1-.61-2-.38-2.93a2.76,2.76,0,0,1,2.49-1.55l2.85,1.39.29.51a3.44,3.44,0,0,1,0,1.06c0,.34-.09.68-.14,1a3.82,3.82,0,0,0,.69,2.54,4,4,0,0,1,.34,1,3.27,3.27,0,0,1,0,1,5.27,5.27,0,0,1-.27.88,7.38,7.38,0,0,1-.33.82,4,4,0,0,0-.18.85c0,.15,0,.29,0,.44a.93.93,0,0,1-.61.58l-1.06-.13a2.83,2.83,0,0,1-1.82-1.2l0,.08c-.22-.42-.46-.84-.66-1.26l0,.08a5.43,5.43,0,0,1-.8-1.84,5,5,0,0,1-.1-.94,2.73,2.73,0,0,1,.13-.9C867.46,684.2,867.53,684.06,867.59,683.92Z" transform="translate(-855.82 -661.06)"/><path class="cls-114" d="M868.74,689.11l1.82,1.2-1.07.09Z" transform="translate(-855.82 -661.06)"/><path class="cls-115" d="M871.62,690.44l.36-.77a.76.76,0,0,1,1,.5Z" transform="translate(-855.82 -661.06)"/><path class="cls-116" d="M873,690.17l-1-.5-.29,0c0-.19,0-.39,0-.58l.48-.34a1.47,1.47,0,0,1,1.16.58l-.27.19A1.16,1.16,0,0,1,873,690.17Z" transform="translate(-855.82 -661.06)"/><path class="cls-117" d="M999.41,725.9c-7.65-6.65-13.14-14.66-20.24-21.65-.7-.68-1.44-1.34-2.16-2h0c-.67-1.32-2.1-2.13-3.12-3.22,0-2.73-3.79-2.7-4.78-4.69,2.83-1,5,1.33,7.54,2.1,2.41.19,4.88,1.13,7.25.69h-.07c.79.71,1.3,1.69,2.53,2a10.06,10.06,0,0,1,1,1c4.76,5.51,9.74,10.9,14,16.69-.7,1.38.58,1.46,1.62,1.71C1001.76,721,1000.59,723.43,999.41,725.9Z" transform="translate(-855.82 -661.06)"/><path class="cls-118" d="M1001.31,716.77c-3.77-1.67-4.64-5.24-7.3-7.7-3-2.77-5.35-6.06-8-9.13,2.31-.45,3.73,1.4,5.53,2.27a6.55,6.55,0,0,1,2.07,2c.75,2.34,2.52,4.25,4.41,6.1l.21.57C998.47,713,1001.42,714.51,1001.31,716.77Z" transform="translate(-855.82 -661.06)"/><path class="cls-119" d="M993,704.85c-.13-.79-.78-1.24-1.56-1.6-.23-.78-2.25-1.42-1.17-2.06,1.29-.77,2.7.44,3.86,1.4a5.53,5.53,0,0,1,.83.57,40.47,40.47,0,0,1,5.58,7.8,2.39,2.39,0,0,1-2.24-.1h0A39.9,39.9,0,0,1,993,704.85Z" transform="translate(-855.82 -661.06)"/><path class="cls-120" d="M881.5,691.23l-1-.48c-.19-.46-.71-.83-.77-1.34a1,1,0,0,1,.7-.6.82.82,0,0,1,.87.48l.41.16.39.19.46.31a4.84,4.84,0,0,1,.5.88c0,.16,0,.31,0,.47-.1.32-.37.42-.77.31S881.76,691.36,881.5,691.23Z" transform="translate(-855.82 -661.06)"/><path class="cls-121" d="M882.31,691.61a1.91,1.91,0,0,0,.35-.68.81.81,0,0,1,1.13.4l0,0-.43.79c.22.25.26.42.11.51a.41.41,0,0,1-.36.08Z" transform="translate(-855.82 -661.06)"/><path class="cls-122" d="M883.15,692.69c.09-.2.17-.39.25-.59l1,.43a2.06,2.06,0,0,1-.45.64A1.19,1.19,0,0,1,883.15,692.69Z" transform="translate(-855.82 -661.06)"/><path class="cls-123" d="M869,678.33c-.17,1-1.24,1.35-2.08,1.83a1,1,0,0,1-1,0,4,4,0,0,1-.82-.76v0l.36-.87,2.3-2.52C869,676.56,869.42,677.32,869,678.33Z" transform="translate(-855.82 -661.06)"/><path class="cls-124" d="M871.84,679.72c.33-.88.47-1.92,2-1.88l.45.3a2.33,2.33,0,0,1,.46.86c0,.15,0,.3-.05.45a1.76,1.76,0,0,1-.64.63,2.53,2.53,0,0,1-1.51.25,1,1,0,0,1-.71-.7Z" transform="translate(-855.82 -661.06)"/><path class="cls-125" d="M873.8,677.84l.33-.79h.06a2.17,2.17,0,0,1,1.15.09,1.29,1.29,0,0,1,.77.8v-.06a1.23,1.23,0,0,1,.15,1,1.56,1.56,0,0,1-.82.59,1.09,1.09,0,0,1-1-.48h0a5.57,5.57,0,0,0-.64-1.2Z" transform="translate(-855.82 -661.06)"/><path class="cls-126" d="M876.11,678l-.94-.45c-.19-.23-.23-.42-.13-.57s.2-.23.27-.2l.51-.75c.27.13.55.24.83.35,0,.32-.09.65-.13,1A2.06,2.06,0,0,0,876.11,678Z" transform="translate(-855.82 -661.06)"/><path class="cls-127" d="M875.31,676.73a1.46,1.46,0,0,1-.15.77l-1-.44Z" transform="translate(-855.82 -661.06)"/><path class="cls-128" d="M940.08,672.41c1.69.55,3.38,1.13,4.76.06a2.71,2.71,0,0,0,.88.15l5.8,2.61,1.66,1.09L951,678.78a2.4,2.4,0,0,1-1.35,0,53.23,53.23,0,0,0-7-1.61c-2-.4-3.59-1.15-4.23-3Z" transform="translate(-855.82 -661.06)"/><path class="cls-129" d="M925.83,699.29c-2,0-3.88-.14-5.71-1.58-4.1-3.24-9.92-1.83-14-5.41.56-1.26,1.12-2.51,1.69-3.76a1.74,1.74,0,0,1,1.36.32c3.3,2.75,7.56,3.27,11.34,4.91,1.57.68,3.39.84,4.39,2.4Z" transform="translate(-855.82 -661.06)"/><path class="cls-7" d="M908.79,688.93l-.93-.39a33.38,33.38,0,0,1,14.83-15.19,1,1,0,0,1,1,.2,1.14,1.14,0,0,1,.1.91,1.38,1.38,0,0,0-.08.9,2.47,2.47,0,0,0,.35,2.29c.61,1.93-.77,2.41-2.45,2.68a3.42,3.42,0,0,1-1.64-.89c-1.5-.5-1.17.8-1.69,1.25a7.07,7.07,0,0,1-1,1.33c-1,.92-1.56,2.11-2.49,3.07-.56.54-1.21,1-1.81,1.53C911.68,687.5,911.14,689.28,908.79,688.93Z" transform="translate(-855.82 -661.06)"/><path class="cls-130" d="M906.33,671.51a2.42,2.42,0,0,1,2.23.08c1,3.52-3,4.19-4.28,6.44-1.6,2.8-5.09,4.85.92,8,.88.46.67,1.6.37,2.39-10-3.29-10.54-4.36-5.52-10.85A22.74,22.74,0,0,1,906.33,671.51Z" transform="translate(-855.82 -661.06)"/><path class="cls-131" d="M906.33,671.51c-1.63,3.46-4.93,5.85-7,9.11-1.58,2.54-2.52,3.88,2,5.06a7.91,7.91,0,0,1,4.17,2.75l-.73,1.48-.87-.41c-2.62-2.38-6.56-2.6-9.16-5q1-2.26,2-4.53c1.67-.61,1-2.73,2.64-3.36C902,675.1,901.9,671.16,906.33,671.51Z" transform="translate(-855.82 -661.06)"/><path class="cls-132" d="M898.71,708.91c-1.85-.84-1.57-2.24-1.85-3.5A4.05,4.05,0,0,1,898,703.8a53,53,0,0,1,5.53-8.16l.91.42c.68,2.26,1.43,4.55-1.36,5.73C901.61,704.16,901.48,707.26,898.71,708.91Z" transform="translate(-855.82 -661.06)"/><path class="cls-133" d="M923,669.91c4.17.85,7,4.06,10.75,5.69a7.05,7.05,0,0,1-.32,1.51c-.14.6-.82.36-1.27.47l-.13.15c-2.63-.33-4.5-2-6.54-3.4-.42-.27-.84-.54-1.27-.8l-.22-.61c-.45-.75-.89-1.5-1.33-2.25q-.3-.43-.06-.63C922.8,669.91,922.92,669.87,923,669.91Z" transform="translate(-855.82 -661.06)"/><path class="cls-134" d="M903.06,701.79q.69-2.87,1.36-5.73l.74-1.49c-.82,2,3.17,2.75,2.43,4.72-1,1.37-2.62,2.35-3,4.12-.58,1.24-1.17,2.49-1.75,3.74C901.46,705.11,904.48,703.83,903.06,701.79Z" transform="translate(-855.82 -661.06)"/><path class="cls-135" d="M903.51,695.64c-2,3-1.87,7.16-5.32,9.42-1.23-3.25.47-5.21,2.95-6.83l1.5-3Z" transform="translate(-855.82 -661.06)"/><path class="cls-136" d="M923,669.91l-.33.76a4.35,4.35,0,0,1-.84-.48,1.83,1.83,0,0,1,.24-.69l.48.15Z" transform="translate(-855.82 -661.06)"/><path class="cls-137" d="M923.6,673.74a8,8,0,0,1-.91-.39c.21-.53.7-.59,1.33-.43l-.25.23c.25.23.31.4.18.49S923.69,673.78,923.6,673.74Z" transform="translate(-855.82 -661.06)"/><path class="cls-138" d="M920.63,665.44a2,2,0,0,1,.89.22l.3,3.75-4.84-1.3c-1.89-1.17-4-1.2-6.05-1.8a.83.83,0,0,1,0-.75c.11-.22.19-.32.25-.3,2.59-.62,5.43.47,8.1.34Z" transform="translate(-855.82 -661.06)"/><path class="cls-139" d="M894.81,684.49c3,1.76,6.85,2.12,9.16,5C900.82,688,897.06,687.48,894.81,684.49Z" transform="translate(-855.82 -661.06)"/><path class="cls-139" d="M899.48,676.6c-.8,1.17-.58,3-2.64,3.36C897.63,678.78,897.43,677,899.48,676.6Z" transform="translate(-855.82 -661.06)"/><path class="cls-140" d="M901.14,698.23c-1,2.28-2,4.55-2.95,6.83l-1.33.35-1-.43c-2.16-.37-2.36-2-3.15-3.29-.19-.36-.38-.72-.56-1.08.71-1.28-.49-2.62-.57-3.93,1.13-.94,2.17-.46,3.39.5C897,698.69,899.08,698.44,901.14,698.23Z" transform="translate(-855.82 -661.06)"/><path class="cls-79" d="M911.27,665.56c-.11.25-.22.5-.34.75-3.79-.39-7.58-.79-11-3l1.6-1.28a9.43,9.43,0,0,1,2.23.19,35.18,35.18,0,0,0,5,1.8C909.63,664.47,910.79,664.56,911.27,665.56Z" transform="translate(-855.82 -661.06)"/><path class="cls-141" d="M880.52,685.55c-.22.56-.47,1.11.19,1.73l.39.46-.21.46a2.64,2.64,0,0,1-1.16.14,5.42,5.42,0,0,1-1.19-.42,3.78,3.78,0,0,1-.95-.77,4,4,0,0,1-.84-1.47,2.59,2.59,0,0,1,0-1,2.55,2.55,0,0,1,.44-.87c.12-.11.26-.21.39-.32l.54-.14Z" transform="translate(-855.82 -661.06)"/><path class="cls-142" d="M878.7,681.87l-.58,1.48h.06a.83.83,0,0,1-1-.28,1.42,1.42,0,0,1-.17-.95,1.31,1.31,0,0,1,.69-.64A1,1,0,0,1,878.7,681.87Z" transform="translate(-855.82 -661.06)"/><path class="cls-143" d="M879.69,680.48c.15.35.31.71.46,1.07l-1-.4-.14-.56.53-.23Z" transform="translate(-855.82 -661.06)"/><path class="cls-144" d="M878.7,681.87l-.84-.44c0-.18,0-.37-.05-.56l.4-.38.66.11.29.54h0Z" transform="translate(-855.82 -661.06)"/><path class="cls-145" d="M880.76,688.22c0-.31,0-.63,0-.94l1.11.57a5.93,5.93,0,0,1-.31.68A.46.46,0,0,1,880.76,688.22Z" transform="translate(-855.82 -661.06)"/><path class="cls-146" d="M892.75,701.69c1.75.64,2.1,2.19,3.15,3.29l-1.57,1-2.57-2Z" transform="translate(-855.82 -661.06)"/><path class="cls-147" d="M880.76,688.22l.38.14.37.17a3.73,3.73,0,0,1-.23.76l-.81-.4-.37-.5c.12-.13.24-.26.35-.4Z" transform="translate(-855.82 -661.06)"/><path class="cls-148" d="M883.54,689.38a2.33,2.33,0,0,0-.32.72l-.56.21c-.1-.18-.19-.36-.28-.55l-.3-.12Z" transform="translate(-855.82 -661.06)"/><path class="cls-149" d="M883.79,691.33l-1.13-.4-.09,0a.69.69,0,0,1,.51-.74l.14-.11.93.47Z" transform="translate(-855.82 -661.06)"/><path class="cls-150" d="M938.42,674.11c2.53,2.41,5.82,2.14,8.79,3,1,.29,2.39-.23,2.83,1.3.5,1-.12,1.5-.93,1.91a12,12,0,0,1-3.35.87,32.41,32.41,0,0,1,6.34,5,1.32,1.32,0,0,1,0,1.19,3.82,3.82,0,0,1-2.42,1l-.74,0a7.69,7.69,0,0,1-1.49-.29,12.89,12.89,0,0,1-3.39-1.72c-1.34-1.07-3-1.77-4.31-2.86-1.18-.77-1.74.29-2.59.3-3.25,0-3.52-1.21-2-3-.66-2.26,4.82-2.48,1.54-5.63Z" transform="translate(-855.82 -661.06)"/><path class="cls-151" d="M908.79,688.93c1.71-.54,1.66-2.62,3.58-3,2.21,1.21,4.36,2.52,6.93,2.89a6.52,6.52,0,0,1,5.1,3.45c.19,1.29.37,2.58.55,3.87-4.73-1.6-9.44-3.27-14.19-4.78C909.15,690.88,908.34,690.31,908.79,688.93Z" transform="translate(-855.82 -661.06)"/><path class="cls-152" d="M914,684.87c.78-1.17.68-2.94,2.66-3.33a7.63,7.63,0,0,0,5.84,1.6,2.39,2.39,0,0,1,1.66,1.12c.4.89,1.39,1.82.38,2.66l-.67,1.5c-3.15.64-6.05.31-8.49-2.51-.31-.36-1.24.51-1.71-.44a.35.35,0,0,1,0-.33C913.73,685,913.88,685,914,684.87Z" transform="translate(-855.82 -661.06)"/><path class="cls-153" d="M914,684.87c3,2.09,6.46,2.74,9.87,3.55.06,1.29,1.27,2.63.54,3.88a19.62,19.62,0,0,0-7.27-3c-1.63-.27-4.55-.74-4.76-3.38A1.72,1.72,0,0,1,914,684.87Z" transform="translate(-855.82 -661.06)"/><path class="cls-154" d="M949.72,691.83c-1.74-1.87-2.48-.25-3.53.25-2.53,1.4-4.58,1.73-4.75-2.13a15.85,15.85,0,0,1,7.73-2h0a1.82,1.82,0,0,1,2.24,1.45,2.51,2.51,0,0,1-.5,1.81A1.92,1.92,0,0,1,949.72,691.83Z" transform="translate(-855.82 -661.06)"/><path class="cls-155" d="M923.31,684.55l-.62-1.18c-2.22-.8-2.84-2-1.79-3.57a4,4,0,0,0,3.16-2.15c1.18,1.22,2.74,2.29,2.85,4C927.25,684,926.51,685.36,923.31,684.55Z" transform="translate(-855.82 -661.06)"/><path class="cls-153" d="M923.31,684.55a4.37,4.37,0,0,0,3.6-2.93c1.77,1,3.11,2.45,2.34,3.93s-2.35,2.34-4.72,1.37C924.13,686.13,923.72,685.34,923.31,684.55Z" transform="translate(-855.82 -661.06)"/><path class="cls-156" d="M935.25,680.82c-.62,5.62,3.71.2,4.75,2.13l.19.55-.53.21c-1.95,1.21-3.52,3.21-7.22,1.13C933.17,683.58,932.85,681.51,935.25,680.82Z" transform="translate(-855.82 -661.06)"/><path class="cls-157" d="M924.54,673.41a20.52,20.52,0,0,1,7.51,4.31l-1.27.21a4.6,4.6,0,0,1-4.61-2l-1.56-1.61C924.26,674,924.23,673.67,924.54,673.41Z" transform="translate(-855.82 -661.06)"/><path class="cls-156" d="M943.4,688.11c-2.65-.7-5.26-1.41-3.74-4.4h0a7.82,7.82,0,0,1,5,3.9C944.65,688.37,944.37,688.76,943.4,688.11Z" transform="translate(-855.82 -661.06)"/><path class="cls-158" d="M943.4,688.11l1.29-.33.42-.36c1-.48,2.12.4,3.11.12l.95.43c-2,1.67-5.08,1.46-7.73,2Z" transform="translate(-855.82 -661.06)"/><path class="cls-159" d="M926.17,675.88l4.61,2C928.25,679.5,926.68,678.88,926.17,675.88Z" transform="translate(-855.82 -661.06)"/><path class="cls-160" d="M924.54,673.41a1.7,1.7,0,0,0,.07.86,1.85,1.85,0,0,1-.62.52l-.48-.25a1.1,1.1,0,0,1,.09-.8,4,4,0,0,0,.17-.59Z" transform="translate(-855.82 -661.06)"/><path class="cls-161" d="M932.18,677.58l1.27-.47a3.13,3.13,0,0,0,.66.65C933.5,678.18,932.84,677.9,932.18,677.58Z" transform="translate(-855.82 -661.06)"/><path class="cls-162" d="M923.51,674.54a3.62,3.62,0,0,1,.48.25.82.82,0,0,1-.28.57Z" transform="translate(-855.82 -661.06)"/><path class="cls-163" d="M949.72,691.83l.33-.74c.71-.17,1.35-.88,2.23.08l8,2.64a2.94,2.94,0,0,1,.93,3.16l-1.38,3c-1,.61-1.35-.45-2-.82-1.71-2.59-4.92-2.9-7.45-4.19C948.12,693.76,948,692.91,949.72,691.83Z" transform="translate(-855.82 -661.06)"/><path class="cls-164" d="M974.11,716.37l-.33.77c-.86,2.39.93,6.26-4,6.37l-1.87-.84a2.39,2.39,0,0,0-1.54-1.64c.19-.51.38-1,.58-1.51,3.33-.73,4.64-3.31,6.68-5.22a1.19,1.19,0,0,1,1.17.56Z" transform="translate(-855.82 -661.06)"/><path class="cls-165" d="M903.28,662.86l-1.79-.85a2.28,2.28,0,0,1,.29-.61c1.5,0,2.85-.84,4.51.1-.13.25-.25.5-.37.75C905.33,663.05,904.19,662.71,903.28,662.86Z" transform="translate(-855.82 -661.06)"/><path class="cls-166" d="M973.84,714.43a24.23,24.23,0,0,0-1.49,3.39c-.7,2.55-2.61,2.84-5.41,1.7-1.28-2.53,1.84-3,2.3-4.81.94-3.65,2.34-7.15,3.55-10.71l.48.21.47.22c-.2,1.39-.39,2.79-.59,4.18a6.1,6.1,0,0,1,1.74,2.75C974.9,712.52,975.22,713.8,973.84,714.43Z" transform="translate(-855.82 -661.06)"/><path class="cls-167" d="M972.26,700.12l-1.28.31-.14.19a3.18,3.18,0,0,1-2.64-1.44c-.69-1.45-3-2.2-2.9-4C967.64,696.82,970.39,698,972.26,700.12Z" transform="translate(-855.82 -661.06)"/><path class="cls-168" d="M968.2,699.18l2.64,1.44c-1.63,1.11-3.07-.23-3.76-1.22S967.77,699.22,968.2,699.18Z" transform="translate(-855.82 -661.06)"/><path class="cls-169" d="M983.9,697.13c-2,1.83-4.4.54-6.76-.27-.16-.26-.16-.45,0-.56s.26-.15.34-.12c1.77-.65,3.65.13,5.5.46Z" transform="translate(-855.82 -661.06)"/><path class="cls-16" d="M994.09,702.59c-1.09-.21-2-1.37-3.16-.91-.16.07.3,1,.47,1.57L986,699.94c.1-.28.21-.57.32-.85,2.28-.57,4,1.43,6.12,1.78C993.15,701.36,994,701.73,994.09,702.59Z" transform="translate(-855.82 -661.06)"/><path class="cls-170" d="M977.46,696.18a3.26,3.26,0,0,0-.32.68c-3,.5-5.34-1.75-8-2.52l-.68-.66,1.18-.25c1.94-.41,3.53.91,5.27,1.49l.66.26Z" transform="translate(-855.82 -661.06)"/><path class="cls-171" d="M969.79,692.76c-.17-.41-.34-.82-.5-1.23,2,1.27,4.87,1.37,6.25,3.65l.05.14A13.09,13.09,0,0,1,969.79,692.76Z" transform="translate(-855.82 -661.06)"/><path class="cls-172" d="M948.41,679.47a1.64,1.64,0,0,0,1.63-1.09l.93.4c1.48,3.55,4.61,5.45,8.5,6.61-1,1.15-1.83,2.52-4.2,1.68a8.63,8.63,0,0,1-2.09-1,29.86,29.86,0,0,1-4.6-3.81C947.66,681.29,946.85,680.24,948.41,679.47Z" transform="translate(-855.82 -661.06)"/><path class="cls-158" d="M950.73,689.58c-.13-.79-.78-1.24-1.56-1.61a3.32,3.32,0,0,1,2.57-.66c1.51-.82,2.41-.29,2.86,1.27l-.35.76C953,689,952.24,690.68,950.73,689.58Z" transform="translate(-855.82 -661.06)"/><path class="cls-173" d="M950.73,689.58c1.19,0,2.1-1,3.52-.24l-2,1.83-2.23-.08C950.28,690.59,950.5,690.08,950.73,689.58Z" transform="translate(-855.82 -661.06)"/><path class="cls-174" d="M954.6,688.58a3.36,3.36,0,0,0-2.86-1.27l.34-.76c.12-1.68,1.85-.21,2.6-.64l.59,1.16Z" transform="translate(-855.82 -661.06)"/><path class="cls-87" d="M973.89,699c1.65.67,3,1.52,3.12,3.22A6.26,6.26,0,0,1,973.89,699Z" transform="translate(-855.82 -661.06)"/><path class="cls-175" d="M969.79,692.76l5.8,2.56c-2.25.42-4-1.11-6-1.89C969.68,693.21,969.73,693,969.79,692.76Z" transform="translate(-855.82 -661.06)"/><path class="cls-176" d="M976.41,713.77l-.94-.42a2,2,0,0,1-.76-2.08.9.9,0,0,1,.83-.61c3.36,1.89,5.23,4.67,6.85,7.6l-.34.76C979.16,718.05,978.74,715.18,976.41,713.77Z" transform="translate(-855.82 -661.06)"/><path class="cls-177" d="M975.54,710.66l-.38.75a.67.67,0,0,1-1-.44,2.75,2.75,0,0,1-1-2.36,1.59,1.59,0,0,0,1.51-1.08l.89.43C975.55,708.86,975.54,709.76,975.54,710.66Z" transform="translate(-855.82 -661.06)"/><path class="cls-178" d="M976.41,713.77c2.92,1,3.55,3.66,5.64,5.25a3.31,3.31,0,0,1,1.23,2.36A22.26,22.26,0,0,1,976.41,713.77Z" transform="translate(-855.82 -661.06)"/><path class="cls-178" d="M991.09,729.42c-3.26-1.36-4.7-3.93-6.25-6.43C988,724.42,989.27,727.1,991.09,729.42Z" transform="translate(-855.82 -661.06)"/><path class="cls-83" d="M911.27,665.56l-2.85-1.28c-.25-.31-.28-.53-.1-.65a.51.51,0,0,1,.44-.11c2.27.41,4.62,1.51,6.69.37l3.81,1.71C917,667.58,913.86,665.2,911.27,665.56Z" transform="translate(-855.82 -661.06)"/><path class="cls-179" d="M908.76,663.52l-.34.76a10.24,10.24,0,0,1-5.14-1.42l2.64-.61Z" transform="translate(-855.82 -661.06)"/><path class="cls-163" d="M974.14,711l1,.44c.11.64.21,1.29.31,1.94-.23.5-.46,1-.68,1.51l-.95-.43Z" transform="translate(-855.82 -661.06)"/><path class="cls-180" d="M864.78,684.94a2.23,2.23,0,0,1,2.81-1l0,.3a1.3,1.3,0,0,1,0,.95,2,2,0,0,0-.17.94c.13.49.32,1-.18,1.34-.5.81-.68,1.89-2.14,1.9C865.22,687.89,863.53,686.3,864.78,684.94Z" transform="translate(-855.82 -661.06)"/><path class="cls-181" d="M877.77,678.75a1.63,1.63,0,0,1-.17.79l-.65,0-.51-.42,0-.56.58-.16Z" transform="translate(-855.82 -661.06)"/><path class="cls-48" d="M877.05,678.35l-.48.74a.7.7,0,0,1-.84-.41c.13-.26.25-.52.38-.79Z" transform="translate(-855.82 -661.06)"/><path class="cls-182" d="M877.6,679.54l.45.19.42.24.12,0c.15.24.17.44.06.59s-.21.23-.27.2l-.41-.15a1.08,1.08,0,0,1-.79-.55c-.07-.34.1-.5.48-.49Z" transform="translate(-855.82 -661.06)"/><path class="cls-183" d="M878.38,680.73a1.44,1.44,0,0,1,.21-.79l.46.21.47.21-.36.78Z" transform="translate(-855.82 -661.06)"/><path class="cls-184" d="M867.31,687.45l-.43-1.87a.76.76,0,0,1,1.15.47c.82.72.36,1.33.14,2Z" transform="translate(-855.82 -661.06)"/><path class="cls-185" d="M868.13,687.93l.66,1.26Z" transform="translate(-855.82 -661.06)"/><path class="cls-108" d="M866.1,679.82l.81.34c.22.92.86,1.9,0,2.65a2.94,2.94,0,0,1-1.23-2.18A.54.54,0,0,1,866.1,679.82Z" transform="translate(-855.82 -661.06)"/><path class="cls-186" d="M866.1,679.82l-.45.81c-.2-.42-.39-.84-.58-1.26Z" transform="translate(-855.82 -661.06)"/><path class="cls-187" d="M872.34,686.27l.35-.8.37-.44a3.3,3.3,0,0,1,2.54-.44l.64.34.37.56c.26.58.54,1.17,0,1.63-.58.86-.69,2.25-2.66,1.52l-.55-.13a2.23,2.23,0,0,1-.69-.82c0-.16-.07-.32-.11-.48A1.81,1.81,0,0,0,872.34,686.27Z" transform="translate(-855.82 -661.06)"/><path class="cls-188" d="M878.53,689.89l-.95-.37c-.73-.67-.38-1.28-.24-1.9l.52-.18.55.28.43.42a2.29,2.29,0,0,1,.47,1v.5l-.4.33Z" transform="translate(-855.82 -661.06)"/><path class="cls-189" d="M876.59,687.12l-.51-1.83a1,1,0,0,1,1.24.38l.65,1c.29.51.14.82-.44.94l-.19,0Z" transform="translate(-855.82 -661.06)"/><path class="cls-190" d="M873.38,689.29l-1.14-.39-.14-.56.44-.34a1.05,1.05,0,0,1,1,.58l.37.06Z" transform="translate(-855.82 -661.06)"/><path class="cls-191" d="M878.91,690a2,2,0,0,1,.3-.74.6.6,0,0,1,.86.43c.13.37.27.73.41,1.09Z" transform="translate(-855.82 -661.06)"/><path class="cls-192" d="M872.69,685.47c-2.58-1.21-2.38-2.69-1.37-4.25a2.31,2.31,0,0,1,1.41.14l.61.43.43.57c.65,1.43.41,2.51-1.11,3.08Z" transform="translate(-855.82 -661.06)"/><path class="cls-193" d="M872.25,681.61l-.93-.39.3-.75.74,0,.3.63Z" transform="translate(-855.82 -661.06)"/><path class="cls-194" d="M872.63,688.23l-.39.67v0a.66.66,0,0,1-.82-.5,1.11,1.11,0,0,1,.41-.66C872.27,687.67,872.54,687.8,872.63,688.23Z" transform="translate(-855.82 -661.06)"/><path class="cls-195" d="M867.33,684.88a1.33,1.33,0,0,1,.3-.66c.59.24.77.56.43,1C867.7,685.38,867.46,685.26,867.33,684.88Z" transform="translate(-855.82 -661.06)"/><path class="cls-196" d="M871.43,688.44a2.74,2.74,0,0,0,.82.5l-.55.69Z" transform="translate(-855.82 -661.06)"/><path class="cls-197" d="M872.34,686.27l.77,1.11a.62.62,0,0,1-1-.33A1.17,1.17,0,0,1,872.34,686.27Z" transform="translate(-855.82 -661.06)"/><path class="cls-197" d="M867.33,684.88l.73.32,0,.85-1.15-.47Z" transform="translate(-855.82 -661.06)"/><path class="cls-198" d="M872.45,680.84l-.83-.37.18-.84a9.76,9.76,0,0,1,.91.47.46.46,0,0,1,0,.56Q872.54,680.89,872.45,680.84Z" transform="translate(-855.82 -661.06)"/><path class="cls-199" d="M872.15,687.05a9.09,9.09,0,0,0,1,.33H873a.57.57,0,0,1-.41.79v.07c-.26-.16-.52-.31-.79-.45A.8.8,0,0,1,872.15,687.05Z" transform="translate(-855.82 -661.06)"/><path class="cls-16" d="M993,704.85c2.6,1.52,3.95,3.76,5.3,6C995.33,709.53,993.51,707.56,993,704.85Z" transform="translate(-855.82 -661.06)"/><path class="cls-200" d="M880.07,689.66a7.66,7.66,0,0,0-.86-.43l-.25,0-.06-.71.73-.21.58.58.26,0Z" transform="translate(-855.82 -661.06)"/><path class="cls-201" d="M883.08,690.21c-.17.24-.33.49-.5.74-.07-.4-.14-.79-.2-1.19C882.62,689.9,882.85,690.05,883.08,690.21Z" transform="translate(-855.82 -661.06)"/><path class="cls-202" d="M872.45,680.84a1.15,1.15,0,0,0,.26-.74l1.32-.34.51.35a2.87,2.87,0,0,1,.49,1,1.9,1.9,0,0,1-.16,1,1.55,1.55,0,0,1-.85.59,1.1,1.1,0,0,1-.92-.65l-.11,0a4.51,4.51,0,0,1-.34-1.2Z" transform="translate(-855.82 -661.06)"/><path class="cls-48" d="M873.8,677.8l.64,1.2Z" transform="translate(-855.82 -661.06)"/><path class="cls-203" d="M874.44,679l1,.44.08.41a.69.69,0,0,1-.68.41.75.75,0,0,1-.77-.47v0C874.17,679.51,874.3,679.25,874.44,679Z" transform="translate(-855.82 -661.06)"/><path class="cls-204" d="M875.73,678.68c.29.13.57.26.84.41h.23a.6.6,0,0,1-.42.76,1,1,0,0,1-1-.44v0C875.51,679.17,875.62,678.92,875.73,678.68Z" transform="translate(-855.82 -661.06)"/><path class="cls-205" d="M920.9,679.8a5.63,5.63,0,0,0,1.79,3.57c-2.63,2.15-4.42.52-6-1.83l.7-1.47c1.1-.31,1.2-1.88,2.9-1.43Z" transform="translate(-855.82 -661.06)"/><path class="cls-153" d="M920.25,678.64l-2.9,1.43c.76-1,.28-2.68,2.16-2.86A8.82,8.82,0,0,1,920.25,678.64Z" transform="translate(-855.82 -661.06)"/><path class="cls-206" d="M877.43,683l.39.12.36.21-.4.8a1,1,0,0,1-1-.47l.12-.52Z" transform="translate(-855.82 -661.06)"/><path class="cls-207" d="M876.87,683.76l.91.38a1.25,1.25,0,0,1-.4.7l-.73,0-.24-.62Z" transform="translate(-855.82 -661.06)"/><path class="cls-208" d="M876.54,684.47l.42.19.43.18c0,.28,0,.56-.08.83l-1.23-.38h0C875.92,684.86,876.09,684.59,876.54,684.47Z" transform="translate(-855.82 -661.06)"/><path class="cls-209" d="M877.53,687.57c.15-.31.3-.63.44-.94l.86.67c.14.28.13.48,0,.6s-.29.16-.37.12A7.42,7.42,0,0,1,877.53,687.57Z" transform="translate(-855.82 -661.06)"/><path class="cls-210" d="M878.42,688c.13-.24.27-.48.41-.72a8.62,8.62,0,0,0,.8.41c.19.27.22.47.07.61s-.25.19-.33.16l-.08,0a.66.66,0,0,1-.82-.47Z" transform="translate(-855.82 -661.06)"/><path class="cls-211" d="M879.37,688.48c.09-.26.18-.51.26-.77.27.11.55.2.82.28l-.24.88A8,8,0,0,0,879.37,688.48Z" transform="translate(-855.82 -661.06)"/><path class="cls-212" d="M877.86,681.43l-.4.78a1,1,0,0,1-1-.4A.8.8,0,0,1,877,681a.81.81,0,0,1,.92.46Z" transform="translate(-855.82 -661.06)"/><path class="cls-213" d="M876.66,681.8a8.62,8.62,0,0,1,.8.41,1.79,1.79,0,0,1,0,.8l-.44-.14a.81.81,0,0,1-.88-.43A.65.65,0,0,1,876.66,681.8Z" transform="translate(-855.82 -661.06)"/><path class="cls-214" d="M877.9,681.5a6.25,6.25,0,0,1-.82-.51l-.27-.44.22-.39.5.27.44.15C878,680.88,877.92,681.19,877.9,681.5Z" transform="translate(-855.82 -661.06)"/><path class="cls-215" d="M954.68,685.91l-2.6.64c-3.31-1.17-5.11-4-8.23-5.65l4.56-1.43C948.73,682.8,952.57,683.77,954.68,685.91Z" transform="translate(-855.82 -661.06)"/><path class="cls-153" d="M944.69,687.78l-5-4.07c.11-.25.23-.5.34-.76,1.52.91,3.65,1,4.41,2.89.37.66,1.22,1.33.28,1.94Z" transform="translate(-855.82 -661.06)"/><path class="cls-156" d="M944.69,687.78l-.28-1.94,3.81,1.7Z" transform="translate(-855.82 -661.06)"/><path class="cls-216" d="M876.39,679.87l.41-.78c.28.16.57.31.86.45,0,.3-.09.59-.14.89l-.24-.16-.57.09C876.6,680.2,876.49,680,876.39,679.87Z" transform="translate(-855.82 -661.06)"/><path class="cls-217" d="M873.1,682l1.17.48a1.69,1.69,0,0,1,1.2.13,1.48,1.48,0,0,1,.61,1.51.91.91,0,0,1-.79.64,2.86,2.86,0,0,1-2.63.66C873.54,684.47,873.2,683.22,873.1,682Z" transform="translate(-855.82 -661.06)"/><path class="cls-218" d="M872.63,688.16c.13-.27.27-.53.41-.79.54.34.76.73.52,1.21Z" transform="translate(-855.82 -661.06)"/><path class="cls-219" d="M875.29,684.78a1.17,1.17,0,0,1,.48-.64c.41-.25.67-.16.77.33h0c-.15.27-.3.55-.44.83A8.57,8.57,0,0,0,875.29,684.78Z" transform="translate(-855.82 -661.06)"/><path class="cls-220" d="M878.47,688a5.12,5.12,0,0,0,.82.47,4.71,4.71,0,0,1-.33.76Z" transform="translate(-855.82 -661.06)"/><path class="cls-124" d="M872.65,680.85c.11.4.23.8.34,1.2a6.87,6.87,0,0,0-.74-.44C872.39,681.36,872.52,681.1,872.65,680.85Z" transform="translate(-855.82 -661.06)"/><path class="cls-124" d="M875.17,682.85l-.91-.35c.11-.28.22-.57.32-.86a1.3,1.3,0,0,1,.88.5A.54.54,0,0,1,875.17,682.85Z" transform="translate(-855.82 -661.06)"/><path class="cls-124" d="M874,679.78a7,7,0,0,1,.85.46l.25.39-.2.35-.48-.17Z" transform="translate(-855.82 -661.06)"/><path class="cls-221" d="M875.38,682.1c-.26-.16-.53-.32-.8-.46a2.39,2.39,0,0,0-.12-.83l.21.22.3.07a.82.82,0,0,1,.95.33c0,.16,0,.32,0,.48Z" transform="translate(-855.82 -661.06)"/><path class="cls-143" d="M875.41,679.41l1,.46,0,0c.07.19.14.38.22.58l-.49.34a1.18,1.18,0,0,1-1.12-.58l-.06,0C875.06,680,875.24,679.68,875.41,679.41Z" transform="translate(-855.82 -661.06)"/><path class="cls-221" d="M875.17,682.85a2,2,0,0,1,.21-.75h0a.63.63,0,0,1,.92.45c.22.1.43.21.64.33l-.12.89c-.1.24-.21.48-.33.71l-.77-.33Z" transform="translate(-855.82 -661.06)"/><path class="cls-222" d="M876.35,682.54a7.13,7.13,0,0,1-.92-.45,4.32,4.32,0,0,1,.23-.72c-.2-.29-.21-.5,0-.63s.29-.19.37-.15l0,0a.72.72,0,0,1,1,.42l.13,0-.42.81A6.07,6.07,0,0,0,876.35,682.54Z" transform="translate(-855.82 -661.06)"/><path class="cls-223" d="M877,681l-1-.43c.12-.25.23-.5.34-.75l.95.42C877.18,680.53,877.07,680.78,877,681Z" transform="translate(-855.82 -661.06)"/><path class="cls-224" d="M876,680.59c-.11.26-.22.52-.32.78a4.92,4.92,0,0,0-.69-.27c0-.3,0-.6,0-.91Z" transform="translate(-855.82 -661.06)"/></svg>
