<svg id="skrald" xmlns="http://www.w3.org/2000/svg" viewBox="0 0 74.4 111.71"><defs><style>.cls-1{fill:#ebf5fa;}.cls-2{fill:#fafbfc;}.cls-3{fill:#ecf6fb;}.cls-4{fill:#f4fafc;}.cls-5{fill:#f2f6f8;}.cls-6{fill:#a1c0db;}.cls-7{fill:#c0d6e9;}.cls-8{fill:#e2eff9;}.cls-9{fill:#c0e4f9;}.cls-10{fill:#f3f9fd;}.cls-11{fill:#006aa3;}.cls-12{fill:#235b83;}.cls-13{fill:#134365;}.cls-14{fill:#245276;}.cls-15{fill:#1d4d71;}.cls-16{fill:#b3cde4;}.cls-17{fill:#d0e3f1;}.cls-18{fill:#7a8bae;}.cls-19{fill:#1b4a6d;}.cls-20{fill:#176292;}.cls-21{fill:#04669d;}.cls-22{fill:#e0e3eb;}.cls-23{fill:#6697c0;}.cls-24{fill:#8288aa;}.cls-25{fill:#a3d1ec;}.cls-26{fill:#2c6fa0;}.cls-27{fill:#f6fafd;}.cls-28{fill:#83abc4;}.cls-29{fill:#e9f4fa;}.cls-30{fill:#858dad;}.cls-31{fill:#007ab9;}.cls-32{fill:#9a9fbc;}.cls-33{fill:#d3d9e6;}.cls-34{fill:#727599;}.cls-35{fill:#ced5e3;}.cls-36{fill:#777ea2;}.cls-37{fill:#90b6d1;}.cls-38{fill:#026096;}.cls-39{fill:#bdd3e4;}.cls-40{fill:#a7c4d8;}.cls-41{fill:#010e24;}.cls-42{fill:#7ea8c2;}.cls-43{fill:#a8c4d9;}.cls-44{fill:#757b9f;}.cls-45{fill:#76a4bf;}.cls-46{fill:#ebf4f9;}.cls-47{fill:#5b6188;}.cls-48{fill:#195883;}.cls-49{fill:#c6d4e9;}.cls-50{fill:#0065a0;}.cls-51{fill:#a9c6df;}.cls-52{fill:#dae9f4;}.cls-53{fill:#ccdeed;}.cls-54{fill:#076ca4;}.cls-55{fill:#dae8f3;}.cls-56{fill:#0070ac;}.cls-57{fill:#fbfcfd;}.cls-58{fill:#0975b0;}.cls-59{fill:#006a9f;}.cls-60{fill:#3d76a2;}.cls-61{fill:#004e7d;}.cls-62{fill:#005282;}.cls-63{fill:#b1c5dd;}.cls-64{fill:#d6e5f5;}.cls-65{fill:#ebf2fa;}.cls-66{fill:#f9fbfd;}.cls-67{fill:#bad3ed;}.cls-68{fill:#adc9e2;}.cls-69{fill:#c2d8f0;}.cls-70{fill:#cfe0f3;}.cls-71{fill:#fdfefd;}.cls-72{fill:#b9d2ed;}.cls-73{fill:#fdfdfe;}.cls-74{fill:#f5f8fb;}.cls-75{fill:#e6f2fa;}.cls-76{fill:#f8fbfe;}.cls-77{fill:#b7d0e5;}.cls-78{fill:#b6cfe5;}.cls-79{fill:#c1d7e9;}.cls-80{fill:#a1c1dc;}.cls-81{fill:#5e648c;}.cls-82{fill:#565b83;}.cls-83{fill:#b9d1e6;}.cls-84{fill:#b2cce2;}.cls-85{fill:#70799e;}.cls-86{fill:#60678f;}.cls-87{fill:#afcbe2;}.cls-88{fill:#cfe0ef;}.cls-89{fill:#c7dbec;}.cls-90{fill:#d5e5f2;}.cls-91{fill:#f1f5f9;}.cls-92{fill:#fbfcfc;}.cls-93{fill:#a6c4dd;}.cls-94{fill:#8a9fbf;}.cls-95{fill:#646a90;}.cls-96{fill:#6f7599;}.cls-97{fill:#dcebf6;}.cls-98{fill:#e1eef7;}.cls-99{fill:#0a6393;}.cls-100{fill:#0081c5;}.cls-101{fill:#568cbf;}.cls-102{fill:#4a779e;}.cls-103{fill:#315f8a;}.cls-104{fill:#0a2945;}.cls-105{fill:#014e7b;}.cls-106{fill:#a2ccea;}.cls-107{fill:#c2e5f9;}.cls-108{fill:#0072b1;}.cls-109{fill:#1270a7;}.cls-110{fill:#90bcde;}.cls-111{fill:#3571a0;}.cls-112{fill:#0072ae;}.cls-113{fill:#b9ddf3;}.cls-114{fill:#307aa9;}.cls-115{fill:#41749c;}.cls-116{fill:#51789b;}.cls-117{fill:#a0c0db;}.cls-118{fill:#b1cde4;}.cls-119{fill:#bfd6ea;}.cls-120{fill:#265a80;}.cls-121{fill:#fcfcfb;}.cls-122{fill:#fdfdfc;}.cls-123{fill:#2d5d84;}.cls-124{fill:#76a8cf;}.cls-125{fill:#006faa;}.cls-126{fill:#0f3553;}.cls-127{fill:#0076b4;}.cls-128{fill:#e0edf6;}.cls-129{fill:#dbe7f6;}.cls-130{fill:#afcae2;}.cls-131{fill:#cde0ef;}.cls-132{fill:#a0c1dc;}.cls-133{fill:#c5d3e1;}.cls-134{fill:#cddef2;}.cls-135{fill:#b0cae2;}.cls-136{fill:#535680;}.cls-137{fill:#4f537d;}.cls-138{fill:#c7daeb;}.cls-139{fill:#cee0ef;}.cls-140{fill:#fdfdfd;}.cls-141{fill:#88aeca;}.cls-142{fill:#c4e5fa;}.cls-143{fill:#006ca7;}.cls-144{fill:#78a0c1;}.cls-145{fill:#014d7b;}.cls-146{fill:#bed5e7;}.cls-147{fill:#053e62;}.cls-148{fill:#b4cfed;}.cls-149{fill:#cad9ee;}.cls-150{fill:#e5f1f8;}.cls-151{fill:#e2ebf7;}.cls-152{fill:#edf3fa;}.cls-153{fill:#e6f2f9;}.cls-154{fill:#fcfdfd;}.cls-155{fill:#e4eef5;}.cls-156{fill:#e7f3f9;}.cls-157{fill:#d3dee9;}.cls-158{fill:#f6f9fc;}.cls-159{fill:#5f648b;}.cls-160{fill:#50557f;}.cls-161{fill:#5a6188;}.cls-162{fill:#8085a6;}.cls-163{fill:#f8fbfd;}.cls-164{fill:#dbe6f2;}.cls-165{fill:#72799e;}.cls-166{fill:#bfd5e8;}.cls-167{fill:#dae6f1;}.cls-168{fill:#9bbdd9;}.cls-169{fill:#646b92;}.cls-170{fill:#565a83;}.cls-171{fill:#c4d2e0;}.cls-172{fill:#d4e3f0;}.cls-173{fill:#e8f2f9;}.cls-174{fill:#eef3f8;}.cls-175{fill:#8f97b4;}.cls-176{fill:#d6e6f2;}.cls-177{fill:#eff4fa;}.cls-178{fill:#d9e8f3;}.cls-179{fill:#aecbe2;}.cls-180{fill:#acd1e9;}.cls-181{fill:#8fbfe8;}.cls-182{fill:#a5d0ee;}.cls-183{fill:#1c5177;}.cls-184{fill:#006fae;}.cls-185{fill:#1f81ba;}.cls-186{fill:#1970a3;}.cls-187{fill:#c6e6f8;}.cls-188{fill:#006ba7;}.cls-189{fill:#006ba6;}.cls-190{fill:#5592c4;}.cls-191{fill:#91bde3;}.cls-192{fill:#026293;}.cls-193{fill:#005b8d;}.cls-194{fill:#376d93;}.cls-195{fill:#005f92;}.cls-196{fill:#8fbddf;}.cls-197{fill:#0072b2;}.cls-198{fill:#31658b;}.cls-199{fill:#006297;}.cls-200{fill:#b6def7;}.cls-201{fill:#c0cee1;}.cls-202{fill:#c3e5f9;}.cls-203{fill:#0f618f;}.cls-204{fill:#024c76;}.cls-205{fill:#f2f6fb;}.cls-206{fill:#216b99;}.cls-207{fill:#015686;}.cls-208{fill:#006caa;}.cls-209{fill:#105b87;}.cls-210{fill:#a4c8e2;}.cls-211{fill:#94bad7;}.cls-212{fill:#5b81a1;}.cls-213{fill:#0f5078;}.cls-214{fill:#b8ddf4;}.cls-215{fill:#d5e6f2;}.cls-216{fill:#7097bb;}.cls-217{fill:#abcfe7;}.cls-218{fill:#006da9;}.cls-219{fill:#165881;}.cls-220{fill:#2f729d;}.cls-221{fill:#005b8b;}.cls-222{fill:#005a8c;}.cls-223{fill:#205175;}.cls-224{fill:#00669c;}</style></defs><title>skrald_lilleflaske</title><path class="cls-1" d="M298.21,663.87q3.9,4.64,7.79,9.26a2.15,2.15,0,0,1,.32,1.22,3.47,3.47,0,0,1-.77,1.67c-2,2.43-4.39,2.21-7.12.64a62.43,62.43,0,0,0-11.06-5.29c-2.31-.79-3.45-.61-4,1.75-.51,2.11-1,4.52-4,5a2.94,2.94,0,0,1-1.77-.49c-1.74-1.93-.94-3.72,0-5.51.64-1.22,1.4-2.48-.63-3.45-2-1.29-3.87-.38-5.77-.07a2.77,2.77,0,0,1-2.36-1.29l-.18-.5,5.58-2.93a5.76,5.76,0,0,0,.73-.27,6.61,6.61,0,0,1,.76-.22s.39-.1.38-.11a7.13,7.13,0,0,1,.8-.18c.27,0,.54-.08.82-.11a10.42,10.42,0,0,0,1.26-.26,6.81,6.81,0,0,1,1.36-.26,8,8,0,0,1,1,0,14.21,14.21,0,0,0,4-.51c1.05-.16,2.09-.38,3.13-.57a13.55,13.55,0,0,1,4.54-.08C294.77,662,296.4,663.12,298.21,663.87Z" transform="translate(-236.79 -642.24)"/><path class="cls-2" d="M281,708.06c2-.28,2.74-1.36,1.07-2.72a24.28,24.28,0,0,1-7-8.3c-.7-1.47-2.64-1.73-4.15-2.32-1.12.28-2-.43-3-.74-1-.82-2.28-1.09-3.37-1.73-1.41-.89-3.17-1.34-4-2.92-1.3-1.11-3.49-1.86-2.11-4.05a1.91,1.91,0,0,1,.32-3.12c-.63-1.86.74-3.74-.42-5.6-.44-1.73.35-3.07,1.37-4.32.31-1.92,2.35-2.34,3.51-3.52a1.37,1.37,0,0,1,1.15.1,2.46,2.46,0,0,1,.58,2.1c-.9,1.35-2.28,2.45-2.51,4.18a4.65,4.65,0,0,0,.25,2.82c.5,2.14-.56,4.07-.52,6.14a2.2,2.2,0,0,0,.88,2c.42.3.84.6,1.23.93a12.18,12.18,0,0,1,1.48,1.57c1.16,1.68,3.18,1.85,4.88,2.59a15.81,15.81,0,0,1,2.78,1.34c6.54,2,7.51,8.45,11.57,12.45a3.2,3.2,0,0,1,.29,3.6,3.13,3.13,0,0,1-3.06,1.84,2.82,2.82,0,0,1-1.25-.39C280.16,709.32,280,708.65,281,708.06Z" transform="translate(-236.79 -642.24)"/><path class="cls-3" d="M238.27,728.3c1.47-.73,1.77-3.27,4.36-2.28,4.17-1.17,8.59-1.33,12.89-2a2.84,2.84,0,0,1,1.53,1.66c-.76,2-3.35,1-4.76,2.45,1.28,1.38,3.65.61,4.77,2.13a2.35,2.35,0,0,1-.61,3.3c-1.35,1-1.43,2.5-1.85,3.88s-.82,2.69-2.18,3.48a2,2,0,0,1-1.78-.46c-1-2.1.31-3.78.84-5.59.48-1.59.7-2.93-1.76-3.16-1.14-.16-2.26-.45-3.41-.5-3.49-.77-5,.63-4.91,3.79a2,2,0,0,1-2.12.24c-2.64-.57-1.71-2.55-2.06-4C237.31,730.13,238.08,729.32,238.27,728.3Z" transform="translate(-236.79 -642.24)"/><path class="cls-4" d="M281.23,709.73l.78.28a2.35,2.35,0,0,1,.51,3.39c-1.22,1.76-.84,3.41,0,5.17-.82,1.08-2.62.94-3.29,2.2-1.46,1-3.21.68-4.9.61a3.68,3.68,0,0,1-1.65-.64c-.45-.44-.76-.89-.27-1.43,2-1.41,2.16-3.39,1.14-5.4-1.58-3.09-.21-4.47,2.74-5.19C277.82,709.78,279.6,709.29,281.23,709.73Z" transform="translate(-236.79 -642.24)"/><path class="cls-5" d="M272.43,719.31l.61,1.1c-.19,1-1.2,1.18-2,1.59-3.08,1.1-6.17,2.21-9.65,2-2-.57-3.7.93-5.7.43A35.05,35.05,0,0,1,242.63,726c.31-.39.55-1.08.93-1.12,6.52-.69,12.08-4.31,18.74-4.45C265.76,720.38,268.72,717.94,272.43,719.31Z" transform="translate(-236.79 -642.24)"/><path class="cls-6" d="M300.41,724.75l-1,.44a2.45,2.45,0,0,1-1,.35c-2-.13-3.87.59-5.81.89a5.67,5.67,0,0,1-2.25-.5,3.39,3.39,0,0,1-1.37-1.08c-.32-.83.18-1.36.67-1.9a9,9,0,0,1,3.85-1.89c.7-.15,1.43-.22,2.11-.43,2.66-1,4.16-3.82,7.42-3.93,1.1.94.31,1.92.27,2.88,0,.34,0,.68.07,1,.3,1.11-.45,2-.62,3C302.13,724.2,300.8,723.73,300.41,724.75Z" transform="translate(-236.79 -642.24)"/><path class="cls-7" d="M260.78,748.69l-3-1.1c-.75.2-.88-.25-.91-.78a1.17,1.17,0,0,1,.76-.57c.32-.08.65-.14,1-.19a4.93,4.93,0,0,0,2-1.25,6,6,0,0,1,.81-.59,17.07,17.07,0,0,0,2.83-2.16,7.5,7.5,0,0,1,.86-.62c4.86-3.12,8.82-7.26,13.83-10.21a3.14,3.14,0,0,1,1.69-.38,1.48,1.48,0,0,1,.89.75,2.34,2.34,0,0,1-.56,2.06c-6.14,5.42-13.49,9.56-19.22,15.42A.81.81,0,0,1,260.78,748.69Z" transform="translate(-236.79 -642.24)"/><path class="cls-8" d="M253.54,744.44a5,5,0,0,1-3.41-2.84c.58-.52,1.39-.38,2.1-.53,3.5-3.84,7.79-6.88,12-10a2.52,2.52,0,0,1,2.79.48c-.54,2.6-3,3.77-4.72,5.42-1.08,1-2.53,1.69-3.31,3-.69,2-3.48,2.61-3.42,5a1.76,1.76,0,0,1-.61.82C253.93,745.87,253.81,745.09,253.54,744.44Z" transform="translate(-236.79 -642.24)"/><path class="cls-9" d="M276.24,643.82a22.38,22.38,0,0,1,7.53-1.2c.91,1.1,1.86,2.19.7,3.53a10.1,10.1,0,0,1-7.63.85C275.56,646.05,275.76,645,276.24,643.82Z" transform="translate(-236.79 -642.24)"/><path class="cls-10" d="M249.64,731c3.36-.51,4.26.75,3.11,3.58-.74,1.84-1.38,3.73-2.07,5.61-1.43.68-2.65-.19-3.91-.7a4.49,4.49,0,0,1-1.55-1.31l-1.48-.52a.75.75,0,0,1,.34-.92,5.06,5.06,0,0,1,2.32,0C249.72,735.92,250.5,734.52,249.64,731Z" transform="translate(-236.79 -642.24)"/><path class="cls-11" d="M292.54,661.79c-1.4.13-2.72.81-4.22.32a.79.79,0,0,1-.52-.65,3.27,3.27,0,0,1,.21-1.24,3.61,3.61,0,0,1,.36-.74,3.11,3.11,0,0,1,.54-.61,4.71,4.71,0,0,1,1.06-.63,11.36,11.36,0,0,1,1.15-.44,3.15,3.15,0,0,1,.81-.16l.41.1c.72.73,1.73,1.29,1.76,2.42C294.52,661.49,293.44,661.57,292.54,661.79Z" transform="translate(-236.79 -642.24)"/><path class="cls-12" d="M271.33,650c-1.46-1.54-1-2.73.55-3.72,1.36.09,2.59.86,4,.91l.47.26a1.45,1.45,0,0,1,.49.89c-.23,1.14-.29,2.31-.57,3.44a2.21,2.21,0,0,1-2,.59,3.08,3.08,0,0,1-1-.52C272.61,651.22,272.38,650.26,271.33,650Z" transform="translate(-236.79 -642.24)"/><path class="cls-13" d="M288.7,643.52c2.43,1,1.86,3.06,2.09,4.82-.49,1.36-1.64,1.5-3,1.25a3.94,3.94,0,0,1-1.12-.52,2.1,2.1,0,0,1-.85-1.46,3.11,3.11,0,0,1,1.26-2.22C287.69,644.81,287.82,643.88,288.7,643.52Z" transform="translate(-236.79 -642.24)"/><path class="cls-14" d="M273.3,659.05c-.13-1.21-.25-2.41-.37-3.62,1.34-.56,2.63-1.45,4.25-.39.67.85.26,2,1,2.81a1.27,1.27,0,0,1,0,1,2.75,2.75,0,0,1-1.82.86,4.22,4.22,0,0,1-2.08-.15C273.92,659.37,273.6,659.22,273.3,659.05Z" transform="translate(-236.79 -642.24)"/><path class="cls-15" d="M277,655.28c-1.42-.45-2.64.87-4.08.15l.26-1.41c-.57-1.14-.54-2,1.07-2.1l1.8-.17a.78.78,0,0,1,.82,0,2.77,2.77,0,0,1,.73,1.07,7.36,7.36,0,0,1,.24.8c.15.4.32.79.46,1.2a.87.87,0,0,1-.2.79A.72.72,0,0,1,277,655.28Z" transform="translate(-236.79 -642.24)"/><path class="cls-16" d="M276.19,752.66c-1.7,1.08-3.43-.46-5.13-.26l-.47-.3c-.78-1.66.6-1.61,1.62-1.85,1.82,0,2.93-1.94,5-1.29a2.52,2.52,0,0,1,.82,1.91,1.15,1.15,0,0,1-.56.81,2.27,2.27,0,0,1-.4.62C276.76,752.41,276.47,752.53,276.19,752.66Z" transform="translate(-236.79 -642.24)"/><path class="cls-17" d="M277.45,751.68l.18-.83a9.44,9.44,0,0,1,6.78-4.07,1.91,1.91,0,0,1,.33,1.12,5.38,5.38,0,0,1-1.15,2.63,2.29,2.29,0,0,1-1.75.49C280.31,751,279.11,752.31,277.45,751.68Z" transform="translate(-236.79 -642.24)"/><path class="cls-18" d="M260.78,748.69l.8.3a3.5,3.5,0,0,1,2.15-.2c2.6.78,5.36,1.26,7.08,3.64l.25,0c-3.25.19-6.26-1-9.31-1.93A1.29,1.29,0,0,1,260.78,748.69Z" transform="translate(-236.79 -642.24)"/><path class="cls-19" d="M274,659.1l2.06-.1a8.79,8.79,0,0,1,1.75,1.75,1.47,1.47,0,0,1,.19.89,2.65,2.65,0,0,1-.74,1.08l-.63.57a4.77,4.77,0,0,0-.55.64l-.06-.11a2.17,2.17,0,0,1-1,0,1.45,1.45,0,0,1-.75-.6c-1.18-1.06-.15-2.3-.55-3.42A.65.65,0,0,1,274,659.1Z" transform="translate(-236.79 -642.24)"/><path class="cls-20" d="M291.19,650.82c0,.84.91,1.68.21,2.53-.46.07-.73.22-.39.7a1.84,1.84,0,0,1-.17.65,1.05,1.05,0,0,1-.38,1.38,1.72,1.72,0,0,1-1.12,0,4.09,4.09,0,0,1-2.13-1.83,2,2,0,0,1,.39-2,13.78,13.78,0,0,1,2.12-1.38A1.43,1.43,0,0,1,291.19,650.82Z" transform="translate(-236.79 -642.24)"/><path class="cls-21" d="M290.25,656.14c.2-.48.4-1,.59-1.44,1.49,1.26,3.77-.32,5.18,1.4-.66,1.76-3,.12-3.68,1.64l-.23,0a2.26,2.26,0,0,1-.86,0,1.86,1.86,0,0,1-.73-.48,2.12,2.12,0,0,1-.33-.77Z" transform="translate(-236.79 -642.24)"/><path class="cls-22" d="M281.84,751l1-.62a1.4,1.4,0,0,1,1.8.58c.18,2.21-1.62,2.41-3.26,3C280.38,752.59,283,752.2,281.84,751Z" transform="translate(-236.79 -642.24)"/><path class="cls-23" d="M275.79,647.61c-1.71.79-3,.26-3.91-1.32,0-1,0-2,1.51-2.06C275.08,644.84,276.08,645.85,275.79,647.61Z" transform="translate(-236.79 -642.24)"/><path class="cls-24" d="M305.74,714.63l-1.89,5.75a.6.6,0,0,1-.65,0c-.17-.12-.25-.22-.23-.28l0-.05c.09-1.83.8-3.6.31-5.5.2-1.49.53-2.93,1.9-3.87,1.18-.22,1.29.43,1.15,1.23S305.57,713.62,305.74,714.63Z" transform="translate(-236.79 -642.24)"/><path class="cls-25" d="M275.79,647.61l-2.4-3.38,2.85-.41.85,2.77a1,1,0,0,1-.57,1.38A1.85,1.85,0,0,1,275.79,647.61Z" transform="translate(-236.79 -642.24)"/><path class="cls-26" d="M288.7,643.52c-.55.66.46,1.85-.76,2.28a2.35,2.35,0,0,1-1.69-.32c-.76-.9-1.57-1.8-.53-2.88C286.87,642.38,288.2,641.55,288.7,643.52Z" transform="translate(-236.79 -642.24)"/><path class="cls-27" d="M281.23,709.73c-1.8.59-3.6,1.17-4.92-1l4.66-.66A1.46,1.46,0,0,0,281.23,709.73Z" transform="translate(-236.79 -642.24)"/><path class="cls-28" d="M264.35,669.1l-1.17-.38c1.51-1.35,3.07-2.6,5.51-2v0c.62,1.16-.22,1.6-1,2.06A5.92,5.92,0,0,1,264.35,669.1Z" transform="translate(-236.79 -642.24)"/><path class="cls-29" d="M246.74,738.78l3.94,1.41,1.56.57c.25.36.15.59-.26.71a1.85,1.85,0,0,1-1.85.13c-.24-.08-.47-.17-.7-.27C248.17,740.81,246.69,740.48,246.74,738.78Z" transform="translate(-236.79 -642.24)"/><path class="cls-25" d="M285.72,642.6l.69,2.59c-.06,1-.75,1.15-1.63,1.08l-.44-.4-.57-3.25Z" transform="translate(-236.79 -642.24)"/><path class="cls-30" d="M292.54,661.79l1.56-1.63c.44,2.13,3.19,2,4.11,3.71C295.89,664.35,294.59,662,292.54,661.79Z" transform="translate(-236.79 -642.24)"/><path class="cls-31" d="M291.19,650.82l-1,.49a3.3,3.3,0,0,1-3-1.61.69.69,0,0,1,.38-.88,3.51,3.51,0,0,0,3.13-.48A1.64,1.64,0,0,1,291.19,650.82Z" transform="translate(-236.79 -642.24)"/><path class="cls-32" d="M253.54,744.44l1.32,1.13a1.93,1.93,0,0,1,2.25,1l.65,1C255.3,747.79,253.77,746.89,253.54,744.44Z" transform="translate(-236.79 -642.24)"/><path class="cls-33" d="M243.9,736.93a5.93,5.93,0,0,0-.16.73c-1.88,1.06-2.55-1.08-3.89-1.45.45-1.57,1.73-.52,2.65-.6A2.43,2.43,0,0,1,243.9,736.93Z" transform="translate(-236.79 -642.24)"/><path class="cls-34" d="M305.74,714.63c-.92-1.38.92-2.59,0-4a.87.87,0,0,1-.27-.86.79.79,0,0,1,1.22-.32l.57,1.09Z" transform="translate(-236.79 -642.24)"/><path class="cls-35" d="M246.74,738.78l2.69,2.55a4,4,0,0,1-4.21-3.15Z" transform="translate(-236.79 -642.24)"/><path class="cls-36" d="M303,720.09l.88.29c.84,1.48.24,2.46-1.09,3.18C302.11,722.33,303.11,721.27,303,720.09Z" transform="translate(-236.79 -642.24)"/><path class="cls-37" d="M260.51,689.33l4.28,2.45c0,.72-.3,1-1,.43C262.38,691.56,260.52,691.36,260.51,689.33Z" transform="translate(-236.79 -642.24)"/><path class="cls-38" d="M274.26,651.92a2.25,2.25,0,0,0-1.07,2.11c-1.35-.58-2.18-1.37-1.49-2.8.54-.53,1-.29,1.53.17Z" transform="translate(-236.79 -642.24)"/><path class="cls-39" d="M263.78,692.21l1-.43c1.16.37,2.44.54,3,1.77-.55.46-1.24-.17-1.81.1C265.11,693.42,264.19,693.17,263.78,692.21Z" transform="translate(-236.79 -642.24)"/><path class="cls-40" d="M238.27,728.3c1,1.44-.31,2.07-1.05,2.9C236.27,729.76,237,728.93,238.27,728.3Z" transform="translate(-236.79 -642.24)"/><path class="cls-41" d="M273.23,651.4l-1.53-.17c-.12-.4-.25-.81-.37-1.22C273.47,648.64,273.2,650.2,273.23,651.4Z" transform="translate(-236.79 -642.24)"/><path class="cls-42" d="M259.67,672.24c-.46,1.44-.92,2.88-1.37,4.32C257.19,674.61,257.94,673.26,259.67,672.24Z" transform="translate(-236.79 -642.24)"/><path class="cls-43" d="M266,693.65l1.81-.1,3.06,1.17C269.05,695.56,267.63,694.1,266,693.65Z" transform="translate(-236.79 -642.24)"/><path class="cls-44" d="M284.63,751l-1.8-.58,1.47-2.73c1.33.28.41,1.22.73,1.8,0,.3,0,.6,0,.91A2.28,2.28,0,0,0,284.63,751Z" transform="translate(-236.79 -642.24)"/><path class="cls-45" d="M258.72,682.16c-.11,1-.21,2.08-.32,3.12C255.91,683.86,257.32,683,258.72,682.16Z" transform="translate(-236.79 -642.24)"/><path class="cls-46" d="M242.41,736.32c-.85-.23-1.71-.76-2.56-.11l-.57-1a1.77,1.77,0,0,1,1.82-.14C242.16,734.93,242.78,735.18,242.41,736.32Z" transform="translate(-236.79 -642.24)"/><path class="cls-47" d="M276.19,752.66l.86-.36C276.94,752.75,276.64,752.85,276.19,752.66Z" transform="translate(-236.79 -642.24)"/><path class="cls-48" d="M291,654.05c-.46-.54-.18-.7.39-.7Z" transform="translate(-236.79 -642.24)"/><path class="cls-49" d="M274,659.1l0,.36-.21.31c-.16-.24-.32-.48-.47-.72A.86.86,0,0,1,274,659.1Z" transform="translate(-236.79 -642.24)"/><path class="cls-50" d="M274.32,663.19l.94.29a.36.36,0,0,1-.23.59,1.17,1.17,0,0,1-.76-.24A3.45,3.45,0,0,0,274.32,663.19Z" transform="translate(-236.79 -642.24)"/><path class="cls-51" d="M277.3,677l1.59.62a18.21,18.21,0,0,1,3.81.41c.6.16,1.2.35,1.81.48,5-4.42,9.23-1,13.51,1.95a8.3,8.3,0,0,0,2.81,1.58,13.63,13.63,0,0,1,4,10.35,3.34,3.34,0,0,1-.3,1.08,2,2,0,0,1-2.6.85,6.55,6.55,0,0,1-1.48-1.12c-4.77-4.51-9.85-8.59-16.24-10.91-1.18-.45-2.36-.86-3.53-1.31-.79-.29-1.57-.59-2.33-1a4.8,4.8,0,0,1-1.51-1.08,1.46,1.46,0,0,1-.28-1.11l.26-.51Z" transform="translate(-236.79 -642.24)"/><path class="cls-52" d="M282.76,679l-3.87-1.41c3.21-.81,3.29-3.7,3.76-5.94.57-2.7,1.87-2.29,4-1.63a44.89,44.89,0,0,1,11.79,5.49c2.85,1.94,4.79,1.83,6.89-.22.86,4.4.35,8.79.86,13.19a7.88,7.88,0,0,1-.15,3.65,2.21,2.21,0,0,1-.69.77.86.86,0,0,1-.69,0c-.21-.11-.3-.18-.29-.23-.31-3.58-1.87-6.86-3.43-10.14a5.53,5.53,0,0,1-1-1.8c-1.23-2.31-4-3-5.72-4.81a10.74,10.74,0,0,0-3.48-1.7A17.81,17.81,0,0,0,287,673c-2.65.93-1.91,3.77-3.29,5.41A3.62,3.62,0,0,1,282.76,679Z" transform="translate(-236.79 -642.24)"/><path class="cls-2" d="M277,668.14c2-.15,3.39-.23,2.39,2.47-.77,2.07-2.82,3.77-2.12,6.35l0,.16a3.33,3.33,0,0,1-3-.56c-3-2.71-.74-5.34-.41-8C274.72,667.4,275.81,667.47,277,668.14Z" transform="translate(-236.79 -642.24)"/><path class="cls-53" d="M305.56,689c-.85-4.6-1.43-9.2-.27-13.72.18-.5.37-1,.55-1.51l1.3,1.35a2.67,2.67,0,0,1,.84,1.43,26.61,26.61,0,0,0-.73,8.45C307.12,686.51,307.4,688.19,305.56,689Z" transform="translate(-236.79 -642.24)"/><path class="cls-54" d="M288.32,662.11c-.89.37-1.71,1-2.83.4a2.11,2.11,0,0,1-2.4-1.37c-.19-1.09.49-1.68,1.33-2.19a2.43,2.43,0,0,1,1.66-.09,3,3,0,0,1,1,.57,3.52,3.52,0,0,1,.57.9,5.19,5.19,0,0,0,.56,1.44Z" transform="translate(-236.79 -642.24)"/><path class="cls-55" d="M277,668.14l-2.84.56a2.37,2.37,0,0,1-3.6.53.71.71,0,0,1,.21-1C272.78,667.21,274.73,665.74,277,668.14Z" transform="translate(-236.79 -642.24)"/><path class="cls-56" d="M283.11,660.68l2.38,1.83c-1.41,1.15-3.08,1-4.82.56-.12-.64.35-1.19.21-1.84a1.75,1.75,0,0,1,.43-.83A1.22,1.22,0,0,1,283.11,660.68Z" transform="translate(-236.79 -642.24)"/><path class="cls-57" d="M270.8,668.28l-.28.71a1.5,1.5,0,0,1-1.19.74,2.57,2.57,0,0,1-1.88-.7c-.08-.15-.15-.3-.23-.44l1.46-1.87Z" transform="translate(-236.79 -642.24)"/><path class="cls-58" d="M281.11,661.59c.8.78-.17,1-.44,1.48l-.78-.28-.37-.28a2,2,0,0,1-.33-.82,1.14,1.14,0,0,1,.38-.75,1.69,1.69,0,0,1,.92,0A1.27,1.27,0,0,1,281.11,661.59Z" transform="translate(-236.79 -642.24)"/><path class="cls-59" d="M279.89,662.79c-.11.63-.44.78-1,.37l-.06-.34a.6.6,0,0,1,.55-.38.59.59,0,0,1,.58.39Z" transform="translate(-236.79 -642.24)"/><path class="cls-60" d="M276.11,663.93l.23-.94.42,0,.19.36C276.94,663.84,276.59,664,276.11,663.93Z" transform="translate(-236.79 -642.24)"/><path class="cls-61" d="M275,664.07a3.8,3.8,0,0,1,.23-.59l.79.34C275.83,664.26,275.5,664.37,275,664.07Z" transform="translate(-236.79 -642.24)"/><path class="cls-62" d="M278.85,663.16c0,.68-.48.59-1,.46l-.22-.48.37-.35a.76.76,0,0,1,.84.46Z" transform="translate(-236.79 -642.24)"/><path class="cls-63" d="M278.11,663l-.14.31-.09.33-.93-.3.08,0a.58.58,0,0,1,.21-.86A.8.8,0,0,1,278.11,663Z" transform="translate(-236.79 -642.24)"/><path class="cls-3" d="M284.34,708.46c.11-.73.59-1.85.27-2.11-4.24-3.47-4.25-10-10.37-12.08-.43-.14-.72-.71-1.08-1.09,1.13-.6,2.27-.09,3.4.15a6.92,6.92,0,0,0,3.23,0,17.69,17.69,0,0,1,3.78-.37c1.3.08,2.56-.32,3.87-.06a3.21,3.21,0,0,1,1.46.85c1,2,2.08,3.91,4.76,2,1.22-.66,2.3-1.51,3.45-2.28a3,3,0,0,1,2.19-.27,4.28,4.28,0,0,1,1.07.48,2.36,2.36,0,0,1,.71.86c-.06.8-.65,1.19-1.29,1.56-1,.49-1.63,1.19-1.18,2.38.14.28.26.58.39.87a7,7,0,0,1,.35.86,3.91,3.91,0,0,0,1.15,1.51c.8.74,1.81,1.39,1.66,2.61-2.3,2.49-3.84-.37-5.69-1a17.55,17.55,0,0,0-3.59-2.08c-1.11,1.81,1.72,2.63,1.48,4.19a7.11,7.11,0,0,0-3.5,2.9c-.91.4-1.7-.28-2.55-.38-1.95.32-.45,1.93-1,2.76C284.77,711.72,284.84,709.76,284.34,708.46Z" transform="translate(-236.79 -642.24)"/><path class="cls-64" d="M277.07,694.58l-3.91-1.4L270.07,692a2.18,2.18,0,0,1-.19-1.09,79.92,79.92,0,0,0,3.88-10,3.81,3.81,0,0,1,4.58-1.81l2.34.85A35.57,35.57,0,0,1,277.07,694.58Z" transform="translate(-236.79 -642.24)"/><path class="cls-65" d="M274.2,680.73c.17,4.06-1.76,7.35-3.87,10.59a6.57,6.57,0,0,1-5.18-2.7c-.65-.24-1.18-.58-1.3-1.28,1.91-1.41,2.71-3.45,3.46-5.54.49-1.37.92-2.82,2.33-3.67A3.79,3.79,0,0,1,274.2,680.73Z" transform="translate(-236.79 -642.24)"/><path class="cls-66" d="M269.79,678.33c-.92,2.52-1.91,5-2.75,7.58-.52,1.58-1.4,2.24-3.19,1.43l-1.62-.63a6.78,6.78,0,0,1-.16-4.08c.5-1.93.24-4.08,1.61-5.76a3.63,3.63,0,0,1,2.59-.64C267.71,676.51,269.09,676.89,269.79,678.33Z" transform="translate(-236.79 -642.24)"/><path class="cls-27" d="M284.34,708.46c1.06.45.8,2.76,2.85,1.84,1.92.6,3.26,1.34,1,2.93-1.69.18-2.32,1.29-2.85,2.62s-.68,2.95-2.57,3.35l-.48-.29c-1.88-2.37-1.9-2.38-.56-5.67A5.49,5.49,0,0,0,282,710C282.75,709.45,284.06,709.6,284.34,708.46Z" transform="translate(-236.79 -642.24)"/><path class="cls-67" d="M265.92,676.86l-1.8.18c-.83.08-.79,1.84-2.16.85a2.22,2.22,0,0,1-.7-2.71c1-.53.9-2.45,2.8-1.9,2.34,1.28,5.24,1.59,7.08,3.75-.06,1.17-.85,1-1.7.74C268.27,677.46,267.22,676.63,265.92,676.86Z" transform="translate(-236.79 -642.24)"/><path class="cls-68" d="M263.58,673.63l-2.32,1.55c.55-1.85.92-3.82,3.34-4.39a1.37,1.37,0,0,1,1.37-.56,1.87,1.87,0,0,1,1.23,1.63,1.62,1.62,0,0,1-.51.87A8.47,8.47,0,0,1,263.58,673.63Z" transform="translate(-236.79 -642.24)"/><path class="cls-69" d="M262,677.89l2.16-.85c-1,1.83-1.17,3.89-1.39,5.94-.63.19-.55,1.07-1.29,1.17C260.73,682,262.41,680.06,262,677.89Z" transform="translate(-236.79 -642.24)"/><path class="cls-70" d="M265.15,688.62l5.18,2.7c-.08.23-.17.46-.26.69C268.4,690.92,265.39,691.59,265.15,688.62Z" transform="translate(-236.79 -642.24)"/><path class="cls-71" d="M265.68,670.42l-1.08.37a1.52,1.52,0,0,1-.25-1.69,2.47,2.47,0,0,1,2.87-.51l0-.05C267.65,669.86,266.84,670.27,265.68,670.42Z" transform="translate(-236.79 -642.24)"/><path class="cls-72" d="M261.44,684.15c.28-.54.56-1.08,1.29-1.18-.17,1.25-.33,2.5-.5,3.75C260.74,686.12,261.07,685.14,261.44,684.15Z" transform="translate(-236.79 -642.24)"/><path class="cls-73" d="M242.41,736.32a1.83,1.83,0,0,0-1.31-1.24c-1.25-4.61-.13-5.58,5.17-4.52,1.57,0,3.22.27,3.39,2a4.76,4.76,0,0,1-3.38,5.23l-2.37-.85Z" transform="translate(-236.79 -642.24)"/><path class="cls-29" d="M267,731.74l-2.59-.14c-3.2.28-4.62,2.94-7,4.29-1.06.6-1.89,2.33-3.59.63-.43-2.73,3.21-3.49,3.1-6.07,1.19-1.39,1.14-4.13,4.33-3.33,1.65,2.06,4.74,1.4,6.5,3.26A1.22,1.22,0,0,1,267,731.74Z" transform="translate(-236.79 -642.24)"/><path class="cls-74" d="M260.77,727.06c-2.11.33-1.44,3.38-3.87,3.39-1.6-.32-3.21-.58-4.79-1-.73-.19-1.76-.35-1.82-1.31s.92-1.15,1.63-1.36c1.63-.47,3.31-.8,5-1.19,1.47-.84,2.95-1.46,4.57,0A1.22,1.22,0,0,1,260.77,727.06Z" transform="translate(-236.79 -642.24)"/><path class="cls-75" d="M253.79,736.52c2.78-.29,4.26-2.39,6.17-3.82,1.4-1.05,2.55-1.9,4.45-1.1A83.45,83.45,0,0,1,252,741.47l.26-.71C252.76,739.35,253.27,737.93,253.79,736.52Z" transform="translate(-236.79 -642.24)"/><path class="cls-76" d="M246.28,737.78c.67-1,1.39-2,2-3.08,1.15-2,.73-3.52-2-4.14,1.2-.72,2.26.14,3.37.44,2,.55,2.43,1.86,1.41,3.17C249.84,735.71,249.92,738.9,246.28,737.78Z" transform="translate(-236.79 -642.24)"/><path class="cls-77" d="M261.27,725.67l-4.38-.06c-.55-.24-1.14-.46-1.17-1.16,1.67-1,3.39-1.9,5.59-1.15.5.53,1.49.66,1.52,1.57C262.62,725.61,262.35,726.27,261.27,725.67Z" transform="translate(-236.79 -642.24)"/><path class="cls-78" d="M293.68,721.57l-3.37,1.88c-5.28,1.89-10.71,1.6-16.2-.06-1.22-.37-2.82-.41-3.1-2.09l2-.89,1.48.48a32.5,32.5,0,0,0,10,.05c1.17-.17,2.33-.43,3.52-.51C289.9,720.89,292.05,719.71,293.68,721.57Z" transform="translate(-236.79 -642.24)"/><path class="cls-79" d="M284.86,721.53c-3.46,1.72-6.9.37-10.34-.64l4.7-.64a4.84,4.84,0,0,1,3.06-.41A3.07,3.07,0,0,1,284.86,721.53Z" transform="translate(-236.79 -642.24)"/><path class="cls-27" d="M281.79,720.37c-.85.56-1.71.14-2.57-.12-.21-2.66,1.87-1.18,3-1.34h0C282.61,719.57,282,719.89,281.79,720.37Z" transform="translate(-236.79 -642.24)"/><path class="cls-80" d="M271,721.3a28.78,28.78,0,0,0,16.11,2.11,19,19,0,0,1,3.19,0L289,724.57a5.76,5.76,0,0,1-1.75.88c-1.09.39-1.7,1.49-3,1.6-2.13-.42-.32,1.23-.89,1.64a2.16,2.16,0,0,1-.43,1c-1.08,1.05-2.53,1-4,.92-5.1-1.16-10.21-2.3-14.86-4.86a3,3,0,0,1-1.53-1.17c-.6-.27-1.16-.57-1.3-1.26C264.77,723.37,267.81,722.06,271,721.3Z" transform="translate(-236.79 -642.24)"/><path class="cls-81" d="M288.25,738.7c1.07.84,0,1.95.6,2.84.31.26.27.44-.09.57-.92,1.58-1,3.59-2.55,4.83a3,3,0,0,1-.84-2.14c0-1.52.64-2.92.77-4.42A2,2,0,0,1,288.25,738.7Z" transform="translate(-236.79 -642.24)"/><path class="cls-82" d="M286,745.13c.06.61.11,1.21.17,1.81L285,749.47l-.73-1.8c0-.25-.05-.51-.07-.77a1,1,0,0,1,.1-.9A2.13,2.13,0,0,1,286,745.13Z" transform="translate(-236.79 -642.24)"/><path class="cls-2" d="M293.68,721.57c-2-.66-4,.76-5.94-.63-1.25-2.39.17-4.19,1.15-6.09a3.31,3.31,0,0,1,2.61.74c.32.17.64.36.94.56a5,5,0,0,1,1.23,1.05c.57,1.24,1.68,2.18,2.3,3.4a.68.68,0,0,1-.48.75Z" transform="translate(-236.79 -642.24)"/><path class="cls-83" d="M295.49,721.35a6.44,6.44,0,0,1,.2-.72c-.69-3.68.89-5.73,5.17-6.74a4,4,0,0,1,2.79,2.23c.13.46,0,.72-.55.77C300.28,718,298.73,720.85,295.49,721.35Z" transform="translate(-236.79 -642.24)"/><path class="cls-84" d="M287.2,724.7a1.84,1.84,0,0,1,1.82-.13l1.77.75c.2,1-.45,1.59-1,2.23-.21.26-.44.51-.67.75-1.07,1.22-1.51,3-3.43,3.48a6.61,6.61,0,0,0-2.48,1.43,4.11,4.11,0,0,1-.83.51c-.66.2-1.32.38-1.9-.25.26-.72.52-1.43.77-2.14,0-1.37,1.54-1.19,2.15-1.94A12.35,12.35,0,0,1,287.2,724.7Z" transform="translate(-236.79 -642.24)"/><path class="cls-85" d="M289.15,727.13l1.64-1.81,2.1.69-1.54,1.85c-.4.14-.64.48-1,.64a1.56,1.56,0,0,1-.81-.24C289.15,727.94,289.23,727.52,289.15,727.13Z" transform="translate(-236.79 -642.24)"/><path class="cls-86" d="M303.1,716.89l.28-.7a.91.91,0,0,1,.8-1.22c.5,1.91-.87,3.36-1.16,5.07C302,718.91,303.14,718,303.1,716.89Z" transform="translate(-236.79 -642.24)"/><path class="cls-87" d="M280.47,733.47l1.82-.14a1.22,1.22,0,0,1-.15,1.42,140.55,140.55,0,0,1-19,14.73l-1.55-.49c.07-2.8,2.6-3.79,4.5-5.08C271,740.58,275.11,736.3,280.47,733.47Z" transform="translate(-236.79 -642.24)"/><path class="cls-88" d="M258.72,747.12l-.79-.31c-1.43-1.53-.45-2.44.74-3.37,2.88-2.23,5.73-4.5,8.5-6.84,2.28-1.65,4.56-3.3,6.68-5.13a2.43,2.43,0,0,1,2.86.45c-.77,2.86-3.84,3.72-5.76,5.56s-4.08,3.06-6,4.72h0a20.52,20.52,0,0,0-3.63,2.68h0C260.16,745.34,259.6,746.39,258.72,747.12Z" transform="translate(-236.79 -642.24)"/><path class="cls-89" d="M264.94,742.2c2.45-3.78,6.92-5.53,10.08-8.59.53-.52,1-1.06,1.56-1.59a.86.86,0,0,1,.25-1c1-.46,1.88-.6,2.6.49C274.61,735.09,270.51,739.49,264.94,742.2Z" transform="translate(-236.79 -642.24)"/><path class="cls-90" d="M267.78,736.84c-2.23,3-5.5,5-8.5,7.27-1.07.8-1.67,1.43-1.35,2.7l-.82-.24-2.25-1c.09-.19.17-.37.24-.56,1-1,1-2.9,3.07-3a14.67,14.67,0,0,0,4.77-3.51,11.2,11.2,0,0,1,1.52-1.3,4.93,4.93,0,0,1,2.44-.88A1.29,1.29,0,0,1,267.78,736.84Z" transform="translate(-236.79 -642.24)"/><path class="cls-89" d="M261.31,744.88c.44-1.77,1.77-2.52,3.63-2.68A4.62,4.62,0,0,1,261.31,744.88Z" transform="translate(-236.79 -642.24)"/><path class="cls-91" d="M283.58,729.81l-2.34,1.52-.78-.27a.7.7,0,0,1-.66,0c-.21-.11-.3-.19-.28-.24a.62.62,0,0,1,.42-.77l3.14-1.25C283.76,728.94,284.2,729.17,283.58,729.81Z" transform="translate(-236.79 -642.24)"/><path class="cls-92" d="M279.68,730.77l.78.29-1,.46-2.58-.17c-1.18.2-1.69-.22-1.43-1.35A3.87,3.87,0,0,1,279.68,730.77Z" transform="translate(-236.79 -642.24)"/><path class="cls-89" d="M258.72,747.12c.38-1.22,1-2.23,2.59-2.24A3.89,3.89,0,0,1,258.72,747.12Z" transform="translate(-236.79 -642.24)"/><path class="cls-93" d="M310.22,681.13l.91,2.71a4.87,4.87,0,0,1-.42,3.06c-.7.24-.63,1.43-1.74,1.16-2.07-1.57-1.34-3.51-1.17-5.39a3.15,3.15,0,0,1,1.34-1.9A.83.83,0,0,1,310.22,681.13Z" transform="translate(-236.79 -642.24)"/><path class="cls-94" d="M309.36,688c.29-.54.56-1.08,1.35-1.1l-.06.3-.11.28c.19,1.61-.71,2.89-1.27,4.27-1,.37-1.19-.35-1.42-1A2.55,2.55,0,0,1,309.36,688Z" transform="translate(-236.79 -642.24)"/><path class="cls-95" d="M308.7,691.87c.61-1.46,1.23-2.92,1.84-4.39.2.37.4.74.59,1.11-1,1.24-.53,3.29-2.5,3.95C308.4,692.28,308.41,692.05,308.7,691.87Z" transform="translate(-236.79 -642.24)"/><path class="cls-96" d="M305.07,706.39l1.49,1.44.15,1.65-.94.52C303.73,709,303.79,707.76,305.07,706.39Z" transform="translate(-236.79 -642.24)"/><path class="cls-97" d="M264.93,737.39a1.5,1.5,0,0,1-1.29,1.13c-1.58,1.65-3.81,2.66-5.18,4.51-2.07-.66-1.61,2.19-3.36,2-.62-1.07-.93-2.08.43-2.76a3.87,3.87,0,0,0,2.41-2.61c3.9-2.62,7.94-5.1,10.28-9.22a2.91,2.91,0,0,1,1.75,0,3.14,3.14,0,0,1,1.47,1,1.5,1.5,0,0,1,.05,1.08C269.83,734.76,267.1,735.76,264.93,737.39Z" transform="translate(-236.79 -642.24)"/><path class="cls-98" d="M268.29,730.62c-1.87,4.56-5.65,7.24-10.35,9l9.06-7.9.51-1.4A.69.69,0,0,1,268.29,730.62Z" transform="translate(-236.79 -642.24)"/><path class="cls-99" d="M276.52,648l.57-1.38,7.25-.72-.14.23a1.4,1.4,0,0,1,.66,1.83c-.8,1.05-2.23.9-3.34,1.36a12.43,12.43,0,0,1-4.3,0c-.53-.34-.49-.9-.72-1.36Z" transform="translate(-236.79 -642.24)"/><path class="cls-100" d="M288.17,661.77c-.64-.22-1.17-.53-1.29-1.22A2.43,2.43,0,0,1,288,660a.78.78,0,0,1,.7.43Z" transform="translate(-236.79 -642.24)"/><path class="cls-101" d="M290.25,658.61l-1,.52-.25-.41a1.57,1.57,0,0,1,.17-.88l.33-.33.47-.13a1.14,1.14,0,0,1,.78.53A.68.68,0,0,1,290.25,658.61Z" transform="translate(-236.79 -642.24)"/><path class="cls-102" d="M289.23,659.13a2.57,2.57,0,0,0-.27.52.45.45,0,0,1-.51.06c-.15-.09-.22-.15-.21-.2a.73.73,0,0,1,.15-.75.8.8,0,0,1,.81.08Z" transform="translate(-236.79 -642.24)"/><path class="cls-103" d="M290.25,658.61a5,5,0,0,1,.13-.67.54.54,0,0,1,.76-.15c0,.14.06.29.1.43Z" transform="translate(-236.79 -642.24)"/><path class="cls-104" d="M291.54,657.46a1.08,1.08,0,0,1,.57.32l-.87.44.1-.14C291.05,657.75,291.09,657.54,291.54,657.46Z" transform="translate(-236.79 -642.24)"/><path class="cls-105" d="M288.13,659.32l.83.33-.26.74-.85-.16c-.07-.11-.13-.23-.2-.35l.14-.36Z" transform="translate(-236.79 -642.24)"/><path class="cls-106" d="M276.5,647.9l.56,1c.31.69,1.13.48,1.61.86a2.07,2.07,0,0,1,.62.7,1.33,1.33,0,0,1-.16.83,3,3,0,0,1-.7.51l-.4.18a2.51,2.51,0,0,1-1.31.17c-.21-.14-.44-.26-.66-.38C274.67,650.23,275.67,649.07,276.5,647.9Z" transform="translate(-236.79 -642.24)"/><path class="cls-107" d="M281.22,648.75c.57-1.7,2.43-.21,3.38-1,.51-.36,1-1.07,1.67-.09l.53.87.25.45-.22.44a3.34,3.34,0,0,1-.78.61c-.75.37-1.5.73-2.26,1.07a1.4,1.4,0,0,1-1.44-.2A3.5,3.5,0,0,1,281.22,648.75Z" transform="translate(-236.79 -642.24)"/><path class="cls-108" d="M286.27,647.66l-1.67.09c-.14-.55-.27-1.1-.4-1.65l2.21-.91,1.53.61Z" transform="translate(-236.79 -642.24)"/><path class="cls-109" d="M286.56,649.16a1,1,0,0,0,.24-.63l.86.29-.11.32-.1.33a.71.71,0,0,1-.64-.06C286.62,649.29,286.54,649.21,286.56,649.16Z" transform="translate(-236.79 -642.24)"/><path class="cls-110" d="M277,655.28l1.17-.37.5,0a2.42,2.42,0,0,1,.8.58,15.43,15.43,0,0,1,1.53,1.91,1,1,0,0,1-.23.88,3.1,3.1,0,0,1-1.95.48,1.33,1.33,0,0,1-.85-.53C276.09,657.6,276.62,656.42,277,655.28Z" transform="translate(-236.79 -642.24)"/><path class="cls-111" d="M277.82,661.21a2.24,2.24,0,0,1-1.73-2.21l1.65-.27a1,1,0,0,1,.86.08,1.42,1.42,0,0,1,.33.79,2.29,2.29,0,0,1-.37,1.19A1.34,1.34,0,0,1,277.82,661.21Z" transform="translate(-236.79 -642.24)"/><path class="cls-112" d="M278.64,659l-.9-.28a1.75,1.75,0,0,0,.24-.52l.86.09A.51.51,0,0,1,278.64,659Z" transform="translate(-236.79 -642.24)"/><path class="cls-113" d="M282.64,650.92l.95-.5a10.5,10.5,0,0,1,2.75-.18,2.91,2.91,0,0,1,1.87,2l-.87,2.11-.45.2a3.8,3.8,0,0,1-1,0c-.33,0-.66-.09-1-.14a3.78,3.78,0,0,0-2.33.43,4.17,4.17,0,0,1-.94.23,5,5,0,0,1-.95-.07,9,9,0,0,1-.89-.24c-.28-.08-.56-.18-.84-.28a4.81,4.81,0,0,0-.84-.17l-.42,0a1.21,1.21,0,0,1-.66-.49l0-.8a1.59,1.59,0,0,1,.87-1.33l-.07,0c.37-.15.73-.32,1.1-.45l-.07,0a4.63,4.63,0,0,1,1.63-.55,5.31,5.31,0,0,1,.89,0,3.91,3.91,0,0,1,.89.13Z" transform="translate(-236.79 -642.24)"/><path class="cls-114" d="M277.85,651.61l-.87,1.33c-.08-.27-.17-.54-.26-.81Z" transform="translate(-236.79 -642.24)"/><path class="cls-115" d="M277,653.74l.8.31c.19.37.08.61-.32.73Z" transform="translate(-236.79 -642.24)"/><path class="cls-116" d="M277.5,654.78c.1-.24.21-.49.32-.73v-.22l.55.06.41.37a.79.79,0,0,1-.38.86l-.22-.21A1.47,1.47,0,0,1,277.5,654.78Z" transform="translate(-236.79 -642.24)"/><path class="cls-117" d="M263.13,749.48c5.18-5.56,12-9.44,17.58-14.58.54-.5,1.05-1,1.58-1.57h0c1.16-.45,1.71-1.52,2.59-2.25,2.62.13,2-2.78,3.74-3.46,1.36,2.19-.48,3.78-.82,5.65.19,1.83-.32,3.67.48,5.48l0,0c-.55.57-1.41.92-1.47,1.85a5.35,5.35,0,0,1-.8.7c-4.52,3.42-8.91,7-13.79,10-1.43-.59-1.31.38-1.38,1.17Z" transform="translate(-236.79 -642.24)"/><path class="cls-118" d="M272.19,751.26c1-2.81,4.29-3.33,6.23-5.27,2.18-2.18,5-3.83,7.5-5.72.79,1.78-.76,2.79-1.31,4.12a3.91,3.91,0,0,1-1.57,1.5,11.37,11.37,0,0,0-5.15,3.13l-.51.14C275.32,749.23,274.37,751.42,272.19,751.26Z" transform="translate(-236.79 -642.24)"/><path class="cls-119" d="M282.3,745.35a1.5,1.5,0,0,0,1.29-1.12c.71-.15,1-1.66,1.79-.82.94,1,0,2-.74,2.88a2.83,2.83,0,0,1-.41.61,28.88,28.88,0,0,1-6.6,4,1.5,1.5,0,0,1-.25-1.69h0A25.87,25.87,0,0,1,282.3,745.35Z" transform="translate(-236.79 -642.24)"/><path class="cls-120" d="M277.82,661.21l.3-.75c.42-.13.69-.51,1.16-.54a1.27,1.27,0,0,1,.69.55.48.48,0,0,1-.33.65l-.08.31-.12.29-.23.33a4,4,0,0,1-.76.35l-.44,0a.52.52,0,0,1-.43-.6A6.44,6.44,0,0,1,277.82,661.21Z" transform="translate(-236.79 -642.24)"/><path class="cls-121" d="M277.58,661.82a3,3,0,0,0,.72.29q.4.55-.21.84l0,0-.83-.35c-.2.15-.36.18-.47.06s-.15-.21-.13-.28Z" transform="translate(-236.79 -642.24)"/><path class="cls-122" d="M276.68,662.41l.6.22c-.08.24-.16.49-.25.73a2.83,2.83,0,0,1-.69-.36A.68.68,0,0,1,276.68,662.41Z" transform="translate(-236.79 -642.24)"/><path class="cls-123" d="M288.21,652.19c-1-.17-1.48-1-2.08-1.65a.65.65,0,0,1-.13-.77,2.44,2.44,0,0,1,.6-.6h0l.89.31c.93.61,1.86,1.22,2.78,1.84A1.38,1.38,0,0,1,288.21,652.19Z" transform="translate(-236.79 -642.24)"/><path class="cls-124" d="M287.34,654.3c.89.29,1.91.43,2.1,1.56l-.21.33a2.05,2.05,0,0,1-.76.32l-.43-.06a2.26,2.26,0,0,1-.71-.51,2,2,0,0,1-.48-1.15.63.63,0,0,1,.56-.51Z" transform="translate(-236.79 -642.24)"/><path class="cls-125" d="M289.44,655.86l.81.28v0a1.39,1.39,0,0,1,.1.87.83.83,0,0,1-.64.56h.05a1.35,1.35,0,0,1-.93.08,1.66,1.66,0,0,1-.69-.65.61.61,0,0,1,.3-.74h0a4.66,4.66,0,0,0,1.05-.44Z" transform="translate(-236.79 -642.24)"/><path class="cls-126" d="M289.71,657.61l.28-.7a.49.49,0,0,1,.53-.08c.17.09.24.16.22.21l.8.42c-.07.2-.14.41-.2.62l-1-.14A2.78,2.78,0,0,0,289.71,657.61Z" transform="translate(-236.79 -642.24)"/><path class="cls-127" d="M290.74,657a2,2,0,0,1-.75-.13c.09-.24.17-.49.26-.73Z" transform="translate(-236.79 -642.24)"/><path class="cls-128" d="M305.07,706.39c-.26,1.25-.55,2.52.7,3.61a1.47,1.47,0,0,0,0,.66c-.53,1.44-1.06,2.87-1.58,4.31-.27.4-.53.81-.8,1.22l-2.7-1.77a1.53,1.53,0,0,1-.17-1,29.66,29.66,0,0,0,.45-5.24c.06-1.51.54-2.68,2.23-3.1Z" transform="translate(-236.79 -642.24)"/><path class="cls-129" d="M277.07,694.58c-.29-1.51-.48-2.94.62-4.28,2.45-3,.19-7.46,3-10.39l3.86,1.42a1,1,0,0,1-.08,1c-2.13,2.41-1.95,5.62-2.93,8.44-.4,1.16-.27,2.53-1.61,3.24Z" transform="translate(-236.79 -642.24)"/><path class="cls-7" d="M284.32,682c.08-.23.15-.46.22-.69a42,42,0,0,1,16.9,11.81.6.6,0,0,1,0,.76,1.33,1.33,0,0,1-.86,0,1.74,1.74,0,0,0-.87-.1,2.71,2.71,0,0,0-2.15.19c-1.75.39-2.43-.68-2.95-2a1.77,1.77,0,0,1,.6-1.21c.23-1.13-.95-.92-1.47-1.34a10,10,0,0,1-1.43-.79c-1-.78-2.27-1.26-3.34-2-.6-.45-1.16-1-1.74-1.44C286.15,684.27,284.35,683.79,284.32,682Z" transform="translate(-236.79 -642.24)"/><path class="cls-130" d="M300.63,680.79a1.54,1.54,0,0,1,.27,1.69c-3.21.66-4.48-2.43-6.84-3.48-2.94-1.32-5.45-4-7.53.4-.31.65-1.43.45-2.24.19,1.59-7.44,2.52-7.84,9.53-3.79A28.18,28.18,0,0,1,300.63,680.79Z" transform="translate(-236.79 -642.24)"/><path class="cls-131" d="M300.63,680.79c-3.57-1.37-6.38-3.95-9.83-5.61-2.68-1.29-4.11-2-4.52,1.35a4.38,4.38,0,0,1-2,3.06l-1.53-.6c.08-.22.17-.43.25-.65,1.87-1.9,1.47-4.88,3.37-6.77l4.66,1.7c.84,1.3,2.77.87,3.63,2.13C296.5,677.35,300.27,677.44,300.63,680.79Z" transform="translate(-236.79 -642.24)"/><path class="cls-132" d="M263.58,673.63c.52-1.37,1.9-1.1,3.06-1.27a5.17,5.17,0,0,1,1.72.91,72.29,72.29,0,0,1,8.7,4.5c-.09.22-.18.45-.26.68-2.06.43-4.13.92-5.71-1.25C268.59,676,265.6,675.8,263.58,673.63Z" transform="translate(-236.79 -642.24)"/><path class="cls-133" d="M304.79,693.52c-.16,3.14-2.8,5.17-3.76,8a9.3,9.3,0,0,1-1.5-.3c-.59-.13-.48-.64-.65-1l-.16-.11c-.1-2,1.23-3.34,2.22-4.84.2-.31.38-.62.57-.93l.55-.15,1.94-.93c.25-.14.45-.15.6,0S304.81,693.45,304.79,693.52Z" transform="translate(-236.79 -642.24)"/><path class="cls-134" d="M271.09,677.2l5.71,1.25,1.54.61c-2-.7-2.14,2.3-4.14,1.67-1.47-.8-2.67-2.07-4.41-2.4l-3.87-1.47C267.66,675.87,269.36,678.21,271.09,677.2Z" transform="translate(-236.79 -642.24)"/><path class="cls-135" d="M277.06,677.77c-3.22-1.62-7.16-1.68-9.87-4.39,2.92-.82,5.07.55,7,2.49l3.12,1.25C277.22,677.33,277.14,677.55,277.06,677.77Z" transform="translate(-236.79 -642.24)"/><path class="cls-136" d="M304.79,693.52l-.79-.28a2.46,2.46,0,0,1,.33-.62,2.9,2.9,0,0,1,.71.21l-.07.36Z" transform="translate(-236.79 -642.24)"/><path class="cls-137" d="M301.21,693.82a5.39,5.39,0,0,1,.22-.68.86.86,0,0,1,.63,1l-.26-.2q-.27.27-.45.12C301.23,694,301.18,693.89,301.21,693.82Z" transform="translate(-236.79 -642.24)"/><path class="cls-138" d="M308.7,691.87a1.19,1.19,0,0,1-.07.67l-3.55.09.48-3.63c.83-1.39.51-3,.78-4.52a1,1,0,0,1,.71,0c.23.1.34.16.33.2,1,2,.4,4.11.94,6.14Z" transform="translate(-236.79 -642.24)"/><path class="cls-139" d="M286.38,671.57c-1.22,2.21-1,5.12-3.37,6.77C284,676,283.86,673.17,286.38,671.57Z" transform="translate(-236.79 -642.24)"/><path class="cls-139" d="M294.67,675.4c-1.24-.65-3-.55-3.63-2.13C292.29,673.92,294,673.83,294.67,675.4Z" transform="translate(-236.79 -642.24)"/><path class="cls-140" d="M274.2,675.87l-7-2.49c-.18-.34-.36-.68-.55-1l.27-.71c0-1.63,1.57-1.72,2.65-2.28l1-.38c1.33.59,2.43-.27,3.67-.29,1.08.89.78,1.67.06,2.56C273.1,672.68,273.68,674.3,274.2,675.87Z" transform="translate(-236.79 -642.24)"/><path class="cls-79" d="M307.11,684.76l-.77-.28c-.23-2.87-.43-5.74,1.16-8.28l1.47,1.26a5.68,5.68,0,0,1,.17,1.69,18.46,18.46,0,0,0-.93,3.76C307.9,683.56,308,684.43,307.11,684.76Z" transform="translate(-236.79 -642.24)"/><path class="cls-141" d="M283.11,660.68c-.57-.19-1.14-.4-1.62.08l-.39.28-.47-.18a2,2,0,0,1-.32-.89,2.71,2.71,0,0,1,.22-.88,2.47,2.47,0,0,1,.59-.7,3.14,3.14,0,0,1,1.27-.58,3.1,3.1,0,0,1,1,0,3.75,3.75,0,0,1,.91.36l.36.31.22.41Z" transform="translate(-236.79 -642.24)"/><path class="cls-142" d="M286.35,659.44l-1.51-.51,0,.05a.48.48,0,0,1,.12-.72,1.57,1.57,0,0,1,.89-.09,1.7,1.7,0,0,1,.72.55A.58.58,0,0,1,286.35,659.44Z" transform="translate(-236.79 -642.24)"/><path class="cls-143" d="M287.85,660.23l-1,.32.23-.78.51-.08.31.42Z" transform="translate(-236.79 -642.24)"/><path class="cls-144" d="M286.35,659.44c.1-.21.2-.42.29-.63l.53,0,.43.32v.5l-.47.2,0,0Z" transform="translate(-236.79 -642.24)"/><path class="cls-145" d="M280.59,660.76h.9c-.13.27-.25.55-.37.83-.24-.08-.48-.17-.71-.27C280.17,661,280.23,660.85,280.59,660.76Z" transform="translate(-236.79 -642.24)"/><path class="cls-146" d="M269.56,669.37c-.33,1.31-1.77,1.52-2.65,2.28l-1.23-1.23,1.51-1.88Z" transform="translate(-236.79 -642.24)"/><path class="cls-147" d="M280.59,660.76l-.08.29-.1.27a5.12,5.12,0,0,1-.77-.2c.08-.2.17-.4.26-.6l.42-.26.44.28Z" transform="translate(-236.79 -642.24)"/><path class="cls-148" d="M279.92,662.83a3.47,3.47,0,0,0-.74-.27l-.3-.43.48-.19.08-.22Z" transform="translate(-236.79 -642.24)"/><path class="cls-149" d="M278.09,663l.21-.84,0-.07a.9.9,0,0,1,.79.41l.13.11-.31.69Z" transform="translate(-236.79 -642.24)"/><path class="cls-150" d="M303.19,705.06c-1.92,1.83-1.14,4.34-1.47,6.57-.11.78.6,1.82-.8,2.1-.9.34-1.46-.15-2-.77a10.16,10.16,0,0,1-1.37-2.58,18.6,18.6,0,0,1-3.81,4.63,1.6,1.6,0,0,1-1.14,0,3.69,3.69,0,0,1-1.38-1.87c0-.19-.08-.37-.13-.56a4.27,4.27,0,0,1,0-1.13,6.92,6.92,0,0,1,1.12-2.51c.82-1,1.23-2.19,2.06-3.16.55-.87-.55-1.34-.69-2-.54-2.47.61-2.63,2.6-1.37,2.07-.42,3.14,3.75,5.64,1.37Z" transform="translate(-236.79 -642.24)"/><path class="cls-151" d="M284.32,682c.78,1.32,2.77,1.35,3.4,2.83-.8,1.63-1.72,3.21-1.67,5.16a3.71,3.71,0,0,1-2.5,3.74l-3.63.28c.8-3.53,1.65-7,2.35-10.61C282.51,682.22,282.93,681.63,284.32,682Z" transform="translate(-236.79 -642.24)"/><path class="cls-152" d="M289,686.12c1.25.64,2.92.62,3.61,2.14a4.27,4.27,0,0,0-.62,4.38,1.35,1.35,0,0,1-.81,1.22c-.79.26-1.52,1-2.48.19l-1.56-.57c-1.1-2.41-1.24-4.6,1.08-6.35.29-.23-.68-1,.15-1.29a.5.5,0,0,1,.32,0A1.53,1.53,0,0,1,289,686.12Z" transform="translate(-236.79 -642.24)"/><path class="cls-153" d="M289,686.12c-1.53,2.2-1.61,4.8-1.86,7.36-1.22,0-2.31.87-3.62.27a10.44,10.44,0,0,0,1.69-5.41c0-1.23,0-3.43,2.48-3.49A1.86,1.86,0,0,1,289,686.12Z" transform="translate(-236.79 -642.24)"/><path class="cls-154" d="M288,713c1.52-1.25-.14-1.87-.78-2.69-1.74-2-2.39-3.54,1.29-3.53a13.16,13.16,0,0,1,3.11,6h0c.39,1-.1,1.44-1,1.64a3.31,3.31,0,0,1-1.81-.44A2,2,0,0,1,288,713Z" transform="translate(-236.79 -642.24)"/><path class="cls-155" d="M290.8,693.21l1-.43c.42-1.66,1.46-2.08,3.15-1.23a4.36,4.36,0,0,0,2.55,2.48c-1,.85-1.76,2-3.36,2C292,696.22,290.52,695.61,290.8,693.21Z" transform="translate(-236.79 -642.24)"/><path class="cls-153" d="M290.8,693.21a5,5,0,0,0,3.37,2.83c-.68,1.31-1.86,2.28-3.39,1.64s-2.62-1.87-2-3.63Z" transform="translate(-236.79 -642.24)"/><path class="cls-156" d="M296.25,702.41c-5.48-.68.4,2.81-1.29,3.53l-.49.12-.29-.41c-1.47-1.53-3.63-2.79-2.22-5.52C293.28,700.73,295.21,700.56,296.25,702.41Z" transform="translate(-236.79 -642.24)"/><path class="cls-157" d="M301.67,694.55a11,11,0,0,1-2.95,5.54c-.13-.32-.27-.64-.4-1a2.59,2.59,0,0,1,1.24-3.43l1.3-1.12A.53.53,0,0,1,301.67,694.55Z" transform="translate(-236.79 -642.24)"/><path class="cls-156" d="M290.55,708.33c.25-2,.52-3.94,3.63-2.68h0a4.54,4.54,0,0,1-3,3.66C290.5,709.27,290.08,709,290.55,708.33Z" transform="translate(-236.79 -642.24)"/><path class="cls-158" d="M290.55,708.33l.52,1,.41.33c.61.75-.05,1.6.37,2.36l-.26.71c-1.92-1.62-2.19-3.92-3.11-6Z" transform="translate(-236.79 -642.24)"/><path class="cls-159" d="M299.56,695.69c-.41,1.15-.82,2.29-1.24,3.43C296.42,697.14,296.76,696,299.56,695.69Z" transform="translate(-236.79 -642.24)"/><path class="cls-160" d="M301.67,694.55a2,2,0,0,0-.81,0,2.19,2.19,0,0,1-.6-.49l.17-.35a1.41,1.41,0,0,1,.78.09,5.66,5.66,0,0,0,.59.15A5.43,5.43,0,0,1,301.67,694.55Z" transform="translate(-236.79 -642.24)"/><path class="cls-161" d="M298.88,700.2l.65,1a1.84,1.84,0,0,0-.52.48C298.51,701.18,298.68,700.69,298.88,700.2Z" transform="translate(-236.79 -642.24)"/><path class="cls-162" d="M300.43,693.73a2.26,2.26,0,0,1-.17.35,1.16,1.16,0,0,1-.59-.23Z" transform="translate(-236.79 -642.24)"/><path class="cls-163" d="M288,713l.77.28c.27.55,1.05,1.06.27,1.69-.42,2-.85,4-1.27,6a2.87,2.87,0,0,1-2.88.59l-3.07-1.16c-.74-.79.22-1,.48-1.46,2.21-1.2,2-3.62,2.85-5.5C285.88,711.71,286.67,711.63,288,713Z" transform="translate(-236.79 -642.24)"/><path class="cls-164" d="M268.29,730.62l-.78-.28c-2.43-.75-5.86.47-6.74-3.28.17-.47.34-.93.5-1.39a1.58,1.58,0,0,0,1.34-1.11l1.53.5c1.22,2.55,3.91,3.64,6.06,5.26a.66.66,0,0,1-.36.86Z" transform="translate(-236.79 -642.24)"/><path class="cls-165" d="M308.44,678.79c.18-.44.35-.88.53-1.33a3.81,3.81,0,0,1,.64.24c.19,1.15,1.25,2.2.61,3.42l-.78-.31C308.58,680.34,308.72,679.48,308.44,678.79Z" transform="translate(-236.79 -642.24)"/><path class="cls-166" d="M270.11,730.48a34.6,34.6,0,0,0-3.49-1.25c-2.55-.63-3.12-2.09-2.48-4.17,2.23-.88,3.18,1.5,5,1.92,3.65.85,7.22,2,10.82,3.09l-.12.35-.14.35-4.1-.6a4.59,4.59,0,0,1-2.36,1.22C272.11,731.36,270.93,731.55,270.11,730.48Z" transform="translate(-236.79 -642.24)"/><path class="cls-167" d="M283.58,729.81c-.17-.33-.34-.66-.5-1l-.21-.11c0-.82.09-1.57,1-2,1.28-.47,1.65-2.17,3.36-2.06C286,726.42,285.34,728.46,283.58,729.81Z" transform="translate(-236.79 -642.24)"/><path class="cls-168" d="M283.84,726.76c-.32.65-.64,1.3-1,2-1.31-1.28-.26-2.33.59-2.81S283.74,726.43,283.84,726.76Z" transform="translate(-236.79 -642.24)"/><path class="cls-169" d="M288.28,738.75c-2.07-1.56-1.21-3.36-.81-5.12a.46.46,0,0,1,.54,0c.13.11.18.2.16.26.9,1.36.45,2.77.42,4.16Z" transform="translate(-236.79 -642.24)"/><path class="cls-16" d="M284.64,746.29c0-.82,1-1.49.38-2.36-.09-.13-.94.19-1.43.3l2.33-4,.86.28c.91,1.75-.73,3-.74,4.58C285.68,745.62,285.45,746.26,284.64,746.29Z" transform="translate(-236.79 -642.24)"/><path class="cls-170" d="M288.17,733.9a3.91,3.91,0,0,0-.7-.27c-1-2.3.84-4,1.15-6l.53-.49.42.91c.7,1.48-.32,2.64-.6,3.94,0,.17-.09.33-.14.49Z" transform="translate(-236.79 -642.24)"/><path class="cls-171" d="M290.25,728.2l1.1-.34c-.9,1.51-.56,3.65-2.52,4.61l-.13,0A6.92,6.92,0,0,1,290.25,728.2Z" transform="translate(-236.79 -642.24)"/><path class="cls-172" d="M299.61,712.45c.14.69.68,1,1.31,1.28l-.24.69c-3.16,1-4.5,3.3-5,6.21-1.26-.79-2.71-1.48-2.28-3.25a4.51,4.51,0,0,1,.6-1.55,17.63,17.63,0,0,1,2.93-3.36C297.75,711.81,298.63,711.24,299.61,712.45Z" transform="translate(-236.79 -642.24)"/><path class="cls-158" d="M290.3,713.85a1.52,1.52,0,0,0,1.29-1.13,2.75,2.75,0,0,1,1,2c1,1.17.65,1.84-.77,2.12l-.79-.29C291.24,715.55,289.48,715,290.3,713.85Z" transform="translate(-236.79 -642.24)"/><path class="cls-173" d="M290.3,713.85c.2.9,1.31,1.63.77,2.68L289,715l-.27-1.69Z" transform="translate(-236.79 -642.24)"/><path class="cls-174" d="M291.86,716.82a1.84,1.84,0,0,0,.77-2.12l.78.28c1.63.15.49,1.41,1,2l-1,.41Z" transform="translate(-236.79 -642.24)"/><path class="cls-87" d="M284.88,731.08c-.38,1.23-1,2.24-2.59,2.25A4,4,0,0,1,284.88,731.08Z" transform="translate(-236.79 -642.24)"/><path class="cls-175" d="M290.25,728.2c-.52,1.43-1,2.87-1.55,4.31-.76-1.73.44-3,.87-4.47Z" transform="translate(-236.79 -642.24)"/><path class="cls-176" d="M271.15,732.46l.25-.7a1.87,1.87,0,0,1,1.87-.5,1,1,0,0,1,.72.65c-1.28,2.48-3.66,3.8-6.21,4.93l-.78-.29C267.48,734.39,270.16,734.17,271.15,732.46Z" transform="translate(-236.79 -642.24)"/><path class="cls-177" d="M274,731.91l-.77-.31c-.3-.39-.19-.63.26-.76a2.43,2.43,0,0,1,2.1-.67c.14.66.69.94,1.27,1.18l-.27.67Z" transform="translate(-236.79 -642.24)"/><path class="cls-178" d="M271.15,732.46c-.46,2.18-2.95,2.56-4.15,4.09a2.68,2.68,0,0,1-2.07.84A14.41,14.41,0,0,1,271.15,732.46Z" transform="translate(-236.79 -642.24)"/><path class="cls-178" d="M258.46,743c.79-2.42,3-3.43,5.18-4.51C262.76,740.86,260.39,741.73,258.46,743Z" transform="translate(-236.79 -642.24)"/><path class="cls-83" d="M307.11,684.76l.78-2.12c.26-.18.46-.19.6,0s.21.26.18.34c0,1.7-.72,3.45.69,5.07-.34.94-.69,1.88-1,2.82C306.07,689,307.86,686.74,307.11,684.76Z" transform="translate(-236.79 -642.24)"/><path class="cls-179" d="M308.67,682.93l-.78-.29a5.57,5.57,0,0,1,.55-3.85c.33.67.66,1.35,1,2Z" transform="translate(-236.79 -642.24)"/><path class="cls-163" d="M273.48,730.84c-.09.25-.18.51-.26.76l-1.82.16-1.56-.58.27-.7Z" transform="translate(-236.79 -642.24)"/><path class="cls-180" d="M281.22,648.75a2,2,0,0,1,1.42,2.17l-.28,0a1.57,1.57,0,0,1-.91,0,2.93,2.93,0,0,0-.92-.17c-.45.08-.91.21-1.31-.18-.86-.41-1.93-.58-2.16-1.7C278.46,649,279.72,647.75,281.22,648.75Z" transform="translate(-236.79 -642.24)"/><path class="cls-181" d="M289.2,658.84a2.09,2.09,0,0,1-.78-.16l-.06-.49.32-.37.54,0,.24.45C289.38,658.49,289.29,658.67,289.2,658.84Z" transform="translate(-236.79 -642.24)"/><path class="cls-48" d="M289.46,658.31l-.77-.39a.4.4,0,0,1,.25-.62l.82.31Z" transform="translate(-236.79 -642.24)"/><path class="cls-182" d="M288.42,658.68l-.12.33-.17.31.05.1a.57.57,0,0,1-.55,0c-.18-.09-.25-.16-.24-.21l.09-.3a.61.61,0,0,1,.4-.59.44.44,0,0,1,.55.39Z" transform="translate(-236.79 -642.24)"/><path class="cls-183" d="M287.39,659.23a2,2,0,0,1,.79.19l-.13.34-.12.35-.8-.3C287.21,659.61,287.3,659.42,287.39,659.23Z" transform="translate(-236.79 -642.24)"/><path class="cls-184" d="M279.22,650.58l1.71-.26c.33.42.24.7-.26.86-.57.6-1.22.22-1.86,0Z" transform="translate(-236.79 -642.24)"/><path class="cls-185" d="M278.88,651.19l-1.1.45Z" transform="translate(-236.79 -642.24)"/><path class="cls-108" d="M286.34,649.94l-.21.6c-.84.14-1.68.58-2.54-.12a2.36,2.36,0,0,1,1.89-.85A.67.67,0,0,1,286.34,649.94Z" transform="translate(-236.79 -642.24)"/><path class="cls-186" d="M286.34,649.94l-.86-.37,1.12-.4Z" transform="translate(-236.79 -642.24)"/><path class="cls-187" d="M281.14,654.45l.81.28.49.3a2.5,2.5,0,0,1,.81,2c-.07.16-.15.31-.22.47l-.47.26a1.45,1.45,0,0,1-1.57-.07c-.91-.47-2.27-.61-1.87-2.08l0-.41a1.46,1.46,0,0,1,.68-.49l.44-.07A2,2,0,0,0,281.14,654.45Z" transform="translate(-236.79 -642.24)"/><path class="cls-188" d="M278.64,659c.07-.24.14-.47.2-.71.53-.53,1.17-.24,1.79-.11.08.14.17.27.26.4-.07.14-.13.27-.19.41l-.34.31a2,2,0,0,1-.87.32l-.49,0-.38-.32Z" transform="translate(-236.79 -642.24)"/><path class="cls-189" d="M281,657.64l1.68-.32a.58.58,0,0,1-.18.92l-.81.47a.67.67,0,0,1-1-.37l-.07-.15C280.75,658,280.86,657.82,281,657.64Z" transform="translate(-236.79 -642.24)"/><path class="cls-190" d="M278.4,655.12l.2-.85.51-.09.4.35a.61.61,0,0,1-.4.76v.27Z" transform="translate(-236.79 -642.24)"/><path class="cls-191" d="M278.62,659.29a2.85,2.85,0,0,1,.76.26c.21.34.1.55-.28.63l-1,.28Z" transform="translate(-236.79 -642.24)"/><path class="cls-192" d="M282,654.73c.76-1.91,2.21-1.7,3.86-.88a1.43,1.43,0,0,1,.1,1.07l-.32.45-.49.3a2.42,2.42,0,0,1-3.12-1Z" transform="translate(-236.79 -642.24)"/><path class="cls-193" d="M285.59,654.55c.07-.24.14-.47.22-.7l.77.26c0,.19,0,.37.07.56l-.55.2Z" transform="translate(-236.79 -642.24)"/><path class="cls-194" d="M279.3,654.59l-.7-.32h0c-.12-.34,0-.54.35-.61a1.48,1.48,0,0,1,.69.33C279.79,654.34,279.7,654.54,279.3,654.59Z" transform="translate(-236.79 -642.24)"/><path class="cls-195" d="M281.67,650.69a1.69,1.69,0,0,1,.69.25c-.14.44-.42.57-.87.29C281.26,651,281.34,650.77,281.67,650.69Z" transform="translate(-236.79 -642.24)"/><path class="cls-196" d="M278.91,653.67a1.55,1.55,0,0,0-.35.61l-.74-.45Z" transform="translate(-236.79 -642.24)"/><path class="cls-197" d="M281.14,654.45l-.95.54c-.28-.32-.23-.56.16-.72A1.56,1.56,0,0,1,281.14,654.45Z" transform="translate(-236.79 -642.24)"/><path class="cls-197" d="M281.67,650.69l-.18.54-.82-.05c.09-.29.18-.58.26-.86C281.18,650.44,281.43,650.56,281.67,650.69Z" transform="translate(-236.79 -642.24)"/><path class="cls-198" d="M286.36,654.72c.08-.2.15-.4.22-.61l.83.17a4.43,4.43,0,0,1-.3.67.57.57,0,0,1-.54,0C286.41,654.84,286.34,654.77,286.36,654.72Z" transform="translate(-236.79 -642.24)"/><path class="cls-199" d="M280.35,654.27a5.77,5.77,0,0,0-.16.72v-.06a.7.7,0,0,1-.82-.34h-.07a3.27,3.27,0,0,0,.3-.59A1.11,1.11,0,0,1,280.35,654.27Z" transform="translate(-236.79 -642.24)"/><path class="cls-16" d="M282.3,745.35c-1.05,1.92-3,2.86-4.92,3.81A5.6,5.6,0,0,1,282.3,745.35Z" transform="translate(-236.79 -642.24)"/><path class="cls-200" d="M279.1,660.18a3.55,3.55,0,0,0,.28-.63l0-.19.67,0,.32.57-.47.41,0,.2Z" transform="translate(-236.79 -642.24)"/><path class="cls-201" d="M279.05,662.45l-.79-.41,1.1-.1A3.86,3.86,0,0,1,279.05,662.45Z" transform="translate(-236.79 -642.24)"/><path class="cls-202" d="M286.36,654.72a1.53,1.53,0,0,0,.75.23l.53,1-.25.37a2.38,2.38,0,0,1-.87.35,2.47,2.47,0,0,1-1-.16,1.81,1.81,0,0,1-.7-.67.62.62,0,0,1,.48-.67l0-.09a4.39,4.39,0,0,1,1.09-.22Z" transform="translate(-236.79 -642.24)"/><path class="cls-48" d="M289.48,655.86l-1.05.44Z" transform="translate(-236.79 -642.24)"/><path class="cls-203" d="M288.44,656.3l-.27.72-.37.05a.74.74,0,0,1-.51-.53.45.45,0,0,1,.33-.57h0Z" transform="translate(-236.79 -642.24)"/><path class="cls-204" d="M288.94,657.3c-.07.21-.16.41-.25.62l0,.17a.75.75,0,0,1-.79-.35.54.54,0,0,1,.27-.72h0Z" transform="translate(-236.79 -642.24)"/><path class="cls-205" d="M295,691.55a4.66,4.66,0,0,0-3.15,1.23c-2.47-2.08-1.19-3.38.81-4.52l1.52.59c.47.84,2,1,1.82,2.25Z" transform="translate(-236.79 -642.24)"/><path class="cls-153" d="M296,691.1l-1.82-2.25c1,.61,2.61.31,3.08,1.74A8.16,8.16,0,0,1,296,691.1Z" transform="translate(-236.79 -642.24)"/><path class="cls-206" d="M285.06,658.43l-.05.29-.15.26-.83-.33a.56.56,0,0,1,.28-.78l.52.11C284.91,658.13,285,658.28,285.06,658.43Z" transform="translate(-236.79 -642.24)"/><path class="cls-207" d="M284.25,658c-.06.23-.14.46-.22.68a1.67,1.67,0,0,1-.73-.33l-.09-.55.56-.16Z" transform="translate(-236.79 -642.24)"/><path class="cls-208" d="M283.52,657.7l-.11.31-.11.32-.81-.09.18-.92h0A.67.67,0,0,1,283.52,657.7Z" transform="translate(-236.79 -642.24)"/><path class="cls-209" d="M280.7,658.34l1,.37-.51.62a.53.53,0,0,1-.59-.05c-.13-.13-.19-.23-.17-.29A5.37,5.37,0,0,1,280.7,658.34Z" transform="translate(-236.79 -642.24)"/><path class="cls-210" d="M280.41,659l.76.34a4.06,4.06,0,0,0-.27.6.5.5,0,0,1-.57,0c-.16-.12-.23-.2-.21-.26v-.06a.4.4,0,0,1,.33-.61Z" transform="translate(-236.79 -642.24)"/><path class="cls-211" d="M280.12,659.7l.78.23a6,6,0,0,0-.14.61l-.88-.22A3.61,3.61,0,0,0,280.12,659.7Z" transform="translate(-236.79 -642.24)"/><path class="cls-212" d="M286.64,658.81l-.81-.33a.54.54,0,0,1,.23-.74,1,1,0,0,1,.82.41.48.48,0,0,1-.3.69Z" transform="translate(-236.79 -642.24)"/><path class="cls-213" d="M286.1,657.89c-.08.2-.17.39-.27.59a2.52,2.52,0,0,1-.77-.05l.07-.33a.46.46,0,0,1,.27-.66A.83.83,0,0,1,286.1,657.89Z" transform="translate(-236.79 -642.24)"/><path class="cls-214" d="M286.58,658.84a4.24,4.24,0,0,1,.36-.61l.38-.19.41.19c-.06.12-.12.24-.19.36l-.06.34Z" transform="translate(-236.79 -642.24)"/><path class="cls-215" d="M294.44,717c-.35-.66-.69-1.32-1-2,.6-2.47,3-3.73,4.12-6l2.08,3.51C296.47,712.57,296.15,715.45,294.44,717Z" transform="translate(-236.79 -642.24)"/><path class="cls-153" d="M291.07,709.32l3.11-3.67.78.29c-.63,1.12-.42,2.73-2.07,3.24-.58.26-1.09.88-1.82.14Z" transform="translate(-236.79 -642.24)"/><path class="cls-156" d="M291.07,709.32l1.82-.14c-.35,1-.69,1.89-1,2.83Z" transform="translate(-236.79 -642.24)"/><path class="cls-216" d="M287.9,657.75l.82.34a5.24,5.24,0,0,0-.29.64l-.89-.14.12-.18c-.06-.14-.11-.29-.17-.44Z" transform="translate(-236.79 -642.24)"/><path class="cls-217" d="M285.33,655.18l-.28.86a1,1,0,0,1,.06.91,1.32,1.32,0,0,1-1.35.41,1,1,0,0,1-.73-.63,2.34,2.34,0,0,1-1-2C283,655.42,284.2,655.21,285.33,655.18Z" transform="translate(-236.79 -642.24)"/><path class="cls-218" d="M279.37,654.59l.82.34a.78.78,0,0,1-1.08.36C279.19,655.05,279.28,654.82,279.37,654.59Z" transform="translate(-236.79 -642.24)"/><path class="cls-219" d="M283,656.73a1.59,1.59,0,0,1,.69.39c.3.32.26.52-.2.57h0l-.86-.37A4.6,4.6,0,0,0,283,656.73Z" transform="translate(-236.79 -642.24)"/><path class="cls-220" d="M280.46,659a3.25,3.25,0,0,0-.33.61,7.08,7.08,0,0,1-.77-.28Z" transform="translate(-236.79 -642.24)"/><path class="cls-124" d="M286.38,654.87l-1.09.22a4.68,4.68,0,0,0,.3-.54Z" transform="translate(-236.79 -642.24)"/><path class="cls-124" d="M284.86,656.71c.06-.22.12-.45.19-.67l.88.27a.74.74,0,0,1-.34.65A.68.68,0,0,1,284.86,656.71Z" transform="translate(-236.79 -642.24)"/><path class="cls-124" d="M287.62,656a3.64,3.64,0,0,1-.3.63l-.34.17-.37-.16.1-.36Z" transform="translate(-236.79 -642.24)"/><path class="cls-221" d="M285.61,656.9c.11-.19.22-.39.32-.59a2.57,2.57,0,0,0,.78-.06l-.18.15,0,.23a.47.47,0,0,1-.16.71l-.47-.06C285.78,657.15,285.69,657,285.61,656.9Z" transform="translate(-236.79 -642.24)"/><path class="cls-143" d="M288.2,657l-.3.73,0,0-.52.15-.4-.39a.66.66,0,0,1,.37-.83l-.05,0Z" transform="translate(-236.79 -642.24)"/><path class="cls-221" d="M284.86,656.71a2.76,2.76,0,0,1,.75.19l0,0c.22.36.14.59-.29.68-.06.16-.14.32-.21.48l-.88-.13c-.24-.08-.49-.18-.73-.28l.2-.57Z" transform="translate(-236.79 -642.24)"/><path class="cls-222" d="M285.34,657.62a3.39,3.39,0,0,1,.29-.68,6.44,6.44,0,0,1,.72.2.49.49,0,0,1,.6,0c.16.12.23.22.2.29h0a.44.44,0,0,1-.26.71l.06.09-.84-.34C285.85,657.79,285.6,657.7,285.34,657.62Z" transform="translate(-236.79 -642.24)"/><path class="cls-223" d="M286.88,658.14c.09-.24.18-.47.26-.71l.78.29c-.09.23-.18.47-.26.7Z" transform="translate(-236.79 -642.24)"/><path class="cls-224" d="M287.15,657.42l-.8-.28a2.46,2.46,0,0,0,.15-.51l.87,0C287.3,656.91,287.23,657.16,287.15,657.42Z" transform="translate(-236.79 -642.24)"/></svg>
