<svg xmlns="http://www.w3.org/2000/svg" xmlns:xlink="http://www.w3.org/1999/xlink" viewBox="0 0 1024.76 374.6"><defs><style>.cls-1{fill:url(#linear-gradient);}.cls-2{opacity:0.71;}.cls-3{fill:#fff;}</style><linearGradient id="linear-gradient" x1="373.83" y1="48.22" x2="663.83" y2="854.22" gradientUnits="userSpaceOnUse"><stop offset="0.02" stop-color="#fff"/><stop offset="0.06" stop-color="#eaf1f3"/><stop offset="0.14" stop-color="#bcd2d8"/><stop offset="0.23" stop-color="#93b7c1"/><stop offset="0.32" stop-color="#71a1ad"/><stop offset="0.41" stop-color="#558e9d"/><stop offset="0.52" stop-color="#408091"/><stop offset="0.63" stop-color="#317688"/><stop offset="0.77" stop-color="#287083"/><stop offset="0.96" stop-color="#256e81"/></linearGradient></defs><title>storbobler</title><g id="mellemgrund"><path class="cls-1" d="M1024,583V286s-16.16-13.31-61-11c0,0-1.25-5.17-24-12s-21.3-3.43-27.63-2.12C908.69,261.44,894,257,894,257l-27-4-27.28-3.39h-31l-11.56-4.16H765.76l-5.09-4.16-8.32,2.31L738,241.29h-7.39l-16.3-.29-.2-2.48-11.24,1-2.5-.15-.12-2.17-10.73,1.45-2.6-.11,0-2.2-8.77,1.79-2.89-.17.18-2-8.62,1.61-1.73-.23.14-1.61-7.6.91-3.46-.74.12-3.58-16.18.17-23.11,1.85-5.55-4.62L593.8,226h-2.31l12.94-6.47,13.41-5.09V209.4l-618.6-1v368Z" transform="translate(0.76 -208.4)"/></g><g id="vandbrus_og_flaske" data-name="vandbrus og flaske"><g class="cls-2"><ellipse class="cls-3" cx="596.3" cy="214.21" rx="8.74" ry="5.46"/><path class="cls-3" d="M744.61,423.28a6.25,6.25,0,0,0-6.27,4.52,9.07,9.07,0,0,0-3.36-2.57c3.62-.7,6.22-2.57,6.22-4.78,0-2.81-4.2-5.08-9.38-5.08-3.94,0-7.31,1.31-8.69,3.18-.87-3.09-5.13-5.44-10.28-5.44a15.14,15.14,0,0,0-5.6,1c-1.17-3.39-5.94-5.93-11.66-5.93-6.36,0-11.54,3.14-11.9,7.09a12.67,12.67,0,0,0-2.81-.31c-3.59,0-6.67,1.45-8,3.52a6,6,0,0,0-4.41,3.95l-.5-.1a9.64,9.64,0,0,0-3-2.13c3.62-.7,6.22-2.57,6.22-4.78,0-2.81-4.2-5.08-9.38-5.08-3.94,0-7.31,1.31-8.69,3.18-.87-3.09-5.13-5.44-10.28-5.44a15.14,15.14,0,0,0-5.6,1c-1.17-3.39-5.94-5.93-11.66-5.93-6.36,0-11.54,3.14-11.9,7.09a12.67,12.67,0,0,0-2.81-.31c-4.82,0-8.74,2.61-8.74,5.84s3.92,5.83,8.74,5.83a11.78,11.78,0,0,0,5-1.07,6.57,6.57,0,0,0-.14,1.26c0,4.06,3.73,7.35,8.32,7.35s8.31-3.29,8.31-7.35a6.79,6.79,0,0,0-1.62-4.34,14.68,14.68,0,0,0,2.11-.82c1.08,2.16,3.87,3.83,7.37,4.39a7.13,7.13,0,0,0-3.6,6c0,4.06,3.72,7.35,8.31,7.35h.27a6.33,6.33,0,0,0,0,.76c0,3.75,3.43,6.78,7.67,6.78s7.67-3,7.67-6.78a6.24,6.24,0,0,0-1.42-3.92,11.59,11.59,0,0,0,6.42,1.77c3.75,0,6.94-1.48,8.18-3.55a8.53,8.53,0,0,0,.89.05,6.55,6.55,0,0,0,5.6-2.93l.67,0a11.78,11.78,0,0,0,5-1.07,6.57,6.57,0,0,0-.14,1.26c0,4.06,3.73,7.35,8.32,7.35s8.31-3.29,8.31-7.35a6.79,6.79,0,0,0-1.62-4.34,14.68,14.68,0,0,0,2.11-.82c1.08,2.16,3.87,3.83,7.37,4.39a7.13,7.13,0,0,0-3.6,6c0,4.06,3.72,7.35,8.31,7.35h.27a6.33,6.33,0,0,0,0,.76c0,3.75,3.43,6.78,7.67,6.78s7.67-3,7.67-6.78a6.28,6.28,0,0,0-1.7-4.25l.11,0c4.84.74,9.28-1.05,10.27-4a6.61,6.61,0,0,0,5.39,2.61c3.53,0,6.39-2.53,6.39-5.65S748.14,423.28,744.61,423.28Zm-93.27-.88a8.36,8.36,0,0,0-3.14-2,8.33,8.33,0,0,0,4.57-3.59,6,6,0,0,0,3.06,2.6A7.14,7.14,0,0,0,651.34,422.4Zm70,5a8.36,8.36,0,0,0-3.14-2,8.33,8.33,0,0,0,4.57-3.59,6,6,0,0,0,3.06,2.6A7.14,7.14,0,0,0,721.34,427.4Z" transform="translate(0.76 -208.4)"/></g></g></svg>
